<svg version="1.2" xmlns="http://www.w3.org/2000/svg" viewBox="0 0 1204 1204" width="1204" height="1204">
	<title>05-SAHAT-KULLAa-01-svg</title>
	<style>
		.s0 { fill: #000000 } 
		.s1 { fill: #ffffff } 
	</style>
	<g id="Black-2">
		<path class="s0" d="m-3-3h1210v1210h-1210z"/>
	</g>
	<g id="Color">
		<path fill-rule="evenodd" class="s1" d="m2.3 1139c-0.1 0-0.1-1137-0.1-1137h1200c0 0 0 1152.8-0.1 1152.8-0.1 0-10.5-1-14.8-2.2-43.1-11.8-77.2-19.5-93.8-21-3.5-0.3-13-0.3-18.9 0-22.2 1.2-55.3 5-96.7 11.1q-2.5 0.5-4.9 0.8-2.5 0.3-5 0.6-2.5 0.2-5 0.4-2.4 0.2-4.9 0.2c-5.3 0.3-25.1 1.3-44.2 2.3-78.9 4.1-135.1 6.8-153.2 7.4-4.6 0.2-8.7-0.1-20.4-1.3-28.1-2.9-46.3-7.5-60.5-15.2l-2.4-1.3v-631.6l1.8 0.3c5.5 0.9 9.2-0.2 10-3.1q0.3-0.9 0.3-1.9 0-0.9-0.2-1.9-0.3-0.9-0.7-1.8-0.5-0.8-1.1-1.5c-1.9-2.1-4.9-3.4-10.3-4.5l-1.4-0.2v-136.8l0.9-0.7q0.4-0.2 0.8-0.5 0.3-0.4 0.5-0.8 0.2-0.4 0.4-0.8 0.1-0.5 0.1-1c0-1.3-0.3-1.9-1.6-3.6l-1.1-1.5v-9.5-9.5l-3.1-2.2q-0.5-0.3-1-0.7-0.5-0.3-1-0.6-0.5-0.3-1-0.6-0.5-0.3-1-0.5c-4.2-1.2-4-1.1-4.7-2.6-3-6.2-14.9-27.6-18.1-32.4-2.7-4-6.4-7.9-9-9.5q-0.6-0.3-1.1-0.5-0.6-0.3-1.2-0.4-0.7-0.2-1.3-0.3-0.6-0.1-1.2-0.1l-1 0.2v-31.7c0-22.2 0.1-31.7 0.2-31.7 0.1 0 1 0.1 1.9 0.2q0.5 0.2 1 0.2 0.6 0 1.1-0.1 0.5-0.1 0.9-0.3 0.5-0.2 0.9-0.5c1.7-1.3 2.1-4.7 1-7-1.1-2.4-1.4-2.5-11.1-6.4q-0.3-0.1-0.6-0.2-0.4-0.2-0.7-0.3-0.3-0.2-0.6-0.3-0.3-0.2-0.6-0.4c0-0.1 0.2-0.2 0.5-0.3q0.1-0.1 0.2-0.2 0.1-0.1 0.3-0.2 0.1-0.1 0.1-0.3 0.1-0.1 0.2-0.3c0.3-0.6 0.3-0.9-0.1-2.8-1.7-6.9-7.1-13.6-15.5-19q-2-1.3-4.1-2.3-2.1-1.1-4.3-1.9-2.2-0.8-4.4-1.3-2.3-0.6-4.6-0.9l-2.5-0.3 0.2-1c0-0.5 0.2-2 0.5-3.3 0.4-3.1 0.3-4.4-0.7-5.2q-0.1-0.2-0.3-0.3-0.2-0.1-0.5-0.2-0.2-0.1-0.4-0.2-0.2-0.1-0.5-0.1c-0.8-0.1-0.9-0.3-0.8-0.6q0.2-0.7 0.4-1.4 0.1-0.8 0.2-1.5 0.1-0.7 0.1-1.5 0.1-0.7 0.1-1.5c-0.1-1.4-0.6-2.1-1.9-2.4-0.5-0.2-0.9-0.4-0.9-0.6 0-1-1-16.4-1.1-17.3q0-0.3-0.1-0.5-0.1-0.3-0.2-0.6-0.2-0.2-0.3-0.4-0.2-0.3-0.4-0.5c-2.3-2.6-4.6-2.1-6.2 1.3q-0.2 0.5-0.4 1.1-0.2 0.5-0.3 1-0.2 0.6-0.2 1.1-0.1 0.6-0.1 1.2c-0.2 2.2-0.7 12.8-0.7 14.7 0 0.2-0.3 0.4-0.6 0.5q-0.4 0.2-0.7 0.4-0.4 0.2-0.7 0.5-0.3 0.2-0.5 0.6-0.3 0.3-0.5 0.6c-0.4 0.8-0.5 6.2-0.1 6.9 0.2 0.4 0.1 0.6-0.4 0.8q-0.3 0.2-0.6 0.5-0.3 0.2-0.6 0.5-0.3 0.3-0.5 0.6-0.2 0.3-0.4 0.7c-0.3 0.6-0.3 1.5-0.3 4.2q-0.1 0.5 0 1 0 0.5 0 1 0 0.5 0.1 1 0 0.5 0.1 1c0.2 0.5 0.1 0.6-2.1 1.5q-2 0.7-4 1.7-1.9 0.9-3.8 2-1.9 1.1-3.6 2.4-1.8 1.2-3.5 2.6-1.3 1.3-2.6 2.7-1.2 1.4-2.3 2.9-1.1 1.5-2.1 3.1-1 1.5-1.9 3.2-0.1 0.3-0.3 0.5-0.1 0.3-0.3 0.5-0.2 0.3-0.4 0.5-0.2 0.3-0.4 0.5l-3.8 0.8c-3.9 0.8-5.1 1.4-6.1 2.6-2.2 2.7-1.3 6.5 2 8.2q0.3 0.2 0.7 0.3 0.3 0.1 0.7 0.2 0.4 0.1 0.8 0.1 0.4 0 0.8-0.1h2l0.1 2.2c0 1.2 0.7 17.7 1.3 36.6 0.6 19 1.2 35.4 1.3 36.5l0.1 2-17.3 22.6c-9.5 12.5-17.3 22.7-17.2 22.8 0 0.1-0.3 0.3-0.8 0.5q-0.3 0.1-0.5 0.2-0.2 0.1-0.5 0.2-0.2 0.2-0.4 0.4-0.2 0.1-0.3 0.3c-0.8 0.8-0.8 1-0.7 2.6 0.1 2.9 1.2 4.5 5.1 7.9l1.1 1 0.4 64.6c0.1 35.5 0.3 66.8 0.3 69.5v4.9l-3.5 0.3q-0.6 0-1.2 0.1-0.6 0-1.2 0.1-0.6 0.1-1.2 0.2-0.6 0.1-1.2 0.2-6.4 1.7-6.4 7.5c0 2.2 0.3 3.2 1.3 4.1 1.6 1.4 4.4 1.7 9.7 1.2 1.3-0.1 2.5-0.3 2.7-0.3 0.2 0 0.3 4.4 0.3 21 0 11.5 1 154 2.2 316.6 1.1 162.6 2 295.7 2 295.8-0.3 0.2-19.2-0.9-28.9-1.8q-0.7 0-1.3-0.1-0.7-0.1-1.4-0.2-0.6-0.1-1.3-0.2-0.7-0.2-1.3-0.3-1.4-0.4-2.9-0.7-1.4-0.4-2.8-0.7-1.5-0.2-2.9-0.5-1.5-0.2-2.9-0.4c-17.3-1.9-45.8-0.3-61.2 3.6-1.3 0.3-7.5 2.1-13.9 4-12.4 3.7-18 5.3-26.3 7.5q-8.7 2.3-17.4 4.2-8.7 2-17.6 3.5-8.8 1.5-17.7 2.7-8.8 1.1-17.8 1.9-4.9 0.4-9.9 0.5-5 0.2-10 0.2-4.9-0.1-9.9-0.3-5-0.2-10-0.6c-22.3-2.2-36.2-5-74.6-14.9-24.5-6.4-36.5-8.8-47.5-9.8-4.5-0.5-23.2-0.5-29.2 0-28 1.8-60.8 6.5-93 13.2-2.9 0.6-11.4 1.1-11.4 1.1zm167.7-994.3c7.9 6.4 14.4 11.7 14.5 11.8 0 0.1-4.2 4.1-9.4 8.8-7.8 7.2-9.3 8.8-9.1 8.9 0.3 0.1 3.4 0.7 6.9 1.3 3.5 0.6 6.4 1.2 6.5 1.2 0 0-2.9 4.5-6.5 9.9-3.6 5.4-6.5 9.8-6.5 9.9 0.1 0.1 5.2-0.2 11.5-0.6 6.2-0.4 11.4-0.7 11.4-0.7 0 0.1-0.8 3-2 6.4-1.2 3.4-2 6.3-2 6.3 0.1 0.1 2.9-0.9 6.4-2.1l6.3-2.2v0.6c0 0.3-0.4 5.8-0.9 12.1-0.5 6.4-0.8 11.5-0.8 11.5 0.1 0 7.1-4.6 15.8-10.3 8.6-5.6 15.7-10.2 15.7-10.1 0.1 0 2.5 5.3 5.4 11.8 2.9 6.5 5.4 11.9 5.4 12q0.5-0.6 0.9-1.3 0.4-0.7 0.9-1.5 0.4-0.7 0.7-1.4 0.4-0.7 0.8-1.5l3.1-5.8 2.2 2.8c1.2 1.6 4.6 5.8 7.4 9.4 2.9 3.7 5.3 6.7 5.4 6.7 0.1 0 1.5-5.5 3.2-12 1.7-6.6 3-12.2 3.1-12.3 0.1-0.2 2.2 1.2 5.3 3.5 2.9 2.1 5.2 3.8 5.3 3.8 0.1 0 0-2.8 0-6.2 0-3.4 0-6.2 0-6.2 0.1 0 5 2.1 10.9 4.5 6 2.4 10.8 4.5 10.9 4.4 0 0-2.1-8.1-4.7-18-2.7-9.8-4.8-17.9-4.7-18 0 0 6-0.7 13.1-1.5 7.2-0.9 13.1-1.6 13.2-1.6 0 0-1.9-2-4.2-4.4-2.2-2.4-4.1-4.4-4.1-4.4l10.9-4c5.9-2.2 10.8-4 10.9-4 0-0.1-4.5-2.9-9.9-6.4-5.4-3.5-10.6-6.8-11.6-7.4l-1.7-1.1 6.3-4.5q0.7-0.6 1.5-1.1 0.8-0.6 1.5-1.2 0.8-0.5 1.6-1.1 0.7-0.6 1.4-1.3c0 0-2.6-0.8-5.6-1.7-3-0.9-5.5-1.7-5.6-1.8q3.3-4.5 7-8.6c6.9-8.2 7.2-8.5 6.6-8.6-0.4-0.1-8.5-0.5-18.2-1-9.7-0.5-17.5-0.9-17.7-1-0.1-0.1 0.4-2.5 3.5-18 0.9-4.3 1.6-7.9 1.6-7.9-0.1 0-2.6 1.2-5.6 2.7-3 1.4-5.5 2.6-5.5 2.5-0.1-0.1-0.3-5.1-0.5-11.1-0.2-6-0.4-10.9-0.5-11 0 0-4.5 3.7-10 8.2-5.4 4.5-10 8.3-10.1 8.3q-0.4-1-0.8-2-0.4-1-0.7-2-0.4-1-0.7-2-0.3-1-0.6-2.1c-1.5-4.4-2.7-8.1-2.7-8.1-0.1-0.1-1.7 2.3-3.7 5.3-2.1 2.9-3.8 5.3-3.9 5.3 0 0-2.7-4-5.7-9-6.8-11.1-6-10-6.3-9.2-0.8 1.9-12.2 32.1-12.5 32.8q-0.1 0.1-0.1 0.3-0.1 0.1-0.2 0.2 0 0.1-0.1 0.2-0.1 0.1-0.2 0.2c-0.1 0-5.1-2.8-11.1-6.2-5.9-3.4-11-6.2-11.1-6.3-0.2-0.1 0.1 2.4 0.7 6.4 0.4 3.5 0.9 6.6 0.8 6.7 0 0.2-4.1-0.8-10.7-2.7-5.9-1.7-10.8-3-10.8-2.9 0 0.1 2.1 5 4.4 11 2.4 5.9 4.3 10.8 4.3 10.9 0 0-3.6 0.1-8 0.1l-8 0.1 4.3 5.6c2.3 3.1 4.2 5.6 4.2 5.7 0 0-5 1.2-11 2.6-6 1.5-11 2.7-11.3 2.9-0.3 0.1 2.7 2.7 13.9 11.8z"/>
		<path fill-rule="evenodd" class="s1" d="m162.9 134.6c0.1-0.1 4.7-1.2 10.2-2.6l10.4-2.5c0.2-0.1-1.1-2.1-3.3-5-2-2.7-3.7-4.9-3.7-5q0.9-0.1 1.7-0.1 0.9-0.1 1.8-0.1 0.9 0 1.7 0 0.9 0 1.8 0c3.8 0 7 0 7-0.1 0-0.1-1.8-4.6-3.9-10.1-2.2-5.6-4-10.1-3.9-10.2 0.1 0 4.5 1.2 9.9 2.7 5.4 1.5 9.9 2.7 9.9 2.6q0-0.7-0.1-1.4 0-0.8-0.1-1.5-0.1-0.7-0.2-1.4-0.1-0.7-0.2-1.5-0.4-2.8-0.6-5.7c0-0.1 4.5 2.4 10 5.5 5.9 3.4 10 5.6 10 5.4 0.1-0.1 2.9-7.3 6.1-15.9 3.3-8.5 6-15.5 6.1-15.5 0.1 0 2.5 3.9 5.5 8.7 2.9 4.8 5.3 8.7 5.4 8.7 0.1 0 1.6-2.1 3.3-4.6 1.8-2.6 3.3-4.7 3.3-4.7 0.1 0 1.1 3.1 2.4 7 1.2 3.9 2.3 7.1 2.4 7.3 0.1 0.2 2.1-1.2 5.6-4.2 3-2.5 7.2-6 9.3-7.8q0.5-0.4 1-0.8 0.5-0.4 1-0.8 0.5-0.4 1-0.8 0.5-0.4 1-0.7c0.1 0.1 0.3 4.6 0.5 10.1 0.2 5.5 0.5 10 0.5 10.1q0.7-0.2 1.3-0.4 0.6-0.3 1.2-0.5 0.6-0.3 1.2-0.6 0.6-0.3 1.2-0.6c2.6-1.2 4.7-2.3 4.7-2.2 0.1 0-1 5.2-2.2 11.5-1.3 6.3-2.3 11.5-2.2 11.6 0.1 0 7.2 0.5 15.8 0.9 8.6 0.4 16.2 0.8 16.8 0.9l1.1 0.2-6.7 7.8c-3.6 4.2-6.6 7.9-6.6 8q0.6 0.2 1.2 0.4 0.6 0.2 1.2 0.4 0.5 0.2 1.1 0.4 0.6 0.2 1.2 0.3c2.6 0.8 4.8 1.5 4.9 1.6q-0.6 0.6-1.2 1.1-0.6 0.5-1.3 1-0.6 0.5-1.3 1-0.7 0.5-1.4 0.9c-2.9 2.2-5.3 4-5.3 4.1 0 0.1 4.7 3.2 10.5 6.9 5.9 3.7 10.6 6.8 10.7 6.9 0.1 0.1-4.4 1.8-9.9 3.8-5.4 2-10 3.7-9.9 3.8q0.4 0.5 0.8 1 0.4 0.5 0.8 1 0.5 0.5 0.9 0.9 0.4 0.5 0.9 1 0.4 0.4 0.9 0.9 0.4 0.4 0.8 0.9 0.5 0.5 0.9 1 0.4 0.5 0.7 1c-0.1 0.1-5.3 0.7-11.7 1.4-8.9 1-11.6 1.4-11.6 1.6 0 0.2 2 7.7 4.4 16.7 2.4 9 4.3 16.3 4.3 16.4 0 0-4.5-1.8-10-4.1-5.5-2.3-10-4.2-10.2-4.2q0 0.7-0.1 1.4 0 0.6 0 1.3 0 0.7 0 1.4 0 0.6 0 1.3c0 3 0.1 5.4 0 5.4 0 0-2-1.5-4.5-3.3q-0.5-0.4-1.1-0.8-0.5-0.4-1.1-0.8-0.6-0.4-1.2-0.7-0.6-0.4-1.2-0.7c-0.1 0.1-1.4 5.1-3 11.2-1.6 6-2.9 11.1-3 11.2q-3.7-4.1-7-8.5c-3.7-4.8-6.9-8.8-7-8.8 0 0-1.4 2.3-2.8 5q-0.3 0.6-0.6 1.3-0.3 0.6-0.7 1.2-0.3 0.6-0.7 1.2-0.4 0.6-0.7 1.2c-0.1-0.1-2.4-4.9-4.9-10.6-2.6-5.7-4.7-10.4-4.8-10.5-0.1-0.1-6.7 4.1-14.7 9.3-7.9 5.3-14.5 9.5-14.5 9.5 0 0 0.3-5.1 0.8-11.2 0.5-6.1 0.8-11.2 0.7-11.3-0.1-0.1-2.6 0.8-5.6 1.8-3.1 1.1-5.6 1.9-5.6 1.9 0-0.1 0.7-2.6 1.7-5.5 1-3 1.8-5.5 1.7-5.5-0.1-0.1-14.7 0.8-19.4 1.1l-2 0.2 6.2-9.3c3.9-5.8 6.1-9.4 5.9-9.4-0.2-0.1-3-0.6-6.2-1.2l-5.9-1 8.1-7.5c4.5-4.1 8.4-7.7 8.6-7.9 0.4-0.3-0.5-1-13-11.2-7.4-6-13.3-10.9-13.2-11zm35.7 10.9c-0.8 5.7-0.5 11.6 0.9 17.3 1.5 5.6 4 11 7.5 15.6 3.5 4.7 7.9 8.7 12.9 11.6 5 3 10.6 5 16.3 5.8q1.8 0.2 3.5 0.3 1.7 0 3.4 0 1.8 0 3.5-0.2 1.7-0.1 3.4-0.3c4.3-0.8 8.5-2.3 12.4-4.3 4-2.1 7.6-4.7 10.7-7.8 3.2-3.1 5.8-6.6 7.9-10.5 2.1-3.9 3.7-8 4.6-12.4 0.5-2.7 0.6-3.4 0.6-8.7 0-5-0.1-6-0.5-8.4-0.7-3.6-1.9-7.1-3.5-10.5-1.5-3.3-3.5-6.4-5.8-9.3-2.3-2.8-5-5.4-7.9-7.6-3-2.2-6.2-4-9.6-5.4q-1-0.4-2.1-0.8-1.1-0.4-2.1-0.7-1.1-0.3-2.2-0.6-1.1-0.3-2.2-0.5-1.8-0.2-3.5-0.4-1.8-0.1-3.5-0.2-1.8 0-3.5 0.1-1.8 0-3.5 0.2c-4.7 0.7-9.3 2.1-13.6 4.2-4.2 2.2-8.1 5-11.5 8.3-3.4 3.4-6.2 7.3-8.3 11.6-2.1 4.2-3.6 8.8-4.3 13.5z"/>
		<path class="s1" d="m225.6 189.3c10.6 4.7 22.7 4.6 33.3-0.2 10.6-4.8 18.7-13.9 22.2-25 3.6-11.1 2.2-23.1-3.6-33.2-5.9-10-15.7-17.1-27.1-19.5q-1.8-0.3-3.6-0.4-1.8-0.2-3.6-0.2-1.8 0-3.6 0-1.8 0.1-3.6 0.3c-4.2 0.7-8.2 2-11.9 3.8-3.8 1.9-7.3 4.4-10.3 7.3-3 2.9-5.6 6.3-7.6 10-2 3.7-3.4 7.7-4.2 11.8q-0.3 1.9-0.4 3.7-0.1 1.9-0.2 3.8 0 1.9 0.1 3.8 0.2 1.8 0.4 3.7 0.3 1.7 0.8 3.4 0.5 1.7 1.1 3.4 0.6 1.6 1.3 3.2 0.7 1.6 1.6 3.2 1.6 2.8 3.7 5.3 2 2.5 4.4 4.7 2.4 2.2 5.1 4 2.7 1.8 5.7 3.1z"/>
		<path class="s1" d="m581.9 138.1c-0.5-8.4-0.7-9.3-1.6-7.3-0.5 1.2-0.9 4.5-1.1 12.7l-0.2 4.5h3.6l-0.1-1.1c0-0.7-0.3-4.6-0.6-8.8z"/>
		<path class="s1" d="m575.7 154.4c0 2.1 0 2.1 0.6 2 0.3 0 2.1-0.3 4.1-0.6 4.4-0.6 4.6-0.7 4.6-1.8q0-0.3 0-0.5 0-0.2 0.1-0.5 0-0.2 0-0.5 0.1-0.2 0.1-0.5c0.1-0.5 0.1-1-0.1-1-0.2 0-1.2 0.2-2.4 0.3q-0.8 0-1.7 0.1-0.8 0.1-1.7 0.2-0.8 0.1-1.7 0.3-0.8 0.1-1.7 0.3 0 0.2-0.1 0.5 0 0.3-0.1 0.6 0 0.3 0 0.5 0 0.3 0 0.6z"/>
		<path class="s1" d="m573.1 165.1v3.1h0.7c1.2 0 12.4-1.6 12.8-1.9 0.5-0.2 0.6-0.4 1-3.6 0.2-1.2 0.4-2.3 0.4-2.4 0-0.4-0.4-0.4-1.4-0.2q-0.4 0.1-0.7 0.1-0.4 0.1-0.7 0.1-0.4 0-0.8 0-0.3 0-0.7 0-0.4 0-0.8 0.1-0.5 0-0.9 0-0.4 0.1-0.9 0.1-0.4 0-0.8 0.1c-0.9 0.1-2.5 0.3-3.7 0.4q-0.4 0-0.8 0.1-0.3 0-0.7 0.1-0.3 0.1-0.6 0.2-0.4 0.1-0.7 0.2c-0.7 0.4-0.7 0.5-0.7 3.5z"/>
		<path class="s1" d="m548 191.1q-0.1 0.1-0.2 0.3-0.1 0.1-0.2 0.3-0.1 0.2-0.2 0.3 0 0.2-0.1 0.4c0 0.1 9.4-1.8 20.7-4l20.7-4 8.2 2.7c12 4 20.6 6.4 24.3 6.8l1.4 0.1-0.2-0.8c-0.6-2.9-3-6.8-6-10q-2.2-2.3-4.6-4.3-2.5-1.9-5.3-3.5-2.7-1.5-5.7-2.6-2.9-1.1-6-1.8-1.7-0.2-3.4-0.3-1.7-0.2-3.4-0.2-1.7-0.1-3.4 0-1.7 0-3.4 0.1-3.2 0.5-6.3 1.3-3.1 0.8-6.1 2-3 1.2-5.9 2.7-2.8 1.5-5.5 3.4-1.4 1.1-2.7 2.4-1.3 1.3-2.5 2.7-1.2 1.4-2.3 2.9-1 1.5-1.9 3.1z"/>
		<path class="s1" d="m535.8 198.4q-0.3 0.2-0.5 0.4-0.2 0.3-0.3 0.6-0.2 0.3-0.2 0.7 0 0.3 0.1 0.6 0.2 0.4 0.4 0.7 0.3 0.3 0.6 0.5 0.3 0.2 0.7 0.3 0.4 0.1 0.8 0.1c0.5 0 11.8-1.5 25-3.4l24-3.4 4.3 1.4c20.7 6.5 40.3 12.1 43.2 12.2 1.2 0 1.3 0 1.5-0.7q0.1-0.5 0.1-0.9 0-0.4-0.1-0.8-0.1-0.4-0.3-0.8-0.2-0.4-0.5-0.7c-0.7-0.7-7.8-3.6-21.2-8.7-7-2.7-24.6-8.7-25.2-8.7-0.1 0-5.9 1.1-12.8 2.5-27.2 5.3-31.3 6.1-35 6.9q-0.6 0.1-1.2 0.3-0.5 0.1-1.1 0.2-0.6 0.2-1.1 0.3-0.6 0.2-1.2 0.4z"/>
		<path class="s1" d="m545.7 276.9l3.3-2.1q0.4-0.3 0.8-0.6 0.5-0.3 0.9-0.5 0.5-0.3 0.9-0.5 0.5-0.2 1-0.4c0.1 0.1 2.6 2.1 5.6 4.5 6 4.9 5.5 4.8 8.6 4q1.4-0.2 2.8-0.3 1.5-0.1 2.9-0.1 1.5 0 3 0.1 1.4 0.1 2.8 0.3 0.4 0.1 0.9 0.1 0.4 0.1 0.8 0.2 0.4 0.1 0.8 0.2 0.4 0.1 0.7 0.2c0.3 0.1 2.5 2.2 4.9 4.6q0.6 0.6 1.2 1.2 0.6 0.6 1.3 1.1 0.6 0.6 1.3 1.2 0.6 0.6 1.3 1.1c0.8 0.5 2.9 0.1 6.5-1 3.3-1.1 6-2.5 11.3-5.9 5.1-3.3 7.3-4.5 9.5-5.3q0.6-0.2 1.1-0.4 0.6-0.1 1.2-0.2 0.6-0.1 1.2-0.1 0.6 0 1.1 0c2.4 0 3.2-0.1 3.8-0.5l0.8-0.4v-32.2c0-25.7-0.1-32.4-0.3-32.5-6-2.5-15.1-5.8-20.6-7.4-3.7-1.1-9.5-2.9-12.7-3.9-8.6-2.7-8.1-2.6-9.8-2.4-9.3 1.3-26.3 4.3-40.6 7.3-0.5 0-0.8 0.3-0.8 0.5 0 0.5 2.4 66.7 2.4 68.7z"/>
		<path class="s1" d="m514.6 324.9c-0.1 0.1 0 0.2 0.4 0.2 0.4 0 1.9-1.5 7.6-8.1 14.4-16.9 23.2-26.9 27.1-30.7 2-1.9 2.3-2.2 3-2.2 1.6 0 4.5 2.3 30.7 23.7 4.3 3.5 8.1 6.6 8.4 6.8 0.6 0.4 0.7 0.4 2.1 0 0.8-0.2 1.7-0.5 2.1-0.7l0.7-0.3-1.1-0.6c-1.4-0.9-7.5-6.1-19.2-16.1-5-4.3-10.5-9-12.2-10.3-1.6-1.4-5-4.2-7.4-6.2-2.5-2-4.6-3.6-4.7-3.6q-0.1 0-0.3 0.1-0.1 0.1-0.2 0.1-0.1 0.1-0.3 0.2-0.1 0-0.2 0.1-0.3 0.3-0.6 0.7-0.4 0.3-0.6 0.6-0.3 0.4-0.6 0.8-0.3 0.3-0.5 0.7c-0.9 1.2-8.9 11.7-17.8 23.3-8.8 11.6-16.3 21.3-16.4 21.5z"/>
		<path class="s1" d="m668.2 325.2l0.1 6.5 0.1 6.5 2.2 1c1.1 0.5 2.1 1 2.1 1 0.1 0 0.1-2.9 0.1-6.3v-6.3l-2.3-1.6q-0.5-0.4-1.1-0.8-0.6-0.3-1.2-0.6-0.6-0.4-1.2-0.6-0.7-0.2-1.3-0.4-0.4-0.1-0.8-0.2-0.4-0.1-0.8-0.3-0.3-0.1-0.7-0.3-0.4-0.2-0.7-0.4-0.4-0.6-0.8-1.2-0.4-0.7-0.8-1.3-0.4-0.7-0.7-1.3-0.4-0.7-0.7-1.4c-6.2-11.8-13.6-24.9-16.4-29.1-2.3-3.5-6.2-7.7-8.2-8.7-2.1-1.1-2.6-1-4.6 0.4-3.8 2.7-14.8 13.1-24.8 23.4l-6.2 6.4 1 1.2q0.1 0.2 0.3 0.4 0.1 0.1 0.3 0.3 0.1 0.1 0.2 0.3 0.2 0.1 0.4 0.2c0.2 0 2.4-2 12.3-11.3 14.2-13.7 19.4-18.2 21.2-18.6q0.1-0.1 0.3-0.1 0.1 0 0.3 0 0.1 0 0.3 0 0.1 0 0.3 0.1c2 0.5 5.9 6.5 17.5 27.5 8 14.5 7.5 13.7 8.9 14.3q0.5 0.2 1 0.4 0.5 0.2 1 0.3 0.5 0.2 1 0.3 0.5 0.1 1.1 0.2z"/>
		<path class="s1" d="m621.4 283.2c1.5-1.4 1.6-1.5 1-1.5q-0.3 0.1-0.5 0.1-0.3 0-0.5 0.1-0.3 0-0.5 0.1-0.3 0-0.5 0.1c-1.7 0.3-4.3 1.7-9.9 5.3q-1.6 1.1-3.3 2-1.6 1-3.3 1.8-1.7 0.9-3.4 1.7-1.7 0.8-3.5 1.5-0.4 0.2-0.9 0.3-0.5 0.1-1 0.1-0.4 0.1-0.9 0.1-0.5 0-1-0.1c-2.2-0.1-2.4-0.1-3.5-0.9-0.6-0.4-2.9-2.4-5-4.4-2.1-2-4-3.8-4.3-4-0.7-0.6-9.4-1.3-11.3-0.9-1.2 0.2-1.4 0.3-1.1 0.6 0.4 0.4 24.9 21.4 26.5 22.7l1.2 1 6.6-6.8c5.8-6.1 14.4-14.6 19.1-18.9z"/>
		<path fill-rule="evenodd" class="s1" d="m661.9 327l1.4 0.6v4.9c0 3.1 0 5-0.2 5-0.2 0-61.1-19-61.1-19.1q-0.1-0.2-0.1-0.3 0-0.2-0.1-0.3 0-0.2 0-0.4 0-0.1-0.1-0.3c-0.1-1.2-0.1-1.3 0.4-1.5 0.9-0.3 3-2.2 11.3-10.1 11.4-10.8 17.6-16.5 20.6-18.8 1.1-0.9 1.5-1.1 1.7-0.8 0.6 0.5 15.9 26.6 19.9 34 2.5 4.5 4 6.2 6.3 7.1zm-15.3-18.3q-0.8-1.4-1.8-2.7-1-1.2-2.3-2.2-1.3-1-2.7-1.7-1.4-0.8-3-1.2c-3.3-0.7-5.8-0.1-9.1 2.2q-1.5 1.1-2.6 2.7-1.1 1.6-1.6 3.4-0.5 1.8-0.5 3.7 0.1 1.9 0.7 3.7c1.6 4.3 4.8 7.5 8.4 8.3 3.7 0.8 7 0.7 9.3-0.4q0.6-0.2 1.2-0.6 0.6-0.3 1.1-0.7 0.5-0.5 0.9-1 0.4-0.5 0.8-1.1c2.6-4 3.1-8.4 1.2-12.4z"/>
		<path fill-rule="evenodd" class="s1" d="m642.6 308.5q0.5 0.6 0.9 1.4 0.4 0.7 0.7 1.5 0.2 0.8 0.3 1.6c0.3 3.4-1.8 7.4-4.4 8.6-2 0.9-6.1 0.8-8.6-0.3q-0.7-0.4-1.3-0.9-0.6-0.5-1.1-1.1-0.6-0.6-1-1.3-0.5-0.6-0.8-1.4-0.4-0.9-0.7-1.9-0.2-1-0.2-2 0-1.1 0.2-2.1 0.1-1 0.5-2 0.2-0.4 0.5-0.8 0.2-0.4 0.5-0.8 0.3-0.3 0.7-0.6 0.3-0.3 0.7-0.6 0.3-0.2 0.7-0.4 0.3-0.2 0.6-0.4 0.3-0.2 0.7-0.4 0.3-0.2 0.7-0.3c3-1 6.5 0.1 9.3 3q0.6 0.5 1.1 1.2zm-5 5.7c0-0.1 6.8 0.8 6.8-0.8-0.1-1.3-6.7-1-6.7-1.1-0.2-1-0.3-1.1-1.3-1.4-0.2-0.2 1.1-5.2-1.2-5.2-1.8 0-0.6 5.1-0.8 5.1-1.2 0.2-1.5 1.1-1.5 2.3q0 0.5 0.2 1 0.2 0.4 0.5 0.7 0.4 0.4 0.8 0.5 0.5 0.2 1 0.2c1.2 0 2-0.1 2.2-1.3z"/>
		<path class="s1" d="m578.4 320.7c10.6-1 19.5-1.8 19.6-1.8 0.2 0 0.3-0.3 0.3-1 0-0.7-0.1-1.1-0.3-1.1q-0.2 0-0.5 0.1-0.3 0.1-0.6 0.1-0.2 0.1-0.5 0.2-0.3 0.1-0.5 0.2c-2.6 0.8-4.3 1-5 0.5-0.4-0.2-3.9-3-7.8-6.2-4-3.2-11.9-9.5-17.7-14.1-5.9-4.6-11-8.7-11.6-9.1l-1-0.8-2.4 2.4c-2.8 3-9.6 10.7-17.9 20.2-10.7 12.5-13.3 15.6-13 15.7 0.4 0.1 33.2-2.9 33.1-3q-0.2-0.1-0.4-0.2-0.2 0-0.5 0-0.2-0.1-0.4-0.1-0.2 0-0.4 0c-4-0.3-8.4-3.7-10.5-8q-0.3-0.5-0.5-1-0.3-0.5-0.4-1.1-0.2-0.5-0.2-1.1-0.1-0.6 0-1.2c-0.2-4.2 0.7-6.8 3.4-9.3 3.2-3 5.5-4.1 9.2-4.2q1-0.1 2 0 0.9 0 1.9 0.2 1 0.2 1.9 0.6 0.9 0.3 1.8 0.8c7.9 3.8 10.5 10.8 6.7 18.3q-0.4 0.7-0.9 1.4-0.5 0.7-1.1 1.3-0.6 0.6-1.3 1-0.7 0.5-1.4 0.9-0.3 0.1-0.6 0.3-0.3 0.1-0.6 0.3-0.3 0.1-0.6 0.2-0.3 0.1-0.6 0.2c-0.3 0-0.4 0.1-0.3 0.1 0.2 0.1 9-0.7 19.6-1.7z"/>
		<path fill-rule="evenodd" class="s1" d="m552.7 319.6c-2.3-0.1-2.7-0.2-4.1-0.9q-0.9-0.4-1.7-1-0.8-0.6-1.4-1.3-0.7-0.7-1.3-1.5-0.6-0.7-1-1.6-0.3-0.4-0.4-0.9-0.2-0.4-0.3-0.9-0.1-0.4-0.2-0.9 0-0.5 0.1-1c0-3 0.5-4.3 2.5-6.2q0.5-0.5 1.1-1 0.6-0.5 1.3-0.9 0.7-0.5 1.4-0.8 0.7-0.3 1.5-0.5 0.6-0.2 1.2-0.2 0.5-0.1 1.1-0.1 0.6 0 1.2 0.1 0.6 0 1.2 0.2c3.4 0.7 7.4 3.5 8.8 6.1 0.7 1.2 0.7 1.5 0.7 3.8q0.1 0.5 0.1 1 0 0.5-0.1 1-0.1 0.5-0.2 1-0.1 0.4-0.3 0.9c-1.7 4.2-5.1 5.9-11.2 5.6zm11.6-10.3c0-1.9-8.8-0.9-8.8-1.1-0.2-1-0.6-1.1-1.6-1.3-0.1-0.1 1-6.1-0.9-6.3-1.4-0.1-0.6 6.3-0.7 6.3-1.2 0.2-1.6 1.3-1.5 2.5q0 0.4 0.1 0.7 0.1 0.4 0.4 0.8 0.3 0.3 0.6 0.5 0.4 0.2 0.8 0.3c1.3 0.3 2.4 0 2.7-1.3 0-0.2 8.9 0.6 8.9-1.1z"/>
		<path class="s1" d="m508.4 331.8c-0.8 0.5 0.9 3.8 2.5 4.9q0.2 0.1 0.4 0.2 0.2 0.2 0.4 0.3 0.2 0.2 0.3 0.3 0.2 0.2 0.4 0.4 0.1 0.1 0.2 0.2 0.2 0.1 0.4 0.2 0.1 0.1 0.3 0.1 0.2 0.1 0.4 0.1c0.4 0 21.1-2 46.1-4.3 24.9-2.4 45.4-4.3 45.6-4.2 0.8 0.2 68.5 20.4 68.8 20.5q0.1 0 0.2 0 0.1 0 0.2-0.1 0.1 0 0.2-0.1 0.1 0 0.2-0.1l0.5-0.5-0.8-1.2q-0.2-0.3-0.5-0.6-0.2-0.3-0.4-0.6-0.3-0.3-0.5-0.6-0.3-0.3-0.5-0.5l-1-1-35.8-11.2c-19.6-6.2-36-11.2-36.4-11.2-0.4 0-20 2.1-43.4 4.6-34.7 3.7-43 4.6-43.9 4.4q-0.5-0.1-1-0.2-0.5 0-1 0-0.4 0-0.9 0-0.5 0.1-1 0.2z"/>
		<path class="s1" d="m512.7 328.4q0.2-0.1-0.5-0.1-0.6 0-0.3 0.1 0.1 0 0.2 0 0.1 0 0.2 0 0.1 0 0.2 0 0.1 0 0.2 0z"/>
		<path class="s1" d="m586.5 376.3c0.1 0.5 0.4 4.1 0.8 8 0.5 6.2 0.6 9.3 0.8 26.2 0.2 17.8 1 64 1 64.1 0 0 13.1-1.1 13.2-1.1 0.1 0 0-31.5 0-70v-70h-0.7c-0.3 0-20 1.9-43.7 4.2-23.8 2.2-43.3 4.1-43.3 4.2-0.1 0 0.5 137.7 0.6 137.9 0.2 0.2 3.7-0.1 7.9-0.4l7.7-0.6v-3.2c0-1.8-0.4-11.6-0.8-21.9-1.3-31.9-1.5-38.3-1.7-53.8-0.3-13.6-0.3-15.4 0.1-19 1.2-12.2 5-21.4 11.2-27.6q1-1 2.2-1.9 1.1-0.8 2.3-1.5 1.2-0.7 2.5-1.3 1.3-0.5 2.7-0.8 0.5-0.2 1.1-0.4 0.6-0.2 1.1-0.4 0.6-0.2 1.1-0.4 0.6-0.3 1.1-0.5 1-0.5 2-0.9 1-0.3 2-0.6 1.1-0.3 2.1-0.4 1.1-0.2 2.1-0.2c10.2-0.5 17.9 5.3 21.7 16.3q0.5 1.4 1 2.8 0.4 1.5 0.7 2.9 0.3 1.5 0.6 3 0.2 1.5 0.3 3c0.1 1.8 0.3 3.8 0.3 4.3z"/>
		<path class="s1" d="m663.3 427.6c-0.1 6.7-0.3 16.9-0.4 22.8-0.2 5.8-0.3 16.5-0.4 23.7l-0.2 13.1 5.2 1.2 5.2 1.2 0.1-68v-68c0-0.1-14.7-4.2-32.5-9.2-17.8-5-32.8-9.2-33.5-9.4l-1.1-0.3v69.6c0 38.3 0.1 69.6 0.2 69.6 0.1 0 2 0.5 4.2 1q0.6 0.2 1.1 0.3 0.5 0.1 1.1 0.2 0.5 0.2 1 0.2 0.6 0.1 1.1 0.2c0.2-0.2 0.6-51.6 0.5-58.1-0.1-3.9-0.4-10.3-0.9-15.8-0.4-5-0.8-11.3-0.8-13.9-0.4-11.2 1.1-19.1 4.7-25 3.4-5.7 7.4-8.3 15-10 3.2-0.7 9.9-0.8 12.1-0.1 3.6 1.1 9 5.7 11.9 10.2q1 1.5 1.9 3.2 0.8 1.6 1.5 3.3 0.8 1.8 1.3 3.5 0.5 1.8 0.9 3.6c1.2 6.5 1.7 18.3 1.3 30.3-0.1 4.6-0.3 13.9-0.5 20.6z"/>
		<path class="s1" d="m546.1 477.7q1.1-0.1 2.2-0.1 1.1 0 2.2-0.1 1-0.1 2.1-0.2 1.1-0.2 2.2-0.3c0.1-0.1 0.2-12.9 0.3-28.4 0.1-15.5 0.3-29 0.3-30 0.1-1 0.3-5.2 0.4-9.3 0.3-8.7 0.8-17.4 1.2-19.4 2-11 9.5-18.7 19.8-20q0.5-0.1 1-0.1 0.5-0.1 1-0.1 0.5 0 1 0.1 0.5 0 1 0.1 0.2 0 0.5 0.1 0.2 0 0.5 0 0.2 0 0.5 0 0.2 0 0.5 0-0.2-1-0.4-2.1-0.3-1.1-0.6-2.2-0.3-1-0.6-2.1-0.3-1-0.7-2.1c-3-8.6-8-13.3-15.3-14.2q-0.5-0.1-1.1-0.2-0.5 0-1.1 0-0.5 0-1 0.1-0.6 0-1.1 0.1-0.7 0.1-1.3 0.2-0.6 0.1-1.2 0.3-0.6 0.2-1.2 0.4-0.6 0.2-1.2 0.5c-1.2 0.5-1.6 0.9-3.2 3.1q-0.8 0.9-1.4 1.9-0.7 0.9-1.3 1.9-0.6 0.9-1.1 1.9-0.6 1.1-1.1 2.1-0.7 1.6-1.3 3.3-0.7 1.6-1.2 3.4-0.5 1.7-0.9 3.4-0.4 1.7-0.7 3.5c-0.6 3.8-0.8 16.6-0.6 30 0.3 12.2 2.7 74.2 2.9 74.5z"/>
		<path class="s1" d="m547.5 353.6c1.4-2.2 1.4-2.2 1.3-2.2q-1.1 0.4-2 1c-6 3.1-11 10.6-13.3 20q-0.5 2.3-0.9 4.7-0.4 2.4-0.6 4.7-0.2 2.4-0.3 4.8-0.1 2.4 0 4.7c0.1 1.4 0.2 7.6 0.3 13.9 0.3 16 2.4 72.9 2.7 73.2q0.5 0 1 0 0.5 0 1 0 0.6 0 1.1-0.1 0.5 0 1-0.1c3.6-0.2 3.9-0.3 3.9-0.7 0-0.3-0.8-20.5-1.8-44.9-1.8-44.5-1.8-46.8-1.2-53.1 0.9-10.2 3.8-19.6 7.8-25.9z"/>
		<path class="s1" d="m617.7 476.7l8.2 1.9c4.5 1 11 2.5 14.4 3.4 3.4 0.8 6.3 1.5 6.3 1.4 0 0 0.9-18.4 1.3-30.1 0.4-9.5 0.4-51.2 0-59.5-0.6-14.3-1.2-18.1-3.7-24.5-2-5-6.7-13.7-7.4-13.6-0.2 0-1.5 0.2-2.9 0.5-4.8 0.9-8 2.3-10.4 4.8-3.5 3.4-5.7 8.5-6.6 15q-0.2 2.5-0.3 4.9-0.1 2.5-0.1 5 0 2.4 0 4.9 0.1 2.5 0.2 4.9c0.2 2 0.6 6.7 0.9 10.4 0.5 7.8 0.6 19.6 0.3 51.6z"/>
		<path class="s1" d="m650 484.2q0.5 0.2 1 0.3 0.5 0.1 1 0.3 0.5 0.1 1.1 0.2 0.5 0.1 1 0.2c2.1 0.5 4.1 1 4.3 1 0.2 0.1 0.4-0.6 0.5-6.7 0.1-3.8 0.3-13.1 0.5-20.6 1.6-62.4 1.6-73.5-0.1-81.8-1.5-7.3-5.5-14.2-10.6-18.4q-0.7-0.6-1.4-1.1-0.7-0.5-1.5-0.9-0.8-0.3-1.6-0.6-0.9-0.3-1.7-0.4l-1.6-0.2 0.6 1q1 1.7 1.9 3.5 1 1.7 1.8 3.5 0.9 1.8 1.7 3.6 0.8 1.8 1.5 3.7c2 5.7 2.6 13.2 3.1 36.3 0.4 19.3 0.1 39.1-1.1 64.5-0.3 6.8-0.5 12.5-0.4 12.6z"/>
		<path class="s1" d="m573.1 475.7c7-0.5 12.7-0.9 12.7-0.9 0 0-0.1-7.2-0.2-15.9-0.2-8.7-0.5-26.9-0.6-40.4-0.3-24-0.3-24.8-1-33.9-0.4-5.1-0.8-9.3-0.9-9.5-0.7-0.7-6.2-1.3-8.4-0.8q-1.3 0.3-2.5 0.9-1.2 0.5-2.3 1.3-1.2 0.7-2.2 1.6-1 0.8-1.8 1.8-1 1.5-1.8 2.9-0.8 1.5-1.5 3.1-0.7 1.6-1.3 3.2-0.6 1.6-1 3.3c-1.3 6.1-1.8 21.1-2 66.6l-0.1 17.8 1.1-0.1c0.6-0.1 6.8-0.5 13.8-1z"/>
		<path class="s1" d="m686.2 500.7q0.1-0.4 0-0.8 0-0.4-0.1-0.8-0.1-0.4-0.2-0.8-0.2-0.4-0.4-0.7c-1.1-1.6-4.2-2.9-8.6-3.7-2.2-0.5-12.8-2.9-49.8-11.6-16.4-3.9-23.7-5.5-24.6-5.4-0.6 0-7.1 0.4-14.3 1-23.6 1.8-58.1 4.4-74.9 5.5-3.8 0.3-7.6 0.6-8.3 0.8q-0.5 0-1 0.2-0.5 0.2-1 0.4-0.5 0.2-0.9 0.5-0.5 0.3-0.9 0.7c-1 1.3-1.1 4.1-0.2 4.6q0.1 0 0.3 0.1 0.2 0 0.3 0.1 0.2 0 0.4 0.1 0.2 0 0.3 0c0.6 0.1 20.6-1.4 51-3.9l50.1-4 28.3 7.1c50.4 12.9 46.8 12 50.1 12.1 3.5 0.2 4.2 0 4.4-1.5z"/>
		<path fill-rule="evenodd" class="s1" d="m533.1 1015c-0.7-76.3-1.4-148.3-2.8-291.7-0.6-58.5-1.3-127.9-1.6-154.1-0.2-26.3-0.5-54.2-0.6-62.2l-0.2-14.4 0.6-0.2c0.3 0 16.6-1.3 36.2-2.8 19.6-1.5 36-2.8 36.5-2.8h0.9v13.7c0 7.6 0.2 150.9 0.6 318.6 0.3 167.6 0.6 306.2 0.6 308v3.1l-2-0.9c-4.9-2.3-6.6-2.6-9.4-1.7-1.4 0.5-1.8 0.5-5 0.2-1.9-0.1-8.6-0.7-15-1.4-14.9-1.5-16.4-1.7-19.7-1.7-2.3 0-3 0.1-3.8 0.5q-0.7 0.3-1.4 0.5-0.7 0.2-1.4 0.4-0.7 0.2-1.4 0.3-0.7 0.1-1.5 0.2-1 0.2-2.1 0.3-1 0.1-2.1 0.2-1.1 0-2.1 0.1-1.1 0-2.1 0.1c-0.1-0.1-0.3-10.9-0.4-24.2-0.1-13.2-0.4-52.8-0.8-88.1zm40.5-130.9q-0.4-1.6-1.2-3.1-0.9-1.5-2.1-2.8-1.2-1.2-2.7-2-1.5-0.9-3.1-1.3-0.9-0.2-1.8-0.3-1 0-1.9 0-0.9 0-1.8 0.1-0.9 0.2-1.8 0.4c-1.9 0.7-3.4 1.7-5.8 4.3-2.2 2.2-2.5 2.9-3.1 6.7-0.5 3.7-0.9 14.9-0.7 21.7l0.2 6 5.7 0.1q2.3 0 4.5 0 2.2-0.1 4.5-0.2 2.2-0.1 4.4-0.3 2.2-0.2 4.4-0.5l2.6-0.3 0.2-3.5c0.4-9.5 0.1-21.6-0.5-25zm0.5-90.9c0.4-9.5 0.1-21.6-0.5-25q-0.4-1.7-1.2-3.2-0.8-1.5-2-2.7-1.2-1.3-2.7-2.1-1.5-0.8-3.2-1.2-0.9-0.2-1.7-0.3-0.9-0.1-1.8-0.1-0.9 0-1.8 0.1-0.9 0.2-1.8 0.4c-1.9 0.6-3.3 1.6-5.7 4.1-2.5 2.5-2.7 3.1-3.3 7-0.6 3.6-0.9 14.8-0.7 21.7l0.2 6 5.7 0.1q2.2 0 4.5-0.1 2.2 0 4.5-0.2 2.2-0.1 4.4-0.3 2.3-0.2 4.5-0.4l2.5-0.3 0.1-3.6zm0-112.8c0.4-9.4 0.1-21.6-0.6-25.1q-0.4-1.6-1.2-3.1-0.9-1.5-2.1-2.8-1.2-1.2-2.7-2-1.5-0.9-3.1-1.2-0.9-0.2-1.8-0.3-0.9-0.1-1.8-0.1-0.9 0-1.7 0.1-0.9 0.1-1.8 0.4c-2 0.6-3.3 1.6-5.8 4.1-2.4 2.5-2.7 3-3.3 7q-0.2 2.7-0.4 5.4-0.2 2.7-0.2 5.4-0.1 2.7-0.1 5.5 0 2.7 0.1 5.4l0.2 6h8q1.6 0 3.2 0 1.7-0.1 3.3-0.1 1.6-0.1 3.3-0.2 1.6-0.2 3.2-0.3l5.1-0.6 0.2-3.5zm-26.5-109.4l0.2 5.1 4.2 0.1c2.2 0 6.2-0.1 8.7-0.2 4.8-0.3 13.1-1.2 13.2-1.3 0.1-0.1 0.2-4.3 0.3-9.4 0.2-10.2-0.1-16.8-0.8-19.6q-0.5-1.5-1.3-2.9-0.8-1.3-1.9-2.5-1.1-1.1-2.5-1.9-1.4-0.8-2.9-1.2-1.2-0.3-2.4-0.4-1.2-0.2-2.4-0.1-1.2 0.2-2.3 0.5-1.2 0.3-2.2 0.9-0.9 0.6-1.8 1.2-0.8 0.7-1.6 1.5-0.7 0.7-1.4 1.5-0.7 0.8-1.4 1.7c-1.3 2.8-2.1 14.7-1.7 27zm-0.1 452.6l0.2 6h8q1.6 0 3.3 0 1.6 0 3.2-0.1 1.7-0.1 3.3-0.2 1.6-0.1 3.3-0.3l5.1-0.5 0.1-3.6c0.4-9.4 0.1-21.6-0.5-24.9q-0.4-1.7-1.2-3.2-0.9-1.5-2.1-2.7-1.2-1.2-2.7-2.1-1.5-0.8-3.1-1.2-1.3-0.3-2.6-0.4-1.3-0.1-2.6 0.1-1.3 0.2-2.5 0.7-1.2 0.5-2.3 1.2c-2.2 1.5-5 4.7-5.4 6-1.1 3.4-1.8 14.9-1.5 25.2z"/>
		<path fill-rule="evenodd" class="s1" d="m550.9 570.9c-0.2-2.7 0.1-16.8 0.4-19.9 0.1-1.3 0.4-3 0.6-4 0.4-1.7 0.4-1.8 2.4-3.7 2-1.9 3.2-2.7 4.7-3.1q0.7-0.1 1.4-0.1 0.8 0 1.5 0.1 0.7 0 1.4 0.2 0.7 0.1 1.4 0.3 1 0.4 1.8 0.9 0.9 0.6 1.6 1.3 0.7 0.7 1.2 1.6 0.6 0.9 0.9 1.9c0.6 2 0.9 7.7 0.8 16.7-0.1 4.8-0.1 8.8-0.2 8.8-0.3 0.2-8.4 0.8-13.7 1l-6 0.1zm2.3-0.5l1.3-0.2c0.8-0.1 3.6-0.2 6.3-0.4 2.7-0.1 5.3-0.3 5.9-0.4l1-0.1-0.1-9.3c-0.1-9-0.1-9.4-0.6-10.5q-0.3-0.6-0.6-1.1-0.4-0.5-0.8-1-0.5-0.5-1-0.9-0.5-0.4-1.1-0.7-0.6-0.2-1.2-0.4-0.6-0.1-1.2-0.2-0.7-0.1-1.3 0-0.7 0-1.3 0.1c-2.5 0.6-4.3 2.8-4.9 6-0.1 0.8-0.3 5.3-0.4 10.3z"/>
		<path class="s1" d="m563.5 566.3l0.9-0.1v-7.3c0-7.1 0-7.4-0.6-8.4q-0.2-0.5-0.5-0.9-0.3-0.4-0.8-0.7-0.4-0.2-0.9-0.4-0.5-0.1-1-0.1-0.2 0-0.5 0-0.2 0-0.4 0-0.3 0-0.5 0.1-0.2 0-0.5 0.1-0.3 0.2-0.6 0.5-0.3 0.3-0.5 0.6-0.3 0.4-0.4 0.7-0.2 0.4-0.2 0.8c-0.2 0.6-0.3 4.1-0.4 8.3l-0.1 7.3 3-0.2c1.7-0.1 3.4-0.2 4-0.3z"/>
		<path fill-rule="evenodd" class="s1" d="m568.9 652.9q0.4 0.7 0.8 1.4 0.3 0.7 0.5 1.4 0.2 0.7 0.3 1.5c0.3 2 0.5 23.3 0.1 23.6-0.3 0.4-6.8 0.9-13 1l-6.5 0.2-0.2-1.5c-0.2-2.3-0.2-11.7 0.1-16.7 0.3-4.8 0.8-8.3 1.3-9.3q0.5-0.7 1.1-1.3 0.6-0.6 1.2-1.2 0.6-0.6 1.2-1.1 0.7-0.5 1.4-1 0.2-0.1 0.5-0.2 0.2-0.1 0.5-0.2 0.2-0.1 0.5-0.1 0.2-0.1 0.5-0.2 0.5-0.1 1-0.1 0.5-0.1 1-0.1 0.5 0 0.9 0.1 0.5 0.1 1 0.2 0.7 0.1 1.3 0.3 0.7 0.3 1.3 0.6 0.6 0.3 1.1 0.7 0.6 0.4 1.1 0.9 0.5 0.5 1 1.1zm-1.3 6.6l-0.7-1.3q-0.3-0.6-0.7-1.1-0.4-0.5-0.8-1-0.5-0.4-1-0.8-0.5-0.4-1.1-0.7-0.7-0.2-1.5-0.3-0.7-0.1-1.5-0.1-0.7 0-1.5 0.1-0.7 0.1-1.4 0.3-0.6 0.3-1.1 0.7-0.5 0.4-0.9 0.9-0.4 0.5-0.7 1-0.3 0.6-0.5 1.2c-0.7 1.8-1 5.8-1 13.8v7h0.8c0.4 0 3.6-0.2 7.2-0.4l6.4-0.4z"/>
		<path class="s1" d="m562.5 658q-0.4-0.2-0.9-0.4-0.5-0.1-1-0.1-0.5-0.1-0.9 0-0.5 0-1 0.2c-1.7 0.8-2.2 3.3-2.2 12.3v5.7h1c0.6 0 2.4-0.1 3.9-0.1l2.9-0.2v-7.4c0-7.3 0-7.5-0.5-8.5q-0.1-0.2-0.3-0.4-0.1-0.2-0.3-0.4-0.1-0.2-0.3-0.4-0.2-0.2-0.4-0.3z"/>
		<path fill-rule="evenodd" class="s1" d="m564.8 762.6q1 0.4 2 1 0.9 0.7 1.6 1.5 0.7 0.8 1.3 1.8c1 2.1 1.2 4.1 1.2 15.8 0 5.9-0.1 10.8-0.2 10.9-0.4 0.4-6.7 0.9-12.9 1l-6.7 0.2-0.1-1.5q-0.2-2.9-0.2-5.8 0-3 0.1-5.9 0.1-2.9 0.3-5.8 0.1-2.9 0.4-5.8c0.5-2.6 0.9-3.1 2.7-5q0.5-0.5 1-0.9 0.6-0.5 1.2-0.9 0.6-0.4 1.3-0.7 0.6-0.3 1.3-0.5 0.5-0.1 0.9-0.1 0.5-0.1 0.9-0.1 0.5 0 0.9 0.1 0.4 0 0.9 0.1 1.1 0.2 2.1 0.6zm2.4 9.4q-0.2-0.7-0.5-1.3-0.3-0.6-0.7-1.1-0.5-0.6-1-1-0.5-0.5-1.1-0.8c-1-0.6-1.4-0.7-3.4-0.7-2.6-0.1-3.7 0.3-5.1 1.9-1.8 2.1-2.2 5.1-2.2 16.1v7l2.8-0.2c1.5-0.1 4.7-0.3 7.1-0.4l4.4-0.3 0.1-8.8c0.1-8.2 0-9-0.4-10.4z"/>
		<path class="s1" d="m562.5 770.8q-0.4-0.2-0.9-0.4-0.4-0.1-0.9-0.1-0.4-0.1-0.9 0-0.5 0-0.9 0.1c-1.9 0.7-2.5 3.5-2.4 12.7l0.1 5.5 3.9-0.2 3.8-0.2v-7.5c0-7.3 0-7.4-0.5-8.5q-0.1-0.2-0.3-0.4-0.1-0.2-0.3-0.4-0.1-0.1-0.3-0.3-0.2-0.2-0.4-0.3z"/>
		<path fill-rule="evenodd" class="s1" d="m560 877.8q0.4-0.1 0.9-0.1 0.4 0 0.9 0.1 0.4 0 0.8 0.1 1.1 0.2 2.2 0.6 1 0.4 1.9 1 0.9 0.7 1.7 1.5 0.7 0.8 1.2 1.8c1.1 2.1 1.2 4.1 1.2 15.8 0 5.9-0.1 10.8-0.1 10.9-0.4 0.4-7 0.9-13 1l-6.6 0.2-0.1-1.6q-0.2-2.9-0.2-5.8 0-2.9 0.1-5.8 0.1-2.9 0.3-5.8 0.1-2.9 0.4-5.8c0.5-2.6 0.9-3.2 2.7-5q0.5-0.5 1-1 0.6-0.4 1.2-0.8 0.6-0.4 1.3-0.7 0.6-0.3 1.3-0.5 0.5-0.1 0.9-0.1zm7.2 10.1q-0.2-0.7-0.5-1.3-0.4-0.7-0.8-1.3-0.5-0.5-1.1-1-0.6-0.4-1.2-0.8-0.4-0.2-0.8-0.3-0.4-0.1-0.8-0.2-0.4-0.1-0.8-0.1-0.4 0-0.9 0c-2.4 0-3.6 0.5-4.9 2-1.8 2.1-2.2 5.1-2.2 16.1v7l2.7-0.1c1.5-0.1 4.8-0.3 7.2-0.5l4.4-0.2 0.1-8.9c0-8.2 0-8.9-0.5-10.4z"/>
		<path class="s1" d="m558.9 886.3c-1.9 0.7-2.5 3.5-2.4 12.7l0.1 5.5 3.9-0.2 3.8-0.2v-7.5c0-7.3 0-7.4-0.5-8.5q-0.1-0.2-0.3-0.4-0.1-0.2-0.3-0.4-0.1-0.1-0.3-0.3-0.2-0.2-0.4-0.3-0.4-0.2-0.9-0.4-0.4-0.1-0.9-0.1-0.4-0.1-0.9 0-0.5 0-0.9 0.1z"/>
		<path fill-rule="evenodd" class="s1" d="m551 1025q-0.1-2.9-0.2-5.8 0-2.9 0.1-5.8 0.1-2.9 0.3-5.8 0.1-2.9 0.4-5.8c0.5-2.7 0.9-3.2 2.7-5q0.5-0.5 1-1 0.6-0.4 1.2-0.8 0.6-0.4 1.3-0.7 0.6-0.3 1.3-0.5 0.5-0.1 0.9-0.1 0.5-0.1 0.9-0.1 0.4 0 0.9 0.1 0.4 0 0.8 0.1 1.1 0.2 2.2 0.6 1 0.4 1.9 1 0.9 0.6 1.7 1.5 0.7 0.8 1.2 1.8c1.1 2.1 1.2 4.1 1.2 15.8 0 5.9 0 10.8-0.1 10.9-0.4 0.4-6.9 0.9-13 1l-6.6 0.1zm2.2-1.1h0.9c0.5 0 3.7-0.2 7.2-0.4l6.2-0.4 0.1-8.9c0.1-8.2 0.1-8.9-0.4-10.4q-0.2-0.7-0.5-1.3-0.4-0.7-0.8-1.2-0.5-0.6-1.1-1-0.6-0.5-1.2-0.8-0.4-0.2-0.8-0.4-0.4-0.1-0.8-0.2-0.4-0.1-0.8-0.1-0.4 0-0.9 0c-2.4 0-3.6 0.5-4.9 2-1.8 2.2-2.2 5.1-2.2 16.1z"/>
		<path class="s1" d="m561.4 1020.1l2.9-0.1v-7.5c0-7.3 0-7.4-0.5-8.5q-0.1-0.2-0.3-0.4-0.1-0.2-0.3-0.4-0.1-0.1-0.3-0.3-0.2-0.2-0.4-0.3-0.4-0.2-0.9-0.4-0.4-0.1-0.9-0.1-0.4-0.1-0.9 0-0.5 0-0.9 0.1c-1.9 0.7-2.4 3.1-2.4 12.4v5.7h1c0.6 0 2.4-0.1 3.9-0.2z"/>
		<path class="s1" d="m607.9 1130.4c0.6-0.1 2.6-0.5 4.2-0.8 1.7-0.3 3.1-0.6 3.2-0.6 0 0 0.1-143.8 0.1-319.5v-319.5l-4.7-1c-2.6-0.6-4.8-1.1-5-1.2-0.2 0-0.3 1.1-0.2 8 0.5 27.6 0.6 73.3 0.9 302.3 0.1 139.6 0.2 271.5 0.2 293.1v39.3z"/>
		<path fill-rule="evenodd" class="s1" d="m620 490.8c15.6 4 43.7 11.3 43.9 11.5 0.1 0.1-0.4 625.9-0.4 625.9 0 0-0.8-0.1-1.7-0.2-2.1-0.3-4.7 0.1-10.1 1.3-6.8 1.7-11.5 1.8-20.8 0.4-2.8-0.4-6.8-0.8-8.7-0.8l-3.5-0.2v-638.3zm35.5 525.2q0-2.8-0.1-5.5 0-2.7-0.1-5.4-0.2-2.8-0.4-5.5c-0.6-5.4-0.9-6.1-4.1-9.1-2.3-2.2-4.3-3.4-6.4-3.8q-1.6-0.2-3.2-0.1-1.6 0.1-3.2 0.6-1.5 0.4-2.9 1.3-1.4 0.8-2.5 1.9c-2.7 2.8-3.4 5-3.7 12.9-0.2 5.3-0.1 20.5 0.2 21.1 0.4 0.6 8.7 1.3 17.5 1.4l8.6 0.1 0.2-4.5q0.1-2.7 0.1-5.4zm0-348.9q0-1.1-0.1-2.2-0.1-1-0.3-2.1-0.2-1-0.4-2.1-0.3-1-0.6-2.1c-0.6-1.3-4.4-5.1-6.1-6q-0.3-0.2-0.6-0.3-0.4-0.2-0.7-0.3-0.3-0.1-0.6-0.2-0.3-0.1-0.6-0.2-0.8-0.2-1.7-0.3-0.8-0.1-1.6-0.1-0.8 0-1.7 0.1-0.8 0.1-1.6 0.3-1.2 0.3-2.4 0.8-1.1 0.6-2.1 1.4-1.1 0.7-1.9 1.7-0.8 1-1.5 2.1c-1 1.9-1.3 3.1-1.6 6.7-0.2 3.1-0.3 18.6-0.1 22.5l0.2 2.5 2.7 0.3q2.2 0.2 4.3 0.4 2.2 0.2 4.3 0.3 2.1 0.1 4.3 0.2 2.1 0.1 4.3 0.1h6.1l0.1-1.1c0.3-1.8 0.2-18.8-0.1-22.4zm-26.8-106.2c-0.2 5.6-0.1 20.5 0.2 20.8 0.1 0 2.4 0.3 5.3 0.6q1.6 0.2 3.2 0.3 1.6 0.1 3.2 0.2 1.7 0.1 3.3 0.1 1.6 0.1 3.2 0.1l7.9 0.1 0.1-4.3c0.2-5.1 0-17.8-0.4-21.4-0.3-3.4-1-6.2-1.7-7.2q-0.6-0.7-1.1-1.3-0.6-0.6-1.2-1.2-0.6-0.6-1.3-1.2-0.6-0.5-1.3-1-0.3-0.2-0.7-0.4-0.3-0.2-0.7-0.4-0.3-0.1-0.7-0.3-0.4-0.1-0.7-0.3-0.9-0.2-1.8-0.3-0.8-0.1-1.7-0.1-0.9 0-1.8 0.1-0.9 0.1-1.7 0.2-1.3 0.4-2.5 0.9-1.1 0.6-2.2 1.4-1 0.8-1.8 1.8-0.9 1-1.5 2.1c-1.1 2.2-1.4 4.2-1.7 10.7zm-0.1 215.2c-0.2 5.5 0 20.4 0.3 20.7 0 0.1 2.4 0.4 5.2 0.6 3.7 0.4 7.3 0.6 13 0.7l7.9 0.1 0.2-4.3c0.2-5.1 0-17.8-0.4-21.4-0.3-3.4-1-6.2-1.8-7.2q-0.5-0.7-1.1-1.3-0.6-0.6-1.2-1.2-0.6-0.6-1.2-1.2-0.7-0.5-1.4-1-0.3-0.2-0.6-0.4-0.4-0.2-0.7-0.4-0.4-0.1-0.7-0.3-0.4-0.1-0.8-0.3-0.8-0.2-1.7-0.3-0.9-0.1-1.8-0.1-0.8 0-1.7 0.1-0.9 0.1-1.8 0.2-1.2 0.4-2.4 0.9-1.2 0.6-2.2 1.4-1 0.8-1.9 1.8-0.8 1-1.5 2.1c-1.1 2.2-1.4 4.2-1.6 10.8zm-0.4 111.6c-0.2 3-0.3 19.1-0.1 22.7l0.2 2.3 2.7 0.2q2.1 0.3 4.3 0.5 2.1 0.2 4.3 0.3 2.1 0.1 4.2 0.2 2.2 0 4.3 0h6l0.2-1.2c0.2-2 0.2-18.3-0.1-22q0-1.1-0.1-2.2-0.2-1.1-0.3-2.2-0.2-1.1-0.5-2.2-0.2-1-0.5-2.1c-0.6-1.4-4.4-5.1-6.2-6.1q-0.3-0.1-0.6-0.3-0.3-0.1-0.6-0.2-0.3-0.2-0.6-0.3-0.3-0.1-0.7-0.2-0.8-0.1-1.6-0.2-0.8-0.1-1.6-0.1-0.8 0-1.6 0.1-0.8 0.1-1.6 0.2-1.3 0.3-2.4 0.9-1.2 0.5-2.2 1.3-1 0.8-1.9 1.8-0.8 0.9-1.4 2c-1 2-1.3 3.2-1.6 6.8z"/>
		<path fill-rule="evenodd" class="s1" d="m632.1 578.4c-0.1-0.1-0.2-4.7-0.2-10.2 0-10.6 0.2-13.8 1-15.9q0.4-0.9 1-1.7 0.5-0.8 1.3-1.4 0.7-0.7 1.5-1.2 0.9-0.4 1.8-0.7 0.5-0.2 0.9-0.3 0.5 0 0.9-0.1 0.5 0 0.9 0 0.5 0 1 0c3 0.1 3.8 0.5 6.5 3.3 1.9 1.8 2.1 2.1 2.3 3.3 0.7 3.3 0.8 5.6 0.9 15.5l0.2 10.6-7-0.1c-6.5-0.2-12.7-0.6-13-1.1zm3.7-2.2c0.2 0 3.3 0.2 7 0.4q0.8 0.1 1.7 0.1 0.8 0.1 1.7 0.1 0.8 0 1.7 0 0.8 0 1.6 0c0.3-0.3 0.2-14.8-0.1-17.3q-0.1-0.4-0.1-0.9-0.1-0.4-0.2-0.8-0.1-0.4-0.1-0.9-0.1-0.4-0.3-0.8-0.2-0.7-0.6-1.3-0.4-0.5-0.9-1.1-0.5-0.5-1-0.9-0.6-0.4-1.2-0.7-0.6-0.1-1.2-0.1-0.6-0.1-1.2-0.1-0.5 0-1.1 0.1-0.6 0-1.2 0.1-0.7 0.3-1.3 0.7-0.7 0.3-1.2 0.8-0.6 0.5-1 1.1-0.5 0.6-0.8 1.3c-0.5 1-0.5 1.2-0.6 10.6 0 9.1 0 9.6 0.4 9.6z"/>
		<path class="s1" d="m645.5 573.5l0.9 0.2v-4.2c0-4.8-0.3-10.5-0.7-11.9q-0.1-0.3-0.2-0.5-0.1-0.2-0.2-0.4-0.1-0.2-0.2-0.4-0.2-0.2-0.3-0.4c-0.6-0.6-0.9-0.6-2.2-0.6q-0.3-0.1-0.6-0.1-0.3 0.1-0.6 0.1-0.3 0.1-0.6 0.2-0.2 0.1-0.5 0.3-0.2 0.1-0.4 0.3-0.1 0.2-0.3 0.3-0.2 0.2-0.3 0.4-0.2 0.2-0.3 0.4c-0.5 0.7-0.5 1.2-0.6 8.3v7.6l3.1 0.1c1.8 0.1 3.6 0.3 4 0.3z"/>
		<path fill-rule="evenodd" class="s1" d="m651.2 660.2c0.9 2.1 1.5 14.1 1.3 22.1l-0.2 4.9-6.8-0.1q-1.5 0-3.1-0.1-1.5 0-3.1-0.1-1.5-0.1-3-0.3-1.6-0.1-3.1-0.3l-0.8-0.1 0.1-11.7c0.1-7.6 0.2-12 0.4-12.9q0.2-1.1 0.8-2.2 0.5-1.1 1.3-1.9 0.8-0.9 1.8-1.6 1-0.6 2.1-1 0.4-0.1 0.8-0.2 0.5-0.1 0.9-0.1 0.4-0.1 0.8-0.1 0.5-0.1 0.9-0.1 0.5 0 0.9 0 0.5 0 1 0.1 0.4 0.1 0.9 0.3 0.4 0.2 0.8 0.4c1.6 0.8 4.9 3.9 5.3 5zm-0.8 24.3l-0.2-8.4c0-4.6-0.2-9.2-0.4-10.2-0.4-3.1-1.8-5.1-4.1-6.1q-0.6-0.1-1.3-0.2-0.6-0.1-1.3-0.1-0.6 0-1.3 0.1-0.7 0.1-1.3 0.2-0.5 0.2-0.9 0.5-0.5 0.3-0.9 0.6-0.4 0.3-0.8 0.7-0.4 0.4-0.7 0.8c-1.3 1.9-1.4 2.5-1.4 12.4v9h0.9c0.5 0 3.3 0.1 6.2 0.4 3 0.2 5.9 0.3 6.4 0.3z"/>
		<path class="s1" d="m643 662.8q-0.5-0.1-1 0.1-0.5 0.1-1 0.3-0.5 0.3-0.8 0.6-0.4 0.4-0.6 0.9c-0.5 0.9-0.5 1.4-0.5 8.4v7.6l3 0.1c1.7 0.1 3.4 0.2 3.9 0.3l0.9 0.1v-5.2c0-5.8-0.3-10.2-0.8-11.4q-0.2-0.4-0.5-0.8-0.3-0.4-0.7-0.6-0.5-0.3-0.9-0.4-0.5-0.1-1 0z"/>
		<path fill-rule="evenodd" class="s1" d="m632.2 793.7c-0.3-0.1-0.3-2.4-0.3-10.3 0-10.6 0.2-13.8 1-15.9q0.4-0.9 1-1.7 0.5-0.8 1.3-1.5 0.7-0.6 1.5-1.1 0.9-0.5 1.8-0.8 0.5-0.1 0.9-0.2 0.4-0.1 0.9-0.1 0.4-0.1 0.9 0 0.5 0 0.9 0c3 0.1 3.8 0.5 6.6 3.2 1.9 1.9 2 2.2 2.3 3.4 0.6 3.3 0.8 5.6 0.9 15.4l0.1 10.6h-5.1c-4.9 0-14.1-0.6-14.7-1zm3.1-2.4h0.6c0.2 0 3.4 0.2 7 0.4q0.8 0.1 1.6 0.1 0.9 0 1.7 0.1 0.8 0 1.6 0 0.9 0 1.7 0c0.3-0.3 0.1-14.7-0.1-17.3q-0.1-0.4-0.2-0.9 0-0.4-0.1-0.8-0.1-0.5-0.2-0.9-0.1-0.4-0.2-0.8-0.3-0.7-0.6-1.3-0.4-0.6-0.9-1.1-0.5-0.5-1.1-0.9-0.5-0.4-1.2-0.7-0.5-0.1-1.1-0.1-0.6-0.1-1.2-0.1-0.6 0-1.1 0.1-0.6 0-1.2 0.1-0.5 0.2-0.9 0.4-0.4 0.2-0.8 0.5-0.4 0.3-0.8 0.6-0.4 0.3-0.7 0.7c-1.8 2-1.8 2.2-1.8 12.7z"/>
		<path class="s1" d="m638.4 788.2l3.2 0.1c1.7 0.1 3.5 0.2 4 0.3l0.8 0.1v-4.1c0-4.8-0.3-10.6-0.7-11.9q-0.1-0.3-0.2-0.5 0-0.2-0.2-0.4-0.1-0.2-0.2-0.4-0.2-0.2-0.3-0.4c-0.6-0.6-0.9-0.7-2.4-0.7-1.5 0-1.6 0-2.5 0.9q-0.2 0.2-0.4 0.4-0.2 0.3-0.3 0.5-0.2 0.2-0.3 0.5-0.1 0.2-0.2 0.5-0.1 1-0.2 2-0.1 1-0.1 2 0 1 0 2 0 1 0 2z"/>
		<path fill-rule="evenodd" class="s1" d="m641.2 910.5q-1.5-0.1-3-0.2-1.6-0.1-3.1-0.2-1.6-0.2-3.1-0.4l-0.8-0.1 0.1-11.6c0.1-7.6 0.3-12.1 0.4-12.9q0.2-0.5 0.3-1 0.2-0.6 0.4-1 0.2-0.5 0.5-1 0.3-0.5 0.6-0.9 0.4-0.5 0.9-0.9 0.5-0.4 1-0.8 0.6-0.3 1.2-0.6 0.5-0.3 1.1-0.5 0.5-0.1 0.9-0.2 0.4-0.1 0.8-0.2 0.4 0 0.9-0.1 0.4 0 0.8 0 0.5 0 1 0 0.4 0 0.9 0.1 0.4 0.1 0.9 0.2 0.4 0.2 0.8 0.4 0.8 0.5 1.5 1 0.7 0.6 1.4 1.2 0.6 0.6 1.2 1.3 0.6 0.6 1.1 1.3c1 1.9 1.7 13.8 1.4 22.4l-0.2 4.9-6.8-0.2q-1.5 0-3.1 0zm-6.6-3.4l4.6 0.3c2.5 0.1 5.8 0.3 7.2 0.4l2.7 0.2v-6c0-7-0.3-12.5-0.8-14.2q-0.2-0.7-0.5-1.3-0.3-0.6-0.7-1.2-0.4-0.5-0.9-0.9-0.5-0.5-1.1-0.8-0.4-0.2-0.7-0.4-0.4-0.1-0.8-0.2-0.4-0.1-0.8-0.1-0.4 0-0.8 0-0.3 0-0.7 0-0.3 0-0.7 0.1-0.3 0-0.6 0.1-0.4 0.1-0.7 0.1-0.7 0.3-1.4 0.8-0.7 0.4-1.2 1-0.6 0.6-1 1.2-0.4 0.7-0.6 1.5c-0.5 1.1-0.5 1.9-0.5 10.3z"/>
		<path class="s1" d="m645.1 904.5l0.7 0.2v-5.1c0-6-0.4-10.5-0.9-11.6-0.6-1.3-1.4-1.7-3-1.7q-0.3-0.1-0.6 0-0.3 0-0.6 0-0.2 0.1-0.5 0.2-0.3 0.1-0.5 0.2-0.2 0.2-0.4 0.3-0.2 0.2-0.3 0.4-0.2 0.1-0.3 0.3-0.2 0.2-0.3 0.4c-0.5 0.9-0.5 1.4-0.5 8.5v7.5l3.3 0.2c1.8 0 3.5 0.2 3.9 0.2z"/>
		<path fill-rule="evenodd" class="s1" d="m651 996.2c0.8 2.7 1 6.2 1 16.3v10h-5.4c-4.9 0-14.1-0.6-14.4-1-0.1 0-0.1-4.7-0.1-10.4 0-11.2 0.2-13.8 1.2-16.1q0.4-0.9 1.1-1.7 0.6-0.8 1.4-1.5 0.8-0.6 1.7-1 0.9-0.5 1.9-0.7 0.4-0.1 0.8-0.1 0.3-0.1 0.7-0.1 0.4 0 0.8 0 0.4-0.1 0.7 0c2.6 0.1 4.1 0.9 6.5 3.2 1.5 1.6 1.8 2.1 2.1 3.1zm-1.4 6.3c-0.5-4.3-1.9-6.6-4.6-7.4q-1-0.3-2-0.3-1 0-2 0.2-1 0.2-1.9 0.7-0.9 0.5-1.6 1.3-0.2 0.2-0.4 0.5-0.2 0.2-0.4 0.5-0.1 0.3-0.3 0.6-0.2 0.3-0.3 0.6l-0.7 1.4v9c-0.1 5.6-0.1 9 0.1 9.3q1.8 0.2 3.6 0.3 1.8 0.2 3.5 0.3 1.8 0.2 3.6 0.2 1.8 0.1 3.6 0.1c0.2-0.2 0.1-14.7-0.2-17.3z"/>
		<path class="s1" d="m644.9 998.9q-0.1-0.2-0.4-0.4-0.2-0.2-0.5-0.3-0.2-0.1-0.5-0.1-0.3 0-0.6 0-0.2 0-0.5 0-0.3 0.1-0.5 0.1-0.3 0.1-0.6 0.1-0.2 0.1-0.5 0.2-0.3 0.2-0.6 0.5-0.3 0.2-0.6 0.5-0.2 0.3-0.4 0.7-0.2 0.4-0.3 0.7-0.3 0.9-0.3 8v7l1.4 0.2c0.8 0.1 2.6 0.2 4 0.3l2.7 0.1v-4q0-1.5 0-3-0.1-1.4-0.2-2.9-0.1-1.5-0.2-3-0.2-1.5-0.4-2.9 0-0.3-0.1-0.5-0.1-0.2-0.3-0.5-0.1-0.2-0.2-0.4-0.2-0.2-0.4-0.4z"/>
		<path class="s1" d="m518.6 493.2l-4.1 0.4v25.5c0 25.8 4 593.1 4.2 602.9l0.1 5.4h12v-5c0-2.8-0.1-16-0.2-29.5-0.1-13.5-0.5-47.7-0.7-75.9-1-102.5-4-408.4-4.9-490.3-0.2-18.3-0.4-33.5-0.4-33.7 0.1-0.3-0.6-0.3-6 0.2z"/>
		<path class="s1" d="m667.2 502.8l-0.2 268.8c-0.1 147.9-0.2 288.9-0.3 313.3l-0.2 44.5 1.4 0.9c0.8 0.5 2.4 1.6 3.6 2.4q0.3 0.2 0.5 0.4 0.3 0.2 0.6 0.4 0.3 0.2 0.6 0.4 0.3 0.2 0.6 0.4c0.1 0 0.2-141.8 0.2-315v-315l-2.7-0.7c-1.5-0.3-3-0.6-3.4-0.7z"/>
		<path class="s1" d="m1186.2 1155.7c-37.2-10.2-70-17.8-86.9-20.1-11.1-1.5-21.5-1.3-45.1 0.8-19.3 1.8-51.6 5.9-77.5 9.8-9 1.4-3.5 1-60.1 3.9-97.4 5-149.6 7.5-158.3 7.5-4 0-12.5-0.6-22.8-1.8-31.4-3.5-50.8-9.6-66.7-21.1q-0.5-0.3-1-0.7-0.5-0.3-1-0.6-0.6-0.3-1.1-0.6-0.5-0.3-1.1-0.6c-1.8-0.9-2-0.9-4.6-0.9q-0.8 0-1.6 0-0.8 0.1-1.6 0.2-0.8 0.1-1.6 0.3-0.8 0.2-1.5 0.4-1.7 0.5-3.4 0.8-1.7 0.4-3.5 0.6-1.7 0.1-3.5 0.2-1.7 0-3.4-0.1-1.2 0-2.4 0-1.1-0.1-2.3-0.2-1.1-0.1-2.3-0.2-1.2-0.2-2.3-0.3-1.1-0.2-2.2-0.4-1.2-0.1-2.3-0.2-1.1-0.1-2.2-0.1-1.2-0.1-2.3-0.1c-5-0.1-5.2-0.1-9 0.6-7.2 1.3-8.5 1.3-12.7-0.6q-0.5-0.3-1-0.5-0.5-0.2-1-0.4-0.5-0.2-1-0.4-0.5-0.2-1-0.3-0.4-0.2-0.7-0.2-0.4-0.1-0.8-0.1-0.3 0-0.7 0.1-0.4 0.1-0.7 0.3c-2.4 0.8-4.5 0.7-24.8-1.4-5-0.6-11.1-1.1-13.4-1.3-4-0.2-4.2-0.2-5.3 0.2-3 1.3-7 1.9-15.3 2.3-10.5 0.5-29.3-0.3-49.9-2.1q-0.5-0.1-1-0.1-0.6-0.1-1.1-0.2-0.5-0.1-1-0.3-0.5-0.1-1-0.2-1.5-0.5-3-0.8-1.5-0.3-3-0.6-1.5-0.3-3-0.5-1.5-0.2-3.1-0.4c-3.6-0.3-14.1-0.8-16.8-0.8l-4.1 0.2q-3.8 0.1-7.5 0.3-3.8 0.2-7.5 0.5-3.8 0.4-7.5 0.8-3.8 0.5-7.5 1.1c-5.1 0.8-8.8 1.8-19.1 4.8-13.3 4-20.3 6-27.9 8q-8.5 2.3-17.1 4.2-8.6 1.9-17.2 3.5-8.7 1.5-17.4 2.7-8.7 1.2-17.5 2-7.4 0.7-14.8 0.9-7.4 0.2-14.8 0-7.4-0.3-14.8-1-7.4-0.7-14.7-1.8c-14.1-2.1-28-5-49.1-10.5-30.9-8-36.6-9.3-46.8-11q-2.1-0.3-4.3-0.6-2.1-0.3-4.3-0.5-2.1-0.2-4.3-0.3-2.2-0.1-4.3-0.2c-23.4-0.7-55.2 2.6-94.4 9.7-6.5 1.1-18.5 3.4-21 4l-11.6 0.3v60.4h1200.4l-0.1-44.7z"/>
	</g>
</svg>