<svg version="1.2" xmlns="http://www.w3.org/2000/svg" viewBox="0 0 1210 1210" width="1210" height="1210">
	<title>10-Xhamia-llapit-01-svg</title>
	<style>
		.s0 { fill: #000000 } 
		.s1 { fill: #f5be18 } 
		.s2 { fill: #ffffff } 
	</style>
	<g id="Black">
		<path class="s0" d="m0 0h1210v1210h-1210z"/>
	</g>
	<g id="Color">
		<path fill-rule="evenodd" class="s1" d="m1210 0v1210h-1210v-1210zm-230.4 1132.7v-722.3c0-71.6 0-337.2-346.8-337.2-344 0-344 265.6-344 337.2v722.3z"/>
		<path class="s2" d="m979.6 882.1c-2.2-0.4-7.2-0.8-9.5-1l-2.5-0.2h-0.5l-0.2 6.7 12.7 1.1z"/>
		<path class="s2" d="m979.6 984.8c-0.3-0.8-0.6-2.1-1.9-2.1-2.7 0-8.8 0.3-11.7 0.4l-3 0.2h-0.7l1 6.7 16.3-0.8z"/>
		<path class="s2" d="m979.6 410.4c0-71.6 0-337.2-346.8-337.2-344 0-343.9 265.4-344 337.2v115.9c5.9 0.9 20.7 0.9 23.4 7.6 2.1-0.5 4.2-1.1 6.3-1.7 3.6-1 5.5 0 6.1 3.5q0 0.3 0.1 0.6 0 0.4 0 0.7 0.1 0.3 0.1 0.6 0 0.4 0 0.7c0.2 4.2 0.5 4.3 5.2 4.9 4.6 0.5 9.3 1 13.8 2 7.3 1.6 14.4 3.5 21.6 5.4 2 0.4 3.3 1.5 3.2 3.6q0 0.2 0 0.3 0 0.2 0 0.3 0.1 0.2 0.1 0.4 0 0.1 0.1 0.3c2.2 0.8 4.1 1.5 6 2.1q0.8 0.3 1.6 0.6 0.8 0.3 1.6 0.5 0.8 0.3 1.6 0.5 0.9 0.2 1.7 0.4c2.5 0.4 3.5 1.6 3.3 3.9 0 0.7 0 1.5 0 2.6 1.8-0.3 3.4-0.4 5-0.8 1.5-0.3 3.1-1 4.7-1.4 5.8-1 7.5 0 9.5 5.2q0.1 0.3 0.3 0.5 0.2 0.2 0.4 0.4 0.2 0.2 0.5 0.3 0.3 0.2 0.5 0.2c3.2 0.4 6.4 0.5 9.1 0.7q0.4-0.4 0.7-0.7 0.4-0.3 0.8-0.6 0.3-0.3 0.7-0.5 0.4-0.3 0.8-0.6c8.7-3.8 17.4-7.6 26.1-11.4 11.7-5.2 23.6-9.9 35.8-13.9 10.1-3.3 20.1-6.7 30.7-8.4 6.8-1.2 13.3-4.4 20.5-3.6q0.3 0 0.5 0 0.2-0.1 0.5-0.1 0.2-0.1 0.4-0.2 0.2 0 0.5-0.1c7.6-1.9 15.3-4 23.3-3.5 3.8 0.2 7.6 0.4 11.4 0.4 1.8 0 3.4-0.3 4.1-2.4 0.4-1.1 1.5-2 2.5-2.8 1.7-1.6 3.6-3.2 5.4-4.7-3.3-3.2-3.1-4.3 1.6-8.6-3.2-4.7-5.2-9.5 0.6-14.4q-0.4-0.2-0.8-0.5-0.4-0.3-0.8-0.6-0.4-0.3-0.8-0.6-0.3-0.3-0.7-0.7c-0.5-0.6-1.1-2.1-0.7-2.5 2.8-3.2 3.6-7.1 4.9-10.9 0.7-2.1 3.3-2 4.5 0q0.2 0.3 0.4 0.6 0.2 0.3 0.3 0.7 0.1 0.3 0.2 0.6 0.1 0.4 0.1 0.7c0.2 1.9-0.1 3.9 2.8 3.7q0.2 0 0.3 0 0.1 0.1 0.3 0.2 0.1 0.1 0.1 0.2 0.1 0.1 0.1 0.2c0.3 2.6 1.5 5.3-0.6 7.5-1.4 1.5-1.2 2.8-0.5 4.2q0.2 0.4 0.4 0.8 0.2 0.3 0.4 0.7 0.3 0.4 0.5 0.7 0.3 0.4 0.5 0.7c2.1 3.1 1.6 5.6-1.7 7.3-1.6 1-1.3 1.7 0.2 2.3 2 0.8 2.7 1.6 1.6 4-1.9 3.9-1.3 5.4 1.9 7.1q1.1 0.6 2 1.3 1 0.8 1.8 1.7 0.8 1 1.3 2.1 0.6 1.1 0.9 2.2c5-1.4 9.7-0.2 14.3 1.2q0.2 0 0.3 0 0.1 0.1 0.3 0.1 0.1 0 0.2 0 0.2 0 0.3 0c6.9 0.1 13.1 2.5 19.5 4.5 5.9 1.8 11.9 3.7 18 5.6 0.1-1.3 0.2-2 0.2-2.8q0.1-8.6 0.1-17.2c0.1-15 0.2-30.1 0.2-45.2 0-3-1-6.7-3.6-7.6-4.8-1.6-6.9-4.9-8.6-8.5-8.2-17-10.5-35-9.8-53.5q0-0.7 0-1.4 0-0.8 0.1-1.5 0-0.7 0.1-1.4 0.1-0.8 0.2-1.5 0.4-1.4 1.1-2.6 0.7-1.3 1.6-2.4 0.9-1.1 2.1-2 1.1-0.9 2.4-1.5c5.3-2.6 10.8-4.7 16.3-6.9 1.5-0.5 2.2-1 2.2-2.6 0.2-10.3 0.6-20.4 0.9-30.6 0.5-20.3 0.8-40.5 1.3-60.8q0.1-0.8 0-1.7-0.2-0.8-0.5-1.5-0.4-0.8-0.9-1.4-0.6-0.6-1.3-1.1c-6.7-5.1-6.6-12.2-0.2-17.6 0.9-0.8 2.1-1.4 3-2.3q0.3-0.3 0.6-0.6 0.3-0.4 0.6-0.7 0.2-0.4 0.4-0.8 0.2-0.4 0.4-0.9c3.4-17 6.9-34.1 10.2-51.2 3.3-16.9 6.4-33.9 9.6-50.8q0-0.2 0.1-0.4 0.1-0.2 0.2-0.4 0.1-0.2 0.2-0.4 0-0.2 0.1-0.4c0.7-1.9 3.4-3.7 2.7-4.8-2.8-4.4 0-4.2 0.9-5.4-1-1.2-2.3-2.2-2.2-3.2 0-1.9 1.4-2 2.3-3.1-2.8-1.5 0.5-5.1 0-5.9-0.9-0.8-0.2-3.8 0.7-6.4q0-0.2 0.2-0.4 0.2-0.2 0.4-0.3 0.3-0.1 0.5-0.1 0.3 0 0.5 0 0.2 0.1 0.3 0.2 0.1 0.1 0.2 0.2 0.1 0.1 0.2 0.2 0.1 0.2 0.1 0.3c0.5 2.2 0.9 5.8 0.6 6.2-0.9 1.4 0.6 2 0.8 4 0.1 0.9-1 1.4-1.7 2 1 0.5 2.6 1.8 2.3 3.2-0.5 1.8-3.6 2.4-2.3 3 2.7 1.3 3.3 3.3 1.6 5.2 1.2 3 3.8 3.4 4.5 6 1.7 6.5 3.1 13.9 4.6 20.5q9.7 41.1 19.5 82.3 0.1 0.5 0.4 0.9 0.2 0.5 0.5 1 0.3 0.4 0.6 0.8 0.4 0.4 0.8 0.7c7.8 6.1 7.6 14.2-0.9 19.7q-0.5 0.3-1 0.7-0.4 0.4-0.6 0.9-0.3 0.5-0.4 1-0.2 0.6-0.1 1.1 0.3 37.6 0.6 75.1v18.8c6 2.3 11.4 3.8 16.3 6.3 6 3 10.8 6.7 10.5 14.6-0.5 9.9 0.7 19.8 0.7 29.7q-0.1 1.8-0.2 3.6-0.2 1.8-0.5 3.5-0.2 1.8-0.6 3.5-0.4 1.7-0.9 3.4c-1.8 6-7 10.1-11.2 14.7q-0.6 0.6-1.1 1.2-0.6 0.6-1.1 1.2-0.6 0.7-1.1 1.4-0.5 0.6-1 1.3c-0.9 1.4-1 3.4-2.3 4.4-1.7 1.4-1.5 3-1.5 4.7q0.3 27.4 0.6 54.8 0.2 17.6 0.6 35.3 0 0.3 0 0.6 0.1 0.4 0.2 0.7 0.2 0.3 0.3 0.5 0.2 0.3 0.5 0.5c2.4 1.5 5 2.8 7.5 4.2 8.8 4.6 17.5 9.4 24.3 16.5 0.7 0.7 1.8 1.8 2.6 2.4 12.1 10.1 22.2 22 32 34.1 10 12.1 19.2 24.9 29.3 37 5.3 6.3 11.9 11.7 17.9 17.7q2.3 2.4 5 4.4 2.6 2 5.6 3.5 3 1.6 6.1 2.7 3.2 1.1 6.5 1.6c3 0.5 5.8 1.6 8.8 2.3 9.7 2.2 19.3 5.1 29.4 5.5 1.2 0 3.2 0.5 3.3 0.9 0.2 1.8 1 3.7-1.1 5.2-3.5 2.5-6.8 5.2-10.2 7.7-2.6 1.8-4.3 3.6-4.1 7 0.2 6.7-0.2 13.3-0.3 20v3.3c2.2 0.4 4.3 0.3 5.6 1.2 2.3 1.8 4.3 1.9 7 0.7 2.1-0.9 4.8-1.5 6.5 0.8 1.1 1.4 2 1.6 3.6 1 4-1.2 7.9-1.3 11.6 1.3 0.9 0.7 2.8 0.5 4 0.1 2.4-0.8 4.5-0.8 6.7 0.7q0.5 0.2 0.9 0.4 0.5 0.2 0.9 0.3 0.5 0.1 1 0.2 0.5 0 0.9 0.1c3.3 0.2 6.6 0.1 9.8 0.6 2.8 0.4 5.5 1.7 8.3 2.4q0.4 0.1 0.8 0.1 0.4 0.1 0.8 0 0.4 0 0.8-0.1 0.4 0 0.7-0.2c3-1.3 5.5-0.9 8 0.8q0.4 0.2 0.8 0.3 0.5 0.1 0.9 0.2 0.4 0 0.9 0 0.4-0.1 0.8-0.2c3-1.3 5-3.8 8.2-0.5z"/>
		<path class="s2" d="m943 1008c-3 0.6-6.1 0.5-9 1.1-14.2 3.3-28.8 3.9-43.3 4.9-8 0.6-16.1 0.9-24.1 1.7-11.8 1.2-23.6 2.7-35.4 4-18.7 2.2-37.4 4.5-56.1 6.6-12.5 1.4-25.1 2.6-37.6 3.9-12.9 1.3-25.8 2.5-38.7 3.9-15.4 1.7-30.8 3.7-46.3 5.4-11 1.3-22 2.2-32.9 3.6-13 1.6-25.9 2.2-39 0.3-14.5-2.1-29.2-3.3-43.8-4.9l-40.9-4.5-40-4.4-41.1-4.5c-8-0.9-16.1-1.8-24.8-2.7 0.3 3.7 0.6 6.9 0.6 10.2 0.1 9.3 0 18.7 0.2 28 0 1.9 0.8 3.8 1 5.8q0 0.3 0 0.7-0.1 0.3-0.2 0.6-0.1 0.4-0.2 0.7-0.2 0.3-0.4 0.5c-1.4 1.9-3.5 0.7-5.3 1-6.6 0.7-13.3 1.7-20 2.5l-55.5 7.1c-5.2 0.7-21.4 1.3-21.4 1.3v52h690.9v-132.4c-6.1 1.3-10.2 1.7-15.5 2.8-7.2 1.6-14.2 3.3-21.2 4.8z"/>
		<path class="s2" d="m974.8 757.5c-3.4 2.3-6.6 2.6-10-0.2q-0.3-0.2-0.6-0.2-0.4-0.1-0.7-0.2-0.4 0-0.7 0.1-0.4 0.1-0.7 0.2c-2.4 1.3-4.8 1-7.2 0.2-2.7-0.8-5.5-1.8-8.2-2.5q-0.5-0.1-0.9-0.2-0.5 0-1-0.1-0.4 0-0.9 0-0.5 0-0.9 0c-3.6 0-7.4 1.1-10.6-1.7-0.5-0.4-2-0.1-3 0.2-2.3 0.8-4.6 1.1-6.5-0.4-3.4-2.6-6.7-2.3-10.4-0.9q-0.6 0.3-1.3 0.4-0.7 0.1-1.3-0.1-0.7-0.2-1.3-0.6-0.6-0.4-1-0.9c-1.5-2.2-3-1.7-4.9-0.9-2.7 1.2-5.4 1.4-7.7-0.6q-0.5-0.5-1-0.7-0.6-0.3-1.2-0.4-0.6-0.1-1.2 0-0.6 0-1.2 0.3-0.4 0-0.9 0-0.4 0.1-0.9 0-0.5-0.1-0.9-0.2-0.4-0.1-0.9-0.3c-1.2-0.4-2.1-1.4-3.3-1.7-3.9-1.2-7.8-2.1-11.6-3.3-14.6-4.8-29.7-7.5-44.8-10.1-3.3-0.6-6.8-0.5-10.1-1.2-7.3-1.5-14.5-3.5-21.8-4.9-14-2.7-28.1-5.2-42.2-7.7q-0.4 0-0.8-0.1-0.4 0-0.8 0-0.4 0.1-0.8 0.1-0.4 0.1-0.8 0.2c-1.6 0.3-3.1 1.2-4.6 1.1-3.8 0-6.9 1.9-9.6 3.8-2.9 2-5.6 3-9.1 2.3q-0.3 0-0.7-0.1-0.3 0-0.7 0-0.3 0-0.7 0-0.3-0.1-0.7-0.1c-0.8 2.7-1.7 5.4-2.6 8q-0.1 0.4-0.2 0.8-0.1 0.4-0.3 0.7-0.2 0.4-0.4 0.7-0.2 0.3-0.4 0.6c-0.7 0.7-2.1 1.5-2.9 1.2-7.3-2.1-15-2-22.4-4.1-6.3-1.9-13.2-1.9-19.8-2.7q-0.7-0.1-1.5-0.2-0.8-0.1-1.5-0.2-0.8-0.1-1.5-0.3-0.7-0.1-1.5-0.3c-7.5-2-15-4.1-22.5-6.1q-0.3-0.1-0.5-0.1-0.3 0-0.6-0.1-0.3 0-0.5 0-0.3 0-0.6 0c-3.6-0.3-7 1.7-11-0.2-3.1-1.5-7.4-0.6-11.2-0.9q-0.6 0-1.3-0.1-0.6-0.1-1.2-0.3-0.6-0.1-1.1-0.2-0.6-0.2-1.2-0.4c-2.4-0.7-4.7-1.5-7-2.3-0.4 5-0.7 9.8-0.9 14 3.5 0.6 7 1 10.3 1.7 3 0.5 5.8 1.2 8.8 1.8 1.6 0.4 2 1.5 2 3-0.3 4-0.3 8-0.7 11.9-0.1 2 0.4 3.1 2.6 3.3 3.1 0.4 4.5 2.2 4.6 5 0.1 2.6 0.2 5.2 0.1 7.8 0 5.5-1.7 6.7-7.4 6-6.6-0.8-13.2-1.2-19.8-1.8-1.4-0.1-2.6 0-2.6 1.8v8.1c1.8 0 3.5-0.4 4.8 0.1 1.4 0.4 3 1.5 3.3 2.5q0.2 1 0.3 2.1 0.1 1 0.1 2 0.1 1 0.1 2.1-0.1 1-0.1 2-0.1 0.8-0.2 1.5-0.1 0.7-0.2 1.5-0.1 0.7-0.2 1.4-0.1 0.8-0.3 1.5c1.8 0.1 3.3 0.3 4.9 0.4 4.6 0.1 6.5 2 6 6.4-0.4 3.2-0.7 6.4-1 9.9 1.6-0.2 3-0.2 4.5-0.4 3.5-0.4 5.6 0.6 6.4 3.8q0.2 1.1 0.4 2.2 0.2 1 0.3 2.1 0.1 1.1 0.1 2.2 0.1 1.1 0.1 2.2c0 3-0.3 6-0.5 8.8 22.5 3.4 44.6 7 66.8 10.1 11.3 1.6 22.7 2.5 34.4 3.7 2.4-9.8 9.3-17.3 17.1-24 3.2-2.8 7.4-4.7 11.2-6.9q0.4-0.1 0.8-0.2 0.5-0.1 0.9-0.1 0.4 0.1 0.8 0.2 0.5 0.1 0.8 0.3 1 0.7 1.9 1.4 0.9 0.7 1.8 1.5 0.8 0.8 1.7 1.6 0.8 0.8 1.6 1.7c8.1 9.7 16.3 19.4 19.5 31.8q0.1 0.3 0.3 0.6 0.1 0.2 0.4 0.4 0.2 0.2 0.5 0.3 0.2 0.2 0.5 0.3c14.9 2.2 29.8 4.3 44.7 6.5 1.1-3.2 2.2-6.5 3.2-9.8 3.3-10.5 11.7-15.9 21.6-20.1 1.6-0.6 2.5-0.2 3.5 1 2.5 2.9 5.4 5.5 7.5 8.6 3.7 5.5 7.6 10.8 8.4 17.5 0.3 2.6 1.6 5.2 2.6 7.7q0.1 0.2 0.3 0.5 0.2 0.2 0.5 0.4 0.2 0.2 0.5 0.3 0.3 0.1 0.5 0.2c8.3 0.7 16.5 2.1 24.8 2 16.1-0.4 31.8 3.3 47.8 3.7 5.9 0.1 11 1.1 17.1 1.7v-120c-1.6-0.7-2.1-1.8-3.5-2.4q-0.2 0-0.4 0.1-0.2 0-0.4 0.1-0.2 0.1-0.3 0.2-0.2 0-0.4 0.1z"/>
		<path class="s2" d="m317.8 866.5c5-0.2 10-1.3 15-1.7 3.5-0.3 4.4 0.9 4.3 4.1q-0.4 13.9-0.6 27.8 0 0.3 0 0.6 0.1 0.3 0.2 0.6 0.1 0.3 0.2 0.6 0.2 0.2 0.4 0.5c1.2 1.1 0.9 2 0 3.1q-0.2 0.2-0.3 0.5-0.2 0.2-0.3 0.4-0.1 0.3-0.1 0.5-0.1 0.3-0.1 0.5c-0.4 7.4-0.6 14.7-0.9 21.9 2.9 1.2 3.9 3.7 1.8 4.7-2.4 1.2-2 2.8-2 4.5 0 1.5-0.1 3-0.1 4.4 0 6.9 0 13.7 0.1 20.5 0 1.2 0.2 2.9 1 3.5 3 2.4 3.1 2.6 0.3 3.9-0.5 9.7-1 19.1-1.5 28.6q0.3 0 0.6 0 0.2 0 0.5 0 0.3 0.1 0.5 0.1 0.3 0 0.6 0.1c13.4 1.9 27 1.3 40.4 2 2.2 0.1 3.5-0.3 3.4-2.8-0.2-5.8 0.1-11.6-0.2-17.3-0.2-4.8-0.3-9.8-1.6-14.4-2.8-9.9-1.3-19.6-0.7-29.4 0.5-8 1.7-15.8 2.3-23.8 0.6-7.5 0.9-15 1.1-22.5q0-1.2-0.1-2.4 0-1.2-0.1-2.4-0.1-1.1-0.3-2.3-0.1-1.2-0.3-2.4c-0.3-2.4-1.2-4.7-1.3-7.1-0.3-5.6-0.4-11.1-0.6-16.3q-0.9-0.4-1.9-0.9-0.9-0.4-1.9-0.9-0.9-0.4-1.8-0.9-1-0.5-1.9-1-0.3-0.4-0.6-0.7-0.3-0.4-0.6-0.8-0.2-0.4-0.4-0.9-0.1-0.4-0.2-0.9c-0.4-1.2 0-2.2-0.2-3.4-0.4-2.7 0.9-4.1 3.6-5 6.9-2.1 7.4-3 5.8-9.8q0-0.2-0.1-0.4 0-0.3-0.1-0.5 0-0.2-0.1-0.4-0.1-0.2-0.2-0.4c-2-4.8-1.5-9.5-0.3-14.3q0.2-0.7 0.3-1.5 0.1-0.8 0-1.5-0.1-0.8-0.3-1.5-0.2-0.8-0.5-1.5c-2-4-3.2-8.2-2.4-12.5q0.3-1.4 0.4-2.8 0.1-1.4 0.1-2.8 0-1.4-0.1-2.8-0.1-1.4-0.4-2.8 0-0.1 0-0.2 0-0.2 0-0.3 0-0.1 0-0.2 0-0.2 0-0.3v-24.2l-0.9-0.1c-1.2 5-2.5 9.9-3.6 14.9q0 0.3 0 0.7 0 0.3 0 0.7 0 0.3 0.1 0.7 0 0.3 0.1 0.7c0.6 4.6 1.3 9.2 1.8 13.8q0.1 0.2 0 0.5-0.1 0.2-0.2 0.4-0.1 0.2-0.2 0.4-0.2 0.2-0.4 0.3-0.3 0.1-0.6 0.1-0.3 0-0.5-0.1-0.3 0-0.6-0.1-0.3-0.2-0.5-0.3-0.2-0.3-0.3-0.6-0.2-0.3-0.3-0.7-0.1-0.3-0.2-0.6-0.1-0.4-0.1-0.7c-0.6-4-1.1-7.9-1.6-11.9q-0.1-0.6-0.1-1.3-0.1-0.7-0.1-1.3 0-0.7 0.1-1.4 0-0.7 0.1-1.3c1-4.6 2.2-9.1 3.4-13.7q0-0.3 0.1-0.6 0.1-0.3 0.3-0.6 0.1-0.3 0.3-0.6 0.1-0.3 0.3-0.5c1.8-2.2 1.9-4.7 2.6-7.2 1.9-6.4-0.4-12.3-1.7-18.2-5.1-0.5-6.2-1-6.3-4-0.3-4.9 0.1-9.8 3.5-14 1.5-1.9 2-4.4 3.2-6.5 0.7-1.2 1.6-2.6 2.8-3.1 2.6-1.1 2.5-2.6 2.4-4.8q-0.2-2.1-0.3-4.3-0.1-2.1-0.2-4.2-0.1-2.1-0.1-4.3 0-2.1 0.1-4.2c0.2-5.8 1.4-11.5 1.8-17.3 0.6-7.6 0.9-15.3 1.2-23 0.1-2.6-0.2-5.3-0.2-8 0-2.1 0.2-4.2 0.3-6.3 0.2-2.8 0.5-5.6 0.6-8.4 0.1-1.8-0.3-3.7 0.1-5.4q0.4-1.3 0.2-2.5-0.1-1.3-0.7-2.4-0.6-1.1-1.6-1.9-1-0.8-2.2-1.2-0.1 0-0.1 0-0.1 0-0.1 0-0.1 0-0.1 0-0.1 0-0.1-0.1c-7.5-2.1-15.2-2.7-22.9-3q-2.9 0-5.7-0.3-2.8-0.4-5.6-0.9-2.8-0.6-5.5-1.5-2.8-0.8-5.4-1.9c-8.3-3.5-16.7-7-25.2-9.9-4.6-1.5-12.9-2.4-18.1-3.4v283c8.5 0 21.2 0.1 29.1-0.1z"/>
		<path class="s2" d="m546.9 1015.8c2.5 0.2 5 0.4 8 0.7-0.2-2.8-0.2-5.3-0.6-7.7-0.8-5.3 2.9-9.5 8.4-9.5h9.5c0-5.9-1.9-12.1 2-18.1-5.1 0.3-10 1.1-15 0.9-3.1-0.1-6.3-1.4-9.3-2.5-0.6-0.2-1.1-1.4-1.1-2.1-0.4-4.2-0.6-8.3-0.7-12.4-0.1-2.4 1.3-3.5 3.8-3.4 1.5 0 2.9 0.2 4.6 0.3q0.1-0.6 0.1-1.1 0.1-0.6 0.1-1.1 0.1-0.5 0.1-1.1 0-0.5 0.1-1c-0.2-4.4-1.1-8.8 0.9-13 0.2-0.6-0.6-2.1-1.3-2.5-4.4-2.1-4.7-5.7-4.4-9.5 0.2-2.2 0.7-4.4 0.9-6.7 0.3-2.8 2.9-4.3 5.9-3.8 4.2 0.6 8.5 0.9 12.9 1.3v-12c-2.7 0.4-5.1 0.8-7.5 1.2-2 0.3-4 0-4-2.4-0.2-4.9 0-9.9 0-15-3 0.4-5.8 0.7-8.5 1.1-3.3 0.5-5.9-0.5-7.4-3.3q-2.4-4.2-4.4-8.7c-1-2.2 0-3.8 2.6-4.4q0.5-0.1 1.1-0.2 0.6-0.1 1.2-0.2 0.6-0.1 1.1-0.2 0.6 0 1.2-0.1c3.9-0.3 7.9-0.6 11.2-0.9-0.3-3.5-0.5-6.8-1-10q0-0.4-0.1-0.8-0.1-0.3-0.3-0.7-0.3-0.3-0.5-0.6-0.3-0.2-0.6-0.4-0.9-0.4-1.8-0.7-0.9-0.3-1.8-0.6-0.9-0.3-1.8-0.5-0.9-0.2-1.9-0.4c-2.5-0.5-4-1.4-4-4q0-0.6 0-1.2-0.1-0.6-0.1-1.1-0.1-0.6-0.1-1.2-0.1-0.6-0.2-1.2h-2.6q-23.8 1.8-47.6 3.7c-1.8 0.1-3.7 0-4.5 2.1-0.2 0.4-1.1 0.6-1.7 0.7-3.1 0.5-6.3 0.9-9.7 1.4v2.4c0.1 17.8 0.3 35.7 0.4 53.5q0.1 27.5 0.1 55.1c0 3.3-0.3 3.4-3.5 2.3q-0.3 0-0.5-0.1-0.3 0-0.5-0.1-0.3 0-0.6 0-0.2 0-0.5 0h-35.3c-4.7 0-5.1-0.2-5.1-4.7q-0.1-37.5-0.3-75 0-15.5 0-30.9c0-2.2 0.6-3.7 3.3-3.8 9.4-0.3 18.8-0.5 28.2-1 4.4-0.2 9 1 14-1.7-1.6-5-3-10.1-4.7-15.1-3.2-9.5-10.6-15.4-19.6-19.8q-0.2-0.2-0.5-0.3-0.3 0-0.6 0-0.3 0-0.6 0-0.2 0.1-0.5 0.2c-3.8 3.2-8 6.2-11.2 10q-2.4 2.8-4.2 6-1.8 3.3-2.9 6.8-1.2 3.5-1.7 7.2-0.4 3.7-0.2 7.4c0.1 2.2-0.8 3.2-3.2 3.1-1.9 0-3.7 0.3-5.5 0.4-3.5 0-7.1 0-10.6 0-2.9 0-6.1-0.6-8.7 0.3-3.7 1.4-8-1.6-11.2 1.7 0 0.1-0.3-0.1-0.5-0.1l-7.6-0.4c0.2 3.3-0.4 6.4 0.6 9 2.2 5.4 2 10.7 1.3 16.1-0.2 1.7-0.3 3.4-0.4 5.2-0.5 9.5-0.9 19.1-1.7 28.7-1 12.9-2.8 25.6-0.2 38.7 2.1 10.6 1.8 21.6 2.7 32.6 1.9 0.4 3.6 2.6 3.6 5.5v16.7l152.2 16.6v-7.5c0-2.6-0.3-5.2-0.2-7.8-0.1-3.7 1.3-4.7 5.2-4.3z"/>
		<path class="s2" d="m386.3 730.9c-1.5 0-3.8 0.7-4.3 1.7q-0.4 0.8-0.7 1.7-0.3 0.9-0.5 1.7-0.2 0.9-0.3 1.8-0.1 0.9-0.2 1.8c-0.4 3.9 0.2 8-0.7 11.7-1 4-0.3 7.8-0.2 11.7 0.1 6.5 0.1 13 0.3 19.4 0 1.7 0.2 3.4 0.3 5.2 0.1 1.7 0.6 3.4 0.1 5-1 3.7-1.6 7.3 0.2 10.8q0.9 1.6 1.5 3.3 0.6 1.7 0.8 3.4 0.2 1.8 0 3.6-0.2 1.8-0.7 3.5c-0.8 2.6 0 5.7 0.2 8.6 0.4 3.5 1 7 1.4 10.5 0.2 2.1-1 3.7-3 4.6-1.3 0.6-2.5 1.1-3.8 1.6-3.6 1.4-4 2-2.5 5.6 1.6-0.1 3.3-0.2 4.9-0.4 3.2-0.3 6.5-0.7 9.8-1 1.7-0.1 3.4 0 5-0.1 3.2-0.2 6.5 0.2 9.3-0.6 4.7-1.4 9.3-0.8 13.8-0.7 1.3-2.4 2.5-4.9 4-7.2 2-3.2 4.3-6.2 6.4-9.4 5.6-8.7 13.6-15.4 22.2-21.3q0.2-0.1 0.4-0.2 0.3-0.1 0.5-0.1 0.2-0.1 0.5-0.1 0.2 0 0.5 0.1 0.7 0.2 1.4 0.4 0.7 0.3 1.3 0.6 0.7 0.3 1.4 0.6 0.6 0.3 1.2 0.7c4.5 3.2 8.7 6.6 13 10 7.3 5.7 13.3 12.2 16.5 21.2l57.9-4.7v-10.4c0-3.7 1.7-5.4 5.5-6.4 1.6-0.4 3-1 4-1.3-0.5-5.2-0.9-9.9-1.3-14.7q-0.6 0-1.2-0.1-0.6 0-1.1-0.1-0.6-0.1-1.2-0.2-0.5-0.1-1.1-0.3c-1.2-0.4-2.6-1.6-2.8-2.6q-0.3-1.1-0.4-2.2-0.1-1.1-0.2-2.2 0-1.1 0-2.2 0-1.1 0.1-2.2 0-0.5 0.2-1.1 0.2-0.5 0.6-1 0.3-0.4 0.7-0.8 0.4-0.4 0.9-0.7c2.3-0.8 2.7-2 2.3-3.9q-0.1-0.3-0.2-0.7-0.1-0.4-0.1-0.7-0.1-0.4-0.1-0.8-0.1-0.4-0.1-0.8 0-0.8 0.1-1.7 0-0.8 0.1-1.7 0.1-0.9 0.3-1.7 0.1-0.9 0.3-1.7c0.2-0.8 1.8-1.5 2.8-1.7 2.4-0.4 5-0.4 7-0.6v-15.2c-1.6 0.3-2.9 0.6-4.3 0.8-3.5 0.5-5.7-0.9-6.3-4.2q-0.1-0.7-0.2-1.5-0.2-0.8-0.2-1.5-0.1-0.8-0.2-1.6-0.1-0.8-0.1-1.5c-0.2-3.4 1.1-6.2 4.6-7.6 1.5-0.5 1.7-1.3 1.4-2.8-1.2-4.8-2.5-9.8 3.5-13.8-4.5 0.5-8.2 0.8-11.8 1.4-4.1 0.7-8.1 1.8-12.2 2.6-2.4 0.5-4.9 0.6-7.2 1.3-3 1-3.8 0.7-4.3-2.2-0.9-5.5-1.7-11-2.5-16.9-4.6 1.2-9 2.4-13.5 3.4-13.1 2.9-26.3 5.8-39.5 8.5q-1.9 0.4-3.8 0.7-1.9 0.4-3.7 0.7-1.9 0.3-3.9 0.5-1.9 0.3-3.8 0.5c-9.5 1-19 1.5-28.5 2.6-12.3 1.3-24.1 5.2-36.5 5.3z"/>
		<path class="s2" d="m634.2 856.9c-0.3 2.1-1 4.2-1.4 6.3-0.5 3.6-2.4 4.6-6.1 3.5-2.3-0.8-4.7-1.1-7.6-1.8v12.1c1.6 0.8 3.7 1.2 4.3 2.3 2.2 3.8 4 7.8 1.7 12.3q-0.2 0.3-0.3 0.7-0.1 0.4-0.2 0.7-0.1 0.4-0.2 0.8 0 0.4-0.1 0.8c4.8 1.5 4.9 1.8 5.3 6.1 0.1 1.4 0.7 2.7 0.7 4.1 0.1 1.4 0.4 3.4-0.4 4.5-1.6 2.2-3.9 4-6.4 6.3v11.1c1.2-0.3 2.8-1.2 4.3-1 1.5 0.2 2.8 1.5 4.4 1.8q0.7 0 1.4 0.1 0.7 0 1.5 0 0.7 0 1.4-0.1 0.7 0 1.4-0.2c3.6-0.4 5.7 0.6 6.4 3.8q0.2 1 0.3 2.1 0.1 1 0.2 2 0.1 1.1 0.1 2.1 0 1-0.1 2.1c-0.4 4.4-2 5.8-6.7 6.5-2.8 0.4-5.6 0.5-8.7 0.7q0.1 0.6 0.2 1.2 0.1 0.6 0.1 1.2 0.1 0.5 0.1 1.1 0.1 0.6 0.1 1.2-0.1 2.3-0.5 4.6c-0.6 6.3-0.6 6.3-7.4 7.2-0.2 0-0.3 0.2-0.9 0.4 0.5 5 1 10.1 1.4 15.3 1.8 0.2 4.1 0.6 6.5 0.7 3.9 0.1 7.8 0 11.8 0.1 2.3 0.1 4.6 0.7 7 1q0.3 0.1 0.5 0.1 0.3 0 0.6 0 0.3 0 0.6 0 0.2 0 0.5-0.1 0.6-0.1 1.2-0.2 0.5-0.1 1.1-0.1 0.5-0.1 1.1-0.2 0.6 0 1.1-0.1c6.3 0 12.5 0 18.7 0.2 5.6 0.2 11.2 0.6 16.8 0.7 3.7 0.1 7.3 1.7 11.1 0.2 1-0.4 2.6 0.3 3.9 0.5 0.5 0 1.1 0.4 1.5 0.3 5-1.7 9.8-0.3 14.6 0.5q2.7 0.5 5.4 0.8 2.8 0.2 5.5 0.2 2.7 0 5.4-0.2 2.7-0.3 5.4-0.8v-110.7c-0.9-0.1-1.6-0.1-2.3-0.2-3.1-0.4-6.3-0.5-9.2-1.4-7.5-2.1-15.5-2.4-22.9-5.1-2.7-1-6-0.6-9-1.1-11-1.8-22.1-3.9-33.1-5.6-9.3-1.4-18.8-2.5-28.1-3.8-2.2-0.3-3.6 0.1-4 2.4z"/>
		<path class="s2" d="m963.9 890.4c-16.5 0.1-33-1.5-49.5-3.1-5.2-0.5-10.6-0.5-15.9-0.8-3.5-0.1-7-0.2-10.4-0.4-3-0.2-6-0.6-9.4-0.9v98.1c1.2 0.1 2.5 0.4 3.8 0.4h40.5q8.6 0 17.1 0 0.4 0 0.9 0 0.4 0 0.9 0 0.4 0 0.9 0 0.4-0.1 0.9-0.2c2.8-0.5 5.6-1.4 8.4-1.7q1.4-0.2 2.7-0.3 1.4-0.1 2.8-0.2 1.4-0.1 2.7-0.1 1.4-0.1 2.8-0.1c5.8-0.1 10.6 0 16.5 0v-89.2c-2-0.7-2.7-0.3-4.4-0.6q-1.4-0.2-2.8-0.4-1.4-0.1-2.8-0.3-1.4-0.1-2.8-0.1-1.5-0.1-2.9-0.1z"/>
		<path class="s2" d="m785.3 877.4c-1 0-2.5 1-2.5 1.5-0.2 4.7-0.2 9.3-0.1 14 0 0.8 0.7 1.6 0.6 2.4-0.3 2.1-1 4.3-1.1 6.5q-0.5 28.4-0.7 56.9c-0.1 7.5 0 15 0 22.6 2.6 0.5 5.3 1.3 8 1.4 12.3 0.5 24.6 0.6 36.9 1 3.8 0.2 7.5 1 11.2 1.3 2.7 0.3 5.3 0 7.9 0 0.1-1 0.2-1.2 0.2-1.5v-99.2c0-2.1-2.4-3.4-4.8-3q-0.8 0.2-1.5 0.3-0.8 0.1-1.6 0.2-0.7 0-1.5 0-0.8 0-1.6-0.1c-13.1-2.1-26-6-39.6-4.4-3.2 0.4-6.5-0.1-9.8 0.1z"/>
		<path class="s2" d="m297.6 1077.6c29-3.7 58-7.5 87-11.2 2.2-0.2 2.7-1 2.6-2.8-0.4-20-0.8-40-1.1-60q0-0.1 0-0.2 0-0.1 0-0.1-0.1-0.1-0.1-0.2 0-0.1 0-0.1c-2.5-0.7-4.4-1.5-6.4-1.6-3.9-0.3-7.9-0.2-11.8-0.3-7.6-0.3-15.1-0.6-22.6-0.8-7.2-0.1-14.3-0.3-21.4 0.2-9.1 0.7-18.1 2.1-27.1 3-2.1 0.2-7.9 0.7-7.8 2.7v71.6c1.4-0.1 7.8-0.1 8.7-0.2z"/>
		<path class="s2" d="m710.4 272.2q-0.5-0.3-1.1-0.5-0.6-0.3-1.2-0.5-0.6-0.2-1.1-0.3-0.6-0.2-1.2-0.4c-6.2-0.9-12.4-2.2-18.6-2.4q-2.3-0.1-4.6 0-2.4 0.1-4.7 0.5-2.3 0.4-4.6 1-2.2 0.6-4.4 1.4c-3.2 1.3-5 3.4-5 6.7q-0.6 26.7-1.2 53.2c-0.3 12.9-0.7 25.8-1 38.7-0.1 4.3 0 8.6 0 13 1.3-0.2 2.3-0.3 3.4-0.5 1.1-0.2 2.3-0.5 3.4-0.7 0.4-4.8 1.5-6.3 4.4-6.5 4-0.1 3.5 3 4 5.6q4.8-0.4 9.7-0.5 4.8-0.1 9.7 0.1 4.9 0.2 9.7 0.7 4.9 0.5 9.7 1.3v-2c-0.4-33.9-0.8-67.7-1-101.5 0-3.4-1.3-5.2-4.3-6.4z"/>
		<path class="s2" d="m721.8 471c0-3.1-1.3-4.5-4.1-5-8.5-1.3-17-3.4-25.6-3.5-10.5-0.1-21.2 0.1-30.8 5.2q-0.2 0.1-0.4 0.2-0.2 0.1-0.4 0.1-0.2 0.1-0.4 0.1-0.2 0.1-0.4 0.1c-2.2 0.3-2.6 1.6-2.5 3.5 0 22 0 43.9 0 65.9v2.7c10.4 2.6 20.9 4.1 30.1 9.3 5.6 3 11.2 5.9 17 8.6 5.7 2.8 11.8 5.6 18.1 8.6v-4.5c-0.2-30.4-0.5-60.9-0.6-91.3z"/>
		<path class="s2" d="m945.6 995.8c-4 0.5-8.1 0.4-12.1 0.8-9.5 1-18.9 2.7-28.4 3.1-15.6 0.7-31.3 0.6-47 0.7-6 0-12-0.5-17.9-0.4-6.7 0.2-13.3-0.9-19.9 1.3-3.4 1.1-7.3 0.9-11 1.1-8.5 0.3-17 0.4-25.6 0.6-3.8 0.1-7.5 0.8-11.3 0.5-10.7-0.7-21.3 0.5-31.9 1.4q-0.5 0.1-0.9 0.2-0.5 0-1 0-0.5 0-1-0.1-0.4-0.1-0.9-0.2c-3.8-1.5-7.6-0.5-11.4-0.4-7.5 0-15 0.1-22.6-0.2-7.5-0.3-14.7-0.9-22.8-1.4 1 4.8 1.8 8.9 2.6 12.9 4.7 0 9.1 0.2 13.6-0.1 4.5-0.3 5.6 0.2 5.9 4.4 0.2 3.3 0 6.6 0 10.1 5.3-0.6 10.5-1.2 15.7-1.7 11.5-1.2 23.1-2.1 34.6-3.3 14.4-1.6 28.8-3.4 43.2-5 17.1-2 34.1-4.2 51.2-5.9 14.1-1.4 28.2-2.4 42.3-3.5 7.7-0.6 15.5-0.7 23.1-1.7 14-1.9 27.8-4.1 41.7-6.5 6.2-1.1 12.4-3.1 18.6-4.5 2.6-0.6 4.3-0.5 7.1-0.9v-5.5c-4.4 0.4-7.5 0.9-11.6 1.4-7.4 0.9-14.8 2-22.3 2.8z"/>
		<path class="s2" d="m645.9 459.4q0.4 0.6 0.9 1.2 0.5 0.7 1 1.3 0.6 0.6 1.1 1.1 0.6 0.6 1.1 1.1c4.3-6.1 10.5-8.2 17-9.8q5-1.2 10.2-1.9 5.1-0.8 10.3-1 5.1-0.2 10.3 0 5.2 0.3 10.3 1c7.5 1.1 15.1 2.4 20.9 8.5 2.4-2.6 4.6-5.2 7.1-7.6 4.5-4.4 6-9.8 6.5-15.6q0-0.2 0-0.5 0-0.3-0.1-0.5-0.1-0.3-0.2-0.5 0-0.3-0.2-0.5c-0.5-1.1-1.1-2.2-1.7-3.3-0.5-1.1-0.8-2.2-1.6-2.8-3.2-2.6-19.2-11.8-44.6-11.8-26.3-0.2-29 2.2-39.2 5-4.8 2.2-10 3.7-14 7.5q-0.8 0.7-1.4 1.5-0.5 0.8-0.9 1.7-0.4 1-0.5 1.9-0.2 1-0.1 2c1.4 7.6 3.6 15.2 7.8 22z"/>
		<path class="s2" d="m639 396q-0.6 0.7-1.2 1.5-0.5 0.7-1 1.5-0.4 0.9-0.7 1.7-0.4 0.9-0.6 1.8c-0.6 2.1-0.3 4.5-0.2 6.7 0.2 6.5 0.5 13 0.7 20.2 1.9-1 4.8-4 11.4-7.1 7-4.2 23.6-8.1 39.4-8.1q5.7-0.3 11.3 0 5.7 0.2 11.3 1.1 5.6 0.8 11.1 2.2 5.5 1.5 10.8 3.4c5.4 2.2 8.1 4.1 12.2 7-0.3-8-0.7-15.6-0.8-23.1 0-7-4.1-11.2-10.4-13.8q-1.3-0.5-2.6-1-1.2-0.5-2.5-1-1.3-0.4-2.6-0.8-1.3-0.5-2.6-0.8-8.1-2.1-16.5-3.1-8.3-0.9-16.7-0.9-8.3 0.1-16.7 1.2-8.3 1.2-16.4 3.3c-6.2 1.6-12.2 3.7-16.7 8.1z"/>
		<path class="s2" d="m299.7 560.1l0.7 0.4q1.1 0.6 2.1 1 1.1 0.5 2.2 0.9 1.1 0.4 2.2 0.7 1.1 0.3 2.3 0.5c0.9 0.3 1.9 0.5 2.8 0.8q0.6 0.1 1.1 0.2 0.6 0.2 1.2 0.3 0.6 0.1 1.1 0.2 0.6 0.1 1.2 0.2l2.1 0.4q0.6 0.1 1.3 0.3 0.6 0.2 1.2 0.4 0.7 0.2 1.3 0.5 0.6 0.2 1.2 0.5c3.5 1.5 7.1 3 11.4 1.2q0.1 0 0.1 0 0.1-0.1 0.2-0.1 0.1 0 0.1 0.1 0.1 0 0.2 0c3.8 3 8.4 3.6 12.9 4.2q0.3 0.1 0.7 0.1 0.3 0.1 0.7 0.2 0.3 0.1 0.7 0.2 0.3 0.1 0.6 0.2 0.4 0.1 0.7 0.2 0.4 0.1 0.7 0.2 0.3 0.1 0.7 0.2 0.3 0 0.7 0.1c3.7 0.6 8 1.2 12.2 1.5q1.1 0.1 2.2 0.2 1 0.2 2.1 0.4 1.1 0.3 2.1 0.6 1 0.4 2 0.8 0.6 0.3 1.2 0.4 0.7 0.2 1.3 0.3 0.7 0 1.3 0.1 0.7 0 1.4-0.1 0.3 0 0.7 0 0.3 0 0.7 0 0.3 0 0.7 0 0.4 0 0.7 0c1.7 0.2 3.4 0.5 5 0.8q1.8 0.3 3.6 0.5c1.5 0.2 3 0.4 4.4 0.5q1.8 0.2 3.7 0.5 0.4 0 0.9 0.1 0.4 0 0.9 0.1 0.5 0.1 0.9 0.2 0.5 0.1 0.9 0.2 0.9 0.2 1.8 0.5c2.6 0.8 5.2 1.7 8.3 0.3q0.6-0.3 1.4-0.3 0.7 0 1.3 0.2 0.7 0.3 1.3 0.7 0.5 0.5 0.8 1.2 0.2 0.3 0.4 0.5 0.2 0.3 0.4 0.5 0.3 0.3 0.6 0.4 0.2 0.2 0.6 0.4 0.5 0.1 1 0.2 0.5 0.1 1.1 0.2 0.5 0 1 0.1 0.6 0.1 1.1 0.1l1.6 0.2 0.5 0.1v-2.5q0.1-0.7 0.1-1.4 0-0.6 0-1.3-0.1-0.7-0.1-1.3-0.1-0.7-0.2-1.3c-0.2-1.4-2.8-2.4-3.3-2.6q-0.3-0.1-0.6-0.1-0.3-0.1-0.6-0.1-0.3-0.1-0.6-0.1-0.3 0-0.6 0-0.2 0-0.4 0-0.2 0-0.3 0-0.2 0-0.4 0-0.2 0-0.4 0-2.4-0.4-4.8-0.8c-2.6-0.5-5.4-1-8.2-1.2-4-0.5-4.5-0.7-5.4-4.2-0.7-2.6-2.3-3.5-4.8-2.8l-2.2 0.5q-0.8 0.2-1.6 0.4-0.8 0.2-1.7 0.4-0.8 0.2-1.6 0.3-0.8 0.2-1.7 0.3c-2.7 0.4-4.4 0.5-5.1-0.2-0.7-0.6-0.8-2.1-0.6-4.7q0-0.1 0-0.1 0-0.1 0-0.2-0.1-0.1-0.1-0.1 0-0.1-0.1-0.2v-0.1l-0.1-0.2-1.7-0.5q-1.7-0.5-3.5-1l-2-0.6q-0.8-0.2-1.6-0.5-0.8-0.2-1.5-0.5-0.8-0.2-1.5-0.5-0.8-0.3-1.6-0.6-0.3-0.1-0.6-0.3-0.3-0.3-0.5-0.5-0.3-0.3-0.4-0.6-0.2-0.3-0.3-0.7c0-2.3-1-3.4-3.5-3.5q-0.2 0-0.3-0.1-0.2 0-0.4 0-0.1-0.1-0.3-0.1-0.2-0.1-0.3-0.2-0.5-0.1-1-0.3l-6-1.5c-5.2-1.3-10.7-2.6-16.1-3.8-2.3-0.5-4.6-0.8-7-1.1-1.9-0.3-3.9-0.5-5.8-0.9q-3.5-0.7-3.4-4.5 0-0.5 0-0.9 0-0.5 0-0.9-0.1-0.4-0.1-0.9 0-0.4-0.1-0.9c0-0.5 0-1.1-0.1-1.7v-0.6l-0.5 0.2-2.7 0.6c-1.9 0.5-3.6 1-5.4 1.3-2.5 0.5-3.5-0.2-4.1-2.6q-0.1-0.4-0.2-0.8-0.2-0.3-0.4-0.7-0.2-0.3-0.5-0.6-0.3-0.3-0.6-0.5c-4.7-2.4-12.8-3.5-18-3v30.1l3.5 0.5c3.1-1.8 5-0.6 7.4 0.8z"/>
		<path class="s2" d="m746.8 716.6c0.4 0 0.6-1 1.2-1.8-2.7-0.6-5.2-1.1-7.6-1.8-8.9-2.6-17.7-5.6-26.7-7.7-24.1-5.6-48.3-10.7-72.5-16.1-13.2-2.9-26.3-6-39.5-8.9-3.9-0.8-7.8-1.8-11.7-1.7q-2 0.1-4.1 0.3-2 0.2-4 0.5-2 0.2-4 0.6-2 0.3-4 0.8c-7.9 1.4-15.7 3.6-23.7 4.7-19.4 2.8-38.1 8-56.7 13.3-15 4.3-30.3 6.6-45.5 9.3-3.6 0.6-7.2 1-11.2 1.5 0.9 2.4 1.6 4.4 2.5 7 11.6-2.4 23-4.4 34.2-7.1 16.3-3.8 32.5-8.2 48.8-12q26.4-6 53-11.2 2.1-0.3 4.1-0.6 2-0.2 4.1-0.4 2-0.1 4.1-0.2 2.1 0 4.1 0c2.3 0 4.5 1.4 6.8 1.9 9.7 2 19.3 3.7 28.9 5.7 7.8 1.6 15.6 3.4 23.4 4.9 8.7 1.6 17.5 2.6 26.1 4.6 16.5 3.8 32.9 8 49.2 12.1q5.4 1.3 10.6 3.1c3.4 1.2 6.8-0.4 10.1-0.8z"/>
		<path class="s2" d="m736.5 670.3l0.1-0.6-298.4-8.9-0.8 1.4 0.4 0.3q0.3 0.2 0.6 0.4 0.4 0.2 0.7 0.5 0.3 0.2 0.6 0.4 0.3 0.3 0.6 0.5c1.9 1.5 3.8 3.1 6.7 3.2l15 0.5q11.2 0.4 22.4 0.8 23.7 0.7 47.5 1.4l90.5 2.8 48.8 1.5q17.2 0.5 34.4 0.9l22.7 0.7h0.5c4.2 0 6.5-1.7 7.7-5.8z"/>
		<path class="s2" d="m668.9 247c-1 4.8-1.9 9.6-2.8 14.6 16.5-5.4 32.6-5.6 48.9-0.2q0-0.1 0.1-0.2 0-0.1 0-0.2 0-0.2 0-0.3 0-0.1 0-0.2c-2.2-9.4-4.4-18.7-6.7-28.1q-0.1-0.3-0.2-0.6-0.1-0.3-0.3-0.5-0.2-0.3-0.4-0.6-0.2-0.2-0.5-0.4c-7.2-6.7-15.8-8.1-25.2-5.2-5.3 1.7-9.6 4.7-10.7 10.4-0.7 3.9-1.5 7.7-2.2 11.5z"/>
		<path class="s2" d="m589.9 638.4l0.1 0.4h29.2l-7-46.9h-24.2v9.4c0 12.1-0.1 24.6 1.9 37.1z"/>
		<path class="s2" d="m586.3 638.4l-1.5-47.4h-25.5v0.5c-0.1 5.5-0.5 11.1-0.8 16.5-0.5 9.3-1.1 18.8-0.5 28.3v0.4z"/>
		<path class="s2" d="m288.8 570.7v10.6l3.4 0.3 1.2 0.2c1 0.1 1.8 0.2 2.7 0.3q2 0.2 4 0.5 2 0.2 4 0.7 2 0.4 4 1 1.9 0.6 3.8 1.3c7.7 3.2 16.6 6.8 25.6 9.9q1.6 0.5 3.3 1 1.7 0.4 3.3 0.7 1.7 0.4 3.4 0.6 1.8 0.3 3.5 0.4c2.5 0.3 5 0.4 7.5 0.6 6.4 0.5 12.9 0.9 19.2 2.6h0.1c3.1 0.9 5.8 1.6 6.5 5.1q0 0.3 0.1 0.6 0.1 0.2 0.2 0.5 0.2 0.3 0.4 0.5 0.2 0.2 0.4 0.4 0.2 0.1 0.4 0.2 0.2 0 0.4 0.1 0.2 0 0.4 0.1 0.2 0 0.4 0 0.2 0 0.4 0 0.2-0.1 0.4-0.1 0.2 0 0.4-0.1 0.2 0 0.4-0.1c4.7-1.3 9.6-2.5 14.2-3.7l5.5-1.4 4.9-1.2 2.3-0.6v-1.1z"/>
		<path class="s2" d="m633.6 593.3c-4.5-0.4-9-0.7-13.6-1.1l-4.3-0.3v1.7q0 0.2 0 0.4 0 0.2 0 0.4 0 0.2 0 0.4 0 0.3 0 0.5 0.3 2.2 0.5 4.5c0.6 4.2 1 8.5 1.8 12.7 1.2 7.8 2.6 15.5 4.3 24.6 0.2 0.9 1.2 2.4 2.2 2.5 6.4 0.7 12.7 1.2 19.4 1.7l5.7 0.5-0.1-0.6q0-0.1 0-0.2 0-0.1 0-0.2 0-0.1 0-0.2-0.1-0.1-0.1-0.2 0-0.1 0-0.3 0-0.1 0-0.2 0-0.1-0.1-0.2 0-0.1 0-0.2c-4.5-14.6-9.2-29.7-13.9-44.5q-0.1-0.3-0.3-0.6-0.1-0.3-0.4-0.5-0.2-0.2-0.5-0.3-0.3-0.2-0.6-0.3z"/>
		<path class="s2" d="m673.2 596.5q-1.6-0.2-3.2-0.5c-2.6-0.5-5.4-1-8.4 0.1l-0.4 0.1 0.4 1.4c0.1 0.7 0.3 1.3 0.4 2q1 3.4 1.9 6.8c1.5 5.4 3 11 4.7 16.5 1.7 5.4 3.9 11 6.1 16.4q0.6 1.8 1.4 3.6 0.1 0.4 0.4 0.7 0.2 0.3 0.6 0.6 0.3 0.2 0.7 0.4 0.3 0.2 0.7 0.3c6.3 0.5 12.5 0.9 19.1 1.3l6.4 0.4-0.5-0.8-0.6-1c-0.3-0.6-0.7-1.1-1-1.7q-1.6-2.7-3.2-5.6c-2.5-4.3-5.1-8.8-7.3-13.4q-1-2.3-2-4.6-1.1-2.3-2-4.7-0.9-2.3-1.8-4.7-0.8-2.4-1.6-4.8c-1.8-5.6-5.2-8.4-10.8-8.8z"/>
		<path class="s2" d="m552 590.1c-4.6 0.5-9 1-13.3 1.5-0.9 0.1-1.7 1.3-1.8 2-2.3 11.5-4.5 23.2-6.7 34.6l-1.4 7.1 26.1 1.1 1.5-46.8z"/>
		<path class="s2" d="m297.3 570l110.4 26 12.1 2.8 0.2 0.1q0.2 0 0.4 0.1 0.1 0 0.3 0.1 0.2 0 0.4 0 0.2 0 0.3 0 0.2 0 0.3 0 0.2 0 0.3-0.1 0.1 0 0.3-0.1 0.1 0 0.2-0.1 0.2-0.2 0.3-0.3 0.1-0.2 0.2-0.5 0.1-0.2 0.1-0.4 0.1-0.2 0.1-0.5v-8.9l-0.6 0.1c-3.4 0.7-5.6-0.3-7.1-3-0.4-0.6-1.9-0.7-2.5-0.4q-0.8 0.3-1.7 0.5-0.9 0.2-1.7 0.2-0.9 0-1.8-0.2-0.9-0.2-1.7-0.5-0.8-0.4-1.7-0.6-0.8-0.3-1.7-0.5-0.9-0.2-1.8-0.3-0.9-0.1-1.8-0.1c-3.4 0.3-6.3-0.5-9.8-1.6q-0.5-0.1-1.1-0.2-0.6-0.1-1.2-0.2-0.6-0.1-1.2-0.2-0.5 0-1.1 0-0.2 0-0.4 0-0.2 0-0.4-0.1-0.2 0-0.4 0-0.2 0-0.4 0c-1.1-0.2-2.3-0.2-3.4-0.2-2.4 0-4.8-0.1-6.7-0.9q-0.7-0.3-1.5-0.5-0.7-0.3-1.4-0.5-0.7-0.1-1.5-0.3-0.7-0.1-1.5-0.1-0.7-0.1-1.4-0.2-0.7-0.1-1.4-0.3-0.7-0.2-1.4-0.4-0.7-0.2-1.3-0.5l-0.2-0.1h-0.1c-4 0.8-8-0.2-11.8-1.2q-1-0.4-2.1-0.6-1.1-0.3-2.2-0.5-1.2-0.2-2.3-0.3-1.1-0.1-2.2-0.2-0.1 0-0.2 0-0.1 0-0.2-0.1-0.1 0-0.1 0-0.1-0.1-0.2-0.1c-2.1-2.1-4.6-2.1-7.1-2.2q-0.4 0-0.7 0-0.3 0-0.7 0-0.3-0.1-0.6-0.1-0.4 0-0.7 0-1-0.2-2-0.4-1-0.2-2-0.5-1-0.3-1.9-0.6-1-0.3-2-0.7c-1.3-0.5-2.8-1-4.2-1.4-1.1-0.3-2.3-0.5-3.4-0.8-1.2-0.2-2.2-0.4-3.2-0.7-3.4-0.9-6.9-2-10.2-3l-1.8-0.5q-0.1 0-0.2-0.1 0 0-0.1-0.1-0.1-0.1-0.2-0.1 0-0.1-0.1-0.2c-1.8-2.4-4.2-2.6-6.9-0.7l-3.1 1v5.2c0 0 2.6 0.5 8.3 1.8z"/>
		<path class="s2" d="m895.7 709.3l0.5-0.6-1.6-0.4q-0.9-0.3-1.8-0.5c-49.3-12.3-100.3-25-150.5-37.5q-0.3-0.1-0.6-0.1-0.4 0-0.7 0.1-0.3 0.1-0.6 0.3-0.3 0.1-0.6 0.3c-0.9 1.1-1.7 2.2-2.6 3.4l-1.1 1.5-0.4 0.6 0.6 0.2 1.1 0.4q0.3 0.1 0.6 0.2 0.2 0.1 0.5 0.2 0.2 0.1 0.5 0.2 0.3 0.1 0.6 0.1 16.2 3.8 32.5 7.6l29.4 6.8c27.8 6.5 56.5 13.2 84.8 19.8q0.4 0.1 0.8 0.2 0.4 0.1 0.8 0.1 0.4 0.1 0.8 0.1 0.4 0 0.8 0 0.9 0 1.7-0.1 0.9-0.2 1.7-0.6 0.9-0.4 1.6-1 0.7-0.6 1.2-1.3z"/>
		<path class="s2" d="m518.3 592.4q-0.6 0-1.1 0.2-0.6 0.2-1 0.5-0.5 0.4-0.8 0.9-0.3 0.4-0.4 1c-2 6.6-4.5 14.4-7.1 22.3-1.3 4-2.7 7.9-4 11.7l-1.6 4.5q-0.2 0.7-0.5 1.3l-0.4 1-0.2 0.6 0.6 0.1q0.7 0.1 1.4 0.1 0.7 0.1 1.4 0.2 0.7 0 1.4 0 0.6 0.1 1.4 0.1 1 0 2.1-0.1 1.1 0 2.2-0.1 1.1-0.1 2.2-0.2 1.1-0.1 2.2-0.2 1.2-0.2 2.4-0.3 1.1-0.1 2.3-0.2 1.2 0 2.4-0.1 1.1 0 2.3 0h0.4l8.4-44.4-5.2 0.3c-3.7 0.3-7.2 0.6-10.8 0.8z"/>
		<path class="s2" d="m770.8 674.6l11.1 2.9 12.8 3.1 9.6 2.4-4-2q-1.1-0.5-2.3-1-1.2-0.5-2.3-1-1.2-0.4-2.4-0.8-1.2-0.4-2.4-0.8-21-6.3-42-12.5l-10-3c-3.2-1-6.8-1.6-10 1-1.8 1.3-3.7 1.4-5.9 1.3-15.1-0.6-26.8-1-37.8-1.4-11-0.4-21.7-0.7-32.6-1.1l-99.2-3.2q-22-0.7-44-1.4-19-0.6-37.9-1.1l-20.7-0.6c-1.3 0-2.7 0-4.1-0.1q-1.3 0-2.6 0-1.3-0.1-2.6-0.1-1.3-0.1-2.6-0.2-1.3-0.1-2.6-0.2-1-0.2-2.1-0.2-1 0-2 0.2-1 0.2-2 0.5-0.9 0.4-1.8 0.9-0.3 0.2-0.5 0.2-0.3 0.1-0.5 0.2-0.3 0.1-0.6 0.1-0.2 0.1-0.5 0.1-0.1 0-0.2 0-0.1 0-0.3 0-0.1 0.1-0.2 0.1-0.1 0-0.2 0l-11.1 2.3q-14.2 2.8-28.3 5.8-0.2 0.1-0.5 0.1-0.2 0.1-0.4 0.2-0.3 0.1-0.5 0.2-0.2 0.1-0.4 0.2-0.4 0.2-0.8 0.3l-0.4 0.2 0.6 1.5h0.6q0.1 0 0.2 0 0.1 0 0.2 0 0.1 0 0.3 0 0.1 0 0.2 0 4.1-0.9 8.3-1.7c5.9-1.3 12-2.5 18.1-3.6 2.8-0.4 5.7-1.1 8.4-1.7 6.8-1.5 14-3 21.3-2.4 7.8 0.7 15.7 0.8 23.4 0.9q5 0.1 10 0.3l69.9 2 73.2 2.2 49.3 1.5q13.6 0.4 27.2 0.7 16 0.4 32 0.9c1.3 0 2.8 0 4.1 0.1q1.5 0 3 0 1.5 0 3 0.1 1.5 0.1 3 0.3 1.5 0.2 3 0.5c9.5 2 19.1 4.4 28.5 6.8z"/>
		<path class="s2" d="m638.1 594.1l1.2 3.9q1 3.4 2 6.5 1.5 4.6 3 9.2c2.3 7.2 4.7 14.5 6.8 21.9 1.1 3.9 2.2 7.6 8 6.9q0 0 0.1 0 0 0 0 0 0.1 0 0.1 0.1 0 0 0.1 0l0.4 0.1 10.3 1.5 2.3 0.4-8.5-28.5-5.6-18.7z"/>
		<path class="s2" d="m467.5 596.3c-3.8 0.7-7.4 1.4-11.1 1.9q-0.7 0-1.3 0.3-0.7 0.2-1.2 0.6-0.6 0.4-1 0.9-0.4 0.6-0.7 1.2-2 4.6-4.2 9.1-2.1 4.4-4.4 8.9-2.3 4.4-4.8 8.7-2.5 4.3-5.1 8.6c-0.8 1.2-1.5 2.6-2.1 3.7l-0.8 1.4-0.4 0.7h7.7c1.7 0 3.4 0 5.1-0.1 0.7 0 3.3-0.2 4.5-1.5 11.3-11.3 19.3-25.5 25.2-44.7l0.3-0.8-0.8 0.2z"/>
		<path class="s2" d="m734 719.8c-10.5-2.6-20.6-5.1-30.7-7.5-14.1-3.3-28.2-6.5-42.4-9.5-18.6-3.9-37.4-7.5-56.1-11.3-4.6-0.9-9.2-2.1-13.8-3.2-1 5.4-0.4 6.2 4.9 7.3 0.3 0.1 0.6 0.2 0.8 0.2 10.1 2 20.2 4 30.2 6.1l48.5 10q20.1 4.2 40.1 8.4c3.3 0.7 6.4 1.8 9.6 2.4 3.3 0.5 6.4 1 8.9-2.9z"/>
		<path class="s2" d="m703.1 1001.3h0.4l0.1-0.4c1.5-6.1 1-11.5-1.6-15.9l-0.1-0.3h-2.6q-0.5 0-1 0.1-0.5 0-1 0-0.5-0.1-1.1-0.1-0.5 0-1 0c-1.3-0.1-2.6-0.3-3.8-0.5q-0.7-0.1-1.4-0.2-0.7-0.1-1.4-0.2-0.6 0-1.3-0.1-0.7 0-1.4-0.1c-5.2-0.1-10.4-0.2-15.5-0.2q-5.5 0-10.9-0.1-0.4 0-0.7-0.1-0.3 0-0.7 0-0.3 0-0.6-0.1-0.4 0-0.7-0.1-0.4 0-0.8-0.1-0.5 0-0.9-0.1-0.4 0-0.8 0-0.5 0-0.9 0c-0.9 0-2.8 1.1-2.8 2.1-0.1 3.1-0.1 6.2-0.1 9.5v3.9h4.5c2.8 0 5.8-0.1 8.6 0.1 9.5 0.6 19.2 1.4 28.5 2z"/>
		<path class="s2" d="m761 651.4q-2.1-2.4-4.1-5-1.9-2.5-3.6-5.2-1.7-2.7-3.2-5.6-1.6-2.8-2.8-5.8-0.9-1.9-1.8-3.7-1-1.9-2-3.7-1-1.9-2-3.7-1.1-1.7-2.2-3.5-1.4-2.2-2.7-4.4-0.3-0.4-0.7-0.8-0.4-0.4-0.8-0.7-0.4-0.3-0.9-0.5-0.5-0.3-1-0.4c-2.6-0.7-5.2-1.2-7.8-1.8l-3.2-0.6-2.4-0.6-1.7-0.4 0.4 0.9q1.9 4.4 3.9 8.8c3.1 6.8 6.3 14 9.6 20.9q0.8 1.4 1.5 2.8 0.8 1.4 1.6 2.8 0.8 1.4 1.7 2.8 0.8 1.3 1.7 2.7c0.6 0.9 1.2 1.7 1.7 2.6 2.6 4.2 7.2 5.1 11.7 5.6q0.5 0.1 1.1 0.1 0.5 0 1 0.1 0.5 0 1 0 0.6 0 1.1 0c1.1 0 2.2 0 3.3 0q1.7-0.1 3.5-0.1h1l-1.4-1.6c-0.4-0.7-1-1.4-1.5-2z"/>
		<path class="s2" d="m583.1 552.5c-2.1-0.3-4.1-0.6-6.1-0.7-2-0.2-4-0.1-6.2-0.1h-3.5l-8 36.3 26.3 0.9 0.9-36h-0.4z"/>
		<path class="s2" d="m677.3 204.5c-1.3 6.8-2.7 13.7-4.1 20.7 11.5-6.9 23.3-6 33.6-0.3-2.7-10.8-5.1-21-7.9-31.2-0.3-1.2-2-2.5-3.4-3q-0.7-0.2-1.5-0.3-0.7-0.2-1.5-0.3-0.7-0.1-1.5-0.1-0.7 0-1.5 0.1c-6.5 0.3-9.9 3.2-11.2 9q-0.5 2.7-1 5.4z"/>
		<path class="s2" d="m507.6 593.5q-1.2 0.1-2.5 0.1-1.2 0-2.4 0-1.2 0-2.4-0.1-1.2 0-2.4-0.1c-2.5-0.2-3.6 0.4-4.2 2.5-0.7 2.1-1.4 4.1-2.2 6.2-1 3-2.1 6-3 9.1-2.4 8.1-6.2 16.5-12 26.3l-0.4 0.7h3q0.1 0 0.3 0 0.1 0 0.3 0 0.1 0 0.2 0 0.2 0 0.3 0c1.4-0.2 2.8-0.4 4.1-0.6q1-0.2 2.1-0.4 1-0.1 2.1-0.2 1-0.2 2.1-0.2 1-0.1 2.1-0.1c4 0 6.2-1.4 7.3-4.8q0-0.1 0-0.1 0.1-0.1 0.1-0.2 0-0.1 0.1-0.2 0 0 0.1-0.1 0-0.1 0-0.2 0.1-0.1 0.1-0.2 0.1-0.1 0.1-0.2 0-0.1 0.1-0.2 1.7-5.3 3.3-10.6 2.5-7.9 5-15.7c0.7-2.2 1.5-4.4 2.3-6.7q0.5-1.7 1.1-3.4l0.2-0.6h-0.6c-1.5 0-3 0-4.3 0z"/>
		<path class="s2" d="m477.1 831.8c-6-8.5-15.2-14-23.2-20.5-1.2-1-2.2-1-3.6-0.1q-3.2 2-6.2 4.3-3 2.4-5.6 5.1-2.7 2.6-5 5.6-2.3 3-4.2 6.3c-1.2 2-2.7 4-4 6q-3.3 5-6.5 10.2-0.1 0.1-0.1 0.2 0 0.1 0 0.3 0 0.1 0 0.2 0 0.2 0 0.3c0.5 3.8 1 7.6 1.6 11.3h6.5c0.1-0.6 0.1-1 0.2-1.4 0.6-4.4 0.8-9 2-13.3 3.2-10.8 10.7-18.8 20.2-25.2q0.4-0.3 1-0.5 0.5-0.2 1.1-0.2 0.6-0.1 1.1 0 0.6 0 1.1 0.2c10.2 4.3 18.4 10.7 22.3 20.8 2.2 5.7 3.8 11.6 5.8 17.6 4.5-0.3 5-0.7 4-5q-0.3-1.6-0.7-3.2-0.3-1.6-0.7-3.2-0.4-1.5-0.9-3.1-0.5-1.6-1-3.1-0.5-1.3-1-2.5-0.6-1.3-1.3-2.5-0.6-1.2-1.3-2.3-0.8-1.2-1.6-2.3z"/>
		<path class="s2" d="m737 1001.2q0.3 0.2 0.6 0.4 0.3 0.1 0.6 0.2 0.4 0.1 0.7 0.2 0.4 0 0.7-0.1 0.3 0 0.6 0 0.2 0 0.5 0 0.3 0 0.5 0 0.3 0 0.6-0.1 0.1 0 0.1 0 0.1 0 0.2 0 0.1 0 0.2 0 0.1 0 0.1-0.1 0.1 0 0.2 0 0.1 0 0.2 0 0.1 0 0.2 0 0 0 0.1 0l7-0.4c5.7-0.4 11.5-0.7 17.2-0.9 4.7-0.1 9.4-0.1 14-0.1h6.1l0.1-0.2c2.1-3.4 1.3-6.3 0.6-8.9q-0.2-0.5-0.3-1-0.2-0.4-0.2-0.9-0.1-0.5-0.2-1 0-0.5 0-1c0-1-2-2.2-3-2.5q-0.6-0.1-1.2-0.1-0.5-0.1-1.1-0.2-0.6 0-1.1 0-0.6 0-1.1 0.1-2.7 0.2-5.4 0.4c-2.4 0.2-5 0.4-7.6 0.4-4.9 0.2-9.8 0.3-14.6 0.4q-6.2 0.1-12.4 0.2c-0.6-0.1-1.3 0-1.9 0.2-0.6 0.2-1.2 0.6-1.6 1.1-0.4 0.5-0.6 1.1-0.7 1.8-0.2 0.6-0.1 1.3 0.2 1.9q0.1 0.7 0.1 1.5 0.1 0.7 0.1 1.4 0.1 0.7 0.1 1.5 0 0.7-0.1 1.4c0 2.5 0.1 3.7 0.9 4.4z"/>
		<path class="s2" d="m333.6 867.8l-25.3 2.5 1.7 29.9h23.6v-32.4z"/>
		<path class="s2" d="m331.2 996.1c2.3-9.4 2-19.1 1.6-29.3v-0.9l-23.7 2.2v31.4l22-3.1z"/>
		<path class="s2" d="m589.4 553.7l-1.1 35.4h24.4l-6.9-36.1-16.4 0.7z"/>
		<path class="s2" d="m332.2 963.5v-32.3l-22.1 1.9-1.3 32.6 23.4-2.2z"/>
		<path class="s2" d="m487.8 594.1q-0.6 0.2-1.3 0.4-0.7 0.2-1.4 0.3-0.7 0.1-1.4 0.2-0.7 0-1.4 0c-5-0.1-6.9 2.4-8.4 6.6-2.7 8.4-6.5 18.2-12.8 27-1.9 2.6-3.8 5-5.8 7.5-1 1.2-1.9 2.4-2.9 3.6l-0.7 0.9 1.1-0.1 5-0.5c4.2-0.4 8.2-0.8 12.2-1.1q0.5 0 1.1-0.2 0.6-0.2 1.1-0.5 0.4-0.3 0.8-0.7 0.4-0.4 0.7-0.9c6.9-10.3 10.5-21.4 14.4-33.2 1-3.1 2.1-6.3 3.2-9.5l0.3-0.8-0.9 0.2q-1.5 0.4-2.9 0.8z"/>
		<path class="s2" d="m431.2 607.1q-0.5 0.9-1.1 1.8-2.3 4.1-4.6 8.2c-3.7 6.4-7.5 13.1-11.4 19.6q-0.4 0.7-0.9 1.5-0.5 0.7-1 1.4-0.5 0.7-1.1 1.4-0.5 0.7-1 1.4c-0.8 0.9-1.5 1.8-2.3 2.9l-0.6 0.8 1-0.1h1.2q0.2 0 0.4-0.1 0.2 0 0.5 0 0.2 0 0.4 0 0.2 0 0.4-0.1 1.9-0.2 3.7-0.4c2.7-0.4 5.5-0.7 8.3-0.9q0.6 0 1.3-0.2 0.6-0.1 1.2-0.5 0.5-0.3 1-0.8 0.4-0.5 0.7-1.1c1.1-1.8 2.2-3.8 3.3-5.6 1.8-3.1 3.7-6.2 5.4-9.4 3.3-6.2 6.5-12.4 9.9-18.9l4.2-8 0.4-0.8h-3.9c-2 0-3.8 0-5.6 0-4.1-0.3-6.5 1-7.8 4.2q-0.2 0.5-0.4 1-0.2 0.5-0.5 0.9-0.2 0.5-0.5 0.9-0.3 0.5-0.6 0.9z"/>
		<path class="s2" d="m774.5 830c-1.7-2.1-4.2-3.6-6-5.7-2.1-2.3-3.8-1.7-6.1-0.2-14.2 9-22.2 21.5-24.6 37.3-0.3 2-0.4 4.1-0.6 6.3l3.5 0.2c0.6-2.5 1-4.8 1.7-7 0.9-2.9 2.3-5.6 3.2-8.5 2.3-7.1 6.9-12.7 12.5-17.7q0.4-0.4 0.9-0.7 0.4-0.3 0.9-0.6 0.4-0.2 0.9-0.5 0.5-0.2 1-0.4 0.2-0.2 0.5-0.2 0.3-0.1 0.5-0.1 0.3-0.1 0.6 0 0.2 0 0.5 0.1c3.4 2.5 7.2 4.9 10.1 7.8 8.4 8.5 12.1 18.8 12.6 30.2 0 1.4 0.4 2.7 0.5 4.2 4.6 0.3 5.1 0 5.4-3.8q0-1 0-2 0-1.1 0-2.1-0.1-1-0.2-2.1-0.1-1-0.2-2c-2.1-12.7-9.7-22.7-17.6-32.5z"/>
		<path class="s2" d="m725.4 650.4c1.8 0 3.6 0.1 5.4 0.1h6.8l-0.6-0.8c-4-4.6-6.3-10.2-8.5-15.5-0.9-2.1-1.8-4.2-2.8-6.3-2.7-5.7-5.7-11.4-8.7-16.9l-2.1-4.1q-0.2-0.4-0.4-0.7-0.3-0.3-0.6-0.6-0.3-0.3-0.7-0.5-0.3-0.2-0.7-0.3c-3-0.6-6-0.9-9-1.4l-3.2-0.4-0.8-0.2 0.3 0.8q0 0 0 0.1 0 0 0 0 0 0.1 0 0.1 0 0.1 0.1 0.1 0 0.1 0 0.3 0.1 0.1 0.1 0.2 0.1 0.1 0.1 0.3 0.1 0.1 0.2 0.2c5 8.9 8.4 18.1 12 29.3 2.2 6.7 7 11.6 10.9 15q0.2 0.3 0.4 0.5 0.3 0.2 0.6 0.3 0.3 0.2 0.6 0.3 0.3 0.1 0.6 0.1z"/>
		<path class="s2" d="m679 1013.7c-0.4-1.6-0.8-3-1-4.4q0-0.3-0.1-0.6 0-0.2 0-0.5-0.1-0.2-0.1-0.5 0-0.3 0-0.5c-0.1-1.6-0.2-3.3-1.2-4.1-1.1-0.9-2.4-0.9-4-0.9q-0.4 0-0.7-0.1-0.4 0-0.7 0-0.4 0-0.7-0.1-0.4-0.1-0.7-0.1c-6.9-2-13.9-1.6-20.7-1.1q-1.4 0.1-2.9 0.2-1.4 0-2.9 0.1-1.4 0-2.8 0-1.5 0-2.9 0-0.3 0-0.6 0-0.3 0-0.6 0-0.3 0.1-0.6 0.1-0.3 0.1-0.5 0.2-0.4 0.1-0.7 0.1l-0.4 0.1v16.8l0.5-0.1 4.6-0.6c3.1-0.4 6.1-0.8 9.1-1 5.7-0.4 10.8-0.6 15.6-0.6 3.3 0 6.6 0.2 10.1 0.5l5 0.3h0.7l-0.2-0.7q-0.3-1.3-0.6-2.5z"/>
		<path class="s2" d="m593.8 1021.2l2.7-0.6q0.8-0.2 1.6-0.4 0.7-0.1 1.5-0.3 0.7-0.1 1.5-0.2 0.8-0.1 1.5-0.2l2-0.3q1.1-0.2 2.3-0.3 1.1-0.1 2.2-0.1 1.1-0.1 2.3 0 1.1 0 2.2 0.1c4.2 0.8 8.2 0 12-0.6 1.8-0.3 3.6-0.6 5.4-0.8h0.4v-16.3l-39.7 1.5 1.5 18.6z"/>
		<path class="s2" d="m733 690.1c-0.1-3.1-0.3-6.1-0.4-9-0.1-2-1.5-2.3-2.8-2.3-2.6 0-5.2-0.2-7.7-0.2-2.7-0.1-5.5-0.3-8.3-0.3-4.6 0-9.4 0-14 0h-6.3v16.8h39.7z"/>
		<path class="s2" d="m643.4 558.2q-0.2-0.4-0.4-0.8-0.3-0.4-0.6-0.7-0.3-0.3-0.7-0.6-0.3-0.2-0.7-0.4c-2.9-0.8-5.8-1.4-8.8-2.1l-3.5-0.8-0.7-0.2 1.8 7.6c1.1 4.8 2.1 9.3 3.2 13.8l0.3 1.3c1 4.5 2.2 9.3 3.4 13.9q0.1 0.3 0.3 0.7 0.2 0.3 0.5 0.6 0.3 0.3 0.6 0.5 0.4 0.2 0.7 0.3c4.1 1.1 7.5 1.8 10.8 2.4q0.6 0.1 1.2 0.1 0.6 0.1 1.3 0.2 0.6 0 1.2 0 0.6 0.1 1.2 0.1c0.8 0 1.7 0.1 2.6 0.1h0.8l-0.3-0.7c-0.6-1.8-1.2-3.6-1.9-5.3-1.2-3.9-2.4-7.5-3.8-11-2.3-5.6-4.9-11.3-7.4-16.7z"/>
		<path class="s2" d="m609.3 981.5h-0.5l-1.9 17.8 17.7-0.1c2.6 0 5.3-0.1 8-0.2 3.5-0.1 7.1-0.2 10.7-0.2 3.6 0 4.1-0.3 4.2-3.7 0.1-2.8 0.2-6 0-9.1q0-0.4-0.1-0.8-0.2-0.4-0.4-0.7-0.2-0.4-0.5-0.7-0.3-0.2-0.6-0.5-0.6-0.1-1.2-0.3-0.5-0.1-1.1-0.2-0.6-0.1-1.2-0.2-0.6 0-1.2-0.1-3 0-6 0c-2 0-4.2 0-6.3-0.1-4.6-0.2-9.4-0.4-14-0.7z"/>
		<path class="s2" d="m745.5 868.1l32.1 5.5c-4-13.1-8.9-24.7-21.3-32-5.7 5.9-12.2 22.2-10.8 26.5z"/>
		<path class="s2" d="m623.5 553.3c-3.7-0.1-7.4-0.1-11-0.1h-3.8l0.1 0.6c0.6 3 1.1 6 1.7 8.9 1.3 7.2 2.6 14.6 4 21.9v0.2c0.8 4.8 1 5 6.2 5.1h0.2c2.7 0 5.6 0.1 8.4 0.3l3.8 0.2h0.7l-3.6-15.1c-1.5-6.4-3.1-13-4.7-19.6-0.2-0.7-1.1-2.3-2-2.4z"/>
		<path class="s2" d="m510.3 552.5q-0.9 0.2-1.8 0.4-0.9 0.1-1.9 0.2-0.9 0.2-1.8 0.2-0.9 0.1-1.8 0.1-1.3 0-2.5 0.3-1.2 0.2-2.3 0.8-1.1 0.6-2 1.4-0.9 0.8-1.6 1.8c-7.8 9.8-12 21-16.4 32.9l-1.2 3 4.1-0.9c3.9-0.7 7.5-1.5 11.1-2.2q0.3-0.1 0.5-0.3 0.2-0.1 0.4-0.3 0.1-0.1 0.3-0.3 0.1-0.2 0.2-0.4c5.8-10.4 11.6-20.9 17.3-31.2l3.4-6.1-1 0.1c-1 0.1-2 0.3-3 0.5z"/>
		<path class="s2" d="m563.3 550.3h-1.9q-1.5 0.1-3 0.2c-1.9 0.2-3.9 0.4-5.8 0.4-1.9 0-2.8 0.6-3.4 2.3-0.8 2.4-1.7 4.7-2.5 7-1.3 3.5-2.7 7.1-3.8 10.8-1.3 3.8-2.3 7.7-3.4 11.8-0.5 1.7-0.9 3.5-1.4 5.3l-0.2 0.7 18.7-1.7 8.2-36.8h-1.6z"/>
		<path class="s2" d="m310.1 902.9v27.6l4.8-0.4c5.4-0.3 10.4-0.7 15.6-1.2 0.8-0.1 1.8-1.5 1.8-2.3 0.3-3.6 0.5-7.4 0.6-11.7 0-2.5 0-5.1 0-7.8v-4.3z"/>
		<path class="s2" d="m588.8 817.6h-0.5l-2.3 0.3c-1.6 0.2-3 0.4-4.5 0.5l-5.8 0.5c-3 0.2-6.2 0.5-9.3 0.8q-1.1 0.1-2.2 0.2-1.1 0.1-2.2 0.1-1.1 0-2.2 0-1.1 0-2.2-0.1c-2.3-0.2-4.6 0.9-6.9 2-0.8 0.3-1.6 0.7-2.4 1.1-0.8 0.3-0.9 1.5-0.9 2 0 2.9 0 5.5 0.2 8.1q0 0.3 0 0.6 0.1 0.3 0.2 0.5 0.1 0.3 0.3 0.5 0.2 0.3 0.4 0.4 0.2 0.2 0.5 0.4 0.2 0.1 0.5 0.2 0.3 0 0.6 0.1 0.3 0 0.6 0h0.6c6.3-0.6 12.8-1.1 19.1-1.5l10-0.8c1.9-0.2 3.7-0.4 5.6-0.5l2.5-0.3h0.5z"/>
		<path class="s2" d="m526.7 552.6q-0.6-0.1-1.2-0.2-0.6-0.1-1.1-0.2-0.6-0.1-1.2-0.3-0.6-0.1-1.2-0.2c-2.5-0.7-4.2 0-5.4 2.2-2.9 5.1-5.8 10.3-8.7 15.3l-6.3 11c-1.2 2.1-2.4 4.3-3.6 6.6l-1.8 3.3-0.3 0.7h8.5c2.4 0 4.7 0 7-0.1q0.5-0.1 0.9-0.2 0.5-0.2 0.9-0.5 0.3-0.2 0.7-0.6 0.3-0.3 0.5-0.8c3.6-8 7-16.1 10.4-24l0.5-1.2q1.4-3.3 2.8-6.8c0.4-1 0.8-2 1.3-3.1l0.2-0.5-0.6-0.1z"/>
		<path class="s2" d="m598.1 754c-1.3-0.1-2.5-0.4-3.9-0.7q-1-0.2-2.2-0.4l-0.5-0.2v9.7c0 5.7 0.9 6.5 7 6.7h1.4l3.7 0.1c2.8 0 5.6 0.1 8.4 0.3 4.8 0.4 9.6 0.8 14.3 1.3q2.2 0.2 4.4 0.4h0.5q0.2 0 0.4 0 0.3 0 0.5-0.1 0.2-0.1 0.4-0.2 0.2-0.1 0.4-0.3 0.2-0.1 0.3-0.3 0.1-0.2 0.2-0.5 0.1-0.2 0.1-0.4 0-0.3 0-0.5v-1.1c-0.1-2.5-0.1-5.1-0.3-7.7-0.1-0.8-1.3-1.6-2-1.8l-0.8-0.1c-3.9-0.8-7.8-1.6-11.7-2-3.9-0.5-8.1-1-12-1.3z"/>
		<path class="s2" d="m543 551.5q-0.9 0.1-1.7 0.2-0.9 0.1-1.7 0.2-0.9 0.1-1.7 0.1-0.9 0.1-1.8 0.1-0.7-0.1-1.4 0.1-0.7 0.2-1.3 0.6-0.6 0.4-1.1 1-0.4 0.6-0.6 1.3c-1.4 3.7-3.1 7.4-4.6 11.1l-0.1 0.2q-3.5 8.1-7 16.1l-3 6.8h5c3.2 0 6.4-0.1 9.5 0h0.5c2.1 0 3.1-0.7 3.8-2.9 2.4-7.9 5-16 7.5-23.7q1.4-4.4 2.7-8.8c0.2-0.4 0.3-0.8 0.4-1.3l0.5-1.5h-0.8z"/>
		<path class="s2" d="m581.5 688.5c-10 2.1-20.1 4.2-30.1 6.4q-26.1 5.9-52.3 11.9c-11.1 2.6-22.2 5.5-33.4 8-7.8 1.8-15.8 3.2-23.7 4.7 9.4 0.5 18.4-1.1 27.4-3.3 9.9-2.5 19.9-4.8 29.9-7 2.8-0.7 5.8-0.7 8.6-1.3 3.5-0.7 7-1.7 10.4-2.5 16.7-3.8 33.6-5.9 50.6-8.1 6.2-0.8 12.4-2 18.7-3l-1.8-6.1q-0.5 0-1 0-0.6 0-1.1 0-0.5 0.1-1.1 0.1-0.5 0.1-1.1 0.2z"/>
		<path class="s2" d="m426.1 602.7l-0.3 0.1q-0.2 0.1-0.3 0.1-0.1 0.1-0.3 0.1-0.1 0.1-0.2 0.1-0.2 0-0.3 0c-1.9-0.9-3.6-0.5-5.2 1.3l-2.2 2.5q-1.1 1.2-2.2 2.4-1 1.2-2 2.4-1 1.3-2 2.5-0.9 1.3-1.9 2.6c-2.2 3.4-4.2 7-6.1 10.5-1.4 2.5-2.8 5-4.3 7.4-1.7 2.8-3.5 5.4-5.5 8.2-0.9 1.3-1.9 2.6-2.8 4l-0.6 0.8 1-0.1 3.2-0.3c2.8-0.2 5.5-0.4 8.2-0.8q0.3 0 0.6-0.2 0.3-0.1 0.6-0.3 0.3-0.2 0.6-0.5 0.2-0.2 0.4-0.5c10.4-12.8 18-27.1 26-43.2l0.5-1.1-2.4 1q-0.3 0.1-0.6 0.3-0.3 0.1-0.7 0.2-0.3 0.2-0.6 0.3-0.3 0.1-0.6 0.2z"/>
		<path class="s2" d="m588.9 962.9h-0.5c-1 0.1-1.9 0.3-2.8 0.5q-0.7 0.2-1.4 0.3-0.6 0.1-1.3 0.2-0.7 0-1.4 0-0.6 0-1.3-0.1c-5.3-1.2-10.5-0.4-15.6 0.3q-1.5 0.2-3.1 0.4-1.5 0.2-3.1 0.3-1.5 0.1-3.1 0.1-1.6 0-3.1-0.1h-0.6v4.8c0.1 0.8 0.2 1.6 0.3 2.3 0.1 0.7 0.2 1.2 0.3 1.9q0 0.1 0 0.2 0 0.1 0 0.3 0 0.1 0 0.2-0.1 0.1-0.1 0.3c-0.1 1-0.3 2.4 1.7 3.1 0.5 0.1 0.9 0.3 1.4 0.5q0.4 0.2 0.8 0.4 0.4 0.1 0.8 0.2 0.4 0.1 0.9 0.2 0.4 0.1 0.8 0.1h0.1c7.4-0.1 15-0.4 22.4-0.7l7.4-0.2h0.5z"/>
		<path class="s2" d="m623.5 944.9c-1.7-0.1-3.5-0.2-5.2-0.2q-1.5-0.1-2.9-0.1-1.5-0.1-3-0.2-1.4-0.1-2.9-0.3-1.5-0.2-2.9-0.4-0.7-0.2-1.4-0.3-0.8-0.1-1.5-0.1-0.7-0.1-1.4-0.1-0.8 0-1.5 0-0.9 0-1.9 0.1-0.9 0-1.9 0.1-0.9 0.1-1.8 0.2-1 0.1-1.9 0.2c-0.6 0.1-1.2 1-1.2 1.6v14.4h0.5q1.9-0.2 3.7-0.2 1.9-0.1 3.8-0.1 1.8 0 3.7 0.1 1.8 0.1 3.7 0.3c3.1 0.2 6.3 0.4 9.5 0.4q1.2 0 2.3 0 1.2-0.1 2.3-0.2 1.2 0 2.3-0.2 1.2-0.1 2.3-0.3l0.4-0.1v-11.7c0.1-2.5-1.5-2.8-3.1-2.9z"/>
		<path class="s2" d="m588.8 1001.2l-0.4 0.1-1.3 0.1c-0.7 0.1-1.3 0.2-2 0.3l-2.8 0.1c-4.2 0.2-8.5 0.4-12.8 0.6q-0.5 0-0.9 0-0.5 0-1-0.1-0.4 0-0.9 0-0.5 0-0.9-0.1c-0.9-0.1-1.9-0.1-2.9-0.1q-0.5 0-1.1 0.1-0.5 0.1-1 0.3-0.6 0.2-1 0.5-0.5 0.3-0.9 0.7-0.3 0.3-0.5 0.6-0.2 0.3-0.4 0.7-0.2 0.3-0.3 0.7-0.1 0.4-0.1 0.8 0.1 0.9 0.1 1.8 0 0.9 0.1 1.8 0 0.9 0.1 1.8 0.1 0.9 0.2 1.8l0.3 3v0.4l0.4 0.1c8.1 1.5 16.2 2.9 24.5 2.9q3.2 0 6.5-0.3h0.5z"/>
		<path class="s2" d="m801.2 665.6q-0.1-0.2-0.3-0.4-0.1-0.2-0.3-0.4-0.1-0.2-0.3-0.4-0.1-0.2-0.3-0.4c-11.9-12.5-20.9-27.2-29.7-41.4l-0.6-1.1q-0.2-0.3-0.5-0.5-0.2-0.3-0.5-0.5-0.3-0.2-0.6-0.4-0.3-0.2-0.6-0.3l-0.4-0.2q-2.1-1.1-4-2.1c-2-1-4-2.2-6-3.3q-0.3-0.1-0.6-0.3-0.2-0.2-0.5-0.4-0.2-0.2-0.5-0.4-0.2-0.3-0.4-0.5-0.5-0.4-1-0.8l-0.3-0.3-1.1 1 0.1 0.3 0.4 0.7q0.1 0.2 0.2 0.4 0.1 0.2 0.2 0.4 0.1 0.2 0.2 0.4 0.1 0.2 0.2 0.4c1.2 2 2.4 4.1 3.6 6.2 2.8 4.7 5.6 9.7 8.9 14.3 4.8 7 10.3 13.7 15.5 20.3l2.9 3.7q0.5 0.5 1 0.9 0.5 0.5 1.1 0.9 0.5 0.4 1.1 0.7 0.6 0.3 1.2 0.6c2 0.9 4.2 1.8 6.3 2.6l2.1 0.8c0.7 0.3 1.4 0.5 2.3 0.8l1.6 0.6 1.5 0.6-1-1.3z"/>
		<path class="s2" d="m688.1 677.3c-10.3-0.2-19.4-0.4-27.9-0.7q-0.4 0-0.7 0-0.3 0-0.6 0.1-0.3 0.1-0.6 0.2-0.3 0.2-0.6 0.4-0.1 0.2-0.3 0.4-0.1 0.3-0.2 0.6-0.1 0.3-0.1 0.6 0 0.3 0 0.5v3q0 0.7 0 1.4 0 0.6 0 1.3 0.1 0.7 0.1 1.3 0 0.7 0.1 1.4 0.1 0.4 0.3 0.7 0.2 0.4 0.5 0.7 0.3 0.3 0.6 0.5 0.4 0.3 0.8 0.4c9 1.8 17.4 3.6 25.7 5.1q0.2 0.1 0.5 0.1 0.2 0 0.5 0 0.2 0.1 0.5 0.1 0.2 0 0.5 0 0.2 0 0.4 0 0.2 0 0.4 0 0.2 0 0.4-0.1 0.2 0 0.4 0 0.2 0 0.4 0 0.1 0 0.3 0 0.2 0 0.3 0 0.2 0 0.4 0h0.4v-15.3c0.1-1.6-0.3-2.6-2.5-2.7z"/>
		<path class="s2" d="m549.6 789.3c-2.4 0.5-2.5 2.1-2.4 3.6 0.2 1.5 0.3 2.9 0.5 4.5l0.3 2.6h1.4c13.6-0.4 26.4-0.8 39-4.7l0.4-0.1v-11.7h-0.6l-5.7 0.5c-4.4 0.3-8.5 0.6-12.7 1.1-4.2 0.4-8.5 1-12.6 1.5l-5.5 0.8-1.3 0.1 1.3 0.8-0.2 0.1q-0.2 0.2-0.4 0.3-0.3 0.1-0.5 0.2-0.2 0.1-0.5 0.2-0.2 0.1-0.5 0.2z"/>
		<path class="s2" d="m589 930.8l-0.3-4.3-32.2-1.1-0.1 0.4q-0.1 0.8-0.2 1.6c-0.1 1.2-0.3 2.5-0.5 3.7-0.6 3.4-0.1 6.1 1.5 8 1.6 1.9 4.4 2.9 8.1 2.9h0.3c7.2-0.1 14.5-0.3 20.7-0.5h0.3q0.3 0 0.7 0 0.3 0 0.6-0.1 0.3-0.1 0.5-0.2 0.3-0.1 0.6-0.3 0.1-0.2 0.2-0.4 0.1-0.2 0.2-0.4 0-0.2 0-0.4 0.1-0.2 0-0.4c-0.1-2.8-0.2-5.5-0.4-8.5z"/>
		<path class="s2" d="m558.5 639.3l-2.9 16.9 33.4 1.1-1.8-16.3-28.7-1.7z"/>
		<path class="s2" d="m618.2 641.7h-28.1v0.5q0.2 1.7 0.4 3.5c0.4 2.7 0.7 5.5 0.9 8.3 0.2 2.5 1.2 3.4 3.7 3.5 5.6 0.1 11.3 0.3 16.7 0.5l7.9 0.3h5.1l-0.2-0.6q-0.5-1.9-1-3.9c-0.9-3.3-1.7-6.4-2.4-9.6-0.4-1.5-1-2.5-2.9-2.5z"/>
		<path class="s2" d="m551.2 655.8c3.6-5.4 4-11 4-16.4v-0.4h-0.5l-6.7-0.3c-6-0.2-11.5-0.5-17.3-0.8-2.2-0.1-3.1 0.9-3.7 2.6-1.2 3.3-2.6 6.5-4 10l-1.7 4.1-0.2 0.6 30 0.9z"/>
		<path class="s2" d="m588.3 798.8c-0.6-0.5-1.4-0.5-2.9 0q-0.8 0.2-1.6 0.4-0.8 0.2-1.6 0.3-0.8 0.2-1.7 0.3-0.8 0.2-1.6 0.3l-1.8 0.2c-2 0.4-3.9 0.5-6 0.7l-2.4 0.3c-2.6 0.2-5.3 0.5-8 0.6-2.4 0.1-5.2 0.7-5.2 4.5q0 1 0.1 1.9 0 0.9 0.1 1.8 0.1 0.9 0.3 1.8 0.1 0.9 0.4 1.8c0.6 2.9 2.1 4.2 4.8 4.2q0.3 0 0.5 0 0.2 0 0.5 0 0.2-0.1 0.4-0.1 0.3 0 0.5-0.1c3.6-0.6 6.7-1.1 9.8-1.4 2-0.2 4-0.3 6-0.5 2-0.1 4.2-0.2 6.3-0.5q0.4 0 0.9-0.1 0.4-0.1 0.8-0.3 0.4-0.1 0.7-0.4 0.4-0.3 0.7-0.6 0.2-0.3 0.3-0.7 0.2-0.3 0.3-0.7 0-0.4 0-0.8 0-0.4-0.1-0.8 0-0.4 0-0.8-0.1-0.4-0.1-0.8 0-0.3 0-0.7 0-0.4 0.1-0.8v-6.6q0-0.4 0.1-0.7 0-0.3-0.1-0.6-0.1-0.3-0.2-0.6-0.1-0.3-0.3-0.5z"/>
		<path class="s2" d="m654 557.5c-1.5-0.2-3-0.3-4.6-0.4l-3.6-0.3 0.5 0.8c4.5 7.2 7 14.9 9.6 22.4 1.3 4.1 2.8 8.3 4.4 12.3l0.1 0.2 17.9 1.9-0.5-0.8q-0.2-0.5-0.5-0.9c-0.4-0.7-0.8-1.5-1.2-2.2q-1.2-2.4-2.4-4.7c-1.5-2.9-3-5.9-4.6-8.8-1.4-2.7-3-5.5-4.5-8.1-1.5-2.7-2.9-5.1-4.3-7.7-1.2-2.3-3.3-3.5-6.3-3.7z"/>
		<path class="s2" d="m687.9 599.4l-2.5-0.5-0.5-0.2v1.2q0 0.1 0 0.2 0 0.1 0 0.1 0 0.1 0 0.2 0 0.1 0 0.1c1.5 3.5 2.9 7.2 4.3 10.7 4.5 11.2 9 22.8 16.6 33.1q1 1.2 2.3 2.2 1.3 1.1 2.8 1.8 1.5 0.7 3.1 1.1 1.6 0.4 3.2 0.4 0.2 0 0.4 0 0.2 0 0.4 0 0.1 0 0.3 0 0.2 0 0.4-0.1l1-0.1-0.8-0.7c-6-5.4-8.6-12.5-11-18.8-2.6-7-5.8-14-8.8-20.6l-3-6.7q-0.2-0.4-0.5-0.7-0.2-0.3-0.5-0.6-0.3-0.2-0.7-0.4-0.3-0.2-0.7-0.4c-1.9-0.5-3.8-0.9-5.8-1.3z"/>
		<path class="s2" d="m562.9 1038.2l27.4 3v-18.5l-26.5-1.5-0.9 17z"/>
		<path class="s2" d="m881.5 881.7l4.6 0.7q0-0.7 0-1.4 0-0.7-0.1-1.4-0.1-0.7-0.2-1.4 0-0.7-0.2-1.4c-1.1-4.4-3-8.7-3.8-13.2-1.6-10.1-8.4-17.3-15-25.1-3.5 2.1-6.7 3.9-9.6 5.9q-0.8 0.5-1.5 1-0.7 0.5-1.3 1.1-0.6 0.6-1.2 1.3-0.6 0.6-1.1 1.3c-5.5 8.4-7.5 18-9.3 27.5-0.1 0.5 0.6 1.2 0.9 1.8 1.2-3 1.4-5.8 2.6-8.1q1-2.1 2-4.1 1-2 2.1-4 1.1-1.9 2.3-3.9 1.1-1.9 2.3-3.8c1.3-2 3.6-3.7 5.8-5q0.5-0.2 1.1-0.3 0.5-0.1 1-0.1 0.6 0.1 1.1 0.2 0.5 0.2 1 0.4 1 0.7 1.9 1.5 0.9 0.8 1.7 1.6 0.9 0.8 1.7 1.7 0.8 0.8 1.6 1.7c4 5 8 10 8.9 16.5 0.4 2.9 0.5 6 0.7 9z"/>
		<path class="s2" d="m518.1 672.3l-31.1-1-0.8 14.9h33.2l-1.3-13.9z"/>
		<path class="s2" d="m490.4 554.9c-3.2 0.9-5.9 1.7-8.3 4-7.6 7.5-13.5 16.4-19.1 24.9-2 2.9-4 6-6 8.9q-0.1 0.1-0.2 0.3-0.1 0.2-0.2 0.3-0.1 0.2-0.2 0.4-0.1 0.2-0.1 0.3-0.2 0.4-0.4 0.8l-0.4 0.8 1.7-0.2 1.3-0.2q1.8-0.2 3.6-0.5c2.9-0.4 5.9-0.9 8.9-1.2 1.8-0.1 3.1-0.6 4-2.7 4.2-9.8 7.8-18 11.7-26.2q0.4-0.8 0.8-1.6 0.5-0.8 1-1.6 0.5-0.8 1-1.6 0.5-0.8 1-1.5c0.7-1 1.5-2.1 2.2-3.2l0.7-1.1-1.3 0.4z"/>
		<path class="s2" d="m622.2 1039.6c5.5-0.5 11.2-1.1 16.8-2 1.6-0.2 3-1.4 4.4-2.6q0.5-0.4 1-0.8 0.3-0.3 0.4-0.6 0.2-0.3 0.3-0.7 0.1-0.3 0.1-0.7 0-0.3-0.1-0.7c-0.8-2.8-1.7-5.8-2.5-8.6q-0.4-1.4-0.9-2.7l-0.1-0.4-25.1 2 0.2 0.6c2.1 5.6 3.5 11.4-1.1 17.1l-0.7 0.9 1.1-0.1z"/>
		<path class="s2" d="m627.2 906.4q0-0.8-0.1-1.6-0.1-0.8-0.2-1.6-0.1-0.9-0.3-1.7-0.1-0.8-0.3-1.6-0.1-0.4-0.3-0.7-0.3-0.4-0.6-0.6-0.3-0.3-0.6-0.5-0.4-0.2-0.8-0.3l-1.2-0.2q-1.1-0.3-2.3-0.5-1.1-0.1-2.3-0.3-1.1-0.1-2.3-0.2-1.1-0.1-2.3-0.1h-0.2c-5.1 0-10.1 0.2-15.4 0.4-2.1 0.1-4.3 0.1-6.5 0.2h-0.4v10.1h0.4q1.4 0.2 2.8 0.3 0.7 0 1.5 0.1 0.8 0.1 1.5 0.2 0.8 0.1 1.5 0.2 0.7 0.1 1.5 0.3 0.4 0.1 0.8 0.2 0.4 0.1 0.8 0.2 0.4 0.2 0.8 0.4 0.4 0.1 0.8 0.3 0.5 0.2 1.1 0.4 0.5 0.2 1 0.4 0.6 0.2 1.1 0.3 0.6 0.1 1.1 0.2 1.5 0.1 2.9 0.2 1.4 0.1 2.9 0.2 1.4 0 2.9 0 1.4 0.1 2.9 0.1h3q0.5 0 1-0.1 0.5-0.1 1-0.3 0.4-0.2 0.9-0.4 0.4-0.3 0.8-0.7 0.3-0.3 0.5-0.7 0.2-0.4 0.4-0.8 0.1-0.4 0.2-0.9 0-0.4 0-0.9z"/>
		<path class="s2" d="m617.8 966l-0.7-3.6h-25.1v15.6l0.2 0.1q0.8 0.5 1.7 0.9 0.8 0.3 1.7 0.5 0.9 0.3 1.8 0.4 0.9 0.1 1.8 0.1 0.6 0 1.2 0 0.7-0.1 1.3-0.2 0.5-0.1 1.1-0.2 0.6-0.1 1.2-0.2 0.5-0.1 1.1-0.2 0.5-0.1 1-0.1 0.6 0 1.1 0 0.5 0 1.1 0h2.2q0.4 0 0.8 0 0.5 0.1 0.9 0.1 0.5 0 0.9-0.1 0.5 0 0.9 0c2.3-0.2 3.7-0.9 4.6-2 0.9-1.1 1-2.6 0.6-4.7-0.4-2-0.9-4.1-1.4-6.4z"/>
		<path class="s2" d="m651 645.5q-0.3-0.3-0.6-0.6-0.3-0.2-0.7-0.4-0.3-0.2-0.7-0.3-0.4-0.1-0.8-0.1c-3.3-0.3-6.6-0.4-9.9-0.6l-6.8-0.4c-1.6-0.1-3.1-0.3-4.9-0.5l-2.9-0.3h-0.8l0.3 0.7q0.7 1.9 1.3 3.7c1.2 3.6 2.4 7 3.6 10.2q0.3 0.4 0.5 0.7 0.3 0.2 0.7 0.4 0.3 0.2 0.7 0.4 0.4 0.1 0.8 0.1c7.5 0.4 15 0.6 22.3 0.9l6.6 0.2-0.5-0.7-2-3.3c-2.1-3.5-4.1-6.8-6.2-10.1z"/>
		<path class="s2" d="m297 967.2c2.2-0.2 4.3-0.5 6.4-0.6 2.3-0.1 2.7-1.4 2.8-2.9q0.1-3.9 0.3-7.9c0.2-3 0.3-6.1 0.4-9.1 0.1-3.1 0.1-5.9 0-8.8v-4.3l-18.1-0.9v34.8h5.2z"/>
		<path class="s2" d="m489.3 654q0.1 0 0.3 0.1 0.1 0 0.3 0 0.1 0.1 0.3 0.1 0.1 0 0.3 0l4.5 0.2c6.5 0.2 13.3 0.4 20 0.4 1.3 0 2.6-1.4 3.5-2.5q0.2-0.3 0.4-0.5 0.2-0.3 0.4-0.6 0.1-0.3 0.3-0.6 0.1-0.3 0.2-0.6l0.4-0.8c1.1-2.3 2.1-4.7 3.3-7.2l1.7-3.8h-0.8c-1.1 0-2.2 0.1-3.3 0.2-2.1 0.1-4 0.2-6 0.2l-3 0.1q-4.9 0.2-9.8 0c-1.9-0.1-3.1 0.1-4.3 1.7-2.2 3-4.5 6.1-6.7 9.1l-2.6 3.6-0.5 0.6 0.7 0.2z"/>
		<path class="s2" d="m731.4 604.3q0-0.1 0-0.1-0.1-0.1-0.1-0.1 0-0.1 0-0.2-0.1 0-0.1-0.1c-5.8-8.4-12.9-16-19.8-23.3-3.7-4-7.6-8-11.1-12.2q-0.3-0.3-0.5-0.5-0.3-0.2-0.6-0.4-0.3-0.1-0.6-0.3-0.3-0.1-0.6-0.2c-2.4-0.5-4.7-1-7-1.5l-2.7-0.5-1.2-0.3 1.1 1.5c0.2 0.3 0.4 0.6 0.7 0.9 2.2 2.7 4.6 5.4 6.9 8 7 7.9 14.1 16.1 18.6 25.9q0.1 0.2 0.3 0.5 0.1 0.2 0.3 0.4 0.2 0.1 0.5 0.3 0.2 0.1 0.5 0.2c3.8 0.8 7.5 1.5 11.5 2.3l4.3 0.9-0.3-0.8z"/>
		<path class="s2" d="m746.1 610.1q-0.5-0.2-0.9-0.3-0.5-0.1-1-0.2-0.5 0-1-0.1-0.5-0.1-1-0.1l-1.8-0.2-0.9-0.1 0.5 0.8q1.2 2.2 2.5 4.3 0.7 1 1.4 2.1 0.6 1.1 1.2 2.3 0.7 1.1 1.2 2.3 0.6 1.1 1.1 2.3 1.6 4.3 3.7 8.3 2.1 4.1 4.5 8 2.4 3.9 5.2 7.5 2.9 3.7 6 7l0.5 0.5q0.3 0.4 0.6 0.8 0.4 0.3 0.8 0.7 0.4 0.3 0.8 0.5 0.4 0.3 0.8 0.5 0.9 0.3 1.7 0.5 0.8 0.2 1.6 0.4 0.8 0.2 1.6 0.4 0.8 0.2 1.7 0.4c0.9 0.2 2 0.4 3 0.6l1.3 0.4-0.9-1.1-0.8-1c-0.4-0.5-0.8-1-1.2-1.5q-2.1-2.7-4.2-5.4c-3.2-4-6.5-8.2-9.3-12.5-3.5-5.3-6.7-10.9-9.9-16.3-1.8-3.2-3.7-6.4-5.7-9.6q-0.3-0.4-0.6-0.8-0.3-0.3-0.7-0.6-0.4-0.3-0.9-0.5-0.4-0.2-0.9-0.3z"/>
		<path class="s2" d="m305.9 869.8h-17.1v30.9l18.5-0.4-1.4-30.5z"/>
		<path class="s2" d="m707.4 1000.7q1.1 0.3 2.3 0.6 1.2 0.3 2.4 0.4 1.2 0.2 2.4 0.3 1.2 0.1 2.4 0c2.4 0 4.9-0.2 7.3-0.3q1-0.2 2.1-0.2 1-0.1 2.1-0.1 1-0.1 2.1-0.1 1 0 2.1 0h0.4v-0.5q0.1-1.1 0.3-2.1 0.3-1.4 0.3-2.9 0-1.4-0.1-2.9-0.2-1.4-0.6-2.8-0.4-1.4-1-2.8c-0.5-0.8-1.9-0.8-3.5-0.8q-0.2 0-0.4 0-0.3 0-0.5 0-0.2 0-0.4-0.1-0.2 0-0.4 0-0.2 0-0.3 0-0.1 0-0.2 0-0.1-0.1-0.2-0.1-0.1 0-0.2 0l-0.8-0.1q-2-0.3-4-0.6c-3.1-0.4-6.4-0.9-9.6-1.2q-0.5 0-1 0-0.5 0-1 0.2-0.5 0.1-0.9 0.4-0.4 0.2-0.8 0.6-0.4 0.4-0.6 1-0.2 0.5-0.4 1-0.1 0.6-0.1 1.2 0 0.5 0.2 1.1 0 0.6 0.1 1.1 0 0.6 0.1 1.2 0 0.6 0 1.2 0 0.6 0 1.1v6z"/>
		<path class="s2" d="m440.1 667.8q-0.8-0.9-1.7-1.7-0.4-0.5-0.9-0.9-0.4-0.5-0.8-0.9-0.4-0.5-0.8-1-0.4-0.5-0.8-1-0.3-0.5-0.7-0.8-0.4-0.3-0.9-0.5-0.5-0.2-1-0.2-0.5 0-1 0.2c-7.6 1.5-15.3 3.1-22.7 4.6l-10.2 2-10.5 2.1-5.1 1-0.6 7.2 58.3-9.4z"/>
		<path class="s2" d="m870.4 879.1c-0.1-8.6-3.2-16.2-7.8-23.4-1.3-2-3.3-2-4.5 0.1-3 5.4-6 10.8-8.7 16.4-0.8 1.7-0.8 3.7-1.3 6.1l21.8 1.8c0.3-0.7 0.5-0.9 0.5-1z"/>
		<path class="s2" d="m383.9 646.8l-0.2 2.5 0.7-0.3q0.4-0.1 0.7-0.3 0.3-0.2 0.6-0.5 0.4-0.2 0.6-0.5 0.3-0.3 0.5-0.6l1.6-2.2c3.2-4.6 6.5-9.4 9.7-14.1q0.8-1.2 1.5-2.4 0.8-1.2 1.5-2.5 0.7-1.2 1.4-2.5 0.6-1.2 1.3-2.5c2.8-5.1 5.6-10.5 9.8-15.1l1.1-1.2-1.6 0.4q-1.2 0.3-2.4 0.7-0.7 0.2-1.4 0.4-0.6 0.2-1.3 0.3-0.7 0.2-1.4 0.3-0.7 0.1-1.4 0.2-1.4 0.2-2.8 0.7-1.5 0.6-2.7 1.4-1.2 0.9-2.2 2-1 1.2-1.6 2.5c-2.4 4.4-4.8 8.8-7.2 13l-3.9 6.8q0 0.2-0.1 0.3 0 0.1 0 0.2-0.1 0.2-0.1 0.3 0 0.1 0 0.2v0.2q-0.1 1.8-0.2 3.5l-0.3 5c0 1.3-0.1 2.5-0.2 3.8z"/>
		<path class="s2" d="m672.1 561.1h-0.8l0.5 0.7c0.7 0.9 1.3 1.7 2 2.6 1.3 1.7 2.6 3.4 4 5q2.6 2.9 5 6 2.4 3 4.6 6.2 2.1 3.2 4.1 6.6 2 3.3 3.7 6.8c1.7 3.1 3.6 4.6 6.6 5.2 2 0.4 4 0.9 5.9 1.4l2.6 0.7h0.3l1.1-1.4-0.2-0.3q-1.5-2.2-3-4.5-0.8-1.3-1.6-2.6-0.9-1.3-1.7-2.5-0.9-1.3-1.8-2.5-0.9-1.2-1.9-2.4c-2.9-3.7-6-7.3-9-10.7-2.7-3.1-5.5-6.4-8.1-9.6-3.1-3.9-6.9-5.3-12.3-4.7z"/>
		<path class="s2" d="m849.7 719.4l-0.4-0.1-2.5-0.7c-2.4-0.7-4.9-1.5-7.5-2.1q-0.3-0.1-0.6-0.1-0.4 0-0.7 0-0.4 0-0.7 0.2-0.3 0.1-0.6 0.3-1.1 0.9-1.6 0.8c-0.4-0.1-0.7-0.4-1-1.1q-0.1-0.2-0.2-0.4-0.1-0.1-0.3-0.3-0.2-0.1-0.4-0.2-0.2-0.1-0.4-0.1c-2.1-0.4-4.1-0.7-6.5-1.1l-3-0.5-1.7 14.4 29.3 5.6z"/>
		<path class="s2" d="m646 1037.2l0.9-0.1 5.7-0.7c5-0.6 9.8-1.1 14.5-2 1.7-0.3 3.6-2.4 4-4q0.1-0.6 0.1-1.1 0-0.6 0-1.1 0-0.6-0.1-1.1-0.1-0.5-0.2-1.1c-0.1-0.6-0.2-1.3-0.3-1.9-0.4-3.8-3-4.9-5.9-5.5-5.7-1.2-11.3-0.4-16.7 0.4q-1.3 0.1-2.6 0.3h-0.4v0.4c-0.3 2.4 0.5 4.6 1.3 6.8 1.2 3.1 2.3 6.2 0.2 9.7z"/>
		<path class="s2" d="m466.1 562.3l-2.1 2.2c-5.1 5.3-10.4 10.9-14.6 17.2-1.3 2-2.8 3.9-4.3 5.8q-1.2 1.5-2.4 3c-0.9 1.2-1.8 2.4-2.7 3.6l-1.9 2.5h6.8q0.5 0 1.1 0 0.5 0 1 0 0.5 0 1.1 0 0.5-0.1 1-0.1 0.5-0.1 1.1-0.3 0.5-0.2 0.9-0.5 0.5-0.3 0.9-0.7 0.4-0.3 0.8-0.8 0.2-0.3 0.5-0.7 0.2-0.3 0.5-0.7 0.2-0.4 0.4-0.8 0.2-0.4 0.4-0.8 0.2-0.3 0.4-0.6 0.2-0.4 0.4-0.7 0.2-0.3 0.4-0.6 0.2-0.3 0.4-0.6c2.2-3 4.3-6.3 6.3-9.3 4.7-7.1 9.5-14.4 16.1-20.5l0.8-0.7-1-0.2c-5.2-0.6-8.8 0.7-12.3 4.3z"/>
		<path class="s2" d="m483.3 685.3c0-0.5 0.1-0.9 0.2-1.5 0.9-4 1.8-8.2-0.8-12.7l-0.2-0.2h-25.3v14.8h26z"/>
		<path class="s2" d="m785.2 702.9c0-3.8 0-7.2-0.1-10.7 0-0.7-1-1.4-1.6-1.5-6.1-1.5-12.1-2.9-18.5-4.4l-5-1.2 0.9 17.2 24.3 4z"/>
		<path class="s2" d="m598.9 1041.8h5.2c0.6 0 1.6-0.6 1.7-1.2 0.5-2.8 2.5-3 5.4-2.8 2.4 0.1 3.6-0.8 4.4-3.2 1-3.3 0.2-6.5-0.6-9.6l-0.2-1.1c-0.4-1.5-1.1-3.1-3.6-2.7-4.2 0.5-8.5 1.1-12.6 1.7l-5.2 0.7v18.2h5.6z"/>
		<path class="s2" d="m293.2 930.7h0.5l2.9 0.1c2.8 0.1 5.6 0.2 8.2 0.2h0.6c0.8 0 1.9-1.4 1.9-2.2 0.1-6.7 0.1-13.4 0.1-20.4v-5.8h-0.5l-3.3 0.2c-3 0.2-5.7 0.3-8.4 0.6-0.8 0.1-6.4 0.3-6.4 1.1v26z"/>
		<path class="s2" d="m306 968.8l-17.2 1v32l17.2-2.1v-30.9z"/>
		<path class="s2" d="m419.8 674.5l-23.8 3.8 1 16.7 4.9-0.9c5.6-1 10.9-2 16.2-3q0.3-0.1 0.6-0.3 0.2-0.2 0.5-0.5 0.2-0.3 0.3-0.6 0.1-0.3 0.2-0.6c0.1-3.5 0.1-7 0-10.7z"/>
		<path class="s2" d="m768.3 719c6.6 1.2 13.3 2.3 19.7 3.3l7.4 1.2 0.5 0.1v-13l-29.6-4.7v9.3c-0.2 1.4-0.3 3.4 2 3.8z"/>
		<path class="s2" d="m735.1 579.8q-0.1 0-0.2-0.1-0.2 0-0.3-0.1-0.1-0.1-0.2-0.2-0.1 0-0.2-0.1-0.1-0.1-0.2-0.2-0.1 0-0.2-0.1-0.1-0.1-0.2-0.1-0.1-0.1-0.2-0.2l-6.3-3.5-2.6-1.4-1 1.6 4.8 5.9c6.8 8.4 13.9 17.1 20.8 25.7q0.3 0.3 0.5 0.5 0.3 0.2 0.6 0.4 0.4 0.2 0.7 0.4 0.4 0.1 0.7 0.2c3.2 0.5 5.5 2.1 8 4.3q0.5 0.4 0.9 0.7 0.5 0.4 1 0.7 0.5 0.3 1 0.6 0.5 0.3 1 0.6 0.9 0.5 1.7 1l0.4 0.2 1.1-1.3-0.2-0.3q-1-1.4-1.9-2.8c-1.3-2-2.7-4.1-4.3-6.1-4.4-5.6-9.2-11.5-14.8-18.1l-0.8-1c-2.6-2.9-5.2-6.1-9.6-7.2z"/>
		<path class="s2" d="m467.8 701.1c-0.2-4.1-0.5-8.1-0.8-12.8h-21c-1.5 0-1.8 0.8-1.8 2v14.9z"/>
		<path class="s2" d="m631.5 853.9l-40.6-4.3v9.4l38.3 4.6 2.3-9.7z"/>
		<path class="s2" d="m756.8 684.9c-1-1.1-2.8-1.4-4.6-1.6-0.7-0.1-1.4-0.3-2-0.4l-10-2.4-5.3-1.2v0.7q0.2 1.8 0.3 3.5c0.2 3.3 0.3 6.4 0.7 9.5q0.1 0.4 0.3 0.7 0.2 0.4 0.4 0.7 0.3 0.3 0.6 0.5 0.4 0.3 0.7 0.4c4.3 1.7 8.5 3.3 12.6 4.7q0.6 0.2 1.2 0.3 0.5 0.2 1.1 0.4 0.6 0.1 1.2 0.3 0.6 0.1 1.2 0.3 1.2 0.2 2.5 0.6l0.6 0.1-0.2-4c-0.1-2.3-0.3-4.5-0.4-6.7v-1.8c0.1-1.8 0.1-3.5-0.9-4.6z"/>
		<path class="s2" d="m630.9 821.4c-1.5-0.4-3-0.9-4.4-1.3-4.7-1.4-9.5-2.9-14.6-2.6h-0.4l-0.1 0.4q-0.1 0.7-0.1 1.4 0 0.7 0 1.4 0 0.7 0 1.3 0 0.7 0.1 1.4c0.2 3.6 0.4 7-1.7 10.3l-0.4 0.6 23.4 2.8v-4c0-3.4 0-6.7-0.1-9.8q-0.1-0.4-0.2-0.7-0.2-0.3-0.4-0.5-0.2-0.3-0.5-0.5-0.3-0.1-0.6-0.2z"/>
		<path class="s2" d="m613.9 864.5c-6.3-1-12.8-1.8-19-2.6q-0.3-0.1-0.7-0.1-0.4 0-0.8 0.1-0.4 0.2-0.7 0.3-0.4 0.2-0.7 0.5-0.2 0.2-0.4 0.5-0.2 0.3-0.4 0.6-0.1 0.3-0.2 0.7-0.1 0.3-0.1 0.7v9c0 1.4 0.2 2.4 0.9 2.9 0.6 0.5 1.7 0.4 3.2 0.1q0.4-0.1 0.9-0.2 0.4 0 0.9 0 0.4 0 0.9 0 0.4 0 0.9 0h0.2q0.3 0.1 0.5 0.1 0.3 0 0.5 0 0.3 0.1 0.5 0.1 0.3 0 0.5 0.1 0.4 0 0.7 0.1 0.3 0 0.7 0 0.3 0.1 0.6 0.1 0.4 0 0.7 0h0.2c2.7 0 5.3-0.2 8.1-0.4l3.8-0.2h0.4v-2.9c0-2.5 0-5-0.1-7.6 0.1-0.8-1.1-1.8-2-1.9z"/>
		<path class="s2" d="m773.4 620.7h-0.8l0.4 0.7q0.2 0.5 0.4 0.8 0 0.1 0.1 0.3 0 0.1 0.1 0.2 0.1 0.1 0.2 0.3 0 0.1 0.1 0.2l3.5 5.4c7.2 11.3 14.6 23 24.2 33q0.5 0.5 0.9 1 0.5 0.5 0.9 1 0.4 0.6 0.8 1.1 0.4 0.6 0.7 1.2c1.4 2.5 3.6 3.7 7.2 3.7h1l-0.5-0.7q-1.9-2.8-3.8-5.6c-2.8-4.1-5.5-8-8-12-2.4-3.7-4.7-7.6-7-11.3-2.5-4.3-5.2-8.7-7.9-12.9-2.7-4.3-6.9-6.3-12.5-6.4z"/>
		<path class="s2" d="m560.7 866.3v2.7q0 0.6 0 1.3 0 0.6 0 1.2 0 0.7 0.1 1.3 0 0.6 0.1 1.3c0.1 1 1.2 2.7 2.3 2.9q0.8 0 1.5 0.1 0.8 0.1 1.6 0.1 0.8 0 1.5 0.1 0.8 0 1.6 0 1.5 0 3 0 0.5-0.1 0.9-0.1 0.5-0.1 1-0.1 0.4-0.1 0.9-0.2 0.5-0.1 0.9-0.2c0.9-0.1 1.7-0.3 2.5-0.4 2.1-0.2 4.2-0.4 6.3-0.6l2.8-0.2h0.4v-13h-0.4c-6.1-0.5-11.8 0.8-17.4 2-3 0.7-6.1 1.4-9.2 1.8z"/>
		<path class="s2" d="m558.6 716.7q0 0.3 0.1 0.6 0 0.3 0.1 0.5 0.1 0.3 0.3 0.6 0.1 0.2 0.4 0.4 0.1 0.2 0.4 0.3 0.2 0.1 0.4 0.2 0.2 0 0.5 0 0.2 0.1 0.4 0.1 0.1 0 0.2 0 0.1 0 0.2-0.1 0.1 0 0.2 0 0.1 0 0.2 0l16.6-2.1-2.6-15.4q-0.4-2.6-3.2-2.1c-1.6 0.2-3.1 0.4-4.7 0.6-1.5 0.2-3.2 0.4-4.8 0.7-4.8 0.8-5 1-5 5.4v0.3q0 0 0 0.1 0 0 0 0.1 0 0.1 0 0.1 0 0.1 0 0.2c0 1 0.1 2 0.1 3 0.1 2.1 0.2 4.3 0.2 6.5z"/>
		<path class="s2" d="m673.6 1019.3v-0.3l-0.4 0.2q-0.1 0-0.1 0-0.1 0.1-0.2 0.1 0 0-0.1 0.1 0 0-0.1 0.1l-0.2 0.3 0.3 0.3 1.6 13.6 24.2-2.8v-0.4c0-0.9 0.1-1.7 0.1-2.6 0.1-2.4 0.3-4.7 0.2-6.9q0-0.4-0.2-0.8-0.2-0.4-0.5-0.7-0.3-0.3-0.6-0.5-0.4-0.2-0.8-0.4c-2.7-0.1-5.4-0.1-8-0.1h-4.2q-0.5 0.1-1.1 0.1-0.5 0.1-1.1 0.1-0.5 0.1-1 0.2-0.6 0.1-1.1 0.2c-2.4 0.5-4.5 0.9-6.7 0.2z"/>
		<path class="s2" d="m660.3 282.1q0.1-0.6 0.1-1.2 0-0.6 0-1.2 0-0.6 0-1.2 0-0.6-0.1-1.2c-0.8-4.7 2.2-7.1 6-9q0.5-0.2 1-0.4 0.4-0.2 0.9-0.4 0.5-0.2 1-0.4 0.5-0.1 1-0.3 2.7-0.7 5.4-1.2 2.8-0.5 5.5-0.8 2.8-0.3 5.6-0.2 2.8 0 5.6 0.2c8.5 0.6 17 1.7 24.2 6.9q0.5 0.3 0.9 0.7 0.4 0.5 0.7 1 0.2 0.6 0.3 1.2 0.1 0.6 0.1 1.2v6c6.4-4.9 6.5-9.9 0.2-14.1q-0.8-0.5-1.6-1-0.9-0.5-1.8-0.9-0.8-0.5-1.7-0.9-0.9-0.3-1.9-0.7c-12.5-4.2-25.2-4.2-38-1.1-5.5 1.3-10.9 3.2-15 7.2-4.1 4-3.4 8.2 1.6 11.8z"/>
		<path class="s2" d="m616.3 678c-0.3 2.2 1.1 2.8 2.5 3.1q10.3 2.3 20.5 4.6l12 2.7q0.2 0.1 0.5 0.1 0.2 0 0.5 0.1 0.2 0 0.5 0 0.2 0.1 0.5 0.1l0.9 0.1 0.6 0.1v-12.4l-9.3-0.3c-8.8-0.3-17.5-0.6-26.1-1q-0.6 0-1.1 0.1-0.5 0.1-1 0.5-0.4 0.3-0.7 0.7-0.2 0.5-0.3 1.1 0 0 0 0.1 0 0 0 0.1 0 0 0 0.1 0 0 0 0.1z"/>
		<path class="s2" d="m697.8 187.5c-2.1-9.1-4.1-17.8-6.3-26.4-0.2-0.7-0.5-2.3-3-2.2q-0.6 0-1.1 0.2-0.6 0.2-1 0.5-0.5 0.4-0.8 0.9-0.3 0.5-0.4 1.1c-0.7 4.4-1.1 8.8-2 13.2-1 4.7-1.8 9.2-2.8 14.3q2-1 4.1-1.6 2.2-0.7 4.4-0.9 2.3-0.2 4.5 0 2.3 0.3 4.4 0.9z"/>
		<path class="s2" d="m548.8 673.6l-0.1-0.4-28-0.8 0.1 0.5q0.1 1.8 0.3 3.4c0.2 2.6 0.4 5 0.7 7.5 0.2 1.6 0.6 2.5 1.4 3q0.2 0.1 0.4 0.2 0.2 0.1 0.4 0.2 0.2 0 0.5 0 0.2 0.1 0.4 0.1 0.3 0 0.6-0.1 0.3 0 0.5 0 0.3-0.1 0.6-0.1 0.2-0.1 0.5-0.1l2.6-0.6c3.8-0.9 7.7-1.8 11.7-2.4 8-1.3 8.2-1.6 7.7-9.2q0-0.1 0-0.2 0-0.1 0-0.1 0-0.1-0.1-0.2 0-0.1 0-0.2 0 0-0.1-0.1 0-0.1 0-0.1 0-0.1-0.1-0.2 0 0 0-0.1z"/>
		<path class="s2" d="m427.3 692.6l-23.8 4.4v12.4l23.8-3.9z"/>
		<path class="s2" d="m382.3 728l25-3.1c-0.6-4.6-1.1-8.4-1.7-12.3l-24.3 4.1c0.3 4 0.7 7.6 1 11.3z"/>
		<path class="s2" d="m689.9 459.1c12.1 0.3 24.3 1.1 35.5 6.2 1-1.8 0-3.3-1.5-4.1q-1-0.6-2-1.1-1.1-0.5-2.1-1-1.1-0.5-2.2-0.9-1.1-0.4-2.2-0.7-5.6-1.4-11.4-2.1-5.8-0.7-11.6-0.7-5.9 0-11.7 0.7-5.7 0.7-11.4 2-1.5 0.4-3 0.9-1.5 0.5-3 1-1.5 0.6-2.9 1.2-1.4 0.6-2.8 1.3c-1.9 0.8-3.7 2.1-3.1 5.3 11.1-6.3 23-8.3 35.4-8z"/>
		<path class="s2" d="m558.2 774.7l0.1 0.4c0.3 0.7 0.5 1.5 0.6 2.2q0.2 0.7 0.4 1.4 0.2 0.6 0.4 1.3 0.3 0.6 0.6 1.3 0.3 0.6 0.7 1.2 0.2 0.2 0.4 0.3 0.2 0.1 0.4 0.2 0.3 0.1 0.5 0.1 0.2 0 0.5 0c0.6 0 1.4-0.1 2.1-0.2 0.8-0.1 1.4-0.1 2-0.1h0.3q0.2 0 0.5 0 0.2 0 0.4-0.1 0.3 0 0.5 0 0.3 0 0.5 0l14.7-1.4 5-0.5v-11.9l-0.6 0.1c-3.4 0.7-7 1.1-10.3 1.5-6.4 0.8-12.9 1.6-19.3 4z"/>
		<path class="s2" d="m426.6 592.3l-0.7-0.3v7.4l0.6-0.2q0.8-0.2 1.5-0.5 0.2-0.1 0.5-0.2 0.3-0.1 0.6-0.2 0.3-0.1 0.6-0.2 0.3 0 0.7-0.1c2.8-0.2 4.4-1.8 6.1-3.9 3.2-3.7 6-7.7 8.9-11.6 4.9-6.8 10-13.8 16.6-19.7l0.7-0.6-0.9-0.3c-5-1.3-8.5-0.1-11.8 4-2.8 3.6-6 6.9-9 10.3-2.1 2.2-4.2 4.5-6.2 6.8q-0.7 0.8-1.4 1.7-0.7 0.9-1.3 1.9-0.6 0.9-1.2 1.9-0.5 0.9-1 1.9l-0.2 0.3c-1 1.7-1.4 2.5-3.1 1.6z"/>
		<path class="s2" d="m441.1 671l-19.4 3.2 0.8 16.2 18.6-3.4v-16z"/>
		<path class="s2" d="m752 715.1c0.1 0.4 0.6 0.5 1.1 0.6h0.2l7.3 1.9 2.8 0.7 0.1-0.5q0.1-1.1 0.2-2.2c0.2-1.6 0.4-3.1 0.4-4.7 0.2-3.8-1.2-5.4-5.2-6.3-4.1-1-7.6-1.9-10.8-3-2.6-0.8-5-1.7-7.7-2.7l-3.6-1.4-0.7-0.3v3.3c0 8.2 0.2 8.4 8.6 10.6l0.4 0.1c0.5 0.1 1 0.2 1.6 0.3 2.4 0.5 4.6 0.9 5.3 3.6z"/>
		<path class="s2" d="m432 713.4c-0.5-1.2-0.2-2.5-2-2.9-1.4-0.3-2.8-1.3-4-1.2-4.5 0.6-8.9 1.3-13.3 2.3-1.4 0.2-3.5 0.4-3.3 2.6 0.4 3.2 0.9 6.4 1.4 9.5l23.2-2.9 1.4-4.5c-1.6-1.3-3-1.9-3.4-2.9z"/>
		<path class="s2" d="m811.3 986.1c-5.2-0.2-10.4-0.2-15.4-0.1h-4.7l0.9 13.3h20.7l0.2-0.2c2.1-3.1 1.6-6.1 1.1-9q-0.2-0.8-0.3-1.6c-0.2-1-1.5-2.4-2.5-2.4z"/>
		<path class="s2" d="m801.8 724.8l8.3 2.3q0.2 0.1 0.4 0.1 0.2 0.1 0.4 0.1 0.2 0.1 0.4 0.1 0.2 0.1 0.4 0.1l4.8 0.9 2.6 0.4 0.8-15.4h-0.4l-3.2-0.3c-2.4-0.3-4.7-0.5-7-0.8-2.3-0.3-4.6-0.7-7-1l-3.4-0.5-0.6-0.1 0.7 13.3z"/>
		<path class="s2" d="m587.5 909.5l0.6 0.1v-3.4c0-2.8 0-5.5-0.1-8.2q-0.1-0.3-0.3-0.7-0.2-0.3-0.5-0.6-0.3-0.2-0.6-0.4-0.4-0.2-0.8-0.3c-5.4 0.1-10.8 0.3-16.4 0.5l-5 0.2-1.8 13.2 2.2-0.3c7.7-1.2 15-2.3 22.7-0.1z"/>
		<path class="s2" d="m588.8 734.2l-20.7 2.8 1.2 16.2 19.5-5.7v-13.3z"/>
		<path class="s2" d="m809.1 706.2c0-2.8 0-5.4 0-7.9q-0.1-0.4-0.2-0.7-0.1-0.3-0.3-0.5-0.1-0.3-0.4-0.5-0.2-0.2-0.5-0.3c-5.1-1.3-10.2-2.4-15.5-3.7l-4.5-1v15l21.4 2.9z"/>
		<path class="s2" d="m637.8 840.5v-0.3l-25.4-3 1.6 12.7 5.7 0.4c4.5 0.3 9.3 0.6 14.1 0.9h0.7q0.4 0 0.8 0 0.5-0.1 0.9-0.2 0.4-0.1 0.8-0.3 0.3-0.2 0.7-0.5c0.7-0.8 1-1.9 1-3.6q-0.1-0.5-0.1-1-0.1-0.5-0.1-1-0.1-0.6-0.2-1.1-0.1-0.5-0.1-1c-0.2-0.7-0.3-1.3-0.4-2z"/>
		<path class="s2" d="m697.7 661h0.6c3.4-0.1 6.9-0.1 10.2-0.1h5.3l-0.5-0.7-1.7-2.4c-1.4-2-2.8-4-4.3-6q-0.3-0.4-0.7-0.8-0.4-0.3-0.9-0.6-0.4-0.3-0.9-0.5-0.5-0.2-1.1-0.3c-5.7-0.6-11.6-1.1-17.3-1.6l-5.7-0.5h-0.3l-1 1.8 0.3 0.2q1.3 1.1 2.5 2.1c1.9 1.6 3.8 3.2 5.5 4.9 3.1 3 6.3 4.5 10 4.5z"/>
		<path class="s2" d="m744.3 605.4l-1.1-1.5-4-4.7q-2.6-3.1-5.2-6.3-3.1-3.7-6.2-7.5-4.4-5.4-8.8-10.7c-3.2-3.9-7.9-5-13.2-5.9l-1.4-0.2 0.9 1 3.5 3.9c2.4 2.6 4.6 5.1 6.7 7.6l4.7 5.4c4.3 4.8 8.7 9.8 12.6 15.1q0.8 1.3 2 2.3 1.1 1 2.5 1.7 1.4 0.7 2.9 1 1.6 0.4 3.1 0.3h2.1l-0.6-0.7z"/>
		<path class="s2" d="m887.9 714.8l-3.9-0.9-8.4-1.9c-0.7-0.1-1.3-0.3-2-0.5-3.1-0.9-6.4-1.8-9.7 0.9l-0.2 0.2-0.4 7.8 23.5 7.8z"/>
		<path class="s2" d="m666.4 659.8c3 0.1 6 0.1 8.9 0.1h10l-0.7-0.8q-0.9-1.1-2-2.3-0.6-0.7-1.2-1.4-0.6-0.7-1.1-1.4-0.6-0.7-1.1-1.5-0.6-0.7-1.1-1.5c-1.8-2.7-3.9-3.9-7.4-4.2-3.6-0.3-7.2-0.8-11.1-1.4q-2.4-0.4-5-0.7l-0.8-0.2 0.3 0.8q0.2 0.5 0.4 1 0.1 0.2 0.2 0.4 0 0.2 0.1 0.3 0.1 0.2 0.2 0.4 0.1 0.2 0.3 0.4c2.7 3.5 5.2 6.7 7.8 9.9 0.6 0.6 1.9 2.1 3.3 2.1z"/>
		<path class="s2" d="m545 1034.2q0.1 0.4 0.3 0.8 0.2 0.3 0.5 0.6 0.3 0.4 0.7 0.6 0.3 0.2 0.8 0.3c3 0.4 5.8 0.7 9 1l3.2 0.3h0.4l1.5-18.1-16.2-1.3-0.1 0.3q-0.1 0.3-0.2 0.4-0.1 0.1-0.1 0.2-0.1 0.1-0.1 0.2 0 0.1-0.1 0.2 0 0.1 0 0.2v2.6c0.1 3.8 0.2 7.8 0.4 11.7z"/>
		<path class="s2" d="m550.7 893.4q0.1 0 0.2 0 0.1 0 0.2 0 0.1 0 0.3 0 0.1-0.1 0.2-0.1c4.8-0.6 9.6-1.3 14.5-2l6.2-0.8-0.9-10.1-28.7 2.3 1.7 3.2c0.9 1.8 1.7 3.4 2.5 5q0.2 0.6 0.6 1 0.4 0.5 0.9 0.8 0.5 0.4 1.1 0.5 0.6 0.2 1.2 0.2z"/>
		<path class="s2" d="m619.7 880.5c-4.2-0.3-8.5-0.6-12.6-0.8l-3.6-0.3v0.5q-0.2 1.3-0.4 2.5c-0.3 1.7-0.5 3.1-0.6 4.5-0.1 1.5-0.1 3-0.1 4.6v2.8h18.1l0.1-0.3 0.5-1.1c0.4-1 0.9-2 1.4-3 1-2 0.2-7.1-1.3-8.7q-0.2-0.2-0.3-0.3-0.2-0.1-0.4-0.2-0.2 0-0.4-0.1-0.2 0-0.4-0.1z"/>
		<path class="s2" d="m663.3 560l0.4 0.6 2.1 3.7c1.5 2.8 3.1 5.6 4.6 8.4 2.9 5.6 5.7 11.4 8.6 17.4 1.7 3.7 4.1 7 9.7 6.8q0.3 0 0.5 0 0.3 0 0.6 0.1 0.3 0 0.6 0.1 0.3 0.1 0.6 0.1c0.5 0.2 1 0.3 1.7 0.4l1 0.2-0.5-0.9c-3.9-7.1-8.6-15.3-14.9-22.7-3.3-3.9-6.4-7.9-9.2-11.9-1.4-2-3-2.7-5.1-2.4z"/>
		<path class="s2" d="m591.5 828.3v3.3l14.6 1.8 0.2-0.3c0.2-0.5 0.5-0.9 0.9-1.5q0.3-0.4 0.5-0.9 0.3-0.4 0.5-0.9 0.2-0.5 0.4-1 0.1-0.5 0.3-1 0-0.9 0.1-1.8 0-0.9 0-1.8 0-0.9 0-1.8-0.1-0.9-0.2-1.8c0-0.5 0-1 0-1.4q-0.1-0.4-0.2-0.7-0.2-0.3-0.4-0.6-0.2-0.3-0.5-0.5-0.2-0.2-0.6-0.3-0.6-0.1-1.3-0.1-0.7-0.1-1.3-0.1-0.7-0.1-1.3-0.1-0.7 0-1.4 0l-2.2-0.1q-0.7-0.1-1.3-0.1-0.7 0-1.3 0-0.7 0-1.4 0-0.6 0-1.3 0.1c-0.8 0-2.7 0.8-2.7 1.7-0.1 3.3-0.1 6.7-0.1 9.9z"/>
		<path class="s2" d="m468 653.3c3.5 0.2 6.8 0.3 10 0.4h2.1q0.8 0.1 1.6 0 0.8-0.2 1.5-0.5 0.7-0.3 1.3-0.8 0.6-0.4 1.1-1.1c2.1-2.6 4.4-5.2 6.8-7.9 1.1-1.2 2.2-2.4 3.4-3.7l0.6-0.7-0.9-0.1-1.3-0.1q-0.1 0-0.2 0-0.1 0-0.2 0-0.1 0-0.2 0-0.2 0-0.3 0l-2 0.2c-5.2 0.7-10.6 1.3-15.9 2q-0.3 0.1-0.6 0.2-0.3 0.1-0.6 0.3-0.2 0.2-0.5 0.4-0.2 0.3-0.3 0.5c-2.1 3.9-5.3 6.9-10.3 9.8l-1.4 0.8 1.7 0.1z"/>
		<path class="s2" d="m834.3 702.4l-22.6-5.2v12.5l22.6 3.3v-10.6z"/>
		<path class="s2" d="m593.1 531.4h-0.5q-0.1 0-0.3-0.1-0.2 0-0.3 0-0.2 0-0.4 0-0.2-0.1-0.3-0.1-0.3-0.1-0.6-0.2-0.3-0.1-0.6 0-0.4 0-0.6 0.1-0.3 0.1-0.6 0.3-0.2 0.2-0.4 0.4-0.1 0.3-0.2 0.6-0.1 0.3-0.1 0.6-0.1 0.3 0 0.6c0 0.8 0.1 1.5 0.1 2.3 0.1 2 0.3 4.1 0.3 6.2v9l16.4-0.7-0.2-0.6q-0.6-2.1-1.1-4c-0.9-3-1.7-5.8-2.6-8.5-1.7-5.3-2-5.5-8-5.9z"/>
		<path class="s2" d="m610 849.6l0.2-0.3c1.8-3.3 0.8-6.4-0.2-9.3q-0.3-1.2-0.6-2.4c-0.2-0.8-1.7-1.1-2.2-1.2l-2-0.5c-2.7-0.5-5.5-1.1-8.3-1.4q-0.5 0-1.1 0-0.5 0-1.1 0-0.5 0-1 0.1-0.6 0-1.1 0.1-1 0.2-2.1 0.3h-0.5l1.1 11.9z"/>
		<path class="s2" d="m399.8 710v-12.2c-5.3 0.9-10.2 1.6-15 2.6q-0.5 0.1-0.9 0.4-0.4 0.2-0.8 0.4-0.3 0.3-0.6 0.7-0.3 0.4-0.5 0.8c-0.8 3.3-1.2 6.8-1.7 10.6z"/>
		<path class="s2" d="m568.6 548.4l-0.2 0.7 17.5 0.7v-18.3l-0.4-0.1-2-0.3c-1.5-0.2-2.8-0.4-4-0.5q-0.3-0.1-0.6 0-0.3 0-0.6 0.1-0.3 0-0.6 0.2-0.3 0.1-0.5 0.3c-3.9 4.2-5.6 9.2-7.5 14.4-0.4 0.9-0.7 1.9-1.1 2.8z"/>
		<path class="s2" d="m540.9 720.7l0.1 0.5 15.5-1.6-1.9-17.5-13.9 2.2-0.7 0.1 0.4 0.7c0.4 0.5 0.4 4.7 0.3 7.8q-0.1 3.9 0.2 7.8z"/>
		<path class="s2" d="m861.6 708.7l-24.6-5.7v10l23.8 7.1 0.8-11.4z"/>
		<path class="s2" d="m591.5 720.2v8.1q0 0.9 0.3 1.8 0.3 0.9 0.9 1.5 0.6 0.7 1.4 1.1 0.8 0.4 1.7 0.5 3 0.4 6.4 0.7l3.2 0.4h0.5l1.1-17-15.5-1.5z"/>
		<path class="s2" d="m871.5 739.5v-13.8l-19.5-5.1 1.6 13.8 17.9 5.1z"/>
		<path class="s2" d="m595.9 926.4h-3.8v14.8l0.6-0.1 1.1-0.2c0.8-0.1 1.4-0.3 2-0.3l1.2-0.2q0.4-0.1 0.9-0.1 0.4-0.1 0.9-0.1 0.4 0 0.9 0 0.4 0 0.9 0c1.7 0.2 3.4 0.5 5.2 0.8l2.4 0.4 0.5 0.1 0.1-0.4c1.2-4.5 2.3-8.7-0.4-12.7-0.3-0.5-1.3-1.9-2.4-1.9-3.4-0.1-6.8-0.1-10.1-0.1z"/>
		<path class="s2" d="m807.1 648c-4.5-5.7-9.2-11.7-14-17.3l-1.3-1.6 0.5 2q0.2 0.7 0.4 1.4 0.2 0.7 0.6 1.4 0.3 0.7 0.6 1.3 0.4 0.6 0.8 1.3c8.6 13.1 15.8 24 22.5 34.1q0.3 0.3 0.5 0.6 0.3 0.3 0.7 0.6 0.3 0.3 0.7 0.5 0.3 0.3 0.7 0.4c2.9 1.6 5.8 3 9.2 4.6q0.3 0.2 0.6 0.3 0.4 0.1 0.7 0.3 0.3 0.1 0.6 0.2 0.4 0.1 0.7 0.2l1.1 0.5 2.3 0.9-1.9-1.7c-9.7-9.2-18-19.8-26-30z"/>
		<path class="s2" d="m598.8 999.8h1.6c1.4 0 2.8 0 3.4-0.7 0.9-0.9 1-2.3 1-3.7q-0.1-0.2-0.1-0.3 0-0.2 0.1-0.3 0-0.2 0-0.3 0-0.2 0-0.4c0.4-2.8 0.7-5.5 1-8.2l0.4-3.6-14.6-0.8v18.9l2.5-0.2z"/>
		<path class="s2" d="m491.9 695.4c4.5-1.2 4.5-1.2 4.1-6.6h-22.5q-0.5 0-1 0.1-0.5 0.1-0.8 0.4-0.4 0.4-0.7 0.8-0.2 0.4-0.2 0.9 0 0.1-0.1 0.2 0 0.1 0 0.1 0 0.1 0 0.2 0.1 0.1 0.1 0.2c0.1 2.9 0.3 5.7 0.5 9.1 7.2-1.9 13.9-3.6 20.6-5.4z"/>
		<path class="s2" d="m606.7 785.3q-1.4 0.2-2.8 0.5c-3.9 0.8-7.6 1.5-11.6 0l-0.6-0.3v11.9h19.7v-0.4q0.2-0.9 0.4-1.9c0.3-1.4 0.7-3 0.9-4.5 0.3-2.6 0.1-4-0.8-4.8-1-1-2.8-0.9-5.2-0.5z"/>
		<path class="s2" d="m550.2 838.4l1.9 12.9 17.4-1.3v-13.2l-19.3 1.6z"/>
		<path class="s2" d="m528.5 706.5c-2.1 0.5-4 1-5 1.1l-0.4 0.1v0.5c0 0.1 1 11.9 1.6 16l0.1 0.4 13.8-1.8-2.3-18-0.5 0.1z"/>
		<path class="s2" d="m620.3 802.1c-3.1-0.5-6.3-1-9.4-1.5l-3.8-0.6q-0.3 0-0.7-0.1-0.3 0-0.6 0.1-0.3 0.1-0.6 0.2-0.2 0.1-0.5 0.3-0.2 0.2-0.3 0.5-0.2 0.3-0.3 0.5 0 0.3 0 0.6-0.1 0.3 0 0.6c0.2 2.6 0.4 5.2 0.6 7.9l0.3 3.6 4.1 0.4c3.1 0.3 6.1 0.5 9.1 0.8h0.6q0.5 0.1 0.9-0.1 0.4-0.1 0.7-0.4 0.4-0.2 0.6-0.6 0.2-0.4 0.2-0.9v-0.1l0.3-1.9c0.3-2.3 0.6-4.8 0.7-7.2q-0.1-0.3-0.2-0.7-0.2-0.3-0.4-0.6-0.3-0.2-0.6-0.4-0.3-0.2-0.7-0.4z"/>
		<path class="s2" d="m585.8 982.3q-0.6 0-1.3-0.1-0.6 0-1.2 0-0.7 0.1-1.3 0.1-0.6 0.1-1.3 0.1h-0.2c-2 0.3-4.6 0.7-5.1 3.3q-0.4 1.8-0.5 3.6-0.2 1.8-0.1 3.7 0.1 1.8 0.4 3.6 0.4 1.8 0.9 3.5l0.1 0.4 2.9-0.4c2.8-0.3 5.5-0.7 8.2-1.1q0.2-0.1 0.5-0.2 0.2-0.2 0.4-0.4 0.2-0.2 0.4-0.5 0.1-0.3 0.1-0.6c0.1-3.8 0.1-7.7 0-11.5v-3.5h-0.4q-1.3 0-2.5 0z"/>
		<path class="s2" d="m574.1 944.3h-0.5l-2.8 0.1c-2.9 0.1-5.5 0.2-8.3 0.4q-0.3 0.1-0.7 0.3-0.3 0.2-0.5 0.5-0.3 0.2-0.5 0.6-0.2 0.3-0.3 0.6c-0.3 3.7-0.5 7.4-0.7 11l-0.3 4 14.7-1.4z"/>
		<path class="s2" d="m782.3 874.4l1-0.4c-0.4-3.9-0.4-7.7-1.4-11.5-2.4-10.3-7.2-19.3-16.9-25.5-1.8-1.1-3.1-1.6-4.7 0q-0.4 0.3-0.7 0.6-0.4 0.3-0.7 0.5-0.4 0.3-0.7 0.5-0.4 0.2-0.8 0.4c2 1 3.3 1.4 4.2 2.2 2.8 2.6 5.8 5 8.1 8 5.4 6.9 9.6 14.5 10.9 23.2 0.1 0.7 1.1 1.3 1.7 2z"/>
		<path class="s2" d="m666.5 716.5c-0.4 2.7-0.7 5.2-1 7.8q-0.1 0.4-0.1 0.9 0.1 0.4 0.3 0.8 0.2 0.4 0.6 0.7 0.3 0.3 0.8 0.4 0 0 0.1 0 0.1 0 0.2 0 0.1 0 0.1 0.1 0.1 0 0.2-0.1l2.5 0.3c3.2 0.4 6.5 0.8 9.7 1.3q0.1 0 0.2 0 0.1 0 0.3 0 0.1 0 0.2 0 0.1 0 0.2 0 0.3 0.1 0.5 0 0.3 0 0.5-0.1 0.2-0.1 0.5-0.2 0.2-0.1 0.4-0.2 0.2-0.3 0.4-0.6 0.2-0.3 0.4-0.7 0.1-0.3 0.1-0.7 0.1-0.3 0-0.7v-8.6l-16.6-3.9z"/>
		<path class="s2" d="m701.3 861.2q0.1 0 0.3 0 0.1 0 0.3 0.1 0.1 0 0.2 0 0.2 0 0.3 0 0.3 0 0.5 0 0.2-0.1 0.5-0.1 0.2-0.1 0.4-0.2 0.3-0.2 0.5-0.3 0.2-0.3 0.4-0.6 0.2-0.4 0.3-0.7 0.1-0.4 0.1-0.8 0.1-0.3 0-0.7c-0.1-1.8-0.3-3.5-0.6-5.2q-0.2-1.1-0.3-2.2v-0.4l-19-3.7v12.2l0.4 0.1 4.8 0.7c3.8 0.6 7.3 1.1 10.9 1.8z"/>
		<path class="s2" d="m602.4 531.6l-0.5 0.1 6 18.6h15.6l-0.4-0.7q-0.2-0.5-0.4-1-0.1-0.2-0.2-0.5-0.2-0.2-0.3-0.5-0.1-0.2-0.3-0.5-0.1-0.2-0.3-0.5c-1.4-1.7-2.8-3.4-4.2-5-2-2.5-4.2-5-6.2-7.7-2.5-3.2-5.7-3-8.8-2.3z"/>
		<path class="s2" d="m381.3 682.2c-0.1 4.9-0.1 9.3 0 13.4q0.1 0.2 0.1 0.3 0.1 0.2 0.2 0.3 0.1 0.1 0.2 0.3 0.1 0.1 0.2 0.2 0.2 0.1 0.4 0.2 0.1 0.1 0.3 0.2 0.2 0.1 0.4 0.2 0.2 0 0.4 0.1h0.2c2.5-0.4 5.1-0.9 7.7-1.4l2.7-0.5 0.4-0.1-0.2-2.8q-0.2-2.6-0.4-5.2-0.1-2.6-0.2-5.4l-0.2-3.3-0.5 0.1-2.6 0.4c-2.5 0.4-4.9 0.8-7.3 1.2-0.8 0.2-1.8 1.1-1.8 1.8z"/>
		<path class="s2" d="m615.3 926.4q0.2 0 0.5 0.1 0.2 0 0.4 0.1 0.2 0 0.5 0 0.2 0 0.4 0 0.2 0 0.4 0 0.2 0 0.4-0.1 0.2 0 0.4-0.1 0.2-0.1 0.4-0.2 0.3-0.1 0.6-0.4 0.2-0.2 0.4-0.5 0.2-0.2 0.3-0.5 0.1-0.3 0.2-0.7 0.2-0.6 0.3-1.3 0.2-0.7 0.3-1.4 0-0.7 0-1.4 0.1-0.7 0-1.4c-0.6-4.9-1.4-5.2-6.4-5.4-1 0-2.1 0-3.1 0.1-3.1 0.2-6 0.4-8.7-1.9l-0.8-0.6v12.2l0.4 0.1 4.1 1c3.1 0.7 6.1 1.4 9 2.3z"/>
		<path class="s2" d="m562.2 766.9q0 1.5 0 3v0.5l16.2-2.4-1-14-0.5 0.1-3.4 0.5c-2.8 0.4-5.4 0.8-8.1 1.3-1 0.3-3.1 1.3-3.1 2.4q-0.1 1.1-0.1 2.1-0.1 1.1-0.1 2.2 0 1.1 0 2.1 0 1.1 0.1 2.2z"/>
		<path class="s2" d="m838.5 989.1q0.1 1 0.3 2 0 0.4 0.1 0.8 0.1 0.5 0.1 0.9 0 0.5 0.1 0.9 0 0.4 0 0.9c0 2.2 1.4 2.5 2.8 2.6 2.3 0 4.6 0.1 6.9 0.2 2.6 0.1 5.3 0.2 8 0.2h0.2q0.4 0 0.8 0 0.4 0 0.8-0.1 0.5 0 0.9-0.1 0.4 0 0.8 0l1.3-0.2h0.5l-1.4-10.9-22.2 2.3z"/>
		<path class="s2" d="m532 852.8l17.6-1.3-2-12.9-15.6 1.3v12.9z"/>
		<path class="s2" d="m618.9 719.9h14.1v-13.9l-14.1-2.3v16.2z"/>
		<path class="s2" d="m571.8 530.1q-0.4 0.1-0.8 0.2-0.3 0.1-0.7 0.2-0.4 0.1-0.9 0.1-0.4 0-0.8 0c-3.6-0.5-5.8 1.4-8.1 3.7-3.7 3.8-6.3 8.4-9 13.5l-0.3 0.7 14.5-0.9 8.6-18.2-1 0.2z"/>
		<path class="s2" d="m587.7 878.5q-0.3-0.3-0.6-0.4-0.4-0.1-0.8-0.2-0.3-0.1-0.7 0-0.4 0-0.8 0.1l-1.4 0.2q-0.8 0.1-1.5 0.2-0.7 0.1-1.4 0.2-0.8 0-1.5 0.1-0.7 0-1.4 0.1-0.5-0.1-0.9-0.1-0.4 0.1-0.7 0.2-0.4 0.1-0.8 0.3-0.3 0.2-0.6 0.5-0.3 0.3-0.4 0.6-0.2 0.4-0.2 0.8-0.1 0.3-0.1 0.7 0 0.4 0.1 0.7c0.3 2.5 0.4 5 0.6 7.5q0.1 1.6 0.2 3.2v0.4h13.6v-4.3c0-3-0.1-5.7 0-8.5q0.1-0.3 0-0.7 0-0.3-0.1-0.6-0.1-0.3-0.2-0.5-0.2-0.3-0.4-0.5z"/>
		<path class="s2" d="m589.2 943.9l-12.3 0.7v3.8c0 3.7 0 7.2 0.1 10.7q0 0.2 0.1 0.3 0 0.2 0.1 0.4 0.1 0.1 0.2 0.2 0.2 0.2 0.3 0.3 0.2 0.2 0.4 0.3 0.2 0.2 0.4 0.3 0.3 0.1 0.5 0.2 0.3 0.1 0.5 0.1c2.2-0.1 4.4-0.3 6.7-0.6l2.5-0.3h0.4z"/>
		<path class="s2" d="m613.5 717.5q1.1 0.5 2.3 1.1l0.7 0.3v-15.5l-14.4-3.5v14l0.4 0.1q1.2 0.3 2.3 0.5 0.6 0.1 1.2 0.2 0.6 0.2 1.1 0.3 0.6 0.2 1.2 0.3 0.5 0.2 1.1 0.4 0.5 0.2 1 0.4 0.6 0.2 1.1 0.4 0.5 0.2 1 0.5 0.5 0.2 1 0.5z"/>
		<path class="s2" d="m835.7 988.4q-0.1-0.1-0.2-0.3-0.1-0.1-0.2-0.2-0.1-0.1-0.2-0.1-0.1-0.1-0.3-0.1-2.2-0.5-4.4-0.8-2.3-0.3-4.6-0.4-2.2-0.1-4.5-0.1-2.3 0-4.5 0.2l-0.5 0.1 0.9 11.7h0.5c0.4 0 0.8 0 1.2-0.1q0.3 0 0.6 0 0.3 0 0.6 0 0.3-0.1 0.6-0.2 0.3 0 0.6-0.1 1.1-0.5 2.2-0.8 1.2-0.3 2.3-0.4 1.2-0.1 2.3 0 1.2 0 2.3 0.2c1.6 0.3 3.8 0.5 5-0.2 1.9-1.3 1.4-3 1-4.5q-0.1-0.3-0.1-0.6-0.1-0.3-0.1-0.6-0.1-0.2-0.1-0.5 0-0.3 0-0.6 0.1-0.2 0-0.5 0-0.2 0-0.4-0.1-0.2-0.2-0.4-0.1-0.1-0.2-0.3z"/>
		<path class="s2" d="m556.2 729.9q0 0.7 0.1 1.3 0 0.6 0.1 1.2 0.1 0.6 0.2 1.2 0.2 0.6 0.3 1.2 0.2 1.1 0.4 2.1l0.1 0.5 15.8-4-1.2-14-0.6 0.3-3.7 1.7c-3.4 1.5-6.5 2.9-9.6 4.6q-0.4 0.3-0.8 0.8-0.3 0.4-0.6 0.9-0.2 0.5-0.4 1.1-0.1 0.6-0.1 1.1z"/>
		<path class="s2" d="m627.9 929.6l-15.9-1.1v13.1l15.3 1.1 0.6-13.1z"/>
		<path class="s2" d="m549 532.9c-3.9 3.7-7.6 7.7-11.3 11.7q-0.2 0.3-0.5 0.6-0.2 0.3-0.5 0.7-0.2 0.3-0.4 0.6-0.2 0.4-0.4 0.8l-0.9 1.6-0.6 0.8 1-0.1 3.1-0.3c2.8-0.2 5.4-0.4 7.9-0.7q0.3-0.1 0.7-0.2 0.3-0.1 0.6-0.2 0.3-0.2 0.5-0.4 0.3-0.2 0.5-0.5c2.8-4.2 5.4-8.4 8-12.5l2.6-4.2h-0.8c-5.3-0.6-6.5-0.6-9.5 2.3z"/>
		<path class="s2" d="m469.9 642.1l0.4-0.8-0.9 0.1-4.4 0.5c-3.3 0.3-6.5 0.7-9.7 1.1q-0.7 0.1-1.5 0.2-0.8 0-1.5 0.2-0.8 0.1-1.6 0.2-0.7 0.2-1.5 0.5-0.7 0.2-1.5 0.6-0.9 0.5-1.7 1-0.9 0.6-1.8 1.1-0.8 0.6-1.6 1.2-0.9 0.7-1.6 1.3-1.4 1-2.7 2l-0.9 0.7 1.1 0.2q1 0.2 2 0.3 1.1 0.2 2.1 0.3 1.1 0.1 2.1 0.2 1.1 0 2.1 0c11.6 0 19.9-5.2 23.1-10.9z"/>
		<path class="s2" d="m564.7 855.1q0 0.4 0.1 0.8 0 0.3 0 0.7 0 0.4 0.1 0.8 0 0.4 0.1 0.8 0 0.4 0.2 0.9 0.1 0.5 0.4 0.9 0.2 0.4 0.5 0.8 0.4 0.3 0.7 0.6 0.3 0.2 0.7 0.3 0.3 0.2 0.6 0.3 0.3 0.1 0.7 0.1 0.3 0 0.7 0 0.1 0 0.3 0 0.2 0 0.4 0 0.2 0 0.4-0.1 0.1 0 0.3 0 1.2-0.3 2.4-0.5c1.9-0.4 3.7-0.9 5.6-1.1 2-0.3 4.2-0.4 6.2-0.5l2.5-0.1h0.5v-8.6l-23.5 1.8v0.5c0.1 0.5 0.1 1.1 0.1 1.6z"/>
		<path class="s2" d="m586.8 848.6v-13.2h-0.5c-0.9 0.1-1.9 0.1-2.9 0.2q-0.9 0.1-1.8 0.1-0.9 0.1-1.8 0.2-0.9 0.1-1.8 0.2-0.9 0.1-1.8 0.3-0.6 0.1-1.1 0.4-0.6 0.2-1 0.6-0.5 0.4-0.9 0.8-0.4 0.4-0.7 1c-2 3.5-0.9 7.3 0.3 10.2l0.2 0.3z"/>
		<path class="s2" d="m551.1 746.9q0.1 0.2 0.1 0.5 0 0.2 0 0.4 0 0.2 0.1 0.4 0 0.2 0.1 0.4 0 0.4 0.1 0.7c0.4 2.5 0.6 3.7 1.4 4.3 0.9 0.5 2.2 0.3 4.9-0.4h0.1l0.9-0.2c2-0.5 3.9-1 6 0.9l0.5 0.5 0.3-0.7c1.4-4.4 0.9-8.4 0.3-12.6-0.2-0.9-0.3-1.9-0.4-2.8l-0.1-0.6-3.9 1.4-7.1 2.6c-2.2 0.8-3.3 2.5-3.3 5.2z"/>
		<path class="s2" d="m514.6 842.7c-0.1 2.7-0.1 5.4-0.1 8.2v3.3l14.6-1.1v-12.9l-3.5 0.2c-3.2 0.2-6.1 0.4-9.1 0.7-0.7 0.1-1.9 0.9-1.9 1.6z"/>
		<path class="s2" d="m864.5 994.4q0.2 1 0.4 1.9l0.1 0.4h4.5c3 0 5.8 0 8.6 0.1h0.3q0.4 0 0.7 0 0.4 0 0.7-0.2 0.3-0.1 0.6-0.3 0.3-0.1 0.6-0.4 0.2-0.3 0.4-0.6 0.1-0.3 0.2-0.7 0.1-0.4 0.1-0.7 0-0.4-0.1-0.8c-0.2-1.3-0.5-2.7-0.8-4.2q-0.2-1.1-0.5-2.5l-0.1-0.4h-4.3c-3.1 0-6.1 0-9.1 0q-0.4-0.1-0.7 0-0.4 0-0.7 0.1-0.3 0.1-0.6 0.3-0.3 0.1-0.6 0.4-0.2 0.2-0.3 0.5-0.1 0.2-0.2 0.5-0.1 0.3-0.1 0.5 0 0.3 0 0.6 0.1 0.7 0.2 1.4 0.1 0.7 0.2 1.4 0.1 0.7 0.2 1.4 0.2 0.6 0.3 1.3z"/>
		<path class="s2" d="m585.2 718.8q-0.9 0.2-1.7 0.3-0.8 0.2-1.7 0.3-0.8 0.1-1.7 0.1-0.8 0.1-1.7 0.2-0.6-0.1-1.2 0-0.6 0.2-1.1 0.5-0.5 0.4-0.8 0.9-0.4 0.6-0.5 1.2 0 0.2 0 0.3 0 0.2 0 0.4 0 0.2 0 0.3 0.1 0.2 0.1 0.4c0.2 2.1 0.5 4.2 0.8 6.4q0.2 1.4 0.4 2.9l0.1 0.5 12.6-1.6v-13.6l-0.5 0.1q-1.6 0.2-3.1 0.4z"/>
		<path class="s2" d="m635.7 706.5v14.3h3.8c2.5 0 4.9 0 7.3 0h0.2q0.5 0.1 0.9 0 0.5-0.2 0.8-0.5 0.4-0.3 0.7-0.7 0.2-0.4 0.2-0.9 0 0 0.1-0.1 0 0 0-0.1 0-0.1 0-0.1-0.1-0.1-0.1-0.2 0.1-3 0-6v-3z"/>
		<path class="s2" d="m722 855.3c-0.1-0.9-0.3-1.8-0.4-2.7v-0.4l-14.6-1.6 0.7 10.7 3.3 1.1c2.5 0.8 5 1.7 7.5 2.5q0.2 0.1 0.4 0.2 0.2 0 0.4 0 0.2 0.1 0.4 0.1 0.2 0 0.3 0 0.3 0 0.5 0 0.2-0.1 0.5-0.1 0.2-0.1 0.4-0.2 0.2-0.1 0.4-0.3c0.6-0.4 1.2-1.4 1-3.3-0.3-2-0.5-3.9-0.8-6z"/>
		<path class="s2" d="m776.7 615.1c-1.4-1.8-2.8-3.5-4.2-5.1-6.8-7.8-14-15.8-21-23.7q-0.4-0.3-0.8-0.7-0.4-0.4-0.8-0.7-0.5-0.3-0.9-0.6-0.5-0.3-0.9-0.6-0.9-0.5-1.7-1.1l-0.3-0.2-1.1 1.2 0.3 0.3q2 2.4 4 4.8c3 3.6 6.2 7.3 9.1 11l1.9 2.4q1.1 1.3 2.2 2.6 1 1.4 2 2.8 1 1.4 1.9 2.8 1 1.5 1.8 3c2.3 4.4 5.7 5 9.3 5h1.8l-0.6-0.8q-1-1.2-2-2.4z"/>
		<path class="s2" d="m405.9 649q-0.3 0.1-0.5 0.1-0.3 0.1-0.5 0.3-0.2 0.1-0.4 0.3-0.2 0.1-0.4 0.3-0.1 0.1-0.2 0.1 0 0.1-0.1 0.1-0.1 0.1-0.2 0.2 0 0-0.1 0.1l-3.2 2.5q-3.2 2.4-6.5 4.7-0.2 0.2-0.5 0.4-0.3 0.2-0.6 0.4-0.3 0.2-0.5 0.3-0.3 0.2-0.6 0.3l-1.1 0.7-0.3 0.2 0.4 1.4 4.9-1q5.8-1.2 11.7-2.4l0.5-0.1c1.4-0.2 3-0.5 3.7-2.4q0.2-0.2 0.4-0.3 0.2-0.2 0.5-0.2 0.2-0.1 0.5-0.2 0.2 0 0.5-0.1 1.5-0.1 2.9-0.6 1.5-0.6 2.7-1.5 1.2-1 2.1-2.2 0.8-1.3 1.3-2.7l0.3-0.7-4.8 0.5c-4.1 0.5-8 1-11.9 1.5z"/>
		<path class="s2" d="m700.8 732.3l0.6-11.8-15.1-3.3v12l14.5 3.1z"/>
		<path class="s2" d="m640.7 851.4v0.4l15.8 1.4v-0.5c0-0.7 0.1-1.5 0.2-2.2 0.1-2.1 0.2-4.1 0.1-6.1 0-0.8-1.3-1.8-2.1-1.9-1.8-0.3-3.8-0.6-5.7-0.9-1.8-0.2-3.8-0.5-5.7-0.8q-0.2-0.1-0.5-0.1-0.3-0.1-0.6 0-0.3 0-0.6 0.1-0.2 0.1-0.5 0.3-0.2 0.2-0.3 0.5-0.1 0.3-0.2 0.6-0.1 0.3-0.1 0.6 0 0.3 0.1 0.6c0.1 1.8 0.1 3.5 0.1 5.4 0 0.8 0 1.7 0 2.6z"/>
		<path class="s2" d="m875.2 740.6c2.7 0.9 5.4 1.7 8.3 2.5l3.3 1v-13l-12.8-4.4v11.8c0.1 0.6 0.5 1.8 1.2 2.1z"/>
		<path class="s2" d="m587.9 912.4l-0.3-0.1c-0.7-0.2-1.3-0.4-2-0.6q-0.5-0.1-1-0.3-0.5-0.1-1-0.2-0.5-0.2-1-0.3-0.5-0.1-1-0.2-0.5 0-1.1-0.1-0.5 0-1 0-0.5 0-1.1 0-0.5 0-1 0h-2.3v12.7l13.7 1.4z"/>
		<path class="s2" d="m840.8 868.6l-17.5-2.6 0.9 10.6 14.7 2.8 1.9-10.8z"/>
		<path class="s2" d="m587.8 698.4q-0.2-0.3-0.5-0.4-0.2-0.2-0.5-0.3-0.3-0.1-0.6-0.2-0.4-0.1-0.7-0.1-0.6 0.1-1.2 0.2-0.7 0.1-1.3 0.2-0.6 0.1-1.2 0.3-0.7 0.1-1.3 0.3-0.9 0.2-1.8 0.4l-0.5 0.1 2.9 18.3 7.4-1.4v-4c0-4.4 0-8.5-0.1-12.7q-0.1-0.1-0.1-0.2-0.1-0.1-0.1-0.2-0.1-0.1-0.2-0.2-0.1-0.1-0.2-0.1z"/>
		<path class="s2" d="m717.9 735.4l1.6-10.9-12.7-3.3-0.2 0.3c-0.4 0.6-0.7 1.2-1.1 1.7q-0.3 0.4-0.5 0.8-0.3 0.4-0.5 0.8-0.2 0.4-0.4 0.9-0.2 0.4-0.4 0.9-0.1 0.5-0.1 1-0.1 0.5-0.1 1 0 0.5 0 1 0 0.5 0 1c0 0.7 0.1 1.3 0.1 1.9v0.4z"/>
		<path class="s2" d="m597 735.6q-0.3 0-0.5 0-0.3 0-0.6 0-0.2 0-0.5-0.1-0.3 0-0.5 0l-3.3-0.5v15.4l10.7 2v-9.4q0-0.2 0-0.4 0-0.3 0-0.5 0-0.2 0-0.4 0.1-0.2 0.1-0.5c0.1-1.7 0.2-3.6-0.8-4.5-1-1-2.9-1-4.6-1.1z"/>
		<path class="s2" d="m733.2 707.4v-9.9h-32.2l0.1 1.1 32.1 8.8z"/>
		<path class="s2" d="m604.6 753.1h10.5v-16.1l-10.5 0.5v15.6z"/>
		<path class="s2" d="m445.9 685.3q1.9 0.1 3.8 0.1h4.8v-15.3h-2.7q-0.6 0-1.2 0-0.5 0-1.1 0-0.6 0-1.2 0-0.6 0-1.1 0.1c-2.4 0.2-3.6 1.6-3.6 3.7q0.1 1.8 0.1 3.6c0 1.9 0.1 3.8 0.2 5.7q0.1 0.4 0.3 0.8 0.2 0.3 0.4 0.6 0.3 0.2 0.6 0.4 0.4 0.2 0.7 0.3z"/>
		<path class="s2" d="m551.6 680.8q0 0 0 0.1 0 0 0 0.1 0 0 0.1 0.1 0 0 0 0.1c0 0 0.1 0.1 0.2 0.2l0.1 0.3 41.1-6.9-4.4-0.2c-8.2-0.4-16.6-0.7-24.6-0.9l-5.3-0.2c-3.9-0.1-5.6-0.2-6.6 0.9-1 1-0.9 2.7-0.6 6.3z"/>
		<path class="s2" d="m429.2 581.4q0 0.2 0 0.3 0 0.1 0 0.3 0 0.1 0.1 0.3 0 0.1 0 0.2v0.4l1.7 0.3 18.9-20.3-1.5 0.4-3.5 0.8c-2.8 0.6-5.3 1.1-7.7 1.7q-0.4 0.1-0.8 0.2-0.4 0.2-0.7 0.4-0.4 0.2-0.7 0.4-0.3 0.2-0.6 0.5l-0.7 0.6c-3.3 3-6.7 6.1-4.8 11.5q0.1 0.2 0.1 0.5 0.1 0.2 0.1 0.5 0.1 0.2 0.1 0.5 0 0.3 0 0.5z"/>
		<path class="s2" d="m541.8 532.3c-2.1 0-4.4-0.1-5.7 2.8q-0.1 0-0.3 0.1-0.1 0.1-0.3 0.1-0.1 0-0.3 0.1-0.1 0-0.3 0-0.3 0-0.5 0.1-0.3 0-0.6 0.1-0.2 0.1-0.5 0.2-0.2 0.2-0.5 0.3c-3 2.8-5.8 5.6-8.8 8.5l-3.2 3.2-0.6 0.5 0.7 0.3q0.8 0.3 1.7 0.6 0.8 0.3 1.6 0.5 0.8 0.2 1.7 0.3 0.9 0.2 1.7 0.2c2.6 0 4.2-1.5 6.5-5l0.2-0.2q0.1-0.2 0.3-0.5 0.1-0.2 0.3-0.4 0.1-0.2 0.3-0.4 0.1-0.2 0.3-0.4c2.3-2.7 4.7-5.3 7.1-8l3.5-3.8-1.7 0.5q-0.3 0.1-0.7 0.2-0.3 0-0.6 0.1-0.3 0-0.7 0-0.3 0-0.6 0z"/>
		<path class="s2" d="m808.4 874.5c2.8 0.3 5.7 0.6 8.6 1l4.4 0.5-0.5-10.1-15.4-2.6v7.8q-0.1 0.6 0.1 1.2 0.2 0.6 0.6 1.1 0.4 0.5 0.9 0.7 0.6 0.3 1.2 0.4z"/>
		<path class="s2" d="m644.4 542.6q-0.2-0.4-0.4-0.7-0.2-0.3-0.5-0.6-0.3-0.2-0.6-0.5-0.3-0.2-0.6-0.4c-2.7-1.1-5.5-2-8.2-2.9l-3.1-1-0.4-0.1-1 1.3 0.3 0.3 3.4 3.8c2.7 3 5.4 6 8.1 9q0.8 0.9 1.8 1.7 1 0.7 2.1 1.2 1.2 0.5 2.4 0.8 1.2 0.2 2.5 0.2 0.4 0 0.9 0 0.4-0.1 0.9-0.1 0.4-0.1 0.9-0.2 0.4-0.1 0.8-0.2l0.8-0.2-2.7-3q-3.3-3.7-6.5-7.3-0.1-0.2-0.2-0.3-0.1-0.1-0.3-0.3-0.1-0.1-0.2-0.3-0.1-0.1-0.2-0.2z"/>
		<path class="s2" d="m615.1 533.5l-0.9 0.2 0.7 0.6q1.7 1.7 3.2 3.4 1.6 1.8 3 3.7 1.4 1.9 2.6 4 1.3 2 2.3 4.1 0.1 0.3 0.3 0.5 0.2 0.2 0.4 0.4 0.3 0.1 0.5 0.3 0.3 0.1 0.6 0.1c2.2 0.2 4.5 0.3 6.9 0.4l3.5 0.2-0.7-0.8q-1.4-1.7-2.9-3.4-0.8-0.8-1.5-1.7-0.8-0.9-1.5-1.8-0.7-0.9-1.4-1.8-0.8-1-1.4-1.9c-2.8-3.9-6.5-7.8-13.7-6.5z"/>
		<path class="s2" d="m899.4 986.9h-15.7l0.5 9.8h15.2v-9.8z"/>
		<path class="s2" d="m591.7 770.8v13.2h5.5q0.5 0 1 0 0.5 0 1 0 0.5 0 1-0.1 0.5 0 1-0.1 0.4-0.1 0.8-0.3 0.5-0.3 0.8-0.6 0.3-0.4 0.6-0.8 0.2-0.4 0.3-0.9 0.2-3.1 0.1-6.3v-2.8z"/>
		<path class="s2" d="m601.5 800.1l-9.9-0.4v14.3l10.9 0.7-1-14.6z"/>
		<path class="s2" d="m654.7 710.2q-0.2 0-0.4 0.1-0.2 0-0.3 0.1-0.2 0-0.3 0.1-0.2 0.1-0.3 0.2-0.2 0.2-0.4 0.3-0.1 0.2-0.2 0.3-0.2 0.2-0.3 0.4-0.1 0.2-0.1 0.4c-0.3 2.6-0.4 5.2-0.6 7.9-0.1 1-0.1 1.9-0.2 2.8v0.4l10.9 2.3 1.7-13.3-0.5-0.1-2.3-0.5c-2.3-0.6-4.5-1-6.7-1.4z"/>
		<path class="s2" d="m409.9 848.1h-0.1q-0.1 0-0.2 0-0.1 0-0.2 0-0.1 0-0.2-0.1-0.1 0-0.2 0-0.4-0.2-0.8-0.2-0.5-0.1-0.9 0.1-0.4 0.1-0.8 0.4-0.3 0.3-0.5 0.7-0.1 0.1-0.1 0.3-0.1 0.1-0.1 0.3 0 0.1 0 0.3 0 0.1 0 0.2c-0.2 2.7-0.3 5.3-0.4 7.8 0 1-0.1 2-0.1 2.9v0.5h0.5c0.9 0.1 1.8 0.1 2.6 0.2 1.7 0.1 3.2 0.2 4.6 0.4q0.2 0 0.4 0 0.2 0.1 0.4 0.1 0.2 0 0.4 0 0.2 0 0.4 0 0.2 0 0.5 0 0.2 0 0.5-0.1 0.2-0.1 0.4-0.2 0.2-0.1 0.4-0.3c0.7-0.6 0.8-1.7 0.6-3.1q-0.1-1.3-0.3-2.6c-0.1-0.8-0.2-1.5-0.3-2.4-0.5-5.3-0.7-5.6-6.5-5.3v0.4z"/>
		<path class="s2" d="m764 658.5c-3.2-0.3-6.4-0.6-9.5-0.9l-4-0.4h-0.4l-0.6 2 0.3 0.2c0.7 0.4 1.3 0.8 2 1.2q0.5 0.5 1.1 0.8 0.6 0.4 1.2 0.7 0.6 0.3 1.3 0.6 0.6 0.3 1.3 0.5c2.1 0.4 2.8 0.7 2.4 2.5l-0.1 0.4 17.7 5-0.9-1.1q-1-1.3-2-2.5c-1.4-1.9-2.8-3.6-4-5.3q-0.5-0.8-1.1-1.4-0.6-0.7-1.4-1.1-0.7-0.5-1.6-0.8-0.8-0.3-1.7-0.4z"/>
		<path class="s2" d="m440.5 690.2c-2.9 0.6-5.7 1-8.5 1.6-0.4 0.1-1.1 0.5-1.1 0.9-0.4 4-0.9 8 0.4 12.1l9.2-1.6z"/>
		<path class="s2" d="m527.1 534.7c-1.7-0.1-3.5-0.3-3.9 2.4q-0.1 0-0.2 0.1-0.1 0-0.3 0-0.1 0.1-0.2 0.1-0.1 0.1-0.2 0.1-0.5 0.1-0.9 0.2c-0.8 0.4-1.8 0.7-2.7 1q-0.7 0.2-1.5 0.4-0.8 0.3-1.5 0.6-0.7 0.3-1.4 0.7-0.8 0.4-1.4 0.8-0.9 0.7-1.8 1.4-0.8 0.7-1.7 1.5-0.8 0.7-1.6 1.5-0.8 0.8-1.5 1.6c-1 0.9-1.9 1.9-2.9 2.8l-0.7 0.7 1.4 0.2q0.1 0.1 0.2 0.1 0.1 0 0.2 0 0 0 0.1 0 0.1 0 0.2 0h0.5q0 0 0.1 0 0 0 0.1 0 0.1 0 0.1 0 0.1 0 0.2 0c1.2-0.3 2.5-0.5 3.7-0.8 5-0.9 10.1-2 12.9-7.4q0.2-0.3 0.4-0.6 0.3-0.3 0.5-0.6 0.3-0.3 0.5-0.5 0.3-0.3 0.6-0.5l1-0.9c0.8-0.8 1.6-1.6 2.5-2.6l2.4-2.3-1.3 0.1q-0.3 0-0.5 0-0.2 0-0.5 0-0.2 0-0.4 0-0.3-0.1-0.5-0.1z"/>
		<path class="s2" d="m634 943.2h2.1c4.4-0.2 5.8-1.5 5.9-5.6q0-0.7-0.1-1.3 0-0.7 0-1.4-0.1-0.6-0.2-1.3-0.1-0.6-0.3-1.3c-0.1-0.7-1-2.1-2-2.2-2 0-4.1 0.1-6.2 0.2l-2.3 0.2h-0.4l-0.6 12.7h2.3z"/>
		<path class="s2" d="m736.1 853.5l-11.9-2.2 1 13.9 8.4 2.1 2.5-13.8z"/>
		<path class="s2" d="m511.8 854.3v-12.8l-11.8 1 1.7 12.6 10.1-0.8z"/>
		<path class="s2" d="m574.5 526.3l-0.2 0.2 0.5 1.3 21.8 1.4 0.6-1.2-0.2-0.2q-0.4-0.5-0.8-1-0.3-0.2-0.5-0.5-0.2-0.2-0.4-0.5-0.3-0.2-0.5-0.5-0.3-0.2-0.5-0.5l-1.2-1q-0.5-0.6-1-1-0.5-0.5-1.1-0.9-0.5-0.5-1.1-0.9-0.6-0.4-1.2-0.7c-1.7-0.9-4.8-1.9-6.2-1q-0.8 0.5-1.6 1.1-0.7 0.5-1.4 1.1-0.8 0.6-1.5 1.3-0.6 0.6-1.3 1.3c-0.8 0.8-1.5 1.5-2.2 2.2z"/>
		<path class="s2" d="m402.5 849.9v-0.5h-11l1.4 12.8h2.3q0.5 0 0.9 0 0.4 0.1 0.8 0.1 0.4 0 0.8 0.1 0.4 0 0.8 0.1 0.2 0 0.4 0 0.1 0.1 0.3 0.1 0.2 0 0.3 0 0.2 0 0.3 0 0.4 0 0.7 0 0.3-0.1 0.6-0.2 0.3-0.1 0.6-0.2 0.3-0.2 0.5-0.4 0.3-0.3 0.5-0.7 0.3-0.4 0.4-0.9 0.1-0.4 0.1-0.9 0-0.4 0-0.9c-0.3-2-0.4-3.9-0.5-5.9q-0.2-1.3-0.2-2.6z"/>
		<path class="s2" d="m600 880.6q-0.3-0.4-0.7-0.6-0.5-0.3-0.9-0.5-0.5-0.1-1-0.2-0.5 0-1 0.1-1.5 0.3-3.1 0.6l-2 0.5v14h0.4l1.8 0.1c1.3 0.2 2.5 0.3 3.8 0.4h0.3q0.3 0 0.6-0.1 0.3 0 0.5-0.1 0.3-0.1 0.5-0.3 0.3-0.1 0.5-0.3 0.1-0.2 0.2-0.5 0.1-0.2 0.2-0.5 0-0.3 0-0.5-0.1-0.3-0.2-0.5-0.2-0.9-0.3-1.9-0.1-0.9 0-1.8 0.1-0.9 0.3-1.8 0.2-0.9 0.6-1.8 0.2-0.5 0.3-1.1 0.1-0.5 0-1.1-0.1-0.6-0.3-1.1-0.2-0.5-0.5-1z"/>
		<path class="s2" d="m588.9 750.4l-9.3 1.8 1.4 15.3 0.5-0.1 1.8-0.2q0.4 0 0.9 0 0.4-0.1 0.9-0.1 0.4-0.1 0.9-0.1 0.4-0.1 0.9-0.2c0.7-0.1 1.9-1 2-1.8 0.1-3.5 0.1-7 0.1-10.7z"/>
		<path class="s2" d="m898.5 706.4c1.6 0 2.5-1 3.3-2l0.6-0.6-0.9-0.2c-14.2-2.2-28.3-5.7-42-9.1-12.9-3.3-26.2-6.6-39.8-8.9l-3.5-0.6 3.2 1.5 0.8 0.3q0.1 0.1 0.1 0.1 0.1 0 0.2 0.1 0 0 0.1 0 0.1 0.1 0.1 0.1l18.6 4.6c19 4.8 38.7 9.7 57.9 14.6q0.2 0 0.4 0 0.1 0 0.3 0.1 0.1 0 0.3 0 0.1 0 0.3 0z"/>
		<path class="s2" d="m668.5 855.6l3.4 0.6-0.9-11.3-11.4-1.4v0.5q-0.1 1.1-0.2 2.1c-0.1 2.2-0.3 4.2-0.4 6.3q0 0.3 0.2 0.6 0.1 0.2 0.3 0.5 0.2 0.2 0.4 0.3 0.3 0.2 0.6 0.3c2.6 0.5 5.3 1 8 1.5z"/>
		<path class="s2" d="m626.7 740.4l-9-2.8v15.7l8.3 1.4 0.7-14.3z"/>
		<path class="s2" d="m550.9 861.2l0.7 0.1q0.6 0.1 1.3 0.2 0.6 0.2 1.2 0.4 0.6 0.1 1.3 0.4 0.6 0.2 1.1 0.5 0.5 0.2 1 0.4 0.4 0.2 0.9 0.3 0.5 0.1 1 0.2 0.5 0.1 1 0.1 0.4 0 0.8-0.1 0.3 0 0.7 0 0.4-0.1 0.7-0.2 0.4 0 0.7-0.1l0.5-0.2-2.1-10-13.7 1-0.1 0.3q0 0.1 0 0.2 0 0.1-0.1 0.2 0 0.1 0 0.2 0 0.1-0.1 0.2c-0.1 0.4-0.2 0.8-0.3 1.2-0.5 3.1 0.2 4 3.5 4.7z"/>
		<path class="s2" d="m498.2 847c-0.3-0.9-0.4-1.6-0.5-2.2-0.5-2-0.8-2-3.4-1.8-0.4 0-0.8 0.1-1.3 0.1l-3.8 0.3-2.6 0.2 2.7 12h0.4c1.7 0.2 3 0.3 4.1 0.3 1.8 0 2.9-0.3 3.7-0.9 1-1.1 1.1-2.9 0.9-6.6v-0.3q0-0.2 0-0.3 0-0.1-0.1-0.3 0-0.1 0-0.2-0.1-0.2-0.1-0.3z"/>
		<path class="s2" d="m373.8 713.9c-3 3.1-2.9 7-3.5 10.7-0.3 1.5 0.5 2.3 2.2 2 2.9-0.7 4.1 0.6 4.4 3.2q0.1 0.4 0.2 0.8 0.1 0.5 0.2 0.9 0.2 0.5 0.3 0.9 0.1 0.4 0.2 0.9c2.2-9-1.6-17-0.4-25.2-1.4 2.2-2.1 4.3-3.6 5.8z"/>
		<path class="s2" d="m746.3 983.1l7.5-0.3v-16.4h-7.3v0.4q0 0.1 0 0.2 0 0 0 0.1 0 0.1 0 0.2-0.1 0-0.1 0.1 0 0.1 0 0.3 0 0.1 0 0.2 0 0.2 0 0.3-0.1 0.2-0.1 0.3v10.7z"/>
		<path class="s2" d="m750.3 944.7c0.8 0 1.8 0 3-0.1h0.5v-3.7c0-3.7 0-7.1-0.1-10.6q-0.1-0.3-0.3-0.7-0.1-0.3-0.4-0.5-0.2-0.3-0.5-0.5-0.3-0.2-0.7-0.3-0.4-0.1-0.8-0.2-0.5 0-0.9-0.1-0.4 0-0.9-0.1-0.4 0-0.8 0c-0.5 0-1-0.1-1.5-0.2h-0.6v11c0 3 0 4.5 1 5.3 0.5 0.5 1.4 0.7 3 0.7z"/>
		<path class="s2" d="m746.5 963.7h7.2v-16.2l-7.2-0.6v16.8z"/>
		<path class="s2" d="m665.9 545.6l0.9 1c8.1 8.6 19.3 15.5 26.7 16.6l1.4 0.2-1-1c-6.8-6.9-14.5-14.8-26.7-16.6z"/>
		<path class="s2" d="m752.4 872.3c-1.3-0.3-2.6-0.5-3.9-0.7l-1.6-0.3-0.6-0.1v4.1c0 3.7 0 7.2 0.1 10.6q0 0.4 0.2 0.7 0.1 0.3 0.3 0.6 0.2 0.2 0.5 0.4 0.3 0.2 0.6 0.3 0.4 0.1 0.9 0.2 0.4 0.1 0.9 0.2 0.4 0.1 0.9 0.1 0.4 0.1 0.9 0.1 0.7 0.1 1.6 0.2h0.5v-14.6q0-0.3-0.1-0.6-0.1-0.3-0.3-0.5-0.2-0.2-0.4-0.4-0.3-0.2-0.5-0.3z"/>
		<path class="s2" d="m593 713c1.3 0.4 2.6 0.8 4.1 1.2l1.8 0.6 0.6 0.1v-15.6l-8-1.7v3.6c0 3.6 0 6.9 0.1 10.3 0 0.6 0.8 1.3 1.4 1.5z"/>
		<path class="s2" d="m746.4 924.9l7.3 0.8v-14.1q0-0.3-0.2-0.6-0.1-0.3-0.3-0.5-0.2-0.3-0.4-0.5-0.3-0.1-0.6-0.3-0.4 0-0.9-0.1-0.4-0.1-0.9-0.1-0.5-0.1-0.9-0.1-0.5-0.1-1-0.1l-1.5-0.2h-0.5z"/>
		<path class="s2" d="m753.6 891.5l-7.1-1.1v16l7.1 0.8v-15.7z"/>
		<path class="s2" d="m468.3 957.6h7v15.3h-7z"/>
		<path class="s2" d="m916 884.4h0.4c0.8 0 2.8-0.1 3.1-0.9q0.2-0.6 0.3-1.2 0.2-0.6 0.3-1.1 0.1-0.6 0.2-1.2 0-0.6 0.1-1.2v-0.7q0-0.1 0-0.1 0-0.1 0-0.1 0-0.1-0.1-0.2 0 0 0-0.1-0.2-0.1-0.4-0.2-0.2-0.1-0.4-0.2-0.1-0.1-0.4-0.2-0.2-0.1-0.4-0.1c-3.6-0.2-7.1-0.3-10.8-0.5l-3.6-0.2v7.1h0.4l3.1 0.3c2.9 0.3 5.5 0.6 8.2 0.8z"/>
		<path class="s2" d="m468.2 954.8h7v-14.4q0-0.1 0-0.3 0-0.1-0.1-0.2 0-0.2 0-0.3 0-0.1 0-0.3c0-0.1-0.1-0.3-0.1-0.5v-0.4h-6.8z"/>
		<path class="s2" d="m922.4 994.8c3.3-0.5 5-0.8 5.7-1.9 0.8-1.1 0.4-2.6-0.3-5.7q0 0-0.1-0.1 0-0.1-0.1-0.2 0 0-0.1-0.1 0 0-0.1-0.1l-0.2-0.2-0.2-0.2-12.8 0.6v9h0.6l2.5-0.4c1.8-0.2 3.4-0.4 5.1-0.7z"/>
		<path class="s2" d="m794.8 675.6l1.5 0.2-1-1q-1.2-1.2-2.3-2.4c-5.3-5.7-10.4-11.1-19.6-11.4h-0.9l0.5 0.8q1.8 2.8 4.2 5.1 2.4 2.4 5.2 4.1 2.8 1.8 6 3 3.1 1.1 6.4 1.6z"/>
		<path class="s2" d="m946.6 887l3.4 0.2v-7.3l-14.6-1.9v2.4c0 1.6 0 2.9 0.1 4.3q0 0.3 0.2 0.6 0.2 0.2 0.4 0.5 0.2 0.2 0.5 0.3 0.3 0.2 0.6 0.3c3.1 0.2 6.2 0.4 9.4 0.6z"/>
		<path class="s2" d="m468.3 919.4h6.6v16.3h-6.6z"/>
		<path class="s2" d="m468.4 916.5h6.5v-16.4l-6.5 0.2v16.2z"/>
		<path class="s2" d="m599.2 923.7v-13.2l-8.6-0.5 1 13.7h7.6z"/>
		<path class="s2" d="m468.4 897.3h6.5v-16.3l-6.5 0.5v15.8z"/>
		<path class="s2" d="m758.4 889.5q0.3 0.1 0.7 0.2 0.4 0.1 0.8 0.2 0.4 0 0.8 0.1 0.4 0 0.8 0.1l1.4 0.2h0.6v-16l-6.9-1.3v4c0 3.7 0 7.2 0.1 10.7q0 0.3 0.2 0.6 0.1 0.3 0.4 0.5 0.2 0.3 0.5 0.4 0.2 0.2 0.6 0.3z"/>
		<path class="s2" d="m719.2 661.5q1.9 0.1 3.4 0.1 1 0.1 2 0 1-0.1 2-0.4 0.9-0.3 1.9-0.8 0.9-0.5 1.7-1.1l0.5-0.4-0.5-0.4-1.3-1.1c-1-0.8-2-1.6-3.1-2.4l-0.5-0.4q-0.3-0.3-0.6-0.5-0.4-0.3-0.7-0.5-0.4-0.2-0.7-0.3-0.4-0.2-0.8-0.3c-2.4-0.3-4.8-0.5-7.6-0.7l-3.5-0.3-1.3-0.1 8.9 9.6z"/>
		<path class="s2" d="m756.8 907.6l6.7 0.8v-15.3l-6.7-1.1v15.6z"/>
		<path class="s2" d="m756.8 966.7h6.1v16.2h-6.1z"/>
		<path class="s2" d="m435.7 938.9h6v16h-6z"/>
		<path class="s2" d="m459.5 938.6h5.8v16.3h-5.8z"/>
		<path class="s2" d="m901.4 876.2l-0.2-0.2-0.1-0.2-12.3-1.2 0.9 8.7h0.4q0.1 0 0.3 0.1 0.2 0 0.3 0 0.2 0 0.4 0 0.1 0.1 0.3 0.1 0.3 0 0.7 0.1 0.3 0 0.6 0.1 0.4 0 0.7 0 0.4 0 0.7 0h1.3c2.9 0 4.7-0.2 5.7-1.3 0.9-1.1 1-3 0.7-5.7q-0.1-0.1-0.1-0.2 0 0-0.1-0.1 0-0.1-0.1-0.1 0-0.1-0.1-0.1z"/>
		<path class="s2" d="m468.3 863.5h6.3v15h-6.3z"/>
		<path class="s2" d="m763 929.3l-6.2-0.6v16.4h6.2v-15.8z"/>
		<path class="s2" d="m763.5 914.4c0.2-3.3-0.1-3.5-3.7-3.8-0.6 0-1.3-0.1-2.1-0.1q-0.1 0-0.2 0 0 0-0.1 0 0 0-0.1 0 0 0-0.1 0.1l-0.2 0.1-0.2 0.1v15.3l6.6 0.6v-10.2c0.1-0.9 0.1-1.6 0.1-2.1z"/>
		<path class="s2" d="m756.9 947.5v16.3h6v-15.8l-6-0.5z"/>
		<path class="s2" d="m459.5 919.5h5.8v16.2h-5.8z"/>
		<path class="s2" d="m435.7 957.6h6v15.4h-6z"/>
		<path class="s2" d="m459.5 957.5h5.9v15.4h-5.9z"/>
		<path class="s2" d="m435.7 919.6h5.8v16.2h-5.8z"/>
		<path class="s2" d="m960.3 985.1q-0.1-0.5-0.2-1l-0.1-0.5-13 2.7-0.6 6.4 0.5-0.1 3.3-0.3c2.3-0.3 4.5-0.5 6.6-0.7h0.2c2.4-0.2 3.5-0.3 4-1 0.5-0.7 0.2-1.8-0.3-3.9l-0.5 0.1 0.5-0.1c-0.2-0.6-0.3-1-0.4-1.6z"/>
		<path class="s2" d="m910.8 986.3l-8.7 0.5v10.1l10.2-0.7-1.5-9.9z"/>
		<path class="s2" d="m441.7 864.6h-6v15.4l6-0.3v-15.1z"/>
		<path class="s2" d="m441.6 882.5l-5.8 0.2v15.6h5.7v-15.8z"/>
		<path class="s2" d="m682.5 857.8v-11.5l-8.7-1.2v2.1q0 0.3-0.1 0.6 0 0.4 0 0.7 0 0.4 0 0.7 0.1 0.3 0.1 0.7c0.6 6.7 0.8 7 8.2 7.8v-0.5 0.5z"/>
		<path class="s2" d="m382.1 851.2c0.1 0.9 0.2 1.7 0.2 2.5 0.2 1.9 0.4 3.6 0.6 5.3 0.2 3.8 0.7 4.7 3.7 4.7q0.2 0 0.5 0 0.3 0 0.5 0 0.3 0 0.5 0 0.3 0 0.5-0.1 0.2 0 0.3 0 0.1 0 0.2 0 0.1 0 0.2-0.1 0.2 0 0.3 0l0.3-0.1 0.5-0.1-1.3-13.6-7.1 1z"/>
		<path class="s2" d="m459.6 900.4h5.5v16.1h-5.5z"/>
		<path class="s2" d="m435.8 901v16.1l5.4-0.2v-16.2l-5.4 0.3z"/>
		<path class="s2" d="m934.3 993.5h2.5c1.6 0 3.1 0 4.7-0.1q0.3 0 0.6-0.1 0.4-0.1 0.6-0.3 0.3-0.2 0.6-0.4 0.2-0.3 0.4-0.6 0.1-0.4 0.1-0.9 0.1-0.4 0.2-0.8 0-0.5 0.1-0.9 0-0.5 0-0.9c0-0.5 0.1-0.9 0.2-1.5l0.1-0.5h-14l0.9 7h3z"/>
		<path class="s2" d="m456.6 881.8l-5.3 0.4v15.8l5.3-0.2v-16z"/>
		<path class="s2" d="m867.8 857.2c1.4 3.4 3.4 7.1 4.5 11.1 1.2 4 1.5 8.3 2.2 12.6l2.9 0.2c1.5-9.8-3.6-18.4-9.6-23.9z"/>
		<path class="s2" d="m456.6 864h-5.4v15.4l5.3-0.2v-15.2z"/>
		<path class="s2" d="m459.7 881.6h5.4v16.1h-5.4z"/>
		<path class="s2" d="m383.4 661.5l16.2-10.5-0.8-1.4h-0.3q-1.1 0.1-2.2 0.2-0.7 0-1.3 0-0.6 0.1-1.3 0.1-0.6 0.1-1.3 0.2-0.6 0.1-1.2 0.2-0.7 0.2-1.3 0.3-0.7 0.2-1.3 0.4-0.6 0.2-1.3 0.4-0.6 0.2-1.2 0.4-1.2 0.4-2.4 0.8l-0.3 0.1z"/>
		<path class="s2" d="m421.9 654l-0.4 0.7h0.8c4.9 0 8.7-2.4 12.4-4.6q0.8-0.6 1.6-1.1 0.8-0.5 1.6-0.9 0.9-0.5 1.8-0.9 0.8-0.4 1.7-0.7l1.7-0.6-1.8-0.3c-9.5-1.6-15.3 0.9-19.4 8.4z"/>
		<path class="s2" d="m766.4 887c-0.1 4.1 0.3 4.2 4.9 4.5h0.5v-16l-5.4-0.9v12.2z"/>
		<path class="s2" d="m451.8 938.6h4.8v16.3l-4.8-0.1z"/>
		<path class="s2" d="m456.6 919.6h-4.9v16.4l4.9-0.2v-16.2z"/>
		<path class="s2" d="m765.8 983.3l5-0.8v-15.7h-5v16.5z"/>
		<path class="s2" d="m868.8 882.8h-4.9v17.7l4.9 0.8v-18.5z"/>
		<path class="s2" d="m803.3 873.3q-0.1-1.2-0.2-2.4c-0.1-2.2-0.3-4.2-0.6-6.3q-0.1-0.3-0.2-0.7-0.2-0.3-0.4-0.6-0.3-0.2-0.6-0.5-0.3-0.2-0.6-0.3-0.4-0.1-0.8-0.2-0.4-0.1-0.8-0.1-0.4-0.1-0.7-0.1-0.4-0.1-0.8-0.1l-1.4-0.1-0.5-0.1v12.1h7.6z"/>
		<path class="s2" d="m451.6 900.7h5.1v15.8h-5.1z"/>
		<path class="s2" d="m771.4 941.3v-7.5c0-1.8 0-3-0.7-3.6-0.7-0.5-1.9-0.4-4-0.1h-0.4v15.4h5.1z"/>
		<path class="s2" d="m771.2 894.5c-0.7-0.7-2-0.6-4.4-0.5h-0.5v14.7l5.5 0.9v-11.2c0.1-2.1 0.1-3.2-0.6-3.9z"/>
		<path class="s2" d="m932.9 883.8q0-0.6 0-1.1 0-0.6-0.1-1.1 0-0.5-0.1-1.1 0-0.5-0.1-1-0.1-0.4-0.3-0.7-0.2-0.3-0.4-0.5-0.3-0.3-0.6-0.4-0.3-0.2-0.7-0.3c-1.6-0.3-3.3-0.4-4.9-0.6l-1.9-0.1h-0.4l-1 8 10.6 1.1v-0.6q0-0.2 0-0.4 0-0.2 0-0.4 0-0.2 0-0.4 0-0.2-0.1-0.4z"/>
		<path class="s2" d="m771.3 912l-4.9-0.5v15.5l4.9 0.6v-15.6z"/>
		<path class="s2" d="m849.2 898.4l4.4 0.8v-17.6l-4.4-0.6v17.4z"/>
		<path class="s2" d="m461.7 879.2h0.8c0.5-0.1 0.9-0.2 1.5-0.3l0.7-0.1h0.4v-15.1l-5.3 0.3v15.2h1.9z"/>
		<path class="s2" d="m490.2 551.5l-0.7 1 1.2-0.2c0.8-0.2 1.7-0.3 2.5-0.4 1.9-0.2 3.6-0.4 4.7-1.4q1.1-1 2.2-2 1-1 2.1-2 1-1 2-2.1 1-1.1 2-2.1l2.7-2.9 1-1-1.4 0.2c-3.6 0.5-15.5 8.6-18.3 12.9z"/>
		<path class="s2" d="m804.1 670.9c-2.8-0.9-5.6-1.9-8.5-2.8l-5.6-1.8 1.9 1.6c1 0.8 2 1.6 2.9 2.4 2.1 1.8 4.2 3.5 6.1 5.4q0.6 0.5 1.3 0.9 0.6 0.5 1.4 0.8 0.7 0.4 1.4 0.7 0.8 0.3 1.5 0.5 0.6 0.1 1.1 0.3 0.6 0.2 1.1 0.4 0.5 0.2 1 0.5 0.5 0.3 1 0.5l1.8 1.2-1.2-1.9q-0.6-0.9-1.2-1.8-0.6-0.9-1.3-1.8-0.6-0.9-1.3-1.8-0.7-0.9-1.4-1.7-0.2-0.3-0.4-0.5-0.3-0.3-0.5-0.5-0.3-0.2-0.6-0.3-0.2-0.2-0.5-0.3z"/>
		<path class="s2" d="m964.5 886.7v-1q0-0.3 0-0.6 0-0.3 0-0.6 0-0.3-0.1-0.6 0-0.3-0.1-0.6c-0.2-0.8-1-2.6-2-2.7-2.2-0.1-4.5-0.1-6.8-0.1h-3l0.4 6.7h11.6z"/>
		<path class="s2" d="m771.1 948.5l-5-0.6v15.9h5v-15.3z"/>
		<path class="s2" d="m444.7 938.7h4.1v16.3h-4.1z"/>
		<path class="s2" d="m452.1 957.5h4.5v15.4h-4.5z"/>
		<path class="s2" d="m849.2 984.3l4.4-0.6v-15.4l-4.4-0.6v16.6z"/>
		<path class="s2" d="m747.9 662.6l1.4 0.5-0.9-1.3c-5-6.7-11.2-9.5-19.4-8.7l-1.1 0.1 0.9 0.7c4.8 4 10.3 5.8 16.1 7.7z"/>
		<path class="s2" d="m385.6 624.3l0.1 1.4 9.6-16.1-1.1 0.2-2.2 0.6c-1.6 0.4-3.1 0.8-4.6 1.1q-0.6 0-1.2 0.3-0.6 0.3-1 0.8-0.4 0.5-0.6 1.1-0.2 0.6-0.2 1.3v0.1c0.1 2.3 0.5 4.7 0.8 6.8q0.2 1.3 0.3 2.4z"/>
		<path class="s2" d="m778.7 876.9c-0.6-0.6-1.6-0.5-3.6-0.3h-0.4v15.6l4.6 0.6v-13c0-1.4 0-2.4-0.6-2.9z"/>
		<path class="s2" d="m447.1 973c1.1-0.5 1.8-0.9 1.8-1.6 0.2-3.4 0.2-6.8 0.1-10.2v-3.6h-4.3v16.6l0.8-0.4c0.5-0.3 1.1-0.6 1.5-0.8z"/>
		<path class="s2" d="m856.9 984h4.4v-15.2l-4.4-0.4v15.6z"/>
		<path class="s2" d="m857.2 882.2l-0.4 0.1v17.2l4.2 0.7v-5c0-3.4-0.1-6.6 0-10q0.1-0.3 0.1-0.7 0-0.4-0.2-0.8-0.1-0.3-0.3-0.7-0.1-0.3-0.4-0.6-0.3-0.2-0.7-0.3-0.4-0.1-0.8-0.1-0.4-0.1-0.7 0-0.4 0-0.8 0.2z"/>
		<path class="s2" d="m654.7 543.4l0.7 0.9q0.2 0.3 0.4 0.6 0.2 0.2 0.5 0.5 0.2 0.2 0.4 0.5 0.3 0.2 0.6 0.4l0.1 0.2c1 0.8 1.8 1.6 2.7 2.4q0.8 0.6 1.6 1.3 0.8 0.7 1.5 1.4 0.8 0.7 1.5 1.5 0.7 0.7 1.4 1.5c1.6 1.9 3.5 3.6 6.6 3.6q0.3 0 0.6-0.1 0.3 0 0.6 0 0.3-0.1 0.7-0.1 0.3-0.1 0.6-0.2l0.9-0.2-3.5-2.8-9.7-7.6q-0.1 0-0.2-0.1-0.1 0-0.2-0.1-0.1 0-0.2-0.1-0.1 0-0.2-0.1 0 0-0.1-0.1-0.1 0-0.2-0.1 0 0-0.1-0.1-0.1 0-0.2-0.1c-0.5-2.6-2.5-2.7-4.2-2.7q-0.2 0-0.3 0-0.2 0-0.4 0-0.2 0-0.4-0.1-0.2 0-0.4 0z"/>
		<path class="s2" d="m777.9 931.3c-0.8-0.7-2-0.6-3.6-0.4l-0.4 0.1v3.9c0 2.7 0.1 5.3 0 7.9q-0.1 0.4-0.1 0.8 0 0.4 0.1 0.8 0.2 0.3 0.3 0.7 0.2 0.3 0.5 0.6 0.2 0.1 0.4 0.2 0.2 0.1 0.4 0.2 0.2 0.1 0.4 0.1 0.2 0 0.5 0 0.2 0 0.4 0 0.3-0.1 0.5-0.1 0.2 0 0.5-0.1 0.2 0 0.4-0.1l0.4-0.1v-3.9c0-2.8-0.1-5.4 0.1-8.1q0-0.3 0-0.7 0-0.3-0.1-0.6-0.1-0.4-0.3-0.7-0.2-0.3-0.4-0.5z"/>
		<path class="s2" d="m853 951.2c-0.7-0.6-1.8-0.8-3.4-0.4h-0.4v14.5h4.6v-3.8c0-2.5-0.1-4.9 0.1-7.3 0-1.5-0.2-2.4-0.9-3z"/>
		<path class="s2" d="m778.9 895.6l-4.3-0.7v14.9l4.3 0.5v-14.7z"/>
		<path class="s2" d="m849.1 916l4.5 0.2v-14.3l-4.5-0.8v14.9z"/>
		<path class="s2" d="m856.9 965.9l4.4 0.2v-14.4l-4.4-0.4v14.6z"/>
		<path class="s2" d="m864.2 966.3l4.4 0.4v-14.4h-4.4v14z"/>
		<path class="s2" d="m448.5 919.6h-3.9v16.4l3.9-0.2v-16.2z"/>
		<path class="s2" d="m868.7 969.3h-4.2v14.5l4.2-0.8v-13.7z"/>
		<path class="s2" d="m868.7 903.9l-4.6-0.6v13.8l4.6 0.7v-13.9z"/>
		<path class="s2" d="m778.2 948.7h-4.1v15.4l4.1 0.4v-15.8z"/>
		<path class="s2" d="m581.3 503.9c0.4 0.6 1.2 0.7 2 0.8h0.6c1.4 0.2 2.7 0.4 3.8 0.5h2.6l-0.1-0.6v-0.6q0-0.2 0-0.4 0-0.2 0-0.3-0.1-0.2-0.1-0.4-0.1-0.2-0.2-0.4c-0.7-1.7-1.6-3.6-2.8-5.8q-0.1-0.1-0.2-0.3-0.1-0.1-0.2-0.2-0.1-0.2-0.2-0.3-0.1-0.1-0.3-0.2l-0.5-0.5-0.3-0.3-0.3 0.2-0.7 0.5q-0.1 0.1-0.2 0.2-0.2 0.1-0.3 0.2-0.1 0.1-0.2 0.2-0.1 0.1-0.3 0.3l-0.4 0.6q-0.3 0.4-0.5 0.8-0.3 0.4-0.6 0.9-0.2 0.4-0.4 0.9-0.3 0.4-0.5 0.9-0.1 0.4-0.2 0.8 0 0.5 0 0.9 0.1 0.4 0.2 0.8 0.1 0.4 0.3 0.8z"/>
		<path class="s2" d="m448.3 900.9h-3.9v16l3.9-0.3v-15.7z"/>
		<path class="s2" d="m448.3 882l-3.9 0.4v15.6h3.9v-16z"/>
		<path class="s2" d="m868.6 936.2h-4.4v13.1l4.4 0.7v-13.8z"/>
		<path class="s2" d="m773.9 982.8l4-0.8v-15.1h-4v15.9z"/>
		<path class="s2" d="m849.2 932.2h4.5v-13.2l-4.5-0.5v13.7z"/>
		<path class="s2" d="m868.8 920.2l-4.7-0.3v13.3l4.7 0.6v-13.6z"/>
		<path class="s2" d="m778.5 912.9l-4-0.4v15.5l4 0.2v-15.3z"/>
		<path class="s2" d="m872.5 901.6q0.1 0.1 0.3 0.2 0.1 0.1 0.3 0.1 0.1 0.1 0.3 0.1 0.2 0 0.3 0 0.2 0 0.3 0 0.2 0 0.3 0 0.2-0.1 0.3-0.1 0.2 0 0.3-0.1h0.4v-18.3l-3.5 0.9v15.3q0 0.2 0 0.5 0 0.3 0.1 0.5 0.1 0.3 0.2 0.5 0.2 0.2 0.4 0.4z"/>
		<path class="s2" d="m851.9 948.2h1.7v-13l-4.4-0.3v12.8l1.1 0.2q0.2 0.1 0.4 0.1 0.2 0.1 0.4 0.1 0.2 0 0.4 0.1 0.2 0 0.4 0z"/>
		<path class="s2" d="m464.5 554.5c-1.6 1.1-3.2 2.3-5 3.3l-1.5 1h1.8q0.6 0 1.3-0.1 0.6 0 1.3-0.1 0.6-0.2 1.2-0.4 0.7-0.2 1.3-0.4c4-2.4 7.9-4.8 12-7.3l4.6-2.8 1.8-1.1-2.1 0.2c-6.8 0.7-11.8 4.2-16.7 7.7z"/>
		<path class="s2" d="m856.9 902.2v14.5h4v-13.8l-4-0.7z"/>
		<path class="s2" d="m856.9 948.7l4.1 0.3v-13.4h-4.1v13.1z"/>
		<path class="s2" d="m856.9 932.8l4.1 0.2v-13.4l-4.1-0.3v13.5z"/>
		<path class="s2" d="m444.6 879q0.1 0 0.1 0.1 0 0 0 0 0 0.1 0 0.1 0.1 0.1 0.1 0.1l0.1 0.3h3.1v-14.9l-0.3-0.1q-0.3-0.2-0.7-0.2-0.3-0.1-0.6-0.1-0.4 0-0.7 0.1-0.3 0-0.7 0.2-0.2 0.2-0.3 0.5-0.2 0.2-0.3 0.5-0.1 0.3-0.1 0.7-0.1 0.3 0 0.6 0.1 3.5 0.1 7.1v4.3q0 0.1 0 0.2 0.1 0.1 0.1 0.2 0 0 0.1 0.1 0 0.1 0 0.2z"/>
		<path class="s2" d="m555.4 774.8c-1.8 0-2.9 0.2-3.4 0.8-0.6 0.7-0.6 1.6-0.5 3.1q0 0.5 0.1 1 0.1 0.5 0.2 0.9 0 0.5 0.1 1 0.1 0.5 0.2 0.9l0.4 2 0.1 0.5 5.8-0.6-2.6-9.6z"/>
		<path class="s2" d="m818.4 680.4q0.2 0 0.4 0 0.1 0.1 0.3 0.1 0.1 0.1 0.3 0.2 0.1 0 0.3 0.1c0.9 2.5 2.9 2.6 4.7 2.7q0.2 0 0.4 0 0.2 0 0.5 0 0.2 0 0.4 0.1 0.2 0 0.4 0l3 0.6-2.7-1.5q-0.7-0.4-1.3-0.8-0.7-0.5-1.3-1-0.7-0.4-1.2-1-0.6-0.5-1.2-1.1c-2.7-2.5-5.6-5.1-10.1-5.6l-1-0.1 0.8 1.2c1.9 2.6 3.8 5.1 7.3 6.1z"/>
		<path class="s2" d="m873.2 966.8c0.4 0.2 0.8 0.5 1.2 0.8l0.8 0.6v-15l-3.5-0.6v3.6c0 3.1 0 6 0.1 9 0 0.7 0.6 1.1 1.4 1.6z"/>
		<path class="s2" d="m613.8 675.1h-21.2l21.2 4.9v-4.9z"/>
		<path class="s2" d="m872.3 950q0.1 0.1 0.3 0.2 0.1 0 0.3 0.1 0.1 0 0.3 0 0.1 0 0.2 0 0.2 0 0.4 0 0.2 0 0.4 0 0.2-0.1 0.4-0.1 0.2-0.1 0.4-0.1l0.3-0.1v-3.2c0-2.8 0-5.6 0-8.3 0-0.7-0.7-1.1-1.3-1.6q-0.1 0-0.1-0.1-0.1 0-0.2-0.1-0.1-0.1-0.2-0.1 0-0.1-0.1-0.2l-0.3-0.2-1.4 1v10.8q-0.1 0.3 0 0.5 0 0.3 0.1 0.6 0 0.2 0.2 0.5 0.1 0.2 0.3 0.4z"/>
		<path class="s2" d="m873 983.2q0.1 0.1 0.2 0.1 0.1 0.1 0.1 0.2 0.1 0 0.2 0.1 0.1 0.1 0.2 0.1l0.2 0.3 1.4-0.8v-3.1c0-2.8 0-5.7-0.1-8.6 0-0.6-0.7-1-1.4-1.5q-0.1-0.1-0.2-0.1-0.1-0.1-0.2-0.1-0.1-0.1-0.1-0.2-0.1 0-0.2-0.1l-0.7-0.5-0.1 0.8q-0.2 1.5-0.4 2.9-0.1 1.5-0.2 3-0.1 1.4-0.1 2.9 0 1.5 0.1 2.9c0.1 0.7 0.7 1.2 1.3 1.7z"/>
		<path class="s2" d="m873.9 904.9q-0.1-0.1-0.2-0.1-0.1-0.1-0.1-0.1-0.1-0.1-0.2-0.2-0.1 0-0.2-0.1l-0.6-0.5-0.1 0.8q-0.3 1.4-0.4 2.9-0.2 1.4-0.2 2.8-0.1 1.4-0.1 2.9 0 1.4 0.1 2.8c0 0.7 0.6 1.2 1.2 1.6q0 0.1 0.1 0.2 0.1 0 0.2 0.1 0 0.1 0.1 0.1 0.1 0.1 0.2 0.2l0.2 0.2 1.4-0.8v-3c0-2.7 0-5.6-0.1-8.4 0-0.6-0.6-0.9-1.3-1.4z"/>
		<path class="s2" d="m871.9 932c0 0.7 0.6 1.2 1.2 1.7q0 0.1 0.1 0.1 0.1 0.1 0.2 0.2 0 0 0.1 0.1 0.1 0.1 0.2 0.2l0.2 0.3 1.4-0.8v-3c0-2.8 0-5.6 0-8.4 0-0.6-0.7-1-1.3-1.5q-0.3-0.2-0.6-0.4l-0.3-0.3-1.3 0.9v3c0 2.6 0 5.3 0.1 7.9z"/>
		<path class="s2" d="m706.7 566h0.3l0.7-1.4-14.9-8.9-0.9 1.4 0.4 0.2c1 0.9 2.1 1.9 3.1 2.8 2.9 2.9 6 5.9 11.1 5.9z"/>
		<path class="s2" d="m648.7 543.1q1.2 1.5 2.4 3 1.2 1.5 2.4 3 1.3 1.5 2.6 2.9 1.3 1.5 2.6 2.9 0.3 0.3 0.7 0.5 0.3 0.2 0.7 0.4 0.3 0.2 0.7 0.4 0.4 0.2 0.8 0.3c0.5 0.2 0.9 0.3 1.4 0.5l0.3 0.2 1-1.5-18.4-16.4z"/>
		<path class="s2" d="m476 554l0.4 1.5h0.5q0.9-0.2 1.9-0.3 0.5 0 1.1-0.1 0.5-0.1 1.1-0.2 0.5-0.2 1-0.4 0.5-0.2 1-0.5 0.8-0.6 1.6-1.2 0.7-0.6 1.5-1.3 0.7-0.6 1.4-1.3 0.7-0.7 1.4-1.4 1.1-1.2 2.3-2.3l0.4-0.3-1.1-1.2z"/>
		<path class="s2" d="m585.6 493.3c0.5 0 1.1-0.1 1.6-0.3 0.5-0.3 0.9-0.7 1.2-1.1 0.2-0.5 0.4-1.1 0.3-1.6 0-0.6-0.2-1.1-0.5-1.6q-0.2-0.2-0.4-0.4-0.3-0.3-0.6-0.4-0.2-0.2-0.5-0.2-0.4-0.1-0.7-0.2c-1.6-0.1-3.4 0.9-5.1 2.6l-0.3 0.3 0.2 0.4q0.4 0.5 1 1 0.5 0.4 1.1 0.7 0.6 0.3 1.2 0.5 0.7 0.2 1.4 0.3z"/>
		<path class="s2" d="m503.2 689.5c-3.3-0.1-3.9 0.4-3.4 3.9l11.6-3.2-0.1-0.7c-2.7 0-5.4 0.1-8.1 0z"/>
		<path class="s2" d="m580 514.8l0.5 0.3c2.6 1.4 4.5 2 5.8 2q0.1 0 0.3 0 0.2-0.1 0.4-0.1 0.1 0 0.3-0.1 0.2-0.1 0.3-0.2c0.9-0.5 1.4-1.6 1.4-3.3v-0.4l-0.3-0.1c-4.2-1.5-6.5-1.2-8.4 1.4z"/>
		<path class="s2" d="m419.5 572.2l-0.4 0.5 0.6 0.2q0.3 0.2 0.7 0.3 0.3 0.1 0.7 0.2 0.3 0 0.6 0.1 0.4 0 0.7 0 0.8 0 1.5-0.1 0.8-0.2 1.4-0.6 0.7-0.4 1.2-0.9 0.6-0.5 0.9-1.2l0.3-0.5-0.5-0.2c-3-1.1-5.5-0.4-7.7 2.2z"/>
	</g>
</svg>