<svg version="1.2" xmlns="http://www.w3.org/2000/svg" viewBox="0 0 1210 1210" width="1210" height="1210">
	<title>12-Hyjnesha-01-svg</title>
	<style>
		.s0 { fill: #000000 } 
		.s1 { fill: #ffffff } 
	</style>
	<g id="Black">
		<path class="s0" d="m0 0h1210v1210h-1210z"/>
	</g>
	<g id="Color">
		<path fill-rule="evenodd" class="s1" d="m5 4.5h1200v1201h-1200zm601.2 122.2q-1.8-0.1-3.5-0.1-1.8-0.1-3.5 0-1.8 0.1-3.5 0.2-1.2 0.2-2.5 0.4-1.2 0.3-2.4 0.6-1.2 0.3-2.4 0.6-1.2 0.4-2.4 0.8c-20.5 6.7-35.4 20.3-42.2 38.4q-0.7 1.9-1.2 3.8-0.6 1.9-1.1 3.8-0.4 1.9-0.8 3.9-0.4 1.9-0.6 3.9c-0.9 5.5-3 8.2-9.8 12.7q-0.8 0.6-1.6 1.1-0.8 0.6-1.5 1.1-0.8 0.6-1.5 1.2-0.8 0.6-1.5 1.2c-1.1 1-4.2 3.7-6.8 5.9-5.6 4.9-12 11.2-14.1 14-0.8 1.1-2.1 3.1-2.9 4.5l-3.7 6.2c-1.2 2-3.4 6.1-4.8 9.1-3.2 6.5-4.8 9-7.1 11.2-4.6 4.4-5.3 5.4-6.1 8.7q-0.2 1.4-0.3 2.8-0.2 1.4-0.1 2.8 0 1.4 0.1 2.8 0.1 1.4 0.4 2.8 0.3 1.4 0.7 2.7 0.4 1.3 0.9 2.6 0.4 1.4 0.9 2.7 0.6 1.2 1.1 2.5c4 8.6 3.9 8.5 3.9 14.9 0 8-0.6 11.6-2.3 15.1q-0.3 0.6-0.7 1.1-0.3 0.6-0.7 1.1-0.4 0.6-0.8 1.1-0.5 0.4-1 0.9c-4.8 5-6.8 9.3-6.8 14.9 0 5.2 1.5 9.1 6.3 16.9 5.8 9.1 13.3 18.5 24.8 30.6 7.7 8.2 10.5 11.6 13.9 16.7q2.1 3 3.8 6.2 1.7 3.2 3 6.6 1.4 3.3 2.3 6.8 0.9 3.5 1.5 7.1 0.2 1.8 0.3 3.5 0.2 1.8 0.2 3.6 0 1.7-0.1 3.5 0 1.8-0.2 3.5-0.2 1.6-0.5 3.1-0.4 1.5-0.9 2.9-0.5 1.5-1.1 2.9-0.7 1.4-1.5 2.7-0.5 0.9-1.1 1.7-0.5 0.8-1.2 1.6-0.6 0.9-1.2 1.6-0.7 0.8-1.4 1.5c-2.6 2.8-3.3 4.2-3.6 7q0 0.6-0.1 1.2-0.1 0.6-0.3 1.2-0.2 0.5-0.5 1-0.3 0.6-0.7 1c-0.6 0.7-3 2.7-12.3 10.6-10.3 8.7-14.8 12.7-15.5 13.8-0.4 0.5-1.3 1.8-1.9 3q-0.4 0.8-1 1.5-0.6 0.8-1.3 1.4-0.7 0.7-1.4 1.2-0.8 0.5-1.7 0.9c-3.2 1.7-3.8 2.1-5.6 4.6-6.1 8.1-14.4 13.9-33.7 23.6-6.7 3.4-12.3 6.7-29.3 17.7-11.3 7.2-17.9 12.2-19 14.4q-0.1 0.3-0.2 0.6-0.1 0.2-0.1 0.5-0.1 0.3-0.1 0.6-0.1 0.3-0.1 0.6-0.1 0.7-0.2 1.3-0.2 0.7-0.5 1.3-0.3 0.6-0.7 1.1-0.4 0.6-1 1-0.6 0.5-1.2 0.9-0.6 0.5-1.3 0.9-0.6 0.5-1.3 0.9-0.6 0.4-1.3 0.8c-11.1 6.7-18.2 12.1-25.5 19.5-4.5 4.4-6.2 6.5-8 10.2-3.9 7.7-5.8 18.1-4.3 23.4 1.7 5.8 5.8 10.4 12.9 14.3 2.8 1.6 3.2 1.8 3 2.9-0.2 1.2-0.8 2.3-2.7 5q-0.6 0.8-1.1 1.5-0.4 0.8-0.9 1.6-0.4 0.9-0.8 1.7-0.3 0.9-0.6 1.8c-0.6 1.8-0.6 2.2-0.6 5.7 0 3.5 0 4 0.6 5.9q0.5 1.4 1 2.9 0.5 1.4 1.2 2.8 0.6 1.4 1.3 2.8 0.8 1.4 1.6 2.7c5.8 9.3 11.3 16 17 20.7 1.1 0.9 3.9 3 6.3 4.7 7.5 5.2 7.2 4.9 29.3 25.2 5.9 5.3 13.7 12.5 17.3 15.7 4.1 3.7 7.9 7.4 9.9 9.5 4.8 5.3 7.9 8.2 10.8 10.2q0.7 0.4 1.3 0.8 0.6 0.5 1.2 1 0.6 0.5 1.1 1.1 0.5 0.6 0.9 1.2 0.5 0.5 0.9 1 0.4 0.5 0.9 1 0.4 0.5 0.9 0.9 0.5 0.5 1 0.9c3 2.5 5 4.8 6 7 0.5 1.2 1.2 2.5 1.5 3.2q0.4 0.7 0.9 1.3 0.5 0.7 1.1 1.3 0.6 0.5 1.2 1.1 0.6 0.5 1.3 0.9c4.2 2.7 5 5.5 3.3 10.6-1.1 3.2-4.2 13.1-5 15.8-2.5 9.2-2.8 16.3-0.8 23.4 0.2 0.6 0.4 2.1 0.6 3.2 0.4 2.5 0.4 2.5-2 3.2q-0.9 0.3-1.7 0.6-0.9 0.4-1.7 0.8-0.9 0.4-1.7 0.9-0.7 0.5-1.5 1-1.4 1.1-2.7 2.3-1.3 1.1-2.6 2.3-1.3 1.2-2.5 2.4-1.3 1.2-2.5 2.5c-4 4.1-5.4 6.4-6.2 10.4q-0.2 0.6-0.4 1.2-0.2 0.6-0.6 1.2-0.3 0.5-0.7 1.1-0.4 0.5-0.9 0.9c-0.6 0.5-3.1 2.4-5.7 4.1-5.6 3.7-7.5 5.4-9.3 8.5q-0.7 1.2-1.5 2.4-0.8 1.1-1.6 2.2-0.8 1.2-1.7 2.3-0.8 1-1.7 2.1c-5.6 7-8.9 11.8-10.3 15.3q-0.4 0.9-0.8 1.9-0.3 0.9-0.5 1.9-0.2 1-0.2 2-0.1 1 0 2.1 0 0.6 0 1.3 0 0.7-0.1 1.3-0.1 0.7-0.2 1.3-0.1 0.7-0.3 1.4-0.2 0.6-0.3 1.3-0.2 0.6-0.2 1.3-0.1 0.6-0.1 1.3 0 0.7 0 1.3c0 5.4 0.8 7.4 4.7 12.5 2.9 3.6 4.1 5.6 4.5 7.3 0.4 1.5 0.3 2.9-0.7 11.6-0.5 3.6-1.6 15.8-2.4 25.3-0.3 3.2-0.5 7.2-0.5 13.4 0 9.6-0.1 10.2-1.4 12.5q-0.1 0.2-0.3 0.5-0.1 0.3-0.2 0.6-0.1 0.4-0.1 0.7 0 0.3 0 0.6c0 1.4 1.8 11.5 4.6 25.8 2.6 13.4 4.1 17.8 11.2 35 2 4.9 4.3 10.4 5 12.3 1.7 4.2 2.9 6.3 5 8.5 5.1 5.5 13 7.5 20.8 5.2l4.1-1.2q1.7-0.6 3.3-1.3 1.6-0.6 3.1-1.3 1.6-0.8 3.2-1.5 1.5-0.8 3-1.7c3.6-2.1 5.5-4.1 6.9-7.2q0.5-0.9 0.9-1.9 0.3-1 0.5-2 0.3-1.1 0.4-2.1 0.1-1 0.1-2.1 0.1-1.1 0-2.1 0-1.1-0.2-2.2-0.1-1-0.4-2.1-0.3-1-0.8-2-0.1-0.3-0.2-0.6-0.1-0.4-0.2-0.7-0.1-0.3-0.1-0.7-0.1-0.3-0.1-0.7c-0.1-0.7 0.6-3.2 1.9-7.7 3.2-10.8 4.8-15.5 8.2-22.9 1.2-2.8 11.4-23.9 11.7-24.1q0.1 0 0.2 0.1 0.1 0.1 0.2 0.1 0.1 0.1 0.2 0.2 0.1 0 0.2 0.1c0.8 0.7 1.2 1.3 6.8 12 1.8 3.5 5 9.5 7 13.3 7.9 14.8 11.8 23.6 14.9 33.8 0.6 2.3 2 6.4 3 8.9 3.1 8.1 3.6 10.9 3.1 15.3q-0.1 1.6-0.1 3.3-0.1 1.6 0 3.3 0 1.6 0.1 3.3 0.2 1.6 0.3 3.3c0.9 5 3.2 9 6.9 11.4q1 0.6 2.1 1.2 1.1 0.6 2.2 1.2 1.1 0.5 2.2 1 1.1 0.5 2.3 0.9 1.5 0.5 3 0.9 1.6 0.3 3.2 0.5 1.5 0.1 3.1 0 1.6 0 3.2-0.3 0.9-0.2 1.9-0.2 0.9-0.1 1.9 0 0.9 0.1 1.9 0.2 0.9 0.2 1.8 0.5c7.4 1.9 14.4 1.9 23.2 0 1.9-0.4 5.4-1.1 7.7-1.5 6.3-1.1 9.2-1.9 12.4-3.5q0.3-0.2 0.7-0.3 0.4-0.2 0.8-0.3 0.3-0.1 0.7-0.1 0.4-0.1 0.8-0.1 1.1 0 2.1-0.2 1.1-0.2 2.1-0.6 1-0.4 1.9-1 0.9-0.6 1.6-1.3c2.1-2.3 3-5.1 3.5-11.5 0.4-4.9 1.8-19.3 2.1-22q0.5-3.1 1.2-6.1 0.6-3.1 1.5-6.1 0.8-3 1.7-5.9 1-3 2.1-5.9 1.6-4.2 3.4-8.3 1.7-4.1 3.7-8.2 1.9-4 4-8 2.1-3.9 4.4-7.8c3.1-5.5 7.5-14 12.7-24.9 7.2-15.1 8.6-17.7 9.5-18.5q0.1-0.1 0.2-0.2 0.1-0.1 0.3-0.2 0.1-0.1 0.3-0.2 0.1-0.1 0.3-0.1c0.6 0 1.7 1.3 4 4.7 2.7 4.2 3.5 5 6.5 7.6 5.4 4.3 8.8 8.5 16.5 19.7 2 3 4.1 6 4.6 6.6 1.7 2.3 2.4 4.4 1.7 5q-0.3 0.1-0.6 0.3-0.3 0.1-0.6 0.2-0.3 0.2-0.7 0.3-0.3 0.1-0.6 0.2-1 0.3-2 0.8-0.9 0.4-1.9 1-0.9 0.5-1.7 1.1-0.9 0.7-1.7 1.4-1.1 1-2 2.1-0.9 1.2-1.7 2.5-0.7 1.2-1.3 2.6-0.6 1.4-1 2.8-0.3 1.4-0.4 2.8-0.1 1.4-0.1 2.8 0 1.4 0.1 2.8 0.1 1.4 0.4 2.8c1.9 7.5 5.2 13.2 11.7 19.8 3.5 3.7 5.9 5.5 9.2 7.1q1.1 0.6 2.2 1 1.1 0.5 2.3 0.8 1.2 0.2 2.4 0.4 1.2 0.1 2.4 0.1 0.5 0 1.1 0 0.5-0.1 1-0.1 0.5 0 1.1-0.1 0.5 0 1-0.1c2.1-0.5 16.3-5.2 17.8-6q1-0.5 1.9-1.1 1-0.6 1.8-1.3 0.9-0.8 1.6-1.6 0.8-0.9 1.4-1.8 0.6-1.2 1.2-2.3 0.6-1.2 1.2-2.4 0.5-1.2 1.1-2.4 0.5-1.3 0.9-2.5c2.6-6.6 3.7-14.4 3.7-24.8-0.1-12.5-1.2-25-4.2-45-2-13.5-2.2-14.4-2.2-17.4-0.1-3.4-0.2-3.3 3.4-3.1 3.3 0.1 5.1-0.3 7.2-1.9 6-4.4 8-14.2 4.5-22.7q-0.7-1.6-1.6-3-0.9-1.5-2-2.8-1.1-1.3-2.5-2.4-1.3-1.1-2.8-2c-2.9-1.7-5.4-4.2-6.3-6.2q-0.4-0.7-0.7-1.6-0.2-0.8-0.3-1.7-0.2-0.8-0.2-1.7 0-0.9 0.2-1.7c0.6-7.8-0.2-10.9-3.5-14.3l-1.3-1.3v-3c0-2.8 0-3-0.6-4.1q-0.5-0.7-1-1.3-0.5-0.6-1.1-1.2-0.5-0.6-1.1-1.1-0.6-0.6-1.2-1.1c-5.2-4.9-7.5-7.9-10.1-12.9q-0.5-1.1-1-2.3-0.6-1.1-1-2.2-0.4-1.2-0.8-2.4-0.4-1.1-0.7-2.3-0.2-1-0.5-2-0.3-0.9-0.6-1.8-0.4-1-0.7-1.9-0.4-0.9-0.9-1.8c-2.5-5.2-6.1-8.3-12.7-11.6q-0.6-0.3-1.2-0.6-0.6-0.2-1.1-0.6-0.6-0.3-1.1-0.6-0.6-0.3-1.1-0.7c-0.5-0.4-0.5-0.6-0.3-1.2q0.3-0.5 0.6-1 0.2-0.4 0.5-0.8 0.3-0.5 0.6-0.9 0.3-0.4 0.7-0.8 0.7-0.9 1.3-1.8 0.7-0.9 1.2-1.8 0.6-1 1.1-2 0.5-1 0.9-2c2.4-5.9 2.4-11.6-0.1-18.3q-0.7-1.9-1.5-3.8-0.8-1.8-1.6-3.7-0.9-1.8-1.7-3.6-0.9-1.8-1.9-3.6-0.4-0.9-0.9-1.9-0.5-0.9-0.9-1.8-0.4-0.9-0.8-1.9-0.4-0.9-0.8-1.9c-0.3-1.4 0.6-2.9 2.9-5.1 6.3-6 18.5-18.3 18.8-19q0.1-0.2 0.2-0.4 0.1-0.2 0.1-0.4 0.1-0.2 0.2-0.4 0-0.2 0.1-0.4c0.5-2.4 2-3.7 6-5.7 6.1-2.9 9.3-5.8 16.3-15.3 6.1-8.1 8.3-10.5 15.4-16.7 6-5.1 9.7-8.2 21.4-17.8 4.6-3.7 9-7.3 10-8.2 1.3-1 3.6-3.6 8-9 7-8.3 8.8-10.5 13.4-15.4q1.7-1.8 3.3-3.8 1.5-2.1 2.8-4.2 1.4-2.2 2.5-4.4 1.1-2.3 2-4.7c1.8-4.5 2.2-6.4 2.1-9.1q0-0.6-0.1-1.1 0-0.5-0.2-1.1-0.1-0.5-0.3-1-0.2-0.5-0.5-1c-1-2-2.3-3.5-6.7-7.4-2.3-2.2-2.8-2.9-2.5-3.8 0.3-0.8 1.5-2.1 4.4-4.6 2.8-2.4 7.4-7.7 8.4-9.8 1.3-2.6 2.3-10.6 1.8-14.9-0.5-4.8-1.4-7-5.5-13.1q-0.9-1.5-1.9-2.9-1-1.4-2.1-2.8-1.1-1.3-2.2-2.6-1.2-1.3-2.4-2.5c-4-3.8-12.6-11-24.6-20.3q-1.7-1.4-3.4-2.7-1.7-1.4-3.5-2.6-1.7-1.3-3.5-2.6-1.8-1.2-3.6-2.4c-2-1.3-9.2-6.2-16-10.8-16.3-11-31.3-21-42.3-28.2-14.3-9.3-16.9-11.2-34.7-25.5-9.8-7.8-12.8-10.3-15.3-12.8-4.5-4.6-6.4-6.9-8.4-10.1-2.2-3.7-3.6-5.2-6.1-6.4-2.8-1.5-3.1-2.1-3.4-7-0.1-2.7-0.3-3.5-0.7-4.2q-0.3-0.6-0.6-1.1-0.3-0.5-0.7-1.1-0.3-0.5-0.7-1-0.3-0.5-0.7-1c-1.7-1.8-1.7-3.6-0.2-9.3 2-7.6 5.1-14.8 11-25.1 3.7-6.5 3.3-6.1 9.1-10.9 2.9-2.4 6.8-5.5 8.8-7 5.8-4.3 8.1-6.2 11.1-9.2 9.1-9 16.2-21.4 18.5-32 2.1-9.8 0.7-18.4-4.4-27.3q-0.5-0.8-0.9-1.6-0.4-0.9-0.7-1.8-0.3-0.8-0.5-1.8-0.2-0.9-0.3-1.8c-0.2-1.9 0.4-13.8 0.9-17.4 0.8-6.4 1.4-8.5 3.6-13.1 2.8-5.7 4.6-12 4.6-16.1 0-3.8-1-6.1-4.2-10q-1.4-1.7-2.7-3.5-1.3-1.8-2.4-3.7-1.2-1.8-2.2-3.8-1-1.9-1.9-3.9c-0.5-1.1-1.5-3.7-2.2-5.8q-0.5-1.9-1.3-3.7-0.7-1.7-1.5-3.4-0.9-1.7-1.9-3.4-1-1.6-2.2-3.1c-1.9-2.5-8.5-10.6-11.7-14.3-5.6-6.7-9-11.5-11.6-16.8q-0.9-1.7-1.6-3.4-0.7-1.7-1.3-3.5-0.6-1.8-1-3.6-0.4-1.9-0.6-3.7-0.3-1.7-0.7-3.4-0.4-1.6-0.9-3.3-0.5-1.6-1.1-3.2-0.5-1.7-1.2-3.2c-1.6-3.9-4.1-7.6-9.5-14.4l-3.8-4.8-5-3.6c-8.8-6.5-11.2-7.9-18.2-10.7q-2.2-0.9-4.5-1.8-2.3-0.8-4.7-1.5-2.3-0.7-4.7-1.3-2.4-0.5-4.8-1-1.7-0.2-3.4-0.4z"/>
		<path class="s1" d="m595 131.9q-2.2 0.4-4.4 0.9-2.1 0.6-4.2 1.3-2.2 0.7-4.2 1.5-2.1 0.9-4.1 1.9-2.2 1.1-4.4 2.4-2.1 1.2-4.2 2.7-2 1.4-4 3-1.9 1.6-3.7 3.4c-8.7 8.4-12.5 15.1-15.7 28.1-1 4.2-1.3 6-0.9 6.4 0.1 0.1 0.5 0 0.9-0.2 0.9-0.4 10-9.9 10.6-11q0.2-0.4 0.3-0.9 0.1-0.4 0.2-0.9 0-0.5 0.1-0.9 0-0.5 0-0.9c0.1-2.5 0.2-3 0.7-4.1q0.4-0.8 1.1-1.5 0.6-0.7 1.3-1.3 0.8-0.5 1.6-0.9 0.8-0.3 1.7-0.5 0.7-0.2 1.3-0.2 0.6-0.1 1.2-0.1 0.6 0.1 1.2 0.1 0.7 0.1 1.3 0.3c2.5 0.5 3.6 0.3 6.1-0.9q0.5-0.3 1-0.6 0.4-0.2 0.9-0.5 0.4-0.4 0.8-0.7 0.4-0.3 0.8-0.7c1.4-1.3 1.6-1.7 3.6-6 1.5-3.1 3.8-4.6 6.7-4.4 1.7 0.1 2.4 0.5 4.3 2.1q0.3 0.3 0.6 0.5 0.4 0.3 0.7 0.5 0.4 0.3 0.7 0.5 0.4 0.2 0.8 0.4 0.7 0.3 1.4 0.5 0.8 0.2 1.6 0.4 0.7 0.1 1.5 0.1 0.8 0.1 1.6 0c0.6-0.1 3.5-0.2 6.3-0.2 6.5-0.1 6.5-0.1 7.8-2.8 1.6-3.2 3.4-4.4 6.3-4.4q0.6 0 1.3 0.1 0.6 0.1 1.2 0.3 0.5 0.2 1 0.6 0.6 0.3 1 0.8 0.4 0.4 0.8 1 0.3 0.5 0.6 1.1 0.3 0.5 0.5 1.1 0.3 0.6 0.4 1.2 0.2 0.6 0.4 1.1 0.3 0.5 0.6 1 0.3 0.5 0.6 1 0.4 0.4 0.8 0.8c0.8 0.8 4.7 2.5 17.2 7.6 3.5 1.4 4.2 1.7 5.2 2.7q0.3 0.3 0.5 0.5 0.3 0.3 0.4 0.6 0.2 0.4 0.3 0.7 0.2 0.4 0.2 0.7c1 5.3 2 7.3 6 12.6 2.5 3.3 3.5 4.3 3.5 3.5 0-0.4-3.3-10.7-4.1-13q-0.9-2.1-1.8-4.2-1-2-2.1-4-1.2-2-2.5-3.9-1.2-1.9-2.6-3.7-1-1.1-2-2.2-1.1-1.1-2.2-2.2-1.1-1-2.2-2-1.2-1-2.4-1.9c-3.9-2.8-16.5-9.4-20.7-10.9q-2.1-0.7-4.2-1.3-2.1-0.6-4.3-1-2.1-0.5-4.3-0.8-2.1-0.4-4.3-0.6-1.2-0.1-2.5-0.2-1.3-0.1-2.5-0.1-1.3 0.1-2.5 0.2-1.3 0.1-2.5 0.4z"/>
		<path class="s1" d="m621.5 149.6q0 0 0 0 0 0.1 0 0.1 0 0 0 0.1 0 0 0 0.1c1.7 1.3 1.7 1.2 1.8 0.8 0.2-0.4 0-0.5-0.5-0.9-0.6-0.5-1-0.6-1.3-0.2z"/>
		<path class="s1" d="m605.1 156.6q-1.4 0.1-2.8 0.3-1.4 0.1-2.8 0.3-1.4 0.2-2.8 0.5-1.4 0.2-2.8 0.5-2.1 0.4-4.2 1-2.2 0.5-4.2 1.2-2.1 0.7-4.1 1.5-2 0.8-4 1.7c-4.6 2.3-6.4 3.7-7.5 6-0.5 0.9-1.5 8.7-2.2 17q-0.1 3.1-0.2 6.1-0.1 3.1 0 6.1 0 3.1 0.1 6.2 0.1 3 0.4 6.1c0.7 10.7 2.3 29.2 3 34.3q0.3 1.6 0.4 3.3 0.2 1.7 0.3 3.3 0.1 1.7 0.1 3.3 0.1 1.7 0 3.4c0.2 13-0.5 31.7-2.7 67.7-1.3 20.1-1.9 26.1-3.6 35.2q-0.5 2.4-1.1 4.9-0.6 2.4-1.3 4.8-0.7 2.4-1.5 4.8-0.8 2.4-1.7 4.7l-1.2 3.4v3.9q0 0.6 0 1.3 0 0.6 0 1.2 0.1 0.6 0.1 1.2 0.1 0.6 0.2 1.2c0.5 1.8 2 3.6 5 6.1 4.1 3.5 4.7 3.7 6.9 2.8 0.8-0.3 0.8-0.3 1.4 0.1 1 0.7 1.4 1.4 1.9 3.2q0.2 0.8 0.4 1.5 0.3 0.7 0.7 1.3 0.4 0.7 0.8 1.3 0.5 0.6 1 1.1c1.9 1.9 5.4 3.5 9.9 4.6 2.6 0.6 6.4 0.7 11.5 0.2 2.5-0.3 5.4-0.6 6.3-0.7 6.8-0.5 12.3-3.4 18.7-9.7 2.2-2.1 3-3.3 3.5-5.2 0.6-2.2 0.2-3.5-2-7.5-5.3-9.6-7.8-19.1-9.4-35.8-1.1-11.3-1.8-23.4-2.3-40.8-0.9-32-0.8-33.4 5.4-71.3 1.2-7.5 2.7-16.6 3.3-20.3 2.1-13.9 3.4-18 10.8-33 10.1-20.7 10.3-21.2 10.3-22.7 0-1.2 0-1.5-0.6-2.1q-0.9-0.7-1.8-1.3-0.9-0.6-1.9-1.2-0.9-0.6-1.9-1.1-0.9-0.5-1.9-1-1.6-0.8-3.2-1.5-1.6-0.7-3.3-1.3-1.7-0.6-3.4-1-1.7-0.5-3.4-0.9c-2.8-0.5-10.2-0.6-16.6-0.2z"/>
		<path class="s1" d="m647.3 172.3c-0.9 1.2-13.8 29.3-17.5 38.2-1.6 3.7-1.9 5.1-1.9 8 0 5.5 2.2 11.8 6.5 18.6 1.8 2.8 9.1 13.3 10.4 14.9 1.8 2.1 8.5 5.8 14.2 7.6 4.4 1.5 8.7 2.3 15.9 3.2 3.2 0.4 9.4 1.2 13.6 1.8 7.8 1.1 10 1.3 12.5 0.9 2.3-0.3 3.3-0.7 4.1-1.5 0.9-0.8 0.8-0.8 0.7-2.4-0.1-1.3-0.4-2.3-1.6-5.3-0.8-2-1.9-5.1-2.4-6.8-2.3-7.5-2.7-8.7-3.4-9.8-1-1.6-1.6-1.8-5.7-1.7-7.7 0.2-9.9 0-13.8-1.2-8.3-2.8-15.8-9.7-17.5-16.3-0.8-3.1-0.2-11.2 1.5-18.4 1.4-6.2 1.6-8.3 1-10.5-0.5-1.7-1.4-3.1-3.9-5.9q-0.8-0.9-1.6-1.8-0.7-0.9-1.4-1.9-0.7-0.9-1.4-1.9-0.7-1-1.3-2c-2.5-4.1-3.6-5.4-4.6-6-1.1-0.7-1.8-0.6-2.4 0.2z"/>
		<path class="s1" d="m562.1 174.6c-0.5 0.3-4.2 3.8-8.7 8.3-7 7-7.9 8-8.5 9.3q-0.3 0.4-0.4 0.8-0.2 0.4-0.3 0.8-0.1 0.4-0.1 0.8 0 0.4 0 0.9 0 0.4 0 0.7 0 0.4 0.1 0.8 0.1 0.4 0.2 0.8 0.1 0.3 0.3 0.7 0.2 0.3 0.3 0.7 0.1 0.3 0.2 0.7 0 0.4 0 0.8 0 0.3-0.1 0.7c-0.1 0.9-0.5 3.7-0.8 6.3-1.1 8.6-2.7 15.4-4.7 19.2-2.1 4.2-5.9 6.7-10.2 6.7-3.3 0-6.6-1.4-14.6-6.1-5.1-3.1-6-3.5-7-3.3-0.6 0.1-1.1 0.6-3.1 3.1-4.2 5.2-6.1 8.4-7.4 12.3-0.8 2.5-1.1 5.7-0.6 6.8 0.9 2.2 6.7 5.1 16.2 8.2 5 1.6 6.8 1.9 10 1.9 4.4 0 6.4-0.6 13.8-4 9-4.1 13.6-7.2 16.9-11.4 1.8-2.3 2.9-4.5 4.4-8.6q0.3-0.9 0.7-1.8 0.4-0.9 0.8-1.8 0.4-0.8 0.9-1.6 0.5-0.9 1-1.7c1.6-2.5 2-5.4 1.5-9.3-0.1-0.9-0.3-3.5-0.5-5.8-0.2-4.3-0.2-8.3 0.4-19.3 0.4-7.8 0.6-17.1 0.4-17.1q-0.2 0-0.3 0.1-0.1 0-0.3 0.1-0.1 0.1-0.2 0.1-0.2 0.1-0.3 0.2z"/>
		<path class="s1" d="m538.5 196.1c-1.3 0.6-8.4 6.2-19.8 15.5-7.4 6.1-7.7 6.5-7 7.9 0.8 1.6 11.3 7.8 15.2 8.9 3 0.9 5.8 0.2 7.3-1.8 2.1-2.9 3.1-6.5 5.3-18.6q0.2-0.8 0.3-1.5 0.2-0.8 0.3-1.6 0.1-0.8 0.2-1.6 0.1-0.7 0.2-1.5-0.1-0.4-0.2-0.7-0.1-0.4-0.2-0.7 0-0.3 0-0.7-0.1-0.3-0.1-0.7c-0.3-3.1-0.5-3.5-1.5-2.9z"/>
		<path class="s1" d="m668.2 198.4c-0.4 0.7-2.1 9.7-2.4 13.2-0.6 5.7 0.5 9.6 3.7 13.4q1.9 2.3 4.5 4.1 2.5 1.7 5.3 2.8 2.9 1 6 1.3 3 0.2 6-0.3c4.5-0.8 4.6-0.9 3-3.1-1.5-2.2-25.3-31.7-25.6-31.8-0.1 0-0.3 0.2-0.5 0.4z"/>
		<path class="s1" d="m625.2 233c-0.5 1.2-1 3.3-2.2 10.8-4.2 25-6 47.8-5.4 67.9 0.3 10.2 1.6 31.3 2.4 40 1.1 11.4 4.1 25.9 7.1 34 1.5 3.8 4.5 11.2 4.8 11.5 0.4 0.6 0.5-0.2 0.3-4.4-0.2-5-0.2-5.3-4-19.4-3.2-11.9-4.2-16.7-5.3-24.8-1.4-11-3.4-36.4-3-40.8 0.4-6.3 2.5-32.5 2.9-37 0.6-6.7 1.1-11.7 2.5-22.3 1.7-14.5 1.7-13.2 1.1-15q-0.1-0.2-0.1-0.4-0.1-0.2-0.1-0.4-0.1-0.2-0.2-0.4-0.1-0.2-0.2-0.4-0.1 0.1-0.2 0.3-0.1 0.1-0.1 0.2-0.1 0.2-0.2 0.3 0 0.2-0.1 0.3z"/>
		<path class="s1" d="m564.1 234.3q0 0.4 0.1 0.8 0 0.4 0.1 0.9 0 0.4 0.1 0.8 0.1 0.4 0.2 0.8l0.5 2.8-0.1-2.9q0-0.4 0-0.9 0-0.4 0-0.8-0.1-0.4-0.2-0.8-0.1-0.5-0.2-0.9c-0.3-0.4-0.3-0.4-0.5 0.2z"/>
		<path class="s1" d="m631.3 242.9q-0.1 0.3-0.2 0.7-0.1 0.3-0.2 0.7-0.1 0.3-0.1 0.7-0.1 0.3-0.1 0.7c-0.1 1.1-1.5 12.5-3.1 25.3-1.5 12.8-2.8 23.4-2.8 23.6q0 0.1 0 0.1 0.1 0.1 0.1 0.2 0.1 0 0.1 0 0.1 0.1 0.2 0.1 0.3 0 0.2 0.4 0 0.9 0.1 1.8 0.1 0.9 0.2 1.8 0.1 0.9 0.3 1.8 0.1 0.9 0.3 1.8c0.1 0.2 4.6-5.6 4.8-6.3 0.2-0.7 3.8-19.9 5.5-30.1 1-5.9 1.1-6.5 1.1-10.3 0-3.8 0-4.1-0.6-5.8q-0.3-1.1-0.8-2-0.4-1-1-1.9-0.6-0.9-1.3-1.7-0.7-0.8-1.5-1.5l-0.9-0.7z"/>
		<path class="s1" d="m559 243.2c-0.8 2-2 9.3-2.4 14.6q-0.1 1.9-0.1 3.8-0.1 1.9-0.1 3.8 0 1.9 0.1 3.7 0 1.9 0.1 3.8c0.4 6.2 1.2 14 1.5 15.4q0.3 0.9 0.6 1.8 0.3 1 0.7 1.9 0.3 0.9 0.7 1.7 0.4 0.9 0.8 1.8c0.3 0.3 0.4-2.3 0.9-18.1l0.5-14-1.1-10c-0.5-5.4-1.1-10.1-1.2-10.4-0.3-0.7-0.7-0.6-1 0.2z"/>
		<path class="s1" d="m550.9 250.3c-2.4 1-4.1 3.4-5.3 7-2 6.1-1.8 13.7 0.5 23.1 0.8 2.9 1.1 3.7 2 4.6q0.4 0.4 0.8 0.7 0.4 0.3 0.9 0.5 0.5 0.2 1 0.3 0.5 0.1 1 0.1h1.1l-0.2-1.7c-0.1-1-0.2-3.1-0.4-4.8q-0.4-3.2-0.5-6.4-0.2-3.2-0.3-6.4 0-3.3 0.1-6.5 0.1-3.2 0.3-6.4c0.2-2.3 0.2-4.3 0.2-4.4 0-0.2-0.5-0.1-1.2 0.3z"/>
		<path class="s1" d="m494.2 252.6q-0.1 0-0.2 0-0.1 0.1-0.1 0.1-0.1 0.1-0.2 0.1-0.1 0.1-0.1 0.2c0 0 0.7 3 1.6 6.5 1 3.6 2.5 9.4 3.3 12.8 0.9 3.5 1.8 6.8 2 7.3 0.4 0.9 0.5 1 1.4 1 1.2 0 2.5-0.8 2.6-1.5q0-0.4-0.1-0.7-0.1-0.4-0.2-0.7-0.2-0.3-0.3-0.7-0.1-0.3-0.3-0.6-0.5-1.1-0.9-2.2-0.5-1.1-0.9-2.2-0.3-1.2-0.6-2.3-0.4-1.2-0.6-2.4-0.2-0.8-0.3-1.7-0.1-0.9-0.2-1.8-0.1-0.9-0.1-1.8 0-0.9 0-1.8c0-4.6-0.1-5-1.4-6.2q-0.4-0.3-0.8-0.6-0.4-0.2-0.9-0.5-0.4-0.2-0.8-0.4-0.5-0.1-1-0.3-0.1 0.1-0.2 0.1-0.1 0-0.3 0.1-0.1 0-0.2 0.1-0.1 0-0.2 0.1z"/>
		<path class="s1" d="m566.5 266.7c0 14.5-0.2 23-0.8 34.8-0.7 13.5-1.9 30.5-3 41.6q-1.6 17.1-6.8 27.5c-1.3 2.5-1.9 4.9-2.6 9.4-0.5 3.2-0.6 4.2-0.4 4.4 0.2 0.2 0.3 0.2 0.5 0.1 0.2-0.3 3.7-10 5-14.1q0.4-1.4 0.8-2.8 0.4-1.4 0.8-2.8 0.3-1.5 0.6-2.9 0.3-1.4 0.5-2.9c2.5-16 4-33.5 5.1-58.5 0.3-8.6 0.7-16.6 1.3-24.2 0.5-7.3 0.6-10.7 0.4-14.3q-0.1-1.1-0.2-2.2-0.1-1.1-0.2-2.2-0.2-1.1-0.4-2.2-0.1-1.1-0.4-2.2c-0.1-0.2-0.2 5.6-0.2 13.5z"/>
		<path class="s1" d="m487.2 255.8q-0.4 0.3-0.8 0.6-0.4 0.3-0.8 0.7-0.3 0.4-0.6 0.8-0.3 0.4-0.6 0.9c-1.7 3.3-1.8 8.8-0.4 13.9 1.1 3.9 4.6 11.7 5.6 12.7q0.1 0.1 0.2 0.2 0.1 0.1 0.3 0.2 0.1 0.1 0.3 0.1 0.1 0.1 0.3 0.1c0.8 0 2.7-2.3 3.8-4.4l0.9-1.9-0.5-2c-0.2-1.1-1.5-6-2.8-10.9-2.3-8.3-3.3-11.7-3.7-11.7q-0.2 0.1-0.3 0.2-0.2 0-0.3 0.1-0.2 0.1-0.3 0.2-0.1 0.1-0.3 0.2z"/>
		<path class="s1" d="m538 256.8q-0.6 0.2-1.2 0.5-0.5 0.4-1 0.8-0.5 0.4-0.8 0.9-0.4 0.5-0.7 1.1c-0.9 1.8-1.1 3.4-1.3 9.7-0.2 6.3 0.1 7.8 2 9.6q0.5 0.4 1.1 0.8 0.6 0.3 1.2 0.6 0.6 0.3 1.2 0.5 0.7 0.2 1.4 0.3l1.2 0.1-0.2-1.4c0-0.8-0.3-2.6-0.7-4.1q-0.5-2.1-0.7-4.3-0.3-2.2-0.3-4.4 0-2.2 0.3-4.4 0.2-2.2 0.7-4.3c0.3-1.1 0.3-1.6 0.1-2-0.2-0.7-0.6-0.7-2.3 0z"/>
		<path class="s1" d="m643 257.8c-0.1 0.2-0.7 3.6-4.2 23-1.1 6.4-2.2 12.3-2.3 13.2-0.3 1.3-0.3 1.7 0 2.2 0.2 0.5 0.4 0.5 0.5 0.5 0.1-0.1 1.3-0.4 2.7-0.7 4.1-0.9 4.7-1.4 6.4-5.3q0.9-2 1.7-4 0.7-2 1.4-4.1 0.6-2 1.1-4.1 0.6-2.1 1-4.2 0.2-1.1 0.3-2.1 0.2-1.1 0.3-2.1 0.1-1.1 0.2-2.2 0.1-1 0.2-2.1c0-3.2-1.6-5-5-6q-0.4-0.1-0.7-0.2-0.3-0.2-0.7-0.3-0.3-0.2-0.6-0.4-0.3-0.2-0.6-0.4c-1.2-0.9-1.5-1.1-1.7-0.7z"/>
		<path class="s1" d="m505.3 258.6q-0.1 0.3-0.2 0.6 0 0.3-0.1 0.7 0 0.3 0 0.7 0 0.3 0 0.6c0 2 0 2.5-0.3 2.6-0.3 0.1-0.3 0.2 0 1 0.2 0.5 1.2 3.4 2.4 6.6q0.2 0.8 0.5 1.5 0.3 0.8 0.6 1.5 0.3 0.8 0.6 1.6 0.3 0.7 0.6 1.4c0.5 0.5 1.7 0.4 3-0.2 1.4-0.5 1.6-1 1.2-3.1-0.1-0.8-0.6-3.8-1-6.7-1.2-8.5-1.2-8.4-3.3-8.8-1.5-0.4-3.7-0.4-4-0.1z"/>
		<path class="s1" d="m519.6 260.8c-1.8 0.5-2.6 2-2.6 4.6q0 1.1 0.2 2.2 0.1 1 0.3 2.1 0.2 1 0.5 2.1 0.3 1 0.6 2 0.2 0.6 0.6 1.1 0.4 0.5 0.8 0.9 0.4 0.5 1 0.8 0.5 0.4 1 0.6c2.3 1.1 5.8 0.8 6.5-0.5q0-0.2 0.1-0.4 0-0.2 0-0.4 0-0.3 0-0.5 0-0.2-0.1-0.4c-0.1-0.7-0.1-3.6-0.2-6.4 0-5.4 0-5.8-1.2-6.8-0.9-0.8-5.8-1.5-7.5-1z"/>
		<path class="s1" d="m711.1 263.8c-0.9 6.1-2.2 9.3-5.7 13.4-2.4 2.8-4 4.8-7.7 9.7-3.9 5.2-4 5.5-3 6.9 1.3 1.7 4.5 2.5 7 1.7 2.3-0.7 3.1-1.7 6.2-8.2 3.2-6.6 4.1-8.9 5.5-13.5l1-3.5-0.6-2.2c-1-3.7-1.2-4.3-1.8-4.7-0.5-0.4-0.7-0.5-0.9 0.4z"/>
		<path class="s1" d="m657.5 265.2q-0.1 0.4-0.2 0.8-0.1 0.4-0.2 0.8-0.1 0.4-0.2 0.8-0.1 0.4-0.1 0.8-0.4 2.4-0.8 4.8-0.5 2.4-1 4.8-0.5 2.4-1.1 4.7-0.6 2.4-1.3 4.7c-1 3-1 3.2-0.7 3.9 0.4 0.8 0.5 0.8 1.3 0.8q1-0.1 2-0.4 0.9-0.2 1.9-0.5 0.9-0.3 1.8-0.7 0.9-0.5 1.7-1 0.6-0.3 1.1-0.7 0.5-0.4 1-0.8 0.5-0.5 1-1 0.4-0.5 0.8-1c0.4-0.7 2.1-6.6 3.3-11.4 1.3-5.1 1.2-6.9-0.2-7.6q-1.1-0.4-2.2-0.7-1.1-0.3-2.3-0.5-1.1-0.3-2.2-0.5-1.1-0.2-2.3-0.4c-0.7-0.1-0.9 0-1.1 0.3z"/>
		<path class="s1" d="m674.8 268.1c-0.8 0.4-1.2 1.5-2 5.2-0.4 1.7-1.2 5.1-1.8 7.5q-0.1 0.7-0.3 1.3-0.1 0.6-0.2 1.2-0.2 0.6-0.2 1.3-0.1 0.6-0.2 1.2c0.2 0.8 1.3 1 5 1.1 2.7 0 3.3 0 3.8-0.3 0.5-0.3 0.8-1.3 2-4.8 2.9-8.8 3-11.9 0.7-13-1.9-1-5.7-1.3-6.8-0.7z"/>
		<path class="s1" d="m689.5 270.1c-0.9 0.4-1.1 0.9-1.8 3.9-0.3 1.5-1.1 4.7-1.8 7.2-1.6 6-1.8 6.7-1.5 7.2 0.3 0.5 2.8 0.9 3.7 0.7 1.1-0.3 3.5-2.2 5-3.8 1.6-2 9-11.3 10.1-13.3q0.2-0.2 0.3-0.3 0.1-0.2 0.2-0.4 0.1-0.2 0.2-0.4 0.1-0.2 0.2-0.4c0-0.4-1.8-0.5-8.6-0.6-4-0.1-5.4 0-6 0.2z"/>
		<path class="s1" d="m511 282.6q-2 0.4-3.9 0.9-2 0.6-3.9 1.3-1.9 0.8-3.7 1.7-1.8 0.9-3.5 2-1.3 0.8-2.3 1.9-1.1 1.2-1.7 2.6-0.7 1.3-1 2.8-0.2 1.6-0.1 3.1c0.3 3.3 1.4 5.7 4.3 8.9q2.6 2.6 5.2 5.2 2.6 2.5 5.3 5 2.7 2.5 5.4 4.9 2.8 2.4 5.6 4.8c9.5 7.6 18.5 11.3 28.1 11.8 4.6 0.2 7-0.4 9-2.2 2.4-2.3 3.1-5.4 4-17.5 0.3-4.2 0.3-5.1 0.1-5.3-0.3-0.1-0.4-1.7-0.5-7.1q0-0.9 0-1.9 0-0.9-0.1-1.9 0-1-0.1-1.9 0-1-0.2-1.9-0.2-0.8-0.6-1.4-0.3-0.7-0.8-1.4-0.4-0.7-0.9-1.3-0.5-0.6-1-1.2c-2-2.1-3.2-2.7-7.3-4-3.4-1-4.6-1.6-6.1-3q-0.5-0.5-1.2-0.9-0.7-0.4-1.4-0.6-0.8-0.2-1.6-0.2-0.8 0.1-1.5 0.3-0.5 0.2-1.1 0.2-0.5 0.1-1 0-0.6-0.2-1.1-0.4-0.4-0.3-0.8-0.7c-2.7-2.4-5-2.9-12.8-2.8-2.8 0-5.9 0.1-6.8 0.2z"/>
		<path class="s1" d="m673.1 292.2c-7.3 0.9-17.4 3.5-29.3 7.6-7.6 2.7-9.4 3.4-12.2 5.4-4 2.7-5.9 6.1-6.5 11.5q-0.3 1.9-0.4 3.9-0.1 2 0 3.9 0.1 2 0.4 3.9 0.2 1.9 0.7 3.8c1 4.7 3.5 10.2 5.4 12.5q1.2 1.2 2.6 2.1 1.3 1 2.9 1.6 1.6 0.6 3.2 0.8 1.7 0.3 3.3 0.2 1.4-0.3 2.8-0.6 1.4-0.3 2.8-0.7 1.4-0.4 2.7-0.9 1.4-0.4 2.7-1c9.7-3.5 20.3-9.8 29.5-17.5 6.1-5.1 9.1-9.2 10.5-14.6q0.2-0.6 0.3-1.3 0.1-0.6 0.2-1.3 0.1-0.7 0.1-1.3 0-0.7 0-1.4c0-3.7-0.4-5.4-1.8-8.1q-0.6-0.9-1.2-1.7-0.7-0.8-1.4-1.6-0.8-0.7-1.6-1.4-0.8-0.6-1.7-1.2-0.9-0.5-1.8-0.9-0.9-0.4-1.8-0.7-0.9-0.3-1.9-0.5-0.9-0.2-1.9-0.4-0.8-0.1-1.6-0.1-0.9-0.1-1.7-0.1-0.8 0-1.6 0-0.9 0-1.7 0.1z"/>
		<path class="s1" d="m699.2 300.8c-0.7 0.3-0.7 0.8-0.2 3.5q0.1 0.7 0.2 1.4 0.1 0.7 0.1 1.4 0.1 0.7 0.1 1.4 0 0.6 0 1.3 0.1 1.3 0 2.5-0.1 1.3-0.4 2.5-0.2 1.2-0.6 2.4-0.4 1.2-1 2.3c-1.6 3.5-3.7 5.9-9.9 11.8-1.9 1.8-2.3 2.4-2 3.3q0.3 0.5 0.7 0.9 0.3 0.4 0.7 0.8 0.3 0.4 0.7 0.8 0.3 0.4 0.7 0.8c3.2 3.3 4 4.5 5.3 7.8 0.5 1.4 1.8 4.3 2.8 6.6 3.3 7.2 4.6 11.2 5.1 15 0.2 2.1 0.7 1.8 3.4-2.2q1.3-2 2.4-4 1.1-2 2-4.2 0.9-2.1 1.6-4.3 0.6-2.3 1.1-4.5 0.1-0.9 0.2-1.8 0.1-0.8 0.2-1.7 0-0.9 0-1.7 0-0.9-0.1-1.8c-0.1-6.5-1-9.7-4.3-16.4-2.8-5.7-2.9-6.1-2.8-9.1 0-1.4 0-5.1 0.1-8.3v-5.8l-0.6-0.5c-0.4-0.3-0.8-0.4-2.8-0.4q-0.3 0-0.7 0-0.3 0-0.7 0.1-0.3 0-0.6 0-0.4 0.1-0.7 0.1z"/>
		<path class="s1" d="m488.9 312.9q-0.5 1-1.1 1.9-0.6 0.9-1.2 1.7-0.7 0.9-1.4 1.7-0.7 0.8-1.4 1.6c-7.9 8.3-7.1 14.8 3.9 30.3 3.9 5.6 8.1 10.6 20.8 25 12.3 13.9 13.1 14.9 20.7 24.9 5.8 7.6 6.7 8.7 11.6 14.4 5.6 6.4 6.7 7.8 10.3 12.5 8.4 11 14 17.3 19.9 22.6 5.3 4.6 7.9 6.3 11.2 7.2 1.6 0.4 2.2 0.4 5.3 0.3 2.6-0.1 3.5-0.1 3.5 0.1 0 0.5 7-0.2 9.2-0.9 2.6-0.8 9.1-3.7 18.6-8.3 5.4-2.6 4.5-1.8 10.6-10q1.6-2.1 3.2-4.2 1.6-2 3.3-4 1.7-2 3.4-4 1.8-1.9 3.6-3.8 1.7-1.7 3.5-3.5 1.8-1.7 3.6-3.4 1.8-1.7 3.6-3.3 1.9-1.6 3.8-3.2c4.1-3.5 5.4-4.8 6.7-6.6 1.9-2.9 2.2-5.4 1.5-10.9-1.2-8.9-2.6-14.7-4.9-20.6-2-5-6-13.5-7.3-15.3-1.4-1.9-3.5-2.3-7.5-1.3-4.5 1.2-8.8 0.4-14.7-2.7q-0.4-0.2-0.7-0.4-0.4-0.2-0.8-0.4-0.3-0.2-0.7-0.3-0.4-0.2-0.8-0.3c-0.6 0 0 3.1 3.6 18.1 4.9 20.1 5.6 23.6 5.8 26.2 0.3 5.7-2.1 9.4-9 13.7-1 0.7-2.9 2-4.1 3-8.2 6.3-14.5 9-21.1 9q-0.4 0-0.8 0-0.4 0.1-0.7 0.1-0.4 0.1-0.8 0.1-0.4 0.1-0.7 0.2c-2.2 0.5-10.3 0.5-13.4 0q-1.6-0.3-3.2-0.7-1.6-0.4-3.1-1-1.6-0.6-3-1.4-1.5-0.8-2.8-1.8-0.8-0.6-1.6-1.3-0.7-0.7-1.4-1.4-0.7-0.7-1.4-1.4-0.7-0.8-1.4-1.5c-0.5-0.6-4-3.8-7.7-7.3-9-8.1-11.2-10.3-12.3-12.5-1.6-3.5-1.6-5.5-0.2-11.4q0.3-1.5 0.7-3 0.4-1.5 0.9-3 0.4-1.5 0.9-3 0.6-1.5 1.2-2.9c2.6-6 3.6-10.5 5.1-22 0.6-4.3 0.4-4.7-1.3-3.3-3.5 2.9-7.8 4-13.1 3.3q-1.4-0.3-2.9-0.6-1.4-0.3-2.9-0.6-1.4-0.4-2.8-0.8-1.4-0.4-2.8-0.8c-8.9-3.2-14.5-6.6-21.5-13.4-6.4-6.1-19.1-17.4-19.7-17.5-0.4-0.1-0.8 0.4-1.8 2.1z"/>
		<path class="s1" d="m679.2 338.5c-0.4 0.2-4.4 2.4-8.9 4.9-4.5 2.6-9 5.1-10 5.6-1 0.5-2.1 1.2-2.4 1.4-1.1 0.8-0.9 1.4 1.8 6.2 6.4 10.8 7.6 14.6 10.5 33 0.9 5.2 1.3 7.4 1.7 7.4 0.6 0 22.1-17.6 23.2-19 1.8-2.4 2.2-5.3 1.3-10.3-0.5-3.4-0.7-3.9-3.1-10.5q-0.6-1.6-1.2-3.2-0.7-1.5-1.3-3.1-0.7-1.5-1.4-3.1-0.7-1.5-1.5-3-0.4-0.7-1-1.4-0.5-0.7-1.1-1.3-0.6-0.6-1.2-1.2-0.6-0.6-1.3-1.1c-1.5-1.4-1.8-1.6-2.6-1.6q-0.2 0-0.4 0-0.2 0.1-0.4 0.1-0.2 0.1-0.3 0.1-0.2 0.1-0.4 0.1z"/>
		<path class="s1" d="m653.3 418.6c-10.1 9.8-11.7 11.5-17.7 19.1-7.8 9.9-11.7 13.5-17.8 16.4-1.4 0.7-3 1.4-3.3 1.6-6.5 3.5-10.8 5.1-16.8 6.1-7 1.2-16.4 0.3-21-2-3.8-1.8-12.3-9.4-18.2-16q-1.3-1.4-2.5-2.8-1.3-1.5-2.5-3-1.2-1.5-2.3-3-1.2-1.5-2.3-3.1c-8.8-11.5-15-19-15.8-19-0.3 0-0.2 1.8 0.3 3.7q0.5 2.2 0.9 4.5 0.3 2.2 0.5 4.5 0.1 2.3 0.1 4.6 0 2.3-0.1 4.6-0.3 2.3-0.8 4.6-0.5 2.2-1.3 4.4-0.8 2.2-1.8 4.4-1 2.1-2.2 4-0.2 0.3-0.4 0.7-0.2 0.3-0.4 0.6-0.2 0.4-0.3 0.7-0.2 0.4-0.3 0.7c0 1.1 1 2 9.6 8 8.9 6.3 9.6 6.8 14.9 10.8q1.2 0.9 2.4 1.8 1.2 0.9 2.5 1.7 1.2 0.8 2.5 1.5 1.3 0.7 2.6 1.4c9.8 5.1 16.4 10.1 28.8 22 2.2 2.1 4.1 3.9 4.2 3.9 0.4 0 2.8-1.7 5.5-3.8q0.7-0.5 1.3-1 0.7-0.4 1.4-0.9 0.7-0.4 1.4-0.8 0.7-0.5 1.4-0.8c5.6-3 8.9-5.2 18.9-12.8 3.7-2.8 8.3-6.1 10.2-7.4q0.7-0.6 1.5-1.1 0.8-0.6 1.5-1.2 0.7-0.6 1.4-1.3 0.7-0.6 1.4-1.3 1.4-1.5 2.9-2.8 1.5-1.4 3.1-2.6 1.6-1.2 3.3-2.3 1.7-1.1 3.5-2.1 0.4-0.2 0.8-0.5 0.5-0.2 0.9-0.5 0.4-0.3 0.8-0.6 0.5-0.3 0.9-0.6c0.7-0.8 0.8-1 0.7-1.6-0.1-0.4-0.2-2.2-0.4-4-0.4-5.7-0.8-7.3-2.7-9.8-1.6-2.3-1.9-3.2-1.9-7.2v-3.4l1-2.7c0.5-1.5 2.5-6.5 4.4-11.3 1.9-4.7 3.5-8.9 3.6-9.4 0.3-1.8-0.5-1.1-8.3 6.4z"/>
		<path class="s1" d="m524.4 461.1q0.1 0.1 0.2 0.3 0.1 0.2 0.2 0.4 0.1 0.1 0.3 0.3 0.1 0.1 0.2 0.3c1 1.3 3.2 2.9 13.6 10q1.7 1.1 3.3 2.2 1.6 1.1 3.2 2.3 1.6 1.2 3.2 2.4 1.5 1.2 3 2.4c3.7 3 7.6 6 15.7 12 10.6 7.8 14.7 11.1 20.7 17q0.5 0.5 1.1 1.1 0.5 0.5 1.1 1 0.6 0.5 1.2 1 0.6 0.5 1.1 1 0.4 0.2 0.9 0.3 0.4 0 0.8 0 0.4 0 0.8 0 0.5-0.1 0.9-0.3 0.4-0.3 0.8-0.6 0.4-0.3 0.9-0.6 0.4-0.4 0.8-0.7 0.4-0.4 0.7-0.7c4.5-4 11.1-9.5 13.4-11.4 1.3-0.9 2.3-1.8 2.4-1.8 0.6-0.6-7.1 3.8-9.8 5.6q-1 0.7-1.9 1.4-1 0.7-1.9 1.4-0.9 0.8-1.8 1.6-0.9 0.8-1.8 1.6-0.3 0.4-0.7 0.7-0.4 0.4-0.8 0.7-0.4 0.3-0.8 0.7-0.4 0.3-0.9 0.6c-2.1 0.8-3.6-0.1-4.1-2.5-0.7-3.3-1.9-4.8-8.5-10.8-5.7-5.2-9.4-7.9-20.1-14.6q-2.1-1.2-4-2.5-2-1.2-4-2.6-1.9-1.3-3.9-2.7-1.9-1.3-3.8-2.7c-4.2-3.2-17-11.9-19-12.9-1.2-0.6-2.7-1.1-2.7-0.9z"/>
		<path class="s1" d="m657.2 467.4q-2.9 1.9-5.7 3.8-2.8 2-5.6 4.1-2.8 2-5.5 4.1-2.7 2.1-5.3 4.3c-6 4.9-13.1 10.9-13.3 11.2q0.2 0 0.4-0.1 0.2-0.1 0.5-0.2 0.2 0 0.4-0.2 0.2-0.1 0.4-0.2c1.9-0.9 9.3-5.9 25.7-17.2 15.7-10.7 14.9-10.2 15.3-11.1q0-0.1 0.1-0.2 0.1-0.2 0.1-0.3 0.1-0.2 0.1-0.3 0.1-0.1 0.1-0.3c0-0.2-1.6-1-2.1-1-0.1 0-2.7 1.6-5.6 3.6z"/>
		<path class="s1" d="m520.9 466.9q-0.5 0.4-1.1 0.8-0.5 0.4-1 0.9-0.6 0.4-1.1 0.9-0.5 0.4-1 0.9c-1.9 1.8-6.1 5.7-9.4 8.6-9.3 8.5-11.4 10.4-11.4 10.7 0 0.3 0.5 0.7 0.9 1 1.7 1.3 9 5.8 12.3 7.8 7.5 4.4 12.1 8 22.5 17.7 2.6 2.4 6.5 6 8.8 8.1 5.6 5.1 23.7 22.7 29.6 28.8 5.6 5.8 7.7 8.2 14.4 15.7q0.6 0.7 1.2 1.5 0.7 0.7 1.3 1.4 0.7 0.7 1.3 1.3 0.7 0.7 1.4 1.4c0.9 0 0.9-0.7 0.9-11.4 0-5.7-0.2-14.1-0.3-18.7-0.2-4.5-0.4-11.5-0.5-15.5-0.1-6.6-0.2-7.3-0.6-8.5q-0.3-0.7-0.6-1.4-0.3-0.6-0.7-1.3-0.4-0.6-0.9-1.2-0.4-0.5-0.9-1.1c-4.9-5-32-26.5-45.2-35.8-6-4.3-18.1-12.5-18.7-12.7q-0.1-0.1-0.3-0.1-0.1 0-0.3 0-0.2 0-0.3 0.1-0.2 0-0.3 0.1z"/>
		<path class="s1" d="m666.6 471.1c-0.5 0.3-2.5 1.8-4.5 3.3-4.7 3.6-15.3 10.5-38.3 25-10 6.3-14.7 9.9-19.6 14.9-2.7 2.8-3.7 4.4-4.1 6.5-0.4 2.1-0.8 31.1-0.6 41.5 0.1 8.4 0.2 10.5 0.7 10.5 0.5 0 1.8-1.1 4.1-3.3 5.1-4.8 6.3-5.9 11.7-10.6 10.8-9.4 12.5-11.1 19.7-18.9q1.3-1.5 2.7-2.9 1.3-1.4 2.8-2.8 1.4-1.4 2.8-2.7 1.5-1.3 3-2.6 0.4-0.3 0.8-0.7 0.4-0.3 0.8-0.7 0.3-0.4 0.7-0.7 0.4-0.4 0.7-0.8c0.8-0.9 4.6-5.1 8.4-9.3 19.2-21 19.4-21.3 22.1-26.8 1.2-2.3 1.3-2.8 1.3-3.9 0-2-0.6-2.8-5.2-7.3-2.3-2.2-4.8-4.8-5.6-5.8-2.1-2.5-2.8-2.8-4.4-1.9z"/>
		<path class="s1" d="m690.5 492.3q-0.2 0.2-0.3 0.4-0.1 0.2-0.1 0.4-0.1 0.2-0.2 0.4-0.1 0.1-0.1 0.3c-0.7 2.6-4.7 17.6-6.4 24.2-3.7 14.3-4.2 15.9-8.5 27.6-2.6 7.2-3.9 11.7-7.8 26.8-2.4 9.5-3.2 12.3-4.8 17.5q-0.6 1.8-1 3.5-0.5 1.8-0.9 3.5-0.4 1.8-0.8 3.6-0.3 1.8-0.5 3.6c-3.1 18.9-7.5 49.8-7.5 52.5q0.1 1.5 0.2 3 0.2 1.5 0.5 3 0.2 1.5 0.6 3 0.3 1.4 0.8 2.9 0.4 1.1 0.8 2.1 0.5 1.1 1.1 2.1 0.5 1 1.1 2 0.6 1 1.3 1.9c2.7 3.6 7.3 7.7 13.3 11.6 3.5 2.4 3.8 2.4 5 0.2 2.8-5.3 5.2-13.6 6.2-21.6q0.1-1.2 0.3-2.4 0.2-1.2 0.5-2.4 0.3-1.2 0.7-2.4 0.4-1.1 0.9-2.3c1.7-3.5 6.9-8.6 15.4-15.1q0.4-0.3 0.9-0.7 0.4-0.3 0.8-0.6 0.4-0.4 0.8-0.7 0.4-0.4 0.8-0.7c1.5-1.4 1.6-1.8 1.7-5.3 0-2.6 0.2-4.7 1.3-11.4 2.5-16.3 4-24.4 8.6-48l2.1-10.9 1.5-3c5-10.2 7.8-21.8 8.9-36.1l0.3-3.7-0.6-1.3q-0.2-0.4-0.4-0.7-0.2-0.4-0.5-0.7-0.2-0.3-0.5-0.7-0.2-0.3-0.5-0.6c-2.4-2.5-30.2-23.1-33.6-24.8-0.8-0.4-1-0.4-1.4 0z"/>
		<path class="s1" d="m490.3 494.2c-0.8 0.8-0.3 1.6 1.8 2.7 5.1 2.8 9.9 6.5 16.8 12.9 5.2 4.8 8.9 8 17.5 15q2.2 1.7 4.3 3.4 2.2 1.8 4.2 3.6 2.1 1.8 4.1 3.7 2 1.8 4 3.8c5.6 5.3 9 8.3 20.3 17.4 4 3.2 7.8 6.4 8.7 7.1 0.8 0.7 4 4.1 7.1 7.5 5 5.6 6.1 6.7 6.1 6 0-0.4-1.8-2.5-7.2-8.7-7.5-8.5-10.8-11.9-18.3-19.3-9.8-9.7-16.3-15.9-26.8-25.5-20.1-18.2-18-16.4-24.5-20.6-6.9-4.4-9.2-5.8-11.2-6.8q-0.7-0.4-1.5-0.8-0.8-0.3-1.6-0.6-0.7-0.3-1.5-0.6-0.8-0.3-1.6-0.6-0.1 0-0.2 0-0.1 0.1-0.2 0.1-0.1 0.1-0.2 0.2 0 0-0.1 0.1z"/>
		<path class="s1" d="m682.1 497.5c-2 2.4-5.3 6.2-15.2 17-9.2 10-13.3 14.4-26.8 28.1-9.8 10-14 14-22 21-7.5 6.6-16 14.5-16.2 15.3-0.3 1.1-0.4 1.1 10.1-7.8 5.7-4.9 6.5-5.6 13.9-12.2 17.6-15.8 21.2-19.5 38.7-40 4.1-4.8 7.8-9 8-9.3q0.3-0.2 0.6-0.4 0.3-0.1 0.7-0.2 0.3-0.1 0.7-0.2 0.4 0 0.7 0.1 0.2 0.1 0.3 0.2 0.1 0.1 0.3 0.2 0.1 0.2 0.2 0.3 0.1 0.1 0.2 0.3c0.7 1.1 0.5 2.6-1.3 7.4-1.6 4.5-2 5.8-13 47.8-4 15.4-7.9 29.9-8.6 32.2-0.6 2.4-1.5 5.5-1.8 7-1.2 4.5-3.7 18.5-5.1 28.4-2.5 17.2-2.7 23.1-0.5 27.2l0.5 1.1 0.2-4.9q0-1.8 0.1-3.6 0.1-1.8 0.3-3.6 0.2-1.8 0.4-3.6 0.3-1.8 0.6-3.6c0.5-2.7 1.9-11.2 3-18.8 3.6-22.8 4.7-28.4 8.9-42.8 0.5-1.6 1.7-6.4 2.6-10.5 2.4-10.5 3.1-12.7 10.2-34.5 6.3-19.6 7-21.7 9.6-32.2q0.3-0.9 0.5-1.8 0.3-0.9 0.5-1.8 0.2-0.9 0.3-1.8 0.2-0.9 0.4-1.8c0-0.6-0.2-0.4-2 1.8z"/>
		<path fill-rule="evenodd" class="s1" d="m482.6 502.5c0.6 0.7 1.3 2.6 2.3 6.3 0.3 1.2 3.1 9.2 6.1 17.8 9.2 26 11.8 33.9 15.6 48 5.5 20.3 8.7 32.8 10.7 41.7 2 8.9 2.8 13.5 4.9 28.9l1.1 8.6-0.2 4.2c-0.4 5.9-1.2 9.1-2.9 11.2-0.4 0.5-0.4 0.6-0.8 0.2-0.4-0.4-1.9-5.7-3-10.9q-0.2-1.3-0.6-2.6-0.3-1.3-0.7-2.6-0.5-1.2-1-2.5-0.5-1.2-1.1-2.4-0.6-1.2-1.3-2.3-0.7-1.2-1.5-2.3-0.8-1.1-1.7-2.1-0.9-1.1-1.9-2-1.4-1.4-2.9-2.7-1.5-1.3-3.2-2.4-1.6-1.2-3.3-2.2-1.7-1-3.5-1.8-1.4-0.7-2.8-1.2-1.4-0.6-2.8-1.1-1.4-0.5-2.8-1-1.5-0.5-2.9-0.9c-4.8-1.4-5.5-1.8-6.1-2.6q-0.2-0.6-0.3-1.2-0.2-0.6-0.3-1.3-0.1-0.6-0.2-1.2 0-0.6-0.1-1.3-0.5-4.2-1.3-8.4-0.7-4.1-1.8-8.2-1-4.2-2.3-8.2-1.3-4-2.8-8-1.2-3.2-2.6-6.3-1.3-3.2-2.7-6.3-1.5-3.1-3.1-6.1-1.6-3-3.3-6-1.1-1.7-2.1-3.6-1-1.8-2-3.6-0.9-1.8-1.9-3.7-0.9-1.8-1.8-3.7-0.7-1.6-1.2-3.2-0.6-1.7-1.1-3.4-0.5-1.6-0.9-3.3-0.3-1.7-0.6-3.5c-0.2-1.9 0.3-3.3 1.5-4.2 0.4-0.3 3.1-1.8 6.1-3.2q2.6-1.2 5.1-2.7 2.5-1.4 4.9-3 2.5-1.5 4.8-3.3 2.3-1.7 4.5-3.5 1-0.8 1.9-1.6 1-0.8 1.8-1.7 0.9-0.9 1.6-1.8 0.8-1 1.5-2c1.7-2.5 2.6-3.5 3.3-4 0.8-0.6 1.1-0.4 1.7 0.2zm4.6 95.3c-2.2 2-2.9 4.2-2 6q0.5 0.9 1.2 1.7 0.7 0.8 1.6 1.3 0.9 0.6 1.9 0.9 1 0.3 2 0.4 0.4 0.1 0.8 0.1 0.4 0 0.8-0.1 0.4-0.1 0.8-0.2 0.3-0.2 0.7-0.4c2.6-1.2 4.1-3.2 4-5.4 0-2.3-1.7-4.6-4.2-5.9-2.5-1.2-5.2-0.7-7.6 1.6z"/>
		<path class="s1" d="m491.3 601.3c-0.8 0.7-0.7 0.8 0.3 1.4 0.6 0.3 0.7 0.3 1.3-0.3 0.7-0.6 0.7-0.7 0.3-1-1-0.7-1.2-0.7-1.9-0.1z"/>
		<path class="s1" d="m488.4 503c0 0.5 4.2 13.6 8.1 25.3 1.3 3.7 3.6 10.3 5.2 14.6 3.8 10.3 4.7 13.4 10.5 35 1.7 6 3.6 13.3 4.4 16.2 6.4 23.2 9 36.1 10.8 54.3 0.5 5.8 0.6 11.7 0.2 14.3q-0.2 1-0.4 1.9-0.2 1-0.5 1.9-0.3 1-0.6 1.9-0.4 0.9-0.8 1.8c-0.8 1.9-1.3 4.1-0.9 4.1 0.3 0 3-5 4.4-7.9q0.6-1.1 1-2.3 0.5-1.1 0.8-2.4 0.3-1.2 0.4-2.4 0.2-1.3 0.2-2.5c0-1.9-2.5-15.5-6.3-34.5-3.8-18.6-7.3-33-11.5-47-2-6.4-3.5-12.1-6-21.4q-1.3-5-2.6-9.9-1.4-4.9-3-9.7-1.5-4.9-3.2-9.7-1.7-4.8-3.5-9.5c-3-8.2-3.4-9-5-10.9-1.1-1.4-1.7-1.9-1.7-1.2z"/>
		<path fill-rule="evenodd" class="s1" d="m498 503.7c0.2 0 2.2 1.9 4.4 4 4 3.9 7.5 6.9 22 18.8 10.7 8.8 13.9 11.6 20.2 17.5q1.8 1.8 3.7 3.6 1.8 1.7 3.8 3.4 1.9 1.7 3.9 3.3 2 1.7 4 3.3 2.1 1.6 4.1 3.4 2 1.7 4 3.5 1.9 1.9 3.8 3.8 1.8 1.9 3.6 3.9c1.5 1.8 3.3 3.8 4 4.6 2.4 2.5 2.4 3.4 0.4 6.1q-0.6 0.8-1.1 1.6-0.6 0.9-1 1.8-0.5 0.9-0.9 1.8-0.4 1-0.7 1.9-0.4 1.9-0.6 3.7-0.2 1.9-0.1 3.8 0 1.8 0.3 3.7 0.3 1.8 0.8 3.6c2 6.1 6.2 10.1 12.1 11.4q1.2 0.1 2.4 0.2 1.3 0.1 2.5 0.1 1.2 0 2.4-0.1 1.2 0 2.4-0.2c5.7-0.6 11.8-1.9 14-3.1 9.6-5.1 12.6-19.8 6-29.1q-0.7-1-1.5-1.8-0.9-0.8-1.8-1.5-1-0.7-2-1.2-1.1-0.5-2.2-0.8-0.3-0.1-0.6-0.2-0.2-0.1-0.5-0.2-0.3-0.1-0.6-0.3-0.3-0.1-0.5-0.2c-0.2-0.3 0.6-1.1 2.6-2.6 2.8-2.3 9.9-8.1 15.4-12.7 4.3-3.5 6.6-5.7 13.8-13 12.9-13 18.4-19 24.1-26q0.4-0.4 0.7-0.9 0.4-0.4 0.8-0.9 0.4-0.4 0.8-0.8 0.4-0.5 0.8-0.9c0.2-0.1 0.3 0.1 0.3 0.5 0 1.1-3.8 15.3-9.8 37.1-8 28.8-10.8 40.1-12.8 50.7-0.8 4-4 23.2-4.9 29.1-1.6 11.2-0.7 19 3.3 27.8 0.7 1.5 2.2 5 3.4 7.7 4 9.1 5.7 12 9 15.3 4.4 4.4 9.5 6.9 17.6 8.5 4.1 0.9 5.2 1.4 6.5 2.9 1.6 1.8 1.6 2.8 0 4.5q-0.8 0.9-1.5 1.8-0.7 0.9-1.4 1.8-0.7 0.9-1.3 1.8-0.7 1-1.3 2-1.3 1.9-2.3 4-1 2.1-1.8 4.3-0.8 2.1-1.4 4.4-0.5 2.2-0.9 4.5l-0.3 2.3-1.7 2.7c-5.7 8.4-6.7 10.6-6.7 14 0 2.5 0.4 3.9 2.2 7.6l1.5 3-0.3 3c-0.1 1.6-0.3 3.6-0.4 4.4q-0.1 0.8-0.1 1.5 0 0.7 0.1 1.4 0.1 0.8 0.3 1.5 0.1 0.7 0.3 1.4c1.3 3.5 5 7.4 10.2 10.6q0.4 0.2 0.7 0.4 0.4 0.3 0.7 0.5 0.4 0.2 0.7 0.5 0.4 0.2 0.7 0.5 0.4 0.3 0.8 0.6 0.4 0.2 0.8 0.4 0.4 0.3 0.8 0.5 0.5 0.1 0.9 0.3c3.1 1.1 4.2 1.9 5.1 3.5 0.9 1.7 1.4 2 3.1 2.3q0.4 0.1 0.7 0.2 0.4 0 0.7-0.1 0.4 0 0.7-0.1 0.4-0.1 0.7-0.3 0.3-0.1 0.6-0.2 0.3-0.1 0.6-0.2 0.3-0.1 0.6-0.1 0.3-0.1 0.6-0.1c0.9 0 1.1 0.1 2.6 1.6q0.3 0.3 0.5 0.5 0.3 0.3 0.6 0.6 0.3 0.2 0.7 0.4 0.3 0.3 0.6 0.5c2 1 4 0.8 6.4-0.7q0.2-0.1 0.4-0.3 0.2-0.1 0.4-0.2 0.3-0.1 0.5-0.2 0.2-0.1 0.5-0.2c1 0 3.3 4.1 6.3 11.4 0.9 2.2 2.2 5.2 2.9 6.6 2.9 6.4 3.4 11.2 1.6 16.4-1.7 4.9-6.7 11.2-10 12.9-2 0.9-3.5 1.3-8.1 1.8-7.3 0.9-21.3 3.6-23.6 4.6-1.1 0.5-3.3 2-10.7 7.5q-1.4 0.9-2.7 1.8-1.4 0.8-2.9 1.6-1.4 0.7-2.9 1.4-1.5 0.7-3 1.3c-7 2.4-24.1 6.6-30.3 7.3q-1.4 0.1-2.7 0.1-1.3 0.1-2.6 0.1-1.3 0-2.6-0.1-1.4 0-2.7-0.1-1.6-0.3-3.2-0.6-1.7-0.3-3.3-0.7-1.6-0.5-3.1-1-1.6-0.6-3.1-1.2-0.4-0.2-0.8-0.4-0.4-0.2-0.8-0.3-0.5-0.1-0.9-0.1-0.4-0.1-0.9-0.1-0.4 0-0.8 0-0.4 0.1-0.7 0.2-0.4 0.1-0.7 0.3-0.4 0.2-0.7 0.5l-1.5 1 1.3 1.3 1.3 1.3 4.7 1.1c2.6 0.7 7.5 1.8 10.9 2.6q0.8 0.1 1.5 0.3 0.8 0.1 1.5 0.3 0.8 0.2 1.5 0.5 0.8 0.2 1.5 0.4-0.4 0.2-0.8 0.3-0.4 0.1-0.9 0.2-0.4 0.1-0.8 0.2-0.4 0-0.8 0.1c-3.1 0.6-3.2 0.6-7.1 0.4-11.8-0.8-21.1-3.1-28.9-7.1q-0.5-0.3-1-0.5-0.6-0.3-1.1-0.5-0.6-0.3-1.1-0.5-0.6-0.2-1.1-0.4c-3.5-1.2-6.9-3-13.7-7.1-3.5-2.1-7.6-4.5-9.3-5.3q-0.5-0.3-1-0.5-0.5-0.3-0.9-0.6-0.5-0.2-1-0.5-0.4-0.3-0.9-0.6-0.6-0.6-1.2-1.2-0.6-0.7-1.1-1.4-0.5-0.7-1-1.4-0.4-0.7-0.8-1.5c-0.7-1.3-1.7-3-2.2-3.8-0.9-1.6-1-1.8-0.5-2.7 0.6-1.2 10.7-8.3 15.8-11.3 7.7-4.4 16-10.5 26.2-19.3 2.3-1.9 5.6-4.7 7.4-6.2 12.2-9.6 11.7-9.2 12.6-9.2 0.9 0 1.4 0.5 8.3 6.5 9.4 8.3 11.4 9.9 14.3 11.4 0.8 0.4 0.9 0.4 2.1 0l1.3-0.4-0.2-1q0-0.2 0-0.4-0.1-0.2-0.1-0.4-0.1-0.2-0.2-0.4 0-0.2-0.1-0.3-0.6-0.6-1.2-1.2-0.6-0.5-1.2-1.1-0.6-0.5-1.2-1-0.7-0.6-1.3-1.1c-2.5-2.1-7.1-6-10.2-8.7-7.4-6.5-8.2-7-10.4-6.9-2.1 0-3.7 1.1-12.5 8.7-5.9 5.2-9.2 7.9-12.5 10.3-1.5 1.2-5 3.8-7.7 5.8-9.1 7-12.1 9-17.6 11.7-4.8 2.5-6.9 3.9-13.4 9-3.6 2.7-4.2 3.6-4.2 5.6 0 1.7 0.4 2.7 2.3 5.5q1.4 2.3 3.1 4.4 1.7 2 3.7 3.9 1.9 1.9 4 3.5 2.2 1.6 4.5 3c1.1 0.7 24.2 12.6 28.1 14.5q0.4 0.2 0.9 0.4 0.4 0.1 0.9 0.3 0.5 0.1 0.9 0.3 0.5 0.1 1 0.2c1.3 0.3 4.5 1.2 7.2 1.9 8.5 2.4 11.9 2.9 18.1 2.5q1.4-0.1 2.9-0.2 1.5-0.2 2.9-0.4 1.4-0.2 2.9-0.5 1.4-0.3 2.8-0.7c4.8-1.2 19.3-5.4 22-6.4 2.6-0.9 3.6-1 5.1-0.3l1.1 0.4 1.3-0.7c1.3-0.7 1.5-0.7 3.6-0.7q0.5 0 1 0 0.5 0 1 0 0.5 0.1 1 0.1 0.5 0 1 0.1 0.5 0.1 1.1 0.1 0.5 0 1 0 0.6 0 1.1-0.1 0.5 0 1.1-0.1 1.9-0.2 3.9-0.3 2-0.1 4-0.1 1.9 0 3.9 0.1 2 0.1 3.9 0.3c6 0.9 13.6 2.8 24.1 6.1q1.4 0.4 2.7 0.9 1.4 0.5 2.7 1.1 1.3 0.6 2.6 1.3 1.2 0.7 2.4 1.5 1.8 1.3 3.5 2.7 1.7 1.5 3.2 3.1 1.6 1.6 3 3.3 1.4 1.7 2.7 3.6c2.7 4.1 2.4 7.6-0.8 10.6-1.3 1.2-2.1 1.5-2.6 1.1q-0.3-0.3-0.5-0.6-0.2-0.3-0.5-0.7-0.2-0.3-0.4-0.6-0.2-0.3-0.4-0.7-1.3-1.8-2.7-3.6-1.4-1.8-3-3.5-1.5-1.6-3.2-3.1-1.7-1.5-3.5-2.9-2.9-2.2-6-4-3.1-1.8-6.4-3.1-3.3-1.4-6.8-2.2-3.5-0.9-7-1.3-1.8-0.1-3.5-0.1-1.8 0-3.6 0-1.7 0.1-3.5 0.2-1.7 0.1-3.5 0.3c-5.4 0.9-6 0.9-8.8 0.4q-1.5-0.3-3-0.5-1.5-0.2-3.1-0.3-1.5-0.1-3-0.1-1.6 0-3.1 0.1c-8 0.6-15 2.7-26.2 7.8q-2.1 1-4.3 1.8-2.2 0.8-4.4 1.5-2.2 0.6-4.5 1.1-2.2 0.5-4.5 0.8-1 0.1-2 0.2-1 0-2 0.1-0.9 0-1.9 0-1 0-2-0.1-1.7 0-3.3-0.1-1.7-0.1-3.3-0.3-1.7-0.2-3.3-0.5-1.6-0.3-3.2-0.7l-9.1-1.8c-8.5-1.6-13.5-3.4-17.7-6.2-2.2-1.5-4.1-3.2-7.4-7q-0.4-0.4-0.8-0.8-0.4-0.4-0.8-0.7-0.5-0.4-0.9-0.7-0.5-0.3-1-0.5-4.2-2.6-8.3-5.5-4-2.9-7.8-6.2-3.7-3.2-7.2-6.7-3.5-3.5-6.7-7.3-0.8-1.1-1.7-2.1-0.9-1-1.9-2-0.9-1-1.9-2-1-0.9-2-1.8c-2.8-2.6-3.1-3-3.1-4.2 0-1.1 0.3-1.7 2.7-5 4-5.6 5.2-6.8 14.7-15 12-10.3 13.3-11.4 20.9-16.7 9.5-6.8 16.7-12.1 31.5-23.3 11.8-9 13.4-10.2 19.7-15.7 2.6-2.2 5.2-4.3 5.8-4.7q0.4-0.2 0.9-0.4 0.4-0.1 0.9-0.1 0.5-0.1 0.9 0.1 0.5 0.1 0.9 0.3c0.6 0.3 4.1 3.5 9.2 8.6 9.4 9.5 21.9 21 29 27 4.4 3.7 6.5 5.3 12.3 9.6q3.9 2.8 7.7 5.7 3.8 3 7.5 6.1 3.7 3 7.3 6.2 3.6 3.2 7.1 6.5c5 4.5 5.8 5.4 5.4 6.2-0.6 1-5 2.8-10.7 4.2q-2.9 0.7-5.7 1.5-2.7 0.9-5.5 1.8-2.7 1-5.4 2.1-2.7 1.1-5.3 2.4-2.3 1-4.6 2-2.2 0.9-4.6 1.8-2.3 0.9-4.6 1.7-2.4 0.8-4.7 1.5c-4.8 1.6-11 3.7-13.9 4.8-2.8 1-6.2 2.1-7.5 2.4-3.5 0.9-9 1.9-9 1.7q-0.5-0.1-1-0.1-0.4-0.1-0.9-0.1-0.5 0-0.9 0-0.5 0-1 0c-3.4 0.1-3.9 0-4.8-0.4-1.3-0.6-2.4-1.8-3.8-4.2-2.5-4.3-4-6.2-11.5-13.8-3.1-3.1-6.2-6.4-7-7.3-1.6-1.9-1.7-2-3.8-2.2l-1.4-0.2 0.1 1.7q0 0.3 0.1 0.6 0 0.3 0.1 0.6 0 0.3 0.1 0.6 0.1 0.3 0.3 0.6c0.2 0.3 2.3 2.7 4.8 5.4 6.8 7.4 11.5 12.9 14.1 16.8 2.6 3.8 4.5 5.4 7.4 6.3 1.3 0.4 2 0.5 5.1 0.5q2 0 4-0.1 2-0.2 4-0.5 2-0.2 3.9-0.7 1.9-0.4 3.8-1c1-0.3 3.2-1.2 4.9-1.9 1.6-0.7 5.7-2.1 9-3.2 7.1-2.3 9.2-3.1 20.3-7.4 16.6-6.5 18.8-7.3 26.3-9.5 11.3-3.2 15.6-5.2 16.1-7.3 0.3-1.3-0.8-3-3.9-6.1-8.3-8.1-21.5-19.2-35.8-30.1-14.9-11.3-24.1-19.6-34-30.5-1.6-1.8-4.3-4.4-5.9-5.9-4.9-4.5-11.7-10.2-12.5-10.6q-0.3-0.1-0.5-0.2-0.3 0-0.5 0-0.3-0.1-0.5-0.1-0.3 0.1-0.5 0.1c-1.4 0.2-1.7 0.3-12.2 8.9-9.8 8-21.5 16.9-40.7 30.9-19.5 14.3-28.1 21.2-37.4 29.8-4.8 4.5-6.4 6.3-8.3 9.2-2.4 3.5-6.4 11.1-6.6 12.4-0.4 2 0.1 3.7 1.8 5.9q0.1 0.2 0.2 0.3 0.2 0.2 0.3 0.4 0.1 0.2 0.2 0.4 0.1 0.2 0.2 0.4c0 0.5-1 0.7-3.3 0.7q-1.2 0-2.3-0.2-1.2-0.1-2.3-0.5-1.1-0.4-2.1-0.9-1-0.6-1.9-1.3-0.8-0.7-1.5-1.4-0.7-0.7-1.3-1.6-0.6-0.8-1.1-1.6-0.6-0.9-1-1.8-1.6-3.2-2.7-6.5-1.1-3.4-1.5-6.9-0.5-3.5-0.4-7 0.2-3.5 1-7c0.7-3 3.4-11.3 4-12 0.6-0.7 0.8-0.6 3.9 0.5 1.3 0.6 2.1 0.7 5.1 0.8 2 0.2 3.9 0.3 4.2 0.4q1 0 2.1 0.1 1.1 0 2.2 0 1 0 2.1-0.1 1.1-0.1 2.1-0.2 0.8-0.2 1.5-0.4 0.7-0.3 1.4-0.6 0.7-0.3 1.4-0.6 0.6-0.4 1.2-0.8c1.5-1 2-1.2 4.8-1.4q0.9-0.1 1.7-0.2 0.9-0.2 1.7-0.4 0.9-0.2 1.7-0.5 0.8-0.3 1.6-0.7c3.2-1.6 5.8-5.1 7-9.4q0.2-0.7 0.4-1.3 0.3-0.6 0.7-1.1 0.4-0.5 1-0.9 0.5-0.4 1-0.7 1.3-0.8 2.3-1.7 1-0.9 1.9-2.1 0.8-1.1 1.5-2.3 0.6-1.3 1-2.7 0.2-1.1 0.3-2.2 0.1-1.1 0.1-2.2 0-1.1-0.1-2.2-0.1-1.1-0.3-2.2-0.2-0.7-0.3-1.3 0-0.7 0-1.3 0-0.7 0.1-1.3 0.2-0.7 0.4-1.3 0.2-0.4 0.4-0.8 0.2-0.3 0.4-0.7 0.2-0.3 0.5-0.7 0.2-0.3 0.4-0.7 0.7-0.8 1.2-1.7 0.5-0.9 0.8-1.9 0.3-1 0.4-2 0.2-1.1 0.1-2.1c0-3.7-0.9-6.4-4.5-12.9-4.6-8.6-9.5-16.3-11.6-18.4q-0.4-0.4-0.8-0.8-0.4-0.4-0.8-0.8-0.4-0.3-0.9-0.7-0.4-0.3-0.8-0.7c-3.1-2.3-3.9-3.1-3.9-4q0.1-0.5 0.2-1 0.1-0.5 0.3-1 0.1-0.5 0.2-1 0.2-0.6 0.3-1.1 0.5-1.5 1-3.1 0.4-1.5 0.8-3.1 0.4-1.6 0.7-3.2 0.3-1.6 0.5-3.2c0.6-3.7 1-4.9 3.3-8.5 1-1.6 2.6-4.4 3.6-6.1 1-1.8 2.6-4.5 3.6-6q1.3-1.9 2.3-3.9 1-2 1.7-4.1 0.6-2.2 0.9-4.4 0.4-2.2 0.4-4.4c0.1-4.5-0.1-6.5-1.3-13.7q-1.7-9.4-3.7-18.8-1.9-9.4-4.1-18.7-2.1-9.3-4.6-18.6-2.4-9.3-5.1-18.5c-1.2-4.5-3.8-13.6-5.7-20.3-7.6-26.9-7.8-27.7-11.3-36.2q-2.2-5.5-2.1-6c0.1-0.5 0.3-0.5 0.5-0.4zm80.9 216.4q-0.1-0.3-0.2-0.6-0.2-0.3-0.3-0.6-0.2-0.3-0.3-0.6-0.2-0.3-0.4-0.5l-1-1.4-1.1 1.3q-0.2 0.2-0.3 0.4-0.2 0.3-0.4 0.5-0.1 0.3-0.3 0.6-0.1 0.2-0.2 0.5c-0.1 0.5-0.3 5-0.4 10-0.1 8.4-0.1 9.3 0.3 10 0.7 1.6 1.6 1.9 7.6 2.3 2.3 0.2 8 0.7 12.5 1.1 6.1 0.5 9.6 0.7 13.6 0.7 5.4 0 5.5 0 6.6-0.5 1.6-0.9 2.1-2 2.1-4.8 0-4-1.6-17.9-2.1-18.8q-0.2-0.1-0.3-0.3-0.1-0.1-0.3-0.2-0.1-0.1-0.3-0.2-0.1-0.1-0.3-0.2-0.1-0.1-0.3-0.2-0.2 0-0.4 0-0.2 0-0.4 0-0.2 0.1-0.3 0.2c-1.3 0.7-1.5 1.2-1.5 5.4q0 0.9 0 1.8 0 0.9 0.1 1.8 0.1 0.9 0.2 1.8 0.2 0.9 0.4 1.8 0.1 0.4 0.1 0.9 0.1 0.5 0.2 1 0.1 0.4 0.1 0.9 0 0.5 0 1-0.1 0.1-0.2 0.2-0.1 0.2-0.2 0.3-0.2 0.1-0.3 0.2-0.2 0.1-0.3 0.2c-1.1 0.5-3.7 0.5-8.3 0.2-5.6-0.5-6.1-1-6.1-6.5 0-4.1-0.3-7.5-0.8-8.5q-0.1-0.2-0.2-0.4-0.2-0.2-0.3-0.4-0.2-0.2-0.3-0.5-0.2-0.2-0.4-0.4l-0.8-1-1.1 1.7-1.1 1.6v6.2c0 5.8-0.1 6.2-0.5 6.5-0.5 0.4-0.7 0.4-2.3 0q-0.5-0.1-1.1-0.2-0.6-0.1-1.1-0.1-0.6-0.1-1.1-0.1-0.6 0-1.2 0c-3.2 0-4.2-0.1-4.7-0.8-0.2-0.2-0.2-2-0.2-6.3q0.1-0.9 0.1-1.8 0-0.8 0-1.7 0-0.9 0-1.7-0.1-0.9-0.2-1.7z"/>
		<path class="s1" d="m575.9 719q-0.1 0.1-0.2 0.3-0.1 0.1-0.2 0.3-0.1 0.1-0.1 0.3-0.1 0.1-0.1 0.3c0 0.3 0.1 0.2 0.7-0.4l0.7-0.9 0.6 0.9c0.3 0.5 0.6 0.7 0.6 0.5q0-0.3-0.2-0.6-0.1-0.2-0.2-0.5-0.2-0.3-0.4-0.5-0.2-0.2-0.5-0.4c-0.1 0-0.4 0.3-0.7 0.7z"/>
		<path class="s1" d="m611.9 720c-0.4 0.4-0.5 1.4-0.2 1.4q0 0 0.1 0 0.1-0.1 0.2-0.1 0 0 0.1-0.1 0.1 0 0.1-0.1 0.2 0 0.3 0 0.1-0.1 0.3 0 0.1 0 0.3 0 0.1 0.1 0.2 0.2c0.7 0.3 0.7 0.3 0.7-0.3q0-0.2-0.1-0.5-0.1-0.2-0.3-0.4-0.2-0.2-0.4-0.3-0.2-0.2-0.5-0.2-0.1 0-0.2 0-0.1 0.1-0.2 0.1-0.1 0.1-0.2 0.1-0.1 0.1-0.2 0.2z"/>
		<path class="s1" d="m592.8 721.2c-1 1.8-1.1 2.4 0 0.8l0.6-0.9 0.7 0.9c1 1.1 1 0.5 0.1-0.8q-0.1-0.1-0.2-0.2-0.1-0.2-0.2-0.3-0.1-0.1-0.1-0.2-0.1-0.2-0.2-0.3-0.1 0.1-0.2 0.3-0.1 0.1-0.2 0.2-0.1 0.1-0.1 0.3-0.1 0.1-0.2 0.2z"/>
		<path class="s1" d="m578.9 734.9c0 1.5 1 1.8 5 1.8q0.5 0 1.1 0 0.5 0 1.1 0.1 0.5 0 1.1 0.1 0.5 0 1.1 0.1 0.2 0.1 0.4 0.2 0.2 0 0.4 0 0.2 0.1 0.4 0.1 0.2 0.1 0.4 0.1 0.2 0 0.4-0.1 0.2-0.1 0.4-0.3 0.1-0.1 0.2-0.3 0.2-0.2 0.2-0.4c0.1-0.6 0.1-0.6-1.2-0.6q-0.3 0-0.6 0-0.3-0.1-0.6-0.1-0.4 0-0.7-0.1-0.3 0-0.6-0.1-0.5-0.1-1.1-0.1-0.5-0.1-1-0.1-0.6-0.1-1.1-0.1-0.5 0-1.1 0c-2.2 0-3.2-0.1-3.6-0.3-0.5-0.2-0.6-0.3-0.6 0.1z"/>
		<path class="s1" d="m596.5 736.2q0.1 0.4 0.3 0.7 0.2 0.3 0.5 0.6 0.3 0.3 0.7 0.4 0.3 0.2 0.7 0.3 1.1 0.2 2.3 0.4 1.2 0.1 2.3 0.2 1.2 0.1 2.4 0.1 1.2 0 2.4 0c2.5-0.1 3.3-0.4 3.6-1.4 0.1-0.4 0.1-0.7 0-0.7q-0.1 0-0.3 0-0.1 0.1-0.2 0.1-0.2 0-0.3 0.1-0.1 0-0.3 0.1c-0.8 0.3-1.7 0.3-5.4 0.2-5-0.2-6.9-0.4-8-1.2-1.1-0.8-1-0.7-0.7 0.1z"/>
		<path class="s1" d="m594.8 527.9c0 2.8 0.2 5.2 0.2 5.3q0-1.1 0.1-2.1 0-1 0-2-0.1-1.1-0.1-2.1-0.1-1-0.1-2c-0.1-1.4-0.2-0.3-0.1 2.9z"/>
		<path class="s1" d="m733.1 523.3c-0.4 0.1-0.5 0.4-0.5 1.3 0 0.6-0.2 3.1-0.5 5.6-1.7 13.6-3.9 21.8-8.2 31-1 2.1-2 4.6-2.2 5.4-0.7 2.2-2.8 13.5-8 42.6-2.8 16.1-2.8 15.7-2.1 17.8 0.2 0.6 1.1-0.5 1.8-2 1-2.3 4.5-17.9 8.5-37.8q1-5.8 2.3-11.7 1.2-5.8 2.6-11.5 1.3-5.8 2.9-11.5 1.5-5.8 3.1-11.5c4.3-15.3 4.2-14.9 3.9-15.8q-0.1-0.2-0.1-0.3-0.1-0.2-0.2-0.3-0.1-0.2-0.2-0.3-0.1-0.2-0.2-0.3-0.3-0.2-0.6-0.4-0.4-0.2-0.8-0.3-0.3 0-0.7-0.1-0.4 0-0.8 0.1z"/>
		<path class="s1" d="m741.5 528.6c-0.7 0.5-1.9 5.4-3.6 13.8q-0.4 1.9-0.8 3.9-0.5 1.9-1 3.8-0.5 1.9-1 3.8-0.6 1.9-1.2 3.7c-1.4 4.4-2.6 9.1-4.5 18-1 4.3-2.2 9.9-2.8 12.7-0.6 2.7-1.8 8.1-2.5 12-2.9 14.8-4.6 21.3-7.3 28.4q-0.2 0.4-0.4 0.9-0.2 0.4-0.3 0.9-0.2 0.4-0.3 0.8-0.1 0.5-0.3 0.9c0 0.7 0.9 0.6 3.6-0.2q1.8-0.6 3.7-1.1 2-0.5 3.9-0.9 1.9-0.4 3.9-0.7 1.9-0.4 3.9-0.6 1.8-0.1 3.7-0.2 1.9-0.1 3.8 0 1.9 0 3.8 0.1 1.9 0.1 3.7 0.3c5 1 6 0.3 7.7-4.8q0.4-1.3 0.8-2.6 0.5-1.3 1-2.6 0.5-1.3 1-2.5 0.6-1.3 1.2-2.5 0.1-0.3 0.3-0.6 0.2-0.2 0.4-0.5 0.1-0.2 0.3-0.5 0.2-0.2 0.4-0.4 0.7-0.7 1.2-1.6 0.4-0.8 0.7-1.7 0.3-0.9 0.5-1.8 0.1-1 0-1.9-0.1-0.5-0.1-0.9 0-0.5 0-0.9 0-0.5 0-1-0.1-0.4 0-0.9c0-4.4 1.4-8.3 4.9-13.8 4.7-7.2 7.6-15.2 9.3-25.5 0.9-5.4 0.3-8.5-2-11.2-1.2-1.3-2-1.8-5.8-4-3.2-1.8-8.5-5.2-20.4-13-6.2-4-8.3-5.3-8.8-5.3q-0.1 0-0.2 0 0 0-0.1 0.1-0.1 0-0.2 0-0.1 0.1-0.1 0.1z"/>
		<path class="s1" d="m419.2 545.1c-19.3 12.3-20.5 13.1-21.5 14.8-0.7 1.2-0.6 2.3 0.2 4.2 0.7 1.5 11.8 19 12.4 19.5q0.2 0.3 0.5 0.4 0.3 0.1 0.6 0.2 0.3 0.1 0.6 0 0.3 0 0.6-0.1c4.9-2.1 8-2.2 11.5-0.4 3.9 1.9 8.5 7 9.8 11q0.1 0.4 0.3 0.8 0.1 0.5 0.1 0.9 0.1 0.5 0.1 1 0 0.4-0.1 0.9-0.1 1-0.3 1.9-0.2 1-0.5 1.9-0.4 0.9-0.9 1.8-0.5 0.8-1.1 1.6c-3.6 4.9-4.4 6.6-4.4 9.6 0 2.9 1.5 4.7 5.2 5.8 2 0.6 21.8 4 22.1 3.8 0.1 0 1.6-0.1 3.4-0.2 3.5 0 4.6-0.3 5.4-1.5 0.9-1.2 0.8-2.2-0.7-9.9-4.2-21.8-6.5-28.7-13.7-40.7-3.8-6.4-8.7-15.1-10.6-18.8q-0.8-1.6-1.5-3.3-0.7-1.6-1.2-3.4-0.5-1.7-0.8-3.5-0.3-1.8-0.5-3.6c-0.2-3.1-0.2-3.2-1-3.2-0.4 0-4.5 2.5-14 8.5z"/>
		<path class="s1" d="m439.4 540.3c0.3 5.5 3.4 12.8 9.7 22.6q2.4 3.7 4.6 7.7 2.1 3.9 4 8 1.8 4.1 3.3 8.3 1.5 4.3 2.7 8.6c2.2 8 4.2 19.3 4.3 24.7 0 1.3 0.1 2.6 0.1 2.8 0 0.1 0.3 0.3 0.6 0.5 0.7 0.3 1.1 0 1.7-1.7 0.4-1.3 0.4-1.6 0.2-3.9-0.1-1.3-0.7-4.5-1.3-6.9q-1.3-6.3-3.1-12.5-1.8-6.1-4.1-12.1-2.2-6-5-11.8-2.7-5.8-5.8-11.4c-1-1.7-2.4-4.3-3.2-5.7-1.4-2.8-7.9-16.9-8.3-18.3q-0.1-0.1-0.1-0.2 0-0.1-0.1-0.2 0-0.2-0.1-0.3-0.1-0.1-0.1-0.1-0.1 0.2-0.1 0.4 0 0.3 0 0.5 0 0.3 0 0.5 0 0.3 0.1 0.5z"/>
		<path class="s1" d="m783.9 557.1c-0.1 0.4-0.2 1.9-0.2 3.3-0.5 9.5-4 19.9-10 29.9-2.5 4.1-2.8 4.7-3.9 7.8-0.7 2.3-0.8 3-0.7 3.6l0.2 0.7 0.3-0.9q0.2-0.7 0.5-1.3 0.3-0.7 0.7-1.3 0.4-0.7 0.8-1.3 0.4-0.5 0.9-1.1 0.7-0.7 1.6-1.2 0.9-0.6 1.8-0.9 1-0.4 2-0.6 1-0.1 2-0.1c1.5 0 1.6-0.3 0.5-2.6q-0.3-0.5-0.5-1-0.2-0.5-0.3-1-0.1-0.5-0.2-1.1 0-0.5 0-1-0.1-0.5-0.1-1 0-0.5 0.1-1.1 0.1-0.5 0.2-1 0.1-0.4 0.3-0.9 0.2-0.6 0.4-1.1 0.3-0.6 0.5-1.1 0.3-0.6 0.5-1.1 0.3-0.5 0.6-1c3.4-6.1 6-12 6.7-15.2q0.1-0.4 0.1-0.7 0.1-0.4 0.1-0.8 0-0.3-0.1-0.7 0-0.4-0.1-0.7-0.2-0.6-0.5-1.1-0.3-0.5-0.6-1-0.4-0.5-0.8-0.8-0.5-0.4-1-0.7c-1.4-0.8-1.7-0.8-1.8 0.1z"/>
		<path class="s1" d="m793.5 563.8q-0.1 0.2-0.2 0.5-0.1 0.3-0.2 0.6-0.1 0.3-0.2 0.6 0 0.4-0.1 0.7-0.5 1.8-1.1 3.6-0.6 1.9-1.4 3.6-0.7 1.8-1.7 3.4-0.9 1.7-2 3.3c-2.5 3.8-2.5 3.8-2.5 6q0 0.4 0 0.8 0 0.5 0.1 0.9 0.1 0.4 0.2 0.8 0.2 0.4 0.4 0.7 0.3 0.5 0.6 1 0.3 0.4 0.6 0.8 0.4 0.5 0.7 0.9 0.4 0.4 0.7 0.8 0.4 0.4 0.7 0.8 0.4 0.4 0.7 0.8 0.3 0.4 0.7 0.9 0.3 0.4 0.6 0.8c2.6 4.3 2.7 8.7 0.2 12.4-1.6 2.5-3.6 4.1-13.6 11q-0.6 0.4-1.1 0.7-0.6 0.4-1.1 0.9-0.6 0.4-1.1 0.8-0.5 0.4-1 0.9c-1.2 1.4-2.6 4.3-2.6 5.5 0 2 0.9 2.5 4 2.1q1-0.1 2.1-0.2 1-0.1 2-0.1 1.1 0 2.1 0 1-0.1 2.1 0c8.9 0 14.7 0.6 25.7 2.8 8 1.5 10.2 1.5 13.9-0.4 1.8-0.9 3.1-2 7.2-5.9 4.5-4.4 6.7-7.4 7.3-10 0.4-1.9-0.2-7.9-1.3-12-1.6-6.4-4.9-11.8-10.3-17-4.1-4-21.1-18-26.9-22.3-2.9-2-3.8-2.4-4.2-1.5z"/>
		<path class="s1" d="m392.9 570.1q-0.1 0.2-0.1 0.3-0.1 0.1-0.2 0.2 0 0.2-0.1 0.3 0 0.1 0 0.2 0.3 1 0.7 1.9 0.3 0.9 0.7 1.8 0.4 0.9 0.8 1.8 0.4 0.8 0.8 1.7 0.3 0.4 0.6 0.9 0.4 0.4 0.7 0.8 0.3 0.4 0.7 0.8 0.3 0.4 0.7 0.8c5.1 5.3 7.9 10.3 11.5 20.3 1.7 4.7 2.1 5.4 4.4 7.6 2.2 2.2 4.2 3.4 6.2 3.5q0.2 0.1 0.4 0.1 0.2 0 0.4 0 0.2 0 0.4-0.1 0.2 0 0.4 0c0.2-0.2 3.5-6 5.8-10.1 1.2-2.2 1.1-2.3-0.7-0.3q-0.8 0.7-1.7 1.4-0.9 0.6-1.9 1-1.1 0.4-2.1 0.7-1.1 0.2-2.2 0.2-1.1 0-2.1-0.3-1-0.2-2-0.6-0.9-0.4-1.8-1-0.9-0.5-1.7-1.2-0.8-0.7-1.3-1.6-0.6-0.9-1-1.9-0.3-1-0.4-2.1-0.1-1 0.2-2.1l0.2-1.7-1.9-4.2c-3.4-7.8-6.2-12.7-9.4-16.6-1.9-2.4-2.8-3.2-3.7-3.2q-0.2 0-0.4 0-0.2 0.1-0.4 0.2-0.2 0.1-0.3 0.2-0.1 0.2-0.2 0.3z"/>
		<path class="s1" d="m385.4 574.3q-2.1 1.1-4.2 2.4-2 1.2-4 2.4-2 1.3-4 2.7-2 1.4-3.9 2.8-1.3 1.1-2.6 2.3-1.3 1.2-2.5 2.4-1.2 1.2-2.4 2.5-1.1 1.3-2.2 2.7c-4.8 6.5-7.8 13.9-8.1 19.8-0.3 7 2.7 12.4 9 16.3 3 1.8 4.5 2.4 6.5 2.4 1.5 0 1.7-0.1 4.3-1.4q1.1-0.6 2.1-1 1.1-0.5 2.2-0.9 1.2-0.4 2.3-0.8 1.1-0.3 2.3-0.5 0.6-0.1 1.2-0.1 0.6-0.1 1.2-0.1 0.6 0 1.2 0 0.6 0 1.2 0c4.7 0 14.3-1.2 23.9-3.2 5.7-1.1 6-1.2 6.9-2 0.7-0.6 0.7-0.7 0.7-2.3q0-0.3 0-0.7 0-0.4-0.1-0.7-0.1-0.4-0.2-0.7-0.1-0.3-0.3-0.7-0.3-0.4-0.6-0.9-0.3-0.4-0.7-0.8-0.4-0.4-0.9-0.7-0.4-0.3-0.9-0.6-0.6-0.3-1.2-0.6-0.6-0.4-1.2-0.8-0.6-0.4-1.1-0.9-0.5-0.5-1-1-0.4-0.5-0.7-1-0.3-0.6-0.6-1.1-0.2-0.6-0.4-1.2-0.2-0.6-0.4-1.3-0.2-0.8-0.4-1.7-0.3-0.8-0.7-1.6-0.4-0.8-0.9-1.6-0.4-0.7-1-1.4c-1-1.4-1.3-2-2.5-5.8-1.7-4.9-1.9-5.4-3.5-7.1-4.6-5-6.7-8.2-8.4-12-0.7-1.8-1-2.3-1.6-2.3q-0.2 0.1-0.5 0.2-0.2 0.1-0.4 0.2-0.3 0.1-0.5 0.2-0.2 0.1-0.4 0.2z"/>
		<path class="s1" d="m608.9 579.8c-0.3 0.5-0.4 0.5 3 1.7q1.1 0.4 2.1 1 1 0.5 1.9 1.3 0.9 0.7 1.7 1.6 0.8 0.8 1.5 1.8c0.6 0.9 0.3-0.1-0.6-1.6q-0.5-0.8-1.1-1.5-0.6-0.8-1.4-1.4-0.7-0.7-1.4-1.2-0.8-0.6-1.7-1c-2.4-1.2-3.6-1.4-4-0.7z"/>
		<path class="s1" d="m580.4 583.8q-0.3 0.5-0.7 1-0.3 0.5-0.6 1-0.3 0.6-0.6 1.1-0.3 0.5-0.5 1.1c0 0.1 0.3-0.2 0.6-0.7 0.3-0.5 1-1.4 1.5-2 0.7-1 1.7-2.8 1.4-2.8q-0.1 0.1-0.3 0.3-0.1 0.2-0.2 0.3-0.2 0.2-0.3 0.4-0.1 0.2-0.3 0.3z"/>
		<path class="s1" d="m589 585c-2.7 0.7-4.5 2.2-6.4 5-3.9 5.9-3.2 15.7 1.5 20.9 2.1 2.2 4.5 3.2 9 3.6 2.5 0.3 2.6 0.3 7.5-0.7 6-1.1 8.1-1.6 9.6-2.3 4.5-2.3 7.6-9.4 6.7-15.4-0.8-5.4-3-8.8-6.6-10-1.4-0.5-10-1.3-15.4-1.4-3.7-0.2-4.4-0.1-5.9 0.3z"/>
		<path class="s1" d="m416.7 592.7c-1.5 0.7-3 3-3 4.1 0 3.6 6.7 5.2 9.9 2.4 1.3-1.2 1.4-2.3 0.5-3.6-1.7-2.3-5.7-3.9-7.4-2.9z"/>
		<path class="s1" d="m777.5 599.2q-0.8 0.2-1.4 0.7-0.6 0.4-1 1-0.4 0.6-0.6 1.3-0.2 0.8-0.2 1.5 0 0.4 0 0.9 0.1 0.4 0.2 0.8 0.1 0.4 0.4 0.8 0.2 0.4 0.5 0.7 0.4 0.3 0.9 0.6 0.5 0.2 1.1 0.4 0.5 0.2 1.1 0.2 0.6 0 1.1 0c2.5-0.3 3.5-1.3 3.5-3.8q0-0.8-0.2-1.6-0.2-0.8-0.7-1.5-0.5-0.7-1.1-1.3-0.7-0.5-1.5-0.7-0.3-0.1-0.5-0.2-0.3 0-0.6 0-0.2 0-0.5 0-0.3 0.1-0.5 0.2z"/>
		<path class="s1" d="m769.1 611.1q-0.3 0.5-0.6 0.9-0.3 0.4-0.6 0.8-0.3 0.4-0.7 0.8-0.3 0.4-0.6 0.8c-1.7 1.9-2.5 3.6-3.5 7.4-0.4 1.7-0.9 3.6-1.1 4.2-0.3 1-0.3 1.1 0.3 2.4q0 0.2 0.1 0.4 0.1 0.2 0.2 0.3 0.1 0.2 0.2 0.4 0.1 0.1 0.2 0.3c0.4 0 0.9-1 1.6-3 1.7-5.1 5-8.7 11.3-12.4q0.2-0.1 0.3-0.1 0.2-0.1 0.3-0.2 0.2-0.1 0.3-0.2 0.1-0.2 0.2-0.3-0.2-0.1-0.3-0.3-0.2-0.1-0.4-0.2-0.2-0.1-0.4-0.2-0.2-0.1-0.4-0.2-0.4-0.2-0.8-0.5-0.4-0.2-0.8-0.4-0.4-0.3-0.8-0.5-0.3-0.3-0.7-0.6l-1.9-1.3c-0.1-0.1-0.7 0.6-1.4 1.7z"/>
		<path class="s1" d="m421.6 620.1c-0.2 0.6 0.2 1.1 1.4 2.3 1.2 1.1 4.6 2.8 4.6 2.2q-0.3-0.3-0.6-0.6-0.3-0.3-0.6-0.6-0.3-0.3-0.7-0.6-0.3-0.2-0.6-0.5c-3.6-3-3.3-2.8-3.5-2.2z"/>
		<path class="s1" d="m433.9 626.5c0 0.1 1.6 1.2 3.4 2.5 6.9 4.8 8.6 6.2 12.2 9.9q1.5 1.4 2.9 2.9 1.3 1.5 2.7 3 1.3 1.5 2.6 3.1 1.3 1.6 2.5 3.2 1 1.4 2 2.8 1 1.4 2 2.9 0.9 1.4 1.8 2.9 0.9 1.4 1.8 2.9 0.8 1.5 1.7 2.9 0.8 1.4 1.7 2.8 0.9 1.3 1.9 2.7 0.9 1.3 1.9 2.6 2.4 3.1 4.9 6.1 2.6 2.9 5.3 5.7 2.7 2.8 5.5 5.5 2.9 2.6 5.9 5.1c1.7 1.4 5.2 4.5 7.8 6.7 2.5 2.3 4.9 4.4 5.3 4.6q1.3 1 2 0c0.2-0.2 1.4-6.2 2.8-13.2l2.5-12.8-2.3-9.4c-3.8-15.3-5.5-20.8-7-23.4-1.6-2.6-5.6-6.9-9.4-9.8q-1.8-1.4-3.6-2.6-1.9-1.1-3.9-2.1-1.9-1-4-1.8-2.1-0.7-4.2-1.3c-5-1.3-6-1.4-19.3-1.6-13.4-0.2-15.8-0.4-20.9-1.5-5.1-1.1-8.5-1.6-8.5-1.3z"/>
		<path fill-rule="evenodd" class="s1" d="m445.4 641.1c6.9 6.5 12.1 13.6 20.3 27.5 3.7 6.3 9 12.8 17.3 21.3 3.1 3.1 5.9 6.2 6.3 6.9 2.6 3.8 2.5 8.8-0.2 14.5q-0.8 1.5-1.6 2.9-0.9 1.5-1.8 2.9-1 1.4-1.9 2.8-1 1.3-2 2.7c-8.9 12-19.4 20.7-28.5 23.7-4.5 1.5-5.8 1.1-9.7-2.6-2.4-2.4-28-25.8-39.3-36-7.7-7-9.5-8.4-13.9-11.5-2-1.4-4.8-3.4-6.1-4.4-6.3-4.6-11.8-11-17.4-20-3.2-5.1-4.1-7.4-5.8-13.8-0.9-3.7-0.8-4.1 1.9-8.5 6.8-11.1 9.9-14.3 15.8-15.6q1.2-0.3 2.5-0.5 1.2-0.1 2.5-0.2 1.2-0.1 2.5-0.2 1.3 0 2.5 0c2 0 4-0.3 11.9-1.5 5.2-0.8 10.1-1.7 10.9-2q0.4-0.1 0.9-0.2 0.4-0.1 0.9-0.2 0.4-0.1 0.9-0.2 0.5-0.1 0.9-0.2c10.4-1.4 19.7 2.4 30.2 12.4zm-31 14.9q-0.5-0.1-1.1-0.1-0.6 0-1.1 0-0.6 0.1-1.1 0.2-0.6 0.1-1.1 0.2c-6 1.8-8.2 5.8-5.9 10.6q0.4 0.6 0.9 1.3 0.5 0.6 1 1.2 0.6 0.6 1.3 1.1 0.6 0.4 1.3 0.9c5.4 2.8 11 1.2 13.4-4q0.2-0.4 0.4-0.9 0.2-0.4 0.3-0.9 0.1-0.4 0.1-0.9 0-0.5 0-1 0.1-0.4 0.1-0.9 0-0.4-0.1-0.9 0-0.4-0.2-0.9-0.1-0.4-0.3-0.8-0.3-0.6-0.7-1.2-0.3-0.5-0.8-1-0.5-0.4-1-0.8-0.6-0.3-1.2-0.6c-1.1-0.5-1.6-0.6-4.2-0.6z"/>
		<path class="s1" d="m412.4 660.5c-4 1-5.2 3.3-2.9 5.6 2.5 2.3 6 2.2 7.2-0.3 0.9-1.7 0.6-4.3-0.6-5q-0.5-0.2-0.9-0.3-0.5-0.2-0.9-0.2-0.5 0-1 0-0.5 0-0.9 0.2z"/>
		<path class="s1" d="m732.7 634q-1.3 0.1-2.7 0.3-1.3 0.2-2.6 0.5-1.4 0.3-2.7 0.6-1.3 0.4-2.6 0.8-4.4 1.5-8.5 3.5-4.2 2-8.1 4.5-3.9 2.6-7.4 5.6-3.5 3-6.6 6.4c-2.8 3.1-3.4 4.6-4 10.1-1.1 9.5-2.6 15.1-5.6 21-1 2-1.1 2.4-1.1 3.9q-0.1 0.3 0 0.7 0 0.3 0.1 0.7 0 0.3 0.2 0.6 0.1 0.4 0.3 0.7 0.5 0.9 1 1.7 0.6 0.9 1.2 1.7 0.6 0.9 1.2 1.7 0.6 0.8 1.2 1.6c0.5 0.4 0.6 0.4 1.1 0.1 0.6-0.3 12.2-14.4 16.4-19.9 5.4-7.2 9-13.3 13.5-23.3 5.9-12.7 10.9-18.8 18.8-22.9q0.3-0.1 0.5-0.3 0.3-0.1 0.5-0.2 0.3-0.1 0.5-0.3 0.3-0.1 0.5-0.3c0-0.1-0.8-0.1-5.1 0.5z"/>
		<path fill-rule="evenodd" class="s1" d="m776.7 635.1c2.6-0.1 14.6 0.4 18 0.8q2.7 0.2 5.4 0.5 2.7 0.4 5.4 0.9 2.7 0.4 5.3 1 2.6 0.6 5.3 1.3c4.2 1.1 5.9 1.9 8.1 3.4 2.2 1.4 5.8 4.9 6.4 6q0.2 0.5 0.4 1.1 0.2 0.6 0.3 1.2 0.1 0.7 0.1 1.3 0 0.6 0 1.2c-0.5 3.3-3.1 9.9-5.6 14-1.3 2.2-2.6 3.7-6.4 8-2.9 3.2-14.1 16.2-17.5 20.5-0.5 0.6-4.9 4.6-9.8 8.9-13.2 11.6-17.6 15.3-25.9 21.6q-1.5 1.1-2.9 2.3-1.4 1.2-2.7 2.4-1.3 1.3-2.6 2.6-1.2 1.4-2.4 2.8c-1 1.3-1.7 2.1-2 2.1-0.6 0-1.2-0.9-3.1-4.3-1.8-3.2-2.8-4.2-6.5-7.2-1.4-1.1-4.2-3.7-6.4-5.7-8.5-7.9-10.5-9.3-19.7-13.8-10.1-5-21.1-11-21.2-11.5-0.1-0.4 0-0.5 5.8-7.3 8.1-9.6 11.1-14 17.5-26 9.1-17.2 10.2-18.9 13.5-21.5 4.5-3.6 11.1-5.6 20-6.1 2.3-0.1 8.3-0.3 13.1-0.4zm2 20.6c-5.1-0.1-7.4 0.8-9.2 3.7-2.9 4.5-2 10.3 1.9 12.9 3.1 2 8.4 2.3 12 0.6q0.7-0.3 1.4-0.8 0.6-0.5 1.2-1.1 0.6-0.6 1.1-1.2 0.5-0.6 0.9-1.4c2.1-4.1-0.5-10.4-5-12.1-1-0.4-1.8-0.5-4.3-0.6z"/>
		<path class="s1" d="m776.6 661.9q-0.5 0.2-1 0.5-0.4 0.4-0.9 0.7-0.4 0.4-0.8 0.8-0.4 0.4-0.7 0.9c-1.9 3 3.6 5.9 7.7 3.9 3.1-1.4 3.8-4.1 1.7-6q-0.6-0.5-1.3-0.8-0.8-0.4-1.6-0.5-0.8-0.1-1.6 0-0.8 0.1-1.5 0.5z"/>
		<path class="s1" d="m655.2 681.5q0.1 0.2 0.2 0.4 0.1 0.2 0.2 0.4 0.1 0.2 0.2 0.4 0.2 0.2 0.3 0.4 0.4 0.8 1 1.5 0.5 0.7 1.1 1.3 0.6 0.7 1.2 1.3 0.7 0.6 1.4 1.2c1.4 1 6 3.5 6.2 3.2q-0.1-0.1-0.2-0.2-0.1-0.2-0.2-0.3-0.2-0.1-0.3-0.2-0.1-0.1-0.3-0.2c-0.6-0.4-2.1-1.8-3.5-3q-0.9-0.8-1.8-1.6-0.9-0.8-1.8-1.6-0.9-0.8-1.8-1.5-0.9-0.8-1.9-1.5z"/>
		<path class="s1" d="m689.8 704.9c-1.6 1.1-1.8 1.3-1.6 2 0.2 1 1.4 2.1 5.5 5.1 4 3 6.5 5.2 16.9 15.1 9.8 9.4 16.8 16.5 18.5 18.8q0.7 0.8 1.3 1.7 0.5 0.9 1 1.9 0.5 0.9 1 1.9 0.4 0.9 0.8 1.9c1.4 3.7 1.5 3.8 4.7 2.3 5.4-2.6 7.4-4.3 7.4-6.6 0-1.7-1.5-4.8-3.5-7.2-0.5-0.6-1.7-2.2-2.6-3.5q-0.6-0.7-1.1-1.4-0.6-0.7-1.2-1.4-0.6-0.7-1.2-1.3-0.6-0.7-1.2-1.3c-2.8-2.8-3.5-3.3-7.7-6.1-10.9-7.1-33.5-21.5-34.7-22l-1.2-0.7z"/>
		<path class="s1" d="m679.7 706.3q-0.9 1-1.6 2.1-0.8 1-1.5 2.1-0.8 1-1.5 2.1-0.6 1.2-1.3 2.3c-1.5 2.7-1.3 2.7 0.4 0q0.6-1 1.2-2 0.7-0.9 1.3-1.9 0.7-0.9 1.4-1.8 0.8-1 1.5-1.8c1.4-1.7 2.1-2.8 1.9-3q-0.3 0.2-0.5 0.4-0.3 0.3-0.5 0.5-0.2 0.2-0.4 0.5-0.2 0.2-0.4 0.5z"/>
		<path class="s1" d="m500.1 707.7c-0.9 1-1 1.5-1.8 3.8q-0.5 1.4-1.1 2.7-0.5 1.3-1.1 2.5-0.6 1.3-1.3 2.5-0.7 1.3-1.4 2.5c-2.3 3.6-3.6 5.3-9.4 12-3.6 4.1-5.4 6.4-8.3 10.5-4.9 6.7-7.2 8.9-11.7 11.2-2.2 1-2.9 1.8-3.3 3.1l-0.3 1 2.2 2.2c2.6 2.5 4.6 3.9 5.6 3.9q0.3-0.1 0.6-0.1 0.2-0.1 0.5-0.2 0.3-0.1 0.5-0.2 0.3-0.1 0.5-0.2c2.4-1.2 14.9-14.2 20.2-21 6.2-7.9 10-15.3 11.4-21.7q0.2-1.5 0.4-2.9 0.1-1.5 0.2-3 0.1-1.5 0.1-3 0.1-1.5 0.1-2.9-0.3-0.5-0.5-0.9-0.2-0.4-0.5-0.8-0.2-0.4-0.5-0.8-0.3-0.4-0.6-0.8 0 0-0.1 0.1-0.1 0.1-0.2 0.2 0 0.1-0.1 0.2-0.1 0-0.1 0.1z"/>
		<path class="s1" d="m707.4 708c1.6 1.4 22.9 16 24.9 16.9 1.9 1 1-0.5-2.5-3.5q-2.1-1.9-4.4-3.6-2.3-1.7-4.7-3.3-2.4-1.5-4.9-2.8-2.5-1.4-5.2-2.5c-3.3-1.6-3.7-1.7-3.2-1.2z"/>
		<path class="s1" d="m515.6 711.9c0 0.6 0.6 1.2 3.3 3.3q0.5 0.4 1 0.8 0.5 0.4 1 0.8 0.5 0.4 0.9 0.8 0.5 0.5 1 0.9c2 2.1 7 9.9 11 17.4 1.8 3.3 2.3 4.1 1 1.4-3.6-7-10.6-18.3-12.8-20.6q-0.8-0.7-1.5-1.4-0.8-0.7-1.6-1.3-0.8-0.7-1.6-1.3-0.8-0.6-1.7-1.2c-0.5-0.4 0 0.2 0 0.4z"/>
		<path class="s1" d="m684 712.1c-1.6 0.3-1 0.8 5.4 5.3 9.5 6.5 12.1 8.7 18.5 15.2 4.1 4.2 7.5 7.9 15.3 16.5 2.1 2.5 4.1 4.6 4.3 4.7 0.4 0.3 0.5 0.2 0.3-0.5q-0.1-0.6-0.3-1.2-0.3-0.5-0.5-1.1-0.3-0.5-0.6-1-0.4-0.5-0.8-1c-5.1-6.4-26.8-27.4-33.4-32.3-3.1-2.3-7.4-4.7-8.2-4.6z"/>
		<path class="s1" d="m507.8 716.6q-0.1 0.4-0.2 0.8-0.1 0.4-0.2 0.8-0.1 0.4-0.1 0.8-0.1 0.4-0.2 0.8c-1.1 9.7-5.4 18.2-14.4 28.6-3.2 3.6-5.3 5.9-14.1 14.9-3.5 3.7-6.5 7-6.6 7.2q0 0.2 0 0.4 0 0.2 0 0.3 0.1 0.2 0.1 0.4 0.1 0.1 0.1 0.3c0.3 0.8 0.4 0.9 0.9 0.9q0.2-0.1 0.4-0.2 0.2 0 0.4-0.1 0.2-0.1 0.4-0.2 0.2-0.1 0.3-0.3 1.1-1 2.2-2 1-1.1 2-2.1 1-1.1 2-2.3 1-1.1 1.9-2.2c2.6-3.4 3.7-4.5 5.8-6q1.5-1.2 2.8-2.5 1.4-1.3 2.6-2.7 1.2-1.5 2.2-3.1 1-1.6 1.8-3.3c0.7-1.4 1.9-3.6 2.8-5.1 5.1-8.7 7.3-15.1 7.7-22 0.1-2.7-0.1-3.3-0.6-2.1z"/>
		<path class="s1" d="m678.8 717.4q-0.2 0.1-0.3 0.2-0.2 0.1-0.3 0.3-0.1 0.1-0.2 0.3-0.1 0.1-0.2 0.3-0.7 1.5-1.3 3-0.5 1.5-1.1 3.1-0.5 1.5-0.9 3.1-0.5 1.5-0.9 3.1c-1.3 5.2-1.9 6.6-4.2 9.1q-0.6 0.5-1.1 1.2-0.5 0.6-1 1.2-0.4 0.7-0.8 1.4-0.4 0.7-0.8 1.4-0.2 0.6-0.5 1.3-0.2 0.6-0.3 1.3-0.2 0.7-0.2 1.3-0.1 0.7-0.1 1.4c0 1.7 0.4 2.6 1.7 4.7l0.8 1.2 1.3-1.1c2.4-2.1 8.3-5.9 9-5.9q0.3 0.1 0.6 0.2 0.2 0 0.5 0.1 0.2 0.1 0.5 0.2 0.2 0.2 0.4 0.3l1.6 0.7-0.7 1.5c-0.8 1.4-0.9 1.6-2.6 2.4-2.2 1.2-3.7 2.6-6.2 6-1.1 1.5-2.4 3.2-2.9 3.8l-0.9 1.1v2q0 0.8 0 1.5 0.1 0.8 0.4 1.5 0.2 0.7 0.6 1.3 0.3 0.7 0.8 1.3c2.2 2.5 4.7 2.1 8.6-1.3 1.9-1.6 2.8-2.1 3.8-2.1q0.5 0 0.9 0.1 0.5 0.1 0.9 0.2 0.5 0.1 0.9 0.2 0.4 0.1 0.9 0.2c0.2 0.2-0.8 3.1-1.3 3.7q-0.3 0.3-0.6 0.5-0.3 0.3-0.7 0.6-0.3 0.3-0.6 0.5-0.4 0.3-0.8 0.5c-2.5 1.9-3.7 3.1-4 4.2-0.5 2.9 4.6 3.8 8 1.3 2.1-1.5 3.1-1.9 5.3-1.9h2l-0.1 1.2q-0.1 0.7-0.3 1.4-0.2 0.7-0.4 1.3-0.3 0.7-0.6 1.3-0.4 0.6-0.8 1.1c-1.4 2-1.6 2.5-1.2 2.5q0.4-0.3 0.7-0.7 0.4-0.4 0.8-0.7 0.3-0.4 0.7-0.8 0.3-0.4 0.6-0.8 0.4-0.4 0.8-0.9 0.4-0.4 0.8-0.8 0.4-0.4 0.8-0.8 0.4-0.4 0.8-0.8 0.3-0.1 0.7-0.2 0.3 0 0.7 0.1 0.3 0 0.6 0.2 0.3 0.2 0.5 0.5 0.2 0.1 0.4 0.3 0.1 0.3 0.2 0.5 0.1 0.3 0.2 0.6 0 0.2-0.1 0.5 0 0.3 0 0.7 0 0.3-0.1 0.7 0 0.3-0.1 0.6 0 0.4-0.1 0.7c-0.4 1.9-0.3 2.9 0.4 3.7q0.2 0.3 0.4 0.4 0.3 0.2 0.5 0.3 0.3 0 0.6 0 0.3 0 0.6-0.2 0 0 0.1-0.1 0.1 0 0.1-0.1 0.1 0 0.1-0.1 0 0 0.1-0.1c1.2-1 1.6-1.8 2.4-4.6 1.2-4.3 1.9-4.9 5.4-4.7 3.6 0.3 4.2-0.1 11.3-7.7q0.6-0.6 1.3-1.3 0.6-0.7 1.2-1.4 0.6-0.7 1.2-1.4 0.6-0.7 1.1-1.5c2.4-3.5 2.2-6.3-0.5-10.3q-1.8-2.4-3.7-4.8-1.9-2.4-3.8-4.6-2-2.3-4-4.5-2.1-2.2-4.2-4.4c-2.1-2.1-4.6-4.7-5.5-5.7-2.6-2.9-4.6-4.5-10.7-8.5-6-4-8.3-5.6-10.3-7.4-2-1.8-2.6-2.1-3.6-1.2z"/>
		<path class="s1" d="m513.9 718.1q-0.1 0.3-0.2 0.6-0.1 0.3-0.1 0.6-0.1 0.3-0.2 0.6 0 0.3 0 0.6-0.2 1.5-0.5 3.1-0.3 1.5-0.8 3-0.4 1.5-0.9 3-0.5 1.5-1.1 2.9c-1.5 3.8-3.9 8.3-9.7 18.7q-0.7 1.4-1.6 2.8-1 1.3-2 2.5-1.1 1.2-2.3 2.3-1.2 1-2.6 1.9c-1.6 1.1-2.5 2-7 7.2-2.8 3.2-5.8 6.6-6.6 7.5q-0.2 0.2-0.5 0.5-0.2 0.3-0.4 0.6-0.3 0.2-0.5 0.5-0.2 0.3-0.4 0.6c-0.3 0.7-0.3 0.7 0.5 1.4 3.3 2.6 4.4 4.2 4.9 6.9q0.1 0.5 0.1 1.1 0 0.5 0 1.1 0 0.5-0.1 1.1 0 0.5-0.1 1.1c-0.4 2.3-0.4 3-0.2 3.7q0.2 0.5 0.5 0.9 0.2 0.4 0.6 0.8 0.4 0.4 0.8 0.7 0.4 0.3 0.9 0.5c1.1 0.5 3.1 0.7 3.5 0.4q-0.3-0.6-0.5-1.1-0.3-0.6-0.5-1.1-0.3-0.5-0.6-1.1-0.3-0.5-0.6-1c-3-5.4-2.8-5.1-2.4-6.1q0.1-0.2 0.2-0.3 0.1-0.2 0.2-0.3 0.1-0.2 0.2-0.3 0.2-0.2 0.3-0.3c0.5-0.3 0.7-0.3 1.5-0.1 1 0.4 1.4 0.8 4.7 6.1 1.4 2.3 3.7 4.7 5.1 5.3q0.2 0.1 0.5 0.2 0.3 0.1 0.5 0.2 0.3 0 0.6 0.1 0.3 0 0.5 0.1c1.2 0 4.3-0.9 4.3-1.2q-0.1-0.4-0.3-0.7-0.1-0.3-0.3-0.6-0.2-0.3-0.4-0.6-0.2-0.3-0.4-0.5c-0.3-0.3-2-1.7-3.9-3.1-4.5-3.4-6.9-6-6.9-7.7q0.1-0.4 0.1-0.8 0.1-0.4 0.2-0.8 0-0.4 0.1-0.8 0.1-0.4 0.2-0.8 0.2 0 0.4 0.1 0.2 0 0.4 0.1 0.2 0 0.4 0.1 0.1 0 0.3 0.1c1.3 0.4 1.8 0.8 5.5 4.2 4.6 4.3 7.1 6.2 8.9 7q0.8 0.3 1.6 0.6 0.8 0.3 1.6 0.5 0.8 0.2 1.6 0.3 0.9 0.2 1.7 0.2c3 0 7-3.8 7-6.7 0-1.7-0.6-2.1-3.6-3-1.8-0.6-11.8-6.8-14.8-9.3-1.2-1-2-2.5-1.8-3.3q0.2-0.4 0.3-0.7 0.2-0.3 0.5-0.5 0.3-0.3 0.6-0.5 0.3-0.2 0.6-0.3c0.9-0.3 1.9 0.3 2.8 1.5q1 1.1 2 2.1 1.1 1 2.3 1.9 1.1 0.9 2.4 1.6 1.2 0.8 2.5 1.5 0.9 0.4 1.8 0.7 1 0.3 1.9 0.5 1 0.2 2 0.2 1 0.1 2 0.1c3.9 0 5.2-0.4 6.6-1.8 1.6-1.8 2.7-5.7 2.2-8.5-0.4-2.8-1.8-4.6-4.9-6.7-4-2.7-10-7.3-10.4-8q0-0.2-0.1-0.5-0.1-0.2-0.1-0.4 0-0.3-0.1-0.5 0-0.3 0-0.5l-0.2-1.5h1.4q0.2 0 0.5 0 0.2 0 0.4 0 0.3 0.1 0.5 0.1 0.2 0 0.5 0.1 0.5 0.3 0.9 0.7 0.5 0.3 1 0.6 0.5 0.4 0.9 0.8 0.5 0.3 1 0.7 0.5 0.5 1.1 0.9 0.5 0.4 1.1 0.8 0.6 0.4 1.1 0.8 0.6 0.4 1.2 0.8 0.8 0.4 1.6 0.6 0.9 0.2 1.7 0 0.8-0.1 1.6-0.5 0.7-0.5 1.3-1.1c0.9-1 1.1-1.8 1.4-4.6q0.1-0.9 0.1-1.8 0.1-1 0-1.9-0.1-0.9-0.4-1.8-0.2-1-0.5-1.8-0.2-0.6-0.5-1.1-0.2-0.5-0.5-1-0.3-0.5-0.6-1-0.2-0.5-0.6-0.9c-0.9-1.4-2.9-4.8-4.4-7.4-5.2-9-6-10-9.7-13.2-1.7-1.7-2-1.8-2.4-1.3z"/>
		<path class="s1" d="m740.4 730.8c0.3 1 8.8 13.4 9.3 13.4 0.1 0 0.2-0.2 0.2-0.4 0.1-0.3-1-2-3-5.2-4-6-5-7.3-5.9-8l-0.8-0.6z"/>
		<path class="s1" d="m666.5 735.2q-0.6 0.8-1.2 1.7-0.6 0.9-1.1 1.8-0.6 0.9-1.1 1.8-0.5 0.9-1 1.8c-0.7 1.5-0.6 1.4 2-2.8 1.1-1.8 2.4-3.7 2.9-4.4 0.8-1.1 1.3-2.2 1.2-2.4q-0.3 0.3-0.5 0.6-0.2 0.3-0.4 0.6-0.2 0.3-0.4 0.6-0.2 0.4-0.4 0.7z"/>
		<path class="s1" d="m469.8 742.3c-0.7 0.3-15.3 8.7-17.2 9.9-0.5 0.3 1.8 1.7 3.1 1.8 1.1 0.1 1.3 0 3.2-1.2 1.2-0.8 3.1-2 4.3-2.7q0.8-0.5 1.6-1 0.7-0.5 1.4-1.1 0.7-0.5 1.4-1.2 0.6-0.6 1.2-1.3c1-1.1 2.1-3.1 2-3.4-0.1-0.1-0.5 0-1 0.2z"/>
		<path class="s1" d="m597.6 748.6c-0.8 0.2-1.5 0.7-10.1 7.7-3.5 2.9-7.9 6.4-9.6 7.8-4.8 3.8-21 15.9-31 23.1-22.3 16.3-31.3 23.6-41.2 33.1q-0.9 0.9-1.8 1.8-0.9 0.9-1.7 1.9-0.8 1-1.5 2-0.7 1-1.4 2.1c-1.4 2.2-5.6 10-5.6 10.3q0.3-0.4 0.6-0.8 0.2-0.5 0.5-0.9 0.2-0.4 0.4-0.8 0.3-0.5 0.5-0.9c3.3-6.2 4.8-8.3 9-12.4 9.6-9.6 18.1-16.4 42-33.9 19-13.9 29.5-21.9 40.1-30.5 9.3-7.6 9.4-7.7 10.7-8 1.9-0.4 2.4-0.2 7.9 4.6q2 1.6 3.8 3.3 1.9 1.6 3.7 3.3 1.8 1.8 3.6 3.6 1.7 1.7 3.4 3.6c9.7 10.5 17.4 17.3 32.9 29.1 14.6 11.1 26.9 21.5 35.3 29.8q0.3 0.3 0.7 0.7 0.3 0.3 0.7 0.6 0.3 0.3 0.7 0.6 0.4 0.3 0.8 0.6c0-0.7-2.3-3.3-5.7-6.4q-3.9-3.7-8-7.3-4-3.5-8.2-7-4.1-3.5-8.4-6.8-4.2-3.4-8.5-6.6c-15.6-11.8-23.6-18.9-33-29.1-2.1-2.4-5.2-5.5-6.7-7-2.3-2.1-10.4-9.2-12.4-10.9q-0.3-0.1-0.6-0.2-0.3-0.1-0.6-0.2-0.3 0-0.7 0-0.3 0.1-0.6 0.1z"/>
		<path class="s1" d="m598.5 788.8c-1.2 0.7-3.3 2.4-10.6 8.7-5.9 5.1-8.9 7.6-12.8 10.4-1.6 1.1-5.1 3.8-7.8 5.9-8 6.2-11.5 8.4-16.9 11.1q-1.6 0.8-3.2 1.7-1.5 0.9-3 1.9-1.5 1-3 2-1.4 1.1-2.8 2.3c-3.6 2.8-4.3 3.5-4.7 4.5-0.1 0.4 0.5 0 2.6-1.6 6.6-5.2 9.2-7 13.9-9.3 5.7-2.9 8.3-4.6 16.6-11 2.6-2 6.1-4.7 7.8-5.9q1.6-1.2 3.2-2.4 1.6-1.2 3.2-2.5 1.5-1.3 3.1-2.6 1.5-1.3 3-2.6c10.2-8.9 11.4-9.7 13.7-9.7 1.9 0 3.3 1 9.8 6.7 3.3 2.9 8 6.8 10.4 8.9 3.6 3 4.4 3.5 4.4 3.2q0.1-0.1 0-0.2 0-0.1 0-0.2 0-0.1-0.1-0.2 0-0.1-0.1-0.2c-0.1-0.2-2.3-2-4.8-4.1-2.5-2.2-7.2-6.1-10.5-9q-0.8-0.8-1.7-1.6-0.8-0.7-1.7-1.4-0.9-0.7-1.8-1.4-0.9-0.7-1.8-1.4-0.5-0.3-1.1-0.4-0.5-0.2-1.1-0.1-0.6 0-1.1 0.1-0.6 0.2-1.1 0.4z"/>
		<path class="s1" d="m568.8 831.4c0 0.7 0 0.8 0.5 0.8 1.4 0 2.1 0.4 3.5 2.2 0.8 1 4 4.3 7.2 7.6 7 7.1 8.7 9.2 11.3 13.6 1.4 2.4 2.6 3.6 3.9 4.2 0.7 0.3 1.5 0.4 4.7 0.3q0.5 0 0.9 0 0.5 0 1 0 0.4 0 0.9 0 0.5 0.1 0.9 0.2c0 0.2 6.8-1 9.9-1.9 1.2-0.3 4.4-1.4 7-2.4 2.6-0.9 8.3-2.8 12.6-4.2q2.3-0.7 4.6-1.5 2.3-0.8 4.6-1.6 2.3-0.9 4.6-1.9 2.2-0.9 4.4-1.9c9.5-4.3 15.2-6.3 22.8-8.2q1.3-0.3 2.5-0.7 1.3-0.3 2.5-0.7 1.2-0.4 2.4-0.9 1.1-0.5 2.3-1c1.2-0.7 1.6-1.2 1.4-1.8-0.1-0.3-0.4-0.2-1.6 0.4q-1.2 0.6-2.3 1-1.2 0.5-2.4 0.9-1.2 0.4-2.4 0.7-1.3 0.3-2.5 0.6-2.8 0.7-5.6 1.6-2.8 0.8-5.6 1.8-2.7 1-5.4 2.2-2.7 1.1-5.4 2.4c-6 2.7-7.6 3.3-19.5 7.3-6 2-12.4 4.2-14.2 4.8q-1.5 0.5-2.9 1-1.5 0.5-3 0.8-1.5 0.4-3 0.7-1.5 0.4-3 0.6c-2.6 0.5-3.5 0.6-3.6 0.4-0.2-0.2-1.1-0.3-3.6-0.2-3.1 0-3.4 0-4.4-0.5q-0.7-0.3-1.2-0.7-0.6-0.4-1.1-0.9-0.5-0.5-0.9-1.1-0.4-0.5-0.7-1.2c-2.5-4.4-4.4-6.7-11.6-14-3.1-3.3-6.4-6.7-7.2-7.7-0.8-0.9-1.6-1.7-1.9-1.7q-0.1 0-0.2 0-0.2 0-0.3 0-0.1 0-0.2-0.1-0.2 0-0.3 0c-0.4-0.2-0.4-0.1-0.4 0.7z"/>
		<path class="s1" d="m715.6 832.1c-2.5 4-5.6 7.4-8 8.7-2.1 1.1-3.7 1.5-8.3 2-2 0.2-5.3 0.7-7.2 1-4.7 0.8-14.9 3-16 3.4-1 0.4-3.7 2.2-8.4 5.7-6.3 4.6-9.3 6.3-14.9 8.2q-3.4 1.1-6.8 2.1-3.5 0.9-7 1.8-3.5 0.9-7 1.6-3.5 0.8-7 1.4-2.8 0.4-5.5 0.5-2.8 0.1-5.6-0.1-2.8-0.3-5.5-0.8-2.7-0.5-5.4-1.4-0.6-0.2-1.1-0.3-0.6-0.2-1.2-0.3-0.5-0.2-1.1-0.3-0.6 0-1.2-0.1-0.4 0-0.8 0-0.4-0.1-0.8-0.1-0.4-0.1-0.8-0.1-0.4-0.1-0.8-0.2c-1-0.2-1.3-0.2-1.6 0.1-0.2 0.3-0.2 0.4 0 0.6 0.3 0.3 0.6 0.2 1.2 0 1.2-0.4 2.4-0.2 5.5 1.1q1.9 0.8 3.8 1.4 1.9 0.7 3.9 1.1 2 0.4 4 0.6 2 0.2 4.1 0.2c6 0.2 9.8-0.3 20-2.7 16.2-3.8 22.7-6.4 29.9-11.8 3.1-2.4 7.4-5.4 8.6-6.1 2.3-1.3 16.4-4.1 25.4-5.1 6.2-0.7 8.5-1.8 11.8-6q0.6-0.7 1.2-1.5 0.5-0.7 1.1-1.5 0.5-0.8 1-1.6 0.5-0.8 0.9-1.6c0.7-1.4 0.5-1.4-0.4 0.1z"/>
		<path class="s1" d="m500.8 837.8c0 0.6 1.6 2.4 4.5 4.8q0.6 0.6 1.2 1.2 0.6 0.6 1.2 1.3 0.6 0.6 1.2 1.2 0.5 0.7 1.1 1.3c9.9 11.8 19.6 20.2 31.1 27.2q0.6 0.2 1.1 0.6 0.5 0.3 0.9 0.6 0.5 0.4 0.9 0.8 0.5 0.4 0.9 0.9c5.7 6.5 8.9 8.7 16 11 3 1 5.9 1.6 17.3 3.8 8.8 1.7 10.7 1.9 16.8 1.8 8.6-0.3 14.7-1.7 23.3-5.7 9.1-4.2 15.5-6.3 22.8-7.3q1.7-0.2 3.4-0.3 1.7-0.1 3.4-0.1 1.7 0.1 3.4 0.2 1.7 0.1 3.3 0.4c4.2 0.8 4.6 0.8 9 0.1q1.2-0.2 2.5-0.4 1.2-0.1 2.4-0.2 1.2-0.1 2.5-0.1 1.2 0 2.4 0c6.4 0 8.8 0.3 13.4 1.5q4.7 1.3 9 3.3 4.4 2.1 8.3 4.9 3.9 2.9 7.3 6.3 3.4 3.5 6.1 7.5c1.8 2.9 2.1 3.2 2.8 3q0.6-0.3 1.1-0.7 0.5-0.4 0.9-0.8 0.5-0.4 0.9-0.9 0.3-0.5 0.7-1c0.8-1.5 0.8-1.8-0.1-0.7-1.2 1.4-2.8 2.6-3.6 2.6-1.1 0-1.6-0.5-3.5-3.3q-2.4-3.6-5.3-6.7-3-3.2-6.4-5.8-3.4-2.7-7.2-4.7-3.8-2.1-7.9-3.4c-8.5-2.9-17.2-3.4-27.4-1.6q-0.8 0.1-1.7 0.2-0.8 0.1-1.7 0.1-0.8 0-1.7-0.2-0.8-0.1-1.7-0.3-1.4-0.2-2.8-0.4-1.5-0.2-2.9-0.3-1.4-0.1-2.9-0.1-1.4 0-2.9 0.1c-8 0.7-14.7 2.6-25.1 7.4-8.5 3.8-14.3 5.4-22.2 6-5.9 0.4-9.7 0-22.3-2.5-12.6-2.5-15.6-3.4-20.3-5.8-3.6-1.9-6-4-10-8.6q-0.5-0.5-0.9-0.9-0.5-0.4-1-0.8-0.5-0.4-1-0.8-0.6-0.3-1.1-0.6c-11.9-7.2-21.1-15.3-31-27.1q-0.4-0.5-0.8-1-0.4-0.5-0.8-0.9-0.4-0.5-0.9-0.9-0.4-0.5-0.8-0.9-0.4-0.3-0.8-0.6-0.3-0.3-0.7-0.7-0.3-0.3-0.7-0.6-0.3-0.3-0.7-0.6c-1.9-1.8-2.3-2.2-2.3-1.8z"/>
		<path class="s1" d="m478.8 840.5c2.6 5.2 6.3 8 11.3 8.8q0.6 0.1 1.2 0.1 0.6 0.1 1.3 0 0.6 0 1.2-0.1 0.6 0 1.2-0.2 0.1 0 0.2-0.2 0.1-0.1 0.1-0.2 0.1-0.2 0-0.3 0-0.1-0.1-0.3 0 0 0 0 0 0 0-0.1 0 0-0.1 0 0 0 0 0-0.3-0.1-0.6-0.1-0.2 0-0.5 0-0.3-0.1-0.6 0-0.2 0-0.5 0-1.2 0-2.4-0.1-1.2-0.1-2.3-0.4-1.1-0.3-2.2-0.8-1.1-0.5-2.1-1.1-0.7-0.5-1.4-1.1-0.6-0.5-1.2-1.2-0.6-0.6-1.2-1.3-0.5-0.7-1-1.4c-1.2-2.3-1.4-2.3-0.3 0z"/>
		<path class="s1" d="m538.4 841.7q0 0.2 0.1 0.4 0.1 0.3 0.2 0.5 0.1 0.2 0.3 0.4 0.1 0.3 0.2 0.5c0.5 0.8 1.5 2.4 2.2 3.7 2.4 4.5 3.6 5.6 8.1 7.9 1.5 0.7 5.6 3.1 9.1 5.2 6.7 4 10 5.7 13.4 7 1.1 0.4 3.4 1.4 5 2.2 8.3 4 16.8 6 28.6 6.9 3.8 0.2 3.8 0.2 7-0.4q0.4-0.1 0.8-0.2 0.4-0.1 0.9-0.2 0.4-0.1 0.8-0.2 0.4-0.1 0.8-0.2c0.1-0.1-0.5-0.3-1.2-0.5q-0.4 0-0.8-0.1-0.4 0-0.8 0-0.4 0-0.8 0-0.3 0.1-0.7 0.1c-2.3 0.4-4.4 0.4-8.9 0-10.6-1-19.2-3.3-26.3-6.9q-0.5-0.2-1-0.5-0.5-0.2-1-0.5-0.6-0.2-1.1-0.4-0.5-0.2-1.1-0.4-1.6-0.6-3.2-1.3-1.6-0.8-3.1-1.5-1.6-0.8-3.1-1.7-1.6-0.9-3-1.8c-6.2-3.8-8.7-5.2-11.7-6.7-4-2-5.4-3.5-8.6-9.5-0.6-1.3-1.1-2-1.1-1.8z"/>
		<path class="s1" d="m469.3 842.8c-1.1 0.6-7 5.4-9.7 7.8-5.7 5.1-7.4 7.3-9 12-1.4 4.3-2.9 6-8 9.4-9.4 6.2-11.4 8.7-10.4 12.8q0.1 0.7 0.4 1.4 0.3 0.6 0.8 1.2 0.4 0.6 0.9 1.1 0.5 0.5 1.1 0.9 0.2 0.1 0.4 0.2 0.2 0.2 0.4 0.3 0.2 0.1 0.4 0.1 0.2 0.1 0.4 0.2 0.2-0.1 0.4-0.3 0.3-0.2 0.5-0.3 0.2-0.2 0.4-0.4 0.2-0.2 0.4-0.4 0.3-0.3 0.6-0.6 0.3-0.3 0.6-0.7 0.3-0.3 0.4-0.7 0.2-0.4 0.4-0.9 0.5-1.4 1.2-2.7 0.6-1.4 1.4-2.7 0.7-1.3 1.5-2.6 0.9-1.2 1.8-2.4c2.1-2.8 7.9-9.5 9.7-11.2 4.7-4.6 10.7-7.3 18.7-8.5 4.2-0.6 5-1.2 4.4-3.1q-0.7-1.3-1.5-2.5-0.7-1.3-1.5-2.5-0.9-1.2-1.7-2.3-0.9-1.2-1.8-2.3-0.2-0.2-0.4-0.4-0.2-0.1-0.5-0.2-0.2-0.1-0.5-0.2-0.2 0-0.5 0-0.2 0-0.4 0-0.3 0-0.5 0.1-0.2 0.1-0.4 0.2-0.2 0-0.4 0.2z"/>
		<path class="s1" d="m497.8 843q0.3 0.4 0.6 0.8 0.4 0.3 0.7 0.7 0.3 0.3 0.7 0.7 0.3 0.3 0.7 0.7c1.4 1.4 3.8 3.7 5.2 5q0.2 0.3 0.5 0.6 0.3 0.3 0.6 0.6 0.4 0.3 0.7 0.5 0.3 0.3 0.7 0.5c0-0.3-9.9-10.4-10.2-10.4q0 0-0.1 0.1 0 0 0 0 0 0.1-0.1 0.1 0 0.1 0 0.1z"/>
		<path class="s1" d="m697.1 849.1c-1.4 0.1-3.7 0.3-5.1 0.5q-3 0.5-6 1.3-3 0.8-5.9 1.9-2.8 1.2-5.5 2.7-2.7 1.5-5.2 3.3c-2.3 1.6-3 2.4-2.3 2.4 0.7 0.1 1 0 3.1-0.9q0.4-0.2 0.8-0.3 0.4-0.2 0.8-0.3 0.4-0.2 0.8-0.3 0.4-0.1 0.8-0.2c2-0.4 26.6-2 32.2-2.1 4.1-0.1 4.1 0 13 7.7 1.5 1.2 4.2 3.3 6 4.5q1 0.7 2 1.4 1 0.7 1.9 1.5 0.9 0.8 1.8 1.6 0.9 0.8 1.7 1.7 0.8 0.9 1.5 1.9 0.7 1 1.2 2.1 0.6 1 1 2.2 0.5 1.1 0.8 2.2c0.4 1.5 0.8 2.1 1.1 1.6 0.6-0.9 0.5-1.3-1-3.8-2.3-4.1-6-11-6.5-12.3q-0.2-0.3-0.3-0.8-0.2-0.4-0.3-0.8-0.1-0.4-0.2-0.8-0.1-0.4-0.1-0.8-0.2-1.3-0.5-2.5-0.3-1.2-0.8-2.3-0.5-1.2-1.1-2.3-0.7-1-1.5-2c-2.8-3.3-8.6-6.3-14.8-7.6q-1.7-0.2-3.4-0.4-1.6-0.1-3.3-0.2-1.7 0-3.4 0-1.6 0.1-3.3 0.2z"/>
		<path class="s1" d="m497.1 853.5c-0.4 0-2.3 0.2-4.2 0.4-2.4 0.3-3.6 0.5-3.9 0.8-0.3 0.2-0.4 0.4 1.1 1.5 1.7 1.3 2.6 1.7 11 4 5.4 1.5 9 2.7 9.2 3.1 0.1 0.1-0.2 0.6-0.7 1.2-1.3 1.6-1.7 2.3-1.6 2.7q0.6 0.5 1.3 1 0.6 0.6 1.3 1 0.6 0.5 1.3 0.9 0.7 0.5 1.5 0.9 0.4 0.2 0.9 0.3 0.4 0.2 0.9 0.3 0.5 0.1 1 0.1 0.4 0.1 0.9 0c2.4 0.1 3.9 0 3.9-0.4 0-0.3-9.4-8.4-16.4-14.5q-0.5-0.3-0.9-0.7-0.5-0.4-1-0.8-0.4-0.3-0.9-0.7-0.5-0.3-1-0.7-0.5-0.1-0.9-0.3-0.5-0.1-1-0.1-0.4-0.1-0.9-0.1-0.5 0-1 0.1z"/>
		<path class="s1" d="m479.4 859.9c-12.8 2-19.7 5.8-25.1 14q-0.4 0.6-0.9 1.2-0.4 0.6-0.9 1.2-0.4 0.6-0.9 1.2-0.5 0.5-1 1.1-0.4 0.5-0.8 1-0.4 0.5-0.8 1-0.4 0.5-0.7 1-0.4 0.5-0.7 1c-2 3.5-4 9-4.2 12.1-0.1 1.8-0.1 1.9 0.7 2.7q0.4 0.5 0.9 0.9 0.5 0.4 1 0.8 0.6 0.3 1.1 0.7 0.6 0.3 1.1 0.6c0.2 0 0.4-0.2 0.4-0.4q0.3-0.8 0.5-1.7 0.3-0.8 0.6-1.6 0.2-0.8 0.6-1.7 0.3-0.8 0.7-1.6 0.6-1.6 1.4-3.1 0.7-1.5 1.6-3 0.9-1.5 1.9-2.9 1-1.4 2.1-2.7c1.8-2.2 3.5-3.6 7.5-6.5 1.8-1.2 4.3-3.1 5.6-4.2q0.8-0.8 1.6-1.5 0.9-0.7 1.8-1.3 0.9-0.7 1.9-1.2 0.9-0.6 1.9-1.1c1.6-0.9 3.1-1.6 8.5-3.9l0.8-0.4-1.8-1c-2.1-1.2-2.7-1.3-6.4-0.7z"/>
		<path class="s1" d="m691.9 863.6c-10.9 1.2-25.4 2.8-25.7 2.9q0.3 0 0.6 0 0.3 0 0.6 0 0.3 0 0.6 0 0.3 0 0.6 0c5.6-0.3 9.5 0.4 20 3.4 4 1.2 8.6 2.4 10.1 2.8q1.2 0.3 2.4 0.6 1.2 0.4 2.3 0.7 1.2 0.4 2.3 0.9 1.2 0.4 2.3 1c6.5 3.1 12.3 8.3 18.2 16.2q0.5 0.6 0.9 1.2 0.4 0.6 0.7 1.3 0.4 0.6 0.6 1.3 0.3 0.7 0.5 1.4 0.1 0.4 0.3 0.8 0.1 0.4 0.3 0.8 0.1 0.4 0.3 0.8 0.2 0.3 0.4 0.7c0.6 0 2.4-2.1 3.1-3.6 1.2-2.6 1.2-3.3-0.3-8-0.7-2.3-1.5-4.9-1.9-5.8q-0.6-1.4-1.3-2.7-0.8-1.3-1.8-2.4-1-1.2-2.2-2.1-1.2-0.9-2.6-1.7-0.5-0.2-1.1-0.6-0.5-0.3-1-0.7-0.5-0.3-1-0.8-0.5-0.4-0.9-0.8-1.3-1.4-2.8-2.6-1.5-1.1-3.1-2-1.7-1-3.4-1.6-1.8-0.7-3.6-1.1c-2.6-0.6-10-0.8-14.4-0.3z"/>
		<path class="s1" d="m490.2 866.6q-1.2 0.3-2.4 0.6-1.1 0.3-2.3 0.7-1.1 0.4-2.2 0.8-1.1 0.5-2.2 1-1 0.5-1.9 1-0.9 0.6-1.8 1.2-0.8 0.6-1.6 1.3-0.9 0.7-1.6 1.4-0.9 0.8-1.8 1.6-0.9 0.7-1.8 1.5-0.9 0.7-1.9 1.4-1 0.7-2 1.3c-6.4 4.3-10.7 11.1-13.4 21.8-0.7 2.5-0.7 2.7-0.4 3.5 0.6 1.4 3.7 2.4 4.8 1.5q0.3-0.3 0.4-0.6 0.2-0.3 0.4-0.6 0.2-0.4 0.3-0.7 0.2-0.3 0.3-0.6 0.2-0.5 0.4-1 0.2-0.4 0.5-0.9 0.2-0.4 0.4-0.9 0.2-0.4 0.5-0.8c1.4-2.5 11.2-14.4 14.3-17.5 2-2 2.2-2.1 17.2-10 3.8-2 6.5-3.7 6.9-4.3q-0.2-0.3-0.5-0.5-0.2-0.2-0.5-0.5-0.3-0.2-0.6-0.4-0.3-0.2-0.6-0.4c-2.7-1.9-2.7-1.9-6.9-0.9z"/>
		<path class="s1" d="m662.9 866.8q-0.2 0.1-0.3 0.1-0.2 0-0.4 0.1-0.1 0-0.3 0-0.2 0.1-0.3 0.2c-0.2 0.2 0.5 0.1 2.4-0.3 1.9-0.3 0.9-0.4-1.1-0.1z"/>
		<path class="s1" d="m503.6 873.1c-0.4 0.1-3.1 1.4-5.8 2.9-2.7 1.5-7.2 3.8-9.8 5.1-7.5 3.8-9.8 5.6-12.4 9.6q-0.3 0.4-0.5 0.7-0.3 0.4-0.6 0.8-0.3 0.4-0.6 0.7-0.4 0.3-0.7 0.7-0.3 0.2-0.6 0.5-0.3 0.3-0.6 0.6-0.3 0.2-0.5 0.5-0.3 0.3-0.5 0.7c-0.7 0.8-2 2.4-3 3.5-3 3.3-4.2 5.4-4.7 7.9-0.4 1.7-0.2 2.8 0.6 3.6 0.3 0.4 2.4 1.2 5.7 2.4 10.5 3.9 11.5 4.2 39.7 9.8 9.9 2 20 4 22.5 4.6q2.7 0.7 5.4 1.3 2.7 0.6 5.5 1 2.7 0.5 5.5 0.8 2.7 0.3 5.5 0.5c6.8 0.7 27 2.2 29 2.2q0.2 0 0.4 0 0.3 0 0.5-0.1 0.2 0 0.5-0.1 0.2-0.1 0.4-0.2c0.9-0.6 1-1.4 1.6-14.1 0.5-10.3 0.7-12.2 1.5-15.3 0.6-2.3 1-2.9 2.2-2.9q0.2 0 0.4 0.1 0.2 0 0.4 0.1 0.2 0.1 0.3 0.2 0.2 0.2 0.3 0.3c0.6 0.8 0.7 1.8 0.3 7.8-0.1 2-0.3 6.7-0.5 10.4-0.2 3.8-0.5 7.9-0.6 9.1-0.3 3.2-0.2 3.9 1 4.5 0.8 0.4 1.4 0.5 4.4 0.6 3 0.1 4.3 0 9.7-0.7 7.7-1 10.1-1.3 19.8-2.3 11.2-1.2 13-1.4 29.5-4q2.6-0.4 5.2-0.9 2.6-0.4 5.2-1 2.5-0.6 5.1-1.3 2.5-0.7 5-1.5c5.3-1.7 10.8-3.2 19.6-5.1 10.3-2.3 18.3-4.4 20.1-5.3q0.2-0.1 0.4-0.3 0.1-0.1 0.2-0.3 0.1-0.2 0.1-0.5 0-0.2 0-0.4 0 0 0-0.1-0.1 0-0.1 0 0-0.1 0-0.1 0 0 0 0c-0.4-0.8-6-7.9-7.6-9.8q-1.4-1.4-2.8-2.7-1.4-1.3-3-2.5-1.5-1.2-3.1-2.2-1.6-1.1-3.3-2-1.8-0.9-3.7-1.7-1.8-0.7-3.7-1.3-1.9-0.6-3.9-1.1-1.9-0.4-3.9-0.7c-2.3-0.3-3.7-0.3-9.1-0.2-3.6 0.2-12 0.2-18.7 0.2h-12.3l-2.9 0.7c-4.2 0.9-9.2 2.6-16.2 5.6q-1.4 0.6-2.9 1.2-1.4 0.6-2.8 1.2-1.5 0.5-2.9 1-1.5 0.5-2.9 1c-8.5 2.7-17.5 3-29.3 1-6.7-1.1-20.3-4.1-22.9-5.1q-1.8-0.7-3.5-1.6-1.8-0.9-3.5-1.9-1.7-1-3.3-2.1-1.7-1.1-3.2-2.3c-2.7-2.1-4-2.6-5.9-2.3q-0.3 0.1-0.7 0.2-0.4 0-0.8-0.1-0.3-0.1-0.7-0.2-0.3-0.2-0.6-0.4-1.2-0.6-2.4-1.1-1.3-0.6-2.5-1-1.2-0.5-2.5-0.9-1.3-0.5-2.5-0.9c-1-0.2-3.6-0.8-5.9-1.3q-1.4-0.3-2.8-0.6-1.3-0.4-2.7-0.7-1.4-0.4-2.8-0.8-1.3-0.3-2.7-0.8c-2.7-0.8-4.1-1-5.2-0.8z"/>
		<path class="s1" d="m424.3 892.7c-1.4 0.5-2 1.1-3.4 3-3.5 4.9-4.8 8.6-6.5 18.8-0.6 3.8-0.8 5.3-0.7 6.6 0.3 3.9 1.5 6.8 4.5 10.7 1.7 2.2 1.9 2.4 2.5 2.2q0.1 0 0.2 0 0.1 0 0.2-0.1 0.1 0 0.2 0 0.1-0.1 0.2-0.2c0.3-0.2 2.9-12.1 3.5-15.6 0.8-4.7 1-7.4 1.3-15.4 0.2-7.4 0.2-7.9-0.4-9.5-0.5-1.1-0.4-1-1.6-0.5z"/>
		<path class="s1" d="m431.5 895.7q0 0.4 0 0.8 0 0.5 0 0.9 0 0.4 0 0.8 0.1 0.4 0.1 0.8 0.3 3.3 0.4 6.6 0.1 3.4-0.1 6.7-0.2 3.3-0.6 6.6-0.4 3.2-1.1 6.5c-0.4 2.1-0.8 4.4-0.9 5l-0.1 1 0.7-0.4c0.4-0.2 2.6-1.5 4.9-3 6.5-4 6.3-3.9 7.3-3.8 1.2 0.2 1.7 0.7 1.7 1.9 0 1.1-0.5 1.9-2.2 3-1.7 1-9.1 6.9-11.7 9.2q-0.8 0.7-1.6 1.5-0.8 0.8-1.5 1.6-0.7 0.9-1.3 1.8-0.6 0.9-1.2 1.9c-1.3 2.5-1.6 3.6-2.2 8.6-1.4 10.2-3.6 31.4-3.3 31.4q0.1 0.4 0.1 0.7 0.1 0.3 0.1 0.7 0 0.3 0.1 0.7 0 0.3-0.1 0.6 0 1 0.1 1.9 0 1 0.1 1.9 0.2 1 0.4 1.9 0.2 0.9 0.4 1.9 0.2 0.2 0.4 0.5 0.2 0.3 0.4 0.5 0.2 0.2 0.5 0.4 0.2 0.2 0.5 0.3c2.1 1.4 9 4.8 9.4 4.7 2.5-0.9 5.5-1.7 9.7-2.7 8.6-2 11.4-3 15.1-5 2.5-1.5 3.4-1.7 4.4-1.2q0.5 0.2 0.9 0.6 0.4 0.4 0.6 0.9 0.1 0.5 0.1 1 0 0.5-0.3 1c-0.5 0.7-7.1 3.9-10.1 4.9-1.4 0.4-5.1 1.4-8.3 2.2-3.3 0.8-7 1.9-8.5 2.3q-0.5 0.2-1.1 0.4-0.6 0.1-1.1 0.2-0.6 0.2-1.2 0.2-0.6 0.1-1.2 0.1c-2.6 0-3.6-0.5-5.6-2.4l-1.5-1.4-1.7-0.1c-2.7-0.1-4.1 0.9-4.1 3 0 1.1 2.7 17.4 4 24.1 2.1 10.5 4.2 17.2 9.6 30.7 1.5 3.5 3.8 9.3 5.3 13q0.3 1 0.7 2 0.5 0.9 0.9 1.9 0.4 1 0.9 2 0.5 0.9 1 1.9c3.1 4.7 8.2 7.8 12.8 7.8 2.4 0 7.1-1.4 15-4.3 4.2-1.6 5.8-2.5 8-4.7q0.6-0.7 1.2-1.4 0.5-0.7 1-1.4 0.5-0.8 0.8-1.6 0.4-0.8 0.7-1.6 0.2-0.6 0.3-1.1 0.2-0.6 0.3-1.1 0.1-0.6 0.1-1.2 0-0.5 0-1.1 0.1-0.6 0-1.2 0-0.6-0.1-1.1-0.1-0.6-0.3-1.2-0.3-0.5-0.6-1c-1.8-4-1.8-5.4 0.2-12.8q0.8-3 1.7-6 0.9-3 2-5.9 1-2.9 2.1-5.8 1.2-2.9 2.4-5.7c0.7-1.5 3.5-7.2 6-12.6 2.6-5.4 5-10.3 5.3-11q0.2-0.7 0.3-1.5 0.1-0.8 0.1-1.6 0-0.8-0.2-1.6-0.1-0.8-0.3-1.6-0.4-0.7-0.8-1.3-0.4-0.7-0.9-1.4-0.4-0.6-0.9-1.3-0.4-0.6-0.9-1.2c-4.2-5.9-10.5-15.3-11.3-17.2q-0.2-0.3-0.4-0.7-0.1-0.4-0.3-0.8-0.1-0.4-0.2-0.8-0.2-0.5-0.3-0.9l-0.4-1.6 0.6-0.8c0.4-0.5 0.8-1.1 1-1.4l0.4-0.5 1.2 0.9c1.2 0.9 1.4 1.2 2.8 4.6 1.3 3 9 13.7 14 19.3q2.2 2.4 4.3 5 2 2.6 3.9 5.3 1.9 2.7 3.5 5.5 1.7 2.8 3.2 5.7c2.1 4 3.3 5.5 5 6.4q0.3 0.2 0.7 0.3 0.4 0.2 0.8 0.3 0.4 0 0.8 0 0.4 0.1 0.8 0c2.6 0 4.9-0.8 10.6-3.6 2.5-1.3 6.1-3 7.9-3.9 8.4-4 14.3-8.2 22.1-16.1q1.6-1.5 3.1-3.1 1.5-1.6 2.9-3.2 1.4-1.7 2.8-3.3 1.4-1.7 2.7-3.5c4.2-5.6 4.9-7.7 6.2-21.3 0.6-6.4 1.1-13.4 1.2-19.1 0.3-7 0.2-7.1-4.5-7.4-1.6-0.2-5.7-0.4-9.1-0.6-15.2-0.8-27.2-2.1-34.8-3.7-1.7-0.4-6.6-1.5-10.8-2.6-9.2-2.3-23.8-5.5-28.2-6.3-1.8-0.3-4.9-0.8-6.9-1q-3.2-0.4-6.3-1-3.1-0.6-6.2-1.4-3.1-0.8-6.1-1.8-3.1-1-6-2.2c-1.1-0.5-3.8-1.7-6-2.7-2.3-1.1-5.4-2.5-7-3.1q-1-0.4-1.9-0.8-1-0.4-1.9-0.9-0.9-0.4-1.8-1-0.8-0.5-1.7-1.1-1.1-0.8-2.2-1.7-1.1-0.9-2.2-1.8-1-1-2-2-0.9-1-1.8-2.1-0.6-0.8-1.3-1.5-0.6-0.7-1.3-1.4-0.7-0.7-1.3-1.4-0.7-0.7-1.5-1.3 0 0.1-0.1 0.2 0 0.2-0.1 0.3 0 0.2 0 0.3-0.1 0.2-0.1 0.3z"/>
		<path class="s1" d="m747.7 896.6q-0.5 0.7-2.9 15.6l-0.5 2.9 0.9 6.4c0.6 3.6 1.3 8.6 1.8 11.3 0.4 2.6 0.8 6.3 0.9 8.1 0.3 4.3 0.8 5.5 2.6 7.3 1.2 1.2 2 1.7 5.1 3.3 4.7 2.4 5.4 2.8 7.5 5 2.2 2.3 2.4 2.3 4.5 0.2q0.3-0.3 0.6-0.6 0.3-0.3 0.5-0.7 0.3-0.3 0.5-0.7 0.2-0.4 0.4-0.8 0.3-1.1 0.5-2.1 0.2-1.1 0.3-2.2 0.1-1 0.1-2.1 0-1.1-0.1-2.2c-0.4-6.9-2.6-10.3-8.8-13.4-4.2-2.1-6.5-4.1-7.9-7-1.2-2.7-1.5-4.9-0.8-8.4q0.1-0.6 0.1-1.3 0.1-0.6 0.1-1.2 0-0.7 0-1.3-0.1-0.7-0.1-1.3c-0.4-4.4-0.6-5-2.8-7.1-2.5-2.5-3-3.6-2.3-6.2 0.4-1.8 0.3-2.4-0.2-1.5z"/>
		<path class="s1" d="m736.2 901.7q-0.2 0.2-0.5 0.5-0.3 0.2-0.5 0.4-0.3 0.3-0.5 0.6-0.2 0.2-0.5 0.5-2.1 2.4-4.6 4.4-2.5 2.1-5.2 3.8-2.7 1.7-5.6 3.1-2.9 1.4-5.9 2.4-1.8 0.6-3.6 1.1-1.8 0.5-3.6 0.9-1.8 0.4-3.6 0.8-1.9 0.4-3.7 0.7c-7.4 1.4-9.2 1.8-18.8 4.8-11.7 3.7-15.7 4.7-23.1 5.6-2.4 0.4-5.5 0.8-6.9 1-2.5 0.5-12.1 1.8-38.5 5.3-10 1.4-12.7 1.7-12.9 1.5q-0.8-0.2-1.6-0.3-0.8 0-1.6-0.1-0.8 0-1.6 0-0.8 0.1-1.7 0.2c-1.9 0.3-1.9 0.3-2.1 5.7-0.2 6.1-0.5 10.3-1.2 17.2-0.7 7-0.6 13.3 0.2 17q0.4 1.8 0.9 3.6 0.6 1.8 1.4 3.5 0.7 1.7 1.7 3.3 0.9 1.7 2 3.2c1.9 2.5 6.7 7.3 12.7 12.7 2.5 2.2 6.5 6 8.9 8.3 5.4 5.3 8 7.1 12.7 8.6q1.3 0.5 2.6 0.8 1.4 0.3 2.8 0.5 1.3 0.2 2.7 0.3 1.4 0.1 2.8 0c4.3 0 4.6 0 6.3-0.6q1.2-0.4 2.3-0.9 1.2-0.6 2.2-1.4 1-0.8 1.8-1.7 0.9-0.9 1.6-2c0.5-0.8 4.2-8.1 8.1-16.2 4-8.1 8.2-16.7 9.4-19.1 2.6-5.3 4.3-7.8 7.7-11.2q1.8-1.7 3.7-3.3 2-1.5 4.2-2.7 2.2-1.3 4.5-2.2 2.3-0.9 4.7-1.6c4.3-1.1 6.8-1.3 13.7-1.3 6.9 0 8.4-0.2 10.6-1.2q0.7-0.4 1.3-0.8 0.7-0.5 1.2-1 0.6-0.5 1-1.2 0.5-0.6 0.8-1.3 0.1-0.2 0.2-0.4 0.2-0.3 0.3-0.5 0.1-0.2 0.1-0.5 0.1-0.2 0.2-0.4 0.1-0.3 0.2-0.6 0.2-0.2 0.4-0.4 0.2-0.2 0.4-0.4 0.2-0.2 0.5-0.3 0.2-0.1 0.4-0.1 0.2 0 0.3 0 0.2 0 0.4 0.1 0.2 0.1 0.3 0.2c1.4 0.7 1.7 1.4 1.7 3.5q0.1 0.5 0 0.9 0 0.4-0.1 0.9-0.1 0.4-0.3 0.8-0.1 0.4-0.4 0.8c-1.2 2.3-1.6 2.6-7.1 4.3-2.6 0.8-5.6 1.7-6.6 2-2 0.5-2.9 0.5-11.7 0.4q-0.7-0.1-1.4-0.1-0.8 0-1.5 0.1-0.7 0-1.4 0.2-0.7 0.1-1.4 0.3c-4 1.1-9.9 3.9-11.8 5.7-1.5 1.4-1.3 2.3 1.2 6.1 2.3 3.4 4 5.4 8.7 10.1q1.5 1.3 2.8 2.8 1.4 1.4 2.7 2.9 1.3 1.5 2.5 3 1.3 1.6 2.4 3.1c2.5 3.3 6.8 9.8 9.9 14.8 2 3.3 2.4 4.2 2.7 5.6 0.8 3.4 0 6.4-1.7 7.7-1.5 1-2.6 1.1-5.1 0.3q-0.3-0.1-0.6-0.2-0.4-0.1-0.7-0.2-0.3-0.1-0.6-0.2-0.3-0.1-0.6-0.1c-0.9 0-2 1-3.5 3-2.9 3.8-4.4 7.6-4.4 10.8 0 2.5 1.6 8.1 3.6 12.2q0.5 1 1.1 2.1 0.6 1 1.2 2 0.7 1 1.4 2 0.7 1 1.5 1.9c8 10.1 14.9 12.2 27.4 8.6 7.6-2.2 12-4.7 15.1-8.9 3.1-4.1 5-9.7 6.2-18.3 0.7-4.5 0.6-18.4-0.1-27.3-1-13.6-1.5-17.8-4.1-37.8-0.7-5.7-1.5-11.8-1.7-13.5-0.6-5.2-1.4-6.9-4.3-9.1q-0.9-0.7-1.8-1.5-0.9-0.8-1.6-1.7-0.7-0.9-1.3-1.9-0.6-1-1.1-2.1c-0.3-0.7-1-3.2-1.7-5.5-0.6-2.2-2.3-7.7-3.7-12.1-3.7-11.5-3.6-10.9-2.4-12.7q0.4-0.5 0.7-1.1 0.2-0.6 0.4-1.2 0.2-0.6 0.3-1.3 0.1-0.6 0.1-1.3 0-1.2-0.1-2.4 0-1.3 0-2.5-0.1-1.2-0.2-2.4-0.1-1.3-0.2-2.5c-0.2-0.2-0.3-0.2-0.8 0.1z"/>
		<path class="s1" d="m580.8 989.6c-0.2 0.2-3 3.1-6.3 6.6-9.7 10.4-12 12.6-17.2 16.3-5.4 3.8-13.4 8.1-22.8 12.2q-1.1 0.6-2.3 1-1.2 0.5-2.3 0.9-1.2 0.5-2.4 0.9-1.2 0.3-2.5 0.7-0.1 0-0.3 0-0.2 0.1-0.3 0.1-0.2 0.1-0.4 0.1-0.1 0.1-0.3 0.2c0 0.2 3.9 8.3 4.6 9.6q0.3 0.6 0.6 1.2 0.4 0.5 0.8 1.1 0.4 0.5 0.9 1 0.4 0.5 0.9 1c1.3 0.8 2.5 0.5 10.5-2 7.9-2.6 10.5-3.6 14-5.4q1.3-0.6 2.5-1.3 1.2-0.8 2.4-1.6 1.2-0.8 2.3-1.8 1-0.9 2.1-1.9 0.4-0.5 0.9-0.9 0.5-0.5 1-0.9 0.5-0.5 1.1-0.9 0.5-0.4 1-0.8 0.5-0.4 1-0.8 0.4-0.4 0.9-0.8 0.4-0.4 0.9-0.8 0.4-0.5 0.8-0.9 1.6-1.6 3-3.4 1.3-1.8 2.3-3.8 1-2 1.7-4.1 0.7-2.2 1.1-4.4c0.7-4.5 0.9-16.1 0.3-16.6q0 0-0.1 0-0.1 0.1-0.1 0.1-0.1 0-0.1 0.1-0.1 0-0.2 0z"/>
		<path class="s1" d="m586.6 990.8q0 1.3 0 2.7 0 1.3 0 2.7 0.1 1.3 0.2 2.7 0.2 1.3 0.4 2.6c1.6 7.9 5.8 15.2 12.3 21.7q0.5 0.5 1 1 0.5 0.5 1 1.1 0.4 0.5 0.8 1.1 0.4 0.6 0.8 1.2c3.9 6.5 8.9 10.9 19.4 17q0.8 0.5 1.5 0.9 0.8 0.4 1.6 0.7 0.8 0.4 1.6 0.7 0.9 0.3 1.7 0.6c1.8 0.6 3.5 1.1 3.7 1.1 0.5 0 3.8-2.3 5.3-3.8q0.4-0.4 0.8-0.8 0.3-0.4 0.6-0.8 0.4-0.4 0.7-0.8 0.3-0.4 0.6-0.8c1.3-1.9 6.6-12.5 6.4-12.8-0.2-0.3-2.2-0.6-7.6-0.6q-0.9 0-1.9 0-0.9 0-1.9 0-0.9-0.1-1.9-0.2-0.9-0.1-1.8-0.2c-6.9-1.3-11.6-3.7-16.3-8.5q-2.3-2.2-4.9-4.2c-9.5-7.4-15.9-14-21.3-22q-0.2-0.4-0.5-0.8-0.3-0.4-0.6-0.8-0.3-0.4-0.6-0.8-0.3-0.4-0.6-0.8c-0.2-0.1-0.4 0.3-0.5 0.9z"/>
		<path class="s1" d="m586 1016c-0.3 4.8 1.4 15.1 3.5 20.3q0.9 2.4 2.2 4.7 1.4 2.2 3.1 4.2 1.8 1.9 3.9 3.5 2.1 1.6 4.4 2.7 0.5 0.3 1 0.6 0.5 0.3 1 0.6 0.5 0.4 1 0.7 0.4 0.3 0.9 0.7 1.9 1.5 3.9 2.7 2.1 1.2 4.3 2.1 2.2 0.9 4.5 1.5 2.3 0.6 4.7 0.9c5.3 0.8 8.2 0.7 9.4-0.3 0.9-0.6 1.6-2 2.2-4.4 0.6-2.4 0.6-3.1-0.1-3.5q-0.5-0.1-1-0.1-0.4-0.1-0.9-0.2-0.5 0-1 0-0.5-0.1-1-0.1c-4.3-0.3-5-0.5-10.3-3.2-10.3-5.2-16.6-10.6-21.7-18.1q-0.3-0.4-0.6-0.8-0.3-0.4-0.6-0.8-0.3-0.4-0.6-0.8-0.3-0.4-0.6-0.8c-2-2.2-8.4-10.2-9.9-12.3-0.7-1.1-1.4-2.1-1.5-2.1q0 0.3-0.1 0.6 0 0.2 0 0.5-0.1 0.3-0.1 0.6 0 0.3 0 0.6z"/>
		<path class="s1" d="m576.3 1024c-6.9 6.9-12.1 11.8-14.3 13.2-2.6 1.8-10.2 4.8-22.3 8.9-2.9 1-5.5 1.9-5.8 2.1q-0.1 0.1-0.2 0.1-0.1 0.1-0.1 0.2-0.1 0.1-0.1 0.3-0.1 0.1-0.1 0.2 0.1 0.5 0.3 1 0.1 0.4 0.3 0.9 0.1 0.5 0.3 0.9 0.2 0.5 0.4 0.9c0.6 1.8 1.9 5.1 2.7 7.3 1.5 4.3 1.8 5 2.7 5.4 0.7 0.3 4.9 0.3 6.8 0q2.2-0.5 4.3-1.1 2.1-0.6 4.2-1.4 2.1-0.8 4-1.8 2-1 4-2.1c6.4-4 12.7-10.9 15.6-16.9q0.7-1.3 1.2-2.7 0.4-1.4 0.7-2.9 0.3-1.4 0.4-2.9 0-1.5-0.1-3c-0.2-1.2-0.3-3.8-0.3-5.9 0-3.4-0.1-4.6-0.6-4.6-0.1 0.1-1.9 1.8-4 3.9z"/>
		<path class="s1" d="m586.6 1048.1c0.1 6.5 0.3 7.9 1.5 11q0.6 1.3 1.3 2.6 0.7 1.2 1.6 2.4 0.9 1.1 1.9 2.2 1.1 1 2.2 1.8 1.2 0.8 2.3 1.4 1.2 0.7 2.4 1.3 1.2 0.6 2.4 1.1 1.3 0.5 2.5 1c3.2 1.2 14.5 4.6 15 4.6q0.1 0 0.2 0.1 0.1 0 0.2 0 0.1 0 0.2 0.1 0.1 0 0.2 0.1c0.4 0.2 0.9 0 3.2-1.3 6.3-3.6 7.4-4.7 7.7-7.4 0.1-1.4 0-1.4-0.6-1.8-1.2-0.6-3.8-1.2-8.7-2-4.8-0.8-7.1-1.4-9.7-2.7-5.5-2.8-19.1-11.6-20.9-13.6q-0.4-0.4-0.7-0.9-0.4-0.5-0.7-0.9-0.4-0.5-0.7-1-0.4-0.5-0.7-1c-1-1.4-1.8-2.7-2-2.9q-0.1 0.8-0.1 1.5-0.1 0.7-0.1 1.4 0 0.7 0 1.4 0.1 0.8 0.1 1.5z"/>
		<path class="s1" d="m576.6 1054c-9.9 10.5-12.1 11.8-29.1 16.1-4.9 1.2-5.6 1.4-5.6 1.8 0.1 0.3 0.5 1.7 1 3.4 0.6 1.7 1 3.9 1.3 5 0.4 2.4 0.8 3.2 1.7 3.5 1 0.4 2 0.5 4 0 2-0.4 4.2-1.4 10.2-5 2.6-1.6 6.5-3.7 8.6-4.8q0.7-0.3 1.4-0.7 0.7-0.4 1.3-0.8 0.7-0.4 1.4-0.8 0.6-0.4 1.3-0.8c4.8-3.7 7.5-9.9 7.5-17.2 0-1.6-0.5-3.7-0.9-3.7-0.1-0.1-2 1.7-4.1 4z"/>
		<path class="s1" d="m586.9 1067.3q-0.1 0.3-0.1 0.7 0 0.3 0 0.6 0 0.3 0 0.6 0 0.4 0.1 0.7c0 1 0.2 9 0.3 17.6 0.2 15.8 0.2 16.4 1.2 22.3l0.3 1.8-1 1.4q-0.2 0.2-0.3 0.4-0.1 0.2-0.3 0.4-0.1 0.2-0.3 0.4-0.1 0.1-0.3 0.3-0.2-0.1-0.4-0.3-0.2-0.1-0.3-0.2-0.2-0.2-0.4-0.3-0.1-0.2-0.3-0.3-0.3-0.3-0.5-0.6-0.3-0.3-0.5-0.6-0.2-0.3-0.4-0.6-0.1-0.4-0.3-0.8c-0.7-2.3-0.6 0-1.3-29.9-0.2-5.5-0.3-10.1-0.4-10.3-0.1-0.1-0.8 0.4-1.8 1.5-2.5 2.4-5.1 4.2-11.2 7.3-2.8 1.5-6.3 3.4-7.7 4.3q-1.5 1-3 1.8-1.6 0.8-3.2 1.5-1.7 0.7-3.3 1.3-1.7 0.6-3.5 1c-2.6 0.7-3.1 1-3.2 1.9q-0.1 1.4-0.1 2.7 0 1.4 0.1 2.7 0 1.4 0.1 2.7 0.1 1.3 0.2 2.7 0.2 0.8 0.4 1.6 0.3 0.8 0.7 1.5 0.4 0.7 0.9 1.4 0.5 0.6 1.1 1.2c1.3 1.3 2 1.7 4.8 3.1 6.4 3.2 9.5 3.7 15.6 2.6 2.4-0.4 3.9-0.3 7.8 0.6q1.4 0.4 2.7 0.7 1.4 0.2 2.8 0.4 1.3 0.1 2.7 0.2 1.4 0 2.8 0 1.6 0 3.2-0.1 1.6 0 3.2-0.2 1.6-0.2 3.1-0.5 1.6-0.4 3.1-0.8c1.8-0.4 5-1.1 7.2-1.4 5.9-1 8.4-1.8 10.9-3.2q0.3-0.1 0.6-0.3 0.3-0.1 0.5-0.2 0.3-0.1 0.6-0.2 0.3 0 0.6-0.1 0.7-0.1 1.4-0.2 0.7-0.2 1.4-0.4 0.7-0.2 1.4-0.5 0.7-0.2 1.3-0.6 0.6-0.4 1-0.8 0.4-0.5 0.7-1.1 0.3-0.6 0.5-1.2 0.2-0.6 0.3-1.3c0.1-0.9 0.2-5.4 0.3-10.1 0.1-4.7 0.2-9.4 0.3-10.4 0.1-1.7 0.1-1.9-0.3-1.9q-0.3 0.1-0.7 0.3-0.4 0.1-0.8 0.2-0.4 0.2-0.7 0.3-0.4 0.2-0.8 0.3c-6.5 2.8-11.5 3.3-15.9 1.8q-1.7-0.9-3.5-1.8-1.8-0.9-3.5-1.9-1.7-1-3.4-2-1.8-1-3.4-2.1-1.1-0.7-2-1.4-1-0.8-1.9-1.6-1-0.9-1.8-1.8-0.9-0.9-1.7-1.8-0.1-0.2-0.3-0.4-0.1-0.1-0.2-0.3-0.2-0.2-0.4-0.3-0.1-0.2-0.3-0.3c-0.3-0.2-0.4-0.2-0.5 0.3z"/>
	</g>
</svg>