<svg version="1.2" xmlns="http://www.w3.org/2000/svg" viewBox="0 0 1210 1210" width="1210" height="1210">
	<title>14-Muzeu-Etnologjik-01-svg</title>
	<style>
		.s0 { fill: #000000 } 
		.s1 { fill: #ffffff } 
		.s2 { fill: #ffff00 } 
	</style>
	<g id="Black">
		<path class="s0" d="m1210 0v1210h-1210v-1210z"/>
	</g>
	<g id="Color">
		<path class="s1" d="m218 1087.4c-8.7 0.4-45.5 1-45.5 1 0 3.4-0.5 67.9-0.8 107.2l133.7-113z"/>
		<path class="s1" d="m427.5 1073.3c-12.3 1.1-24.6 2.2-36.9 3.4-9.7 1-19.5 2.9-29.3 3.5-14 1-28 1-42.1 1.8l-6.6 0.3 2.5 3.3-141.8 119.3-1.7 0.1h119.6l90.3-114.7 6.3 5.5-85.8 109.2h358.5v-56.4q-7.8-0.1-15.5-0.5-7.8-0.3-15.5-1-7.8-0.7-15.5-1.6-7.7-1-15.4-2.2-7.7-1.2-15.3-2.8-7.6-1.5-15.2-3.4-7.5-1.8-15-3.9-7.5-2.1-14.9-4.5-7.4-2.4-14.7-5-7.3-2.7-14.5-5.6-7.2-3-14.3-6.2-7.1-3.2-14-6.7-6.9-3.5-13.7-7.2-6.8-3.8-13.5-7.8-6.6-4-13.2-8.2-6.5-4.2-12.8-8.7z"/>
		<path class="s1" d="m966.3 1067.4c10.6-1.8 21.2-3.8 31.8-5.7q0-0.1 0-0.2 0 0 0-0.1 0-0.1 0-0.2-0.1 0-0.1-0.1l-42.1-3c-0.8 5.7-4.3 6.5-8.6 6.5q-13.5 0-27 0.6-3.8 0.1-7.6 0.3-10.3 7.7-21.1 14.9z"/>
		<path class="s1" d="m122.5 1045.7c2.6 0 3.7-0.8 4-3.7q3.8-45.6 7.8-91.2l-126.3 60.7v35c32.4-0.2 85.6-0.4 96.9-0.6 5.8-0.2 11.7-0.3 17.6-0.2z"/>
		<path fill-rule="evenodd" class="s1" d="m1205 955.6v180.9l-167.3-133.6-5.3 6.4 172.6 138.1 0.3 57.5h-536.7v-56.4q6.9 0 13.7-0.3 6.9-0.3 13.7-0.8 6.9-0.5 13.7-1.3 6.8-0.7 13.6-1.7 6.8-1 13.6-2.2 6.7-1.2 13.4-2.6 6.8-1.5 13.4-3.1 6.7-1.6 13.3-3.5 6.6-1.9 13.1-4 6.6-2.1 13.1-4.4 6.4-2.3 12.8-4.8 6.4-2.6 12.7-5.3 6.3-2.7 12.5-5.7 6.2-3 12.3-6.1 6.1-3.2 12.1-6.6 5.9-3.3 11.8-6.9l94.9-16.5 51.3-9v-6.6q-0.1 0-0.2-0.1-0.1 0-0.2 0-0.1-0.1-0.2-0.1-0.1-0.1-0.2-0.1-0.1 0-0.2-0.1-0.1 0-0.3 0-0.1-0.1-0.2-0.1-0.1 0-0.2-0.1l-0.9-0.2-0.8-0.2c-10-0.7-20-1.3-30-2l-31.4-2.1c-2.6-0.1-4.2-0.8-4.4-4.3q-0.4-8.7-1-17.4c20.1-19.7 38.2-41.3 54-64.6 15.8-23.3 29.3-48.1 40.2-74 10.9-26 19.1-53 24.6-80.6 5.5-27.6 8.3-55.7 8.2-83.8 0-232.5-186.1-421.1-415.8-421.1-162 0-302.4 93.8-371 230.8-14 12.7-27.1 26.5-40.2 40.3-16.8 17.7-33.1 35.9-49.6 53.9-7.1 7.7-14.2 15.3-21.3 23-1.7 1.9-3.2 2.3-5.8 2-4.3-0.6-8.8-0.1-13 0.3-4.2 0.4-8.4 1.3-12.6 2-1.1 0.2-2.2 0.8-3.4 1q-0.1 0-0.2 0-0.1 0.1-0.1 0.1-0.1 0-0.2 0-0.1 0-0.2 0h-0.7q-0.1 0-0.2 0-0.1 0-0.2 0-0.1 0-0.2-0.1-0.1 0-0.2 0l-0.6-0.2c-3.8-2.5-7.4-2-11 0.2q-0.1 0.1-0.2 0.1-0.1 0.1-0.2 0.1-0.1 0.1-0.3 0.1-0.1 0.1-0.2 0.1-0.1 0-0.2 0.1-0.2 0-0.3 0.1-0.1 0-0.2 0-0.2 0.1-0.3 0.1-0.1 0-0.2 0-0.1 0.1-0.2 0.1-0.2 0-0.3 0-0.1 0-0.2 0-0.1 0-0.3 0-0.1 0-0.2 0-0.1 0-0.3-0.1-0.1 0-0.2 0c-8-1.7-12.1 7.1-19.4 7.7-2.1 0.2-4 3.1-6 4.8-0.3 0.2-0.4 0.8-0.8 1.1-1.5 1.3-2.8 2.9-4.5 3.7-4.9 2.3-9.5 4.7-10.9 10.8q0 0.1 0 0.1-0.1 0.1-0.1 0.2 0 0 0 0.1-0.1 0-0.1 0.1l-0.2 0.4q0 0 0 0.1-0.1 0-0.1 0.1 0 0 0 0-0.1 0.1-0.1 0.1 0 0-0.1 0.1 0 0-0.1 0.1 0 0-0.1 0 0 0.1-0.1 0.1c-4.2 2.6-7.8 5.7-9 11.2-0.1 0.6-1.2 1.2-2 1.5-7.2 3.5-7.7 11.1-9.4 17.6-1 3.9 2.7 6.2 5.1 9.1 8.9 10.9 18.8 19.2 33.4 18.6 0 1.7 0.1 3.1 0 4.5q-2.8 29.6-5.6 59.2-3.4 35.3-6.8 70.5c-0.6 6.5 2.5 10.2 8.6 10.5 8.1 0.4 16.1 0.7 24.2 1.1 4.3 0.2 8.5 0.8 12.7 1.2q0 0.6 0.1 1.3 0 0.6 0 1.3 0 0.7 0 1.3-0.1 0.7-0.1 1.3c-1.2 13.7-2.5 27.3-3.7 41l-127 61.1v-437.3l187 24.1 1.1-8.3-188.1-24.2v-220.1l242.4 140.3 4.2-7.2-242.9-140.6-3.7 6.3-3-330.1h462.4l46.6 214.6 8-1.9-46.2-212.7 331.2-0.3-49.1 215.7 8 2 49.5-217.7 389.6 0.3v276.1l-150.8 105.6 4.9 6.7 145.9-101.7v167.9l-98.1 17.2 1.6 8.2 96.5-17v205.6l-82.8-0.7-0.1 8.3 83.1 0.8-0.2 263.6-123.9-73.7-4.4 7zm-923.2-648.4l-203.1-226.3-6.1 5.6 203.1 226.3zm109.1-127.1l-61-130.6-7.5 3.5 61 130.7zm277.9-138.8h-8.3v168.7h8.3zm256.9 18.9l-7.3-3.9-62.3 119.8 7.3 3.9zm68.3 224.1l157.5-199.9-6.4-5.2-157.6 200z"/>
		<path class="s1" d="m165.6 1098.4c0.5-6.9 1.3-13.8 1.6-20.7 0.1-1.5-1.3-4.4-2.2-4.4q-0.4 0-0.8-0.1-0.5 0-0.9 0-0.4-0.1-0.8-0.1-0.5 0-0.9 0-1.7-0.1-3.4-0.1h-6.8c-0.4 8.6-0.8 91-1.2 131.9h4.6l10.5-4.2c0.1-37 0.1-100.8 0.3-102.3z"/>
		<path id="Yellow" class="s2" d="m327.2 514.2c5.3-2.7 11.9-3.3 17.9-3.7 37.7-2.4 75 0 109.8 16.8 20.1 9.7 39.4 21.2 58.4 33 29.3 18.2 59.5 34.4 90 50.1q0.2 0 0.3 0.1 0.2 0.1 0.4 0.1 0.1 0.1 0.3 0.2 0.2 0.1 0.3 0.2l1.2 0.6q0.1 0.1 0.3 0.2 0.1 0 0.3 0.1 0.1 0.1 0.2 0.2 0.2 0.1 0.3 0.2 0.1 0.1 0.3 0.2 0.1 0.1 0.3 0.2 0.1 0.1 0.3 0.1 0.1 0.1 0.3 0.2c5.3 4.3 10.9 3 16 0.1 16.2-9 32.3-18.4 48.5-27.6 10.3-5.9 20.8-11.7 31.2-17.7 25.7-14.7 51.2-30 77.1-44.2 8.8-4.8 18.8-7.1 28.3-10.6 2.2-0.8 4.6-1.2 6.8-2.1 14.4-6.4 29-5.9 43.5-1.1 12.6 4.2 25.1 9 37.5 14.1 3.3 1.3 6 4.5 8.8 7.1 12.7 12 24.6 24.9 38 35.9 13.4 11 23.4 24.6 31.5 40.1 3.5 6.7 2.8 13.9-1 20.2-8.7 14.9-21.8 24-37.4 29.1-3.3 1.1-7.1 0.8-10.6 1.2-2.9 0.3-4 1.8-3.5 5.1 0.4 3.7 2.3 8.3-2.7 10.9-0.5 0.3-0.4 2.6-0.2 4q4.8 34.8 9.6 69.5 0.3 1.7 0.5 3.4 0.3 1.7 0.5 3.4 0.2 1.7 0.3 3.4 0.2 1.7 0.3 3.4c0.2 3.3 1.5 5.4 4.2 6.6 3 1.4 3.2 3.4 3.1 6.7-0.1 7.7 0.9 15.4 1.5 23.1 0.5 7.1 1.2 14.1 1.4 21.2q0 0.2 0 0.4 0 0.2 0 0.5 0 0.2-0.1 0.4 0 0.2 0 0.4 0 0.2-0.1 0.4 0 0.2 0 0.5-0.1 0.2-0.2 0.4 0 0.2-0.1 0.4-0.1 0.2-0.2 0.4 0 0.2-0.1 0.4-0.1 0.2-0.2 0.3-0.1 0.2-0.2 0.4-0.1 0.2-0.2 0.4-0.1 0.2-0.3 0.4-0.1 0.2-0.2 0.3-0.2 0.2-0.3 0.4c-6 6.2-8.1 14-7.5 22.3 0.8 11.6 2.5 23.1 3.8 34.6q3.4 30.7 6.8 61.5c0.8 7.6 1.7 15.2 2.6 23.5 5-1.8 6 1.2 6.2 5.2q1.8 28.4 3.6 56.7c81.3-79.3 127.1-188.7 127-302.9 0-232.6-186.2-421.2-415.8-421.2-162.2 0-302.5 93.9-371 230.8 1-0.9 2.1-1.9 3.1-2.9 8.5-7.6 19.1-12.9 29.3-18z"/>
		<path id="Yellow" class="s2" d="m660.5 41.4h8.3v168.7h-8.3z"/>
		<path id="Yellow" class="s2" d="m664.8 1148.5h-4.3v56.4h8.3v-56.4z"/>
		<path id="Yellow" class="s2" d="m770 1101.6q39.6-7 79.2-13.8l42.4-7.4q10.8-7.1 21.1-14.9c-18.3 0.8-36.7 2-55.1 2-17.7 0-35.5-2-53.3-2.8-31.1-1.4-62-4.4-93.3-3.2-33.5 1.3-67 0.1-100.5 0.6-26.9 0.4-53.8-2-80.6 1.7-11.4 1.5-22.9 2.1-34.4 3.1l-58.9 5.6-9.2 0.8q6.4 4.5 12.9 8.7 6.5 4.3 13.2 8.3 6.6 4 13.4 7.7 6.9 3.8 13.8 7.3 7 3.5 14 6.7 7.1 3.2 14.3 6.1 7.2 2.9 14.5 5.6 7.3 2.7 14.7 5.1 7.4 2.4 14.9 4.5 7.5 2.1 15 3.9 7.6 1.8 15.2 3.3 7.6 1.5 15.3 2.8 7.7 1.2 15.4 2.2 7.7 0.9 15.5 1.6 7.7 0.7 15.5 1 7.7 0.4 15.5 0.5h8.3q6.9-0.1 13.7-0.4 6.9-0.3 13.7-0.8 6.9-0.5 13.7-1.3 6.8-0.7 13.6-1.7 20.4-2.9 40.4-7.9 20-5 39.4-11.9 19.4-7 38-15.8 18.7-8.8 36.3-19.5l-54.9 9.6c-11.7 2.1-23.5 4.3-35.2 6.5h-23.3c0.3-3.9 3.5-3.3 5.8-3.8z"/>
		<path id="Yellow" class="s2" d="m986.7 279.4l158.4-200.1 6.4 5.2-157.6 199.9z"/>
		<path id="Yellow" class="s2" d="m72.6 86.4l6.1-5.6 203.1 226.4-6.1 5.6z"/>
		<path id="Yellow" class="s2" d="m322.5 53.1l7.4-3.6 61 130.6-7.4 3.6z"/>
		<path id="Yellow" class="s2" d="m856.1 176.1l62.3-119.7 7.3 3.9-62.3 119.7z"/>
		<path id="Yellow" class="s2" d="m522 217.7l-46.2-212.7h-8.4l46.6 214.6z"/>
		<path id="Yellow" class="s2" d="m765.9 222.4l49.6-217.7h-8.5l-49.2 215.7z"/>
		<path id="Yellow" class="s2" d="m1059.1 393.5l145.9-101.8v-10.6l-150.8 105.7z"/>
		<path id="Yellow" class="s2" d="m254.6 469.4l-242.9-140.6-3.7 6.2v1.3l242.4 140.3z"/>
		<path id="Yellow" class="s2" d="m196.1 580.6l-188.1-24.2v8.4l187 24.1z"/>
		<path id="Yellow" class="s2" d="m1108.5 485.1l96.5-17.1v-8.4l-98.1 17.3 1.6 8.1z"/>
		<path id="Yellow" class="s2" d="m1121.7 681.2l83.3 0.7v-8.3l-83.2-0.8z"/>
		<path id="Yellow" class="s2" d="m1076.7 878.8l128.3 76.8v-10l-123.9-73.8z"/>
		<path id="Yellow" class="s2" d="m1032.5 1009.3l172.5 138.1v-10.9l-167.2-133.6z"/>
		<path id="Yellow" class="s2" d="m381.5 1090.3l-90.3 114.7h10.8l85.8-109.3z"/>
		<path id="Yellow" class="s2" d="m134.6 946.1q0.2-2.5 0.4-5.1l-127 61.1v9.4l126.1-60.7z"/>
		<path id="Yellow" class="s2" d="m171.7 1195.6c0 3.3-0.1 6.4-0.1 9.4 0 0.4 1.4-0.3 1.4 0.1l142.1-119.5-2.5-3.3-7.2 0.4z"/>
		<path class="s1" d="m150.3 1052.5q-0.2 0-0.4-0.1-0.2 0-0.4-0.1-0.2 0-0.4 0-0.2-0.1-0.4-0.1l-1.7-0.2-1.6-0.2q-0.2 0-0.4 0-0.2-0.1-0.4-0.1-0.3 0-0.5 0-0.2 0-0.4 0c-5 0.1-9.9 0.7-14.8 0.8-4.6 0-9.2-0.6-13.8-0.5-19.8 0.4-39.7 0.9-59.5 1.4 19.8-0.5 39.7-1 59.5-1.4-14 0.3-72.1 0.6-107 0.9v152h135.9c0.4-39.1 0.8-116.6 1.5-129.6v-0.7q0 0 0-0.1 0 0 0-0.1 0 0 0.1 0 0-0.1 0-0.1v-0.3c0.4-4.5-0.5-10.4 6.4-11.3z"/>
		<path fill-rule="evenodd" class="s1" d="m372.9 567.8c-4.2 149.5-8.3 298-12.4 446.8q-0.7 22.8-1.3 45.6l-127.9-8.7c-1.7-11.6-2.8-13-13.9-13.4-16.3-0.6-32.6-0.9-48.8-0.7-5 0-11.5 0.4-14.5 3.6-7 7.3-14.3 3.2-22 3.6 0.7-8.2 1.3-15.9 2-23.7q2.6-29.2 5.1-58.3 0.7-7.5 1.3-15 0.4-4.9 0.9-9.8c1.1-12.9 2.2-25.8 3.4-38.7q0.1-0.2 0.1-0.4 0.1-0.1 0.1-0.3 0.1-0.2 0.2-0.4 0-0.1 0.1-0.3 0.1-0.2 0.2-0.3 0-0.2 0.1-0.4 0.1-0.1 0.2-0.3 0.1-0.1 0.2-0.3 0.5-0.6 1-1.1c0.3-0.3 0.8-0.6 1.2-0.9 15-6.8 30.1-13.2 44.9-20.2 2.7-1.3 5.7-5.1 6-7.9 2-18.8 3.3-37.7 4.8-56.5 1.6-19.7 3.4-39.5 5-59.2 0.8-8.6 1.6-17.3 2.1-25.9 0.5-8.6 2.9-15.2 9.6-21.2l31.4-27.8q58.9-52.7 117.9-105.4c0.6-0.6 1.3-1.1 3-2.5zm-193.9 326.2c-7.9 2.8-15.7 5.9-23.7 8.6-3.9 1.3-5.4 3.7-5.6 7.9q-0.7 11.9-1.5 23.7c-0.2 3.2-0.4 6.5-0.6 9.7q-1.3 20-2.6 40l-0.9-0.5q-1.6 2.8-3.3 5.5c2.1 0.7 4.2 2 6.2 1.9 9.7-0.7 19.3-2 29-2.6 3.3-0.2 4.4-1.3 4.6-4.7 1.1-14.8 2.3-29.7 3.6-44.5q1.6-19 3.3-38c0.6-7.6-1.5-9.5-8.5-7zm109.3-44.8c0.3-6.5-1.3-7.5-6.9-5.1-4.8 2.1-9.7 4.2-14.5 6.4-2.4 1.1-4.9 2.2-7.4 3.3-3.5 1.5-6.6 3.1-3.3 7.8 0.4 0.6 0 1.9 0 2.8q-2 36.7-4.2 73.5c-0.6 9.9-1.3 19.8-2 29.6q0 0-0.1 0 0 0.1 0 0.1-0.1 0-0.1 0-0.1 0-0.1 0l-0.4 0.2q0 0-0.1 0 0 0.1 0 0.1-0.1 0-0.1 0-0.1 0-0.1 0l-0.4 0.2c-1.5 1.4-4.3 2.9-4.2 4.1 0.3 3.6 3.3 2.7 5.6 2.3 8.9-1.4 17.8-2.8 26.6-4.5 1.6-0.3 4-2.2 4.2-3.6 1.2-10.1 2-20.3 2.6-30.6 0.8-11.8 1.3-23.7 2-35.6q0.2-5.5 0.5-10.9c0.8-13.4 1.8-26.7 2.3-40.1zm8.9-89.5q0.5-10.2 0.9-20.3c0.7-16.1 1.3-32.2 2.1-48.3 0.5-10.3 1.3-20.4 1.9-30.7 0.1-3.3-0.2-6.5-3.7-6.4-1.3-2.8-1.9-5.6-3.3-6.3-1.2-0.6-3.8 1-5.2 2.3q-8.5 7.7-16.6 15.9c-1.2 1.1-2.5 3.8-2 4.7 2.1 4 1.5 7.3-0.9 10.7-0.4 0.5-0.2 1.5-0.2 2.3-1.2 28.5-2.4 56.9-3.5 85.4-0.1 4.5-0.5 8.3-5 10.4-0.7 0.4-0.9 2-1.2 3.4q0 0 0 0.1 0 0 0 0.1 0 0-0.1 0 0 0.1 0 0.1v0.3q0 0 0 0.1-0.1 0-0.1 0.1 0 0 0 0.1 0 0 0 0.1 0 0 0 0.1 0 0 0 0.1 0 0-0.1 0 0 0.1 0 0.1c0.2 0 0.4 0.1 0.7 0.1 1.5 0.3 3.2 0.9 4.3 0.3 3.9-2.3 7.5-5.2 11.2-7.9 5.6-3.9 11-8.2 16.9-11.5 2.6-1.4 3.7-2.7 3.8-5.4zm55.2 63.1c0.3-6.2-1.2-7.5-6.7-5.3-10.8 4.5-21.6 9.1-32.5 13.5-2.6 1-3.6 2.8-3.7 5.7-0.7 18.4-1.6 36.8-2.3 55.2-0.6 15.9-1.1 31.8-1.6 47.7q-0.3 7.2-0.5 14.2c-0.1 3 0.3 6.4-4.1 7-0.9 0.1-2 2.2-1.9 3.1q0.2 0.4 0.4 0.8 0.3 0.4 0.7 0.7 0.3 0.3 0.7 0.6 0.4 0.2 0.9 0.3h2.5q0.2 0 0.3 0 0.2 0 0.3-0.1 0.2 0 0.3 0 0.2-0.1 0.3-0.1l1.2-0.2q6.8-1.3 13.6-2.5c5-1 10.1-1.9 15.1-2.8 13.5-2.3 13.4-2.2 13.8-16.5q1.4-52.2 2.8-104.3h0.4c0-5.6-0.2-11.3 0-17zm6.8-203.5c0.2-4.1-0.4-7.2-5.6-7.5 0.6-2 1.5-3.6 1.4-5.2q0-0.2 0-0.3 0-0.2 0-0.4-0.1-0.1-0.1-0.3 0-0.1-0.1-0.3 0-0.2-0.1-0.3 0-0.2 0-0.4-0.1-0.1-0.2-0.3 0-0.1-0.1-0.3-0.1-0.2-0.1-0.3-0.1-0.2-0.2-0.3 0-0.2-0.1-0.3-0.1-0.2-0.2-0.3-0.1-0.1-0.2-0.3 0-0.1-0.1-0.3-0.1-0.1-0.2-0.2-0.1-0.2-0.2-0.3c-0.6-0.6-2.8-0.6-3.6 0-8.7 7.3-17.3 14.6-25.7 22.2-0.8 0.7-0.9 3.9-0.2 4.7 3.7 4 3.7 4.4 0 8.4q-0.5 0.6-1 1.3l-0.8 1.4q-0.1 0.2-0.2 0.4-0.1 0.2-0.1 0.4-0.1 0.2-0.2 0.4 0 0.2-0.1 0.4-0.1 0.2-0.1 0.4-0.1 0.2-0.2 0.4 0 0.2 0 0.4-0.1 0.2-0.1 0.4c-0.4 2.5 0.4 5.2 0.4 7.9-0.2 28-0.7 56.1-0.7 84.2 0 5.7-0.6 10.1-6.3 12.1q-0.1 0-0.2 0.1 0 0-0.1 0-0.1 0.1-0.2 0.1 0 0.1-0.1 0.1-0.1 0-0.1 0.1-0.1 0-0.1 0-0.1 0.1-0.1 0.1-0.1 0.1-0.1 0.1l-0.4 0.4q-0.1 0.1-0.1 0.1 0 0.1-0.1 0.1 0 0.1 0 0.2-0.1 0-0.1 0.1c-0.5 1.1-1 2.7-0.6 3.4q0.1 0.1 0.2 0.2 0.1 0 0.1 0.1 0.1 0.1 0.2 0.2 0.1 0 0.2 0.1 0.1 0.1 0.2 0.1 0.1 0.1 0.2 0.2 0.1 0 0.2 0.1 0.1 0 0.2 0.1 0.1 0.1 0.2 0.1 0.1 0 0.2 0.1 0.2 0 0.3 0 0.1 0.1 0.2 0.1 0.1 0 0.2 0 0.1 0.1 0.2 0.1 0.2 0 0.3 0 0.1 0 0.2 0c1.3-0.1 2.5-1.1 3.6-1.8 10.8-6.5 21.4-13.3 32.3-19.6 3.3-2 4.5-4.4 4.6-8.3q1.6-52.2 3.5-104.5z"/>
		<path class="s1" d="m941.7 592.1c-17.2-11.5-32.9-25-45.4-42.4-5.3-7.4-13.7-11.4-22.4-14-3.7-1.1-8.9 3-10.8-3.7 0-0.1-0.5-0.1-0.8-0.2-11.8-2.5-23.6-3.7-35.7-2-14.2 2-27.7 6.7-40.8 12.2-11.6 4.8-23.1 9.8-33.9 16.1-19.9 11.7-38.8 25-58.7 36.5-24.7 14.5-49.8 27.9-75 41.6-2.1 1.1-5.6 2-7.5 0.9-21.2-11-42.5-21.6-63.2-33.7-30.8-18.1-61.4-36.6-93.3-52.4-5.3-2.6-11.3-3.7-16.2-6.8q-2.7-1.6-5.5-3-0.7-0.4-1.4-0.7-0.7-0.4-1.5-0.7-0.7-0.3-1.4-0.6-0.8-0.3-1.5-0.6-2.9-1.1-6-2-0.8-0.2-1.5-0.4-0.8-0.2-1.5-0.4-0.8-0.2-1.6-0.4-0.7-0.2-1.5-0.3c-19.2-3.8-38.4-8.6-58.1-4-9.9 2.4-21.1 2.8-29.1 8.4-15.2 10.3-29.2 23-42.5 35.9q-1.9 1.8-3.6 3.7-1.7 1.9-3.5 3.9-1.8 1.9-3.4 3.9-1.6 2-3.3 4.1c-4.5 5.6-9 11.3-13.8 16.6-9.2 9.8-18.2 19.9-28.2 29-14.8 13.5-27.7 29.2-41.3 44-2.2 2.4-4.5 3.5-7.7 2.3q-1.8-0.7-3.5-1.4-1.8-0.7-3.6-1.4-1.8-0.6-3.6-1.2-1.9-0.6-3.7-1.1c-14.9-4.2-29.8-5.2-44.1 2.7-11.7 6.5-20.9 16.2-30 26q-1.6 1.9-3.3 3.8c-1.1 1.3-2.1 2.7-3.1 4-1 1.3-2.1 2.7-3.1 4-1 1.3-1.9 2.8-2.9 4.2-0.7 1.1-0.9 4.2-0.1 4.8 5.5 4.5 10.9 9.2 17 12.7 2.6 1.5 7 1.5 9.9 0.3 3.2-1.3 5.7-4.7 8.4-7.3 12.9-12.2 25.7-24.5 38.7-36.7q0.1-0.1 0.2-0.1 0.1-0.1 0.2-0.2 0.1 0 0.2-0.1 0.1 0 0.2-0.1 0.1-0.1 0.2-0.1 0.2-0.1 0.3-0.1 0.1-0.1 0.2-0.1 0.2-0.1 0.3-0.1 0.1 0 0.2-0.1 0.2 0 0.3 0 0.1-0.1 0.2-0.1 0.2 0 0.3 0h1.1c15.9 2.8 31.8 5.6 47.6 8.8 4 0.8 6.6-0.1 9.6-2.8l39-35q57.5-51.4 114.8-103c5.2-4.7 8.5-5.8 15.4-2.4 74.4 35.7 149.2 70.7 223.7 106q0.3 0.2 0.6 0.3 0.4 0.1 0.7 0.3 0.3 0.1 0.6 0.2 0.4 0.1 0.7 0.2 0.3 0.1 0.7 0.1 0.3 0.1 0.6 0.1 0.4 0.1 0.7 0.1 0.4 0 0.7 0 0.3 0 0.7-0.1 0.3 0 0.6-0.1 0.3 0 0.7-0.1 0.3 0 0.6-0.1 0.3-0.1 0.6-0.2 0.4-0.1 0.7-0.3 0.3-0.1 0.6-0.3 0.3-0.1 0.6-0.3 68-34.7 136.2-69.1c22.6-11.4 45.3-22.7 67.7-34.5 4.9-2.6 8-3.3 12.6 0.9 25.9 23.4 52.2 46.3 78.3 69.4 1.3 1.1 2.6 2.4 4.1 2.7 3.2 0.5 3.8 2.6 3.9 5.3q0.2 2.8 0.4 5.6l1.3 1.3c9.4-6.8 19-13.5 28.2-20.6 1.8-1.3 2.9-4.4 3.3-6.9 1.8-12-1.4-21.5-11.8-28.6z"/>
		<path fill-rule="evenodd" class="s1" d="m607.9 859.1c-2.8 6.2-7 5.2-11.9 4l-219.5-55.8c-1.2-0.3-2.5-0.7-4.2-1.2 2.2-79.7 4.4-159.2 6.6-239.6 1.9 0.8 3.4 1.3 4.8 2q107.8 51 215.7 101.8c5.3 2.5 8.5 5.2 7.5 12-0.6 4.3-0.1 8.9-0.1 14.2-2.7-2-4.9-3.6-7-5.2-3.4-2.5-5.8-1.5-5.9 2.9-0.1 5.2 0.3 10.4 0.3 15.6q0.1 39.3 0.2 78.5c0 4.9 0.5 7.7 6.2 8.4 8.2 0.9 8.2 1.5 8.4 10.3 0.2 10 0.3 19.9 0.5 29.8 0.1 7.7 1.9 9.2 8.9 7.4l220-56.6 4.8-1c-5.8 14.5-3.2 28.8-1.4 42.9-8.5 5.3-15.4 0.4-21.1-4.6-4-3.5-7.7-2.6-11.8-3.1-2.5-0.3-5.8-1.1-7.2-3-4.6-6-4.3-6.3-9.9-1.7-5-3.4-5-3.4-9 1.7-0.4 0.5-1 1.4-1.2 1.3-6.3-2-7.2 4.1-9.7 7.4-1.9 2.4-3.5 4.4-7 4-1.2-0.1-3.3 2.4-3.9 4.1-2.4 6.1-9.4 13.6-14.1 12.5-5.5-1.3-11.6-0.4-16.5-4.4q-0.3-0.3-0.6-0.5-0.3-0.3-0.6-0.5-0.4-0.1-0.7-0.2-0.4-0.2-0.8-0.2c-5.9 0.9-8.9-3.8-12-7.5-2.2-2.6-3.7-3.8-6.6-1.3q-0.1 0.1-0.2 0.1 0 0-0.1 0.1-0.1 0-0.2 0-0.1 0.1-0.2 0.1-0.1 0-0.2 0.1-0.1 0-0.2 0.1-0.1 0-0.2 0-0.1 0.1-0.2 0.1-0.1 0-0.2 0-0.1 0.1-0.1 0.1-0.1 0-0.2 0-0.1 0-0.2 0-0.1 0-0.2 0-0.1 0-0.2 0-0.1 0-0.2-0.1-0.1 0-0.2 0c-3.1-0.4-11.7 4.9-13.7 7.6-2 2.7-4.6 4.9-7.1 7.2-0.6 0.6-1.7 0.7-2.2 1.4-1.7 2.2-3.1 4.7-4.9 6.7-0.5 0.5-1.1 1-1.6 1.5-0.5 0.5-1 0.9-1.5 1.4-0.5 0.5-1.1 0.9-1.7 1.4-0.6 0.5-1.1 0.8-1.6 1.3-3.2-2.2-6.6-4.7-10.1-6.9-1-0.7-2.5-0.6-3.7-1-1.6-0.5-3.7-0.7-4.7-1.8-4.6-5.3-8.2-5.9-13.6-1.5-3 2.5-5.7 5.6-8.8 8-1.4 1.1-3.8 1.9-5.3 1.4-4.3-1.4-5 0.7-5 4.4q0 0.2 0 0.4 0 0.3-0.1 0.5 0 0.2-0.1 0.4-0.1 0.2-0.2 0.4-0.2 0.4-0.4 0.8-0.1 0.1-0.1 0.2-0.1 0.1-0.2 0.2-0.1 0-0.1 0.1-0.1 0.1-0.2 0.2c-0.4-2.4-0.4-5.1-1.3-7.2-0.9-2.1-2.5-4.9-4.2-5.2-1.7-0.3-5.1 1.3-5.8 3.1zm-134.6-114.8q0.7-51.8 1.6-103.5c0.1-4.2 0.6-8.3-4.4-9.9-0.8-0.2-1.2-1.7-1.8-2.6 4.5-3.2 4.3-6.3-0.3-9.2l-1.6-0.8q-18.8-9.5-37.6-18.8c-5.5-2.8-9.5-0.5-10.4 5.8-5.8 1.1-6.5 2-6.6 8.3-0.6 32.8-1.1 65.6-1.9 98.3-0.1 5.3-1.4 10.6-1.7 16-0.1 1.3 1.4 3.4 2.7 4.1q1 0.4 2.1 0.8 1 0.4 2 0.8 1.1 0.4 2.2 0.7 1 0.3 2.1 0.6c15.3 5 30.5 10 45.8 14.9 6.3 2 7.8 0.9 7.8-5.5zm105.8-64.6c-2.9-0.7-3.3-1.8-2-4.6 0.4-0.9-0.8-3.5-1.9-4.1-9.7-4.8-19.5-9.4-29.3-14.1-6.9-3.3-7.3-3.1-9.7 4.3h-1q-0.2 0-0.5 0.1-0.2 0-0.5 0-0.3 0-0.5 0-0.3-0.1-0.5-0.1h-1c-3.4-0.6-6.9-4.5-5.7-6.5 3.2-5.2-0.6-6.8-3.7-8.5-9.8-5.6-19.8-10.9-29.8-16.3-6.3-3.4-8.4-2.4-9.7 4.7-7.3 1.8-7.2 1.8-7.3 10q-0.4 50.2-0.9 100.3v1q0 0.1 0 0.3-0.1 0.1-0.1 0.2 0 0.2 0 0.3 0 0.2 0 0.3-0.1 0.5-0.2 1 0 0.1-0.1 0.2 0 0.2-0.1 0.3 0 0.1 0 0.2-0.1 0.2-0.1 0.3c-1.3 3.5 0.4 5.2 3.1 6.1q20.8 7.4 41.7 14.6c3.9 1.4 7.5 5.9 12.2 1.6 0.1-0.2 0.7 0.3 1.1 0.4 8.8 3.5 17.7 6.9 26.5 10.4 5.4 2.1 10.8 4.3 16.3 6.5 1.5 0.6 3.6 1.9 4.6 1.3 1-0.6 1.8-3 1.8-4.7q0.1-47.3 0.2-94.6v-2.6q0-0.2 0-0.3 0-0.2 0-0.4 0-0.1 0.1-0.3 0-0.1 0-0.3 0-0.2 0-0.3 0-0.2 0.1-0.4 0-0.1 0-0.3 0.1-0.1 0.1-0.3c0.7-3.2-0.7-5.1-3.2-5.7z"/>
		<path class="s1" d="m609.8 981.6c-8.3 0-8.3 0-8.3-8.6q-0.1-33.6-0.1-67.2v-34.8l-17.6-4.4v53.2c0 15.9-0.2 31.8-0.1 47.7 0 3.8-1.3 5.7-5 5.4-1.4-0.1-2.7 0.2-4 0q-26.8-2.4-53.6-5l-75-7.2c-14.4-1.4-28.9-2.7-43.3-4-2.5-0.3-4.3-1.1-4.2-4.3l1.8-58.6q1-34.7 1.9-69.5c0-1.4-0.8-3.8-1.6-4.1-9.3-2.6-18.8-4.9-28.5-7.3-1.9 69.4-3.8 138.5-5.8 207.8q-0.7 25.9-1.4 51.8l54.6-5 113.5-10.3q0-0.4 0.1-0.9 0-0.4 0-0.8 0-0.5 0-0.9 0-0.5 0-0.9c-0.1-2-0.2-4.1-0.4-6.2-0.5-5 0.1-5.7 5-5.7h10c0.7-4.1 0.2-9.3 2.3-11 2.5-2.1 7.2-1.4 10.9-1.9 0-2.3 0.2-4.8 0-7.3-0.3-3.8 1.3-4.9 4.6-4.6 3.3 0.3 6.5 0.1 10.1 0.1-0.2-1.4-0.4-2.6-0.6-3.8-1.1-6 0.7-8.2 6.4-8 3.2 0 6.3 0.3 9.4 0.4h24.6v-24.2z"/>
		<path class="s1" d="m682.4 973.9v31.7c-0.1 4.4-1.1 4.7-6.8 5.9v7.9c4.2 0 8-0.3 11.9 0.1q0.2 0.1 0.3 0.1 0.2 0.1 0.3 0.1 0.2 0.1 0.3 0.2 0.2 0 0.3 0.1 0.1 0.1 0.3 0.2 0.1 0.1 0.2 0.2 0.1 0.1 0.3 0.2 0.1 0.1 0.2 0.2 0.5 0.5 0.9 1 0.1 0.1 0.1 0.3 0.1 0.1 0.2 0.3 0 0.1 0.1 0.3 0 0.1 0.1 0.3c0.6 2.9 0.2 6.1 0.2 9.4 4.6 0 8.9-0.1 13.2 0 2.9 0.1 4.4 1.3 3.5 4.9-0.6 2.2-0.5 4.6-0.8 7.5l14.5 0.8c2.7 0.2 4.7 1.3 3.2 4.4-1.8 3.7-0.2 4 2.6 4.1 13.5 0.6 26.9 1.2 40.3 2 25.1 1.5 50.2 3.1 75.3 4.5 6.4 0.4 12.7 0.1 19.8 0.1q-3-47.6-6.2-96.8z"/>
		<path class="s1" d="m682.5 1005.6c-0.1 4.4-1.1 4.6-6.8 5.9 5.7-1.3 6.7-1.5 6.8-5.9z"/>
		<path class="s1" d="m620.6 837.2l64.4-16.6q77.3-19.9 154.6-39.7c3.9-1 4.6-2.5 4-6.5-1.1-6.8-1.6-13.7-2.3-20.6-1-9-2-18-3.1-27.3-1.5 0.4-2.6 0.6-3.5 0.9l-75.6 24.6-77.7 25.4c-21.1 6.9-42.3 13.7-63.3 20.7-1.2 0.4-2.8 1.9-2.8 2.8-0.1 12.2-0.1 24.5-0.1 37.2 2.5-0.4 4-0.6 5.4-0.9z"/>
		<path class="s1" d="m948 1035.8c-1.4-20.4-2.7-40.5-4-60.7l-81-10c2.1 32.1 4.1 63.3 6.1 95.2l52.4-1.5 28-0.8q-0.8-11.2-1.5-22.2z"/>
		<path class="s1" d="m969.1 612.6c-6.9-13.3-14.7-25.7-26.2-35.5q-5-4.1-9.8-8.4-4.8-4.3-9.7-8.7-4.7-4.4-9.3-8.9-4.6-4.5-9.2-9.2c-5.7-5.9-11.3-11.1-18.6-14.1-23.2-9.3-45.8-17.6-71.7-8.6q-8.3 2.9-16.5 6.2-8.2 3.3-16.1 7-8 3.7-15.8 7.8-7.8 4.1-15.4 8.6-26.6 16.1-53.5 31.7-26.9 15.6-54.1 30.6c-9.3 5.1-19 9.7-28.6 14.3-1.4 0.6-3.8 0.1-5.3-0.8-3.7-2-6.9-4.9-10.6-6.7-37-18.6-72.9-39.4-108.1-61.5-16.4-10.4-33.3-19.8-51.5-26.4-29.9-10.8-60.8-13.1-92-11.9-6.4 0.2-13.5 1-19.2 3.9-10.2 5.1-20.5 10.9-29 18.5-4.2 3.8-8.3 7.7-12.4 11.7-9.9 9.8-19.5 20-29 30.2-16.3 17.2-32 34.9-48.2 52.2-9.7 10.4-19.6 20.6-29.6 30.8-2.4 2.5-2.2 5.6 0.8 7.3q0.1 0.1 0.2 0.1 0.2 0.1 0.3 0.2 0.1 0 0.2 0.1 0.2 0 0.3 0.1 0.1 0.1 0.3 0.1 0.1 0.1 0.2 0.2 0.2 0 0.3 0.1 0.2 0.1 0.3 0.1 0.1 0.1 0.2 0.1 0.2 0.1 0.3 0.2 0.1 0 0.2 0.1 0.2 0 0.3 0.1 0.5 0.2 1.1 0.4c3.2-3.2 6.4-6.2 9.5-9.4 13.2-13.7 26.5-27.2 39.5-41 10.1-10.8 20.3-21.5 29.9-32.8 4.4-5.2 8.7-10.5 13.2-15.7 7.8-9.1 16-18 25.7-25.1 8.3-6.2 15.8-14.4 25-18.2 17.9-7.3 36.7-11.4 56.2-8.8 19.5 2.6 39.1 4.8 57.2 14.2 20.1 10.5 40.7 19.9 60.5 30.9 34.2 19 68.1 38.8 102 58.5 6.1 3.6 11.5 4.2 17.7 0.7 22.4-12.7 45-24.8 67.4-37.6 12.2-7 23.8-15.1 35.8-22.5 10.6-6.7 21.1-13.7 32.3-19.2q5.5-2.7 11.1-5.3 5.6-2.6 11.1-4.9 5.6-2.4 11.3-4.6 5.7-2.2 11.3-4.4 4.9-1.8 9.9-3.1 5-1.3 10-2.1 5.1-0.8 10.3-1.1 5.2-0.3 10.3-0.1 4.1 0.2 8.3 0.8 4.1 0.5 8.1 1.3 4.1 0.9 8.1 2 4 1.1 7.9 2.5c11.7 3.9 21.8 9.8 29.8 19.8 8.5 10.6 17 21.1 28.8 28.1 6.4 3.9 12.2 9.1 18 14.1 13.5 11.9 12.6 34.6-1.6 45-7.4 5.4-14.7 10.6-22.5 16.1 3.2-0.4 6.2-0.1 8.8-1.1 12.8-4.8 24-12.2 31.7-24.4 2.8-4.4 4.6-9.2 1.8-14.6z"/>
		<path class="s1" d="m844.7 730.2c1.9 17.1 3.7 33.1 5.7 49.1 0.2 1.3 1.8 2.7 3.1 3.3 18.4 8 36.8 15.7 55.2 23.6 8.3 3.5 16.6 7 25.2 10.7 0-1.8 0.1-3 0-4.3-0.8-10.5-2-21-2.4-31.5-0.2-5-2.1-7.4-6.2-9.4-14.2-7-28.2-14.5-42.2-21.8z"/>
		<path class="s1" d="m193.3 865.1c1.2-15.1 2.4-29.5 3.6-44.4-2.1-0.4-3.6-0.7-5-0.9-13-2-26-3.8-39-5.9-1.4-0.2-3.3-1.3-3.8-2.5-0.4-0.9 1.2-2.6 1.8-4q0.1-0.1 0.1-0.2 0.1-0.1 0.2-0.2 0-0.1 0.1-0.3 0.1-0.1 0.1-0.2 0.2-0.5 0.4-0.9 0-0.1 0.1-0.3 0-0.1 0-0.2 0.1-0.1 0.1-0.3 0.1-0.1 0.1-0.2l0.2-1q3.3-38.8 6.5-77.6c0.3-4.2 0.9-8 6.3-7.7q0.1 0 0.2 0 0 0 0.1 0 0.1 0 0.2-0.1 0 0 0.1 0 0.4-0.1 0.7-0.2 0.1 0 0.1-0.1 0.1 0 0.2-0.1 0 0 0.1-0.1 0 0 0.1-0.1 0.1 0 0.1-0.1 0.1-0.1 0.2-0.1 0-0.1 0.1-0.2 0.1 0 0.1-0.1c3.3-4.9 7.6-3.8 12.1-2.7 4.5 1.1 9 2.3 13.6 3.2 5.3 1.1 10.8 1.9 10.7 9.6 0 0.1 0.2 0.2 0.8 0.5 0.5-5.6 0.9-11 1.4-16.9l-47.8-8.8c-5.5 53.1-10.8 105.4-16.2 158.1z"/>
		<path class="s1" d="m852.8 789.2c-4.2-1.8-5 1.2-5.8 4-2.8 9.1-1.5 18.4-0.5 27.6 0.4 3.1 1 6.2 1.7 10.6 1.8-2.5 3.2-3.8 3.6-5.3 0.9-4.1 1.8-7.5 7-5.8 0.3 0.1 1.1-1.3 1.7-2 2.2-2.4 9-3.8 10.7-1.6q1.3 1.8 2.6 3.5l2.8 3.4q1.4 1.6 2.9 3.2l3 3.2c3.9 3.9 5.6 10.3 9.1 17.1 1.2-2.8 2-4.5 2.7-6.2 0.3-0.7 0.3-1.8 0.7-2.1 4.2-2.1 8.3-4.4 12.6-5.8 1.2-0.4 3.5 1.6 4.7 3.1 1.8 2.3 2.9 5.1 4.6 7.4 2.6 3.3 5.4 6.4 8 9.4-1.1-10.2 1.5-20.1 7.5-29.4-0.9-0.5-1.4-0.8-2-1.1-25.8-11-51.7-22-77.6-33.2z"/>
		<path class="s1" d="m136.1 858.4q3.3-31.2 6.4-62.5 3.4-33.5 6.9-67.1c0.7-6.9 1.4-13.8 2.1-21.9-13.1 12.4-25.4 23.8-37.6 35.5-1.1 1.1-1.4 3.3-1.6 5.1q-2.7 26.3-5.2 52.6c-1 10.9-2 21.9-3 32.9l1.2 0.5q0.1-0.1 0.1-0.2 0.1-0.2 0.2-0.3 0-0.1 0.1-0.2 0-0.2 0.1-0.3 0.2-0.5 0.4-1.1 0-0.1 0.1-0.2 0-0.2 0.1-0.3 0-0.1 0-0.2 0.1-0.2 0.1-0.3 0-0.1 0.1-0.3 0-0.1 0-0.3 0.1-0.1 0.1-0.2 0-0.2 0.1-0.3c2-23.5 4.3-47 5.9-70.6 0.5-7.6 2.2-13.8 8.5-18 1.6-1.1 3.6-1.5 5.5-2.2 0.6 2 1.8 4 1.7 6-0.4 8.4-1.1 16.6-1.8 24.9-0.9 11.2-1.8 22.3-2.7 33.4q-0.7 9-1.5 18l1.1 0.2c0.3-2.1 0.8-4.3 1-6.4 0.5-6.3 0.9-12.6 1.3-18.9 1.4-17.4 3.2-34.8 3.9-52.2 0.4-8.2 1.9-14.6 9-19 5.5-3.4 7.3-3.2 8.2 3.5v0.8q0 0.1 0 0.2 0.1 0.1 0.1 0.2 0 0.1-0.1 0.2 0 0.1 0 0.2v0.8q0 0.1 0 0.2 0 0.1 0 0.3 0 0.1-0.1 0.2 0 0.1 0 0.2c-1 10.8-2.1 21.6-3.1 32.4q-2.5 26.3-4.8 52.6c-0.2 2.7-1 4.9-4.1 5.2l-0.8 0.2q-0.1 0-0.2 0.1-0.1 0-0.2 0 0 0.1-0.1 0.1-0.1 0.1-0.2 0.1-0.1 0.1-0.2 0.1-0.1 0.1-0.1 0.1-0.1 0.1-0.2 0.1-0.1 0.1-0.2 0.1l-0.6 0.4c-7 4.7-14 9.6-21.1 14.2-2.1 1.3-4.6 1.9-7.6 3.1q-1.9 20.2-4.1 43.6c12.4-7.7 23.8-14.7 35-21.8q0.1-0.1 0.2-0.2 0.1-0.1 0.2-0.2 0.1-0.1 0.1-0.2 0.1-0.1 0.2-0.2 0.1-0.1 0.2-0.2 0.1-0.1 0.1-0.2 0.1-0.1 0.2-0.2 0-0.1 0.1-0.2 0.2-0.4 0.4-0.9z"/>
		<path class="s1" d="m831.5 591.4c-0.2 5.8 2.7 8.3 6.2 9.9 4.5-2.4 8.3-4.5 12.2-6.4 0.5-0.3 1.4 0.2 2.1 0.4 6.7 2.2 8.9 9.4 13.8 13.6 0.8 0.8 0.5 3.3 1.3 3.8 5.5 3.4 4 10.4 7.4 14.9 1.3 1.7 1.3 4.6 1.9 7q0.2-0.1 0.4-0.2 0.2-0.1 0.4-0.2 0.2-0.1 0.4-0.1 0.2-0.1 0.4-0.2l1.6-0.6 1.6-0.6q0.2-0.1 0.4-0.1 0.2-0.1 0.4-0.1 0.2-0.1 0.4-0.2 0.2 0 0.4-0.1c3-0.7 6.1-0.8 9-1.8 3.8-1.3 6.3-0.6 7.9 3.4 1.6 4 3.8 8 5.8 12 0.3 0.7 1.5 0.9 2 1.5 1.4 1.7 3.2 3.4 4 5.4 1.4 3.4 2.1 7.2 3.1 10.8l1.1-0.3c-0.4-6-0.7-11.9-1.3-17.9q-0.1-0.5-0.2-0.9l-0.4-1q-0.1-0.1-0.1-0.2-0.1-0.1-0.1-0.2-0.1-0.1-0.2-0.2 0-0.1-0.1-0.2-0.1-0.1-0.2-0.2 0-0.1-0.1-0.2-0.1-0.1-0.2-0.1-0.1-0.1-0.2-0.2-32.1-28.4-64.3-56.7c-5.9-5.2-11.8-10.3-18.3-16 0.6 8.1 1.6 15.1 1.5 22.2z"/>
		<path class="s1" d="m677.4 1050.7q-60.8-1-121.6-1.9c-5.7-0.1-11.3 0-17.2 0 0.1 2.4 0.2 4.5 0.3 6.7l179.7-0.1 0.5-1.6c-1.2-0.7-2.3-2-3.6-2q-19-0.8-38.1-1.1z"/>
		<path class="s1" d="m700.5 635.1c2.6-1.4 4.7-1.4 7 0.6 2.3 2 4.5 2.9 7.1 0.3 0.9-0.8 3.2-0.6 4.5 0 2.5 1 4.6 2.8 7.1 4 1.7 0.8 3.9 1.9 5.3 1.3 4.3-1.8 8.2-4.1 10.4-9 2.4-5.4 4.2-11.7 11.1-13.1l0.4-0.2q0.1 0 0.1-0.1 0.1 0 0.1 0 0.1-0.1 0.1-0.1 0.1-0.1 0.1-0.1l0.2-0.4q0 0 0.1-0.1 0 0 0-0.1 0.1 0 0.1-0.1 0 0 0-0.1c2.5-7.4 8.5-11 14.3-15 1.6-1.1 2.3-3.7 3.4-5.6l-1.3-0.9-75.4 38.2c0.1 0.5 0.2 0.9 0.3 1.4 1.6-0.4 3.6-0.2 5-0.9z"/>
		<path class="s1" d="m701.7 1045c1.4-5.6-0.9-6.6-5-6.7-43.1-0.5-86.1-1.3-129.2-2h-13.3c0.1 2.3 0.2 3.9 0.3 6z"/>
		<path class="s1" d="m146 888.3l37-16.6v-1.1c-11.7-1.2-23.5-1.9-35.2-3.7-6.7-1-12.1 0.9-17.5 4.7-5.7 4.1-11.8 7.5-17.7 11.2l-5.2 3.4c13.1 0.9 25 1.7 36.8 2.5h0.5q0 0 0.1 0 0-0.1 0.1-0.1 0 0 0.1 0 0 0 0.1 0 0.1 0 0.1 0 0.1-0.1 0.1-0.1 0.1 0 0.2 0 0 0 0.1 0z"/>
		<path class="s1" d="m358.8 1073.8v-7.3c-8.4-0.4-16.5-1.7-24.4-0.9-26.7 2.5-53.4 5.9-80.1 8.8-9.8 1-19.6 1.4-29.7 2.1 0.2 1.3 0.4 2.6 0.6 4.1z"/>
		<path class="s1" d="m810.3 604.8q-0.4-0.2-0.8-0.4-0.5-0.2-0.9-0.4-0.4-0.1-0.8-0.3-0.5-0.2-0.9-0.3-0.4-0.1-0.9-0.2-0.4-0.2-0.8-0.3-0.5-0.1-0.9-0.1-0.5-0.1-0.9-0.2-0.5-0.1-0.9-0.1-0.5-0.1-0.9-0.1-0.5-0.1-1-0.1-0.4 0-0.9 0-0.5 0-0.9 0-0.5 0-0.9 0-0.5 0-0.9 0-0.5 0.1-0.9 0.1-1.4 0.2-2.8 0.3c-0.9 0.1-1.8 0.1-2.7 0.1h-2.8l-2.7-0.2c-6.9-0.8-11.1 3.2-16 6.8-4.1 3-8 5.9-9.8 11.1-0.5 1.4-1.6 3.4-2.7 3.6-6.8 1.3-7.6 7.7-9.8 13.3l68.4-31.2-0.3-1.3c-1.5 0-3.2 0.5-4.6-0.1z"/>
		<path class="s1" d="m408.3 857.5l23.7 4.1v-33.5l-23.7-6z"/>
		<path class="s1" d="m836.9 838c3.9 40.1 7.7 79.9 11.6 119.9l7.5-0.5c-4.6-40.7-9.1-80.7-13.7-121z"/>
		<path class="s1" d="m614.4 693.5v-1.1q0-0.1 0-0.3 0.1-0.1 0.1-0.2 0-0.2 0-0.3 0-0.2 0-0.3 0.1-0.6 0.2-1.1 0-0.1 0-0.3 0-0.1 0-0.3 0.1-0.1 0.1-0.2 0-0.2 0.1-0.3 0-0.2 0.1-0.4 0.1-0.2 0.1-0.5 0.1-0.2 0.2-0.4 0-0.2 0.1-0.4 0.1-0.2 0.2-0.4 0-0.2 0.1-0.4 0.1-0.2 0.2-0.4 0.1-0.2 0.2-0.4 0.1-0.2 0.2-0.4 0.1-0.2 0.2-0.4 0.1-0.2 0.3-0.3 0.1-0.2 0.2-0.4 0.1-0.2 0.2-0.4 0.1-0.2 0.2-0.4 0.1-0.2 0.3-0.3 0.1-0.2 0.2-0.4c2.7-3.2 6.2-5.8 8.7-9.1 1.6-2.2 1.7-5.3 5.6-4.5 2.5 0.5 5.7-1 7.6 0.1 3.8 2.2 9 1.1 11.5 5.8 0.2 0.4 0.8 0.5 1.2 0.6 3.5 0.7 11.4-5.8 12.4-9.5 0.6-2.5 1.5-5.5 3.3-6.9 5.1-4.1 12-6.1 14.2-13.6 0.2-0.7 1.3-1.1 2-1.7l6.5-5.3-1.2-1.6q-37.3 19-74.6 37.9-0.1 0.1-0.2 0.1 0 0.1-0.1 0.1-0.1 0.1-0.2 0.2 0 0-0.1 0.1-0.1 0.1-0.2 0.1-0.1 0.1-0.1 0.2-0.1 0.1-0.2 0.2 0 0.1-0.1 0.2-0.1 0.1-0.1 0.2-0.1 0-0.1 0.1-0.1 0.1-0.1 0.2-0.1 0.1-0.1 0.2 0 0.1-0.1 0.2 0 0.1-0.1 0.2 0 0.1 0 0.2-0.1 0.1-0.1 0.2c-0.1 5.2 0 10.4 0 15.7z"/>
		<path class="s1" d="m783.8 597c5.8-3.4 12.5 1.3 18-2.8q0.1 0 0.1 0 0.1-0.1 0.1-0.1 0.1 0 0.2 0 0 0 0.1 0 0.1 0 0.1 0 0.1-0.1 0.2-0.1 0.1 0 0.2 0.1 0 0 0.1 0 0.1 0 0.1 0 0.1 0 0.2 0 0 0 0.1 0.1 0 0 0.1 0 0.1 0 0.1 0.1 0.1 0 0.2 0 0 0.1 0.1 0.1 0 0 0.1 0.1c4.1 4.5 10.1 3.1 14.9 5.3 3.4 1.5 7.3-1.1 7.1-4.4-0.6-8.5-1.3-16.9-2-26.1l-46.5 23.4c0.6 4.7 3.7 5.9 6.4 4.3z"/>
		<path class="s1" d="m459.9 835.3c-6.7-1.9-13.6-3.6-21.4-5.5v33.1l23.6 4.1c0-10.2 0-19.8-0.1-29.4q0-0.1-0.1-0.2 0-0.1 0-0.2-0.1-0.1-0.1-0.1 0-0.1-0.1-0.2 0-0.1-0.1-0.2-0.1-0.1-0.1-0.2-0.1-0.1-0.2-0.1 0-0.1-0.1-0.2-0.1-0.1-0.1-0.2-0.1-0.1-0.2-0.1 0-0.1-0.1-0.2-0.1 0-0.2-0.1-0.1-0.1-0.2-0.1 0 0-0.1-0.1-0.1 0-0.2 0-0.1-0.1-0.2-0.1z"/>
		<path class="s1" d="m686 1032c-0.3-2.2-0.6-3.9-0.9-6.3l-118.6-2c0.2 2.5 0.3 4.1 0.4 6.2z"/>
		<path class="s1" d="m653.7 895.7c-0.9-1.1-2-2.8-3.1-2.9-2.7-0.3-5.6 0.4-8.4 0.4q-0.2 0-0.4 0-0.2 0-0.4 0-0.2 0-0.3 0.1-0.2 0-0.4 0.1-0.2 0-0.4 0.1-0.2 0.1-0.4 0.2-0.1 0.1-0.3 0.2-0.2 0.2-0.3 0.3-0.2 0.1-0.3 0.3-0.1 0.1-0.3 0.3-0.1 0.1-0.2 0.3-0.1 0.1-0.2 0.3-0.1 0.2-0.1 0.4-0.1 0.1-0.2 0.3 0 0.2 0 0.4-0.1 0.2-0.1 0.4v0.7c0 12.4 0.1 24.9 0.2 37.7l16.8-1c-0.4-12.7-0.7-24.9-1-37.1-0.1-0.6 0.1-1.2-0.2-1.5z"/>
		<path class="s1" d="m659.2 893.9c0.6 9.1 0.5 18.3 1 27.4 0.2 4.2 1 8.4 1.6 12.6l1.5-0.2v-61.2l-32.9 6.1v57.2l1.7 0.2q0-0.2 0.1-0.3 0-0.2 0-0.3 0.1-0.2 0.1-0.3 0.1-0.2 0.1-0.3 0.1-0.6 0.2-1.2 0-0.1 0-0.3 0.1-0.1 0.1-0.2 0-0.2 0-0.3 0-0.2 0-0.3 0-0.1 0-0.3 0.1-0.1 0.1-0.3 0-0.1 0-0.3 0-0.1 0-0.3c-0.3-5.7-1.1-11.3-1-17q0-0.7 0-1.3 0-0.7 0-1.3 0-0.7 0-1.3 0.1-0.7 0.1-1.3 0.1-2.6 0.3-5.2 0.2-2.6 0.5-5.1c0.2-1.7 0.4-3.4 0.7-5.1q0.1-0.3 0.2-0.5 0-0.3 0.1-0.6 0.2-0.2 0.3-0.5 0.1-0.2 0.2-0.5 0.1-0.2 0.3-0.4 0.2-0.3 0.3-0.5 0.2-0.2 0.4-0.4 0.1-0.2 0.3-0.4 0.2-0.2 0.4-0.4 0.1-0.2 0.3-0.4 0.2-0.2 0.5-0.4 0.2-0.1 0.4-0.3 0.2-0.1 0.5-0.3 0.2-0.1 0.4-0.2 0.3-0.2 0.5-0.3 0.3-0.1 0.5-0.2c3.9-1.2 8.3-0.8 12.5-0.7 5.1 0.1 7.3 2 7.7 7.2z"/>
		<path class="s1" d="m197.7 728.3c-0.8-2.8-2-3.5-4.1-4-5-1.2-10-2.3-14.9-3.5-7.9-2-13.7 2.5-14.3 10.9q-3 35.7-6.2 71.4c-0.1 1.7 0 3.4 0 5.1l1.3 0.1q0.1-0.1 0.1-0.1 0-0.1 0.1-0.1 0-0.1 0-0.2 0.1 0 0.1-0.1 0.2-0.3 0.3-0.5l0.2-0.6 0.2-0.6q1.8-19.7 3.6-39.5l3-35.2c0.3-3.4 1.8-5.2 5.3-4.4 7.7 1.9 15.5 3.7 23.2 5.7 3.6 0.9 5.3 3 5 7.5-1.9 23.1-3.3 46.2-4.9 69.2-0.1 1.5 0 2.9 0 4.3h1.8l6.5-77.8-1.2 0.6c-1.8-2.7-4.3-5.2-5.1-8.2z"/>
		<path class="s1" d="m623.5 880.1l-2.3 0.1c0.5 41.8-0.1 83.4 1.1 125.9h51.6c1.1-12.1-0.3-30.2-3-32.3 0 8-0.1 15.6 0.1 23.2 0.1 4.2-1.4 5.5-5.2 5.4-11.8-0.2-23.6-0.6-35.4-0.2-4.8 0.1-5.6-1.7-5.6-6q-0.3-56-0.9-112c0-1.3-0.3-2.7-0.4-4.1z"/>
		<path class="s1" d="m435 953.3l24.5 2.3v-25.1l-24.5-3.7z"/>
		<path class="s1" d="m405.7 950.5l22.3 2c0.4-9.3 0.8-17.8 1.1-26.5l-23.4-3.5z"/>
		<path class="s1" d="m747.7 855c2 36.3 4 72.1 6 108h5.5c-2-36.5-4-72.7-5.9-109.3z"/>
		<path class="s1" d="m681.9 657.8c-0.4 1-1.8 1.5-2.9 2-5.1 2.5-10 5.1-9.2 12.9l55.2-25.3c-3.7-3.4-7-5.2-11.8-3.8-2.4 0.7-5.5-1.5-8.2-1.4-3.6 0.2-8.3 0.1-10.7 2.3-4.4 3.9-9.6 7.4-12.4 13.3z"/>
		<path class="s1" d="m821.4 832.7c-3.6-1.4-7.4-4.4-10.8-4-6.4 0.8-10.6-1.8-14.8-6.5-4.1 1.4-8.2 3.4-12.5 3.9-3.3 0.3-4.6 2.3-6.3 4.3-2 2.1-3.8 5.4-6 5.9-5 1-6.2 4.8-8.4 9l58.6-11.3z"/>
		<path class="s1" d="m468 837.9c-0.8 39.4-1.5 78.6-2.3 118.1l5.6 0.9c0-9.9-0.2-18.8 0-27.8q0.7-43.3 1.7-86.5c0.1-4-1.2-5.4-5-4.7z"/>
		<path class="s1" d="m524.9 854.1q0-0.1-0.1-0.3 0-0.1 0-0.2-0.1-0.1-0.1-0.3-0.1-0.1-0.1-0.2l-0.6-0.8q-0.1-0.1-0.2-0.2 0-0.1-0.1-0.2-0.1-0.1-0.2-0.1-0.1-0.1-0.2-0.2-0.1-0.1-0.2-0.2-0.1-0.1-0.2-0.1-0.1-0.1-0.3-0.2-0.1 0-0.2-0.1c-6-1.7-12.1-3.1-19.1-4.8v26.2l21.7 4c0-7.9 0.1-15.1-0.1-22.3z"/>
		<path class="s1" d="m458.4 901.3c-7.1-1.3-14.4-2.3-22.1-3.5-0.3 7.8-0.6 15.1-0.9 22.6l25 3.7c0-7.2 0.1-13.7-0.1-20.3q0-0.1 0-0.2 0-0.1-0.1-0.2 0-0.1 0-0.2-0.1-0.1-0.1-0.2 0-0.1-0.1-0.2 0-0.1-0.1-0.2 0 0-0.1-0.1 0-0.1-0.1-0.2l-0.6-0.6q-0.1-0.1-0.2-0.1-0.1-0.1-0.1-0.1-0.1-0.1-0.2-0.1-0.1-0.1-0.2-0.1z"/>
		<path class="s1" d="m406.5 916.1l23 3.4v-22.9l-23-3.4z"/>
		<path class="s1" d="m407.4 886.7l23.3 3.6v-22.3l-23.3-4.2z"/>
		<path class="s1" d="m669.6 1012.6h-88.5c-0.2 1.3-0.3 2.8-0.6 5l89.9 1.6c-0.3-2.3-0.5-4.2-0.8-6.6z"/>
		<path class="s1" d="m523.7 882.9c-6.9-1.5-13.8-2.8-21.3-4.1v24l22.6 3.1v-20.5c0-0.9-0.7-2.4-1.3-2.5z"/>
		<path class="s1" d="m522.5 939.3c-7-1-14.1-1.8-21.4-2.6-0.3 7.8-0.6 15-1 22.8l24.1 2.2c0-6.8 0.1-12.8-0.1-18.7 0-1.3-0.9-3.5-1.6-3.7z"/>
		<path class="s1" d="m436.4 891.2l24.4 3.8v-21.7l-23.3-4c-0.3 7.6-0.7 14.6-1.1 21.9z"/>
		<path class="s1" d="m495.8 844.4c-5.5-1.6-11.1-2.9-17-4.4v27.8l18.5 3.4c0-8.6 0-16.2-0.1-23.9 0-1-0.7-2.7-1.4-2.9z"/>
		<path class="s1" d="m302 1063.4v-0.7l-72.5-5c-0.5 3-1 5.1-1.2 7.3q0 0.6-0.1 1.3 0 0.6 0 1.2 0 0.7 0 1.3 0.1 0.7 0.1 1.3z"/>
		<path class="s1" d="m524 912.3l-22.2-3v20.8l22.2 3z"/>
		<path class="s1" d="m652 983.2c2.8 0 4.4-0.8 4.4-3.8 0.1-7.9 0-15.9 0-24.3-5.1 0.3-9.5 0.7-13.9 0.8-2.9 0.1-4.1 1.5-3.9 4.4 0.2 3.6 0.7 7.2 0.8 10.8 0.7 12.5 0.7 12.4 12.6 12.1z"/>
		<path class="s1" d="m478.1 899.4l17.7 2.4v-24.3l-17.7-3.2z"/>
		<path class="s1" d="m173.4 1083.2l44.4-2.3v-10l-44.4 2.9z"/>
		<path class="s1" d="m842.4 958.4c-0.9-9.5-1.8-18.6-2.7-28.1l-14.7 1.5c0.6 9.4 1.1 18.2 1.7 27.3z"/>
		<path class="s1" d="m477.1 957.3l17.4 1.6v-23.2l-17.4-2.2z"/>
		<path class="s1" d="m634.6 982.1c-0.1-3.9-0.5-7.8-0.8-11.8-0.3-4.5-0.7-9.1-1.1-14-2.6 2.6-3.1 26.4-1.3 39.3h32.9v-40.4h-1.9c0 1.9 0.1 3.8 0 5.7-0.2 7.4-0.2 14.8-0.7 22-0.2 3.4-2.4 6-5.9 6q-1.8 0.1-3.7 0.1-1.8 0.1-3.6 0.1-1.9 0-3.7-0.1-1.9 0-3.7-0.1c-4-0.1-6.4-2.3-6.5-6.8z"/>
		<path class="s1" d="m576.4 864.9c-5.2-1.6-10.5-2.8-16.8-4.4 0 7.3-0.1 13.7 0.1 20.1 0 1.2 1.1 3.1 2 3.4 5.1 1.3 10.4 2.1 16.4 3.3 0-7.1 0.1-13.4 0-19.7-0.1-0.9-0.9-2.5-1.7-2.7z"/>
		<path class="s1" d="m161.2 1060.8c13.4-1 26.8-2.1 40.2-2.4 7.1-0.1 14.6-1 21.7 2.9 0.5-3 0.9-6 1.3-8.4h-68.4c1.5 2.9-1.1 8.3 5.2 7.9z"/>
		<path class="s1" d="m727.8 849.7c-6.4 0-10.4-4.5-15-8.2q-0.1 0-0.1-0.1-0.1 0-0.2-0.1-0.1 0-0.1 0-0.1-0.1-0.2-0.1-0.1 0-0.2-0.1-0.1 0-0.1 0-0.1-0.1-0.2-0.1-0.1 0-0.2 0-0.1 0-0.2 0-0.1-0.1-0.1-0.1-0.1 0-0.2 0-0.1 0-0.2 0-0.1 0-0.2 0-0.1 0.1-0.1 0.1-0.1 0-0.2 0-0.1 0-0.2 0c-6.1 1-12.1 2-15.4 8.7-0.9 1.8-3.2 2.6-4.8 4-2.1 1.8-4.1 3.7-6.2 5.6l0.8 1.1 46.2-8.9c-1.4-0.9-2.1-1.8-2.9-1.8z"/>
		<path class="s1" d="m558.9 965l18.3 1.7v-21l-18.3-2.9z"/>
		<path class="s1" d="m672.5 871.1l-2-0.4c-0.5 1.7-1.4 3.4-1.4 5q0.4 37.3 0.9 74.6c0.1 5.9 0.6 11.8 0.8 18l4.5-1.7q-1.4-47.8-2.8-95.5z"/>
		<path class="s1" d="m820.7 959.3c-0.7-9.3-1.3-18-2-27l-14.4 1.7c0.7 9.1 1.3 17.7 2 26.6z"/>
		<path class="s1" d="m493.2 907.9c-5-0.8-10-1.3-15.6-2v21.1l17.8 2.3c0-6.8 0.1-13.2-0.1-19.6 0-0.6-1.3-1.7-2.1-1.8z"/>
		<path class="s1" d="m576.5 893.7c-5.5-1.2-11-2.2-16.8-3.3v20.7l18.4 2.6c0-6.4 0-12-0.1-17.6 0-0.9-0.8-2.3-1.5-2.4z"/>
		<path class="s1" d="m799.2 673.7q0.1-0.1 0.2-0.1 0.1-0.1 0.2-0.2 0-0.1 0.1-0.1 0.1-0.1 0.2-0.2l0.6-0.8q0-0.1 0.1-0.2 0-0.1 0.1-0.2 0-0.1 0-0.2 0.1-0.1 0.1-0.2 0-0.1 0.1-0.2 0-0.2 0-0.3 0.1-0.1 0.1-0.2 0-0.2 0-0.3c-0.3-6.8-0.7-13.6-1.2-21.1-5 2.2-9.6 4.1-14 6.3q-0.1 0.1-0.2 0.2-0.1 0-0.2 0.1-0.1 0.1-0.1 0.2-0.1 0.1-0.2 0.2-0.1 0.1-0.1 0.2-0.1 0.1-0.2 0.2 0 0.1-0.1 0.2 0 0.1-0.1 0.2-0.1 0.1-0.1 0.2 0 0.1-0.1 0.2 0 0.2 0 0.3-0.1 0.1-0.1 0.2-0.1 0.4-0.2 0.9c0.3 6.4 0.8 12.8 1.3 20 4.9-1.9 9.4-3.4 13.8-5.3z"/>
		<path class="s1" d="m804.7 730.4c-0.5-7.6-0.9-14.9-1.4-22.9-5.1 1.9-9.6 3.5-14 5.3l-0.6 0.4q-0.1 0-0.1 0.1-0.1 0.1-0.2 0.1 0 0.1-0.1 0.2-0.1 0-0.1 0.1-0.1 0.1-0.1 0.1-0.1 0.1-0.2 0.2 0 0.1-0.1 0.1 0 0.1-0.1 0.2-0.1 0.4-0.2 0.7c0.1 6.8 0.5 13.6 0.8 20.8z"/>
		<path class="s1" d="m800.2 960.6c-0.7-9-1.3-17.2-2-26l-14.2 1.5c0.7 8.8 1.3 16.9 2 25.5z"/>
		<path class="s1" d="m551.8 858.6c-4-1.2-8-2.1-12.6-3.3v24.5l14.7 2.7c0-7.7 0.1-14.5-0.1-21.4l-0.2-0.8q-0.2-0.3-0.5-0.7-0.1-0.1-0.1-0.2-0.1-0.1-0.2-0.1 0-0.1-0.1-0.2-0.1 0-0.2-0.1-0.1-0.1-0.2-0.1-0.1-0.1-0.1-0.1-0.1-0.1-0.2-0.1-0.1-0.1-0.2-0.1z"/>
		<path class="s1" d="m799.6 868.7c4.6-0.7 8.8-1.3 13-2.2q0.1 0 0.2-0.1 0 0 0.1-0.1 0.1 0 0.2-0.1 0 0 0.1-0.1 0.1 0 0.1-0.1 0.1-0.1 0.2-0.1 0-0.1 0.1-0.2 0.1 0 0.1-0.1l0.4-0.6q0.1-0.4 0.2-0.7c-0.4-7.3-0.9-14.6-1.5-22l-14.7 3c0.5 8 1 15.5 1.5 23.4z"/>
		<path class="s1" d="m779.7 962.1c-0.5-8.7-1.1-16.8-1.6-25.4l-14.1 1.5c0.5 8.4 0.9 16.2 1.3 23.9z"/>
		<path class="s1" d="m839 923.7c-0.8-8.5-1.6-16.4-2.4-25l-13.8 2.3c0.6 8.5 1.2 16.3 1.8 24.5z"/>
		<path class="s1" d="m818.3 926c-0.5-8-1-15.8-1.5-24.1l-14.7 2.4c0.6 7.8 1.2 15.1 1.9 23.2z"/>
		<path class="s1" d="m559.1 933.8q0 0.4 0.1 0.8 0.2 0.4 0.3 0.8 0.2 0.3 0.5 0.6 0.3 0.4 0.6 0.6c5.5 1 11 1.6 17 2.5v-18.9l-18.6-2.7c0 5.9 0 11.1 0.1 16.3z"/>
		<path class="s1" d="m809.3 706.8c0.4 7 0.9 14 1.5 21.6l14.6-4.8c-0.7-8-1.4-15.5-2.2-23.8-4.5 1.8-8.6 3.3-12.5 4.9q-0.1 0-0.1 0.1-0.1 0-0.2 0.1 0 0-0.1 0.1 0 0-0.1 0.1-0.1 0-0.1 0.1-0.1 0.1-0.2 0.1 0 0.1-0.1 0.2-0.1 0-0.1 0.1-0.1 0.3-0.2 0.6-0.1 0.3-0.2 0.6z"/>
		<path class="s1" d="m800.8 701.4l0.7-0.7q0.1-0.1 0.2-0.2 0.1-0.1 0.1-0.2 0.1-0.1 0.2-0.3 0-0.1 0.1-0.2 0.1-0.1 0.1-0.2 0-0.1 0.1-0.2 0-0.2 0-0.3 0.1-0.1 0.1-0.2 0-0.1 0.1-0.2 0-0.2 0-0.3 0.1-0.1 0.1-0.2 0-0.2 0-0.3c-0.2-5.8-0.6-11.6-0.9-18-5.2 1.9-9.9 3.6-14.6 5.5-0.7 0.3-1.2 2-1.1 3.1 0.2 5.8 0.5 11.6 0.9 18.3 5-1.9 9.6-3.5 13.9-5.4z"/>
		<path class="s1" d="m799 639.4c0-5.8-0.6-11.6-0.9-18.3-5 2.3-9.4 4.2-13.7 6.3q-0.1 0-0.1 0.1-0.1 0.1-0.2 0.1 0 0.1-0.1 0.2-0.1 0-0.1 0.1-0.1 0.1-0.1 0.1-0.1 0.1-0.2 0.2 0 0.1-0.1 0.1 0 0.1-0.1 0.2-0.1 0.1-0.1 0.2 0 0-0.1 0.1 0 0.1 0 0.2-0.1 0.1-0.1 0.2 0 0.1 0 0.2-0.1 0.1-0.1 0.1 0 0.1 0 0.2 0 0.1 0 0.2c0.1 6.3 0.4 12.7 0.7 19.5 4.9-2.1 9-3.8 13-5.9q0.5-0.4 0.9-0.8 0.1-0.1 0.2-0.2 0.1-0.2 0.2-0.3 0.1-0.1 0.1-0.2 0.1-0.2 0.2-0.3 0.1-0.1 0.1-0.3 0.1-0.1 0.2-0.2 0-0.2 0.1-0.3 0.1-0.2 0.1-0.3 0-0.1 0.1-0.3 0-0.1 0-0.3 0.1-0.1 0.1-0.3 0-0.1 0-0.3z"/>
		<path class="s1" d="m816.3 895.4c-0.5-7.7-1-15-1.4-22.7l-14.8 2.6c0.6 7.5 1.1 14.7 1.6 22.5z"/>
		<path class="s1" d="m793.5 867.9c-0.4-7-1.1-14-1.7-21.6l-13.8 2.8c0.6 8 1.1 15.3 1.7 23.1 4.2-0.7 8-1.2 11.8-2 0.8-0.2 2.1-1.5 2-2.3z"/>
		<path class="s1" d="m869.9 632q-5.3-10.6-10.6-21.2c-0.1-0.2-0.6-0.1-0.8-0.4-1.4-1.6-3.3-3.1-4.3-5.1-1.3-2.7-2.4-3-4.8-1.5-3.4 2.1-7 3.8-11.1 5.9l30.2 23.3z"/>
		<path class="s1" d="m538.8 963.1l13.7 1.3v-22.5l-13.7-2.3z"/>
		<path class="s1" d="m692.5 966.9c1.2-0.2 3.1-1.8 3-2.8-0.1-6.7-0.6-13.4-1-20.4l-13.2 1.2v22q1.4 0.1 2.8 0.1 1.4 0.1 2.8 0.1 1.4 0 2.8-0.1 1.4 0 2.8-0.1z"/>
		<path class="s1" d="m742.9 648.4c0.3 6 0.8 12 1.4 18.6 4.6-2 8.8-3.7 12.8-5.7q0.1-0.1 0.2-0.1 0-0.1 0.1-0.1 0.1-0.1 0.2-0.2 0 0 0.1-0.1 0.1-0.1 0.2-0.2 0-0.1 0.1-0.1 0.1-0.1 0.2-0.2 0-0.1 0.1-0.2 0.1-0.1 0.1-0.2 0-0.1 0.1-0.2 0-0.1 0.1-0.2 0-0.1 0-0.2 0-0.1 0.1-0.2 0-0.1 0-0.2 0.1-0.1 0.1-0.2 0-0.1 0-0.2c-0.1-6.1-0.5-12.3-0.8-19-5 2.3-9.2 4-13.4 6.1l-0.6 0.6q-0.1 0.1-0.2 0.1-0.1 0.1-0.1 0.2-0.1 0-0.2 0.1 0 0.1-0.1 0.2 0 0.1-0.1 0.2 0 0.1-0.1 0.1 0 0.1 0 0.2-0.1 0.1-0.1 0.2-0.1 0.1-0.1 0.2 0 0.1-0.1 0.2 0 0.2 0 0.3 0 0.1 0 0.2z"/>
		<path class="s1" d="m795.7 898.8c-0.6-7.6-1.1-14.9-1.6-22.5l-14 2.5c0.5 7.7 1 14.8 1.5 22.3z"/>
		<path class="s1" d="m797.7 928.1c-0.5-7.8-1-15.1-1.6-22.8l-14 2.3c0.5 7.5 1 14.6 1.6 22.1z"/>
		<path class="s1" d="m807.4 646q-0.1 0-0.2 0.1-0.1 0.1-0.2 0.1 0 0.1-0.1 0.2-0.1 0.1-0.1 0.2-0.1 0.1-0.1 0.1-0.1 0.1-0.2 0.2 0 0.1-0.1 0.1 0 0.1-0.1 0.2l-0.4 0.8q0 0.1 0 0.2-0.1 0.1-0.1 0.2 0 0.2 0 0.3 0 0.1 0 0.2c0.4 7 1 14 1.6 21.7 4-1.5 7.6-2.9 11.2-4.4q0.1 0 0.1-0.1 0.1 0 0.2-0.1 0 0 0.1-0.1 0.1 0 0.1-0.1 0.1-0.1 0.1-0.1 0.1-0.1 0.1-0.1 0.1-0.1 0.1-0.2 0.1 0 0.1-0.1 0.1-0.1 0.1-0.1 0.1-0.1 0.1-0.2 0-0.1 0.1-0.1 0-0.1 0-0.2 0-0.1 0-0.1 0.1-0.1 0.1-0.2 0-0.1 0-0.1 0-0.1 0-0.2c-0.6-7.4-1.3-14.8-2-22.8-4 1.8-7.3 3.1-10.5 4.7z"/>
		<path class="s1" d="m552.1 889c-4.2-1-8.4-1.7-13-2.5v21.4l13.9 2.1c0.3-6.4 0.6-12.3 0.7-18.3q0-0.4-0.2-0.8-0.1-0.4-0.3-0.7-0.2-0.4-0.5-0.7-0.3-0.3-0.6-0.5z"/>
		<path class="s1" d="m760.3 686.1c-0.1-6-0.6-12-1-18.6l-14.6 6.5c0.5 6.6 1 13 1.5 20.1 4.3-1.6 8.2-2.9 11.9-4.6l0.8-0.6q0.1-0.1 0.2-0.2 0.1-0.1 0.2-0.2 0.1-0.1 0.1-0.2 0.1-0.1 0.2-0.2 0.1-0.1 0.1-0.2 0.1-0.2 0.2-0.3 0-0.1 0.1-0.2 0-0.2 0.1-0.3 0-0.1 0.1-0.2 0-0.2 0-0.3 0.1-0.1 0.1-0.2 0-0.2 0-0.3z"/>
		<path class="s1" d="m836 892.1c-0.8-7.6-1.5-14.9-2.2-22.7l-13 2.4c0.6 7.9 1.1 15.2 1.7 22.6z"/>
		<path class="s1" d="m830.8 838.9l-11.9 2.3c0.5 8 1 15.7 1.5 24l12.8-2.3c-0.8-8.3-1.6-16-2.4-24z"/>
		<path class="s1" d="m773 902.5c1-0.2 2.5-1.6 2.5-2.4-0.4-6.5-1-13.1-1.6-20.2l-13 2.2c0.4 7.5 0.8 14.5 1.2 22.1 4.2-0.6 7.6-1 10.9-1.7z"/>
		<path class="s1" d="m760.4 717q0.1 0 0.1-0.1 0.1 0 0.2-0.1 0 0 0.1-0.1 0 0 0.1-0.1l0.4-0.4q0-0.1 0.1-0.1 0-0.1 0.1-0.2 0-0.1 0-0.1 0.1-0.1 0.1-0.2 0-0.1 0.1-0.1 0-0.1 0-0.2 0.1-0.1 0.1-0.1 0-0.1 0-0.2c-0.2-6.4-0.6-12.7-0.9-19.5-4.4 1.6-8.2 3-11.9 4.6q-0.1 0-0.2 0.1-0.1 0.1-0.2 0.1-0.1 0.1-0.1 0.2-0.1 0-0.2 0.1-0.1 0.1-0.2 0.1-0.1 0.1-0.1 0.2-0.1 0.1-0.2 0.2 0 0.1-0.1 0.2-0.1 0.1-0.1 0.2-0.1 0.1-0.2 0.2 0 0.1-0.1 0.2 0 0.1-0.1 0.2-0.1 0.4-0.2 0.8c0.2 6.1 0.7 12.2 1.2 18.8 4.4-1.8 8.3-3.2 12.2-4.7z"/>
		<path class="s1" d="m760.6 875.6l13-2.4c-0.6-7.9-1.1-15.2-1.6-23l-12.6 2.4c0.4 7.8 0.8 15.2 1.2 23z"/>
		<path class="s1" d="m777.6 930.2c-0.6-7.6-1.1-14.5-1.7-21.7l-13.5 2.4c0.4 6.9 0.8 13.5 1.3 20.8z"/>
		<path class="s1" d="m746.3 939.9l-11.5 1.2v23.3l12.8-0.7c-0.4-8.4-0.9-15.9-1.3-23.8z"/>
		<path class="s1" d="m777.6 682q0.1-0.1 0.2-0.1 0.1-0.1 0.2-0.2 0.1 0 0.2-0.1 0-0.1 0.1-0.2 0.2-0.3 0.5-0.7 0.1-0.1 0.1-0.2 0 0 0.1-0.1 0-0.1 0-0.2 0.1-0.1 0.1-0.2 0-0.1 0-0.2 0.1-0.1 0.1-0.2 0-0.2 0-0.3 0-0.1 0-0.2c-0.2-6.5-0.7-13-1.1-20-4.1 1.8-7.7 3.3-11.1 5q-0.2 0.1-0.3 0.2-0.2 0.2-0.3 0.3-0.1 0.1-0.3 0.3-0.1 0.1-0.2 0.3l-0.4 0.6q0 0.1 0 0.2-0.1 0.1-0.1 0.2 0 0.1 0 0.2 0 0.1 0 0.2c0.2 6.3 0.7 12.7 1.1 19.7 4-1.6 7.6-2.8 11.1-4.3z"/>
		<path class="s1" d="m809.1 677q-0.1 0-0.1 0.1-0.1 0-0.2 0.1 0 0-0.1 0.1-0.1 0-0.1 0.1-0.1 0-0.1 0.1-0.1 0-0.2 0.1 0 0-0.1 0.1 0 0-0.1 0.1 0 0.1-0.1 0.1 0 0.1-0.1 0.2 0 0.1 0 0.1-0.1 0.1-0.1 0.2l-0.2 0.6c0.4 6.3 0.9 12.6 1.4 19.3 4.2-1.6 7.7-2.8 11.1-4.3q0.5-0.3 0.9-0.6l0.6-0.8q0.1-0.1 0.1-0.2 0.1-0.1 0.2-0.2 0-0.1 0.1-0.3 0.1-0.1 0.1-0.2 0.1-0.1 0.1-0.2 0-0.1 0.1-0.2 0-0.2 0-0.3 0-0.1 0-0.2c-0.3-6-1-11.8-1.5-18.2-4.3 1.5-8 2.9-11.7 4.4z"/>
		<path class="s1" d="m657.9 862.7c-2.8 0.7-4.3-0.1-6.2-2.1-3.8-4-7.5-4.2-11.8-1.1-2.9 2-5.4 5.1-8.6 6.3-3.6 1.3-6.1 3.1-6.9 7.4l39-7.3q0.1-0.6 0.2-1.2c-1.9-0.7-4.1-2.5-5.7-2z"/>
		<path class="s1" d="m780.1 738.3q0.1 0 0.2-0.1 0.1-0.1 0.2-0.1 0.1-0.1 0.1-0.2 0.1 0 0.2-0.1 0.1-0.1 0.2-0.1 0.1-0.1 0.1-0.2 0.1-0.1 0.2-0.2 0-0.1 0.1-0.2 0.1-0.1 0.1-0.2 0.1-0.1 0.2-0.2 0-0.1 0.1-0.2 0-0.1 0.1-0.2 0.1-0.4 0.2-0.9c-0.1-6.2-0.5-12.4-0.9-19.4-4.2 1.6-7.6 2.8-10.8 4.2-0.8 0.4-1.9 1.4-1.9 2.2 0.2 6.4 0.5 12.7 0.8 19.6 4.1-1.3 7.5-2.3 10.8-3.7z"/>
		<path class="s1" d="m630.8 950.2l33.3-2v-8.2l-33.3 2.2z"/>
		<path class="s1" d="m763.4 743.9c-0.4-6.9-0.8-13.4-1.2-20.7-4.2 1.6-8 3-11.7 4.6q-0.1 0-0.2 0.1 0 0-0.1 0.1-0.1 0-0.2 0.1 0 0-0.1 0.1-0.1 0.1-0.1 0.1-0.1 0.1-0.1 0.1-0.1 0.1-0.1 0.2-0.1 0-0.1 0.1-0.1 0.1-0.1 0.2-0.1 0.1-0.1 0.1-0.1 0.1-0.1 0.2-0.1 0.1-0.1 0.2-0.1 0.3-0.2 0.7c0.3 5.8 0.7 11.7 1.2 18.1z"/>
		<path class="s1" d="m777.6 646c-0.8-4.6-0.6-9.4-0.9-15-4.1 1.9-7.5 3.3-10.8 5q-0.1 0.1-0.2 0.2-0.1 0-0.2 0.1-0.1 0.1-0.1 0.2-0.1 0.1-0.2 0.2-0.1 0.1-0.2 0.2 0 0.1-0.1 0.2-0.1 0.1-0.1 0.2-0.1 0.1-0.1 0.2 0 0.1-0.1 0.2 0 0.1-0.1 0.2 0 0.1 0 0.2-0.1 0.1-0.1 0.2 0 0.1 0 0.2-0.1 0.2-0.1 0.3 0 0.1 0 0.2 0 0.2 0 0.3c0.1 6 0.4 11.9 0.7 18.4 2.7-1.1 4.9-2.3 7.1-3 4.2-1.2 6.4-3.5 5.5-8.7z"/>
		<path class="s1" d="m778.9 709.8q0.1 0 0.2-0.1 0.1 0 0.2-0.1 0 0 0.1-0.1 0.1 0 0.2-0.1l0.5-0.5 0.4-0.6q0.1-0.4 0.2-0.7c-0.2-6.3-0.6-12.5-0.9-19.4-4 1.5-7.3 2.5-10.4 3.9l-0.8 0.6q-0.1 0.1-0.2 0.2-0.1 0.1-0.2 0.2-0.1 0.1-0.2 0.2 0 0.1-0.1 0.2-0.1 0.1-0.1 0.2-0.1 0.1-0.2 0.2 0 0.1-0.1 0.2 0 0.1-0.1 0.2 0 0.1-0.1 0.2 0 0.2-0.1 0.3 0 0.1 0 0.2-0.1 0.2-0.1 0.3c0.1 6 0.5 12.1 0.9 18.8 4-1.6 7.5-2.8 10.9-4.3z"/>
		<path class="s1" d="m680.1 913.3l13.7-1.9c-0.3-6.7-0.6-13-0.9-19.5l-13.8 1.8c0.4 6.8 0.6 13 1 19.6z"/>
		<path class="s1" d="m538.9 933.1l13.9 2.1v-18.7l-13.9-1.9z"/>
		<path class="s1" d="m694.6 937.4c-0.2-6.5-0.5-12.6-0.8-19.4l-14 1.8c0.3 6.4 0.7 12.4 1 18.5z"/>
		<path class="s1" d="m692 865.6l-12.8 2.3v19.3l13.8-1.9c-0.4-6.7-0.7-12.9-1-19.7z"/>
		<path class="s1" d="m821.6 614.7c0.9 7.8 1.4 15.7 2.1 23.5 0.7 8.3 1.6 16.5 2.4 24.8 3.3-0.2 4.4-1.4 4-4.9-0.8-7.3-0.9-14.7-1.4-22.1-0.7-9-1.4-18.1-2.1-27.2-3.9 0.1-5.5 1.7-5 5.9z"/>
		<path class="s1" d="m631.2 678.2c-2 2.5-3.9 5.6-6.5 6.9-4.2 2.3-4.8 5.5-4.3 10.1l29.7-13.6c-3.8-1.9-6.8-3-9.4-4.8-3.6-2.5-6.6-2.2-9.5 1.4z"/>
		<path class="s1" d="m806 617.5c-0.8 0.4-1.9 1.5-1.8 2.2 0.3 6.5 0.8 13 1.3 20 3.8-1.7 7-3 10-4.6q0.1 0 0.2-0.1 0.1 0 0.1-0.1 0.1-0.1 0.2-0.1 0-0.1 0.1-0.2 0.1-0.1 0.1-0.2 0.1 0 0.2-0.1 0-0.1 0.1-0.2 0.1-0.1 0.1-0.2l0.4-0.8q0-0.1 0-0.2 0.1-0.1 0.1-0.2 0-0.1 0-0.2 0-0.1 0-0.2c-0.4-6.2-1-12.4-1.6-19.1-3.5 1.6-6.6 2.8-9.5 4.3z"/>
		<path class="s1" d="m746 933.7c-0.4-7.5-0.8-14.6-1.2-22-3.5 0.4-6 0.5-8.5 0.9-0.9 0.2-2.5 1.2-2.5 1.9-0.2 6.5-0.1 13-0.1 19.8z"/>
		<path class="s1" d="m902.2 651.6c-0.8-0.2-1.3-1.6-1.8-2.5-2.1-4-4.1-8.1-6.3-12.4l-15.1 4.3 28.6 22c-1.1-4.4 0.1-9.7-5.4-11.4z"/>
		<path class="s1" d="m529.8 962.1h2.3v-108.1h-0.8z"/>
		<path class="s1" d="m726.1 965c1-0.2 2.7-1.7 2.7-2.6-0.1-6.9-0.6-13.7-0.9-20.4h-10.5c0.3 8.1 0.7 15.6 1 23.1 3.1 0 5.4 0.3 7.7-0.1z"/>
		<path class="s1" d="m711.5 942.6l-9.9 0.8v22.3h9.9z"/>
		<path class="s1" d="m723.5 735.1l-0.8 0.6q-0.1 0.1-0.2 0.2-0.1 0.1-0.1 0.2-0.1 0.1-0.2 0.2 0 0.1-0.1 0.2-0.1 0.1-0.1 0.2-0.1 0.2-0.2 0.3 0 0.1-0.1 0.2 0 0.2-0.1 0.3 0 0.1-0.1 0.2 0 0.2 0 0.3-0.1 0.1-0.1 0.2 0 0.2 0 0.3c0.1 6.1 0.5 12.2 0.9 18.7 3.2-1 6.2-1.8 9.2-3q0.1 0 0.2-0.1 0.1 0 0.2-0.1 0.1 0 0.1-0.1 0.1 0 0.2-0.1 0.1-0.1 0.1-0.1 0.1-0.1 0.2-0.2 0-0.1 0.1-0.1 0-0.1 0.1-0.2 0.3-0.4 0.5-0.7c0.1-0.2 0.1-0.6 0.2-0.9-0.3-6.5-0.9-13-1.5-20q-1 0.4-2.1 0.8-1.1 0.4-2.1 0.8c-0.7 0.3-1.4 0.6-2.1 0.9-0.7 0.3-1.4 0.7-2.1 1z"/>
		<path class="s1" d="m726.2 859.1c-3.4 0.6-6.5 1-9.5 1.8q-0.1 0-0.2 0.1 0 0-0.1 0-0.1 0.1-0.2 0.1 0 0.1-0.1 0.1-0.1 0.1-0.1 0.1-0.1 0.1-0.2 0.2 0 0.1-0.1 0.1 0 0.1-0.1 0.2l-0.4 0.6q0 0.1 0 0.2-0.1 0.1-0.1 0.1 0 0.1 0 0.2 0 0.1 0 0.2c0 6.3 0.3 12.6 0.5 19.3l10.6-1.5z"/>
		<path class="s1" d="m701.6 665.3q-0.1 0.1-0.2 0.1-0.1 0.1-0.2 0.2-0.1 0.1-0.2 0.2 0 0.1-0.1 0.2-0.1 0.1-0.1 0.1 0 0.1-0.1 0.1 0 0.1 0 0.2-0.1 0-0.1 0.1 0 0.1 0 0.1-0.1 0.1-0.1 0.1 0 0.1 0 0.2 0 0 0 0.1c0.1 5.7 0.4 11.4 0.6 17.5 4-1.6 7.3-2.8 10.4-4.3l0.8-0.6q0.1-0.1 0.2-0.2 0-0.1 0.1-0.1 0.1-0.1 0.2-0.2 0-0.1 0.1-0.2 0.1-0.1 0.1-0.2 0.1-0.1 0.1-0.2 0.1-0.1 0.1-0.2 0.1-0.1 0.1-0.2 0-0.1 0.1-0.2 0-0.1 0.1-0.2 0-0.2 0-0.3 0.1-0.1 0.1-0.2c-0.1-5.5-0.5-10.9-0.9-17-4.1 1.8-7.6 3.4-11.1 5.1z"/>
		<path class="s1" d="m704.7 690c-2.5 0.8-3.5 2.4-3.3 5.2 0.5 5 0.7 10 1.1 15.7 3.7-1.4 6.8-2.4 9.8-3.8q0.1 0 0.2-0.1 0.1-0.1 0.2-0.1 0.1-0.1 0.1-0.2 0.1 0 0.2-0.1 0.1-0.1 0.2-0.2 0.1 0 0.2-0.1 0.1-0.1 0.1-0.2 0.1-0.1 0.2-0.2 0.1-0.1 0.1-0.2 0.1-0.1 0.2-0.2 0-0.1 0.1-0.2 0-0.1 0.1-0.2 0.1-0.4 0.2-0.9c-0.1-5.7-0.5-11.5-0.9-17.6-3.2 1.2-6 2.4-8.8 3.4z"/>
		<path class="s1" d="m222.6 1045.6c-9.5-4.2-56.4-4-63.6 0.5 20.9-0.5 41.9 3.7 63.6-0.5z"/>
		<path class="s1" d="m705.9 741.9c-0.8 0.4-1.8 1.4-1.8 2.2 0.1 6.1 0.4 12.3 0.6 18.8l1.8-0.6q0.2-0.1 0.4-0.1 0.3-0.1 0.5-0.2 0.2 0 0.4-0.1 0.3 0 0.5-0.1l1.8-0.6 1.8-0.4c3.4-0.6 4.2-2.4 4-5.8-0.3-5.3-0.1-10.7-0.1-17-3.9 1.5-7 2.6-9.9 3.9z"/>
		<path class="s1" d="m869.4 824.3c-1-1-3.5-2.2-3.7-1.9-3 4-9.8 3.5-10.5 10.2l25.9 9.8 0.8-0.6q-0.6-1.2-1.2-2.3-0.7-1.1-1.3-2.3-0.7-1.1-1.4-2.2-0.7-1.1-1.4-2.2-0.2-0.3-0.4-0.6-0.2-0.3-0.4-0.6-0.2-0.3-0.5-0.5-0.2-0.3-0.4-0.6-0.2-0.3-0.4-0.6-0.2-0.2-0.5-0.5-0.2-0.2-0.4-0.5-0.3-0.3-0.5-0.5-0.9-1.1-1.8-2.1-1-1.1-1.9-2z"/>
		<path class="s1" d="m728.3 934.7c-0.4-7.2-0.7-13.9-1-20.9l-10.8 1.5c0.3 7.2 0.6 13.7 0.9 20.6z"/>
		<path class="s1" d="m726.6 907.2v-19.8l-11 1.4c0.3 6.9 0.6 13.2 0.9 20z"/>
		<path class="s1" d="m741.5 856.1q-0.9 0.2-1.7 0.3c-0.5 0.1-1.2 0.2-1.8 0.3q-0.9 0.2-1.7 0.4l-1.8 0.4c-0.9 0.2-2.3 1.3-2.3 2 0.1 6.7 0.4 13.5 0.7 20.5l10-1.5c-0.5-7.4-0.9-14.7-1.4-22.4z"/>
		<path class="s1" d="m744.4 905.1c-0.4-6.8-0.8-13.2-1.3-20l-2 0.2-2 0.2q-1 0.2-2.1 0.3l-2 0.4q-0.1 0-0.2 0.1-0.1 0-0.2 0.1-0.1 0-0.1 0.1-0.1 0-0.2 0.1-0.1 0.1-0.2 0.1 0 0.1-0.1 0.1-0.1 0.1-0.2 0.2 0 0-0.1 0.1-0.1 0.1-0.1 0.2-0.1 0.1-0.1 0.1-0.1 0.1-0.1 0.2-0.1 0.1-0.1 0.2 0 0.1-0.1 0.2 0 0.1-0.1 0.1 0 0.1 0 0.2-0.1 0.1-0.1 0.2c-0.1 5.9-0.1 11.8-0.1 18.2z"/>
		<path class="s1" d="m740.6 703.7c-4.2-0.1-4.3 2.4-4.1 5.4 1 13.9 2 27.9 2.9 42.2 3.4-0.2 5-1 4.5-5.1-0.9-6.9-1-13.8-1.5-20.7-0.6-7.3-1.2-14.5-1.8-21.8z"/>
		<path class="s1" d="m708.6 862.3l-9.8 2 0.1 20.3 9.7-1.5z"/>
		<path class="s1" d="m704.1 717.3q-0.1 0-0.1 0.1-0.1 0-0.2 0.1 0 0-0.1 0.1-0.1 0-0.1 0.1-0.1 0.1-0.1 0.1-0.1 0.1-0.1 0.1-0.1 0.1-0.1 0.2-0.1 0-0.1 0.1-0.1 0.1-0.1 0.1 0 0.1-0.1 0.1 0 0.1 0 0.2-0.1 0-0.1 0.1 0 0.1 0 0.2-0.1 0.1-0.1 0.1 0 0.1 0 0.2 0 0.1 0 0.2c0.2 5.3 0.4 10.5 0.7 16.4 3.7-1.4 6.9-2.6 10-4q0.1-0.1 0.2-0.1 0-0.1 0.1-0.1 0.1-0.1 0.2-0.2 0 0 0.1-0.1 0.1-0.1 0.1-0.1 0.1-0.1 0.2-0.2 0 0 0-0.1 0.1-0.1 0.1-0.2l0.4-0.6q0-0.1 0-0.2 0.1-0.1 0.1-0.2 0-0.1 0-0.2 0-0.1 0-0.2c0.1-5.1 0.1-10.2 0.1-16.4-4.4 1.8-7.8 3-11 4.4z"/>
		<path class="s1" d="m710.5 915.9l-9.8 1.4v19.7l9.8-0.8z"/>
		<path class="s1" d="m709.7 889.6l-9.9 1.3v19.8l9.9-1.2z"/>
		<path class="s1" d="m679.6 675.4c-3.5 1.5-6.8 2.9-10 4.5q-0.1 0-0.1 0.1-0.1 0.1-0.2 0.1 0 0.1-0.1 0.2-0.1 0-0.1 0.1l-0.4 0.6q0 0.1-0.1 0.2 0 0.1-0.1 0.2 0 0.1 0 0.2-0.1 0.1-0.1 0.2 0 0.1 0 0.2-0.1 0.1-0.1 0.1 0 0.1 0 0.2 0 0.1 0 0.2c0.2 4.9 0.6 9.9 1 15.4q0.9-0.5 1.8-0.9 1-0.4 1.9-0.8c0.6-0.3 1.2-0.4 1.9-0.7 0.7-0.3 1.2-0.4 1.9-0.6 3.3-0.9 4.1-3 3.7-6.3-0.4-4-0.6-8.1-0.9-13.2z"/>
		<path class="s1" d="m669.3 704.8c0.4 6.2 0.6 12 1 18.4l2.2-0.8q1.1-0.4 2.1-0.8l2.2-0.8q1.1-0.5 2.1-0.9 0.1-0.1 0.2-0.1 0.1-0.1 0.2-0.2 0.1-0.1 0.2-0.2 0.1-0.1 0.2-0.2 0.1-0.1 0.2-0.2 0.1-0.1 0.1-0.2 0.1-0.1 0.2-0.2 0-0.1 0.1-0.2 0.3-0.5 0.5-0.9l0.2-1c0.2-5.2 0.1-10.4 0.1-16.3z"/>
		<path class="s1" d="m736.9 649.7c-3.5 0-4.2 1.8-3.9 4.9 0.7 8.5 1.1 16.9 1.7 25.4 0.4 5.8 0.9 11.7 1.3 17.5 3.7 0 4.2-1.9 4-4.7-1.1-14.3-2-28.5-3.1-43.1z"/>
		<path class="s1" d="m687.9 754.1c0.6 4.5 0.6 9 0.9 14q1-0.2 2-0.5l2-0.6q1-0.4 2-0.7c0.7-0.2 1.3-0.5 1.9-0.7q0.1 0 0.2-0.1 0.1-0.1 0.2-0.1 0.1-0.1 0.1-0.2 0.1 0 0.2-0.1 0.1-0.1 0.1-0.1 0.1-0.1 0.2-0.2 0-0.1 0.1-0.1 0-0.1 0.1-0.2 0.1-0.1 0.1-0.2 0.1-0.1 0.1-0.2 0.1-0.1 0.1-0.2 0.1-0.1 0.1-0.2 0-0.1 0.1-0.2 0-0.1 0-0.2 0-0.1 0.1-0.2 0-0.1 0-0.2c0.2-5.7 0.1-11.5 0.1-18-2.8 1-4.3 1.6-5.9 2-3.8 0.8-5.3 3-4.8 7.2z"/>
		<path class="s1" d="m671.8 756.7c-0.2 5.4-0.1 10.8-0.1 17.2l10.4-3.6v-19c-3.2 1.2-5.9 2.1-8.4 3.3q-0.1 0-0.2 0.1-0.1 0-0.2 0-0.1 0.1-0.1 0.1-0.1 0-0.2 0.1-0.1 0-0.1 0.1-0.1 0.1-0.2 0.1 0 0.1-0.1 0.2-0.1 0-0.1 0.1-0.1 0.1-0.1 0.1-0.1 0.1-0.2 0.2 0 0.1-0.1 0.1 0 0.1-0.1 0.2-0.1 0.3-0.2 0.7z"/>
		<path class="s1" d="m672.3 729.5q-0.1 0.1-0.2 0.1-0.1 0.1-0.1 0.2-0.1 0-0.2 0.1 0 0.1-0.1 0.2-0.1 0.1-0.1 0.2-0.1 0-0.2 0.1 0 0.1-0.1 0.2-0.1 0.1-0.1 0.2-0.1 0.1-0.1 0.2 0 0-0.1 0.1 0 0.1 0 0.2-0.1 0.1-0.1 0.2l-0.2 0.8c-0.1 5.1 0 10.1 0 15.5 10.4-1.5 11.2-2.6 10.8-12.3-0.1-3 0-5.9 0-9.6-3.5 1.3-6.4 2.3-9.2 3.6z"/>
		<path class="s1" d="m625.7 779.6v-9.2c-3.5 1.3-6.3 2.2-9 3.4q-0.2 0.1-0.4 0.3-0.1 0.1-0.3 0.3-0.2 0.2-0.3 0.3-0.2 0.2-0.3 0.4-0.1 0.1-0.1 0.2-0.1 0.1-0.1 0.2-0.1 0.1-0.1 0.2-0.1 0.1-0.1 0.2 0 0.1-0.1 0.2 0 0.1-0.1 0.2 0 0.2 0 0.3-0.1 0.1-0.1 0.2c-0.2 5-0.1 10-0.1 15.1 11.1-2 11.1-2 11.1-12.3z"/>
		<path class="s1" d="m615.6 951.4h-7.6v23.8h7.6z"/>
		<path class="s1" d="m180.7 742.8c0.8-7.7 0.2-8.5-7.8-8-0.6 7.2-1.2 14.5-1.8 22.2l8.2 1.6c0.5-5.6 0.8-10.7 1.4-15.8z"/>
		<path class="s1" d="m830.7 669.2c-3.4 0-4 1.6-3.7 4.3 1.3 14.8 2.6 29.6 3.9 44.5q0.1 0.3 0.2 0.7 0 0.1 0.1 0.1 0 0.1 0.1 0.2 0 0.1 0 0.1 0.1 0.1 0.1 0.2l0.4 0.6q0 0.1 0.1 0.1 0 0.1 0.1 0.2 0 0 0.1 0.1 0 0 0.1 0.1 0 0.1 0.1 0.2 0 0.1 0.1 0.2 0.1 0.1 0.1 0.2 0.1 0.1 0.2 0.2l0.2-0.4c0.5-1 1.2-2 1.1-2.9q-0.9-16.2-2.1-32.4c-0.3-5.5-0.8-10.9-1.2-16.3z"/>
		<path class="s1" d="m832.7 721.2q-0.1-0.1-0.1-0.2-0.1-0.1-0.2-0.2 0-0.1-0.1-0.2 0-0.1-0.1-0.2 0.1 0.1 0.1 0.2 0.1 0.1 0.1 0.2 0.1 0.1 0.2 0.2 0 0.1 0.1 0.2z"/>
		<path class="s1" d="m639.5 784.3q0.1-0.1 0.2-0.1 0.1-0.1 0.2-0.1 0.1-0.1 0.2-0.2 0.1 0 0.2-0.1l0.6-0.6q0.1-0.1 0.1-0.2 0.1-0.1 0.2-0.2 0-0.1 0.1-0.2 0-0.1 0.1-0.2 0.2-0.4 0.4-0.9c0.2-5.4 0.1-10.8 0.1-17.1q-0.3 0.1-0.5 0.2-0.3 0-0.6 0.1-0.2 0.1-0.5 0.2-0.2 0.1-0.5 0.2-1 0.4-2.1 0.8l-2 0.8q-1 0.4-2 0.9-0.1 0-0.2 0.1-0.1 0.1-0.2 0.1-0.1 0.1-0.1 0.2-0.1 0-0.2 0.1-0.1 0.1-0.2 0.2-0.1 0-0.2 0.1-0.1 0.1-0.1 0.2-0.1 0.1-0.2 0.2-0.2 0.4-0.4 0.8-0.1 0.1-0.1 0.2 0 0.1-0.1 0.2 0 0.2 0 0.3-0.1 0.1-0.1 0.2c0 5.3 0.4 10.5 0.7 16.1q0 0 0 0l5.4-1.6q0.2-0.1 0.5-0.2 0.2 0 0.4-0.1 0.2-0.1 0.5-0.2 0.2-0.1 0.4-0.2z"/>
		<path class="s1" d="m723 682.5c-1.3 0.9-2.8 2.5-2.9 3.8-0.3 5.6-0.2 11.3-0.2 17.6l2-0.6q1-0.3 2-0.7c0.7-0.3 1.3-0.4 2-0.7q1-0.4 1.9-0.8l0.8-0.6q0.1-0.1 0.2-0.2 0-0.1 0.1-0.1 0.1-0.1 0.2-0.2 0-0.1 0.1-0.2 0.1-0.1 0.1-0.2 0.1-0.1 0.1-0.2 0.1-0.1 0.1-0.3 0.1-0.1 0.1-0.2 0.1-0.1 0.1-0.2 0-0.1 0.1-0.2 0-0.2 0-0.3 0-0.1 0-0.2c-0.2-5.8-0.7-11.5-1.1-17.9-2.2 0.9-4.2 1.4-5.7 2.4z"/>
		<path class="s1" d="m624.9 731c-0.1-2.4 0-4.7 0-7.9-3.5 1.3-6.3 2.3-9 3.6q-0.1 0-0.2 0.1-0.1 0.1-0.2 0.1-0.1 0.1-0.1 0.2-0.1 0-0.2 0.1-0.1 0.1-0.1 0.1-0.1 0.1-0.2 0.2 0 0.1-0.1 0.1 0 0.1-0.1 0.2-0.1 0.1-0.1 0.2-0.1 0.1-0.1 0.2-0.1 0.1-0.1 0.2-0.1 0.1-0.1 0.2-0.1 0.1-0.1 0.2 0 0.1-0.1 0.2 0 0.1-0.1 0.2 0 0.1 0 0.2c-0.1 4.9-0.1 9.8-0.1 15 11.3-2.8 11.3-2.8 11-13.4z"/>
		<path class="s1" d="m722.2 710.3l-0.6 0.4-0.4 0.6q-0.1 0.1-0.1 0.2 0 0-0.1 0.1 0 0.1 0 0.2-0.1 0.1-0.1 0.2-0.1 0.3-0.2 0.7c0.1 5.2 0.4 10.3 0.6 16q1-0.3 2.1-0.7 1-0.4 2-0.8 1.1-0.4 2.1-0.8 1-0.4 2-0.9 0.1 0 0.2-0.1 0.1 0 0.2-0.1 0 0 0.1-0.1 0.1 0 0.2-0.1 0.1-0.1 0.2-0.1 0.1-0.1 0.1-0.2 0.1 0 0.2-0.1 0-0.1 0.1-0.2 0.1-0.1 0.1-0.2 0.1-0.1 0.2-0.2 0-0.1 0.1-0.2 0-0.1 0.1-0.2 0.1-0.1 0.1-0.2 0 0 0.1-0.1 0-0.1 0-0.2 0-0.1 0-0.2c-0.2-5.2-0.7-10.3-1.1-15.8-3 1.1-5.7 1.9-8.2 3.1z"/>
		<path class="s1" d="m625.4 753.2c-0.1-1.7-0.2-3.4-0.4-5.7-3.1 1.2-6 2-8.6 3.4q-0.1 0.1-0.2 0.1-0.1 0.1-0.2 0.2-0.1 0-0.2 0.1-0.1 0.1-0.2 0.2-0.1 0.1-0.2 0.2 0 0.1-0.1 0.1-0.1 0.1-0.2 0.2 0 0.1-0.1 0.2l-0.4 0.8q0 0.1-0.1 0.2 0 0.2 0 0.3-0.1 0.1-0.1 0.2 0 0.2 0 0.3c-0.3 4.3-0.1 8.7-0.1 13.2 11.8-2.2 11.8-2.3 11.1-14z"/>
		<path class="s1" d="m613.5 707.4c-0.1 4.2-0.1 8.4-0.1 13.1 3.7-1.4 6.7-2.3 9.5-3.7q0.1-0.1 0.2-0.2 0.1 0 0.2-0.1 0.1-0.1 0.1-0.2 0.1-0.1 0.2-0.2 0.1-0.1 0.1-0.2 0.1 0 0.2-0.1 0-0.1 0.1-0.2 0.1-0.1 0.1-0.2 0.1-0.1 0.1-0.2 0.1-0.1 0.1-0.2 0.1-0.1 0.1-0.3 0.1-0.1 0.1-0.2 0.1-0.1 0.1-0.2 0-0.1 0.1-0.2 0-0.2 0-0.3 0-0.1 0-0.2c0.2-4 0.1-8.1 0.1-13.3-3.9 1.9-7.1 3.2-10.3 4.8q-0.1 0.1-0.1 0.1-0.1 0.1-0.1 0.1-0.1 0.1-0.1 0.2-0.1 0-0.1 0.1 0 0.1-0.1 0.1 0 0.1-0.1 0.2 0 0.1 0 0.1-0.1 0.1-0.1 0.2 0 0.1-0.1 0.1 0 0.1 0 0.2-0.1 0.1-0.1 0.1 0 0.1 0 0.2 0 0.1 0 0.1-0.1 0.1-0.1 0.2 0 0.1 0 0.1 0 0.1 0 0.2z"/>
		<path class="s1" d="m168 790.2l-1.6 19.3 8.6 1.3c0.5-5 0.8-9.8 1.5-14.6 0.5-3.5-0.3-5.4-3.9-5.5-1.4-0.1-2.8-0.3-4.6-0.5z"/>
		<path class="s1" d="m689 723.1q-0.1 0.1-0.2 0.1 0 0.1-0.1 0.1-0.1 0.1-0.2 0.2 0 0-0.1 0.1-0.1 0.1-0.1 0.2-0.1 0-0.2 0.1 0 0.1-0.1 0.2-0.1 0.1-0.1 0.2-0.1 0.1-0.1 0.2-0.1 0-0.1 0.1-0.1 0.1-0.1 0.2-0.1 0.1-0.1 0.2-0.1 0.4-0.2 0.8c0.1 5.2 0.5 10.3 0.8 15.9q1-0.3 1.9-0.6l1.8-0.6q1-0.4 1.9-0.8 0.2-0.1 0.5-0.2 0.2-0.1 0.4-0.2 0.2-0.1 0.5-0.2 0.2-0.1 0.4-0.2 0.1-0.1 0.2-0.2 0.1 0 0.2-0.1 0.1-0.1 0.1-0.2 0.1-0.1 0.2-0.2 0.1-0.1 0.2-0.2 0.1-0.1 0.2-0.2 0-0.1 0.1-0.2 0.1-0.1 0.1-0.2 0.1-0.1 0.1-0.2 0.1-0.1 0.2-0.2 0-0.1 0.1-0.3 0.1-0.1 0.1-0.2 0.1-0.5 0.2-1.1c-0.2-4.9-0.7-9.9-1-15.3q0 0 0 0c-4.4 1.7-5 1.9-5.7 2.2z"/>
		<path class="s1" d="m178.7 765.2l-8.3-1.7c-0.6 7-1.2 13.3-1.8 20l8.7 1.3c0.5-7 1-13.3 1.4-19.6z"/>
		<path class="s1" d="m689.9 696.4c-1.3 0.8-2.9 2.4-3 3.7-0.3 5.3-0.1 10.6-0.1 16.8 3.1-1.2 5.6-2 7.8-3.1l0.6-0.6q0.1-0.1 0.1-0.1 0.1-0.1 0.2-0.2 0-0.1 0.1-0.1 0-0.1 0.1-0.2 0-0.1 0.1-0.2 0-0.1 0.1-0.2 0-0.1 0-0.2 0.1-0.1 0.1-0.2 0-0.1 0.1-0.2 0-0.1 0-0.2 0.1-0.1 0.1-0.2 0-0.1 0-0.2c-0.1-5.4-0.4-10.9-0.6-17-2.2 0.9-4.1 1.3-5.7 2.4z"/>
		<path class="s1" d="m194.6 739.2l-7.4-1.8c-0.5 5.9-1 11.2-1.3 16.5-0.4 6.7-0.3 6.7 7 7.4 0.6-7.3 1.1-14.5 1.7-22.1z"/>
		<path class="s1" d="m648 763.7c-1.1 5.4-0.4 11.3-0.4 17.5 9.1-1.8 9-1.8 8.8-9.9-0.2-3.8 0-7.7 0-13.1-3.6 2.2-8 3.4-8.4 5.5z"/>
		<path class="s1" d="m640.9 725.2c-0.2-2.5-0.4-5-0.6-8.1-2.7 1-4.9 1.5-6.8 2.6q-0.5 0.3-0.9 0.6-0.1 0.1-0.2 0.2-0.1 0.1-0.2 0.2-0.1 0.1-0.1 0.2-0.1 0.1-0.2 0.2-0.1 0.1-0.1 0.2-0.1 0.1-0.2 0.2 0 0.1-0.1 0.3-0.1 0.1-0.1 0.2 0 0.1-0.1 0.2 0 0.2 0 0.3-0.1 0.1-0.1 0.2 0 0.2 0 0.3c-0.3 4.9-0.2 9.7-0.2 14.7 10-2 10.5-2.6 9.9-12.5z"/>
		<path class="s1" d="m719.2 664.1c0.1 3.9 0 7.9 0 13 3.6-2.4 8.6-1.1 8.8-6.2 0.2-5.6-0.7-11.2-1-16.7-7.9 2.3-7.9 2.3-7.8 9.9z"/>
		<path class="s1" d="m833.2 614.8c0.4 5.4 0.9 10.7 1.2 16 0.3 6.6 1.1 7.7 7.6 10-0.2-4.9-0.6-9.7-0.7-14.5-0.2-7.2-1.2-8.8-8.1-11.5z"/>
		<path class="s1" d="m686.1 680c0.1 3.3 0 6.6 0 11.6 3.7-2.4 8.2-3.8 8.5-5.9 0.9-5.3-0.1-11-0.3-16.7-8.5 2.7-8.4 2.7-8.2 11z"/>
		<path class="s1" d="m640.1 708.1c0.2-4.6 0.1-9.3 0.1-14.1-9.6 2.2-9.7 2.4-9.7 11.5v8.3c3-1.2 5.5-2 7.7-3.1q0.1 0 0.2-0.1 0.1-0.1 0.2-0.1 0.1-0.1 0.1-0.2 0.1 0 0.2-0.1 0.1-0.1 0.2-0.1 0.1-0.1 0.1-0.2 0.1 0 0.2-0.1 0-0.1 0.1-0.2 0.1-0.1 0.1-0.2 0.1-0.1 0.1-0.1 0.1-0.1 0.1-0.2 0.1-0.1 0.1-0.2 0-0.1 0.1-0.2 0-0.1 0-0.2 0.1-0.1 0.1-0.2 0-0.1 0-0.2z"/>
		<path class="s1" d="m639.2 758.3q0.1-0.1 0.2-0.1 0.1-0.1 0.2-0.2 0-0.1 0.1-0.1 0.1-0.1 0.2-0.2 0.1-0.1 0.2-0.1 0.1-0.1 0.1-0.2 0.1-0.1 0.2-0.2 0-0.1 0.1-0.2 0.1-0.1 0.1-0.2 0.1-0.1 0.1-0.2 0.1-0.1 0.1-0.2 0.1-0.1 0.1-0.2 0-0.1 0.1-0.2 0-0.1 0-0.2 0.1-0.2 0.1-0.3 0-0.1 0-0.2c0.3-4.4 0.1-8.7 0.1-13.8-2.9 1-5.1 1.5-7 2.6-1.1 0.6-2.6 2.2-2.7 3.4-0.3 4.3-0.1 8.7-0.1 13.9q1-0.3 2-0.7 1-0.4 2-0.7c0.7-0.2 1.2-0.6 1.9-0.9 0.7-0.3 1.3-0.5 1.9-0.8z"/>
		<path class="s1" d="m614.5 897.8c2-13.7 0.6-18.2-7.4-22.6v15.2c0 5.9 1.4 7.3 7.4 7.4z"/>
		<path class="s1" d="m662.8 776.1l1.2 0.7c0.7-1.3 2.1-2.5 2-3.8-0.3-13.3-1-26.6-1.5-39.8l-1.6-0.7c-0.6 1.2-1.8 2.5-1.8 3.8 0.5 13.2 1.1 26.5 1.7 39.8z"/>
		<path class="s1" d="m181.2 811.7l8.1 1.2c0.4-6.5 0.8-12.6 1.3-18.9l-8-1c-0.5 6.5-0.9 12.4-1.4 18.7z"/>
		<path class="s1" d="m192.4 768.3l-7.5-1.7c-0.6 6.7-1.1 13-1.7 19.6l7.9 1.5c0.4-6.7 0.9-12.8 1.3-19.4z"/>
		<path class="s1" d="m600.8 771v19.5l7.6 1.5q0 0 0-0.1 0 0 0 0 0 0 0.1-0.1 0 0 0 0v-0.2l0.1-0.1v-11.1c0-7.3-0.6-8.1-7.8-9.4z"/>
		<path class="s1" d="m612.8 945c1-0.2 2.6-1.6 2.7-2.5 0.2-5.3 0.1-10.6 0.1-15.9l-8.1-0.8v18.4c2.1 0.3 3.8 1 5.3 0.8z"/>
		<path class="s1" d="m896.9 848.4l21.1 7.9 0.7-1-12.5-16.4z"/>
		<path class="s1" d="m653.3 711c-2.2 1.8-6 3.2-6.4 5.4-1 4.8-0.3 10-0.3 15l1.5 1.2c2.2-1.9 5.9-3.4 6.3-5.6 1-4.7 0.3-9.9 0.3-14.9z"/>
		<path class="s1" d="m662.2 683.7l-1.3-0.4c-0.5 1.3-1.6 2.6-1.5 3.9 0.4 13 1 26 1.6 39l1.3 0.5c0.6-1.4 1.9-2.9 1.9-4.3 0-6.2-0.4-12.3-0.8-18.4-0.3-6.8-0.8-13.6-1.2-20.3z"/>
		<path class="s1" d="m835.3 645.5c0.3 4.7 1 9 0.8 13.3-0.4 5.5 2 8.4 6.8 9.9 0-4.9-0.1-9.5 0-14 0.3-5.4-3-7.5-7.6-9.2z"/>
		<path class="s1" d="m647.3 741.3c-0.4 4.5-0.1 9-0.1 14.1l8.1-3v-16.6c-3 2.1-7.6 0.5-8 5.5z"/>
		<path class="s1" d="m600.1 699.8v16l7.4 4.3c0.4-18.4 1.5-16-7.4-20.3z"/>
		<path class="s1" d="m645.9 693.3c0 4.6 0.5 9 0.7 13.6 7.2-1.3 7.4-1.6 7.1-8.5-0.1-3.4 0-6.9 0-11.5-3.3 2.6-7.9 1.4-7.8 6.4z"/>
		<path class="s1" d="m615 905.2l-7.5-2v16.4h7.5z"/>
		<path class="s1" d="m837.3 673.4c0.2 5.2 0.6 9.7 0.7 14.2 0 4.8 2.1 7.4 7.4 8.6-2.4-8 3.1-18-8.1-22.8z"/>
		<path class="s1" d="m600.3 724v15.3l7.2 3.1q0 0 0 0 0.1-0.1 0.1-0.1 0 0 0 0 0-0.1 0-0.1 0 0 0-0.1 0.1 0 0.1 0 0-0.1 0-0.1 0-0.1 0-0.1 0 0 0 0 0.1-0.1 0.1-0.1 0 0 0 0 0-0.1 0-0.1 0 0 0-0.1 0.1 0 0.1 0 0-0.1 0-0.1 0-0.1 0-0.1c0-2.7-0.1-5.4-0.1-8-0.1-6.7-0.8-7.5-7.5-9.4z"/>
		<path class="s1" d="m600.6 746.9v16.5l7.7 3c0-3.3-0.2-6.4 0-9.5 0.5-5.6-2-8.7-7.7-10z"/>
		<path class="s1" d="m172.1 666.4c-1.2-0.5-2.6-0.6-3.3-1.4-2.9-3.7-5.3-3.2-7.8 0.3-1.7 2.3-3.4 1.8-5.4 0.1-2.9-2.4-5.1-1.3-6.2 2.5l23.1 4.6c-0.1-1.9-0.2-4-0.4-6.1z"/>
		<path class="s1" d="m845.9 710.5c0.4-5.3-2-7.6-6.7-9 0.3 5.1 0.8 10.1 0.8 15 0 4.5 2.6 6 6.5 6.8-0.2-4.5-1-8.7-0.6-12.8z"/>
		<path class="s1" d="m140.5 731.7l-1.5-0.5c-0.2 0.5-0.4 1-0.7 1.5-0.3 0.5-0.4 1-0.6 1.5q-0.3 0.8-0.6 1.5l-0.6 1.6q-0.1 0.7-0.3 1.5c-0.1 0.5-0.1 1-0.2 1.5q0 0.2 0 0.4 0 0.2 0 0.4 0 0.1-0.1 0.3 0 0.2 0 0.4v1.5c-0.5 7-1 14.1-1.5 21.6 3.5-1.9 6.2-18.7 6.1-33.2z"/>
		<path class="s1" d="m892.5 881.7c-0.7-8.3-1.3-16.6-2-24.9q0-0.1-0.1-0.3 0-0.1-0.1-0.3 0-0.1 0-0.3-0.1-0.1-0.1-0.3 0-0.1-0.1-0.3 0-0.1-0.1-0.3 0-0.1 0-0.3-0.1-0.1-0.1-0.3l-0.4-1.2q-0.1-0.1-0.1-0.3-0.1-0.1-0.2-0.3 0-0.1-0.1-0.3 0-0.1-0.1-0.3l-1.4 0.5q2.3 24.2 4.5 48.5l1.9-0.2q-0.8-9.5-1.5-19.1z"/>
		<path class="s1" d="m932.8 964.3c0.2 3.2 1.7 3.5 4.7 3-0.9-8-1.7-15.9-2.8-23.7-0.1-0.9-1.8-1.5-3.7-2.8 0.7 8.8 1.4 16.2 1.8 23.5z"/>
		<path class="s1" d="m848 625.4v16.3c0 3.4 1.3 6 4.7 6.6 0-5.2-0.4-10.4 0.1-15.5 0.3-4.2-2-5.8-4.8-7.4z"/>
		<path class="s1" d="m892.8 908.4q2.4 27 4.8 54.1h1.6c-1.7-18.1-2.7-36.3-4.8-54.3z"/>
		<path class="s1" d="m860.1 929.7l-1 0.9c1 8.6 1.9 17.1 3 25.6 0.1 1 1.4 1.9 2.2 2.8l1.1-1c-1-8.6-1.7-17.1-2.8-25.6-0.1-1-1.6-1.8-2.5-2.7z"/>
		<path class="s1" d="m854.9 676c-0.4-5.6-0.9-10.5-0.9-15.5 0-3.7-1.9-5-5.2-5.7 0.3 5.1 0.9 9.8 0.8 14.4-0.2 3.8 1.2 5.8 5.3 6.8z"/>
		<path class="s1" d="m864.7 864.7q0.1-2.4 0.1-4.7c0-1.5-0.1-3.2-0.2-4.7-0.1-1.5-0.2-3.1-0.3-4.7-0.1-1.6-0.3-3.1-0.6-4.6-0.2-1.8-1.7-3.4-2.6-5l-2 0.9c0.8 6.6 1.3 13.3 2.3 19.9 0.2 1 2.2 1.9 3.3 2.9z"/>
		<path class="s1" d="m904.7 935.8l-1.5 0.8c0.7 8.5 1.4 17 2.2 25.6q0 0 0 0.1 0.1 0 0.1 0 0 0.1 0 0.1 0 0.1 0 0.1l0.2 0.2q0 0.1 0.1 0.2 0 0 0.1 0.1 0.1 0.1 0.1 0.1 0.1 0.1 0.2 0.1l0.6 0.4 0.3 0.3h0.1v0.1c0.1 0 0.1 0 0.1 0.1h0.1q0 0 0-0.1 0 0 0 0 0 0 0.1-0.1 0 0 0 0 0 0 0-0.1 0.1 0 0.1 0 0-0.1 0-0.1 0-0.1 0-0.1l0.2-0.2q0 0 0-0.1 0 0 0-0.1 0 0 0.1 0 0-0.1 0-0.1 0 0 0-0.1 0.1 0 0.1-0.1 0 0 0 0 0.1-0.1 0.1-0.1l0.2-0.4q0-0.1 0-0.1 0.1-0.1 0.1-0.1 0-0.1 0-0.2 0 0 0-0.1 0 0 0-0.1 0.1 0 0.1-0.1 0 0 0-0.1 0 0 0-0.1c-0.5-7.5-1-15-1.8-22.5-0.1-1.1-1.3-2.1-2-3.2z"/>
		<path class="s1" d="m907.4 964.1q0.1-0.1 0.1-0.3 0.1-0.1 0.1-0.2 0.1-0.1 0.2-0.3 0-0.1 0.1-0.2-0.1 0.1-0.1 0.2-0.1 0.2-0.2 0.3 0 0.1-0.1 0.2 0 0.2-0.1 0.3z"/>
		<path class="s1" d="m856.8 897.8l-1.3 0.7c0.9 7.7 1.6 15.3 2.6 22.9 0.1 0.9 1.6 1.7 2.5 2.5l1-1c-0.8-7.3-1.5-14.7-2.5-22-0.1-1.1-1.4-2.1-2.3-3.1z"/>
		<path class="s1" d="m852.8 840q-0.4-0.4-0.7-0.7-0.4-0.4-0.8-0.7-0.3-0.4-0.7-0.7-0.4-0.4-0.8-0.7l-1.2 0.7c0.8 6.8 1.4 13.7 2.5 20.5 0.1 1.2 1.8 2.1 2.8 3.2l1.1-0.7q-1-9.7-2-19.5c-0.1-0.6 0.1-1.2-0.2-1.4z"/>
		<path class="s1" d="m855.6 702.7c0-16.8 0.9-19.6-4.9-20.1-0.7 15 0.1 18.3 4.9 20.1z"/>
		<path class="s1" d="m852.1 868c0.7 7 1.4 14 2.3 20.9 0.2 1.1 1.8 2 2.8 2.9l1.1-0.8c-0.8-6.7-1.4-13.4-2.3-20-0.2-1.4-1.7-2.5-2.6-3.7z"/>
		<path class="s1" d="m204 1065.4h-38.5c4.8 3 28 2.3 38.5 0z"/>
		<path class="s1" d="m866.9 894.5l1.1-0.8c-0.5-6.5-0.9-13.1-1.7-19.6-0.2-1.3-1.9-2.4-2.9-3.7l-1.1 1c0.7 6.4 1.2 12.8 2 19.1 0.2 1.5 1.7 2.7 2.6 4z"/>
		<path class="s1" d="m857.9 728.6c-2.7-6.4 1.9-14.4-5.5-20 0 5.7 0.1 10.2 0 14.8-0.1 3.4 1.4 5.1 5.5 5.2z"/>
		<path class="s1" d="m922.6 939.5l-0.8 0.8c0.5 7.6 1 15.2 1.7 22.8 0.1 1.2 1.3 2.3 1.9 3.4l1.4-0.6c-0.6-7.9-1.2-15.9-2-23.8 0-0.9-1.4-1.7-2.2-2.6z"/>
		<path class="s1" d="m887.4 933.9l-1.2 0.7c0.7 8.2 1.3 16.5 2.1 24.7 0.1 1 1.2 2 1.9 3l1.2-0.9c-0.7-8.3-1.5-16.5-2.3-24.7-0.1-1-1.1-1.9-1.7-2.8z"/>
		<path class="s1" d="m912.7 937.8c0.6 8.6 1.1 16.7 1.8 24.8 0.1 1 1.2 1.9 1.9 2.8l1.3-0.5c-0.7-8.7-1.5-17.3-2.4-26-0.1-0.3-1.4-0.6-2.6-1.1z"/>
		<path class="s1" d="m898.2 874.7c0.1 1 1.7 1.8 3.5 3.6-0.5-7.6-0.7-13.7-1.4-19.8-0.1-1.2-1.7-2.3-2.6-3.4l-1.3 0.9c0.5 6.2 1 12.5 1.8 18.7z"/>
		<path class="s1" d="m915.3 863c0.5 5.4 0.9 10.8 1.6 16.2 0.1 1.3 1.5 2.4 2.3 3.6l1.3-0.7c-0.3-5.1-0.5-10.2-1.2-15.3-0.2-1.6-1.5-3.1-2.4-4.7z"/>
		<path class="s1" d="m869.8 924.9q0.1-2.7 0.1-5.4c0-1.8-0.1-3.5-0.2-5.3-0.1-1.8-0.2-3.5-0.3-5.3-0.1-1.8-0.3-3.5-0.5-5.3-0.1-1.1-1.4-2-2.1-3.1l-1.2 0.9c0.7 7 1.3 14 2.1 21 0.2 1 1.4 1.7 2.1 2.5z"/>
		<path class="s1" d="m902.6 904.2l1.2-0.8c-0.5-5.7-0.8-11.5-1.5-17.3-0.1-1-1.7-1.9-2.5-2.8q-0.2 2.2-0.3 4.4v4.4c0.1 1.5 0.1 3 0.2 4.5 0.1 1.5 0.3 2.9 0.5 4.4 0.1 1.1 1.6 2.1 2.4 3.2z"/>
		<path class="s1" d="m869.6 931.2l-0.9 0.7q1.5 13.8 3.1 27.7l1.8-0.3c-0.7-8.7-1.4-17.3-2.2-26 0-0.8-1.1-1.4-1.8-2.1z"/>
		<path class="s1" d="m921.9 908.4c1-9.8-0.6-18.2-4-19.5-0.4 13.1 0.8 18.8 4 19.5z"/>
		<path class="s1" d="m920.7 742.5c-1.1-6.2 0.5-13.1-4.2-18.1 0.9 6.2-2.5 13.6 4.2 18.1z"/>
		<path class="s1" d="m877.6 932.8c1.1 9.3 0.7 18.7 2.9 27.8l1.7-0.2-2.4-27.9z"/>
		<path class="s1" d="m905.8 929.1c-0.3-4.3-0.5-8.7-0.8-13q0-0.1 0-0.2 0-0.1 0-0.2 0-0.1-0.1-0.2 0-0.1 0-0.2v-0.8l-0.2-0.8q0-0.1-0.1-0.2 0-0.1 0-0.2-0.1-0.1-0.1-0.2-0.1-0.1-0.1-0.2c-0.5-1.1-1.6-1.9-3.2-3.7 0.5 17.8 0.9 19.5 4.6 19.9z"/>
		<path class="s1" d="m924.7 763.3c-2.8-4.7 0.9-11.8-6.5-14-0.8 10.6 0 12.5 6.5 14z"/>
		<path class="s1" d="m885.8 905.7l-2.1 0.4c0.6 6.5 1.1 13 1.8 19.5 0.1 0.6 1.3 1.1 2.9 2.4-1.1-8.4-0.6-15.6-2.6-22.3z"/>
		<path class="s1" d="m911.1 736.7c-2.3-6.8 0.4-13.8-4.7-20-0.8 11.9 0.2 17.4 4.7 20z"/>
		<path class="s1" d="m923.9 933c0.6-12.2-0.5-16.8-3.9-17.2-0.6 9.7 0.7 16.1 3.9 17.2z"/>
		<path class="s1" d="m118.3 771.8c4.1-7.1 2.5-15.2 3.3-22.9-4.1 7.1-2.3 15.2-3.3 22.9z"/>
		<path class="s1" d="m881.3 877.6c1.1 7.2 0.2 14.6 3.3 21.1 1.1-12.1-0.3-20.1-3.3-21.1z"/>
		<path class="s1" d="m882.6 653.1c2 6.2-0.3 13 4 18.2 0.9-13.1 0.1-16.4-4-18.2z"/>
		<path class="s1" d="m874.9 903c1.3 7.9 0.4 15.7 3.3 22.9 1.5-9.2-0.2-20.7-3.3-22.9z"/>
		<path class="s1" d="m870.8 845.7c0.3 7.3-0.6 14.8 2.7 21.5-0.5-7.2 0.7-14.7-2.7-21.5z"/>
		<path class="s1" d="m136.4 771.8c-5.2 5.6-2.4 13-3.6 19.6 4.6-5.8 2.6-13 3.6-19.6z"/>
		<path class="s1" d="m874.6 874.5l-2 0.3 1.9 21.5 2.1-0.3q-0.1-2.7-0.2-5.4c-0.1-1.8-0.3-3.6-0.5-5.4-0.2-1.8-0.3-3.6-0.5-5.3-0.2-1.7-0.5-3.6-0.8-5.4z"/>
		<path class="s1" d="m874.9 738.1c-0.5-5.8 1.5-12.1-3.1-16.9 1.3 5.6-1.8 12.1 3.1 16.9z"/>
		<path class="s1" d="m892 660.5c3.1 5.8-0.6 12.6 4.3 17.4 0.9-13.1 0.4-15.5-4.3-17.4z"/>
		<path class="s1" d="m894.3 685.6c2.1 6.2-0.5 12.9 3.5 18.3 1.7-8.8 0.2-16.7-3.5-18.3z"/>
		<path class="s1" d="m879.4 849.2c-0.7 9.2 0.9 19.4 3.8 21.2-0.7-7.4-1.4-14.4-2-21.4z"/>
		<path class="s1" d="m930 918.2c-1.3 8.3 0.3 15.9 3.4 16.5 0.8-7.6-0.8-15.1-3.4-16.5z"/>
		<path class="s1" d="m909.5 879.3c1.5-8.7 0-18.3-3.2-20 1.3 6.9 0.1 13.8 3.2 20z"/>
		<path class="s1" d="m908.7 887.1c0.5 6.4 0.4 12.9 2.7 18.8 1.6-9.8 0-18.6-2.7-18.8z"/>
		<path class="s1" d="m116.4 800.3c2.7-6.4 2.7-13.2 2.1-20.1-2.4 6.4-2.6 13.2-2.1 20.1z"/>
		<path class="s1" d="m885.2 679.4c1.2 6.5 0 13.1 3.5 18.7 0.3-15.7 0-17-3.5-18.7z"/>
		<path class="s1" d="m915.4 931.1c-2.2-6 0.1-12.5-3.6-18-1.7 8 0 17.2 3.6 18z"/>
		<path class="s1" d="m882.2 719c1-7.1-0.6-16.5-3.4-19-0.2 11.1 0.9 17.1 3.4 19z"/>
		<path class="s1" d="m899.9 729.8c-0.6-6 1.4-12.6-2.6-18 0.5 6.1-1.1 12.6 2.6 18z"/>
		<path class="s1" d="m104.6 684.7c-3.3-3-5.4-0.7-7.4 0.8-2.4 1.7-4.2 4-2.1 8z"/>
		<path class="s1" d="m908 743.5c1.2 4.5-2.8 10.5 3.7 13.3-0.7-4.6 1.9-10.3-3.7-13.3z"/>
		<path class="s1" d="m908.4 710l-2.1-18-1.8 0.2c-0.5 11.1 0.5 16.4 3.9 17.8z"/>
		<path class="s1" d="m114.1 826.9c3.6-5.5 1.6-12 3.7-18.5-3.6 1.9-5 9.6-3.7 18.5z"/>
		<path class="s1" d="m879.7 692c0.8-7.5-0.7-16.9-2.9-18.7-0.9 7.4 0.6 17 2.9 18.7z"/>
		<path class="s1" d="m874.3 646c0.7 6.4-0.9 13.2 3 19-0.7-6.4 0.9-13.2-3-19z"/>
		<path class="s1" d="m913.9 698.4c-1.1 7.9 0.5 16.1 4 17.9l-2.8-18.1z"/>
		<path class="s1" d="m872 713.5l1.6-0.3-1.9-18.2-1.8 0.2c1.1 6-0.8 12.5 2.1 18.3z"/>
		<path class="s1" d="m927.6 892.1c0.4 6.4 0 13 2.1 19.1l1.7-0.2q-1.2-9.5-2.3-19z"/>
		<path class="s1" d="m891.6 724.4l-1.8-18.2-1.9 0.3c0.5 6.1-0.1 12.3 2.3 18.1z"/>
		<path class="s1" d="m881.5 727.1c0 5.4-0.6 10.9 2.4 15.8 0-5.5 1.4-11.2-2.4-15.8z"/>
		<path class="s1" d="m134 799.6c-4.6 4.6-1.8 10.5-3.1 15.8 4-4.7 1.9-10.6 3.1-15.8z"/>
		<path class="s1" d="m864.7 708c-0.5-6.5-1-12.6-1.5-18.7l-1.4 0.1c-0.8 7.1 0.5 17.1 2.9 18.6z"/>
		<path class="s1" d="m864.5 733.2l1.4-0.2-1.1-17-2 0.2c0.8 5.7-0.6 11.6 1.7 17z"/>
		<path class="s1" d="m118.1 674.9v-1.5c-1.6-0.1-3.5-0.9-4.6-0.3-2.6 1.4-5.6 3-4.5 7.6z"/>
		<path class="s1" d="m863.1 680.7l-1.4-18.2-1.6 0.2q0.5 9.1 1.1 18.2z"/>
		<path class="s1" d="m905.9 683.8c-0.3-5.3-0.3-10.6-1.8-15.6l-1.7 0.2 1.7 15.7z"/>
		<path class="s1" d="m901.5 751.6c0.7-9 0.2-11.6-2.3-13.6-1 7.9-0.3 12.1 2.3 13.6z"/>
		<path class="s1" d="m858.7 634.5l1.1 19.2 1.5-0.1q-0.5-9.6-1-19.2z"/>
		<path class="s1" d="m129.9 666.4c-6.1 0-7.4 1.1-6.3 6.4 2-2.5 6.9-0.6 6.3-6.4z"/>
		<path class="s1" d="m871.1 686.2q-0.8-8.9-1.5-17.8h-1.4q0.7 9 1.4 18z"/>
		<path class="s1" d="m893.2 747.1l-1.4-14.5-1.7 0.3q0.8 7.2 1.5 14.5z"/>
		<path class="s1" d="m143.6 667.1c-1.6-1.1-3.2-2.8-5-3-0.8-0.1-2 2.4-3.4 4.3h7.7z"/>
		<path class="s1" d="m90.1 696.5l-1.8-1q-2.3 3.7-4.5 7.5l1.3 0.9c1.6-2.6 5.7-3.4 5-7.4z"/>
		<path class="s1" d="m926.6 868.3l-0.9 0.1 1.2 15.8 1.4-0.1q-0.9-7.9-1.7-15.8z"/>
		<path class="s1" d="m321.2 867.9c9.6-2.9 9.7-2.9 10-13.3 0.2-7.8 0-15.6 0-24-4.9 2.1-9.8 4.1-14.7 6.3q-0.1 0.1-0.1 0.2-0.1 0-0.1 0.1-0.1 0.1-0.2 0.2 0 0-0.1 0.1l-0.4 0.6-0.2 0.8q0 0.1 0 0.2-0.1 0.1-0.1 0.1 0 0.1 0 0.2 0 0.1 0 0.2c-0.1 9.9-0.1 19.8-0.1 30.2z"/>
		<path class="s1" d="m311.7 958.5l4.8-0.9q-2.5-3.8-4.8-7.6z"/>
		<path class="s1" d="m327.9 953.3c0.2-8.2 0.1-16.3 0.1-24.6-4.5 0.9-9.2 1.7-13.8 2.8-1 0.3-2.4 1.7-2.4 2.6-0.1 5.2-0.1 10.5-0.1 16q2.3 3.8 4.8 7.6c3-0.6 6-1.2 9-1.9q0.1 0 0.2-0.1 0.2 0 0.3-0.1 0.1 0 0.2-0.1 0.1 0 0.2-0.1 0.1-0.1 0.2-0.1 0.1-0.1 0.2-0.2 0.1-0.1 0.1-0.1 0.1-0.1 0.2-0.2 0.1-0.1 0.1-0.2 0.1 0 0.2-0.1 0-0.1 0.1-0.2 0.1-0.1 0.1-0.2 0-0.1 0.1-0.2 0-0.1 0.1-0.2 0-0.1 0-0.2 0.1-0.1 0.1-0.2z"/>
		<path class="s1" d="m328 894.2l0.8-0.4q0.1-0.1 0.2-0.1 0.1-0.1 0.1-0.2 0.1 0 0.2-0.1 0-0.1 0.1-0.2 0.1-0.1 0.1-0.2 0.1-0.1 0.1-0.1 0.1-0.1 0.1-0.2 0.1-0.1 0.1-0.2 0.1-0.1 0.1-0.2 0 0 0.1-0.1 0-0.1 0-0.2 0.1-0.1 0.1-0.2c0.2-6.4 0.1-12.9 0.1-19.8-5 1.5-10 2.9-14.9 4.6q-0.2 0.1-0.3 0.2-0.2 0.2-0.3 0.3-0.1 0.1-0.3 0.3-0.1 0.1-0.2 0.3l-0.4 0.6-0.2 0.8c-0.1 6 0 12.1 0 18.6 4.9-1.2 9.7-2.2 14.4-3.5z"/>
		<path class="s1" d="m329.3 921.8v-21.2c-5.1 1.2-9.9 2.3-14.6 3.5q-0.1 0-0.2 0.1-0.1 0-0.2 0.1 0 0-0.1 0.1-0.1 0-0.2 0.1-0.1 0.1-0.2 0.1-0.1 0.1-0.1 0.2-0.1 0-0.2 0.1 0 0.1-0.1 0.2-0.1 0.1-0.1 0.2-0.1 0-0.2 0.1 0 0.1-0.1 0.2-0.1 0.1-0.1 0.2-0.1 0.3-0.2 0.7c-0.2 6.1-0.1 12.2-0.1 18.7z"/>
		<path class="s1" d="m345.5 853.2c0-5.2 0.2-10.3 0.4-15.5 0.1-4.3 0.4-8.6 0.6-12.9l-1.2-0.9c-2.3 1.8-6.4 3.5-6.6 5.4-0.6 11-0.3 22.1-0.3 33.1 7.1-1.2 7-1.2 7.1-9.2z"/>
		<path class="s1" d="m343 952.7v-27.9c-2.8 1.4-7.5 2.5-7.6 4.1-0.8 8.2-0.4 16.5-0.4 25.1z"/>
		<path class="s1" d="m344.5 888.1c0.2-6.6 0.1-13.2 0.1-20.6l-8.1 2.8v21.8q0.2 0 0.3 0 0.2 0 0.4 0 0.1-0.1 0.3-0.1 0.1 0 0.3-0.1 0 0 0 0c3.1-0.7 3.5-0.9 3.9-1 1.2-0.6 2.7-1.8 2.8-2.8z"/>
		<path class="s1" d="m340.5 919.5c1.2-0.4 3-1.3 3-2.1 0.3-6.7 0.2-13.3 0.2-20.2l-1.2 0.2q0 0 0 0l-3.6 1c-1.1 0.5-2.8 1.7-2.8 2.6-0.3 6.3-0.1 12.6-0.1 19.3q0.1 0 0.3 0 0.1-0.1 0.2-0.1 0.2 0 0.3 0 0.2 0 0.3 0l1.2-0.2 1.1-0.2q0.1 0 0.3-0.1 0.1 0 0.3 0 0.1-0.1 0.2-0.1 0.2 0 0.3-0.1z"/>
		<path class="s1" d="m352 624q-0.9 0.6-1.8 1.2-0.9 0.7-1.8 1.3-0.8 0.7-1.7 1.3-0.9 0.7-1.7 1.4c-1.1 1-2.7 2.5-2.7 3.8-0.2 9.8-0.1 19.5-0.1 29.3 6.3-2.9 10.8-7 9.9-15.9-0.7-7.2-0.1-14.5-0.1-22.4z"/>
		<path class="s1" d="m327.3 644.4c-0.9 9.4-0.3 19-0.3 28.6 7.3-2.9 8.6-4.7 8.6-11.7 0.1-6.8 0.2-13.5 0.3-20.3v-4.2l-1.4-0.6c-2.5 2.7-6.9 5.2-7.2 8.2z"/>
		<path class="s1" d="m344.7 668.9c-1.3 1.1-3.2 2.6-3.2 4-0.3 8.1-0.2 16.2-0.2 24.5 2.8-1.6 5.5-3 8.2-4.7q0.1-0.1 0.1-0.2 0.1 0 0.1-0.1 0.1-0.1 0.2-0.2 0 0 0.1-0.1l0.4-0.6 0.2-0.8q0-0.1 0-0.2 0.1-0.1 0.1-0.1 0-0.1 0-0.2 0-0.1 0-0.2c0.1-8.4 0.1-16.9 0.1-25.6-2.1 1.5-4.2 2.9-6.1 4.5z"/>
		<path class="s1" d="m340.8 707.4c-1.2 7.4-0.4 15.2-0.4 24.6 3.6-3.3 8.2-5.6 8.6-8.5 1.1-7.4 0.4-15.2 0.4-24.1-3.2 2.9-8.1 5.1-8.6 8z"/>
		<path class="s1" d="m333.7 676.3c-2.3 2.5-6.1 4.7-6.4 7.5-1 7.1-0.3 14.6-0.3 21.9l1.1 0.8c2.2-2.3 6-4.5 6.3-7.2 1-7.3 0.3-14.7 0.3-22.1z"/>
		<path class="s1" d="m327 716.2c-0.8 7.4-0.3 15-0.3 24.1 2.9-2.8 6.6-4.6 6.8-6.7 0.8-7.7 0.3-15.6 0.3-24.9-2.8 2.9-6.5 5-6.8 7.5z"/>
		<path class="s1" d="m350.2 617.3l-2.3-6.1-16.9 14.6c0.6 1.6 1 3 1.6 4.7z"/>
		<path class="s1" d="m264.2 858.9q-0.1 0-0.2 0.1 0 0-0.1 0.1-0.1 0-0.2 0.1 0 0-0.1 0.1-0.1 0-0.1 0.1-0.1 0.1-0.2 0.1 0 0.1-0.1 0.2-0.1 0-0.1 0.1-0.1 0.1-0.1 0.1-0.1 0.1-0.1 0.2-0.1 0.1-0.1 0.1-0.1 0.1-0.1 0.2 0 0.1-0.1 0.2 0 0.1-0.1 0.1 0 0.1 0 0.2-0.1 0.1-0.1 0.2c-0.5 8.6-0.9 17.2-1.3 26.4l10.6-3.7c0.4-5.1 0.7-10.2 1.1-15.3q-2.1-5.9-4-11.8c-1.6 0.7-3.1 1.4-4.6 2.2z"/>
		<path class="s1" d="m268.9 856.7q1.8 6 3.9 11.8c0.3-4.5 0.6-9.1 1-13.9z"/>
		<path class="s1" d="m257.7 946.6c-0.6 6.5-0.9 13.1-1.3 20.2q0.2 0 0.5 0 0.2 0 0.4-0.1 0.2 0 0.5 0 0.2-0.1 0.4-0.1l1.9-0.2q0.9-0.1 1.8-0.3 1-0.2 1.9-0.4c1-0.3 2.5-1.5 2.5-2.4 0.7-6.8 1-13.6 1.5-21q-1 0.2-2 0.3l-2 0.4q-0.9 0.2-1.9 0.4-1 0.2-2 0.5-0.1 0.1-0.2 0.1-0.1 0.1-0.2 0.1-0.1 0.1-0.2 0.2-0.1 0-0.2 0.1-0.1 0.1-0.2 0.1-0.1 0.1-0.1 0.2-0.1 0-0.2 0.1 0 0.1-0.1 0.2-0.1 0.1-0.1 0.2-0.1 0.1-0.2 0.2 0 0.1-0.1 0.2 0 0.1-0.1 0.2 0 0.1-0.1 0.2 0 0.1-0.1 0.2 0 0.1 0 0.2-0.1 0.1-0.1 0.2z"/>
		<path class="s1" d="m258.6 924.3c0.3 4.2 0.1 8.4 0.1 13.2 2.4-0.5 5-0.9 7.4-1.6 0.8-0.2 2.1-1.1 2.2-1.7 0.5-5.9 0.8-11.7 1.2-17.9l-1.4 0.4q-0.2 0.1-0.3 0.1-0.2 0-0.3 0.1-0.2 0-0.4 0-0.1 0.1-0.3 0.1-0.2 0.1-0.4 0.1-0.2 0-0.3 0.1-0.2 0-0.4 0-0.2 0.1-0.4 0.1l-1.4 0.2c-4.1 0.3-5.5 2.6-5.3 6.8z"/>
		<path class="s1" d="m267.4 910c1-0.4 2.5-1.6 2.6-2.5 0.6-5.3 0.9-10.6 1.3-16.3l-10.7 2.8c-0.3 5.7-0.7 11.4-1.1 17.8l2-0.4 2-0.4q0.9-0.2 1.9-0.5c0.7-0.2 1.3-0.3 2-0.5z"/>
		<path class="s1" d="m282.4 850.4c-3.1 3.5-5 25.9-2.1 30.7 0.7-9.9 1.4-19.8 2.1-30.7z"/>
		<path class="s1" d="m276.4 940.9l-2.2-0.1-1.6 23.1 2.4 0.2q0.7-11.6 1.4-23.2z"/>
		<path class="s1" d="m276 914.3c-0.5 6.5-1 12.9-1.5 19.9 3.2-2.2 4.4-16.1 1.5-19.9z"/>
		<path class="s1" d="m280 887.8c-3.1 3-4.2 14.8-1.5 19.7 0.5-6.3 1-12.5 1.5-19.7z"/>
		<path class="s1" d="m276.7 685c-0.9 8.2-1 16.6-1.4 24.9l1.3 0.5c1.7-1.6 4.6-3.1 4.8-5 0.9-8.7 1.2-17.6 1.7-26.4l-1.5-0.5c-1.7 2.1-4.6 4.1-4.9 6.5z"/>
		<path class="s1" d="m289.1 677.8c0.2 4.2-0.5 8.4-0.6 12.7-0.1 3.4 0 6.9 0 10.4l1.1 0.5c1.5-2 4-3.8 4.2-5.9 0.9-8.8 1-17.8 1.5-27.4-4.5 2.3-6.5 5-6.2 9.7z"/>
		<path class="s1" d="m275.1 720.5c-0.9 6.5-0.8 13-1.1 19.6l1 0.7c1.7-1.9 4.7-3.5 5-5.7 1-6.3 0.9-13 1.2-19.4l-1.1-0.6c-1.8 1.8-4.7 3.4-5 5.4z"/>
		<path class="s1" d="m273.9 751c-0.9 6.3-0.9 12.8-1.2 19.3l1.2 0.5c1.6-1.5 4.5-2.8 4.7-4.4 0.9-6.9 0.9-13.8 1.3-20.8l-1.4-0.6c-1.6 2-4.3 3.8-4.6 6z"/>
		<path class="s1" d="m285.9 744.4c0 5.6-0.4 11.3-0.6 16.9l1.1 0.7c1.5-1.5 4.1-2.9 4.3-4.6 0.8-6.8 0.9-13.6 1.2-20.8-4.1 1.5-5.9 3.7-6 7.8z"/>
		<path class="s1" d="m287.7 711c-0.5 6.7-0.2 13.5-0.2 21.3 1.9-2.2 4.5-3.8 4.8-5.8 0.8-6.5 0.8-13 1.1-19.5l-1.1-0.6c-1.6 1.5-4.4 2.9-4.6 4.6z"/>
		<path class="s1" d="m289.4 664.2c2.3-1.8 2.1-3.3 0.5-5.2-9.8 7.7-12.4 11-10.9 13.9 3.5-2.9 6.9-6 10.4-8.7z"/>
		<path class="s1" d="m179.9 917.7c0.7-5.6 0.9-11.3 1.4-17.6q-0.2 0-0.4 0.1-0.2 0.1-0.4 0.1-0.1 0.1-0.3 0.2-0.2 0-0.4 0.1-0.2 0.1-0.4 0.1-0.1 0.1-0.3 0.1-0.2 0.1-0.4 0.2-0.1 0-0.3 0.1c-0.5 0.1-1 0.3-1.5 0.5q-0.2 0.1-0.4 0.1-0.1 0.1-0.3 0.1-0.2 0.1-0.4 0.2-0.1 0-0.3 0.1c-1.3 0.8-3.4 1.8-3.6 2.9-0.7 5.7-0.9 11.5-1.3 18.3 3.5-2.4 8.6 0.3 9.3-5.6z"/>
		<path class="s1" d="m160.9 925.2c1.5-0.8 3.4-2.2 3.6-3.6 0.7-5.1 0.8-10.2 1.2-15.5-10 2.3-10 2.3-10.3 12.4-0.1 2.5 0 5 0 8 2-0.4 4-0.4 5.5-1.3z"/>
		<path class="s1" d="m179 927.9c-8.9 1.3-8.9 1.3-9.4 10-0.1 2-0.3 4-0.6 6.8l8.9-1.2c0.3-5.3 0.7-10.4 1.1-15.6z"/>
		<path class="s1" d="m160.4 946c1-0.2 2.5-1.4 2.6-2.4 0.5-4 0.5-8 0.7-12-5 0.8-7.7 1.4-9.1 3.2l2.3 4.4-3.4 1.7c0.1 1.6 0.2 3.5 0.5 5.8h1.6l1.6-0.2 1.6-0.2q0.2 0 0.4-0.1 0.2 0 0.4 0 0.2-0.1 0.4-0.1 0.2-0.1 0.4-0.1z"/>
		<path class="s1" d="m154.6 934.8c-0.9 1.3-1.2 3.1-1.1 6.1l3.4-1.7z"/>
		<path class="s1" d="m153.1 965.9c9-0.7 10.4-2.7 8.6-13.4-9.6 0.9-10.9 3-8.6 13.4z"/>
		<path class="s1" d="m176.7 956.9c0.1-2 0.3-4 0.4-6.4-9.1 0.1-10.1 1.7-8.8 13.3 7.4 0.8 8 0.3 8.4-6.9z"/>
		<path class="s1" d="m152 972.4c-0.3 3.8-0.7 7.4-1 11.2 9.2 1 11.3-1.9 9.1-11.7z"/>
		<path class="s1" d="m175.7 969.9l-8.5 1.1c-0.3 4.1-0.5 7.6-0.8 11.5l8.2-0.5c0.4-4.3 0.7-8 1.1-12.1z"/>
		<path class="s1" d="m499.8 660.3c-5.6-2.9-11.3-5.5-17.8-8.5v27.5q0.1 0.4 0.2 0.7 0 0.1 0.1 0.2 0 0.1 0 0.2 0.1 0.1 0.1 0.1 0 0.1 0.1 0.2 0.1 0.1 0.1 0.2 0.1 0 0.1 0.1 0.1 0.1 0.2 0.2 0 0 0.1 0.1 0.1 0.1 0.1 0.1 0.1 0.1 0.1 0.1 0.1 0.1 0.2 0.1 0 0.1 0.1 0.1c5.6 2.6 11.2 5 18.1 8 0-9.5 0.1-17.8 0-26.2q-0.1-0.5-0.2-0.9 0-0.1-0.1-0.2 0-0.2-0.1-0.3 0-0.1-0.1-0.2 0-0.1-0.1-0.2-0.1-0.1-0.1-0.2-0.1-0.1-0.1-0.2-0.1-0.1-0.2-0.2 0-0.1-0.1-0.2-0.1-0.1-0.1-0.2-0.1-0.1-0.2-0.1-0.1-0.1-0.2-0.2-0.1 0-0.2-0.1z"/>
		<path class="s1" d="m498.3 728.3c-5.3-2.3-10.7-4.4-17-7v25.5c0 0.9 0.4 2.4 1 2.7 5.7 2.2 11.4 4.2 18 6.5 0-9 0-16.8-0.1-24.6q-0.1-0.5-0.2-0.9c-0.1-0.3-0.3-0.6-0.4-0.9q-0.1-0.1-0.1-0.2-0.1-0.1-0.2-0.2-0.1-0.1-0.1-0.1-0.1-0.1-0.2-0.2-0.1-0.1-0.2-0.2-0.1 0-0.1-0.1-0.1-0.1-0.2-0.2-0.1 0-0.2-0.1z"/>
		<path class="s1" d="m499.1 695.9c-5.5-2.6-11.2-5-17.3-7.7v26.6l19.1 7.4c0-8.3 0-15.9-0.1-23.4q-0.1-0.5-0.2-0.9 0-0.1-0.1-0.2 0-0.1 0-0.2-0.1-0.1-0.1-0.2-0.1-0.1-0.1-0.2-0.1-0.1-0.1-0.2-0.1-0.1-0.2-0.2-0.1 0-0.1-0.1-0.1-0.1-0.2-0.2-0.1-0.1-0.1-0.2-0.1 0-0.2-0.1 0-0.1-0.1-0.1-0.1-0.1-0.2-0.1z"/>
		<path class="s1" d="m507.2 663.7c0 9.5 0 18 0.1 26.4q0 0.1 0 0.2 0 0.1 0.1 0.2 0 0.1 0 0.2 0.1 0.1 0.1 0.2 0 0.1 0.1 0.2 0 0.1 0 0.2 0.1 0.1 0.1 0.2 0.1 0.1 0.1 0.2 0.1 0.1 0.1 0.2 0.1 0 0.1 0.1 0.1 0.1 0.2 0.2 0 0 0.1 0.1 0.1 0.1 0.2 0.2 0.1 0 0.1 0.1 0.1 0.1 0.2 0.2 0.1 0 0.2 0.1c4.8 2.3 9.8 4.4 15.3 6.8 0-9.3 0-17.9-0.1-26.4l-0.2-0.8q0-0.1-0.1-0.2 0 0-0.1-0.1 0-0.1-0.1-0.2 0 0-0.1-0.1 0-0.1-0.1-0.2 0 0-0.1-0.1 0-0.1-0.1-0.2 0 0-0.1-0.1-0.1-0.1-0.1-0.1-0.1-0.1-0.2-0.2-0.1 0-0.1-0.1-0.1 0-0.2-0.1c-4.7-2.3-9.5-4.4-15.4-7.1z"/>
		<path class="s1" d="m538.1 706.4c4.7 1.7 9.5 3.3 14.9 5.1 0-9.5 0-18.1-0.1-26.7q0-0.1-0.1-0.2 0-0.1 0-0.2-0.1-0.1-0.1-0.2-0.1-0.1-0.1-0.2 0-0.1-0.1-0.2 0-0.1-0.1-0.2 0-0.1-0.1-0.2 0-0.1-0.1-0.2-0.1-0.1-0.1-0.2-0.1 0-0.1-0.1-0.1-0.1-0.2-0.2 0 0-0.1-0.1-0.1-0.1-0.2-0.1 0-0.1-0.1-0.2-0.1 0-0.2-0.1-0.1-0.1-0.2-0.1c-4.4-2.2-9-4.1-14-6.4v28.5q0 0.1 0 0.2 0 0 0 0.1 0 0.1 0.1 0.2 0 0 0 0.1l0.2 0.6q0 0 0 0z"/>
		<path class="s1" d="m574.9 692.9c-5-2.4-10.1-4.7-15.6-7.1 0 9.2-0.1 17.6 0.1 26.1 0 0.9 1.2 2.1 2.1 2.5 4.5 1.7 9.1 3.1 14.8 5v-23.9q0-0.1 0-0.2 0-0.1 0-0.2 0 0-0.1-0.1 0-0.1 0-0.2 0-0.1-0.1-0.2 0-0.1 0-0.2-0.1-0.1-0.1-0.2-0.1-0.1-0.1-0.2l-0.4-0.6q-0.1-0.1-0.1-0.1-0.1-0.1-0.2-0.2-0.1 0-0.1-0.1-0.1 0-0.2-0.1z"/>
		<path class="s1" d="m521.9 737.8c-4.9-2.2-9.9-4-15.7-6.4 0 8.7 0 16.5 0.1 24.3 0 1 0.7 2.7 1.4 3 5 2 10 3.6 15.9 5.7 0-8.5 0-16.2-0.1-23.8q0-0.1 0-0.2 0-0.1 0-0.3-0.1-0.1-0.1-0.2 0-0.1-0.1-0.2 0-0.1-0.1-0.2 0-0.1 0-0.2-0.1-0.1-0.1-0.1 0-0.1-0.1-0.2 0-0.1-0.1-0.2-0.1-0.1-0.1-0.2-0.1-0.1-0.2-0.1 0-0.1-0.1-0.2-0.1-0.1-0.1-0.1-0.1-0.1-0.2-0.2-0.1 0-0.1-0.1-0.1 0-0.2-0.1z"/>
		<path class="s1" d="m522.3 706.1c-4.8-2.4-9.8-4.4-15.7-7v23.8q0 0.1 0.1 0.2 0 0.1 0 0.2 0.1 0 0.1 0.1 0.1 0.1 0.1 0.2 0 0.1 0.1 0.2 0 0 0 0.1 0.1 0.1 0.1 0.2 0.1 0 0.1 0.1 0.1 0.1 0.1 0.2 0.1 0 0.1 0.1 0.1 0.1 0.2 0.2 0 0 0.1 0.1l0.6 0.4c4.8 2.1 9.7 4 15.9 6.5 0-8.2 0.1-15.3-0.1-22.3q0-0.1 0-0.3 0-0.1 0-0.2 0-0.1-0.1-0.3 0-0.1 0-0.2-0.2-0.5-0.4-0.9l-0.6-0.8q-0.1-0.1-0.2-0.2-0.1 0-0.1-0.1-0.1-0.1-0.2-0.2-0.1 0-0.2-0.1z"/>
		<path class="s1" d="m520.6 654.3c-0.3-1-0.7-2.3-1.4-2.7-9.8-5.4-19.7-10.8-28.7-15.7-2.5 2-4.3 3.4-6 5-0.8 0.7-2.2 1.5-2.1 2.2l0.2 0.8q0 0.1 0.1 0.2 0.1 0.1 0.1 0.2 0.1 0.1 0.2 0.1 0 0.1 0.1 0.2 0 0.1 0.1 0.2 0.1 0.1 0.1 0.2 0.1 0 0.2 0.1 0.1 0.1 0.2 0.1 0.1 0.1 0.2 0.1 0 0.1 0.1 0.2 0.1 0 0.2 0.1 0.1 0.1 0.2 0.1c5.9 2.9 11.9 5.6 17.9 8.4l20.8 9.8c-1-3.7-1.7-6.7-2.5-9.6z"/>
		<path class="s1" d="m559.4 773.1q0 0.1 0 0.2 0 0.1 0.1 0.2 0 0.1 0 0.2 0.1 0.1 0.1 0.2 0 0.1 0.1 0.2 0 0.1 0 0.2 0.1 0.1 0.1 0.2 0.1 0.1 0.1 0.2 0.1 0.1 0.1 0.2 0.1 0 0.1 0.1 0.1 0.1 0.2 0.2 0 0 0.1 0.1 0.1 0.1 0.1 0.2 0.1 0.1 0.2 0.1 0 0.1 0.1 0.2 0.1 0 0.2 0.1c4.7 2 9.4 3.6 14.5 5.5v-24.9l-16.1-5.4c0 7.9-0.1 14.9 0 22z"/>
		<path class="s1" d="m573.5 725.4c-4.4-1.7-9-3.1-14.2-4.8v21.5q0.1 0.4 0.2 0.7 0 0.1 0 0.2 0 0.1 0 0.2 0.1 0.1 0.1 0.1 0 0.1 0.1 0.2l0.4 0.6q0.1 0.1 0.1 0.1 0.1 0.1 0.2 0.2 0.1 0 0.1 0.1 0.1 0 0.2 0.1c4.8 1.8 9.7 3.4 15.1 5.2 0-7.6 0.1-14.3-0.1-21q-0.1-0.5-0.2-1-0.1-0.1-0.1-0.3-0.1-0.1-0.1-0.2-0.1-0.1-0.2-0.3 0-0.1-0.1-0.2-0.1-0.1-0.2-0.2 0-0.1-0.1-0.2-0.1-0.1-0.2-0.2-0.1-0.1-0.2-0.2z"/>
		<path class="s1" d="m551.3 717.9c-4.4-1.7-9-3.1-14.2-4.9 0 7.8-0.1 14.5 0.1 21.3q0 0.1 0 0.2 0 0.1 0.1 0.3 0 0.1 0 0.2 0.1 0.1 0.1 0.2 0 0.1 0.1 0.2 0 0.1 0.1 0.2 0 0.1 0.1 0.2 0 0.1 0.1 0.2 0 0.1 0.1 0.2 0.1 0.1 0.1 0.2 0.1 0.1 0.2 0.1 0 0.1 0.1 0.2 0.1 0.1 0.2 0.2 0.1 0.1 0.2 0.1 0.1 0.1 0.2 0.2 0.1 0 0.2 0.1c4.4 1.8 8.9 3.1 13.9 4.8 0-7.6 0-14.5-0.1-21.4q0-0.1 0-0.2 0-0.1-0.1-0.2 0-0.1 0-0.2-0.1-0.1-0.1-0.2 0-0.1-0.1-0.2 0-0.1 0-0.2-0.1-0.1-0.1-0.2-0.1-0.1-0.1-0.2 0-0.1-0.1-0.2-0.1-0.1-0.1-0.2-0.1-0.1-0.2-0.1 0-0.1-0.1-0.2-0.1-0.1-0.1-0.1-0.1-0.1-0.2-0.2-0.1 0-0.1-0.1-0.1 0-0.2-0.1z"/>
		<path class="s1" d="m550.9 748.3c-4.3-1.6-8.7-3-13.2-4.4 0 7.4 0 14.1 0.1 20.9q0 0.1 0 0.2 0 0.1 0 0.2 0 0 0.1 0.1 0 0.1 0 0.2 0.1 0.4 0.2 0.7 0 0.1 0.1 0.2 0 0.1 0.1 0.2 0 0 0.1 0.1 0 0.1 0.1 0.2l0.5 0.5c4.4 1.9 8.9 3.5 14 5.4 0-7.8 0-14.8-0.1-21.9q0-0.1-0.1-0.2 0-0.1 0-0.2-0.1-0.1-0.1-0.2-0.1-0.1-0.1-0.2 0-0.1-0.1-0.2 0-0.1-0.1-0.2 0 0-0.1-0.1 0-0.1-0.1-0.2l-0.6-0.6q-0.1-0.1-0.2-0.1 0-0.1-0.1-0.2-0.1 0-0.2-0.1-0.1-0.1-0.2-0.1z"/>
		<path class="s1" d="m570.4 677.9q-0.2-0.4-0.4-0.9-0.1-0.1-0.1-0.2-0.1-0.1-0.2-0.2-0.1 0-0.1-0.1-0.1-0.1-0.2-0.2-0.1-0.1-0.1-0.2-0.1-0.1-0.2-0.2-0.1 0-0.1-0.1-0.1-0.1-0.2-0.2l-0.8-0.6c-8.3-4.2-16.7-8.2-24.7-12.1l-6.9 5.6 37.4 16.9c-1.2-2.8-2.2-5.2-3.4-7.5z"/>
		<path class="s1" d="m530 766.9h0.8v-73.3h-0.8z"/>
		<path class="s1" d="m439.1 633.3c-6.7-3.5-13.4-6.7-21.4-10.6v30.7q0.1 0.3 0.2 0.7 0 0.1 0.1 0.2 0 0.1 0 0.2 0.1 0 0.1 0.1 0.1 0.1 0.1 0.2 0 0.1 0.1 0.1 0.1 0.1 0.1 0.2 0.1 0 0.2 0.1 0 0.1 0.1 0.1 0.1 0.1 0.1 0.1 0.1 0.1 0.2 0.2 0.1 0 0.1 0.1 0.1 0 0.2 0.1c6.7 3 13.4 5.9 21.4 9.3 0-10.2 0.1-19.2-0.1-28.3 0-1.2-0.6-3.1-1.5-3.5z"/>
		<path class="s1" d="m467.1 646.8c-6.4-3.2-13-6.2-20.9-10v28.5c0 0.9 0.3 2.2 0.8 2.5 6.9 3.1 13.8 6.1 21.5 9.4 0-10 0-19-0.1-27.9q0-0.1 0-0.2 0-0.1 0-0.2 0 0-0.1-0.1 0-0.1 0-0.2-0.1-0.4-0.2-0.7 0-0.1-0.1-0.2 0-0.1-0.1-0.1-0.1-0.1-0.1-0.2-0.1 0-0.2-0.1 0-0.1-0.1-0.1-0.1-0.1-0.1-0.2-0.1 0-0.2-0.1 0-0.1-0.1-0.1z"/>
		<path class="s1" d="m437.3 705.5c-6.6-2.8-13.3-5.4-21.1-8.5 0 10 0 19 0.1 28.1q0 0.1 0 0.2 0 0.1 0.1 0.2 0 0 0 0.1 0.1 0.1 0.1 0.2 0 0.1 0.1 0.2 0 0.1 0 0.2 0.1 0 0.1 0.1 0.1 0.1 0.1 0.2 0 0.1 0.1 0.1 0.1 0.1 0.1 0.2 0.1 0 0.2 0.1 0 0.1 0.1 0.1 0.1 0.1 0.1 0.2 0.1 0 0.2 0.1 0 0.1 0.1 0.1 0.1 0.1 0.2 0.1c6.4 2.2 13 4.2 20 6.5 0.3-9 0.8-17.2 1-25.5q-0.1-0.5-0.2-0.9 0-0.1-0.1-0.2 0-0.1 0-0.2-0.1-0.1-0.1-0.2-0.1-0.1-0.1-0.2 0-0.1-0.1-0.2-0.1-0.1-0.1-0.2-0.1-0.1-0.2-0.1 0-0.1-0.1-0.2z"/>
		<path class="s1" d="m438 671.1c-6.6-3-13.4-5.8-21.3-9.2 0 9 0 17 0.1 25 0 1.3 0.7 3.4 1.5 3.8 6.6 2.9 13.3 5.4 20.6 8.4 0.3-8.9 0.6-17 0.8-25q0-0.1 0-0.2 0-0.1 0-0.3 0-0.1-0.1-0.2 0-0.1 0-0.2-0.2-0.4-0.4-0.8 0-0.1-0.1-0.2-0.1-0.1-0.1-0.2-0.1-0.1-0.2-0.1 0-0.1-0.1-0.2-0.1-0.1-0.2-0.2-0.1 0-0.1-0.1-0.1-0.1-0.2-0.2-0.1 0-0.2-0.1z"/>
		<path class="s1" d="m465.8 717c-6.7-2.9-13.6-5.6-21.3-8.6v27.9l23.1 7.5c0-8.7 0.1-16.4-0.1-24q0-0.1 0-0.2 0-0.1 0-0.2 0-0.1-0.1-0.2 0-0.1 0-0.2 0-0.1-0.1-0.2 0-0.1-0.1-0.2 0-0.1-0.1-0.2 0-0.1-0.1-0.2-0.1-0.2-0.2-0.4-0.1-0.1-0.3-0.3-0.2-0.2-0.3-0.3-0.2-0.1-0.4-0.2z"/>
		<path class="s1" d="m463.2 625.7q0-0.1 0-0.2 0-0.1-0.1-0.2 0-0.1 0-0.2-0.1-0.1-0.1-0.2 0-0.1-0.1-0.2 0-0.1 0-0.2-0.1-0.1-0.1-0.1 0-0.1-0.1-0.2 0-0.1-0.1-0.2-0.1-0.1-0.1-0.2-0.1-0.1-0.2-0.1 0-0.1-0.1-0.2l-0.6-0.6c-12-6-24-11.9-35.1-17.4-2.2 2.8-3.6 4.9-5.3 6.9q-0.1 0.1-0.1 0.1-0.1 0.1-0.2 0.2-0.1 0-0.1 0.1-0.1 0-0.2 0.1-0.1 0.1-0.2 0.1-0.1 0.1-0.2 0.2 0 0.1-0.1 0.1-0.1 0.1-0.2 0.2-0.1 0.1-0.2 0.1-0.1 0.1-0.2 0.2-0.1 0-0.2 0.1-0.1 0-0.2 0.1-0.3 0.2-0.7 0.5c1 0.9 1.8 2.2 3 2.8q21.1 10.5 42.2 20.8c1.6 0.7 3.1 1.4 5.9 2.7-0.9-2.3-1.1-3.7-1.8-4.3q-0.3-0.2-0.6-0.5-0.3-0.2-0.6-0.5-0.3-0.3-0.5-0.6-0.3-0.3-0.5-0.6-0.2-0.3-0.4-0.6-0.2-0.3-0.4-0.7-0.2-0.3-0.4-0.6-0.2-0.4-0.3-0.7-0.1-0.4-0.2-0.7-0.2-0.4-0.3-0.7-0.1-0.4-0.1-0.8-0.1-0.3-0.2-0.7 0-0.4-0.1-0.8 0-0.4 0-0.8 0-0.3 0-0.7 0.1-0.4 0.1-0.8z"/>
		<path class="s1" d="m446.3 702c6.9 2.9 13.8 5.6 21.3 8.6v-26.8l-22.4-9.6v25c0 1 0.5 2.5 1.1 2.8z"/>
	</g>
</svg>