<svg version="1.2" xmlns="http://www.w3.org/2000/svg" viewBox="0 0 1210 1210" width="1210" height="1210">
	<title>19-shtepi-banimi-01-svg</title>
	<style>
		.s0 { fill: #000000 } 
		.s1 { fill: #ffffff } 
	</style>
	<g id="Black">
		<path class="s0" d="m0 0h1210v1210h-1210z"/>
	</g>
	<g id="Color">
		<path class="s1" d="m644.2 479.3c-0.2-5.9 0-12 0.3-17.9 0.2-8.5 0.5-17.3-0.3-25.8-18.9-5-36-9.2-42.2-10.8 0.1 8.8-0.2 23.5-0.5 37.7-0.1 6.6-0.2 13-0.3 18.6 3.5 0 13.3 1.1 43.3 6.9q-0.2-4.3-0.3-8.7z"/>
		<path class="s1" d="m212.4 491.2c-2.7 6.6-0.8 25.4 0.7 39.1 0.6 6.7 1.2 12.5 1.2 16v3q2.8-1 5.6-2.1 2.7-1.1 5.5-2.3 2.7-1.2 5.3-2.5 2.7-1.3 5.3-2.7h0.1c0.4-21.7 0.7-43.4 0.8-61.2l-24.7 11.2q0.1 0.1 0.2 0.3 0 0.2 0.1 0.4 0 0.2 0 0.4-0.1 0.2-0.1 0.4z"/>
		<path class="s1" d="m945.9 615.3c-0.2-2.5-0.4-4.2-0.4-5-0.1-2.2-0.2-4.6-0.3-7.3l-31.2-6c0.1 3.9 0.1 7.7 0.2 11.4 0.2 13.4 0.4 26.2 0.6 30.5l32.2 5.4c0.8-5.1-0.6-22.8-1.1-29z"/>
		<path class="s1" d="m692.9 479.8c-0.2 5.6-0.4 11.5-0.4 17.1v1c15.2 3.3 33.3 7.3 40.5 9.5-0.3-17.9-0.1-34 0.9-44.3l-0.6-0.2c-6-1.4-20.2-4.7-26.3-7.6q-1.8-0.8-3.5-1.5-1.8-0.8-3.6-1.5-1.8-0.7-3.6-1.3-1.8-0.6-3.6-1.2c1 10 0.6 20.2 0.2 30z"/>
		<path class="s1" d="m194 620.6c0.4 6.1 0.4 12.4 0.3 18.7 6-2.3 12-4.4 17.3-6.3-0.2-6.4-0.3-12-0.1-15.5 0.7-14.4 0.2-29-0.4-43.2-0.2-6.4-0.5-13-0.6-19.5-5.9 2.2-12 4.5-17.6 7.1-1.1 0.5-2.1 1-3.2 1.4 0.5 12.1 1.5 24.1 2.6 36 0.6 6.9 1.2 14.1 1.7 21.3z"/>
		<path class="s1" d="m981.2 649.2v0.7l29.6 4.9c-0.5-6.2-0.9-21.6-1.2-39.5l-28.3-5.4c-0.1 12.8-0.1 26.2-0.1 39.3z"/>
		<path class="s1" d="m696.2 601c19.2 2.5 35.3 4.6 40.8 5.3-0.1-4.1-0.5-12.5-1-23.5-0.3-5.5-0.6-11.6-0.9-18.1-3.2-0.4-21.4-3-41.7-5.9 0.5 14.1 1.3 28.3 2.8 42.2z"/>
		<path class="s1" d="m692.5 505.1c0.1 16.4 0.2 33.1 0.7 49.7 19.4 2.8 37 5.3 41.7 5.9-0.7-15.6-1.4-33-1.8-49.3-4-1.3-20.5-5.1-40.6-9.5z"/>
		<path class="s1" d="m977.4 609.1l-28.2-5.4q0.1 3.5 0.2 6.4c0 0.7 0.2 2.6 0.4 4.9 1.2 14.7 1.8 25.1 1.1 29.9l26.4 4.4v-0.1c0-8.5 0-23.6 0.1-40.1z"/>
		<path class="s1" d="m648.4 461.6c-0.2 5.8-0.4 11.8-0.3 17.6q0.1 4.8 0.3 9.6c6 1.2 12.7 2.5 20.2 4.1 0.2 0 8.9 1.8 20 4.2v-0.1c0-5.8 0.2-11.6 0.4-17.3 0.4-10 0.8-20.4-0.3-30.4q0-0.1 0-0.2 0-0.1 0-0.2 0-0.1 0-0.2 0.1-0.1 0.1-0.2c-11.7-3.8-26.5-8-40.5-11.8q0.1 3.1 0.2 6.2 0.1 3.1 0.2 6.3 0 3.1-0.1 6.2-0.1 3.1-0.2 6.2z"/>
		<path class="s1" d="m977.6 566l-28.7-5.7c0 13.9 0 28.4 0.2 39.5l28.3 5.4c0.1-13.4 0.1-27.4 0.2-39.2z"/>
		<path class="s1" d="m586 669.8c32.2 3.9 381.1 51.2 408.7 56.5 10.2 2 23.4 4.3 28.7 4.5q1-1.3 2-2.6 1.1-1.2 2.3-2.3 1.2-1.1 2.5-2.1 1.3-1 2.7-1.9c0.5-0.3 1.5-0.7 2.9-1.4q0.9-0.4 1.9-0.8 0.9-0.5 1.8-0.9 1-0.5 1.9-1 0.9-0.5 1.8-1c-1.1-0.1-2.3-0.2-3-0.3q-0.4 0-0.8 0-0.4 0-0.8-0.1-0.4 0-0.8 0-0.4-0.1-0.8-0.1-0.9-0.3-1.7-0.5-0.9-0.3-1.7-0.6-0.9-0.2-1.7-0.5-0.8-0.4-1.7-0.7-0.9-0.4-1.8-0.7-0.9-0.4-1.9-0.6-0.9-0.3-1.9-0.6-0.9-0.2-1.9-0.4c-25.5-5-299.7-49.4-354.4-54.2-4.3-0.4-10.6-2-18.6-4-29.1-7.3-77-19.4-98.2 10.7 4.6 0.2 12.7 1.5 26.6 4.1 3.6 0.8 6.7 1.3 7.9 1.5z"/>
		<path fill-rule="evenodd" class="s1" d="m548.9 661.3q0.3-2.3 0.3-4.6 0-0.4-0.2-0.7-0.2-0.4-0.4-0.6-0.3-0.3-0.7-0.4-0.3-0.2-0.7-0.2-0.2 0-0.3 0.1-0.2 0-0.3 0-0.2 0.1-0.3 0.2-0.2 0-0.3 0.1c-0.1-1-0.2-1.7-0.2-2q-0.2-1-0.4-2-0.1-1-0.2-2.1 0-1-0.1-2 0-1 0-2c1-0.2 2-0.9 3.6-2.1 1.6-1.2 3.8-2.9 6.4-4.9 10.2-7.8 27.3-21 34.6-23.3q0.2-0.1 0.4-0.2 0.2-0.1 0.4-0.2 0.1-0.2 0.2-0.4 0.2-0.1 0.2-0.3 0.1-0.2 0.2-0.5 0-0.2 0-0.4 0-0.2-0.1-0.4 0-0.2-0.2-0.4c-1.7-3.1-4-11.1-4.7-13.9q0-0.2-0.1-0.4-0.1-0.2-0.3-0.4-0.1-0.1-0.3-0.3-0.2-0.1-0.4-0.2-0.2-0.1-0.5-0.1-0.2 0-0.4 0-0.2 0-0.5 0.1-0.2 0-0.4 0.2c-4.7 2.7-15 9-24 14.8-9.2 5.8-13.6 8.8-15.8 10.5-1.4-11.8-0.9-24.7-0.4-37.2 0.3-6.4 0.5-12.5 0.5-18.5v-8.1c9.1-5.4 29.4-17.1 44-21.5q0.3-0.1 0.6-0.3 0.2-0.1 0.4-0.4 0.2-0.3 0.3-0.6 0.1-0.3 0.1-0.6c0-0.6-0.4-14.5-1.9-21.5q-0.1-0.2-0.2-0.4-0.1-0.2-0.2-0.4-0.2-0.2-0.4-0.3-0.2-0.2-0.4-0.3-0.2-0.1-0.4-0.1-0.3 0-0.5 0-0.2 0-0.5 0.1-0.2 0-0.4 0.2c-6.6 4-13.2 8-19.6 12-6.8 4.2-13.8 8.5-20.8 12.7 0.3-26.7 0.7-53.5 1.3-80.2 4.8-3.8 11-7.2 17-10.6 4.4-2.3 8.5-4.6 12-7q0.7-0.4 1.4-0.9 0.6-0.5 1.2-1 0.6-0.5 1.3-1 0.6-0.5 1.1-1.1c2.5-2.2 4.9-4.2 7.7-5.2q0.2-0.1 0.5-0.3 0.2-0.2 0.4-0.4 0.1-0.2 0.2-0.5 0.1-0.2 0.2-0.5 0.1-1.4 0.1-2.8 0-1.4 0-2.8 0-1.4-0.1-2.8-0.1-1.4-0.2-2.8c-0.1-1.4-0.3-2.9-0.3-4.7q0-0.2-0.1-0.4-0.1-0.2-0.2-0.4-0.1-0.2-0.3-0.4-0.1-0.2-0.3-0.3-0.2-0.1-0.5-0.2-0.2-0.1-0.4-0.1-0.3 0-0.5 0-0.2 0.1-0.4 0.1c-7.2 3-13.5 7.7-19.7 12.2-6.4 4.8-12.5 9.3-19.6 12 0.4-18.6 0.9-37.2 1.4-55.5l0.1-2.7c14.3-6.6 20.9-2.9 30 2.1 6 3.4 12.7 7.2 23 8.8 9.3 1.5 18.6 4.1 27.7 6.7 10.1 2.8 20.5 5.7 31 7.1 17.4 2.4 37.9 7.8 60.7 16q0.9 0.4 1.8 0.8 0.9 0.3 1.7 0.8 0.9 0.4 1.7 0.8 0.9 0.4 1.7 0.9c4.1 2.1 8.2 4.3 12.7 4.9 39.3 5.4 78.3 16.9 116 27.9 30.1 8.9 61.3 18 92.3 24 23.8 4.6 75.6 20.3 87.8 40.4q0 0.5 0.1 1 0.1 0.6 0.2 1.1 0 0.5 0.2 1 0.1 0.5 0.2 1c0.5 2.4 1.2 5.2 1.9 8 0.7 3 1.4 5.8 1.6 7q0.9 5.6 1.6 11.1 0.7 5.6 1.2 11.2 0.4 5.6 0.6 11.2 0.2 5.6 0.2 11.2v67.3c0 21.4 0 42.8 0 63.8l-2.3-0.2c-1-0.1-2.3-0.2-2.6-0.2q-0.8-0.2-1.5-0.4-0.8-0.3-1.6-0.5-0.8-0.3-1.6-0.6-0.7-0.3-1.5-0.6-1-0.4-2-0.8-1-0.3-2.1-0.7-1-0.3-2-0.5-1.1-0.3-2.1-0.5c-25.5-4.9-300-49.5-354.8-54.3-4-0.3-10.5-1.9-18-3.8-29.9-7.6-79-20-101.8 11.5zm360.2-110.8c0.4 8.5 0.8 35.9 1.2 58 0.3 19.7 0.5 31 0.7 32.3q0 0.3 0.1 0.6 0.2 0.2 0.4 0.5 0.2 0.2 0.5 0.4 0.3 0.1 0.6 0.2c10.1 1.6 98.7 16.4 100.1 16.6h0.3q0.2 0 0.4 0 0.2-0.1 0.4-0.2 0.2 0 0.3-0.2 0.2-0.1 0.3-0.2 0.2-0.2 0.3-0.4 0.1-0.2 0.2-0.5 0-0.2 0-0.4 0-0.3 0-0.5c-1.1-4.2-2.1-78.6-2.4-127.6q-0.1-0.3-0.1-0.6-0.1-0.3-0.3-0.5-0.2-0.3-0.4-0.5-0.3-0.1-0.6-0.2-0.7-0.3-1.4-0.5-0.7-0.2-1.4-0.4-0.7-0.2-1.4-0.3-0.7-0.2-1.4-0.4c-7.6-1.7-92.9-24.7-93.7-25q-0.2 0-0.5 0-0.2 0-0.4 0-0.2 0-0.4 0.1-0.2 0.1-0.4 0.3-0.2 0.1-0.4 0.3-0.1 0.1-0.2 0.3-0.1 0.2-0.1 0.5-0.1 0.2-0.1 0.4c0.1 6.4-0.1 13-0.2 19.3-0.3 9.4-0.5 19.1 0 28.6zm-128-83.6q-0.1 0.2-0.2 0.4-0.1 0.2-0.1 0.4-0.1 0.2-0.1 0.4c0 9.5 0.7 19.4 1.3 28.9 0.6 7.7 1.1 15.9 1.3 23.7 0.3 11.6 0.5 31.4 0.7 50.5 0.2 22.5 0.4 42 0.7 45.7q0 0.1 0 0.2 0 0.1 0.1 0.2 0 0 0 0.1 0 0.1 0.1 0.2 0.1 0.2 0.2 0.4 0.2 0.2 0.4 0.3 0.1 0.2 0.3 0.3 0.2 0.1 0.5 0.2l0.3 0.2c2 1.1 12.5 2.8 25.5 4.6q0 0 0 0 0.1 0 0.1 0 0.1 0 0.1 0 0 0 0.1 0h0.2c20.4 2.8 46.4 5.7 54 6.6h0.2q0.2 0 0.4-0.1 0.2 0 0.4-0.1 0.2-0.1 0.4-0.2 0.1-0.1 0.3-0.3 0.1-0.1 0.2-0.3 0.1-0.2 0.2-0.4 0-0.2 0-0.4 0.1-0.2 0-0.5c-0.4-3.9-3.7-102.1-2-131.4q0-0.2 0-0.4 0-0.3-0.1-0.4-0.1-0.2-0.2-0.4-0.1-0.2-0.3-0.3-0.1-0.2-0.3-0.3-0.2-0.1-0.4-0.2-0.2 0-0.4-0.1-0.2 0-0.4 0c-3.1 0.3-25.8-8.3-42.4-14.5-17.6-6.7-34.3-13-39.3-13.7q-0.2-0.1-0.4 0-0.2 0-0.4 0-0.2 0.1-0.4 0.2-0.1 0.1-0.3 0.2-0.2 0.2-0.3 0.3zm-184 25.9c0.1 8.1 0.5 29 1 49.3 0.5 24.2 1.1 47.6 1.1 48q0 0.4 0.1 0.7 0.1 0.3 0.4 0.5 0.2 0.3 0.5 0.5 0.3 0.1 0.6 0.2c1 0.2 134.5 18.3 138.1 18.4q0.3 0 0.7-0.2 0.3-0.1 0.6-0.4 0.3-0.3 0.5-0.6 0.1-0.3 0.2-0.7c0.1-2.7-0.4-12.4-1-25.9-1.8-36.3-4.8-97-1.9-120.7q0-0.4 0-0.7-0.1-0.4-0.3-0.7-0.2-0.3-0.5-0.5-0.3-0.2-0.6-0.3l-2.4-0.5c-5.4-1.3-19.8-4.6-25.5-7.4-22.1-10.6-104.8-30.5-108.3-31.3q-0.1 0-0.1 0-0.1-0.1-0.1-0.1-0.1 0-0.1 0.1-0.1 0-0.1 0-0.4 0-0.8 0.1-0.4 0.2-0.6 0.4-0.3 0.3-0.5 0.7-0.1 0.4-0.1 0.8c0.3 8.1-0.1 24.3-0.4 40-0.2 12-0.5 23.3-0.5 30.3z"/>
		<path class="s1" d="m215.1 574.1c0.5 14.3 1.1 29 0.3 43.6-0.2 3.2-0.1 8.2 0.1 13.9 8.6-3 15.2-5.3 17.7-6q0.3-0.1 0.5-0.1 0.3 0 0.5 0.1 0.3 0.1 0.5 0.2 0.2 0.1 0.4 0.3c0-1.7 0-3.3 0-4.7 0-20.6 0.4-47.1 0.9-72.8 0-1.5 0-3 0.1-4.6q-2.7 1.4-5.3 2.6-2.7 1.3-5.4 2.4-2.7 1.2-5.5 2.3-2.7 1.1-5.5 2.1c0.1 6.9 0.4 13.9 0.7 20.7z"/>
		<path class="s1" d="m211.8 637c-5.5 2-11.4 4.1-17.5 6.4v1.8c-0.1 4-0.2 8.2-0.2 12.2v2c-0.2 11.8 0.1 16.5 0.5 18.2q0.1 0 0.1 0.1 0.1 0 0.2 0.1 0.1 0 0.2 0.1 0.1 0.1 0.1 0.2l0.2 0.3c2.8-0.7 5.8-1.4 9-2.2 2.7-0.6 5.8-1.3 9.1-2.2 0-5-0.4-12.9-0.9-21.3-0.3-5.1-0.6-10.5-0.8-15.7z"/>
		<path class="s1" d="m944.9 559.4c-14.9-3-27.1-5.3-31.8-6.3 0.3 8.2 0.6 24 0.9 39.9l31.2 6c-0.3-11.2-0.3-25.7-0.3-39.6z"/>
		<path class="s1" d="m644.7 543.3c1.6-15.4 0.9-31.2 0.2-46.4q-0.1-2.4-0.3-4.9c-21.6-4.3-39.7-7.4-43.5-7.1v7.9c0.1 7.8 0.5 27.8 1 47.6 6.3 1.1 30.1 5.1 42.4 7.1 0-1.6 0.1-3 0.2-4.2z"/>
		<path class="s1" d="m190.1 620.8c-0.5-7.1-1.1-14.3-1.7-21.2-1-11.4-2-23-2.5-34.7q-2.9 1.2-5.9 2.3-3 1.1-6 2.2-3 1-6 1.9-3.1 1-6.1 1.9c0.6 18.4 0.6 36.9 0.6 55v3.7q0 2.2 0.1 4.4 0.1 2.3 0.3 4.5 0.1 2.2 0.4 4.3 0.2 2.2 0.5 4.4l0.1 1c8-3 17.3-6.4 26.5-9.8 0.1-6.6 0.2-13.3-0.3-19.9z"/>
		<path class="s1" d="m190.1 659.3v-1.8c0-4.1 0.1-8.3 0.2-12.3v-0.3c-9.1 3.3-18.2 6.7-26 9.6q0.2 1.6 0.4 3.2 0.1 1.6 0.2 3.2 0.1 1.6 0.2 3.2 0 1.6 0 3.2c0 2.8 1.4 16.6 1.9 20.4q0 0.1 0 0.1 0.1 0.1 0.1 0.2 0 0 0.1 0.1 0 0.1 0 0.2c6.6-2.3 13.6-5 18.5-7q0.6-0.3 1.3-0.5 0.6-0.3 1.3-0.5 0.6-0.2 1.3-0.4 0.7-0.2 1.3-0.4c-0.7-2.1-1.1-7.1-0.8-20.2z"/>
		<path class="s1" d="m215.7 635.6c0.2 5.5 0.5 11.4 0.8 17 0.4 7.9 0.7 15.4 0.9 20.5 8.9-2.3 17.8-5 19.2-7.2 0-6-0.4-14.2-0.8-22-0.2-5.2-0.4-10.4-0.6-15.1q-0.1 0.1-0.2 0.2-0.1 0-0.2 0.1-0.1 0.1-0.3 0.1-0.1 0.1-0.2 0.1c-2.6 0.7-9.6 3.1-18.6 6.3z"/>
		<path class="s1" d="m789.6 567.7q0.8-0.1 1.5 0 0.8 0 1.5 0 0.8 0.1 1.5 0.2 0.7 0 1.5 0.1 5.7 1.3 11.5 2.4l1.6 0.4c-0.2-6.9-0.4-13.7-0.7-20.4-0.4-8-0.7-16.1-0.9-24.3l-2.4-0.6-5.8-1.5c-3.5-0.9-10.8-3.8-11.1-3.9q-0.1 0-0.2-0.1 0 0-0.1-0.1-0.1 0-0.2-0.1 0 0-0.1-0.1v0.9c0.3 10.9 0.4 28.9 0.6 46.9q0.2 0 0.3 0 0.1 0 0.3 0 0.1 0 0.2 0.1 0.1 0 0.2 0.1z"/>
		<path class="s1" d="m810.3 495c0.3 3.3 0.6 6.8 0.5 9.9-0.1 6.1 0 12.2 0.1 18.3q3.2 0.8 6.4 1.6 3.2 0.9 6.3 1.9 3.2 0.9 6.3 1.9 3.1 1.1 6.2 2.2c-0.2-23-0.3-41.2-0.3-41.2q0-0.1 0-0.1 0-0.1 0-0.1 0-0.1 0-0.1 0-0.1 0-0.1c-4.5-1.7-9.5-3.6-15-5.7l-10.7-4q0 0.1 0 0.1 0 0.1 0 0.1 0 0 0 0.1 0 0 0 0.1c-0.8 4.4-0.3 9.8 0.2 15.1z"/>
		<path class="s1" d="m789.3 516.5c0.1 0 7.3 2.9 10.6 3.8l5.8 1.5 1.3 0.3q-0.2-8.6-0.1-17.3c0-3-0.2-6.1-0.5-9.5-0.5-5.5-1-11.1-0.2-16.2q0.1-0.1 0.1-0.2 0.1-0.2 0.1-0.3 0.1-0.1 0.2-0.2 0.1-0.2 0.1-0.3c-9.4-3.5-17.6-6.4-22-7.6 0.1 8.6 0.7 17.5 1.3 26.2 0.4 6.6 0.9 13.5 1.1 20.3q0.2-0.2 0.5-0.4 0.2-0.1 0.5-0.2 0.3 0 0.6 0 0.3 0 0.6 0.1z"/>
		<path class="s1" d="m857 538.1l4.1 1.3q0.8 0.3 1.3 0.5c-0.2-17-0.1-32.4 0.3-41.8-4-0.8-11.8-3.4-23-7.5 0.1 11.9 0.2 26.5 0.3 41.7 3.1 1.2 11.5 4 17 5.8z"/>
		<path class="s1" d="m810.3 614c-0.1-2.5-0.1-5.1-0.2-6.5-0.6-11-1-22.5-1.2-32.2v-0.6l-2.6-0.5q-5.7-1.2-11.5-2.4-0.7-0.1-1.3-0.1-0.7-0.1-1.3-0.1-0.7-0.1-1.3-0.1-0.7 0-1.3 0-0.2 0-0.4 0-0.2 0-0.4 0-0.2 0-0.5 0-0.2-0.1-0.4-0.1c0.2 20 0.4 38.8 0.7 44.2 1.7 0.8 10.3 2.2 21.9 3.8v-0.1c-0.1-1.4-0.2-3.3-0.2-5.3z"/>
		<path class="s1" d="m689.3 554.3c-0.5-16.5-0.6-33-0.7-49.2v-4c-12.9-2.8-27-5.7-40-8.3l0.2 3.9c0.7 15.4 1.4 31.3-0.2 47-0.1 1.2-0.2 2.7-0.3 4.5l1.5 0.2c11 1.7 25.5 3.8 39.5 5.9z"/>
		<path class="s1" d="m583.6 517.1c-5.7 3.5-11.5 7-17.1 10.5-7.5 4.6-15.2 9.4-22.9 14q0 6.2 0 12.3c9.5-5.6 27.5-15.7 41.3-20.2-0.1-3.1-0.5-11-1.3-16.6z"/>
		<path class="s1" d="m532.6 345.4c5.2 12.3 10.9 23.8 13 27.7 15.9-7.2 23.9-2.7 33.2 2.5 5.7 3.1 12.1 6.7 21.7 8.3 9.5 1.5 19 4.1 28.2 6.7 10 2.8 20.2 5.7 30.4 7.1 17.7 2.4 38.4 7.9 61.6 16.2q0.9 0.4 1.8 0.8 1 0.4 1.9 0.8 0.9 0.5 1.8 0.9 1 0.5 1.9 1c3.7 2 7.5 4 11.3 4.5 39.6 5.4 78.7 16.9 116.6 28 30.1 8.8 61.1 17.9 92 23.9 19.2 3.7 75.5 19 90 41.6 22.7-17.9 46.4-39 47.5-44.1-12.2-3.9-32.5-8.5-54-13.3-27.5-6.2-55.9-12.6-71-18.5-7-2.8-113.7-40.3-161.9-54.7-16.1-4.9-33-9.3-49.2-13.6-33-8.8-67.2-17.9-98.8-30.9-6.3-2.5-12.9-3.5-19.8-4.5-3.4-0.5-7-1-10.6-1.8-6.1-1.3-14.9-3.5-21.5-6.6-13.2-6-59.7-19.4-75.4-12l-0.1 0.1c-0.4 2.1 1.1 10.3 9.4 29.9z"/>
		<path class="s1" d="m571.8 436.1q0.6-0.4 1.1-0.9 0.6-0.4 1.2-0.9 0.5-0.4 1.1-0.9 0.5-0.5 1.1-1 0.8-0.8 1.7-1.6 0.9-0.8 1.9-1.5 1-0.7 2-1.3 1-0.6 2.1-1.2 0-1.1 0-2.3 0.1-1.2 0-2.3 0-1.2-0.1-2.4 0-1.1-0.2-2.3c0-0.7-0.1-1.3-0.1-2-5.8 2.8-11.1 6.7-16.2 10.6-6.6 4.9-13.4 9.9-21.2 12.8q-0.1 0-0.3 0-0.1 0.1-0.2 0.1-0.1 0-0.2 0-0.1 0-0.2 0-0.2 6.5-0.3 13 1.8-1.3 3.6-2.4 1.9-1.2 3.8-2.3 1.8-1.1 3.8-2.2 1.9-1.1 3.8-2.1c4.3-2.4 8.3-4.6 11.8-6.9z"/>
		<path class="s1" d="m644.3 551.4c-11.7-1.9-34.8-5.8-42.1-7 0.4 19.7 0.8 38.5 1 44 5.1 0.8 21.5 3 41.2 5.7-0.1-6.1-0.5-28.7-0.1-42.7z"/>
		<path class="s1" d="m861.8 543.8q-0.1-0.1-0.2-0.1-0.1 0-0.1 0-0.1-0.1-0.2-0.1-0.1 0-0.2-0.1c-0.7-0.2-3-1-5.3-1.8-5.2-1.6-11.9-3.8-15.7-5.3 0.1 13.8 0.2 27.8 0.3 40.4l6.9 1.3c1.4 0.3 3.3 0.6 5.4 0.9 3.6 0.5 7.6 1.1 10.5 1.9-0.3-12-0.5-24.9-0.7-37.2q-0.1 0-0.1 0-0.1 0-0.1 0 0 0-0.1 0 0 0-0.1 0 0 0-0.1 0 0 0 0 0-0.1 0-0.1 0.1-0.1 0-0.1 0z"/>
		<path class="s1" d="m961.4 558.8l16.3 3.2c0.1-13.3 0.2-23.2 0.4-25.3 0.1-2.1 0.8-11.5 0.9-13.4q0 0 0-0.1-0.1-0.1-0.1-0.2 0 0 0.1-0.1 0-0.1 0-0.2l-29.8-8c0 4.9-0.2 22.3-0.3 41.5z"/>
		<path class="s1" d="m649.2 552.2l-1-0.2c-0.4 14.3 0 37.7 0.1 42.6 14.2 1.9 29.7 4 43.9 5.8-1.4-13.9-2.3-28-2.8-42.2-14.2-2.1-29-4.3-40.2-6z"/>
		<path class="s1" d="m981.3 605.9l28.2 5.4c-0.2-12.7-0.4-26.5-0.5-39.1l-27.5-5.5c0 11.3-0.1 24.8-0.2 39.2z"/>
		<path class="s1" d="m982.5 529.4c-0.2 3.3-0.5 6.8-0.5 7.6-0.2 2-0.3 11.7-0.4 25.8l27.3 5.5c-0.2-17.4-0.3-32.1-0.4-37.8q-1.6-0.5-4-1c-2.1-0.5-10.6-2.7-21.6-5.7v1.2c-0.1 1.2-0.2 2.8-0.4 4.4z"/>
		<path class="s1" d="m846.5 581.9l-6.1-1.1c0.2 21.6 0.3 38.7 0.5 42.5 8.3 1 16.5 2 23.8 2.8-0.3-6.2-0.9-22.2-1.4-41.2q-1.4-0.4-2.8-0.7-1.4-0.3-2.8-0.5-1.4-0.3-2.8-0.5-1.4-0.2-2.8-0.4c-2.1-0.3-4.1-0.6-5.6-0.9z"/>
		<path class="s1" d="m836.9 618.5c-0.1-3.7-0.2-9-0.2-15.3-0.1-6.7-0.1-14.7-0.2-23.2l-1.8-0.3c-7.2-1.3-14.5-2.7-21.9-4.2 0.3 9.7 0.6 21 1.2 31.8 0.1 1.4 0.1 4 0.2 6.6 0 2 0.1 4.5 0.2 6 7 1 14.7 2 22.5 2.9q0-1.5 0-4.3z"/>
		<path class="s1" d="m836.1 534.9q-3-1.1-6.2-2.2-3.1-1.1-6.2-2-3.1-1-6.3-1.9-3.2-0.9-6.4-1.6c0.3 7.7 0.6 15.5 0.9 23.1 0.3 7 0.6 14.1 0.8 21.3 7.6 1.5 15.3 3 22.7 4.3l1 0.2c0-6.2-0.1-12.7-0.1-19.2-0.1-7.4-0.1-14.9-0.2-22z"/>
		<path class="s1" d="m927.2 552c5.2 1 11.3 2.2 17.8 3.5 0-20.6 0.3-39 0.3-41.7l-32.1-8.7c0 5.7-0.1 11.4-0.2 16.9-0.2 9-0.4 18.2 0 27.2l3 0.6c2.7 0.5 6.6 1.2 11.2 2.2z"/>
		<path class="s1" d="m161.4 560c0.2 3 0.3 6.1 0.4 9.1q3.1-0.9 6.1-1.8 3-1 6-2 3-1.1 5.9-2.2 3-1.1 5.9-2.3c-0.2-6.6-0.2-13.1 0.1-19.6 0.3-6.8-1-33.1-1.2-39.2l-23.5 10.6c0 4.5 0 40 0.3 47.4z"/>
		<path class="s1" d="m189.8 541.4c-0.3 5.9-0.3 11.8-0.2 17.7l1.6-0.7c6-2.7 12.4-5.1 18.6-7.5l0.7-0.2v-4.5c0-3.3-0.6-9-1.3-15.5-1.4-13.9-3.2-31-1-39.3l-19.8 8.9q0 0.1 0 0.1 0 0 0 0.1 0 0 0 0 0 0 0 0.1c0.1 1.3 1.7 32.9 1.3 40.8z"/>
		<path class="s1" d="m947.5 884.8c-2.1-21.8-4.3-44.4-4.6-66.8 0-1.1 0-2.9 0.1-5.2 0.1-7.5 0.3-21-0.8-27.5l-3.4-0.6c-6.4-1.2-15.9-3.1-19.5-1.4q0 1.6 0.1 3.1 0.1 1.6 0.2 3.2 0 1.5 0.2 3.1 0.1 1.6 0.3 3.1c0.4 3.7 0.8 7.5 0.8 11 0.2 19.8 1.4 38.8 2.7 58.8l0.5 7.9c0.5 7.3 0.4 15.1 0.4 22.7v69.2l23.7 0.9c0-8.9 0.2-71.2-0.7-81.5z"/>
		<path class="s1" d="m693.8 866.4l3.6 0.9c1.8 0.5 3.9 1 6.3 1.5-0.2-7.1 0.1-24.2 0.3-42.2 0.1-6 0.2-12 0.2-17.7-15.7-2.3-24.3-3.8-29-5.3 0.3 18.9 0.4 41.2 0.6 63.3 4.9-0.3 16.1-0.9 18-0.5z"/>
		<path class="s1" d="m1182.4 976.7c-18.2-0.2-44.2-0.7-79.5-1.7-65.4-1.8-153.6-4.8-239-7.8-65.6-2.2-132.2-4.5-188.9-6.3h-0.4c-75.2-2.3-132.8-3.6-147.3-2.6-14 1-68.9 3.8-138.5 7.3-126.4 6.4-326.5 16.5-383.8 21.5v217.9h1200v-228.4c-4.8 0.1-11.9 0.2-22.6 0.1z"/>
		<path class="s1" d="m515.1 839.3c0-5.7 0-11.3-0.1-16.9-0.2-29.2-0.4-56.9 4.5-85.4 1.9-10.9 7.3-23.7 12.4-35.9 5.6-13.3 11.3-26.9 12.8-38.5h-0.1c-1.7 0-1.9-1.2-2.4-6.2-0.1-1-0.3-2.2-0.3-2.5q-0.3-1.5-0.4-3-0.2-1.5-0.3-3.1-0.1-1.5-0.1-3 0.1-1.6 0.2-3.1 0.1-1.4 0.1-2.9 0-1.4-0.1-2.8 0-1.4-0.2-2.9-0.1-1.4-0.4-2.8c-3-14.2-2.3-30-1.6-45.3 0.2-6.4 0.5-12.5 0.5-18.4v-9q0 0 0-0.1 0 0 0-0.1 0-0.1 0-0.1 0-0.1 0-0.1c0-5.1 0-10.3 0.1-15.4q-0.2-0.2-0.3-0.5 0-0.3 0-0.5 0-0.3 0-0.5 0.1-0.3 0.3-0.5c0.2-27.6 0.6-55.2 1.2-82.7q-0.1-0.2-0.2-0.4 0-0.3 0-0.5 0-0.2 0-0.5 0.1-0.2 0.2-0.4c0.6-25.5 1.2-50.8 1.9-75.8v-0.8c-38.1 18.3-76 34.6-112.7 50.5-48 20.7-93.3 40.3-139 63.7 0.1 7.9 0.6 54 0.8 99.8 0.1 29.4 0.2 52.9 0.1 69.9-0.2 32.7-0.6 33.2-1.4 34l-0.2 0.1-0.2 0.2h-0.2v0.1l-0.1 0.1-92 24.9 5.1 249.3c62.4-3.3 128.9-6.7 185.6-9.6 56.4-2.8 103.2-5.2 126.3-6.5 0-6.4 0.2-48.4 0.2-53.7z"/>
		<path class="s1" d="m672.4 936.3c-0.2-14-0.3-33.2-0.4-53.5-0.2-26.8-0.4-56.9-0.7-81q-0.2-0.2-0.4-0.5-0.2-0.2-0.3-0.5-0.1-0.3-0.1-0.6-0.1-0.3 0-0.6 0-0.2 0.1-0.4 0-0.2 0.1-0.4 0.1-0.1 0.3-0.3 0.1-0.1 0.3-0.2c-0.3-21.7-0.7-38-1.2-41.7v-0.5q0.1-0.9 0.2-1.8c-9.1-1.1-17-2.5-24.6-3.9q-3.4-0.6-6.7-1.2c1.2 7 1.1 16.9 1.1 25.3 0 4 0 7.5 0.1 9.8 0.4 6.5 0.7 13.1 0.9 19.7 0.5 17.5 0.5 35 0.4 52v55c0 2.6-0.7 17.7-1 24.1-0.3 5.4-0.5 10.6-0.7 14.5-0.1 1.9-0.2 3.5-0.2 4.6q0 0.2 0 0.4 0 0.2-0.1 0.4 0 0.2 0 0.4 0 0.1-0.1 0.3 0.1 0 0.1 0.1 0 0 0 0 0 0 0 0 0 0-0.1 0.1c10.6 0.3 21.8 0.6 33.4 1 0-1-0.1-2.4-0.1-4.1-0.2-3.7-0.2-9.1-0.3-16.5z"/>
		<path class="s1" d="m239 621.3c0 6 0.4 14.3 0.8 22.4 0.3 7.6 0.7 15.5 0.7 21.5 16.5 9.7 39.9 23.2 47.2 27 1-17.4 0.4-125.4-0.3-199.2l-46.5-14.9c0 20.3-0.5 45.8-1 70.5-0.4 25.7-0.9 52.2-0.9 72.7z"/>
		<path class="s1" d="m637.5 911.1v-42.7h-0.4c-5.1-1-19.3-3.5-23.6-2.9-12.6 2-30.8 3.9-45.6 2.2-2-0.2-4-0.4-6.6-29.7v-0.9c-3-29.8 0.5-66.1 4.4-97.6q0-0.2 0-0.3 0-0.1 0-0.2 0-0.2 0.1-0.3 0-0.1 0.1-0.2 0.2-0.5 0.6-0.8 0.5-0.3 1-0.4 0.6 0 1.1 0.2 0.4 0.3 0.7 0.7l0.6 0.2c8.1 2.8 18.2 2.9 27.9 3 3.8 0 7.4 0 10.8 0.3q3.1 0.1 6.3 0.4 3.1 0.2 6.2 0.6 3.1 0.3 6.2 0.7 3.1 0.5 6.2 1v-0.2q0 0 0-0.1 0 0 0 0 0-0.1 0-0.1 0 0 0-0.1 0 0 0-0.1 0 0 0 0 0-0.1 0-0.1 0-0.1 0-0.1c2-16.5 7-27.3 14.6-32 5-3.2 11.1-3.7 18.1-1.5 4.4 0.4 21.1 5.7 21.2 5.7q0.4 0.1 0.7 0.4 0.3 0.2 0.5 0.6 0.1 0.3 0.2 0.7 0 0.4-0.1 0.7-0.1 0.2-0.1 0.3-0.1 0.2-0.2 0.3-0.1 0.1-0.2 0.2-0.1 0.1-0.3 0.2c-8.3 5.9-11.6 21.7-13.1 31.8 2.2 0.2 4.5 0.6 6.6 0.9q2.1 0.3 4.2 0.6 2 0.3 4.1 0.5 2.1 0.2 4.2 0.4 2.1 0.1 4.1 0.2c6.3 0.2 11.6 0 16.3-0.1 10.6-0.3 17.6-0.5 21.9 3.9 3.9 4 4.9 11.4 3.8 26.3-0.2 2.3-0.5 4.5-0.7 6.7-0.4 3-0.7 6-0.9 9-0.3 8.9-0.8 17.5-1.5 26.2-0.1 1.2-0.1 4.4-0.1 8.4 0 29.2-1.1 38.7-4.7 40.4q-1 0.4-2 0.7-1 0.3-2 0.5-1.1 0.2-2.1 0.2-1 0.1-2.1 0.1c-5.3 0-11.8-1.2-18.4-2.6l-0.2-0.1c-3-0.7-5.9-1.4-8.8-2.1l-3.6-0.9c-1.2-0.2-9.5 0.2-16.9 0.7h-0.1c0 4 0 8 0.1 11.9 0.2 34.3 0.4 66.9 0.8 74.3 55.2 1.7 120.5 4 187.4 6.3l56.4 2c0-10.3 0-56.9 0-60v-9.2c0-7.5 0.1-15.3-0.4-22.4l-0.5-7.9c-1.3-20.1-2.5-39.1-2.7-59.1 0-3.3-0.4-6.8-0.8-10.6q-0.2-1.7-0.3-3.4-0.2-1.8-0.3-3.5-0.1-1.8-0.1-3.6-0.1-1.7 0-3.5 0-0.2 0-0.4 0.1-0.2 0.2-0.3 0.1-0.2 0.2-0.4 0.1-0.1 0.3-0.2c4.3-3.6 14.4-1.6 23.3 0.1 1.7 0.3 3.3 0.6 4.7 0.9q0.3 0 0.5 0.1 0.3 0.2 0.5 0.3 0.2 0.2 0.3 0.5 0.2 0.2 0.2 0.5c1.5 6.2 1.3 20.8 1.2 29.6 0 2.3-0.1 4.1 0 5.1 0.3 22.3 2.4 44.8 4.5 66.5 1 10.7 0.8 73.2 0.7 82 19.2 0.6 38.2 1.3 56.6 1.9-0.4-15.6-3.1-108.8-3.1-116.7q0-13.1 0.7-26.2 0.7-13.1 2-26.2 1.4-13 3.4-26 2.1-12.9 4.8-25.8 0.3-1.7 0.8-3.3 0.5-1.7 1.1-3.3 0.6-1.6 1.3-3.2 0.7-1.5 1.5-3.1c-7.8-0.7-22.3-3.5-27.2-4.4-27.5-5.3-376.2-52.6-408.4-56.5-1.3-0.1-4.3-0.7-8.1-1.4-7.5-1.5-24.8-4.8-28.3-4q0 0 0 0-0.1 0-0.1 0 0 0 0 0 0 0 0 0 0 0.1 0 0.1-0.1 0-0.1 0 0 0.1 0 0.1-0.1 0-0.1 0.1 0 0 0 0 0 0 0 0-0.1 0-0.1 0 0 0 0 0.1l-0.3 0.1-0.1 0.1q0 0-0.1 0 0 0.1 0 0.1-0.1 0-0.1 0-0.1 0-0.2 0.1h-0.4c-2.4 10.6-7.3 22.2-12 33.5-5.1 12.1-10.3 24.6-12.1 35-4.9 28.3-4.7 55.8-4.5 84.9 0 5.5 0 11.2 0 16.8v62.3c0 5.1-0.1 46.3-0.1 53.4q5.2-0.3 8.1-0.5c12.2-0.9 52.5-0.2 108.6 1.4q0 0 0 0 0-0.1 0-0.1 0 0 0 0 0 0 0 0c0.1-2.8 1.9-40.7 1.9-44.7z"/>
		<path class="s1" d="m599.1 745.3q0.1 0.1 0.2 0.2 0 0.2 0.1 0.4 0 0.1 0 0.3 0.1 0.2 0.1 0.3c-1.3 18-1.8 36.1-2 52.4 5.3 0.5 10.6 0.8 15.7 1.1 7.6 0.5 15.5 1 23.9 1.9q-0.3-8.7-0.9-17.4c-0.1-2.4-0.1-6-0.1-10 0-8 0.1-19.3-1.3-26q-3.3-0.6-6.6-1.1-3.3-0.4-6.6-0.8-3.3-0.4-6.6-0.7-3.3-0.2-6.6-0.4c-2.9-0.2-6-0.2-9.3-0.2z"/>
		<path class="s1" d="m704.4 780.7q-0.1-1-0.2-2-0.1-1-0.2-2-0.1-0.9-0.3-1.9-0.1-1-0.3-2c-0.9-4.8-1.9-9.8 0.3-15.3-1.9 0-3.8 0-5.8-0.1q-2.2-0.1-4.3-0.3-2.1-0.1-4.3-0.3-2.1-0.3-4.2-0.6-2.1-0.2-4.2-0.6-3.3-0.5-6.7-0.9-0.1 0.9-0.2 1.6c0.6 4.4 1 21.1 1.3 43.3 4.3 1.7 18.1 3.8 29 5.4 0.1-10.3 0.1-19.2 0.1-24.3z"/>
		<path class="s1" d="m707.4 758.8c-1.8 4.5-1 8.6-0.2 13.4q0.2 1 0.4 2.1 0.2 1 0.3 2.1 0.2 1 0.2 2.1 0.1 1.1 0.2 2.1c0.1 5.3 0 14.4-0.1 24.9l4.3 0.6c5.8 0.8 10.3 1.5 12.3 1.9 0.6 0.1 1.4 0.3 2.3 0.6 1.4 0.4 5.6 1.7 6.9 1.3q0.3-5.3 0.5-10.6c0.1-3.2 0.4-6.4 0.8-9.4 0.3-2.1 0.5-4.4 0.7-6.6 1-13.5 0.3-20.2-2.7-23.3-3-3.1-9.4-3-18.9-2.7q-3.3 0.1-7 0.2 0 0.1 0.1 0.3 0 0.2 0 0.3 0 0.2 0 0.3-0.1 0.2-0.1 0.4z"/>
		<path class="s1" d="m726 812.3c-0.8-0.3-1.5-0.5-1.9-0.5-1.9-0.4-6.6-1-12.1-1.8l-3.8-0.6c-0.1 5.6-0.2 11.5-0.2 17.3-0.3 18.1-0.5 36.8-0.3 43 8.4 1.9 18.1 3.3 22.5 1.2 2.6-2.8 2.6-27.6 2.6-37 0-4.2 0-7.3 0.2-8.6q0.4-5.8 0.8-11.5h-0.5q-0.9-0.1-1.9-0.2-0.9-0.1-1.8-0.3-0.9-0.2-1.8-0.4-0.9-0.3-1.8-0.6z"/>
		<path class="s1" d="m586.4 611.9q-0.5-1.3-0.9-2.5-0.5-1.3-0.9-2.6-0.5-1.3-0.9-2.6-0.3-1.3-0.7-2.6c-10.7 6.4-34.6 21.5-37.7 24.2q-0.1 0.1-0.2 0.3-0.1 0.2-0.3 0.3-0.2 0.1-0.3 0.2-0.2 0.1-0.4 0.2 0.2 1.4 0.5 2.7 0.3 1.4 0.4 2.8 0.2 1.4 0.3 2.8 0 1.4 0 2.8 0 1.4 0 2.8c1.5-1.1 4.5-3.4 7.4-5.6 10.1-7.9 25.2-19.5 33.7-23.2z"/>
		<path class="s1" d="m128.2 975.4c22.4-1.3 46.3-2.6 70.9-3.9l-5.1-249.5v-0.2c-14.7-6.2-32.8-14.6-45.2-24.7h-0.3c-2 0-2.9-0.6-3.4-1.3-2.7-3.3-2.3-8.7-2-13.4q0.1-0.6 0.1-1.3 0-0.7 0.1-1.4 0-0.7-0.1-1.4 0-0.7 0-1.4c-0.6-4.4-1-10-1.4-16.5v-0.2c-1.5-29.4-0.8-76.5-0.3-109.7q0-2.5 0-4.8c-7.4-1.6-21.1-10.8-28.8-16.4-5.2-3.8-10.5-7.9-14.5-11.2-6.8-5.7-6.9-6.8-7-7.5q-0.1-0.4 0-0.7 0-0.4 0.2-0.7 0.2-0.3 0.4-0.5 0.3-0.2 0.6-0.4c25.9-11.1 87.4-40.1 107.6-53.7 3.5-2.4 13.9-7.4 24.9-12.8 10.8-5.2 22-10.6 25.4-13 21.8-14.9 42.1-23.5 63.5-32.5 15.4-6.5 31.2-13.2 48-22.5 14.9-8.2 30.5-12.4 45.7-16.5 13.6-3.7 27.7-7.4 41.2-14.2 9.8-4.9 33.3-12.8 50.4-18.6 7.2-2.4 13-4.4 16-5.5q0.4-1.2 1.1-2.2 0.6-1.1 1.5-2 0.8-0.9 1.9-1.6 1-0.7 2.2-1.2c18.9-9 69.2 7.7 78.6 12 6.4 2.8 14.8 5 20.8 6.2 3.4 0.8 6.9 1.3 10.3 1.8 6.9 1 13.9 2 20.7 4.8 31.4 12.9 65.4 21.9 98.4 30.7 16.2 4.3 33.1 8.8 49.3 13.6 48.2 14.5 155.1 52 162.1 54.8 14.9 5.8 43.2 12.2 70.5 18.3 21.8 4.9 42.4 9.5 54.7 13.6q0.4 0.1 0.8 0.3 0.4 0.3 0.7 0.6 0.3 0.4 0.5 0.8 0.2 0.4 0.3 0.8c0.3 1.9 1 5.8-25.2 28.5-11.2 9.8-22.8 18.9-25.1 20.7 0.4 2.4 1.5 6.8 2.2 9.7 0.8 3.2 1.4 6 1.7 7.3q0.9 5.6 1.6 11.2 0.7 5.7 1.2 11.3 0.4 5.7 0.6 11.4 0.2 5.7 0.2 11.4v131.5c1.7 0.4 2.3 1 2.3 2.2 0 2.8-3.8 5-11.6 8.6-1.1 0.5-2.2 1-2.6 1.2-8.3 4.8-13 15.3-14.6 22.9q-2.7 12.7-4.7 25.6-2 12.9-3.4 25.8-1.3 13-2 26-0.7 13-0.7 26c0 7.8 2.7 102.5 3.2 116.8 91.1 3 168.6 5.1 192.4 4.3v-967.7h-1200v978.3c6.1-0.6 13.9-1.2 23.2-1.8 23-1.6 56.6-3.7 100-6.1z"/>
		<path class="s1" d="m593.6 798.5c0.1-16.3 0.7-34.3 2-52.3q0-0.1 0-0.2 0-0.2 0.1-0.3 0-0.1 0.1-0.2 0.1-0.1 0.1-0.3c-9.2 0-18.6-0.2-26.6-2.9-2.1 17.2-4 35.5-4.8 53.4 6.4 0.4 16.2 1.4 22.8 2.2q3.2 0.3 6.3 0.6z"/>
		<path class="s1" d="m665.7 713.9q0 0-0.1 0-0.1 0-0.2 0 0 0-0.1-0.1-0.1 0-0.1 0c-6-1.9-11-1.6-15 1-6.6 4.1-10.9 13.7-12.8 28.7q0.1 0.2 0.2 0.4 0.1 0.2 0.1 0.4 0.1 0.2 0.2 0.4 0.1 0.2 0.1 0.4c2.8 0.5 5.6 1 8.4 1.4 7.6 1.4 15.5 2.8 24.5 3.9 1.7-11.4 4.9-24.8 12-32-5.8-1.8-15.2-4.4-17.2-4.5z"/>
		<path class="s1" d="m597.4 802.8c0 7.8 0 15.1 0 21.8 0 5.7 0.6 11.6 1 17.4 0.3 3.1 0.6 6.2 0.8 9.4 0.1 1.2 0.4 5.8 0.6 8v0.2q0 0.1 0 0.2 0 0.1 0 0.2 0 0.1 0.1 0.2 0 0.1 0 0.2 0 0 0 0.1 0 0 0 0 0 0.1 0 0.1 0 0.1 0 0.1 0 0.3 0 0.5 0 0.3-0.1 0.5-0.2 0.3-0.3 0.5-0.2 0.2-0.4 0.3-0.3 0.2-0.5 0.2-0.3 0.1-0.5 0.1-0.3 0.1-0.5 0-0.3 0-0.5-0.1c-1.3-0.6-1.3-0.6-1.9-11.1-0.2-3-0.5-6.2-0.7-9.2-0.5-5.9-1-11.9-1.1-17.8v-22.1q-3.3-0.4-6.7-0.7c-6.7-0.8-16.3-1.8-22.5-2.2q-0.2 4.7-0.2 9.3-0.1 4.7 0 9.3 0.1 4.6 0.4 9.3 0.3 4.6 0.7 9.2 0 0.2 0 0.3 0 0.1 0 0.2 0 0.1 0 0.3 0 0.1 0 0.2c1.8 20 3.3 25.1 3.9 26.3 14.2 1.5 31.6-0.4 43.8-2.3 5.6-0.8 21.6 2.2 24.6 2.8v-8.4c0-16.4 0.1-33.3-0.3-50.2-8.6-0.9-16.6-1.5-24.3-2-4.9-0.3-10-0.7-15.4-1.1z"/>
		<path class="s1" d="m238.4 473.6h1.1l49.6 15.9c45.8-23.5 91.4-43.2 139.6-64 37-16 75.1-32.5 113.5-50.9-4.8-8.7-20.8-41.9-22.7-56q-0.1 0.2-0.3 0.5-0.1 0.3-0.3 0.6-0.1 0.3-0.2 0.6-0.1 0.3-0.2 0.6 0 0.2-0.1 0.4-0.1 0.2-0.3 0.4-0.1 0.2-0.3 0.3-0.2 0.1-0.4 0.2c-2.6 1-9 3.2-17 5.9-17 5.8-40.4 13.7-49.9 18.4-13.9 7-28.2 10.8-42 14.5-14.9 4-30.3 8.1-44.8 16.2-17 9.4-32.9 16.1-48.3 22.6-21.3 9-41.4 17.5-63 32.2-3.6 2.4-14.4 7.7-25.8 13.2-10.4 5.1-21.2 10.3-24.4 12.5-20 13.5-79.1 41.5-106.2 53.3 6.2 6.3 34.7 27.8 45.5 30.8 0.2-9.4 0.3-17.5 0.3-23.4q0-0.3 0-0.6 0.1-0.2 0.3-0.5 0.1-0.2 0.3-0.4 0.3-0.1 0.5-0.3l95.2-42.9 0.1-0.1z"/>
		<path class="s1" d="m176.5 701q-1.4-0.7-2.8-1.5-1.4-0.9-2.7-1.8-1.3-1-2.5-2-1.2-1.1-2.3-2.3-0.1 0-0.2 0-0.1-0.1-0.2-0.1-0.2-0.1-0.3-0.2-0.1 0-0.1-0.1c-4.9 1.6-8.6 2.6-11.3 3.3 12.2 9.1 29.5 16.9 42 22.2l10-2.8c-4.7-3.2-12.5-6.8-22.7-11.5z"/>
		<path class="s1" d="m162.9 686.4c-0.2-1.7-0.5-4.1-0.7-6.8-0.4-4.5-1-10.4-1-12.2q0-1.5 0-2.9-0.1-1.5-0.1-2.9-0.1-1.4-0.3-2.9-0.1-1.4-0.2-2.8c-6.8 2.5-12.2 4.6-14.8 5.6 0.3 5.8 0.7 10.9 1.3 14.9q0 0.8 0 1.6 0.1 0.7 0.1 1.5 0 0.8-0.1 1.6 0 0.8-0.1 1.6c-0.3 3.9-0.5 8.2 1 10.5q0.1 0 0.2 0 0 0 0.1 0 0.1 0 0.2 0 0.1 0 0.2 0 0.1 0 0.2-0.1 0.2 0 0.3 0 0.2 0 0.3 0 0.2 0 0.3 0 1.7-0.3 3.5-0.7 1.7-0.4 3.4-0.8 1.7-0.5 3.4-1 1.6-0.5 3.3-1.1-0.1-0.4-0.2-0.8 0-0.3-0.1-0.7-0.1-0.4-0.1-0.8-0.1-0.4-0.1-0.8z"/>
		<path class="s1" d="m214.4 677.8q-4.3 1.1-9.1 2.2c-4.6 1.1-8.9 2.1-12.4 3q1.1 1.4 2.3 2.6 1.3 1.2 2.6 2.3 1.4 1.1 2.9 2 1.4 1 3 1.7l6.8 3.2c11.5 5.3 19.9 9.2 24.8 13l17.5-4.8c-3.1-3.1-9.5-6.4-16.3-9.9-9.2-4.7-18.7-9.6-22.1-15.3z"/>
		<path class="s1" d="m202 695.1q-1.5-0.7-2.8-1.5-1.4-0.8-2.7-1.8-1.3-0.9-2.5-2-1.2-1.1-2.3-2.2-0.2-0.1-0.4-0.2-0.2 0-0.4-0.1-0.1-0.2-0.2-0.3-0.2-0.2-0.3-0.3-0.6-1.1-0.9-1.5 0-0.1-0.1-0.2-0.1-0.1-0.1-0.3-0.1-0.1-0.1-0.3-0.1-0.1-0.1-0.3-1.1 0.4-1.9 0.7c-2.1 0.9-9.6 3.9-17.5 6.7q0.9 0.9 1.9 1.7 1 0.9 2.1 1.6 1.1 0.8 2.2 1.4 1.1 0.7 2.3 1.3 3.6 1.6 6.8 3.1c12.1 5.6 20.8 9.6 25.6 13.6l0.2 0.2 19.6-5.3c-4.8-3-12.1-6.4-21.6-10.8z"/>
		<path class="s1" d="m218.4 676.8c3.4 4.4 12.1 8.9 19.9 12.9 7.1 3.6 13.8 7.1 17.4 10.7q0.1 0.2 0.3 0.4 0.1 0.2 0.1 0.4 0.1 0.2 0.1 0.5 0 0.2 0 0.4l27.8-7.5c-5.8-3.1-18.1-10.1-44.9-25.7-3.1 2.8-10.3 5.2-20.7 7.9z"/>
		<path class="s1" d="m157.9 570.3c-0.1-3.4-0.2-6.7-0.4-10-0.3-7-0.3-37.2-0.3-45.9l-11.5 5.3c0 7.6-0.2 18.4-0.4 30.8-0.1 7.3-0.2 15.2-0.3 23.4l4.7-1.3q4.2-1.2 8.2-2.3z"/>
		<path class="s1" d="m159.9 649.9q-0.3-2.2-0.5-4.5-0.2-2.2-0.4-4.5-0.2-2.2-0.3-4.5-0.1-2.2-0.1-4.5v-3.8c0-17.6 0-35.8-0.6-53.8l-7.3 2-5.7 1.6c-0.3 27.4-0.4 57.9 0.6 79.5 3.1-1.2 8.2-3.1 14.6-5.5q-0.2-1-0.3-2z"/>
	</g>
</svg>