<svg version="1.2" xmlns="http://www.w3.org/2000/svg" viewBox="0 0 1210 1210" width="1210" height="1210">
	<title>21-Kisha-Shen-Ndout-01-svg</title>
	<style>
		.s0 { fill: #000000 } 
		.s1 { fill: #ffffff } 
		.s2 { fill: #4eb848 } 
	</style>
	<g id="Black">
		<path class="s0" d="m0 0h1210v1210h-1210z"/>
	</g>
	<g id="Color">
		<path class="s1" d="m908 887.5c-9.7 0-17.6 12-17.6 26.6 0 15.7 8.4 29.9 17.6 29.9 9.2 0 16.8-12.7 16.8-28.3 0-15.6-7.5-28.2-16.8-28.2z"/>
		<path class="s1" d="m551.8 981.9l15.6-0.1c-0.1-5.6-0.2-12-0.2-18.8l-15.6 0.2z"/>
		<path class="s1" d="m473 915.6c-0.1-4.7-0.2-7.9-0.3-8.8q0-0.1 0-0.2-0.1-0.1-0.1-0.2 0-0.1 0-0.2-0.1-0.1-0.1-0.2c-2.4-9.6-7.6-14.7-15.6-15l0.6 24.7z"/>
		<path class="s1" d="m948.4 771.8l13.1 13.7 0.1 0.1 0.1 0.1q0 0 0 0.1 0 0 0 0 0 0 0 0 0 0 0 0.1 0 0.1 0 0.1 0 0 0 0 0 0 0 0 0 0 0 0l0.1 0.3v0.1q0 0 0 0.1 0 0 0 0.1 0 0 0 0.1 0 0 0 0l0.8 142.8 11.8 13.5q0.2 0.1 0.5 0.3 0.2 0.1 0.4 0.4 0.1 0.2 0.2 0.5 0.1 0.3 0.1 0.6l2 161.9v-0.1l-2-162.8q0-0.3-0.1-0.6-0.1-0.2-0.2-0.5-0.2-0.2-0.4-0.4-0.3-0.2-0.5-0.2l-11.7-13.5-0.8-142.8v-0.3q0-0.1 0-0.1 0 0 0 0 0 0 0 0 0-0.1 0-0.1 0 0 0 0-0.1-0.1-0.1-0.1 0 0 0 0 0-0.1 0-0.1v-0.2q0 0 0 0 0 0 0 0 0-0.1-0.1-0.1 0 0 0 0 0 0 0 0l-13.2-13.9-2.8-229.6z"/>
		<path class="s1" d="m952 544.2c0 0.1 0.1 0.3 0.1 0.4q0.1-0.2 0.1-0.4 0-0.1 0-0.3 0-0.2-0.1-0.3 0-0.2-0.1-0.3l-97.5-193.2h-0.5z"/>
		<path class="s1" d="m365.2 939.4l15.5-0.8c-0.2-6.3-0.4-12.1-0.5-16.9l-15.5 0.3z"/>
		<path class="s1" d="m380 918c-0.2-4.7-0.3-7.9-0.3-8.8q-0.1-0.4-0.2-0.7c-2.5-9.7-7.8-14.7-15.8-15l0.8 24.8z"/>
		<path class="s1" d="m458 936.9l15.5-0.6c-0.2-6.3-0.3-12.2-0.4-17l-15.5 0.2z"/>
		<path class="s1" d="m458.7 962.1l15.5-0.4c-0.2-7.2-0.4-14.7-0.6-21.6l-15.5 0.6z"/>
		<path class="s1" d="m366.1 964.6l15.5-0.5c-0.3-7.3-0.5-14.7-0.7-21.7l-15.6 0.8z"/>
		<path class="s1" d="m875.8 330.9v-0.5c0-10.1-10.3-18.4-23.2-18.9v0.9c12.7 0.5 22.9 8.6 23.2 18.5z"/>
		<path class="s1" d="m441.3 966.3c0.2 6.8 0.3 13.2 0.5 18.7l13.7-0.3-0.5-18.7z"/>
		<path class="s1" d="m848.9 312.5l0.5-51.8-0.5 50.8c-12.4 1-22 9-22 18.9v0.5c0.3-9.6 9.8-17.5 22-18.4z"/>
		<path class="s1" d="m734.4 767.7v-15.2l-451.4 51.6 0.1 10.8 451.3-47.2z"/>
		<path class="s1" d="m639.5 887.7c-11.2 1.8-13.1 13.9-13.5 16.4 0 0.6 0.1 3.7 0.3 8.5l13.9-0.2z"/>
		<path class="s1" d="m453.1 891.2c-11.2 1.7-13.2 13.8-13.5 16.3 0 0.6 0.1 3.7 0.2 8.4l13.9-0.1z"/>
		<path class="s1" d="m848.6 350.1h-0.4l-83 183.8q0 0.2-0.1 0.3 0 0.2 0 0.3 0 0.2 0 0.3 0 0.2 0 0.4 0-0.1 0-0.1 0.1-0.1 0.1-0.1 0 0 0-0.1 0 0 0 0z"/>
		<path class="s1" d="m849.7 227.1h3.7v-0.9h-3.7l-0.3 29.7-28.5 0.4v0.9l28.5-0.3 0.3-29.8z"/>
		<path class="s1" d="m366.8 987l15.5-0.5c-0.2-5.5-0.4-12-0.6-18.7l-15.5 0.5z"/>
		<path class="s1" d="m453.8 919.6l-13.9 0.1c0.2 5 0.3 11.3 0.5 18l13.8-0.6z"/>
		<path class="s1" d="m435 989.3l47-1.4 0.2 8.3-47 1.4z"/>
		<path class="s1" d="m882.1 256.6l0.1 2.8-0.1-3.8-28.9 0.3v1l28.9-0.3z"/>
		<path fill-rule="evenodd" class="s1" d="m736.2 1071.7l-85.2 0.2-366.4 1-1.5-254.3 451.4-47.1 0.2 28zm-342.6-69.4q0.1-0.2 0.2-0.3 0.1-0.2 0.2-0.4 0.1-0.1 0.1-0.3 0-0.2 0-0.4l-0.5-12.1q0-0.4-0.1-0.7-0.2-0.3-0.5-0.6-0.3-0.2-0.6-0.4-0.4-0.1-0.8-0.1l-5.5 0.3c-0.1-4.3-0.7-21.6-1.3-38.8-0.3-10-0.6-19.9-0.9-27.4-0.1-3.7-0.2-6.8-0.3-9 0-1.1-0.1-1.9-0.1-2.5q0-0.2 0-0.5 0-0.2-0.1-0.5 0-0.2-0.1-0.4-0.1-0.3-0.2-0.5 0 0 0.1 0.1 0 0 0 0.1 0 0 0 0.1 0 0 0 0 0-0.1 0-0.1 0-0.1 0-0.1 0-0.1 0-0.2-0.1 0-0.1-0.1c-3.9-15.3-13.6-18.1-21.2-17.8-16.2 0.7-18.7 16.8-19.1 20.1 0 0.2 0 0.5 2.8 79.2l-4.7 0.2q-0.2 0-0.4 0-0.2 0.1-0.4 0.1-0.1 0.1-0.3 0.2-0.1 0.1-0.3 0.3-0.1 0.1-0.2 0.3-0.1 0.1-0.1 0.3-0.1 0.2-0.1 0.3-0.1 0.2 0 0.4l0.4 12.1q0.1 0.4 0.2 0.7 0.2 0.3 0.4 0.6 0.3 0.2 0.6 0.4 0.4 0.1 0.7 0.1h0.1l50.8-2.1q0.2 0 0.4 0 0.2-0.1 0.3-0.2 0.2 0 0.3-0.1 0.2-0.2 0.3-0.3zm-10.3-94.2q0-0.1 0-0.1 0 0 0 0.1zm102.9 91.6q0.1-0.2 0.2-0.3 0.1-0.2 0.1-0.4 0-0.2 0-0.4l-0.4-12.1q0-0.2 0-0.3-0.1-0.2-0.2-0.4 0-0.2-0.2-0.3-0.1-0.2-0.2-0.3-0.1-0.1-0.3-0.2-0.2-0.1-0.3-0.2-0.2-0.1-0.4-0.1-0.2 0-0.4 0l-5.5 0.2c0-4.3-0.5-21.5-1-38.8-0.2-9.9-0.5-19.9-0.7-27.3-0.1-3.7-0.2-6.9-0.3-9-0.1-1.1-0.1-2 0-2.6q0-0.2-0.1-0.4 0-0.3 0-0.5 0-0.2-0.1-0.4-0.1-0.3-0.2-0.5 0.1 0 0.1 0.1 0 0 0 0 0 0.1 0 0.1 0 0 0 0.1 0-0.2-0.1-0.6c-3.8-15.3-13.5-18.2-21.1-18-16.2 0.6-18.9 16.8-19.2 20 0 0.2-0.1 0.5 2.2 79.2l-4.7 0.1h-0.1q-0.4 0.1-0.7 0.2-0.3 0.2-0.6 0.5-0.2 0.3-0.3 0.6-0.2 0.4-0.1 0.7l0.4 12.1q0 0.4 0.1 0.7 0.2 0.3 0.4 0.6 0.3 0.3 0.6 0.4 0.4 0.1 0.7 0.1h0.1l50.8-1.7q0.2 0 0.3 0 0.2-0.1 0.4-0.1 0.2-0.1 0.3-0.2 0.2-0.1 0.3-0.3 0.1-0.1 0.2-0.3zm-9.8-94q-0.1 0-0.1 0 0 0 0.1 0zm101.9 92.1q0.1-0.2 0.2-0.3 0.1-0.1 0.1-0.3 0.1-0.1 0.1-0.3 0.1-0.2 0.1-0.3l-0.2-12.1q0-0.4-0.2-0.7-0.1-0.4-0.4-0.6-0.2-0.3-0.6-0.5-0.3-0.1-0.7-0.1l-5.5 0.1c-0.1-4.3-0.3-21.5-0.4-38.8-0.1-9.9-0.2-19.9-0.3-27.4-0.1-3.7-0.1-6.8-0.1-9v-2.5q0-0.2 0-0.5 0-0.2-0.1-0.5 0-0.2-0.1-0.4-0.1-0.3-0.1-0.5 0 0 0 0.1 0 0 0 0 0 0.1 0.1 0.1 0 0.1 0 0.1l-0.2-0.6c-3.5-15.3-13.2-18.4-20.8-18.2-16.1 0.2-19.1 16.4-19.5 19.6 0 0.2 0 0.5 1 79.2l-4.7 0.1q-0.4 0-0.8 0.1-0.3 0.2-0.6 0.4-0.2 0.3-0.4 0.7-0.1 0.3-0.1 0.7l0.2 12.1q0 0.1 0 0.3 0.1 0.2 0.2 0.4 0 0.2 0.1 0.3 0.1 0.2 0.3 0.3 0.1 0.1 0.3 0.2 0.1 0.1 0.3 0.2 0.2 0.1 0.3 0.1 0.2 0 0.4 0l50.8-0.9q0.2 0 0.3-0.1 0.2 0 0.4-0.1 0.2-0.1 0.3-0.2 0.2-0.1 0.3-0.2zm92.9-0.6q0.3-0.1 0.7-0.2 0.3-0.2 0.6-0.4 0.2-0.3 0.4-0.6 0.1-0.4 0.1-0.8l-0.4-12q-0.1-0.4-0.2-0.8-0.2-0.3-0.5-0.5-0.2-0.3-0.6-0.4-0.4-0.1-0.7-0.1l-5.5 0.2c0-4.3-0.6-21.5-1-38.8-0.3-10-0.6-19.9-0.8-27.4-0.1-3.7-0.2-6.8-0.2-9-0.1-1.1-0.1-2-0.1-2.6q0-0.2 0-0.4-0.1-0.2-0.1-0.5 0-0.2-0.1-0.4-0.1-0.2-0.1-0.5 0 0.1 0 0.1 0 0 0 0.1 0 0 0 0 0.1 0.1 0.1 0.1-0.1-0.1-0.1-0.1 0-0.1 0-0.2 0-0.1 0-0.1-0.1-0.1-0.1-0.2c-3.8-15.3-13.5-18.2-21.1-18-16.2 0.6-18.8 16.8-19.2 20 0 0.3-0.1 0.6 2.3 79.2l-4.7 0.2q-0.4 0-0.8 0.1-0.3 0.2-0.6 0.5-0.2 0.3-0.3 0.6-0.2 0.4-0.1 0.8l0.4 12.1q0 0.3 0.2 0.7 0.1 0.3 0.4 0.5 0.3 0.3 0.6 0.4 0.4 0.2 0.7 0.2h0.1l50.7-1.8zm-8.3-94.8q0 0 0 0 0 0 0 0z"/>
		<path class="s1" d="m534.1 963.4c0.1 6.7 0.2 13.1 0.3 18.6l13.6-0.1-0.2-18.6z"/>
		<path class="s1" d="m659.4 912.1c-0.1-4.6-0.2-7.8-0.2-8.7q-0.1-0.1-0.1-0.2 0-0.1 0-0.2-0.1-0.1-0.1-0.2 0-0.1 0-0.2c-2.4-9.7-7.7-14.7-15.7-15.1l0.6 24.8z"/>
		<path class="s1" d="m284.8 1076.7l-0.2 32.6 453 2.5-1.4-36.4-451.4 1.3z"/>
		<path class="s1" d="m547.6 938.1l-13.8 0.4c0.1 6.9 0.2 14.1 0.3 21.1l13.7-0.1z"/>
		<path class="s1" d="m528.3 987l47-0.9 0.2 8.3-47.1 0.9z"/>
		<path class="s1" d="m621.9 986.8l47-1.6 0.3 8.3-47 1.6z"/>
		<path class="s1" d="m645.8 981.1l15.5-0.4c-0.1-5.5-0.3-12-0.5-18.7l-15.5 0.5z"/>
		<path class="s1" d="m640.8 937.5l-13.8 0.6c0.2 6.8 0.4 14.1 0.7 21.1l13.7-0.4z"/>
		<path class="s1" d="m644.5 933.5l15.5-0.7c-0.2-6.3-0.3-12.1-0.5-16.9l-15.5 0.2z"/>
		<path class="s1" d="m645.2 958.7l15.5-0.4c-0.2-7.3-0.4-14.7-0.6-21.7l-15.5 0.7z"/>
		<path class="s1" d="m627.8 962.9c0.2 6.8 0.4 13.2 0.5 18.7l13.7-0.4-0.5-18.6z"/>
		<path class="s1" d="m566.6 913.2c0-4.7-0.1-7.9-0.1-8.8q0-0.1 0-0.2-0.1-0.1-0.1-0.2 0-0.1 0-0.2-0.1-0.1-0.1-0.2c-2.2-9.7-7.4-14.9-15.4-15.3l0.2 24.8z"/>
		<path class="s1" d="m348.7 969c0.2 6.7 0.5 13.1 0.7 18.6l13.6-0.4-0.6-18.7z"/>
		<path class="s1" d="m361.6 943.4l-13.8 0.7c0.2 6.9 0.5 14.1 0.7 21.1l13.8-0.5z"/>
		<path class="s1" d="m551.6 959.4l15.5-0.1c0-7.3-0.1-14.7-0.2-21.7l-15.5 0.4z"/>
		<path class="s1" d="m360.9 922.1l-13.9 0.3c0.2 5 0.4 11.2 0.7 18l13.8-0.7z"/>
		<path class="s1" d="m459.3 984.5l15.5-0.3c-0.1-5.6-0.3-12-0.5-18.7l-15.5 0.4z"/>
		<path class="s1" d="m551.3 934.3l15.6-0.5c-0.1-6.3-0.2-12.1-0.2-16.9h-15.5z"/>
		<path class="s1" d="m547.4 916.8h-13.9c0.1 5 0.2 11.2 0.2 18l13.9-0.4z"/>
		<path class="s1" d="m360 893.7c-11.1 1.8-13 13.9-13.4 16.5 0 0.6 0.2 3.6 0.3 8.4l13.9-0.3z"/>
		<path class="s1" d="m342.7 992.8l47-1.9 0.3 8.4-47 1.8z"/>
		<path class="s1" d="m547.1 888.4c-11.2 1.6-13.4 13.6-13.7 16.2 0 0.6 0 3.7 0.1 8.4l13.8 0.1z"/>
		<path class="s1" d="m917.6 638.5l-0.1-58.6-9.5-1.3 0.3 58.6 9.3 1.3z"/>
		<path class="s1" d="m281 1075.5l-0.2 34.7 0.2-34.7z"/>
		<path class="s1" d="m932.9 782.2l-4.2-4.6 4.6 330.3 8.5-2.8-0.8-138.4-2.1-178-6-6.5z"/>
		<path class="s1" d="m454.4 940.9l-13.9 0.6c0.2 6.8 0.5 14.1 0.7 21.1l13.7-0.4z"/>
		<path class="s1" d="m899.5 543c-3.2 0-5.8-5.7-5.8-12.7 0-7 2.6-12.7 5.8-12.7 3.2 0 5.8 5.7 5.8 12.7 0 7-2.6 12.7-5.8 12.7z"/>
		<path class="s1" d="m909.5 665.2l0.3 58.7 9.3 1.2v-58.6l-9.6-1.3z"/>
		<path class="s1" d="m640.3 916.2l-13.9 0.1c0.1 5 0.3 11.3 0.5 18l13.8-0.6z"/>
		<path fill-rule="evenodd" class="s1" d="m927 928.1l2.6 179.3-30.9-15.7q0-0.1-0.1-0.1 0 0 0 0-0.1 0-0.1-0.1-0.1 0-0.1 0l-1.1-145.8q0-0.3-0.1-0.6-0.1-0.3-0.3-0.5-0.2-0.2-0.4-0.4-0.2-0.2-0.5-0.3l-12.1-20.1v-148.2q0-0.1 0-0.1-0.1-0.1-0.1-0.1 0-0.1 0-0.1 0-0.1 0-0.1-0.1-0.1-0.1-0.1 0-0.1-0.1-0.1 0-0.1 0-0.1-0.1-0.1-0.1-0.1l-13.9-17q-0.1-0.2-0.2-0.3-0.2-0.2-0.4-0.2-0.2-0.1-0.4-0.2-0.2 0-0.4 0l-11.6-0.3h-0.3l-0.4 0.1h-0.1l-0.2 0.1q0 0.1-0.1 0.1 0 0 0 0-0.1 0.1-0.1 0.1 0 0-0.1 0l-0.1 0.1q0 0.1 0 0.1 0 0-0.1 0.1 0 0 0 0-0.1 0.1-0.1 0.1 0 0.1 0 0.1-0.1 0.1-0.1 0.1 0 0.1 0 0.1-0.1 0-0.1 0.1v0.1q0 0 0 0.1 0 0 0 0.1 0 0 0 0.1 0 0 0 0.1v0.1l2.4 350.5h-1l-0.2-25.4-3.5-329.4q0-0.1 0-0.1 0-0.1 0.1-0.2 0-0.1 0-0.2 0-0.1 0-0.1c0-2.1-0.4-31.6-0.8-68.8q0-0.1 0.1-0.2 0 0 0-0.1 0-0.1 0-0.2 0 0 0-0.1l-0.1-2.4c-0.1-7.8-0.2-16.1-0.3-24.4-0.1-9.4-0.2-19-0.3-28.5l-0.2-15.3c0-5.9-0.1-11.8-0.2-17.6l-0.1-7.7c-0.1-17.1-0.3-32.5-0.4-44.2l0.1-8.3q0-0.1 0-0.2 0-0.1 0-0.3-0.1-0.1-0.1-0.2-0.1-0.1-0.1-0.3c-0.1-4.3-0.2-7.7-0.2-10.2l0.2-0.1 0.2-0.2q0.1-0.2 0.2-0.3 0.1-0.2 0.2-0.3 0.1-0.2 0.1-0.4 0-0.1 0-0.3v-0.6l47-54.5c12.7 20.2 41 65.5 43.8 70.1l2.8 232.7-17.9 0.1h-0.3l-0.3 0.1-0.2 0.1-0.3 0.1c-0.1 0.1-0.1 0.2-0.2 0.2q0 0 0 0.1-0.1 0-0.1 0 0 0 0 0.1 0 0-0.1 0 0 0.1 0 0.1 0 0 0 0-0.1 0.1-0.1 0.1 0 0 0 0.1 0 0 0 0-0.1 0-0.1 0 0 0 0 0.1 0 0 0 0v0.1q0 0 0 0 0 0.1 0 0.1-0.1 0-0.1 0.1 0 0 0 0v0.4l1.8 129.4c-3.3-10.9-10.4-18.4-18.6-18.4-12 0-21.4 13.3-21.4 30.4 0 18 10 33.7 21.4 33.7 8.6 0 15.9-8.2 19-19.7zm-19.8-47.6c7.9 0 14.2-11.1 14.2-25.3 0-14.1-6.2-25.2-14.2-25.2-7.9 0-14.2 11.1-14.2 25.2 0 14.2 6.3 25.3 14.2 25.3zm15.6-215.7q0-0.3-0.1-0.6-0.2-0.3-0.4-0.6-0.2-0.2-0.5-0.4-0.3-0.2-0.6-0.2l-13.4-1.9h-0.2q-0.4 0-0.8 0.2-0.3 0.1-0.6 0.4-0.2 0.3-0.4 0.6-0.1 0.4-0.1 0.8l0.3 62.5q0 0.3 0.1 0.6 0.1 0.3 0.4 0.6 0.2 0.3 0.5 0.4 0.3 0.2 0.6 0.2l13.1 1.8h0.3q0.4 0 0.7-0.1 0.4-0.2 0.6-0.4 0.3-0.3 0.4-0.7 0.2-0.3 0.2-0.7l-0.1-62.4zm-1.6-86.5q0-0.4-0.1-0.7-0.1-0.3-0.4-0.5-0.2-0.3-0.5-0.5-0.3-0.1-0.6-0.2l-13.3-1.9q-0.2 0-0.4 0-0.2 0-0.4 0.1-0.2 0.1-0.4 0.2-0.2 0.1-0.3 0.2-0.2 0.1-0.3 0.3-0.1 0.1-0.2 0.3-0.1 0.2-0.1 0.4-0.1 0.2-0.1 0.4l0.3 62.5q0 0.4 0.2 0.7 0.1 0.3 0.3 0.6 0.2 0.2 0.5 0.4 0.3 0.2 0.7 0.2l13.1 1.8h0.2q0.4 0 0.7-0.2 0.4-0.1 0.6-0.4 0.3-0.2 0.5-0.6 0.1-0.3 0.1-0.7l-0.1-62.4zm-21.7-64.5c-5.3 0-9.5 7.3-9.5 16.5 0 9.3 4.1 16.5 9.5 16.5 5.4 0 9.6-7.2 9.6-16.5 0-9.2-4.2-16.4-9.6-16.4zm-16 57.5q-0.1 0.1-0.2 0.3-0.1 0.2-0.1 0.4-0.1 0.2-0.1 0.4l0.3 62.5q0 0.3 0.2 0.7 0.1 0.3 0.3 0.6 0.2 0.2 0.5 0.4 0.3 0.1 0.7 0.2l13.1 1.8h0.2q0.4 0 0.7-0.2 0.4-0.1 0.7-0.4 0.2-0.2 0.4-0.6 0.1-0.3 0.1-0.7l-0.1-62.4q0-0.4-0.1-0.7-0.1-0.3-0.3-0.6-0.3-0.2-0.6-0.4-0.3-0.2-0.6-0.2l-13.3-1.9q-0.2 0-0.4 0-0.2 0-0.4 0.1-0.2 0-0.4 0.1-0.2 0.1-0.3 0.2-0.2 0.2-0.3 0.4zm0 150.4q0 0.4 0.1 0.7 0.1 0.3 0.3 0.6 0.2 0.3 0.5 0.4 0.3 0.2 0.7 0.2l13.1 1.8h0.2q0.4 0 0.7-0.1 0.4-0.2 0.7-0.4 0.2-0.3 0.4-0.6 0.1-0.4 0.1-0.8l-0.1-62.4q0-0.3-0.1-0.6-0.1-0.4-0.3-0.6-0.3-0.3-0.6-0.4-0.3-0.2-0.6-0.3l-13.3-1.8q-0.4-0.1-0.8 0-0.4 0.1-0.7 0.4-0.3 0.3-0.5 0.7-0.2 0.3-0.2 0.7l0.3 62.5z"/>
		<path class="s1" d="m881 926.2l-9.6 0.4 7.3 17.2h12.8l-10.5-17.6z"/>
		<path class="s1" d="m887 661.4l0.4 58.7 9.2 1.2v-58.6l-9.6-1.3z"/>
		<path class="s1" d="m896.6 634.5v-58.6l-9.6-1.4 0.3 58.7 9.3 1.3z"/>
		<path class="s1" d="m819.1 630.7v-59.3h-13.2l0.4 59.1 12.8 0.2z"/>
		<path class="s1" d="m907.2 876.7c-5.7 0-10.3-9.6-10.3-21.5 0-11.8 4.6-21.4 10.3-21.4 5.8 0 10.4 9.6 10.4 21.4 0 11.9-4.6 21.5-10.4 21.5z"/>
		<path class="s1" d="m409.7 664.3q0.1-0.1 0.2-0.2 0.1-0.1 0.3-0.2 0.1 0 0.2-0.1 0.2 0 0.3 0l362.6-56.8v-1l-362.6 56.8q-0.1 0-0.2 0.1-0.2 0-0.3 0.1-0.1 0.1-0.2 0.1-0.2 0.1-0.3 0.2l-137 136.8q-0.1 0.2-0.2 0.4-0.2 0.2-0.2 0.5-0.1 0.2-0.1 0.4 0 0.3 0.1 0.5 0-0.1 0-0.2 0.1-0.1 0.1-0.2 0.1-0.1 0.2-0.2 0.1-0.1 0.1-0.2z"/>
		<path class="s1" d="m797.1 665.6l-19.3 2.8q0 0-0.1 0 0 0-0.1 0 0 0-0.1 0 0 0-0.1 0-0.1 0-0.3 0-0.1-0.1-0.2-0.1-0.2-0.1-0.3-0.1-0.1-0.1-0.3-0.2 0-0.1-0.1-0.1 0-0.1-0.1-0.2 0 0-0.1-0.1 0 0-0.1-0.1 0-0.1-0.1-0.2 0-0.1 0-0.2-0.1 0-0.1-0.1 0-0.1 0-0.2v-0.2l-2.2-55.9-361.6 56.7-132.7 132.5 456-51.3 57.4-77.1z"/>
		<path fill-rule="evenodd" class="s1" d="m777 608.6q0-0.1 0-0.1 0-0.1 0-0.1-0.1-0.1-0.1-0.2 0 0 0-0.1l-3-75 35.2-45.1 2.9-3.5 6.5 7.1 23.4 27.2-12 0.1q-0.4 0-0.7 0.1-0.4 0.2-0.6 0.5-0.3 0.2-0.4 0.6-0.2 0.3-0.2 0.7v15q0 0.4 0.2 0.7 0.1 0.4 0.4 0.6 0.2 0.3 0.6 0.4 0.3 0.2 0.7 0.2h16l0.1 6.7-16.1 0.1q-0.4 0-0.7 0.1-0.4 0.2-0.6 0.5-0.3 0.2-0.4 0.6-0.2 0.3-0.2 0.7v13.8q0 0.4 0.2 0.7 0.1 0.3 0.4 0.6 0.2 0.3 0.6 0.4 0.3 0.2 0.7 0.2l16 0.1v8.1l-13.7 0.2q-0.4 0-0.8 0.1-0.3 0.1-0.6 0.4-0.2 0.3-0.4 0.6-0.1 0.4-0.1 0.7v15.4q0 0.4 0.1 0.7 0.1 0.4 0.4 0.6 0.2 0.3 0.6 0.4 0.3 0.2 0.7 0.2l14.3 0.6 0.1 8.1-14.3-0.2q-0.2 0-0.4 0-0.2 0.1-0.4 0.1-0.1 0.1-0.3 0.2-0.1 0.1-0.3 0.3-0.1 0.1-0.2 0.2-0.1 0.2-0.2 0.4-0.1 0.1-0.1 0.3 0 0.2 0 0.4v13.6q0 0.4 0.1 0.7 0.2 0.4 0.4 0.6 0.3 0.3 0.6 0.4 0.4 0.2 0.8 0.2l14.5 0.1 0.1 11.5-14.4-0.3q-0.2 0-0.3 0.1-0.2 0-0.4 0.1-0.2 0-0.3 0.1-0.2 0.1-0.3 0.3-0.2 0.1-0.3 0.3-0.1 0.1-0.1 0.3-0.1 0.2-0.2 0.3 0 0.2 0 0.4v14.5q0 0.4 0.1 0.7 0.2 0.4 0.4 0.6 0.3 0.3 0.6 0.4 0.4 0.2 0.7 0.2l14.7 0.5 0.1 10.1-15.2-0.5q-0.2 0-0.4 0-0.2 0-0.4 0.1-0.2 0.1-0.3 0.2-0.2 0.1-0.3 0.2-0.2 0.2-0.3 0.3-0.1 0.2-0.1 0.4-0.1 0.1-0.1 0.3-0.1 0.2-0.1 0.4l0.4 12.8q0 0.3 0.1 0.7 0.2 0.3 0.4 0.6 0.3 0.2 0.6 0.4 0.3 0.1 0.7 0.1l15 0.7 0.3 6.8v3.3l-14.9-1h-0.1q-0.3 0-0.7 0.2-0.4 0.1-0.6 0.4-0.3 0.2-0.5 0.6-0.1 0.3-0.1 0.7v1.9l-0.2 11.7q0 0.4 0.2 0.7 0.1 0.3 0.4 0.6 0.2 0.3 0.6 0.4 0.3 0.1 0.7 0.1h15l0.6 9.6v0.2h-15.6q-0.4 0-0.7 0.2-0.3 0.1-0.6 0.4-0.3 0.3-0.4 0.6-0.2 0.3-0.1 0.7v13.9q0 0.4 0.1 0.8 0.1 0.3 0.4 0.6 0.3 0.2 0.6 0.4 0.4 0.1 0.7 0.1l15.3 0.2v9h-13.6q-0.4 0-0.8 0.1-0.3 0.1-0.6 0.4-0.2 0.3-0.4 0.6-0.1 0.4-0.1 0.8v16.3q0 0.3 0.1 0.7 0.2 0.3 0.4 0.6 0.3 0.3 0.6 0.4 0.4 0.1 0.8 0.2l14.4-0.1 3.5 320.7 0.3 33.8-2.9 2.6-3.6-166.8q0-0.1 0-0.1 0 0 0 0 0 0 0 0 0 0 0-0.1v-0.1l-2.5-17.3v-0.3l2.5-151v-0.1l-0.9-18.1q0-0.4-0.2-0.7-0.1-0.3-0.4-0.6-0.3-0.2-0.6-0.4-0.3-0.1-0.7-0.1l-8.2 0.3q-0.2 0-0.4 0-0.2 0.1-0.4 0.2-0.2 0.1-0.4 0.3-0.1 0.1-0.3 0.3l-12.3 17.8q0 0.1 0 0.1-0.1 0.1-0.1 0.1 0 0.1 0 0.1-0.1 0.1-0.1 0.2v0.1q0 0 0 0 0 0.1 0 0.1 0 0.1-0.1 0.1 0 0.1 0 0.1v0.2l3.8 150.6-10.1 18.1v0.1q0 0 0 0.1 0 0-0.1 0 0 0.1 0 0.1 0 0.1 0 0.1v0.1q0 0.1 0 0.1 0 0.1 0 0.1 0 0.1 0 0.1 0 0.1 0 0.1l1.6 155-12.8-0.8v-437.8q0-0.1 0-0.1 0.1-0.1 0.1-0.1 0-0.1-0.1-0.1 0-0.1 0-0.1v-0.2q0-0.1 0-0.1 0 0 0-0.1 0 0 0 0-0.1-0.1-0.1-0.1v-0.2q0-0.1 0-0.1 0 0-0.1 0 0-0.1 0-0.1-0.1 0-0.1-0.1l-0.1-0.1-0.1-0.1-0.2-0.1h-0.1-1l-21.7 3.2zm25.4-40.1q-0.1 0.2-0.2 0.3 0 0.2-0.1 0.4 0 0.2 0 0.4l0.4 62.7q0 0.4 0.2 0.8 0.1 0.3 0.4 0.6 0.3 0.2 0.6 0.4 0.4 0.1 0.7 0.1l16.6 0.4q0.4 0 0.7-0.2 0.3-0.1 0.6-0.4 0.3-0.3 0.4-0.6 0.2-0.4 0.1-0.7v-63.2q0-0.3-0.1-0.7-0.1-0.3-0.4-0.6-0.3-0.3-0.6-0.4-0.4-0.1-0.7-0.1h-17q-0.2-0.1-0.4 0-0.2 0-0.4 0.1-0.1 0.1-0.3 0.2-0.1 0.1-0.3 0.2-0.1 0.1-0.2 0.3z"/>
		<path class="s1" d="m946.4 932.7l3.1 4.5 5.7 6q0.1-0.1 0.2-0.1 0.1 0 0.2-0.1 0.1 0 0.2 0 0.1 0 0.2 0l13.5-0.1-9.3-10.8z"/>
		<path class="s1" d="m741.4 1111.4l58.1-10.3v-35.9l-59.4 9.9 1.3 36.3z"/>
		<path class="s1" d="m858.6 766.6l2.4 342.2 4.9 0.2-0.1-134.7-1.6-196.6-5.6-11.1z"/>
		<path class="s1" d="m740 1071.3l59.5-10.5v-392.1l-61.3 82.3 0.4 74.6 1.4 245.7z"/>
		<path fill-rule="evenodd" class="s1" d="m1012.3 442.9v698.6h-777.4l-0.8-698.6c0-183.6 179.1-333.7 391.7-333.7 212.6 0 386.5 150.2 386.5 333.7zm-35.5 666.6q0.2-0.1 0.3-0.3 0.2-0.2 0.2-0.4 0.1-0.3 0.1-0.5 0.1-0.1 0.1-0.2 0.1-0.1 0.1-0.2 0-0.1 0-0.2 0-0.1 0-0.2v-1l-2-162.8q0-0.2-0.1-0.5-0.1-0.3-0.2-0.5-0.2-0.3-0.4-0.4-0.3-0.2-0.5-0.3l-11.8-13.5-0.8-142.8q0 0 0 0 0-0.1 0-0.1 0-0.1 0-0.1 0-0.1 0-0.1 0 0 0 0 0 0 0-0.1 0 0 0 0 0 0 0 0 0-0.1 0-0.1 0 0-0.1 0 0-0.1 0-0.1 0 0 0-0.1v-0.1q0 0 0 0 0 0 0 0 0 0-0.1-0.1 0 0 0 0 0 0 0 0 0 0 0-0.1 0 0 0 0-0.1 0-0.1 0l-0.1-0.1-13-13.7-2.8-229.5 3.1 4.7c0.4 0.4 0.9 0.7 1.5 0.7 0.6 0.1 1.1-0.1 1.6-0.5 0.4-0.4 0.7-0.9 0.7-1.5 0.1-0.5-0.1-1.1-0.5-1.5l-97.4-193.2c12-1.2 21.3-9.2 21.3-18.8v-0.9c0-10.1-10.3-18.4-23.1-18.9l0.4-50.9 29-0.3v-4.7l-29 0.3 0.3-28.8v-0.9h-3.8l-0.2 29.8-28.5 0.3v4.7l28.3-0.3-0.4 50.8c-12.4 1-22 9.1-22 18.9v0.9c0 9.6 9.3 17.6 21.3 18.8l-83 183.8q-0.1 0.5-0.1 1.1 0.1 0.5 0.3 1 0.3 0.5 0.7 0.9 0.4 0.4 0.9 0.6 0.2 0 0.4-0.1 0.2 0 0.4-0.1 0.2-0.1 0.3-0.2 0.2-0.1 0.3-0.3l2-2.4 2.9 71.6-362.6 56.8q-0.2 0-0.3 0.1-0.2 0-0.3 0.1-0.1 0.1-0.2 0.1-0.1 0.1-0.2 0.2l-137 136.8q-0.2 0.2-0.3 0.4-0.2 0.2-0.2 0.5-0.1 0.2-0.1 0.4 0 0.3 0.1 0.5-0.1 0.4-0.1 0.9 0.1 0.4 0.4 0.8 0.3 0.3 0.7 0.5 0.4 0.2 0.8 0.2h0.2l5-0.6 1.6 271.1q0 0.1 0 0.2 0 0.1 0.1 0.2 0 0.1 0 0.2 0 0.1 0.1 0.2l-0.2 34.6v1q0 0.2 0 0.4 0 0.2 0.1 0.4 0.1 0.1 0.2 0.3 0.1 0.1 0.2 0.3 0.2 0.1 0.3 0.2 0.2 0.1 0.3 0.2 0.2 0 0.4 0.1 0.2 0 0.3 0l457.2 2.2h0.3l61.6-11 14.5 0.9 0.1 6q0 0 0 0 0 0 0 0.1 0 0 0 0 0 0 0 0.1v0.1q0 0 0 0 0 0.1 0 0.1 0 0 0 0 0 0.1 0 0.1v0.1q0 0 0 0 0 0.1 0 0.1 0 0 0.1 0 0 0.1 0 0.1v0.1l0.1 0.2 0.1 0.1 0.2 0.2 0.1 0.1 0.2 0.1h0.1l0.2 0.1 0.3 0.1 29.9 5.5h1l0.1-0.1 0.2-0.1 0.1-0.1 0.1-0.1 6.1-5.5 13.3 0.3 7.5 6.1q0.1 0 0.1 0.1 0.1 0 0.1 0.1 0.1 0 0.1 0 0.1 0 0.1 0.1 0.1 0.1 0.1 0.2 0.1 0.1 0.2 0.2 0 0.1 0.1 0.1 0.1 0.1 0.2 0.2 0.1 0.1 0.3 0.2 0.1 0 0.3 0.1 0.1 0 0.3 0 0.1 0.1 0.3 0.1 0 0 0.1 0 0.1 0 0.1 0 0.1-0.1 0.1-0.1 0.1 0 0.2 0l10.2-2.8 8.5-2.2q0.3-0.1 0.5-0.3 0.3-0.1 0.5-0.4 0.2-0.2 0.3-0.5 0.1-0.3 0.1-0.6l0.8-17.4 31 15.8 0.3 0.1q0.1 0 0.1 0.1 0.1 0 0.2 0 0 0 0.1 0 0.1 0 0.1 0h0.1q0.1 0 0.1 0 0.1 0 0.1 0 0.1 0 0.1 0 0.1 0 0.1 0l11.4-2.7 11.2 8.6q0.1 0.2 0.3 0.3 0.1 0.1 0.3 0.2 0.1 0.1 0.3 0.1 0.2 0.1 0.3 0h1l19.7-8.8q0.3-0.1 0.4-0.3z"/>
		<path class="s1" d="m836.2 761l-9.7 14.1h15.7l-0.7-14.3-5.3 0.2z"/>
		<path class="s1" d="m878.4 774.3l-11-13.6-7.5-0.1 7.4 14.6c1.4-0.1 4.6-0.4 11.1-0.9z"/>
		<path class="s1" d="m955.9 785.1l-8.3-8.7-1.9-1.9-14.7 0.1 10.6 11.4c1.5-0.1 5.2-0.3 14.3-0.9z"/>
		<path class="s1" d="m880.1 922.4l0.1-144.5-12.2 1c0.3 15.4 2.1 127.7 2.4 143.9z"/>
		<path class="s1" d="m880.3 777.9l-12.3 1z"/>
		<path class="s1" d="m942.7 789.7c0.2 15.3 1.8 123.4 2 139.3l14.3-0.6-0.8-139.6z"/>
		<path class="s1" d="m942.7 789.7l15.5-0.9c-5.5 0.3-12.4 0.7-15.5 0.9z"/>
		<path class="s1" d="m869.5 933.1v41.2l1.1 135q0.2 0.1 0.3 0.1 0.1 0 0.3 0.1 0.1 0 0.2 0.1 0.1 0.1 0.2 0.2l3.7 3.2-0.7-167.8z"/>
		<path class="s1" d="m824.8 778.9l3.7 147.2h11.3l2.5-147.2h-17.5z"/>
		<path class="s1" d="m819.6 944.6l22.4-0.5-2-14.2h-12.3l-8.1 14.7z"/>
		<path class="s1" d="m819.9 1109.8l26 4.8-3.6-166.7-14.6 0.3-9.6 0.2 1.6 154.8q0 0 0.1 0.1 0 0.1 0 0.1 0 0.1 0 0.1 0 0.1 0 0.2z"/>
		<path class="s1" d="m872 331.3c0-8.3-9.3-15.1-20.7-15.1-11.4 0-20.7 6.8-20.7 15.1 0 8.3 9.3 15.1 20.7 15.1 11.4 0 20.7-6.7 20.7-15.1z"/>
		<path class="s1" d="m834.9 685.3l-0.2 9.7 13.5 0.1-0.1-9-13.2-0.8z"/>
		<path class="s1" d="m836.2 739.4v12.5l12.6-0.1-0.2-12.3-12.4-0.1z"/>
		<path class="s1" d="m832.4 548.3v10l14.3 0.1-0.1-10.2-14.2 0.1z"/>
		<path class="s1" d="m834.7 574.2v11.7l12.3 0.5-0.1-12.3-12.2 0.1z"/>
		<path class="s1" d="m834.4 658.9l0.2 9 13.3 0.6-0.1-9.2-13.4-0.4z"/>
		<path class="s1" d="m834.7 601.9v9.8l12.6 0.1-0.1-9.8-12.5-0.1z"/>
		<path class="s1" d="m834.9 630.6v10.6l12.7 0.4-0.1-10.8-12.6-0.2z"/>
		<path class="s1" d="m845.8 522.5l-13.4 0.1v11.2l14 0.1-0.1-10.8-0.5-0.6z"/>
		<path class="s1" d="m834.7 712.4v10.3l13.8 0.2-0.2-10.5h-13.6z"/>
		<path class="s1" d="m849 358.4l-74.7 165.5 32.1-38.3 4.2-5.3q0.1-0.2 0.3-0.3 0.1-0.2 0.3-0.3 0.2-0.1 0.4-0.1 0.2-0.1 0.4-0.1h0.4q0.2 0 0.4 0.1 0.2 0 0.4 0.1 0.1 0.1 0.3 0.2 0.2 0.1 0.3 0.3l7.8 8.9 25.4 27.9z"/>
		<path class="s1" d="m810.6 480.2l-4.2 5.3 4.5-5.3q0.1-0.2 0.3-0.3 0.1-0.1 0.3-0.2 0.2-0.1 0.3-0.1 0.2-0.1 0.4-0.1h-0.2q-0.2 0-0.4 0.1-0.2 0-0.4 0.1-0.2 0.1-0.3 0.2-0.2 0.2-0.3 0.3z"/>
		<path class="s1" d="m821.6 489.1l25.4 29v-1.1l-25.4-27.9z"/>
		<path class="s1" d="m896.9 463.5l0.1-0.2q0.2-0.1 0.3-0.2 0.2-0.1 0.4-0.1 0.1-0.1 0.3-0.1 0.2 0 0.4 0 0.1-0.1 0.3-0.1 0.1 0.1 0.2 0.1 0.2 0 0.3 0.1 0.2 0.1 0.3 0.2c0 0.1 0.3 0.4 0.4 0.5l32.7 50.6-79.7-158.1-1.8 159.1z"/>
		<path class="s1" d="m897.4 463.1l-0.2 0.1z"/>
		<path class="s1" d="m851.1 515.3v1.2l45.8-53 0.2-0.2-0.2 0.2z"/>
		<path class="s1" d="m899.6 463.3l0.2 0.2z"/>
		<path class="s1" d="m899.5 463.2l-0.2-0.1z"/>
		<path class="s1" d="m851.1 516.5v-1.2l-0.3 0.3v1.3l0.3-0.4z"/>
		<path class="s1" d="m880 1116.1l7.9-2 6.8-1.9-1.2-164.4h-14.2c0.1 19 0.6 148.5 0.7 168.3z"/>
		<path class="s1" d="m879.3 947.6v0.2h14.2v-0.2z"/>
		<path class="s1" d="m880 1116.2l7.9-2.2-7.9 2z"/>
		<path class="s1" d="m954.1 951.6v-3.9h-0.7q-0.2 0-0.5 0-0.2-0.1-0.4-0.2-0.2-0.1-0.3-0.2-0.2-0.2-0.4-0.4l-5.2-7.4-2-2.1 0.2 29.1 1.6 139.6q0 0.1 0 0.3 0 0.1 0 0.2-0.1 0.1-0.1 0.2-0.1 0.2-0.1 0.3l7.8 6z"/>
		<path class="s1" d="m946.6 939.6l5.3 7.4q0.1 0.2 0.3 0.3 0.1 0.2 0.3 0.3 0.2 0.1 0.4 0.1 0.3 0.1 0.5 0.1h0.7v-0.2z"/>
		<path class="s1" d="m957.9 947.6v166.3l15.9-7.5-2-159.5z"/>
		<path class="s1" d="m957.9 946.8v0.8l13.9-0.7v-0.2l-13.9 0.1z"/>
		<path class="s1" d="m973.8 1106.4l0.1-0.1-1.9-159.4h-0.2l2 159.5z"/>
		<path class="s1" d="m972 946.9v-0.2h-0.2v0.2h0.2z"/>
		<path fill-rule="evenodd" class="s2" d="m1210 0v1210h-1210v-1210zm-197.7 442.9c0-183.5-173.9-333.7-386.5-333.7-212.6 0-391.7 150.2-391.7 333.7l0.8 698.6h777.4z"/>
	</g>
</svg>