<svg version="1.2" xmlns="http://www.w3.org/2000/svg" viewBox="0 0 1210 1210" width="1210" height="1210">
	<title>24-Kisha-Shen-Nikolla-svg</title>
	<style>
		.s0 { fill: #000000 } 
		.s1 { fill: #ffffff } 
	</style>
	<g id="Black">
		<path class="s0" d="m0 0h1210v1210h-1210z"/>
	</g>
	<g id="Color">
		<path fill-rule="evenodd" class="s1" d="m5 5h1199.9v493.5c0 469.8 0 493.6-0.4 493.7-0.2 0.1-2 0.4-4 0.7-9.5 1.6-16 2-20.6 1.3-2.7-0.4-12-1.4-19.1-2l-4.7-0.4-0.2-1.8c-0.1-1-0.4-7.6-0.8-14.7-0.3-7-0.8-15.4-1.1-18.6-1.2-16.2-1.5-22.4-1.8-36-0.2-16.5 0.6-39.1 2.4-64q0.2-3.4 0.3-6.8 0.2-3.4 0.2-6.8 0-3.4 0-6.8-0.1-3.4-0.3-6.8c-0.2-4.8-0.3-9.6-0.2-13.9l0.2-6.6 0.7-0.6c0.9-0.9 1-2 0.2-3.3l-0.5-0.9 2.2 0.2c3.8 0.4 4.5 0.3 6.7-0.8 3.8-1.7 11.8-6.5 13-7.7q0.2-0.2 0.5-0.4 0.3-0.1 0.5-0.3 0.3-0.2 0.6-0.3 0.3-0.2 0.5-0.3c3.7-1.9 5-4.1 3.7-6.3-0.9-1.4-2.1-1.7-7.1-1.3-4.3 0.3-5.2 0.3-16.7-1.3-10.5-1.5-12.6-1.7-19.9-2.3-8.8-0.7-16.8-1.4-34.7-3.2-24.8-2.5-35.5-3.5-49.7-4.3-8.5-0.5-32.7-0.4-41 0.2q-4 0.2-8 0.2-4 0.1-8 0.1-4-0.1-8-0.2-4-0.2-8-0.5c-4.4-0.2-9.4-0.5-11.1-0.5-2.7 0-3.1-0.1-3.1-0.4-0.1-0.2-0.4-1.6-0.6-3-0.3-1.4-1-3.9-1.5-5.6-0.5-1.7-1.9-6.7-3-11-2.4-9.2-3.3-12.5-4.7-16l-4.2-10.9c-6.3-16.8-9-22.6-13.6-29.7q-1.1-1.6-2.3-3.2-1.1-1.6-2.4-3.1-1.2-1.5-2.6-2.9-1.3-1.4-2.7-2.8c-5.5-5.4-10.6-9.6-19.5-15.8-7.7-5.4-17.1-10.2-23.3-11.8-2.7-0.7-5.2-0.7-12.2 0.1-3.5 0.4-8 0.8-11.9 0.9q-2.6 0.1-5.3 0.2-2.7 0.2-5.3 0.5-2.6 0.4-5.3 0.8-2.6 0.4-5.2 1-2.3 0.5-4.5 1-2.2 0.6-4.4 1.3-2.2 0.6-4.4 1.4-2.1 0.8-4.3 1.6-1.3 0.5-2.6 1.1-1.4 0.6-2.6 1.2-1.3 0.7-2.6 1.4-1.2 0.7-2.4 1.5l-2.3 1.6-1.4-0.1q-1-0.2-2.1-0.5-1.1-0.2-2.1-0.5-1.1-0.3-2.1-0.7-1.1-0.3-2.1-0.8c-2.7-1-3-1.1-3.4-2-0.7-1.2-1.7-1.6-4.9-2-9.6-0.8-9.5-0.8-11.7-3.1-1.9-1.9-2.4-2-7-1.8-3.7 0.2-5.1-0.2-8.2-2.1-3.8-2.3-3.5-2.2-5.6-1.6l-1.8 0.6-2.1-0.6c-1.2-0.2-3.2-0.8-4.5-1.2-2.2-0.7-2.3-0.8-2.3-1.5q-0.1-0.4-0.3-0.8-0.2-0.4-0.5-0.8-0.4-0.3-0.8-0.5-0.4-0.2-0.8-0.2-0.5 0-0.9 0.1-0.4 0.2-0.7 0.4-0.4 0.1-0.8 0.4-0.3 0.2-0.6 0.5c-0.5 0.5-0.6 0.4-4.5-1.2-7.2-3-8.4-3.9-8.4-4.6 0-0.7-1.1-1.9-2.1-2.1q-0.5-0.1-1-0.1-0.4 0-0.9 0.2-0.4 0.2-0.8 0.5-0.4 0.3-0.6 0.8l-0.7 0.9-2.5-0.6c-2.6-0.7-3.1-0.9-5.9-3.2-2.1-1.7-2.9-2.1-4.3-2.1q-0.2 0-0.5 0-0.2 0-0.5 0.1-0.2 0.1-0.4 0.2-0.2 0.1-0.4 0.3l-0.7 0.6-2.9-0.8c-1.5-0.4-3.4-1.1-4.2-1.4l-1.4-0.6-0.2-1.3c-0.2-2.3-1.9-3-4.8-2l-1.3 0.5-3.2-0.8c-5.3-1.3-6.1-1.7-6.6-2.8-1-2.1-2.8-2.3-6.3-0.9q-0.3 0.1-0.6 0.2-0.3 0.1-0.6 0.2-0.3 0.1-0.6 0.2-0.3 0-0.6 0.1-0.9-0.2-1.8-0.5-0.9-0.2-1.8-0.5-0.8-0.3-1.7-0.7-0.9-0.3-1.7-0.7c-1.4-0.7-1.4-0.7-1.5-1.7q0.1-0.4 0-0.8-0.1-0.5-0.3-0.8-0.2-0.4-0.5-0.7-0.3-0.3-0.7-0.4-0.4-0.2-0.8-0.3-0.5-0.1-0.9 0-0.4 0-0.8 0.2-0.4 0.1-0.8 0.4c-0.6 0.5-1.2 0.4-5.5-1-3.3-1-4-1.5-4.6-3-0.8-2.3-2.7-3.1-4.8-2.1-0.8 0.4-0.9 0.4-3.8-0.3-1.6-0.4-3.5-0.9-4.1-1.1-1-0.4-1.1-0.5-1-1.1q0.1-0.4 0-0.8-0.1-0.4-0.3-0.7-0.1-0.4-0.4-0.7-0.3-0.3-0.6-0.5c-1-0.4-2-0.1-3.4 1.2-1.2 1-1.3 1-2.4 0.9q-0.8-0.2-1.7-0.4-0.8-0.2-1.6-0.4-0.8-0.3-1.6-0.6-0.7-0.3-1.5-0.7c-2.4-1.2-2.9-1.6-2.9-2.7q0 0 0-0.1 0 0 0 0 0-0.1 0-0.1 0 0 0 0-0.1-0.4-0.2-0.8-0.2-0.3-0.5-0.6-0.3-0.3-0.7-0.4-0.4-0.1-0.8-0.1c-0.8 0-1.1 0.2-2.1 1l-1.1 1-3-1c-1.7-0.5-3.5-1.2-4.2-1.5-1-0.5-1.1-0.6-1-1.2q0.1-0.4 0-0.8-0.1-0.4-0.2-0.7-0.2-0.4-0.4-0.7-0.2-0.3-0.6-0.6c-0.8-0.5-2.3-0.4-4 0.5l-1.5 0.8-1.6-0.5c-0.8-0.3-3-1.2-4.8-1.9-4.1-1.7-5.8-2.1-8.1-1.6q-0.8 0.1-1.7 0.1-0.8 0.1-1.6 0-0.9-0.1-1.7-0.3-0.8-0.2-1.6-0.5l-1.8-0.6v-0.9q0-0.4-0.1-0.7-0.1-0.4-0.3-0.7-0.2-0.3-0.5-0.5-0.2-0.2-0.6-0.4-0.3-0.2-0.7-0.3-0.4 0-0.8 0-0.4 0-0.8 0.2-0.4 0.1-0.7 0.3l-1 0.6-1.8-0.5q-0.9-0.1-1.7-0.4-0.8-0.2-1.6-0.5-0.7-0.2-1.5-0.6-0.8-0.3-1.5-0.7-0.3-0.1-0.6-0.2-0.3-0.2-0.6-0.4-0.3-0.2-0.5-0.4-0.3-0.2-0.5-0.5-0.5-1.3-2.6-1.3-0.2 0-0.4 0-0.3 0-0.5 0.1-0.2 0.1-0.4 0.1-0.2 0.1-0.5 0.3-0.3 0.2-0.6 0.4-0.4 0.2-0.7 0.3-0.4 0.1-0.8 0.2-0.4 0.1-0.8 0.1-0.3-0.1-0.7-0.2-0.4-0.1-0.8-0.2-0.3-0.1-0.7-0.2-0.4-0.1-0.8-0.3c-1.3-0.4-2.9-1-3.7-1.2-1.3-0.3-1.3-0.4-1.8-1.7-0.7-1.5-1.2-2-2.6-2q-0.4 0.1-0.8 0.2-0.4 0.1-0.7 0.4-0.3 0.2-0.6 0.5-0.2 0.3-0.4 0.7l-0.2 0.6-1.4-0.5c-0.8-0.2-2.9-1.1-4.6-2-2.6-1.2-3.4-1.7-3.8-2.3-1.1-1.8-2.8-2.1-4.3-0.9l-0.8 0.7-2.5-1.1q-0.6-0.2-1.2-0.4-0.6-0.2-1.2-0.4-0.6-0.2-1.2-0.4-0.6-0.2-1.2-0.3c-2.9-0.6-2.9-0.6-3.4-1.7-0.8-1.9-2.7-2.5-4.2-1.5-0.6 0.5-0.7 0.5-2.2 0.2-0.8-0.2-2.5-0.7-3.6-1-1.9-0.6-2.2-0.8-2.6-1.4q-0.1-0.2-0.2-0.4-0.2-0.2-0.3-0.4-0.1-0.2-0.3-0.4-0.2-0.1-0.3-0.3-0.2-0.2-0.4-0.4-0.2-0.2-0.4-0.3-0.3-0.1-0.5-0.1-0.3 0-0.5 0-0.3 0-0.5 0-0.2 0-0.4 0.1-0.2 0-0.4 0-0.2 0.1-0.4 0.1c-0.5 0.2-1.6-0.1-5.5-1.5-6.1-2.3-8.2-2.8-9.5-2.6-1 0.1-1 0.1-3.4-2.2-2.4-2.3-3.5-3-4.7-3q-0.5 0-0.9 0.2-0.5 0.1-0.9 0.3-0.4 0.2-0.8 0.5-0.3 0.3-0.6 0.6c-0.8 0.9-1.2 1-2.8 1.3-1.6 0.2-3.9 0.8-9.3 2.3-0.4 0.1-0.5 0-0.3-1.4 0-0.8 0.2-4.1 0.3-7.3 0.1-4.9 0.2-5.8 0.5-6.3q0.1-0.2 0.2-0.4 0.2-0.2 0.2-0.4 0.1-0.2 0.2-0.4 0.1-0.2 0.2-0.4 0.2-0.5 0.4-0.9 0.2-0.4 0.5-0.9 0.3-0.4 0.6-0.8 0.3-0.3 0.6-0.7c2.5-3.1 2.9-4.2 2.9-7.3q0.1-1.2-0.1-2.4-0.2-1.3-0.5-2.4-0.4-1.2-0.9-2.3-0.6-1.1-1.3-2.1c-0.9-1.3-4.1-3.6-8.7-6.3l-2.7-1.5-1.2-2.5q-0.6-1.2-1.2-2.2-0.6-1.1-1.3-2.1-0.7-1.1-1.5-2.1-0.7-1-1.5-1.9c-0.8-0.9-3.3-4.2-5.6-7.2-6.9-9.2-8.8-11.2-13.6-14.5-4.2-2.8-8.2-4.8-17.7-8.7-2.8-1-6-2.4-7.3-3-2.4-1-4.4-1.5-10.4-2.5l-3.4-0.5-0.2-2c-0.2-2-0.2-2 0.6-2.8 0.9-1 1.3-2.5 1.1-4.6-0.2-2.4-0.5-3.4-1.3-4.1l-0.8-0.6v-10.9c0-6 0-10.9 0-10.9l1.7 0.2c1.4 0.3 1.5 0.4 1.5 1 0 1.3 3 5.3 4.4 5.7q0.3 0.2 0.6 0.2 0.3 0 0.6-0.1 0.3-0.1 0.6-0.2 0.3-0.2 0.5-0.4 0-0.1 0.1-0.2 0.1 0 0.2-0.1 0.1 0 0.1-0.1 0.1 0 0.2 0 0.2-0.1 0.3-0.1 0.2-0.1 0.3-0.2 0.1-0.1 0.2-0.2 0.1-0.1 0.2-0.2 0.2-0.2 0.4-0.3 0.2-0.1 0.4-0.2 0.2-0.1 0.4-0.2 0.2-0.1 0.4-0.1 0.2-0.1 0.4-0.1 0.1 0 0.3-0.1 0.2-0.1 0.3-0.2 0.2-0.1 0.3-0.2 0.1 0 0.2-0.1 0.1 0 0.1-0.1 0.1 0 0.2-0.1 0.1 0 0.2 0 0.3-0.1 0.6-0.2 0.3-0.1 0.6-0.3 0.3-0.2 0.5-0.4 0.2-0.3 0.4-0.6 0.2-0.3 0.3-0.8 0.1-0.4 0-0.9 0-0.4-0.2-0.8-0.3-0.4-0.6-0.7-0.1-0.2-0.3-0.3-0.1-0.1-0.2-0.2-0.1-0.2-0.2-0.3-0.1-0.2-0.1-0.3-0.1-0.2-0.1-0.3 0-0.1-0.1-0.3 0-0.1-0.1-0.2-0.1-0.2-0.1-0.3-0.2-0.3-0.5-0.6-0.2-0.3-0.6-0.5-0.3-0.2-0.7-0.3-0.4-0.1-0.8-0.1c-0.7 0-0.9-0.1-0.9-0.5q0-0.1-0.1-0.3-0.1-0.2-0.1-0.3-0.1-0.2-0.3-0.3-0.1-0.1-0.2-0.2-0.2-0.2-0.3-0.3-0.1-0.2-0.2-0.3-0.1-0.2-0.1-0.4-0.1-0.2-0.1-0.4c0-0.9-1.3-2.2-2.5-2.4q-0.4-0.1-0.8-0.1-0.4 0.1-0.8 0.2-0.4 0.2-0.7 0.5-0.3 0.2-0.5 0.6-0.1 0.1-0.2 0.2-0.1 0.1-0.1 0.2-0.1 0.1-0.2 0.2-0.2 0.1-0.3 0.1-0.2 0.2-0.4 0.4-0.2 0.2-0.4 0.5-0.1 0.2-0.2 0.5-0.1 0.3-0.1 0.6c0 0.3 0 0.5-0.1 0.5 0 0-0.6-0.2-1.3-0.4l-1.3-0.3 0.1-0.9q0.1-0.3 0.1-0.5 0-0.2 0-0.5 0.1-0.2 0.1-0.5 0-0.2 0-0.4c0-0.8 0.1-1 0.3-1 0.7 0 2.4-1.8 2.9-3 0.8-1.6 0.8-2.3 0-3.3q-0.1-0.2-0.2-0.4-0.1-0.2-0.2-0.4-0.2-0.2-0.3-0.4-0.1-0.2-0.2-0.3 0-0.2-0.1-0.4-0.1-0.1-0.2-0.3-0.1-0.1-0.2-0.2-0.2-0.2-0.3-0.3c-0.4-0.3-0.5-0.6-0.4-1.7 0.1-1.2 0.1-1.3-0.6-2q-0.1-0.2-0.3-0.3-0.1-0.2-0.2-0.3-0.1-0.2-0.1-0.4-0.1-0.2-0.1-0.3-0.1-0.2-0.1-0.4-0.1-0.2-0.2-0.3 0-0.2-0.1-0.4-0.1-0.1-0.3-0.2-0.1-0.3-0.3-0.4-0.2-0.2-0.4-0.3-0.2-0.1-0.4-0.1-0.3 0-0.5 0c-0.9 0-1.3 0.2-2.5 1.1-1.8 1.3-3.2 2.9-3.2 3.6 0 0.3-0.4 0.9-1.1 1.4-2.5 2-2.8 3.3-1.4 5.1q2.1 2.8 3.4 3.2l0.8 0.3v3.5h-2.9v-0.7q0-0.3-0.1-0.7 0-0.3-0.2-0.7-0.1-0.3-0.4-0.6-0.2-0.2-0.4-0.5-0.2-0.1-0.2-0.2-0.1-0.1-0.2-0.3-0.1-0.1-0.1-0.3 0-0.1 0-0.3c0-1.3-1.7-2.4-3.1-2.1-0.4 0.1-1.2 0.3-1.8 0.4q-0.4 0-0.8 0.2-0.3 0.1-0.7 0.4-0.3 0.2-0.6 0.5-0.2 0.3-0.4 0.7c-0.2 0.3-0.5 0.6-0.8 0.6q-0.3 0.1-0.6 0.2-0.3 0.2-0.6 0.4-0.3 0.2-0.5 0.4-0.2 0.3-0.4 0.5 0 0.2-0.1 0.3 0 0.1-0.1 0.3-0.1 0.1-0.2 0.2-0.2 0.1-0.3 0.1-0.3 0.2-0.6 0.5-0.3 0.3-0.5 0.6-0.2 0.4-0.3 0.8-0.1 0.3-0.1 0.7 0 0.4 0 0.7 0.1 0.4 0.3 0.7 0.1 0.3 0.4 0.5 0.2 0.3 0.5 0.5 0.1 0 0.2 0.1 0.1 0.1 0.2 0.2 0.1 0 0.1 0.2 0.1 0.1 0.1 0.2 0.1 0.4 0.4 0.7 0.2 0.4 0.5 0.6 0.4 0.3 0.8 0.4 0.3 0.1 0.8 0.1c0.7 0 0.9 0 1.1 0.6q0.1 0.2 0.2 0.3 0.1 0.1 0.3 0.3 0.1 0.1 0.2 0.2 0.2 0.1 0.3 0.2 0.2 0.1 0.3 0.2 0.2 0.2 0.3 0.3 0.1 0.1 0.2 0.3 0.1 0.1 0.2 0.3c1.1 1.9 5.1 1.1 6-1.2 0.1-0.4 0.3-1.1 0.5-1.4 0.2-0.7 0.2-0.7 1.7-0.5 1.7 0.2 1.9 0.3 1.9 1q0 0.2 0 0.3 0.1 0.2 0.1 0.3 0.1 0.2 0.1 0.3 0.1 0.2 0.2 0.3c0.3 0.7 0.4 2 0.4 11.3l0.1 10.6-0.6 1.3q-0.2 0.4-0.4 0.7-0.1 0.4-0.2 0.9-0.1 0.4-0.1 0.8 0 0.4 0 0.8 0 0.6 0 1.1 0.1 0.6 0.2 1.1 0.2 0.6 0.4 1.1 0.3 0.5 0.6 0.9 0.1 0.4 0.2 0.7 0.1 0.4 0.2 0.7 0 0.4 0 0.7 0.1 0.4 0 0.8l0.2 2.4-1 0.1c-0.6 0.1-2.4 0.3-4.1 0.4-13.2 1.1-27.4 6.3-36.9 13.3-4.4 3.3-8.2 7.3-15.2 16.1-2 2.5-4.6 5.5-5.8 6.7-1.5 1.6-2.1 2.4-2.3 3.2-0.3 0.9-0.4 1-3 2.3-6.4 3.2-10.8 7.5-12.4 12q-0.4 1.2-0.5 2.4-0.2 1.3-0.1 2.5 0.1 1.3 0.5 2.5 0.3 1.2 0.9 2.4c0.9 1.6 1.8 2.4 4.5 3.8l2 1-0.1 2.8c-0.1 1.5-0.3 4.3-0.4 6.3-0.3 4-0.1 9.4 0.8 19.5 0.3 3.7 0.6 8.5 0.7 10.5 0.2 4.1 0.6 10.4 0.8 11 0.1 0.4-5 3.6-15.5 9.6-1.9 1.1-5.5 3.5-8 5.3-4.9 3.4-8.3 5.6-9.8 6q-0.4 0.1-0.7 0.3-0.3 0.2-0.6 0.5-0.3 0.3-0.4 0.6-0.1 0.4-0.2 0.8 0.1 0.3 0.2 0.6 0.1 0.3 0.4 0.6 0.2 0.2 0.5 0.4 0.3 0.2 0.6 0.2c0.4 0 0.5 0.2 0.5 0.8q0 0.3 0.1 0.7 0 0.4 0.2 0.8 0.2 0.3 0.4 0.6 0.3 0.3 0.6 0.5 0.1 0.1 0.2 0.2 0.1 0 0.2 0.1 0.1 0.1 0.1 0.3 0.1 0.1 0.1 0.2 0 0.3 0.2 0.6 0.1 0.3 0.3 0.6 0.2 0.2 0.4 0.4 0.2 0.2 0.5 0.4c0.7 0.1 1 1 0.8 2.3-0.1 0.9 0 1.2 0.5 1.7q0.1 0.1 0.2 0.2 0.1 0.1 0.2 0.2 0.1 0.1 0.3 0.1 0.1 0.1 0.2 0.2c0.3 0.1 0.3 0.7 0.1 4.2-0.3 3.4-0.3 4.1 0 4.7q0.1 0.1 0.1 0.2 0.1 0.1 0.1 0.2 0.1 0.1 0.1 0.2 0 0.1 0 0.2l-4.2 1.9c-8.8 3.9-19.9 9.4-26.5 13.1q-1.2 0.7-2.5 1.4-1.2 0.7-2.5 1.3-1.2 0.6-2.5 1.1-1.3 0.6-2.6 1.1c-7.3 3-10.1 4.6-14.5 7.9-2.7 2.1-5.3 3.5-10.6 5.6q-2.1 0.9-4.2 1.8-2.1 0.9-4.1 1.9-2 1.1-4 2.1-2 1.1-3.9 2.3c-13.1 7.6-27.4 15.4-45.7 25-24.8 13.1-47.2 24.6-54.6 28.2-4.4 2.1-9.1 4.3-10.6 5.1q-0.6 0.2-1.1 0.5-0.6 0.3-1.2 0.5-0.6 0.3-1.2 0.5-0.6 0.2-1.2 0.5c-2.5 0.8-4.7 1.9-5.3 2.7-0.5 0.6-0.6 2-0.2 2.3q0.1 0.2 0.1 0.4 0.1 0.1 0.2 0.3 0 0.2 0 0.4 0.1 0.2 0.1 0.4c0.2 2.1 0.5 3.1 1.2 3.9 1.4 1.7 3.3 1.9 5.8 0.7q0.2-0.1 0.4-0.2 0.2-0.1 0.4-0.1 0.2-0.1 0.4-0.2 0.2-0.1 0.4-0.1 0.1 0.2 0.3 0.5 0.2 0.3 0.4 0.6 0.2 0.2 0.4 0.5 0.2 0.3 0.4 0.5l0.6 0.7-0.2 21.8c-0.4 41.7-0.1 51.4 2.3 69 0.8 5.5 0.7 13.3-0.1 23.8-0.3 4.3-0.7 9.8-0.9 12-0.1 2.2-0.3 4.1-0.3 4.1 0 0.1-3.1-0.2-6.8-0.5-25.4-2.3-45.3-3.3-53.6-2.8-5.2 0.3-13.8 1.2-22.9 2.3-3.8 0.5-7.1 0.8-7.3 0.8-0.5 0-0.5-6.2-0.5-444.7zm963.7 214.5q-2-0.2-4.1-0.2-2.1-0.1-4.2-0.1-2.1 0-4.2 0-5.8 0.4-11.6 1.5-5.8 1.1-11.4 2.9-5.5 1.8-10.9 4.3-5.3 2.5-10.2 5.6c-19.3 12.2-33.3 31.5-37.9 52.4q-1 4.4-1.4 8.9-0.4 4.4-0.2 8.9 0.1 4.5 0.8 8.9 0.8 4.5 2 8.8c4.9 15.9 16 30.9 31 41.6q4.1 2.9 8.3 5.3 4.3 2.5 8.8 4.6 4.5 2 9.1 3.7 4.7 1.6 9.5 2.8c9.5 2.4 22.2 3.9 29.4 3.6 11.9-0.7 28.2-5.2 39.4-10.8 22.1-11.1 35.7-28.4 40.3-51.1 1.3-6.7 1.5-8.9 1.5-18.4 0-10.8-0.5-15.8-2.6-24.2-5.1-20.6-17.3-36.3-36.3-46.6q-17-9.3-40.9-12.1-2.1-0.2-4.2-0.3z"/>
		<path class="s1" d="m956.5 223.9q-6.3 0.4-12.5 1.7-6.2 1.2-12.2 3.4-6 2.2-11.5 5.2-5.6 3-10.8 6.7c-17.4 13.1-28.6 31.1-31.7 51.1q-0.3 1.9-0.4 3.7-0.1 1.9-0.2 3.7 0 1.9 0 3.8 0.1 1.8 0.2 3.7 0.3 3.1 0.9 6.2 0.5 3.1 1.4 6.1 0.9 3 2.1 5.9 1.1 2.9 2.6 5.7 1.3 2.7 2.9 5.2 1.6 2.6 3.3 5 1.8 2.4 3.8 4.7 2 2.3 4.1 4.4c10.3 10.2 22.8 17.8 37.7 22.7 13.4 4.4 30 6.4 40.5 4.9 18.4-2.7 34.6-9.3 46.7-19 12.5-10.1 20.6-23.8 23.6-40.3 1-5.5 1.2-8.6 1.2-16.1q0-2.2 0-4.4-0.1-2.2-0.3-4.4-0.2-2.2-0.5-4.4-0.2-2.2-0.7-4.3c-4.4-24.6-18.7-42.3-42.1-52.3-14-6-33.6-9.5-48.1-8.6z"/>
		<path class="s1" d="m383.1 488.9c-13.4 1.1-27.6 6-36.5 12.7-4.1 3-7.6 6.7-14 14.7-1.7 2.3-3.8 4.7-4.4 5.4-0.7 0.6-1.2 1.3-1.1 1.3 0.2 0.3 6.2-1.2 13.8-3.2 18-5 22.6-5.7 36.2-5.4q2.8 0 5.7 0.1 2.9 0.2 5.8 0.4 2.9 0.2 5.7 0.5 2.9 0.3 5.8 0.7c17.2 2 32.6 5.8 44.9 11q0.4 0.2 0.9 0.4 0.4 0.2 0.8 0.3 0.5 0.2 0.9 0.4 0.5 0.1 0.9 0.3-0.3-0.7-0.7-1.3-0.4-0.6-0.8-1.2-0.5-0.6-0.9-1.1-0.5-0.6-1-1.2c-0.9-1-3.7-4.7-6.2-8-5.3-7.1-8.7-10.7-12.4-13.2q-1.7-1-3.5-1.9-1.7-1-3.5-1.9-1.8-0.8-3.6-1.6-1.8-0.8-3.6-1.6c-2.4-0.9-6-2.4-8.3-3.3q-1-0.5-2.1-1-1.1-0.4-2.2-0.7-1.1-0.3-2.2-0.5-1.2-0.3-2.3-0.4-1.5-0.3-3-0.5-1.5-0.2-3-0.3-1.5-0.1-3.1-0.1-1.5 0-3 0.2z"/>
		<path class="s1" d="m364.4 518.7q-2.1 0.3-4.1 0.7-2 0.3-4.1 0.7-2 0.4-4 0.9-2 0.5-4 1.1c-11.6 3.1-14.9 4-18.1 4.7q-0.9 0.1-1.8 0.3-0.9 0.2-1.8 0.5-0.9 0.2-1.7 0.5-0.9 0.4-1.7 0.7-0.1 0.1-0.2 0.1-0.1 0.1-0.2 0.2-0.1 0-0.2 0-0.1 0-0.3 0.1c-0.6 0-3.8 1.6-6 3q-0.9 0.6-1.8 1.3-0.9 0.8-1.7 1.6-0.8 0.8-1.5 1.7-0.7 0.9-1.2 1.9-0.4 0.7-0.7 1.4-0.3 0.8-0.4 1.5-0.1 0.8 0 1.6 0 0.8 0.3 1.5 0.1 0.6 0.3 1.1 0.2 0.5 0.5 0.9 0.4 0.5 0.8 0.8 0.4 0.4 0.9 0.6l0.9 0.5 0.2-1.3q0.3-1 0.7-1.9 0.3-0.9 0.8-1.8 0.5-0.9 1.1-1.7 0.6-0.7 1.3-1.5c3.9-3.8 11.3-7 23.7-10.1 15.8-4 29.1-5.4 47-5.1 10 0.1 10.8 0.2 25.4 2.6q2.7 0.5 5.5 1.1 2.7 0.7 5.4 1.4 2.7 0.7 5.4 1.5 2.7 0.8 5.3 1.7 2.5 1 5 2 2.5 1 4.9 2.1 2.5 1.2 4.9 2.4 2.4 1.2 4.7 2.5c4.2 2.7 7.3 5.8 8.9 8.9 0.8 1.5 0.7 1.5 1.3 1 1.1-1.1 1.3-4.1 0.3-7.2-0.8-2.5-1.5-3.4-4.5-5.4-11.5-7.6-26.4-13.4-43.7-16.9-7.7-1.6-14.9-2.6-28-3.9q-3-0.2-6-0.4-2.9-0.1-5.9-0.1-3-0.1-6 0-2.9 0.1-5.9 0.2z"/>
		<path class="s1" d="m374.7 529.3q-4.3 0.2-8.6 0.6-4.3 0.4-8.5 1.1-4.3 0.6-8.5 1.5-4.2 0.9-8.4 1.9-2 0.5-4.1 1.1-2 0.6-4 1.3-2 0.7-4 1.5-2 0.8-3.9 1.7c-2.5 1.2-5.2 3.1-5.4 3.8q-0.1 0.1-0.2 0.3-0.1 0.1-0.2 0.3 0 0.1-0.1 0.2-0.1 0.1-0.2 0.3-0.1 0.1-0.2 0.2-0.1 0.1-0.2 0.2-0.1 0.2-0.1 0.3-0.1 0.1-0.1 0.3 0 0.1-0.1 0.2 0 0.1-0.1 0.2 0 0.1-0.1 0.3-0.1 0.1-0.1 0.2-0.1 0.1-0.2 0.2-0.1 0.2-0.2 0.3-0.1 0.2-0.1 0.3-0.1 0.2-0.1 0.3c-0.2 0.6-0.1 0.6 0.4-0.2q0.3-0.3 0.7-0.6 0.3-0.3 0.8-0.5 0.4-0.3 0.8-0.4 0.5-0.1 0.9-0.2c2.4 0 4 2 4.5 5.6 0.1 1 0.2 1.3 0.4 1q0.1-0.1 0.2-0.2 0.1-0.1 0.2-0.2 0.1 0 0.3-0.1 0.1-0.1 0.3-0.1 0.3-0.1 0.7-0.1 0.4 0 0.8 0.1 0.4 0.1 0.7 0.4 0.3 0.2 0.6 0.6c0.3 0.5 0.3 0.5 0.5-0.7q0-0.2 0-0.5 0.1-0.3 0.2-0.5 0.1-0.2 0.3-0.5 0.2-0.2 0.4-0.3c1.1-1 2.3-0.8 3.6 0.6 0.7 0.7 0.7 0.7 0.7 0.1q0-0.2 0.1-0.4 0-0.2 0.1-0.3 0-0.2 0.1-0.4 0.1-0.2 0.2-0.4c1.3-2.9 4-2.9 5.5-0.1l0.5 1 0.6-1.2c1-2.2 2.5-2.8 4.2-1.7q0.3 0.2 0.5 0.5 0.3 0.2 0.6 0.5 0.2 0.2 0.4 0.5 0.3 0.2 0.5 0.5l1.2 1.5 1-2.1c0.8-1.7 1.2-2.2 1.7-2.4q0.2-0.1 0.4-0.3 0.1-0.1 0.3-0.3 0.1-0.1 0.2-0.3 0.1-0.2 0.1-0.4 0.1-0.4 0.3-0.8 0.2-0.4 0.3-0.7 0.2-0.4 0.4-0.8 0.2-0.4 0.3-0.7c3.6-6.9 8.9-10.3 14.5-9.4 4.3 0.7 7.2 4.5 8 10.2 0.2 1.6 0.3 2 0.9 2.4q0.2 0.1 0.4 0.3 0.2 0.2 0.5 0.4 0.2 0.2 0.4 0.4 0.2 0.2 0.4 0.4c0.6 0.7 1 1 1.1 0.8 0.9-3.1 2-4.2 3.6-3.3 0.7 0.3 1 0.7 2.1 3q0.1 0.3 0.2 0.5 0.1 0.3 0.3 0.5 0.1 0.3 0.3 0.5 0.2 0.3 0.3 0.5 0.1-0.1 0.2-0.2 0.1-0.2 0.2-0.3 0-0.1 0.1-0.2 0-0.2 0-0.3c1-3.4 3-4.8 5-3.5 1 0.5 1.6 1.5 2.3 3.5l0.5 1.5 1.1-2c1.3-2.3 2.3-3.1 3.7-3.1 1.4 0 2 0.9 2.8 3.1q0 0.2 0.1 0.5 0.1 0.2 0.1 0.4 0.1 0.2 0.2 0.4 0.1 0.2 0.2 0.4 0.1-0.1 0.2-0.2 0.1-0.1 0.2-0.3 0.1-0.1 0.2-0.2 0.1-0.2 0.1-0.3c1-1.7 2.1-2.6 3.3-2.6 0.8 0 1.1 0.2 2.4 1.5q0.2 0.2 0.4 0.4 0.2 0.2 0.5 0.3 0.2 0.2 0.4 0.4 0.2 0.2 0.4 0.3 0.1-0.2 0.1-0.4 0.1-0.2 0.1-0.4 0-0.2 0-0.4 0-0.2 0-0.4 0-0.8 0.1-1.6 0-0.7 0.2-1.5 0.2-0.7 0.4-1.5 0.3-0.7 0.6-1.4 0.3-0.6 0.7-1.3 0.4-0.6 0.9-1.1 0.4-0.6 1-1.1 0.5-0.5 1.1-0.9c2-1 6-0.8 8.7 0.6 4.7 2.2 7.4 7.8 8.5 17.2q0 0.2 0 0.5 0.1 0.2 0.1 0.4 0.1 0.3 0.2 0.5 0.1 0.2 0.3 0.4c0.4 0.4 0.4 0.3 0.7-0.3q0.1-0.4 0.3-0.7 0.2-0.4 0.5-0.6 0.3-0.2 0.7-0.3 0.4-0.2 0.8-0.1c1.2 0 1.9 0.6 2.9 2.7 0.4 0.8 0.8 1.3 0.8 1 0-0.6 1.2-1.8 1.9-2q0.3 0 0.6 0 0.3 0 0.6 0.1 0.3 0.1 0.5 0.3 0.2 0.2 0.4 0.4 0.1 0.2 0.2 0.5 0.1 0.2 0.2 0.4 0.1 0.2 0.2 0.4 0.1 0.3 0.1 0.5l0.4 1.4 0.4-0.7c1.5-2.5 4.3-1.7 4.6 1.3 0.1 1.1 0.6 0.7 0.8-0.5q0-0.6 0.2-1.3 0.1-0.6 0.4-1.2 0.3-0.6 0.6-1.1 0.3-0.5 0.8-1 0.1-0.3 0.4-0.5 0.2-0.2 0.5-0.4 0.3-0.1 0.6-0.1 0.4-0.1 0.7 0 0.2-0.1 0.5 0 0.3 0 0.5 0.1 0.3 0.1 0.5 0.2 0.3 0.1 0.5 0.3c1.4 1.3 1.5-0.3 0-2.8q-0.6-0.9-1.3-1.7-0.7-0.8-1.5-1.6-0.8-0.8-1.6-1.5-0.9-0.6-1.8-1.2-1.9-1.2-3.8-2.2-1.9-1-3.9-2-2-1-4-1.9-2-0.9-4-1.7-2.7-1-5.4-1.9-2.8-0.9-5.5-1.8-2.8-0.8-5.6-1.5-2.8-0.8-5.6-1.4c-2.3-0.5-13.4-2.2-17-2.7-2-0.2-20.2-0.5-23.2-0.3z"/>
		<path class="s1" d="m365.2 537.3c-1.7 0.5-2 0.8-2.2 1.7-0.1 0.7-0.7 1.1-2.1 1.5q-0.4 0.4-0.8 0.9-0.4 0.4-0.7 0.8-0.3 0.5-0.6 1-0.3 0.5-0.6 1l-0.4 0.7 1.7-0.1c2.8-0.2 4.3 0.9 4.3 3.1q0 0.2 0 0.4 0 0.3-0.1 0.5 0 0.2 0 0.4-0.1 0.2-0.2 0.4c-0.2 0.4-0.1 0.4 0.7-0.1q0.4-0.3 0.9-0.5 0.5-0.1 1-0.2 0.5 0 1 0.1 0.5 0.1 1 0.3l0.6 0.3v-3.5l-0.6 0.5q-0.6 0.4-1.3 0.5-0.7 0.2-1.4 0-0.7-0.1-1.3-0.5-0.6-0.4-1-1c-1.1-1.7-0.6-5 1-6q0.4-0.2 0.9-0.3 0.5-0.1 1-0.1 0.6 0 1.1 0.1 0.5 0.1 0.9 0.3c1.2 0.6 1.7 1.6 1.6 3.5v1.6l0.6-0.3q0.2-0.1 0.4-0.2 0.2-0.1 0.4-0.1 0.2-0.1 0.4-0.1 0.2-0.1 0.4-0.1c1.1-0.2 1.1-0.2 0.7-1.9-1-4.1-3.7-5.8-7.3-4.6z"/>
		<path class="s1" d="m419.6 540.7q-0.2 0-0.4 0.2-0.2 0.1-0.4 0.2-0.2 0.2-0.4 0.4-0.2 0.1-0.3 0.3c-0.8 1.1-1.9 4.2-1.6 4.6 0.3 0.5 0.6 0.3 0.7-0.4q0.1-0.4 0.3-0.8 0.1-0.4 0.4-0.8 0.2-0.3 0.4-0.7 0.3-0.3 0.6-0.6 0.4-0.2 0.9-0.4 0.5-0.1 1-0.1 0.6 0 1 0.1 0.5 0.2 1 0.4 0.5 0.4 0.9 0.9 0.4 0.6 0.6 1.2 0.2 0.6 0.2 1.2 0 0.7-0.2 1.3c-0.2 0.5-0.2 0.6 0.7 0.5q0.5 0 1.1 0.1 0.5 0.2 0.9 0.4 0.5 0.2 0.9 0.6 0.4 0.3 0.8 0.7 0.2 0.2 0.4 0.5 0.2 0.3 0.3 0.6 0.1 0.3 0.2 0.6 0 0.3 0 0.6 0 0.6-0.1 1.1-0.1 0.5-0.3 1-0.3 0.5-0.6 0.9-0.4 0.4-0.8 0.8-0.4 0.2-0.8 0.3-0.4 0.1-0.9 0.1-0.4 0-0.8 0-0.5-0.1-0.9-0.3c-0.5-0.4-0.5-0.3-0.5 0.8v1.2l0.7-0.5q0.4-0.3 0.8-0.4 0.4-0.2 0.9-0.2 0.5 0 0.9 0.1 0.5 0.1 0.9 0.3c1.1 0.7 1.5 1.8 1.7 3.8q0 0.3 0 0.7 0 0.4 0 0.7-0.1 0.4-0.2 0.7-0.1 0.4-0.3 0.7-0.1 0.2-0.2 0.4-0.2 0.3-0.3 0.5-0.2 0.2-0.4 0.3-0.2 0.2-0.4 0.4-0.3 0.2-0.7 0.3-0.4 0.1-0.7 0.1-0.4 0-0.8 0-0.4-0.1-0.8-0.3c-0.5-0.4-0.5-0.4-0.5 0.5 0 0.8 0.1 0.8 0.3 0.6q0.2-0.1 0.3-0.1 0.2-0.1 0.4-0.1 0.2-0.1 0.3-0.1 0.2 0 0.4 0c2.2 0 3.8 2 3.8 4.5q0 0.6-0.1 1.1-0.2 0.5-0.5 1-0.3 0.4-0.7 0.8-0.4 0.3-0.9 0.5-0.2 0.2-0.5 0.3-0.3 0.1-0.5 0.1-0.3 0.1-0.6 0.1-0.2-0.1-0.5-0.1l-0.9-0.3-0.1 0.9c-0.1 0.8 0 0.9 0.3 0.7 1.4-0.7 3.7 0.2 4.8 2.1q0.3 0.5 0.5 1.1 0.1 0.5 0.1 1.1 0 0.6-0.2 1.2-0.2 0.6-0.5 1.1-0.1 0.2-0.3 0.3-0.1 0.2-0.3 0.4-0.1 0.1-0.3 0.3-0.2 0.1-0.4 0.3-0.3 0.1-0.7 0.2-0.4 0.1-0.7 0.2-0.4 0-0.8 0-0.4-0.1-0.7-0.2c-0.3-0.1-0.5 0.1-0.6 0.9l-0.3 1 0.8-0.6q0.5-0.3 1-0.4 0.5-0.2 1-0.1 0.5 0.1 1 0.4 0.4 0.2 0.8 0.7l0.1 0.1q0.1 0.1 0.2 0.2 0.1 0.1 0.2 0.1 0.1 0.1 0.3 0.1 0.1 0 0.3 0c0.6 0.1 0.6 0.1 0.7-1.6 0.2-2.6-0.2-24.9-0.5-28.2-0.8-9.4-3.1-14.7-7.2-15.9q-0.4-0.2-0.9-0.3-0.5 0-0.9-0.1-0.5 0-1 0-0.4 0-0.9 0.1z"/>
		<path class="s1" d="m356.3 550.8q-0.1 0.7-0.1 1.4-0.1 0.7-0.1 1.3 0.1 0.7 0.1 1.4 0.1 0.7 0.1 1.4l0.2 0.6 0.2-0.6q0.1-0.4 0.3-0.7 0.2-0.3 0.5-0.6 0.3-0.2 0.6-0.4 0.3-0.2 0.7-0.3c1.4-0.3 4.5 2 5.1 3.8l0.3 0.8 0.7-0.7 0.8-0.6-0.8-0.5q-0.7-0.4-1.2-1-0.5-0.6-0.8-1.3-0.3-0.7-0.4-1.4 0-0.8 0.1-1.6l0.2-0.8-0.7 0.5q-0.4 0.2-0.7 0.4-0.4 0.1-0.9 0.2-0.4 0.1-0.8 0.1-0.4 0-0.8-0.1-0.2-0.1-0.4-0.2-0.2-0.1-0.4-0.2-0.2-0.1-0.4-0.3-0.2-0.1-0.4-0.3c-0.9-0.8-0.9-0.8-1-0.3z"/>
		<path class="s1" d="m422.1 550.5q-0.3 0.1-0.5 0.2-0.2 0-0.4 0-0.2 0-0.5 0-0.2 0-0.4 0c-1.2-0.1-1.3 0-1.5 0.6-0.2 0.4-0.2 0.7-0.2 0.7 0.1 0 0.4-0.2 0.8-0.3q0.4-0.1 0.7-0.1 0.4 0 0.7 0.1 0.4 0.1 0.7 0.3 0.3 0.2 0.6 0.5l0.5 0.5v-1.4q0-0.1 0-0.3 0-0.2 0-0.3 0-0.2 0-0.4 0-0.1-0.1-0.3 0 0-0.1 0 0 0.1-0.1 0.1-0.1 0-0.1 0.1-0.1 0-0.2 0z"/>
		<path class="s1" d="m320.2 552c-0.2 0.8-0.3 3-0.4 4.8-0.1 2.9-0.1 3.1 0.2 2.4q0.1-0.1 0.1-0.3 0.1-0.1 0.2-0.3 0.1-0.1 0.3-0.2 0.1-0.2 0.2-0.3c0.4-0.2 0.5-0.5 0.5-1.5q0-0.7 0-1.5-0.1-0.7-0.2-1.5-0.1-0.7-0.2-1.5-0.1-0.7-0.3-1.5c-0.1 0-0.3 0.6-0.4 1.4z"/>
		<path class="s1" d="m376.9 552.5c-0.1 1.1-0.2 2.8-0.2 3.8-0.1 1-0.2 3.1-0.4 4.8q-0.1 1.7-0.2 3.4-0.1 1.7 0 3.4 0 1.7 0.1 3.4 0 1.8 0.2 3.5c0.4 3.3 0.7 7.7 1 12.6l0.2 2.8 4.5 0.8c2.5 0.4 9.2 1.5 14.9 2.4 5.6 0.8 11.1 1.8 12.1 2 1.5 0.5 1.8 0.5 2.3 0.2 0.6-0.3 0.7-0.4 0.5-1.4q-0.2-1.5-0.3-3.1-0.2-1.5-0.2-3.1-0.1-1.5-0.1-3.1 0-1.5 0.1-3.1c0.2-5.6 0.3-11.7 0.2-20.6 0-3 0-5.7 0.1-5.9 0-0.3-0.5-1-1.6-2.2q-0.2-0.3-0.5-0.5-0.2-0.3-0.4-0.5-0.3-0.2-0.5-0.4-0.3-0.3-0.5-0.5-0.2 0.2-0.4 0.4-0.1 0.2-0.2 0.4-0.2 0.2-0.3 0.4-0.1 0.2-0.2 0.4c-1.3 2.2-1.9 2.8-3.1 2.8-1.3 0-2.5-1-3.4-2.9l-0.6-1.5-0.8 1.4c-1.2 1.9-1.9 2.5-3.3 2.5-1.6 0-2.6-0.8-3.4-2.6q-0.1-0.2-0.2-0.4-0.1-0.2-0.2-0.4-0.1-0.1-0.2-0.3-0.2-0.2-0.3-0.4-0.1 0.2-0.2 0.3-0.1 0.2-0.2 0.4-0.1 0.1-0.1 0.3-0.1 0.2-0.2 0.3c-1.2 2.9-4 3.1-6.2 0.4l-0.8-1-0.7 1.3c-0.6 1.3-1.4 1.7-2.5 1.5q-0.3-0.2-0.6-0.5-0.3-0.2-0.5-0.4-0.3-0.3-0.5-0.6-0.3-0.2-0.5-0.5c-0.8-1-1.5-1.9-1.5-2q-0.1 0.3-0.1 0.5 0 0.3 0 0.5-0.1 0.3-0.1 0.5 0 0.2 0 0.5z"/>
		<path class="s1" d="m370.1 551.9q0.1 0.1 0.1 0.3 0 0.1 0 0.3 0.1 0.1 0.1 0.3 0 0.1 0 0.3c0 0.7 0 0.8 0.4 0.7q0.2-0.1 0.3-0.1 0.1-0.1 0.3-0.1 0.2-0.1 0.3-0.1 0.2 0 0.3 0c0.8-0.2 1.1-0.7 0.4-1q-0.2 0-0.4-0.1-0.1-0.1-0.3-0.1-0.2-0.1-0.3-0.2-0.2-0.1-0.4-0.1c-0.7-0.4-0.9-0.5-0.8-0.1z"/>
		<path class="s1" d="m345.1 553.2c-0.1 0.3-0.4 1.4-0.7 2.3-0.7 2.2-1.3 2.9-2.6 2.9-1.2 0-1.8-0.7-2.6-2.4-0.4-0.8-0.6-1.1-0.6-0.8q0 0.5-0.2 1-0.1 0.5-0.3 1-0.2 0.5-0.4 1-0.3 0.4-0.6 0.8-0.1 0.3-0.3 0.4-0.2 0.2-0.4 0.3-0.3 0.1-0.5 0.2-0.3 0-0.5 0-0.3 0-0.5 0-0.2 0-0.5-0.1-0.2-0.1-0.4-0.3-0.1-0.1-0.3-0.3c-0.6-0.7-0.6-0.7-0.7-0.2-0.4 1.6-2.2 2.5-3.4 1.7q-0.2-0.1-0.4-0.3-0.2-0.2-0.4-0.4-0.1-0.2-0.3-0.4-0.1-0.2-0.3-0.5-0.1-0.1-0.2-0.3-0.1-0.1-0.2-0.3-0.1-0.1-0.2-0.3-0.1-0.1-0.2-0.2-0.2 0.3-0.4 0.6-0.2 0.4-0.3 0.8-0.2 0.3-0.3 0.7-0.2 0.4-0.3 0.8 0 0.1-0.1 0.2 0 0.2-0.1 0.3 0 0.2-0.1 0.3-0.1 0.1-0.2 0.2c-0.5 0.7-0.5 0.9-0.5 5.9 0 2.8 0.1 6.3 0.3 7.7 0.2 1.4 0.4 4.9 0.5 7.8 0.1 2.9 0.4 6.4 0.6 7.9q0.1 0.5 0.1 0.9 0.1 0.5 0.1 1 0.1 0.4 0.1 0.9 0 0.5 0 1v1.1l1.4-0.8c4.9-3.2 7.6-4.8 10.7-6.4 1.9-1 3.7-2 4-2.2q0.4-0.2 0.8-0.3 0.4-0.1 0.8-0.1 0.4 0 0.7 0.1 0.4 0.2 0.7 0.4c0.8 0.4 1.4 0.5 4.4 0.6l3.4 0.1v-1.4c0-4-1.3-28.8-1.5-30l-0.2-0.6-0.4 0.5q-2.2 2.3-5.5-2.3c-0.8-1.1-0.8-1.1-1-0.5z"/>
		<path class="s1" d="m416.7 554.3l-0.6 0.7 0.6 0.4 0.6 0.4 0.1-1.1q0-0.1 0-0.2 0-0.2 0-0.3 0-0.2 0-0.3 0-0.1 0-0.3c0-0.1-0.3 0.4-0.7 0.7z"/>
		<path class="s1" d="m368.3 557l-0.7 0.4 0.7 0.4 0.8 0.4v-0.8q0-0.1 0-0.2 0-0.1 0-0.3 0-0.1 0-0.2-0.1-0.1-0.1-0.2-0.1 0.1-0.2 0.1-0.1 0.1-0.2 0.2-0.1 0-0.2 0.1 0 0-0.1 0.1z"/>
		<path class="s1" d="m422.5 559.4q-0.4 0.2-0.7 0.3-0.4 0.1-0.8 0.1-0.3 0-0.7 0-0.4-0.1-0.7-0.3c-0.5-0.1-0.5 0-0.7 0.8-0.2 0.8-0.5 1.2-1.8 2.4-1 0.9-1.4 1.5-1.2 1.5q0.2 0 0.3 0.1 0.2 0.1 0.3 0.1 0.2 0.1 0.3 0.2 0.1 0.1 0.3 0.2l0.7 0.6v-1c0-2.7 2.3-4.2 4.4-2.7l0.9 0.6-0.1-0.5q-0.1-0.3-0.1-0.5 0-0.2 0-0.4 0-0.2 0.1-0.4 0-0.2 0-0.4 0.1-0.2 0.1-0.3 0-0.2 0-0.3 0.1-0.1 0.1-0.3 0-0.1 0-0.3z"/>
		<path class="s1" d="m456.9 560.5q-0.1 0.3-0.1 0.5-0.1 0.3-0.1 0.6 0 0.3 0 0.6 0 0.2 0 0.5c-0.1 1.6 0 1.8 0.5 2.2l0.5 0.3-0.2-1.9q0-0.3 0-0.6 0-0.3-0.1-0.7 0-0.3-0.1-0.6 0-0.4-0.1-0.7c-0.2-0.6-0.2-0.6-0.3-0.2z"/>
		<path class="s1" d="m370.6 561.9q0.1 0.1 0.1 0.2 0 0.2 0 0.3 0.1 0.1 0.1 0.3 0 0.1 0.1 0.3c0.2 0.2 1.3-0.6 1.3-1 0-0.3-1.2-1.2-1.6-1.2-0.1 0-0.1 0.5 0 1.1z"/>
		<path class="s1" d="m356.6 561.7c0 0.2 0.1 1 0.1 1.7l0.2 1.2 0.8-0.5c0.9-0.6 1.5-0.7 3.6-0.4l1.2 0.2 0.2-1c0-1-0.2-1.3-0.5-0.8q-0.1 0.1-0.3 0.2-0.2 0.1-0.4 0.1-0.1 0.1-0.3 0.2-0.2 0-0.4 0.1-0.3 0.1-0.6 0.2-0.3 0.1-0.6 0.1-0.3 0-0.6-0.1-0.3-0.1-0.6-0.2-0.2-0.1-0.4-0.2-0.2-0.1-0.4-0.2-0.2-0.1-0.3-0.2-0.2-0.2-0.3-0.3c-0.4-0.6-0.4-0.6-0.4-0.1z"/>
		<path class="s1" d="m438.5 562.9q-0.1 0.2-0.2 0.3-0.1 0.1-0.3 0.2-0.1 0.1-0.3 0.2-0.1 0-0.3 0.1-0.2 0.1-0.4 0.1-0.2 0-0.4 0-0.3 0-0.5-0.1-0.2-0.1-0.3-0.2l-1-0.4 0.2 3.7c0 2.1 0.1 6.9 0.2 10.8 0.1 3.9 0.2 7.1 0.3 7.3 0 0.1 0.6-0.2 1.2-0.8 2.2-1.8 4.1-2.4 11.1-3.7q2.4-0.4 4.8-1 0.1-0.2 0.1-0.5 0-0.2 0-0.5 0-0.3 0-0.5 0-0.3-0.1-0.5c-0.1-1-0.2-3.4-0.2-5.3v-3.5l-1.2 0.1q-0.2 0.1-0.5 0.1-0.3 0-0.5-0.1-0.3-0.1-0.5-0.2-0.2-0.2-0.4-0.4l-0.7-0.7-0.7 0.4q-0.3 0.3-0.8 0.4-0.4 0.1-0.9 0-0.4-0.1-0.8-0.3-0.4-0.3-0.7-0.6 0-0.1-0.1-0.2 0-0.1-0.1-0.2 0-0.1-0.1-0.2 0-0.1 0-0.2c-0.2-0.5-0.2-0.6-1-0.3-1.5 0.4-2.7-0.5-4.4-3.3-0.2-0.5-0.2-0.5-0.5 0z"/>
		<path class="s1" d="m319.4 566.6v2.4l0.7-0.6q0.2-0.2 0.4-0.3 0.1-0.2 0.2-0.5 0.1-0.2 0.1-0.4 0.1-0.3 0-0.5 0.1-0.2 0-0.5 0-0.2-0.1-0.5-0.1-0.2-0.2-0.4-0.2-0.2-0.4-0.3l-0.7-0.7z"/>
		<path class="s1" d="m364 567.5l-0.1 1.2 1-0.6q0.3-0.2 0.5-0.3 0.3-0.1 0.6-0.2 0.3 0 0.6 0 0.3 0 0.6 0c1 0.2 1.1 0.1 1.1-0.3q0-0.1 0-0.2 0.1-0.1 0.1-0.2 0-0.1 0-0.2 0-0.1 0.1-0.1c0.1-0.3-0.4-0.4-2.2-0.4h-2.2z"/>
		<path class="s1" d="m418.6 571q-0.1 0.3-0.3 0.5-0.2 0.3-0.4 0.5-0.2 0.2-0.5 0.4-0.2 0.2-0.5 0.3c-0.5 0.3-1 0.6-1 0.8 0 0.1 0.4 0.4 0.9 0.6l1 0.4 0.1-1q0.1-0.4 0.3-0.8 0.2-0.4 0.5-0.8 0.2-0.3 0.6-0.6 0.3-0.3 0.7-0.5c0.6-0.2 0.6-0.5-0.1-0.8-0.6-0.2-0.6-0.1-1.3 1z"/>
		<path class="s1" d="m422.5 570.4c-0.4 0.2-0.4 0.2 0 0.4 0.4 0.1 0.7 0.1 0.6-0.3-0.1-0.1-0.4-0.2-0.6-0.1z"/>
		<path class="s1" d="m370.2 571.9v1.4l0.6-0.5q0.1-0.1 0.2-0.1 0.1-0.1 0.2-0.2 0.1 0 0.3-0.1 0.1 0 0.2 0c0.1 0 0.3-0.4 0.3-0.9 0-0.7-0.1-0.8-0.9-0.9l-0.8-0.1z"/>
		<path class="s1" d="m361.9 571.3q-0.5 0.3-1 0.4-0.5 0.2-1 0.2-0.5 0-1-0.1-0.5-0.1-1-0.3c-0.5-0.4-0.5-0.4-0.5 0.8 0 1.1 0 1 0.4 0.9q0.4-0.2 0.9-0.3 0.5 0 1 0 0.4 0 0.9 0.2 0.5 0.1 0.9 0.4c1.2 0.7 2.6 2.3 2.6 3.2 0 0.3 0.3 0.3 1.9 0.3q0.3-0.1 0.6-0.1 0.3 0 0.6 0 0.3 0 0.5 0.1 0.3 0.1 0.6 0.2c0.3 0.2 0.4 0.2 0.4-0.3q0-0.1 0-0.3 0-0.1 0-0.3 0-0.1 0.1-0.3 0-0.1 0-0.3l0.2-0.6-0.7 0.6q-0.2 0.1-0.4 0.2-0.2 0.1-0.4 0.2-0.3 0.1-0.5 0.1-0.2 0-0.5 0c-2 0-3.4-1.5-3.6-4l-0.1-1.5z"/>
		<path class="s1" d="m456.6 572.4c-0.1 0.3-0.2 0.5 0 0.6 0.2 0.3 0.4-0.1 0.3-0.6-0.2-0.5-0.2-0.4-0.3 0z"/>
		<path class="s1" d="m319.9 575.9v1.2l0.7-0.7c0.8-0.8 0.9-0.9 0.4-0.9q-0.1 0-0.2-0.1-0.1 0-0.2-0.1-0.1 0-0.1-0.1-0.1-0.1-0.2-0.1c-0.4-0.4-0.4-0.4-0.4 0.8z"/>
		<path class="s1" d="m477.5 576.1q-0.2 0.4-0.5 0.7-0.3 0.3-0.7 0.5-0.4 0.2-0.9 0.3-0.4 0.1-0.9 0c-2 0-7.3 1.5-16.3 4.4q-1 0.3-2.1 0.6-1.1 0.4-2.1 0.6-1.1 0.3-2.2 0.6-1 0.2-2.1 0.4c-7.9 1.5-9 1.8-11.5 4q-0.6 0.6-1.2 1-0.7 0.4-1.4 0.7-0.8 0.3-1.5 0.5-0.8 0.1-1.6 0.2c-2.6 0.3-3 0.5-5.2 2.5q-0.3 0.4-0.7 0.7-0.4 0.3-0.7 0.5-0.4 0.3-0.8 0.5-0.4 0.3-0.8 0.5-0.3 0.1-0.6 0.3-0.2 0.1-0.5 0.3-0.2 0.1-0.5 0.3-0.2 0.2-0.4 0.3-0.2 0.2-0.4 0.4-0.2 0.1-0.5 0.2-0.2 0-0.5 0.1-0.2 0-0.4-0.1-0.5 0-0.9 0.1-0.5 0-0.9 0.1-0.4 0.1-0.8 0.2-0.5 0.2-0.9 0.3c-2.1 0.7-2.3 0.8-2.6 1.5-0.3 1.1-1 1.4-2.6 1.3q-0.3-0.1-0.6-0.1-0.4 0-0.7 0.1-0.3 0-0.7 0.1-0.3 0.1-0.6 0.2-0.8 0.3-1.5 0.5-0.8 0.2-1.6 0.4-0.8 0.2-1.6 0.3-0.8 0.2-1.6 0.2-0.2 0-0.5 0-0.2 0-0.4-0.1-0.3 0-0.5-0.1-0.3-0.1-0.5-0.2c-0.8-0.4-0.8-0.4-1.9 0.3q-0.8 0.5-1.7 0.9-0.8 0.4-1.7 0.8-0.9 0.3-1.8 0.5-0.9 0.2-1.8 0.3c-3.6 0.6-4.8 1-5.2 1.9q-0.1 0.1-0.3 0.3-0.1 0.1-0.2 0.2-0.2 0.2-0.3 0.3-0.2 0.1-0.4 0.2c-0.5 0.2-1.6 0.7-2.6 1.2-1.5 0.8-1.8 0.8-4.8 1-3.6 0.2-3.6 0.2-6.7 2.5-3.4 2.5-3.6 2.6-8.2 2.6-4.2 0-4.4 0.1-7.2 1.8-2.7 1.7-4.3 2.2-7 1.7-2.2-0.4-2.7-0.1-5.6 2.6-3.7 3.5-5.2 3.9-9.5 2.8l-2.2-0.6-0.8 0.5c-1.4 0.7-3.3 2.4-3.3 2.9q0 0.1-0.1 0.3-0.1 0.1-0.2 0.3 0 0.1-0.2 0.2-0.1 0.1-0.2 0.2-0.1 0.1-0.2 0.2-0.1 0.2-0.2 0.3-0.1 0.1-0.2 0.2-0.1 0.2-0.1 0.3c0 0.2 1.2 0.4 3.9 0.5 4.7 0.1 8.3 0.7 17.8 2.5 4 0.8 11.2 2 15.9 2.8 14.3 2.2 24.7 4 51.8 9.2 17.7 3.4 22.6 4.2 31.4 5.3 11.4 1.4 23 2.4 43 3.6 19.6 1.2 22.9 1.5 28.5 2.1 10 1.1 18 2.4 37.9 6 16.7 3.1 20.3 3.6 39.7 5.5 19.4 1.8 27.4 2.9 37.2 4.9 10.3 2.2 20.8 3.2 45.3 4.4 17.4 0.9 19 1.1 30.6 3.3 15.4 2.9 15.9 3 26 2.9 9 0 10.9 0.1 17.3 1.2 4.7 0.8 17.5 3.6 23.6 5.1 5 1.3 6 1.4 7 0.4 1.3-1.1 2.8-1.5 7.5-1.8 5.9-0.5 6.2-0.6 9-3.6q0.5-0.5 1-1 0.5-0.5 1-0.9 0.5-0.5 1-1 0.5-0.4 1-0.9c1-0.8 1.7-1.4 1.5-1.5l-4.3-1.6c-4-1.5-4.5-1.8-5.8-3.4-0.2-0.3-1-0.4-2.6-0.5-6.2-0.4-9.2-1-11.3-2.2q-0.2-0.2-0.5-0.4-0.2-0.2-0.4-0.4-0.3-0.2-0.5-0.4-0.2-0.2-0.4-0.5l-0.8-1.1-3.6 0.1c-2.9 0.2-3.9 0.1-5-0.2q-0.8-0.2-1.6-0.5-0.8-0.3-1.5-0.7-0.8-0.4-1.5-0.8-0.8-0.4-1.5-0.8c-1.1-0.8-1.2-0.8-2.1-0.5q-0.3 0.1-0.6 0.1-0.2 0.1-0.5 0.1-0.3 0.1-0.5 0.1-0.3 0-0.6 0c-2.1 0-10.6-2.5-12.1-3.6-0.7-0.4-0.7-0.4-1.6 0-1.2 0.7-1.5 0.6-3.5-0.5-1-0.5-3.4-1.6-5.3-2.4-4.1-1.6-6.3-2.8-7.1-3.7l-0.6-0.6-0.7 0.6c-0.9 0.8-2 0.8-5.4 0-3.9-0.9-4.5-1.2-7.7-3.9l-1.5-1.2-0.6 0.6c-0.6 0.5-0.8 0.6-2.1 0.5q-1.4-0.3-2.8-0.7-1.3-0.3-2.7-0.8-1.3-0.4-2.7-0.9-1.3-0.5-2.6-1.1c-1.2-0.7-1.7-1-2-1.7l-0.4-0.9-1 0.2c-1.2 0.3-3.4-0.2-8.6-1.6-3.3-1-4.5-1.6-5.2-2.7l-0.5-0.7-2 0.7q-0.4 0.2-0.9 0.3-0.4 0.1-0.9 0.2-0.4 0.1-0.9 0.1-0.5 0-0.9 0c-3.9-0.3-11.1-3.6-12-5.4-0.2-0.4-0.4-0.6-1.1-0.6q-1.1-0.2-2.3-0.4-1.1-0.2-2.2-0.5-1.1-0.3-2.2-0.7-1.1-0.4-2.1-0.8c-2.5-0.9-3.9-1.9-4.4-3.1-0.3-0.8-0.4-0.9-0.8-0.7-1 0.3-2.5 0.1-6.5-1-4.5-1.3-5.8-1.7-6.5-2.4-0.4-0.4-0.6-0.4-1.8-0.2q-0.8 0.1-1.6 0.1-0.8 0-1.6-0.1-0.8-0.1-1.6-0.3-0.7-0.2-1.5-0.5-0.9-0.3-1.9-0.7-0.9-0.4-1.8-0.8-0.9-0.4-1.8-0.9-0.8-0.4-1.7-0.9c-1.1-0.7-1.2-0.7-2-0.5-0.7 0.3-1.1 0.2-4.6-1-4.8-1.6-7.5-2.8-8.5-4l-0.7-0.9-1.2 0.3c-1.5 0.4-2.8 0-7.6-1.9-4.8-1.9-5.8-2.3-7.3-1.9q-0.9 0.1-1.8 0.1-0.9 0.1-1.8 0-0.9 0-1.8-0.2-0.9-0.1-1.8-0.3-0.7-0.2-1.4-0.4-0.7-0.2-1.3-0.5-0.7-0.3-1.3-0.7-0.6-0.4-1.2-0.8-0.2-0.1-0.4-0.3-0.2-0.1-0.4-0.2-0.2-0.1-0.4-0.1-0.2 0-0.4 0-0.2 0-0.4 0-0.2 0-0.3-0.1-0.2 0-0.4 0-0.2-0.1-0.4-0.1c-0.4-0.2-1.9-0.6-3.4-1q-1-0.3-2.1-0.6-1-0.4-2-0.8-1-0.4-1.9-0.9-1-0.5-1.9-1.1l-1.1-0.7-1.3 0.5c-2 0.9-3.6 0.8-7.1-0.5-1.6-0.5-3.5-1.1-4.3-1.3q-0.3-0.1-0.6-0.2-0.2 0-0.5-0.1-0.2-0.1-0.5-0.2-0.2-0.1-0.4-0.3-0.4-0.1-0.7-0.2-0.4-0.1-0.7-0.1-0.4-0.1-0.7-0.1-0.4 0-0.7 0c-2.6 0-3.3-0.3-9.4-3.2-2.8-1.4-3.7-1.7-3.9-1.5-0.7 0.6-2 0.3-5.4-1.1q-0.7-0.3-1.4-0.6-0.6-0.2-1.3-0.5-0.7-0.2-1.4-0.4-0.7-0.2-1.4-0.4c-2.5-0.5-3.8-1-4.6-1.9-0.5-0.7-0.7-0.7-2.3-0.7q-1.1-0.2-2.2-0.4-1.2-0.2-2.3-0.4-1.1-0.3-2.2-0.7-1.1-0.4-2.2-0.8-0.3-0.1-0.6-0.3-0.2-0.1-0.5-0.3-0.3-0.2-0.5-0.4-0.2-0.2-0.4-0.5c-0.4-0.7-0.5-0.7-2-0.8-1.2 0-2.5-0.4-6.9-2-4.8-1.8-5.6-2-7.6-2.1-2.6-0.2-3.5-0.7-6.1-3.3q-0.2-0.2-0.4-0.4-0.3-0.3-0.5-0.5-0.3-0.2-0.5-0.5-0.3-0.2-0.5-0.4-0.1 0.2-0.2 0.3 0 0.1-0.1 0.2-0.1 0.2-0.2 0.3-0.1 0.1-0.2 0.2z"/>
		<path class="s1" d="m419.2 578.6c0 1-1 2.2-2.3 2.8-1.8 0.9-2 1.5-0.5 1.5q0.2 0 0.4 0 0.2 0 0.4 0 0.2 0.1 0.3 0.1 0.2 0 0.4 0.1c0.3 0.1 0.4 0 0.4-0.3q0.1-0.4 0.2-0.8 0.1-0.3 0.4-0.7 0.2-0.3 0.5-0.6 0.2-0.3 0.6-0.5 0.3-0.2 0.7-0.3 0.4-0.1 0.8-0.1 0.4 0 0.8 0.1 0.4 0 0.8 0.1c0.4 0.3 0.5 0.2 0.5-0.4q0-0.2 0-0.3 0-0.1 0-0.3 0-0.1 0-0.2 0.1-0.2 0.1-0.3c0.1-0.4 0.1-0.4-0.6 0q-0.3 0.2-0.7 0.2-0.4 0.1-0.9 0.1-0.4 0-0.8-0.1-0.4 0-0.7-0.2c-0.7-0.4-0.8-0.4-0.8 0.1z"/>
		<path class="s1" d="m370 581.3l-0.1 0.9 0.7-0.4q0.1-0.1 0.3-0.1 0.2-0.1 0.3-0.1 0.2-0.1 0.4-0.1 0.1 0 0.3 0h0.7l-0.7-0.2q-0.2-0.1-0.4-0.1-0.1 0-0.3-0.1-0.1-0.1-0.3-0.1-0.1-0.1-0.3-0.2c-0.5-0.3-0.5-0.2-0.6 0.5z"/>
		<path class="s1" d="m357.6 581.4q0 0.3 0.6 0.3c0.7 0 0.7 0-0.1-0.4-0.4-0.3-0.5-0.3-0.5 0.1z"/>
		<path class="s1" d="m361.9 581.2c-0.3 0.3-0.3 0.3 0 0.5 0.5 0.4 0.7 0.3 0.7-0.2 0-0.6-0.2-0.6-0.7-0.3z"/>
		<path class="s1" d="m320.5 582.4q0 0.2 0 0.3 0 0.2 0 0.4 0.1 0.2 0.1 0.4 0 0.2 0 0.4v0.5l0.6-0.5c0.8-0.7 0.7-0.9-0.1-1.7l-0.8-0.7z"/>
		<path class="s1" d="m367.9 584.8q-0.3 0.2-0.7 0.4-0.4 0.1-0.8 0.2-0.4 0.1-0.8 0.1-0.5 0-0.9-0.1c-0.6-0.2-0.6-0.2-0.7 0.9q0 0.1-0.1 0.3 0 0.2 0 0.4-0.1 0.2-0.1 0.4 0 0.1-0.1 0.3c-0.1 0.3 0.2 0.5 2.2 0.7 1.3 0.2 2.8 0.4 3.4 0.5 1 0.1 1.1 0.1 0.7-0.4q-0.2-0.3-0.5-0.6-0.2-0.4-0.3-0.8-0.2-0.3-0.2-0.7-0.1-0.5-0.1-0.9l-0.2-1.3z"/>
		<path class="s1" d="m423.6 587.2q-0.3 0.1-0.5 0.3-0.3 0.1-0.6 0.2-0.3 0-0.6 0-0.3 0-0.6 0c-1.2-0.1-1.3-0.1-1.4 0.5-0.1 0.6 0 0.6 1.4 0.6q0.2 0 0.5 0 0.2 0 0.5 0.1 0.2 0 0.5 0 0.2 0.1 0.5 0.1c0.4 0.2 0.5 0.1 0.5-0.3q0-0.2 0.1-0.3 0-0.2 0-0.4 0.1-0.2 0.1-0.3 0.1-0.2 0.1-0.3 0.1-0.1 0.1-0.2 0.1-0.1 0.1-0.2 0.1-0.1 0.1-0.3 0-0.1 0.1-0.2c0 0-0.5 0.3-0.9 0.7z"/>
		<path class="s1" d="m415.4 587.6c0 0.2 0.1 0.3 0.2 0.2q0.1 0 0.1 0 0.1-0.1 0.1-0.1 0-0.1 0.1-0.1 0-0.1 0-0.1 0-0.1 0-0.1-0.1-0.1-0.1-0.1 0 0-0.1 0 0-0.1 0-0.1c-0.2 0-0.3 0.2-0.3 0.4z"/>
		<path class="s1" d="m321.3 592.1c0.1 1.5 0.1 1.5 0.8 1q0.2-0.2 0.3-0.5 0.1-0.3 0.1-0.6-0.1-0.3-0.2-0.5-0.2-0.3-0.4-0.5 0 0 0 0-0.1 0-0.1 0 0-0.1 0-0.1 0 0-0.1 0c-0.5-0.2-0.5-0.2-0.4 1.2z"/>
		<path class="s1" d="m340.9 592.5c-1.7 0.9-7.6 4.4-13.1 7.8-10.7 6.7-18 11.2-25.3 15.4-2.5 1.4-6.7 4.1-9.3 6-2.6 1.8-5.3 3.7-6.1 4.2q-0.3 0.1-0.5 0.2-0.2 0.1-0.4 0.3-0.1 0.1-0.3 0.2-0.2 0.2-0.3 0.4c0 0.1 0.4 0.4 0.9 0.7q0.2 0 0.4 0.2 0.3 0.1 0.4 0.3 0.2 0.2 0.3 0.4 0.2 0.2 0.3 0.4c0.2 0.5 0.5 1 0.7 1 0.4 0 1.3 1 1.5 2l0.1 0.9 1.6-1.3q0.9-0.7 1.8-1.4 1-0.7 2-1.3 1-0.6 2-1.2 0.9-0.7 1.9-1.2c7.5-4.5 11.5-7 13-8.6 1-0.8 1.1-1.1 1-1.8q-0.2-0.5-0.1-1 0.1-0.5 0.4-0.9 0.2-0.5 0.7-0.8 0.4-0.3 0.9-0.4 0.1 0 0.1 0 0.1 0 0.1 0 0.1-0.1 0.2-0.1 0 0 0.1 0 0.3 0.1 0.7 0.3 0.3 0.1 0.6 0.3 0.2 0.2 0.5 0.5 0.2 0.3 0.4 0.6c0.2 0.7 0.4 0.6 1.8-0.3 0.7-0.5 2.5-1.4 3.9-2.2 1.5-0.8 4.2-2.3 6-3.5 8.1-5.1 11.4-6.5 16.3-7.3 4.3-0.8 12.6-0.3 26.5 1.4 2.6 0.4 6.1 0.7 7.8 0.8 2.8 0.1 3.1 0.1 3.7-0.3 1.8-1.3 3.3-1.8 6.7-2.4 3-0.5 3.8-0.7 4.8-1.4l1.8-1.1c0.4-0.2 0.7-0.4 0.7-0.5 0-0.1-2.8-0.5-6.2-1.1-3.3-0.5-9.2-1.4-12.9-2-13.7-2.4-19.6-3.1-26.3-3.1q-1 0-2 0-1 0-2-0.1-1-0.1-2-0.2-1-0.1-2-0.3c-0.6-0.1-1.3 0.1-3.8 1.5z"/>
		<path class="s1" d="m416.9 591.8c-0.8 0.4-1 0.6-1 1.1 0 0.7 0.3 0.9 1.2 0.6 0.6-0.3 0.7-0.4 0.8-1.2q0-0.2 0-0.3 0-0.1 0-0.2 0-0.1 0-0.2 0-0.1 0.1-0.3z"/>
		<path class="s1" d="m346.3 605.4c-3.7 0.7-7.7 2.6-13.7 6.3-1.8 1.2-4.8 2.9-6.7 4-1.9 1-4 2.2-4.6 2.6l-1.2 0.8 0.7 1.7c0.6 1.5 0.7 1.6 1.5 1.7q0.2 0 0.3 0 0.2 0.1 0.3 0.1 0.2 0.1 0.3 0.2 0.2 0 0.3 0.1c0.6 0.5 1.6 0.1 3.1-1.1q0.3-0.2 0.6-0.5 0.3-0.2 0.6-0.4 0.3-0.2 0.6-0.4 0.3-0.2 0.6-0.4 0.3-0.2 0.7-0.4 0.3-0.2 0.7-0.3 0.4-0.1 0.8-0.1 0.4-0.1 0.8 0 0.4 0 0.9 0 0.4 0.1 0.8 0.2 0.4 0 0.8 0.1 0.5 0.1 0.9 0.3c2.4 0.7 2.8 0.6 5.6-2 3.5-3.4 5.5-4.2 8.6-3.5 1.7 0.3 2.4 0.1 5-1.4q0.4-0.3 0.8-0.5 0.4-0.3 0.9-0.5 0.4-0.2 0.9-0.4 0.4-0.2 0.8-0.3c1.4-0.5 1.9-0.6 4.5-0.4q0.5 0 1 0 0.4 0 0.9 0 0.5 0 0.9 0 0.5-0.1 1-0.1 0.4-0.2 0.8-0.4 0.4-0.2 0.7-0.4 0.4-0.3 0.8-0.5 0.3-0.3 0.7-0.5 0.3-0.3 0.6-0.5 0.3-0.2 0.6-0.4 0.3-0.2 0.6-0.5 0.3-0.2 0.6-0.4c0.7-0.2 0-0.4-3.1-0.8-11-1.4-19.1-1.7-22.3-1z"/>
		<path class="s1" d="m317 624.2q0.1 0.5 0 0.9-0.1 0.5-0.2 0.9-0.2 0.4-0.5 0.8-0.3 0.3-0.6 0.6c-0.4 0.3-0.4 0.4-0.1 1.5 0.7 2.1 0.7 2.6 0.3 3.9-1 2.3-1.2 3.1-1.1 4 0.1 1.4-0.5 2.2-2.6 3.3q-0.4 0.2-0.8 0.5-0.4 0.2-0.8 0.4-0.4 0.3-0.7 0.6-0.4 0.2-0.8 0.5c-6.1 5-7.5 5.8-14.4 8.3q-4.3 1.7-8.4 3.5-4.2 1.8-8.4 3.7-4.1 1.9-8.2 4-4 2-8 4.2-1.8 1-3.6 2-1.8 1-3.7 1.9-1.8 0.9-3.7 1.8-1.9 0.8-3.8 1.6c-6 2.5-8.4 3.8-12 6.6q-1.4 1-2.9 1.9-1.4 0.9-2.9 1.7-1.5 0.9-3.1 1.6-1.6 0.7-3.2 1.3c-6.2 2.5-7.9 3.4-15.7 7.9-19.4 11-36.9 20.4-75.6 40.5-9.3 4.9-20.1 10.4-24 12.2-3.9 1.9-8.5 4.1-10.4 5q-0.7 0.4-1.5 0.7-0.7 0.4-1.4 0.7-0.8 0.3-1.6 0.6-0.7 0.3-1.5 0.6l-2.6 0.8 0.1 1.4q0.1 0.2 0.1 0.4 0 0.2 0 0.4 0.1 0.2 0.1 0.3 0.1 0.2 0.2 0.4 0.2 0 0.5-0.1 0.2 0 0.4-0.1 0.3-0.1 0.5-0.2 0.2-0.1 0.4-0.2 0.3-0.2 0.6-0.3 0.3-0.1 0.6-0.3 0.3-0.1 0.6-0.2 0.3-0.1 0.6-0.2 0.4-0.1 0.8 0 0.4 0 0.8 0.2 0.4 0.1 0.7 0.4 0.3 0.2 0.6 0.5 0.2 0.3 0.5 0.5 0.3 0.2 0.7 0.4 0.3 0.1 0.7 0.2 0.3 0.1 0.7 0.1c0.2 0 18.3-6.3 21.1-7.3 2.3-0.9 7.8-3.3 13-5.8 9.8-4.7 14.1-6.6 16.9-7.8 1.5-0.6 5.3-2.2 8.4-3.5 16.8-6.9 31-13.2 66.8-29.5 33.4-15.2 38.6-17.5 57.3-25.2 12.8-5.2 17.8-7.5 29.8-13.4 6-3 12.2-5.9 13.7-6.5q0.5-0.2 0.9-0.4 0.5-0.2 0.9-0.5 0.5-0.2 0.9-0.5 0.4-0.3 0.8-0.6 0.1-0.1 0.3-0.2 0.1-0.1 0.3-0.2 0.1-0.1 0.3-0.2 0.1-0.1 0.3-0.1 0.2-0.1 0.5-0.1 0.2-0.1 0.4-0.2 0.3-0.1 0.5-0.2 0.2-0.1 0.4-0.2c2.6-1.3 5.4-1.3 13.4 0.3 3.1 0.6 8.2 1.3 19.1 2.4 18.3 1.9 27 3 37.1 4.4 26.4 3.6 46.7 6.2 85.4 10.7 67.3 7.9 85.1 10.1 111.6 13.9 15.5 2.2 30.9 4 53.3 6.4 10.5 1.2 11.7 1.2 17.4 1.2 6.5 0 7.4 0.1 13.2 1.3 1.6 0.4 5.5 1 8.7 1.4 13.2 1.6 14.1 1.7 19.5 3.5l3.5 1.1 2.8-0.2c3.4-0.1 3.1-0.1 10.6-2.5 8.4-2.8 11.1-3.2 21.7-4q1.7-0.1 3.3-0.2 1.7-0.2 3.3-0.4 1.6-0.2 3.3-0.4 1.6-0.3 3.2-0.6 1.1-0.3 2.1-0.6 1-0.3 2-0.7 1-0.4 2-0.8 1-0.4 2-0.9l1.1-0.7-8.4-1.8c-15.5-3.5-15.3-3.4-27.2-3.5-11.6 0-12.6-0.1-27-2.9-12.5-2.3-13.1-2.4-33-3.4-23.2-1.2-32-2.1-45.8-4.8-9.4-1.8-16.1-2.7-34.6-4.5-20.3-1.9-22.6-2.2-41-5.6-17.9-3.3-23.7-4.2-32.5-5.4-7-0.9-11.2-1.2-26.7-2.2-26.6-1.6-37.2-2.5-50.6-4.2-8.2-1-13.9-2-31.6-5.4-25.2-4.8-36.4-6.7-51.4-9.1-3.9-0.6-10.3-1.7-14.3-2.5-10-1.9-13.2-2.4-18-2.6l-4.1-0.1-0.9 0.9q-0.2 0.2-0.4 0.4-0.2 0.1-0.4 0.2-0.2 0.1-0.5 0.2-0.2 0.1-0.5 0-0.2 0.1-0.4 0-0.2 0-0.4 0-0.1-0.1-0.3-0.2-0.2-0.1-0.3-0.2-0.1-0.2-0.3-0.3-0.1-0.1-0.3-0.2-0.1-0.1-0.3-0.1-0.2-0.1-0.3-0.2-0.4-0.1-0.7-0.4-0.3-0.3-0.5-0.7-0.2-0.4-0.2-0.8 0-0.4 0.2-0.8 0-0.1 0.1-0.3 0.1-0.1 0.2-0.2 0.1-0.2 0.2-0.3 0.2-0.1 0.3-0.2c0.5-0.1 0.5-0.1 0-0.7q-0.1-0.2-0.2-0.4-0.1-0.2-0.2-0.4-0.1-0.2-0.1-0.4-0.1-0.2-0.2-0.5-0.1-0.3-0.2-0.7-0.2-0.4-0.3-0.7-0.2-0.4-0.4-0.7-0.1-0.4-0.3-0.7l-0.9-2z"/>
		<path class="s1" d="m310.4 624.6c-1.3 0.9-5.3 3.3-8.8 5.4-5 3.1-6.7 4.2-8.3 5.7l-2 1.8-0.1 4.8q0 0.6 0 1.2 0 0.6 0 1.2 0 0.6 0 1.2 0.1 0.6 0.1 1.2c0.2 0.2 5.7-1.8 8-3q0.5-0.2 0.9-0.5 0.5-0.3 0.9-0.5 0.4-0.3 0.9-0.6 0.4-0.3 0.8-0.6c0.8-0.7 2.4-2 3.6-2.9q0.3-0.2 0.6-0.5 0.3-0.2 0.6-0.5 0.3-0.3 0.6-0.6 0.2-0.3 0.5-0.5 0.1-0.2 0.3-0.4 0.1-0.1 0.2-0.3 0.1-0.2 0.3-0.3 0.1-0.2 0.2-0.3 0.2-0.2 0.4-0.5 0.1-0.2 0.3-0.4 0.1-0.3 0.3-0.5 0.1-0.2 0.2-0.5 0.1-0.2 0.2-0.5 0.1-0.2 0.2-0.5 0-0.2 0-0.5-0.1-0.2-0.1-0.5-0.1-0.2-0.1-0.4 0-0.2 0-0.4 0-0.2 0-0.3 0-0.2 0.1-0.4 0-0.2 0.1-0.4 0-0.1 0-0.3 0-0.2 0-0.3-0.1-0.2-0.1-0.3-0.2-0.5-0.2-1-0.1-0.5-0.1-1 0.1-0.5 0.1-0.9 0.1-0.5 0.3-1 0.1-0.1 0.2-0.3 0.1-0.2 0.2-0.4 0.2-0.1 0.3-0.3 0.1-0.1 0.3-0.3c0.3-0.2 0.6-0.5 0.5-0.6q-0.3 0.1-0.6 0.3-0.3 0.2-0.6 0.4-0.3 0.2-0.6 0.4-0.3 0.2-0.6 0.4z"/>
		<path class="s1" d="m335.7 659.6q0 0.2-0.1 0.5 0 0.2 0 0.4 0 0.3 0 0.5 0.1 0.2 0.1 0.5c0.6 5.4 0.8 25 0.6 57.7l-0.1 34.4 2-0.1c1.1-0.1 4.3-0.5 7.1-0.9q1.1-0.2 2.3-0.4 1.1-0.1 2.3-0.2 1.1-0.1 2.2-0.2 1.2 0 2.3 0c5.1 0 40.8 0.5 42.4 0.7l4.7 0.3c1.9 0.2 5.2 0.5 7.3 0.8q2.3 0.3 4.6 0.5 2.3 0.1 4.7 0.2 2.3 0.1 4.6 0.1 2.4 0 4.7-0.2c10.4-0.3 19.8-0.3 21 0 0.9 0.3 1.6 0.2 9-1.2 18.7-3.7 26.2-4.6 35.8-4.4 6 0.1 7.6 0.3 17 2.3l5.7 1.2 8.5-1.1c4.7-0.6 11.7-1.5 15.7-2q4.4-0.6 8.8-1.1 4.5-0.5 8.9-0.8 4.5-0.3 9-0.5 4.4-0.3 8.9-0.3c5.9-0.1 9.9-0.4 20.7-1.1l3.2-0.2 0.9-1c0.5-0.6 2-2.5 3.3-4.2q1.2-1.6 2.5-3.2 1.3-1.5 2.6-3.1 1.3-1.5 2.7-3 1.4-1.5 2.8-2.9c6.2-6.6 10-9.8 14.8-12.6 9.9-5.9 20.3-8.7 37.7-10.3 3-0.3 6.4-0.6 7.6-0.8 3.3-0.4 9.3-0.3 10.9 0.1 1.2 0.4 1.5 0.4 4.5-0.2 1.8-0.4 3.5-0.7 3.6-0.8 0.2 0-0.8-0.2-2.2-0.4-4.4-0.5-9-1.3-11.7-2-2.3-0.6-3.1-0.6-10.8-0.8q-2.4 0-4.8-0.1-2.5-0.1-4.9-0.3-2.4-0.2-4.9-0.4-2.4-0.3-4.8-0.6c-25.3-2.8-34.2-3.9-52.1-6.4-29-4-42.7-5.7-112.7-13.9-36.9-4.4-56.5-6.8-81.7-10.3-11.9-1.7-19.9-2.6-38.8-4.6-11-1.1-16-1.8-19.1-2.4-5.6-1.1-9-1.5-9.3-1.2z"/>
		<path fill-rule="evenodd" class="s1" d="m331.6 661.7l0.1 1c0.7 3.2 0.9 41.4 0.5 74.6l-0.1 15.5-1.6 0.4c-0.9 0.2-2.2 0.5-2.9 0.6-0.7 0.2-3.4 1-6 1.8l-4.8 1.6-1.6-0.6q-0.4-0.1-0.8-0.2-0.3-0.1-0.7-0.1-0.4-0.1-0.8-0.1-0.4-0.1-0.8-0.1-0.3 0-0.7 0-0.3 0-0.6 0.1-0.4 0.1-0.6 0.2-0.3 0.2-0.6 0.4-0.5 0.4-1 0.9-0.4 0.5-0.7 1.1-0.3 0.6-0.5 1.3-0.1 0.7-0.1 1.3c-0.2 2 0.2 3.7 1.4 6.4 1.1 2.8 1.7 4.8 1.5 5.3q-0.1 0.4-1.2 0.4l-1.8 0.1c-3 0.1-3 0.2-3 9.1 0 8.7 0.1 9.8 1.1 10.8 1.2 1.2 3.1 1.4 9.6 1.4 3 0 6-0.1 6.6-0.2l1.3-0.1v2.9c0 2.1-0.1 3.1-0.4 3.7q-0.1 0.2-0.2 0.4-0.1 0.2-0.1 0.4 0 0.2 0.1 0.4 0 0.2 0.1 0.4c0.4 1 1.1 1.3 3.3 1.3 1 0 3.7 0.2 5.9 0.3l4 0.4-0.1 0.8q-0.2 1.1-0.5 2.3-0.2 1.1-0.5 2.2-0.2 1.1-0.5 2.2-0.3 1.1-0.7 2.2l-1.4 5.2v3.3c0 3.1 0.1 3.9 1.1 8.8 2.2 10.6 2.3 12.5 1.2 20.5-0.8 5-0.8 5-0.6 11.5 0.1 6.5 0.3 11.2 1.3 25.6 0.5 6.6 0.6 9.8 0.6 20.6 0 11.4-0.3 22.2-0.7 29.7l-0.2 2.3-0.8-0.1q-0.5-0.2-1-0.4-0.5-0.1-1-0.3-0.5-0.2-1-0.4-0.5-0.2-1-0.4c-4.8-2-7-2.7-10.2-3.1q-2.8-0.4-5.6-1-2.9-0.5-5.7-1.1-2.8-0.6-5.6-1.3-2.7-0.7-5.5-1.6c-2.3-0.6-12-3.8-21.5-6.9-66-21.9-102.7-32.2-140.4-39.6q-2.2-0.3-4.3-0.8-2.2-0.5-4.3-1.1-2.2-0.6-4.3-1.3-2-0.7-4.1-1.5c-7.6-2.9-12.6-4.2-15.7-4.2h-1l0.1-0.8c0.1-0.4 0.3-3.3 0.4-6.5q0.1-2.1 0.1-4.1 0.1-2.1 0-4.2-0.1-2-0.3-4.1-0.2-2.1-0.5-4.1c-1.9-12.8-2.6-29.9-2.2-54 0.1-7.7 0.2-18.8 0.2-24.7v-10.7l0.9-0.6c0.6-0.4 4.9-2 10.3-3.9 12.8-4.4 15.9-5.6 29.5-12.2 5.8-2.9 10.3-4.8 18.5-8.2 15.5-6.4 31.4-13.4 63.3-27.9 35.6-16.2 42.9-19.4 54.2-24.1 22-9.1 24.4-10.2 38.1-17 8-3.9 11-5.3 16.3-7.6zm-46 28.3q-0.6 0.2-1.2 0.5-0.6 0.2-1.1 0.4-0.6 0.2-1.2 0.4-0.7 0.2-1.3 0.4c-7.6 2.2-13.8 5.2-15.2 7.3-1.1 1.6-1.3 5.9-0.7 12.8 0.2 2.3 0.5 6.5 0.7 9.5 0.2 3 0.8 10.1 1.3 15.8 1.5 16.4 1.7 19.1 1.9 31.4 0.4 16.5 0.7 20.1 1.9 21.5 0.7 0.8 0.8 0.8 3 0.9 3.2 0.1 6-0.3 11.9-1.6 2.8-0.5 6-1.1 7.2-1.3 6.3-0.7 6.3-0.7 7.1-1.5q0.3-0.3 0.5-0.6 0.2-0.3 0.3-0.6 0.1-0.3 0.2-0.7 0.1-0.3 0.1-0.7c0.4-2.5 0.2-8.6-0.7-16l-0.6-6 0.1-14.4c0-8 0.1-19.7 0.1-26 0-11.3 0-11.6-0.7-15.7-0.7-5-0.8-7.9-0.1-11.3 0.9-4.4 0.6-5.9-1.1-6.7-2-0.8-8 0.3-12.4 2.2zm-85.3 35.9c-3.4 1.2-11 4.2-13.4 5.4-2.5 1.2-2.9 1.9-3.3 5.9-0.4 3.5-0.2 26.2 0.4 36.8 0.9 19 1.6 29.6 2 30.4q0.2 0.3 0.4 0.5 0.3 0.2 0.6 0.4 0.3 0.2 0.6 0.2 0.4 0.1 0.7 0.1c2.4 0 14.2-2.7 16.9-3.9 1.7-0.7 2.2-1.2 2.4-3.2 0.7-6 0.4-33.2-0.7-61.3-0.4-9.2-0.6-11-1.2-11.7-0.8-0.8-2.2-0.7-5.4 0.4zm-31.4 11.9c-1.3-0.9-3.1-0.2-9.4 3.9-4.5 2.9-5.6 3.5-6 3.3q-0.3 0-0.6 0.1-0.3 0-0.6 0.2-0.3 0.1-0.6 0.3-0.2 0.2-0.4 0.5c-0.5 0.8-0.8 5.4-1 16.6-0.5 18.1-0.3 40.5 0.3 45.6q0.1 0.3 0.1 0.6 0.1 0.2 0.2 0.5 0.1 0.3 0.2 0.5 0.1 0.3 0.2 0.6c0.9 1.2 2 1.2 10.6-0.8 4-0.9 7.4-1.8 7.7-1.9 0.9-0.3 1.1-1.4 1.3-7.5 0.5-12-0.5-59-1.2-61.4q-0.1-0.1-0.2-0.3 0-0.1-0.1-0.3-0.1-0.1-0.2-0.3-0.2-0.1-0.3-0.2zm-27.5 12.7c-1.4-1.5-3.6-1-10.9 2.7-4.7 2.3-7.6 3.9-8 4.4-0.4 0.5-0.4 0.9-0.2 5 0.5 14.8 1.9 45.1 2.3 49.3 0.2 2.5 0.2 2.7 0.8 3.2 0.9 0.8 2.3 0.7 7.1-0.2 8.6-1.5 9.2-1.7 9.9-2.4l0.7-0.7-0.2-13.7c-0.2-18.8-0.5-38.9-0.7-43.3-0.2-3.4-0.2-3.6-0.8-4.2z"/>
		<path fill-rule="evenodd" class="s1" d="m295.1 691.7c0.2 0 0.1 0.7-0.2 2.4-0.7 3.6-0.6 7.1 0.2 12.3 0.6 4.3 0.6 4.6 0.6 15.4 0 6.1 0 17.7-0.1 25.9l-0.1 14.9 0.7 6c0.6 5.7 1 14.5 0.6 14.9q-0.3 0-0.7 0.1-0.3 0.1-0.7 0.1-0.3 0.1-0.6 0.1-0.4 0-0.7 0.1-1.5 0.1-2.9 0.3-1.5 0.2-2.9 0.5-1.5 0.2-2.9 0.5-1.4 0.3-2.8 0.7c-4.2 0.9-8.6 1.4-8.9 0.9-0.3-0.6-0.6-7.8-0.9-18.6-0.2-12.1-0.4-15.4-1.9-31.4-0.5-5.6-1-12-1.2-14.2-0.1-2.2-0.5-6.6-0.8-9.8-0.6-7.1-0.5-10.8 0.3-11.7 1.9-1.9 14.8-6.6 18.4-6.6q0.3 0.1 0.7 0 0.3-0.1 0.6-0.3 0.3-0.1 0.5-0.4 0.2-0.3 0.4-0.6c0.1-0.3 1-0.6 2.6-1 1.3-0.3 2.5-0.5 2.7-0.5zm-4.7 6.2q-0.1-0.1-0.2-0.1-0.2-0.1-0.3-0.1-0.2 0-0.3-0.1-0.4 0.1-0.8 0.3-0.3 0.1-0.7 0.3-0.4 0.1-0.7 0.3-0.3 0.2-0.7 0.4-0.5 0.3-1 0.6-0.5 0.3-1 0.5-0.5 0.3-1 0.5-0.5 0.2-1 0.4c-6.8 3.1-9.9 4.6-10.5 5.2q-0.3 0.3-0.4 0.7-0.2 0.3-0.2 0.7 0 0.4 0.1 0.8 0.2 0.4 0.5 0.7c0.5 0.5 0.6 0.7 0.6 4.4 0 2.1 0.2 7.3 0.4 11.6q0.1 1.8 0.2 3.5 0.1 1.7 0.1 3.5 0 1.7 0 3.5-0.1 1.7-0.2 3.4-0.1 2.6-0.2 5.1-0.1 2.5-0.1 5.1 0 2.5 0.1 5 0.1 2.6 0.2 5.1c0.3 6 0.5 7.7 1.3 9 1.2 2 2.9 2.2 8.5 0.6 3.8-1 4-1 5.6-0.8 2.9 0.4 4.1-0.2 4.4-2.4q0-0.5 0-1 0-0.5 0-1.1 0-0.5-0.1-1 0-0.5-0.1-1.1-0.2-1.9-0.3-3.8-0.1-1.9-0.1-3.8 0-1.9 0.1-3.8 0.1-2 0.3-3.9 0.2-2.6 0.3-5.2 0.1-2.6 0.1-5.2 0-2.6-0.1-5.2-0.1-2.6-0.3-5.2c-0.8-10.7-0.8-12.7-0.7-19.1 0.2-7.4 0.2-7.5-1.5-8.2q-0.1-0.1-0.3-0.1z"/>
		<path class="s1" d="m287.7 703.2c-0.2 0.1-2.6 1.2-5.4 2.5-2.7 1.2-5.1 2.3-5.2 2.5-0.3 0.3-0.2 9.3 0.2 16.6 0.4 6 0.4 9.6-0.1 19.5-0.3 5.2 0.3 21 0.8 21.4q0.5-0.1 1.1-0.2 0.5-0.1 1.1-0.2 0.5-0.1 1.1-0.3 0.5-0.1 1.1-0.3c3.5-1 4.4-1.1 5.4-1l1.2 0.2-0.2-2.2q-0.1-2.2-0.2-4.3 0-2.2 0-4.3 0-2.1 0.1-4.3 0.1-2.1 0.2-4.3c0.5-4.2 0.4-12.5-0.2-20.7-0.4-5.3-0.6-8.8-0.6-14v-6.9q0 0-0.1 0.1 0 0-0.1 0 0 0.1-0.1 0.1 0 0-0.1 0.1z"/>
		<path fill-rule="evenodd" class="s1" d="m202.3 730c0.1 0.2 0.3 3.5 0.5 7.4 1.2 29.9 1.5 59.7 0.6 60.6-0.5 0.4-9.6 2.7-12.8 3.2l-1 0.2-0.1-1.6c-0.5-5.2-1.4-23.6-1.9-36-0.2-8-0.1-26.6 0.2-27.8 0.1-0.5 0.5-0.8 1.6-1.3 2.7-1.2 6-2.6 9.4-3.8 2.9-1.2 3.4-1.1 3.5-0.9zm-3.5 7.9q-0.1 0-0.3-0.1-0.1 0-0.2 0-0.2 0-0.3-0.1c-1.4 0-7.6 3-8.4 4-0.9 1.1-0.8 5.1 0.3 27 1.3 24.1 1.4 26 1.9 26.8 0.8 1.1 2.1 1 6.5-0.2 2.2-0.6 3.1-0.9 3.6-1.5l0.7-0.6-0.2-3c-0.1-1.6-0.3-7.1-0.5-12.2-0.5-12-1.2-29-1.6-34-0.2-4.4-0.4-5.4-1.2-5.9q-0.1-0.1-0.3-0.2z"/>
		<path class="s1" d="m194.6 743.4l-1.4 0.6-0.1 2c-0.1 1.1 0.2 8.4 0.7 17.9 1.4 28 1.4 27.8 1.8 27.8q0.2 0 0.4-0.1 0.2 0 0.3 0 0.2-0.1 0.4-0.1 0.2-0.1 0.4-0.1l1.2-0.4-0.1-4.6c-0.5-11.1-1.2-28.3-1.8-40.6q0-0.4 0-0.7-0.1-0.4-0.1-0.8-0.1-0.4-0.1-0.7-0.1-0.4-0.1-0.8c-0.5 0.2-1 0.4-1.5 0.6z"/>
		<path fill-rule="evenodd" class="s1" d="m162.7 744.5q0.5-0.3 1-0.6 0.5-0.3 1-0.5 0.5-0.3 1-0.6c0.3 0.2 0.5 4.1 0.9 19.2 0.2 11.4 0.4 42.1 0.2 42.3-0.2 0.2-12 2.9-12.1 2.7-0.8-0.7-0.8-46.4 0-55.8l0.1-2 1.6-0.8c0.9-0.4 3.3-1.9 5.3-3.2q0.5-0.3 1-0.7zm-0.6 5.7c-4 0.1-5.8 1.1-6.4 3.5-0.2 1 0 11.6 0.6 24.4 0.2 4.2 0.4 10.2 0.4 13.4 0 6.5 0.2 8.1 1.4 9.2q0.2 0.1 0.3 0.2 0.2 0.1 0.3 0.2 0.2 0.1 0.3 0.1 0.2 0.1 0.4 0.1 0.6 0 1.2-0.1 0.6-0.1 1.2-0.2 0.5-0.1 1.1-0.2 0.6-0.1 1.2-0.3 0.1-0.2 0.3-0.3 0.1-0.2 0.2-0.4 0.2-0.2 0.3-0.4 0.1-0.1 0.2-0.3l0.7-1.3-0.2-2.8c-0.2-1.5-0.4-10.3-0.4-19.6-0.2-24.7-0.2-23.9-0.8-24.6-0.5-0.5-0.8-0.6-2.3-0.6z"/>
		<path class="s1" d="m159.7 754.7c-0.1 0.3 0.5 18.9 0.8 25.9 0.1 2.5 0.3 7.2 0.3 10.5 0 4.6 0 5.9 0.3 5.8 0.2-0.1 0.3-0.6 0.2-1.6 0-0.8-0.1-9.1-0.1-18.5-0.1-9.3-0.2-18.1-0.3-19.6-0.2-2.3-0.3-2.7-0.6-2.7q-0.1 0-0.2 0-0.1 0-0.1 0.1-0.1 0-0.2 0 0 0.1-0.1 0.1z"/>
		<path fill-rule="evenodd" class="s1" d="m137.8 754.3l0.2 0.9c0.2 1.1 0.7 27.8 0.7 43l0.1 11.4-4.6 0.9c-2.5 0.5-4.8 0.9-5.1 0.9-0.7 0-0.6 1-1.3-14.9-0.3-6.8-1.6-35.5-1.6-36.1 0-0.3 5.6-3.3 9.1-4.9zm-3.3 5.7q-0.5-0.2-1-0.1-0.5 0-1 0.2-0.5 0.2-1 0.5-0.1 0-0.2 0.1-0.1 0.1-0.3 0.1-0.1 0.1-0.2 0.1-0.2 0-0.3 0-0.2 0.1-0.3 0.1-0.2 0.1-0.3 0.1-0.2 0.1-0.3 0.2-0.1 0.1-0.3 0.2c-0.6 0.5-0.6 0.7-0.8 3.4-0.3 2.8 0.1 26.9 0.5 36.7 0.1 4 0.1 4 0.8 4.6 1.6 1.4 5.3 0 6.7-2.6l0.5-1v-18.6c-0.1-10.2-0.2-19.5-0.3-20.6-0.2-2-0.5-2.7-1.2-3.1q-0.5-0.2-1-0.3z"/>
		<path class="s1" d="m132.6 766.4c-0.1 0.7-0.1 6.3 0 12.4l0.3 11.1v-12.4c0-6.8 0-12.4 0-12.4q-0.1 0.1-0.2 0.3 0 0.2 0 0.3-0.1 0.2-0.1 0.3 0 0.2 0 0.4z"/>
		<path class="s1" d="m132.9 796.4c0 0.3 0.1 0.4 0.2 0.2q0-0.1 0-0.1 0.1-0.1 0.1-0.2 0 0-0.1-0.1 0 0 0-0.1c-0.1-0.1-0.2 0.1-0.2 0.3z"/>
		<path class="s1" d="m133 798.1c0 0.5 0 0.7 0.1 0.4q0-0.1 0-0.3 0-0.1 0-0.2 0-0.1 0-0.3 0-0.1 0-0.2c-0.1-0.2-0.1 0-0.1 0.6z"/>
		<path class="s1" d="m879.2 663.2c-13.9 1.8-22.8 5-32.6 11.5q-4.3 2.9-8.2 6.1-3.9 3.3-7.5 6.8-3.7 3.6-7 7.5-3.2 3.9-6.2 8.1c-10.6 15.2-18.7 32.7-21.3 45.5-0.3 1.6-1.3 5.2-2.1 8-1.9 6-2.8 9.4-2.8 10.2 0 0.3 0.5 0.9 1.7 1.8l1.8 1.4 0.1-1.2c0.1-0.6 0.5-3.5 0.9-6.5 1.2-8.3 1.6-10.2 3.5-13.9 0.8-1.8 2.6-5.6 3.8-8.5 4.6-10.6 6.6-14.4 10.8-20 11.6-15.3 25.2-24.4 40.9-27.3 2.7-0.4 3.9-0.5 9.3-0.5 6.7 0 8.6 0.2 14.3 1.5q2.2 0.5 4.3 1.1 2.1 0.7 4.2 1.5 2 0.9 4 1.9 2 0.9 3.9 2.1 2 1.1 3.9 2.5 1.9 1.3 3.7 2.8 1.7 1.6 3.3 3.3 1.6 1.7 2.9 3.6c1.4 1.8 3.5 4.5 4.8 6.1 3.9 5 5.4 7.7 9.2 16.7 1.2 2.8 2.3 5.5 2.5 5.8 0.7 1.3 2.8 6.8 4.1 10.6q0.9 2.6 1.7 5.3 0.8 2.6 1.4 5.3 0.6 2.7 1.1 5.4 0.5 2.8 0.8 5.5c0.3 2.7 0.6 4.9 0.6 5 0.1 0 0.8 0.1 1.8 0.3q0.3 0 0.6 0.1 0.2 0.1 0.5 0.1 0.3 0.1 0.6 0.2 0.3 0.1 0.6 0.2 0.4 0.3 0.7 0.6 0.3 0.3 0.6 0.7 0.2 0.4 0.4 0.8 0.1 0.5 0.2 0.9 0 0.4-0.2 0.8-0.2 0.3-0.4 0.6-0.3 0.2-0.7 0.4-0.3 0.1-0.7 0.2c-0.9 0-3 1-3 1.4 0 0.6 1.2 8.4 1.8 11.4q0.2 0.9 0.4 1.9 0.2 0.9 0.4 1.9 0.2 0.9 0.5 1.8 0.2 0.9 0.5 1.8 0.3 0 0.5 0 0.3 0 0.5 0 0.3 0 0.5-0.1 0.3 0 0.5 0c2.7-0.3 15.3-0.1 21 0.4 2.6 0.2 8.6 0.7 13.4 1.2 4.7 0.4 9.8 0.9 11.2 1q5.2 0.3 20.7-1.2c10.1-1 12.8-1.2 34.9-1.9 27-1 34.1-1.1 59.2-1.1h23.5l4.8 1c5.2 1 7.1 1.2 7.5 0.6 1.1-1.4 5.2 1 4.7 2.7q0 0.2 0 0.4 0 0.1 0.1 0.3 0 0.2 0 0.3 0.1 0.2 0.2 0.3c0.3 0.8 0.3 2.1 0.3 8.2 0 5.8 0.1 9 0.6 15.9 0.9 12.4 1.1 20.2 0.8 27.4-0.4 9.5-0.3 30.2 0.3 47.7 0.2 8.7 0.6 21.8 0.7 29 0.3 13.4 0.2 15.2-0.6 20.9q0 0.4-0.1 0.8 0 0.4 0 0.8-0.1 0.3-0.1 0.7 0 0.4 0 0.8c0.1 0.7 0 0.9-0.6 1.6q-0.1 0.2-0.3 0.3-0.2 0.2-0.5 0.2-0.2 0.1-0.4 0.1-0.3 0.1-0.5 0c-0.9-0.1-1.4 0.1-3 0.7-19.2 7.8-44.4 14.9-73.7 20.7-12.5 2.5-21 4-56.6 10.1-28.5 4.8-37.5 6.6-66.8 13.1l-15.7 3.5-5.9 0.2c-4.4 0.1-6.2 0.3-7.2 0.6l-1.3 0.4 0.2 2.4c0.1 1.4 0.2 3.9 0.1 5.6 0 1.7 0.1 5.1 0.3 7.8 0.3 7.3 1 11.4 1.6 11.7q0.6 0.2 1.2 0.3 0.6 0.1 1.2 0.2 0.5 0.1 1.1 0.1 0.6 0.1 1.2 0.2c6.6 0.8 9.9 1.8 12 3.6 1.3 1.1 2.5 1.5 4.9 1.6 4 0.2 8.1-0.8 18.2-4.7 8.5-3.3 8-3.1 15-4.7 14.2-3.2 23.5-5.7 52.4-14.3 29.7-8.8 41.8-12 57.5-15.2 8.2-1.7 12.7-2.8 23.4-5.9 13.7-3.9 19-5.2 26.2-6.3 1.8-0.2 5.5-0.8 8.1-1.3q1.6-0.3 3.2-0.5 1.6-0.3 3.2-0.5 1.6-0.2 3.2-0.4 1.6-0.1 3.2-0.3l2.4-0.1-0.1-2.3c-0.5-12-1.4-27-2-34.6-2.3-27.5-2.2-53.2 0.4-92.2 1.1-18.1 1.1-17.7 0.8-25.4-0.2-3.9-0.4-12.2-0.4-18.4 0-11.2 0-11.3-0.5-12.2-1-1.8-0.7-3 1.1-3.9 0.4-0.3 1.1-0.8 1.6-1.2 0.9-0.7 1-0.7 3.3-0.7 1.4 0 3 0.1 3.8 0.1 1.2 0.1 1.5 0 3.6-1q1.3-0.8 2.7-1.5 1.3-0.8 2.6-1.6 1.3-0.8 2.6-1.6 1.3-0.8 2.5-1.7 0.2-0.2 0.5-0.4 0.2-0.2 0.5-0.3 0.2-0.2 0.5-0.4 0.2-0.1 0.5-0.3l1-0.6-2.6 0.1c-3.2 0.2-5.5 0-15.8-1.4-10.5-1.5-12.5-1.7-21.2-2.4-9.2-0.7-15.9-1.4-34.6-3.3-23.2-2.3-33.9-3.2-48.3-4.1-8.3-0.5-31.9-0.4-40.2 0.2q-4.1 0.2-8.3 0.2-4.1 0.1-8.2 0.1-4.2-0.1-8.3-0.2-4.1-0.2-8.2-0.5c-7.9-0.5-11.8-0.5-15.2-0.1-1.9 0.2-2.5 0-3-1q-0.1-0.2-0.2-0.4-0.1-0.2-0.1-0.4 0-0.3 0.1-0.5 0.1-0.2 0.2-0.4c0.4-0.8 0.4-1-0.1-3.5-0.2-1.4-1.1-4.5-1.8-6.8-0.7-2.4-2-7.3-3-10.9q-0.4-2-0.9-3.9-0.5-1.9-1.1-3.9-0.6-1.9-1.2-3.8-0.6-1.9-1.3-3.8l-4.2-11c-4.7-12.2-5.5-14.2-8.2-19.8-6-12.2-13.6-20.9-26.8-30.7-11.3-8.5-20-13.3-27.7-15.6-2.3-0.7-2-0.7-7.6 0z"/>
		<path class="s1" d="m850.6 665.1q-2.2 0.4-4.4 0.8-2.2 0.4-4.4 0.9-2.3 0.5-4.4 1.1-2.2 0.6-4.4 1.2-1.7 0.6-3.5 1.2-1.7 0.7-3.4 1.4-1.7 0.7-3.4 1.4-1.7 0.8-3.3 1.6-0.9 0.5-1.7 1-0.9 0.6-1.7 1.1-0.9 0.6-1.7 1.2-0.8 0.6-1.6 1.2-0.1 0-0.2 0.1-0.1 0-0.2 0.1-0.1 0-0.3 0-0.1 0-0.2 0-0.3 0-0.6 0.1-0.4 0.1-0.7 0.3-0.3 0.1-0.6 0.2-0.3 0.2-0.5 0.4c-1.8 1-5 3.5-5 3.8q-0.2 0.3-0.4 0.6-0.2 0.3-0.4 0.5-0.2 0.3-0.5 0.5-0.2 0.3-0.5 0.5c-3.6 3.8-5.7 7.3-15 25.6-7.6 15-9.3 18.3-12.7 24.6-1.1 2.2-3.2 6.6-4.6 9.7-2.9 6.5-7.2 15-8.4 16.6l-0.8 1 2.2 0.2c1.1 0 3.3 0.1 4.7 0.1q1.2 0 2.5 0.1 1.2 0 2.4 0.2 1.3 0.1 2.5 0.2 1.2 0.2 2.4 0.4l2.3 0.5 2-0.6q0.4-0.1 0.8-0.2 0.3-0.1 0.7-0.1 0.4-0.1 0.8-0.2 0.4 0 0.7-0.1c0.8 0 1-0.1 1.3-0.5q0.1-0.2 0.2-0.3 0.2-0.1 0.3-0.3 0.1-0.1 0.3-0.2 0.1-0.1 0.3-0.2c0.7-0.5 0.9-0.9 2.6-6.6 1-3.4 2.1-7.2 2.4-8.6q0.2-1.1 0.4-2.2 0.2-1 0.5-2.1 0.3-1 0.6-2.1 0.3-1 0.6-2c3.8-11.7 11.6-26.7 20.1-38.8 10.2-14.7 25.2-27.9 39.1-34.6 2.6-1.3 2.6-1.3 1.5-1.2q-0.5 0-1.1 0.1-0.6 0-1.2 0.1-0.6 0.1-1.2 0.1-0.6 0.1-1.2 0.2z"/>
		<path class="s1" d="m789.5 690.7c-1.5 0.1-2 0.2-2.2 0.6-0.5 0.8-1.1 1.3-1.7 1.3-1.6 0-5.6 2.1-13.2 7-2.4 1.5-5.6 3.5-7.2 4.4q-1.2 0.6-2.3 1.3-1.2 0.7-2.3 1.5-1.1 0.8-2.1 1.7-1 0.8-2 1.8c-5.1 5-8.2 9-16.9 21.8-7.8 11.7-8 12-10.5 17-1.7 3.4-6 13.3-6 13.7 0 0 3 0.1 6.8 0.1 6.9 0 14.4 0.3 20.9 0.8l3.5 0.2 1.4-1.1c0.7-0.7 1.7-1.4 2.1-1.7 1.1-0.8 4.8-7.8 8.6-16.3 1.2-2.9 3.5-7.4 4.8-10.1 1.4-2.6 5.7-10.8 9.4-18.2 9.5-18.6 11-21.5 12.5-24l1.3-2.1h-1.5c-0.9 0.1-2.4 0.2-3.4 0.3z"/>
		<path fill-rule="evenodd" class="s1" d="m860 696.4q0.9-0.1 1.8-0.1 0.8 0 1.7 0 0.9 0 1.7 0.1 1.8-0.1 3.5 0 1.8 0.1 3.5 0.3 1.8 0.3 3.5 0.6 1.7 0.4 3.4 0.8c9.3 2.4 19.3 8.2 24 13.9 1.3 1.6 3.7 4.6 9.1 11.7 2.2 2.8 3.1 4.6 8.6 17.5 4.5 10.5 7.2 18.7 8.6 26.5 0.6 3.2 1.4 9.5 1.1 9.8-0.2 0.3-9.7-1-10.1-1.5q0-0.4 0-0.8 0-0.5 0-0.9 0-0.4 0.1-0.9 0-0.4 0.1-0.9c0.4-5.1 0.1-6.3-1.9-7.2-1.1-0.6-1.3-0.6-16.1-0.6-15.8 0-17.4-0.1-41.9-1.4-11.3-0.6-18-0.9-25.2-1-10.1-0.1-11.6-0.1-17.7-1.1-3.5-0.6-3.5-0.6-4.4-1.4-1.3-1.4-2.7-1.2-3.5 0.6-0.6 1.2-0.6 3.7-0.1 6.2q0.1 0.4 0.2 0.9 0 0.4 0 0.9 0.1 0.4 0 0.9 0 0.5-0.1 0.9 0 0.3-0.1 0.6 0 0.4-0.1 0.7-0.1 0.3-0.1 0.6-0.1 0.3-0.2 0.6c-0.4 0.9 0.6 3.1 1.8 3.9 1.2 0.8 1.2 0.8 1.8 2.4 0.9 2.3 1.5 4.8 2.6 11.3 0.9 5.7 1 6.7 1 10.3 0 4 0.2 4.6 1 5.6 1.1 1.3 1.1 1.4 0.9 3.4q-0.1 1.8-0.1 3.5 0 1.8 0.1 3.5 0 1.8 0.1 3.6 0.1 1.7 0.3 3.5c0.3 3.7 0.4 7.5 0.2 24.1-0.1 24.8 0.1 37.3 1.9 81.3 2.2 57.3 2.3 65.7 1 83.7-0.1 2.7-0.5 7.3-0.7 10.3-0.2 2.9-0.4 5.4-0.4 5.5-0.1 0-2.9 0.5-6.4 1.1-10.2 1.8-14.2 2.6-19.8 4.3q-5.1 1.5-10.2 2.8-5.1 1.3-10.3 2.4-5.2 1.2-10.4 2.2-5.2 0.9-10.4 1.7c-11.8 2-13.5 2.5-33.7 9.5-11.2 3.9-16.1 5-33.2 7.6-13.6 2-14.8 2.3-29.7 5.6-33.9 7.7-49.4 10.5-66.2 11.8-8.6 0.7-16.4 2-29.2 4.9-6.9 1.6-13.1 2.9-20 4.1-7.1 1.3-16.7 2.7-17.6 2.7-0.4 0-0.4-0.6-0.4-10.3 0-10.7 0.3-37.5 0.7-70.9 0.3-22.6 1.6-112.2 2-137.3 0.1-9.9 0.3-30.6 0.4-46 0.1-15.4 0.2-28 0.3-28.1 0 0 2.6 0 5.7 0.1 7.8 0.3 36.3 1.1 47.7 1.4 5.1 0.2 15.8 0.3 23.8 0.3 20.9 0 26.8 0.2 101.2 3.3 37.3 1.6 68.5 2.1 77.2 1.2 4.4-0.4 6.8-1.4 8.4-3.6 1-1.5 1.4-3 1.7-6.9 0.3-5 0.5-6 1.9-8.4 0.9-1.7 1.2-2.1 2-2.4q0.1 0 0.3-0.1 0.2-0.1 0.3-0.3 0.2-0.1 0.3-0.3 0.1-0.1 0.2-0.3c0.4-0.7 0.9-3.8 1.6-10.5 0.7-5.4 1.6-11.7 2.2-14.7q0.2-0.8 0.4-1.6 0.2-0.8 0.5-1.5 0.3-0.8 0.6-1.5 0.4-0.7 0.7-1.4c1-2.1 2.8-6 4-8.9 3.9-8.9 6-12.9 9.7-17.8 11.5-15.4 25.1-24.2 41.1-26.3q0.9-0.1 1.7-0.1zm-102.5 138.8q-2.1-0.2-4.1-0.3-2-0.1-4.1-0.2-2 0-4 0-2.1 0-4.1 0.1c-0.8 0.2-2.5 0.5-3.7 0.8q-1.1 0.3-2.2 0.5-1 0.2-2.1 0.4-1.1 0.2-2.2 0.3-1.1 0.1-2.2 0.2-0.9 0.1-1.9 0.1-0.9 0-1.9 0-1 0-1.9 0-1 0-2-0.1c-2.5-0.1-8.9-0.3-14.2-0.3-5.3-0.1-10.6-0.3-11.9-0.4-1.2-0.1-3.2-0.3-4.3-0.4-2-0.1-2.1-0.1-2.7 0.5q-0.2 0.1-0.3 0.3-0.1 0.1-0.2 0.3-0.1 0.2-0.1 0.4-0.1 0.2-0.1 0.5c0 1.7 0.9 2.6 2.7 3 0.9 0.1 1 0.2 1.3 1.1 0.6 1.6 1 5.2 1.3 10.5 0.3 5.3 0.8 9.1 1.3 9.9 0.6 0.9 1.3 1.3 3.6 1.8 5.6 1.3 11.9 1 23.8-1.1 4.4-0.8 4.9-0.8 13.7-1.1 15-0.4 20.2-0.8 21.7-1.5 0.9-0.5 1.6-2.1 2.1-5.3 0.6-3.3 0.8-3.7 2.9-6.4q0.3-0.3 0.6-0.7 0.3-0.4 0.5-0.7 0.3-0.4 0.5-0.8 0.3-0.4 0.5-0.8c1.1-2.1 1.3-5.6 0.3-7.2-1-1.6-3-2.7-6.6-3.3zm-58.8 32.8q-1.6 0-3.1 0.1-1.5 0.1-3.1 0.2-1.5 0.1-3 0.3-1.6 0.2-3.1 0.4c-2.1 0.5-2.8 2.2-3.4 7.2-1.2 10-1 44.3 0.6 75.7 0.1 4 0.5 13.4 0.8 21 1.1 31.9 1.8 42.9 2.8 48.7 0.7 3.7 1.2 4.2 4.3 4 2.6-0.2 11.7-1.7 26.4-4.4 31.2-5.8 38.7-7.1 46.1-8.1 4.8-0.7 5.5-0.9 5.9-1.4 0.4-0.4 0.4-1.4 0.4-17 0-43.1-1-115.5-1.6-121.7-0.2-2.2-0.8-3-2-3.2-0.5-0.1-7-0.4-14.5-0.7-7.5-0.4-16-0.7-18.8-0.9-6.9-0.3-27.8-0.4-34.7-0.2z"/>
		<path class="s1" d="m741.6 839c-0.8 0.1-3 0.6-5.1 1.1q-1.9 0.4-3.9 0.7-1.9 0.2-3.9 0.4-1.9 0.1-3.9 0.1-1.9 0-3.9-0.2c-2.7-0.1-9.4-0.3-14.8-0.3-5.5-0.1-10.2-0.2-10.4-0.3-0.3-0.1-0.5-0.1-0.4 0.3q0.3 1 0.5 2 0.2 1.1 0.3 2.1 0.1 1 0.2 2 0.1 1 0.1 2c0.4 6.6 0.7 9.9 1 10.5 0.2 0.7 0.5 0.7 2.4 1q1.4 0.2 2.8 0.3 1.4 0.1 2.8 0.1 1.4 0.1 2.8 0 1.4-0.1 2.8-0.2c1.2-0.2 4.9-0.8 8.2-1.4l6.2-1 9.3-0.3c9.4-0.2 16.6-0.6 18.5-0.8 1.2-0.2 1.2-0.1 1.7-3.2 0.5-3.3 1.1-4.4 3.3-7.3 1.7-2.2 2.1-2.8 2.3-3.9q0.1-0.2 0.1-0.4 0-0.3 0.1-0.5 0-0.2 0-0.4 0-0.3-0.1-0.5c-0.2-0.9-2.5-1.5-6.3-1.9q-1.6-0.1-3.2-0.2-1.6 0-3.2 0-1.6 0-3.2 0-1.6 0.1-3.1 0.2z"/>
		<path fill-rule="evenodd" class="s1" d="m738.6 872.6c18 0.9 25.8 1.3 26 1.4 0.5 0.6 1.3 48 1.6 104.2l0.2 30.5-1.3 0.1c-3.7 0.5-16 2.6-30.9 5.3-37.2 6.8-42.5 7.8-42.8 7.3q-0.1-0.3-0.2-0.6 0-0.3-0.1-0.6-0.1-0.3-0.1-0.6 0-0.3-0.1-0.7c-0.8-7.2-1.4-18.3-2.4-46.2-0.2-7.6-0.6-17.1-0.8-21.1-1-21.3-1.4-37.3-1.3-55.1 0.1-8.2 0.3-16 0.4-17.4q0.1-0.7 0.1-1.5 0.1-0.8 0.2-1.5 0.2-0.8 0.3-1.5 0.2-0.7 0.3-1.5c0.3-0.3 4.6-0.7 11.5-1 8.6-0.3 26.8-0.1 39.4 0.5zm18 13.3c-0.2 0.2-30.5 2.2-52.3 3.4-5.2 0.3-7.2 0.5-7.6 0.7q-0.3 0.2-0.5 0.4-0.2 0.3-0.3 0.6-0.1 0.3-0.1 0.6-0.1 0.3 0 0.6 0.1 0.3 0.1 0.6 0.1 0.4 0.1 0.7 0 0.3 0 0.6 0 0.4-0.1 0.7c-0.3 2.7-0.2 13.7 0 23.9 0.1 4.8 0.3 13.1 0.4 18.3 0 5.2 0.4 23.9 0.7 41.2 0.6 34.5 0.5 32.7 1.9 33q0.7 0 1.4-0.1 0.7 0 1.3-0.1 0.7-0.1 1.4-0.2 0.7-0.1 1.4-0.3c5.9-1 27.4-4.6 41.1-6.7 6.2-1 11-1.7 12.3-1.7 2.2 0 2.3-0.1 2.9-0.8 1.1-1.2 1.4-2.4 1-5-0.8-7.3-1.6-24.1-2.1-46.1-0.2-7.7-0.6-57.2-0.5-63 0-0.3-0.4-0.7-0.8-0.9-0.8-0.5-1.5-0.6-1.7-0.4z"/>
		<path class="s1" d="m749 890.6c-1.8 0.2-3.3 0.3-3.3 0.4-0.1 0 0 9.1 0.2 20.3 0.2 11.1 0.4 33.4 0.6 49.5 0.2 16.1 0.4 29.7 0.5 30.1q0.1 0.4 0 0.9 0 0.4-0.2 0.7-0.2 0.4-0.4 0.7-0.3 0.3-0.7 0.5c-2.4 0.9-39.7 7.5-42.4 7.5q-0.2 0-0.3 0.1-0.2 0-0.4 0-0.1 0-0.3 0-0.2 0.1-0.3 0.1c-0.6 0.1-0.6 0.1-0.4 2.7q0 0.3 0 0.6 0 0.4 0 0.7 0.1 0.3 0.1 0.6 0 0.4 0.1 0.7c0 0 2.2-0.3 4.8-0.8 6-1 33.5-5.5 43.5-7l7.4-1.1v-1.4c0-0.7-0.2-3.7-0.4-6.7-1.2-16.2-1.8-36.7-2-74.3l-0.1-25h-1.4c-0.8 0-2.8 0.1-4.6 0.2z"/>
		<path class="s1" d="m732.9 891.7c-4.5 0.3-13.5 0.8-20 1.2-6.4 0.3-12 0.7-12.2 0.7-0.5 0.1-0.6 0.3-0.7 2.3-0.1 1.2-0.2 5.6-0.2 9.7 0 6 0.1 7.6 0.3 7.7 0.3 0.1 4.9-0.4 10.4-1 13.9-1.5 29.3-3 30.2-3q0.2 0 0.3 0 0.1 0 0.3 0 0.1-0.1 0.2-0.1 0.1-0.1 0.2-0.2c0.2-0.3-0.1-18-0.3-18-0.2 0-3.9 0.4-8.5 0.7z"/>
		<path class="s1" d="m730.5 914.4c-4.8 0.5-13.6 1.4-19.6 2l-10.9 1.2v0.8c0 0.5 0.1 0.8 0.3 0.8 0.2 0 2.3-0.3 4.6-0.5 5.5-0.6 15.7-1.5 26.2-2.3 4.5-0.3 8.7-0.7 9.4-0.7l1.3-0.2v-2.1h-1.3c-0.6 0.1-5.2 0.5-10 1z"/>
		<path class="s1" d="m735.4 920.1c-20 1.6-34 2.9-34.8 3.3-0.2 0-0.3 1.6-0.3 6.5 0 3.6 0.1 7.1 0.2 8l0.1 1.5 2.8-0.2c3.6-0.2 6.7-0.6 15.7-2 4.1-0.7 8.5-1.3 9.9-1.5 1.3-0.1 3.7-0.4 5.4-0.7q0.6-0.1 1.3-0.2 0.7-0.1 1.3-0.2 0.7 0 1.4-0.1 0.6 0 1.3 0h2.3v-5.9c0-7.1-0.1-8.9-0.7-8.9-0.2 0-2.8 0.2-5.9 0.4z"/>
		<path class="s1" d="m738.4 938.5c-4.2 0.7-7 1.1-9 1.3-1.3 0.1-5.7 0.8-9.7 1.5q-2 0.3-4.1 0.6-2 0.3-4 0.6-2 0.2-4.1 0.4-2 0.2-4 0.4l-3 0.1v1.1c0 1 0 1 0.5 0.9 0.3 0 9.4-1.2 20.2-2.5 10.9-1.3 19.9-2.5 20.3-2.6 0.3 0 0.5-0.2 0.5-0.7 0-0.5-0.1-0.7-1-1q-0.3-0.1-0.6-0.2-0.4 0-0.7 0-0.3 0-0.6 0-0.3 0-0.7 0.1z"/>
		<path class="s1" d="m720.5 947.1c-10.9 1.4-19.8 2.5-19.8 2.6-0.2 0.2 0.2 16.3 0.4 16.4q0.9 0 1.7-0.1 0.9 0 1.8-0.1 0.9-0.1 1.8-0.2 0.9-0.1 1.8-0.2c9.5-1.1 32.9-3.8 33.6-4l0.6-0.1-0.1-8.4v-8.4h-1c-0.6 0-10 1.1-20.8 2.5z"/>
		<path class="s1" d="m732.1 966.8c-4.6 0.6-13.3 1.6-19.2 2.3-6 0.7-11 1.3-11.4 1.3-0.5 0.1-0.5 0.2-0.5 2.9q0 0.3 0 0.7 0 0.3 0 0.7 0 0.3 0 0.7 0.1 0.3 0.1 0.7c0.1 0 2.3-0.2 4.9-0.5 11.2-1.3 32.3-3.9 34.3-4.1l2.2-0.4v-5.4h-1c-0.6 0.1-4.8 0.6-9.4 1.1z"/>
		<path class="s1" d="m735.3 976.2c-3.3 0.4-12 1.5-19.3 2.3-7.3 0.9-13.6 1.7-14 1.8l-0.8 0.1 0.1 8.4c0.1 4.6 0.2 8.5 0.3 8.5 0.3 0.3 25.8-4 36.8-6.3 2.2-0.4 4.2-0.8 4.2-0.8 0.1 0 0.2-6 0-10.9-0.1-3.8-0.1-4-0.6-4z"/>
		<path class="s1" d="m766.9 697.8c-3.4 1.2-8.4 2-17 2.6-8.4 0.6-14.3 1.5-16.6 2.5q-0.3 0.1-0.6 0.3-0.3 0.1-0.6 0.2-0.3 0.1-0.6 0.2-0.3 0.1-0.6 0.2c-8.3 2.4-23.9 12.9-32.6 22-4.1 4.2-6.9 8-13.8 18.3-4.3 6.3-5 7.7-7.3 13.7-1.9 4.8-1.9 4.3-0.2 4.5 2.8 0.3 23.3 0.6 32.4 0.6l9.3-0.1 0.2-0.7q0.5-1.4 1.1-2.8c0.5-1.1 1.6-3.6 2.4-5.5q0.7-1.7 1.5-3.4 0.8-1.6 1.6-3.3 0.8-1.6 1.7-3.2 0.9-1.6 1.8-3.2c1.9-3 10.7-16 13.5-20q1.1-1.7 2.3-3.3 1.3-1.6 2.6-3.2 1.3-1.6 2.6-3.1 1.4-1.5 2.8-2.9c3.8-3.8 5-4.7 10.6-8 4.9-2.7 5.4-3.1 3.5-2.4z"/>
		<path class="s1" d="m703.8 707.5c-11.6 0.8-27.1 7.5-38.6 16.7-5.1 4.1-9.5 9-16.8 18.8-3.9 5.2-11.5 16.1-11.5 16.6 0 0.2 0.1 0.2 18.1 1.3 7.6 0.4 14.3 0.9 14.9 1l1.3 0.1 0.1-0.9q0.1-0.2 0.2-0.5 0.1-0.3 0.2-0.5 0-0.3 0.2-0.5 0.1-0.3 0.2-0.5c0.3-0.6 1.2-2.7 1.9-4.6 1.9-4.8 3-6.8 8.2-14.4 6.6-9.7 9.9-14 14.2-18.4q1.8-1.7 3.6-3.3 1.9-1.6 3.8-3.2 1.9-1.5 3.9-3 2-1.4 4-2.8c1.3-1 2.5-1.8 2.6-1.9q-1.3-0.1-2.6-0.1-1.3 0-2.7-0.1-1.3 0-2.6 0.1-1.3 0-2.6 0.1z"/>
		<path class="s1" d="m673.4 708.1c-0.2 0-2.8 0.3-5.9 0.6-20.2 1.8-32.6 6-42.5 14.2-4.3 3.6-15 15.2-18.2 19.8-0.6 0.9-1.9 2.4-2.7 3.3q-0.2 0.2-0.5 0.5-0.2 0.2-0.4 0.5-0.2 0.3-0.3 0.6-0.2 0.3-0.3 0.6c0 1.5-2.2 2.3-3.4 1.3-0.4-0.4-0.7-0.4-4.6-0.1-8.5 0.6-13.2 0.8-22.2 1-11.5 0.3-17.6 0.9-32.3 2.7-3.8 0.5-5.8 0.9-5.4 1 0.4 0 2.7 0.3 5.4 0.4 2.6 0.2 9.5 0.5 15.2 0.9 5.8 0.3 20.7 1.1 33.1 1.7 12.5 0.7 23.7 1.3 24.8 1.4l2.1 0.1 0.5-1q0.1-0.1 0.2-0.3 0-0.2 0.1-0.4 0.1-0.2 0.1-0.3 0-0.2 0.1-0.4c0-0.9 1.2-3 2.8-5.1 5.5-7 15.6-17.7 20.3-21.5 11.1-8.9 23.7-16.7 33.2-20.7 1.8-0.8 2.1-1.1 0.8-0.8z"/>
		<path class="s1" d="m673.2 713.1c-7.7 3.4-16.5 8.7-26.1 15.9-8.1 6-12.1 9.9-20.4 19.4-4.2 4.9-5.6 6.9-6.2 8.7q-0.1 0.2-0.2 0.4-0.1 0.2-0.1 0.4-0.1 0.2-0.1 0.5-0.1 0.2-0.1 0.4c0 0.1 2 0.1 4.5 0.3 2.4 0.1 5.1 0.3 6 0.3l1.6 0.2 0.9-1.5c2.7-4.5 10.3-15.4 14.7-21.1 9.1-11.7 16-17.9 26.6-23.9q0.3-0.1 0.6-0.3 0.2-0.1 0.5-0.3 0.3-0.2 0.5-0.3 0.3-0.2 0.5-0.4c-0.1 0-1.6 0.6-3.2 1.3z"/>
		<path class="s1" d="m484 752.9c-6.7 0.6-13.3 1.7-26.6 4.2-21.4 4.2-25.5 4.7-50.1 6.2-24.2 1.4-29 2.1-54 7.3-15.5 3.3-23 4.7-30.6 5.8-4.4 0.6-10.6 1.2-12.6 1.2q-0.2-0.1-0.4 0-0.2 0-0.5 0-0.2 0-0.4 0.1-0.2 0-0.5 0.1c-0.4 0.3-0.2 12.4 0.3 12.7 0.7 0.5 5.1 0.6 10.5 0.3 6.2-0.4 6.3-0.3 7.1 1 0.4 0.6 0.5 1.4 0.6 4.2l0.1 3.5 1 0.3c2.1 0.6 8.5 0.8 15.6 0.5 8.2-0.3 18.2-0.8 24.4-1.3 7.5-0.6 16-1 33.3-1.8 24-1 33.3-1.6 43.1-2.6 3.4-0.4 7.3-0.6 15.1-0.7 5.9-0.2 11.4-0.4 12.5-0.5q1-0.2 2-0.4 1-0.2 2-0.4 1-0.2 2-0.5 1-0.3 1.9-0.6 0.4-0.1 0.8-0.2 0.4-0.1 0.8-0.1 0.4-0.1 0.8-0.1 0.4-0.1 0.8-0.1c6.2 0.3 35.6 1.3 39 1.4 2.5 0 5.5 0.1 6.8 0.2 1.3 0.1 9.5 0.4 18.1 0.6 8.7 0.3 19.4 0.6 23.9 0.8 4.5 0.1 19.3 0.3 33 0.4 13.7 0.1 27.8 0.4 31.4 0.5 15.4 0.6 32.3 1.3 53.3 2.2 46 1.9 56.3 2.2 74.9 2.2 22.1 0 23.6-0.2 24.5-3.7q0.2-0.6 0.3-1.3 0-0.6 0.1-1.3 0.1-0.6 0.2-1.3 0-0.6 0-1.2c0.4-4.6 0.6-5.5 2.4-8.6l1.3-2.3-0.5-1.1q-0.2-0.5-0.3-1.1-0.1-0.5-0.1-1.1-0.1-0.6 0-1.2 0.1-0.5 0.3-1.1l0.3-1-1.3-1q-0.3-0.3-0.6-0.5-0.3-0.3-0.6-0.5-0.3-0.3-0.6-0.6-0.3-0.2-0.6-0.5-0.4-0.5-0.9-0.8-0.4-0.3-1-0.4-0.6-0.2-1.1-0.2-0.6 0-1.1 0.2c-1 0.3-1.3 0.5-1.6 1q-0.1 0.2-0.2 0.3-0.1 0.2-0.2 0.3-0.1 0.2-0.3 0.3-0.1 0.1-0.2 0.2c-0.6 0.4-0.8 0.4-3.3-0.1-4.7-0.8-7-1.1-20.6-2.3-12.1-1.1-13.8-1.1-43.6-1.3-29.7-0.2-32.3-0.3-48.1-1.3-19.2-1.3-36.2-2.3-71-4.1-36.4-1.9-63.4-3.5-69.7-4q-2-0.2-4-0.5-2-0.2-4-0.6-1.9-0.3-3.9-0.7-2-0.4-3.9-0.9c-9.6-2-12.3-2.4-18.4-2.4-2.7 0-5.9 0.1-7.1 0.3z"/>
		<path class="s1" d="m351.6 755.9c-0.5 0-3.1 0.4-5.9 0.8q-1.3 0.3-2.7 0.4-1.3 0.2-2.6 0.3-1.4 0.1-2.7 0.1-1.4 0-2.7 0c-6.2 0.1-5.7 0-12.2 2.1-5.5 1.8-6 1.9-8.7 1l-2-0.6-0.4 0.5c-0.7 0.9-0.4 2.8 1 6.3q0.2 0.6 0.4 1.2 0.2 0.5 0.4 1.1 0.2 0.6 0.3 1.2 0.2 0.6 0.3 1.2l0.3 1.7 0.9-0.1c0.5-0.1 1.9-0.2 3.1-0.4 7.9-0.9 16.4-2.4 34-6.1 25.4-5.3 29.9-6 54.7-7.4 5.7-0.4 10.5-0.7 10.6-0.7q-0.2-0.1-0.4-0.1-0.2-0.1-0.5-0.1-0.2 0-0.4 0-0.2 0-0.4 0c-1.1 0-3.2-0.1-4.8-0.3-11.4-1.4-14.1-1.6-33.1-1.8-9.1-0.1-18.6-0.3-21.1-0.4-2.6 0-5 0-5.4 0.1z"/>
		<path class="s1" d="m814 765.9q0 0.3 0.1 0.7 0 0.3 0 0.6 0.1 0.4 0.1 0.7 0 0.3 0 0.7v1.4h5.6q1.3 0 2.6 0 1.2 0 2.5 0.1 1.3 0.1 2.5 0.2 1.3 0.1 2.6 0.2 2 0.3 4.1 0.4 2.1 0.1 4.2 0.2 2.1 0 4.1-0.1 2.1 0 4.2-0.2 5-0.2 9.9-0.4 5-0.1 9.9-0.1 5 0 10 0.1 4.9 0.2 9.9 0.4c14.5 0.7 18.1 1 22.9 2q0.6 0.1 1.2 0.2 0.6 0 1.2 0.1 0.6 0.1 1.2 0.1 0.6 0.1 1.2 0.1l2.4 0.1 0.2-2.1q0.1-0.3 0.1-0.6 0-0.3 0-0.6 0-0.3 0-0.5 0-0.3-0.1-0.6c-0.1-0.1-6.7-0.2-14.7-0.2-15 0-17.3-0.1-39.3-1.3-17.8-1-23.7-1.2-27-1.1q-2.7 0.1-5.3 0-2.7 0-5.4-0.3-2.7-0.2-5.3-0.5-2.7-0.4-5.3-0.8c-0.5-0.1-0.5-0.1-0.3 1.1z"/>
		<path class="s1" d="m816.2 774.2c0 0.3 4.4 1.3 10.7 2.4l5.2 1 1.4-0.7c1.2-0.6 1.6-0.6 4.7-0.7q0.9 0 1.8 0 0.9 0 1.9 0.1 0.9 0 1.8 0.1 0.9 0.1 1.8 0.2c4.9 0.6 8.8 0.6 20.4 0.2 23.1-1 33-0.7 46.3 1.3 2.5 0.4 4.7 0.7 4.7 0.6q0 0 0-0.1 0-0.1-0.1-0.2 0 0 0-0.1-0.1 0-0.1-0.1c-0.4-0.5-2-0.8-4.4-0.8q-0.4 0-0.8-0.1-0.4 0-0.7 0-0.4-0.1-0.8-0.1-0.4-0.1-0.7-0.2c-5.1-1.2-13.8-1.8-34.7-2.5-5.7-0.2-18 0-27.8 0.5q-2.3 0.1-4.6 0.2-2.3 0-4.6 0-2.3-0.1-4.6-0.2-2.3-0.2-4.6-0.4c-5.3-0.6-12.2-0.9-12.2-0.4z"/>
		<path class="s1" d="m817.6 779.2c0 0.1 0.3 1.1 0.5 2.1q0.5 2.1 0.9 4.3 0.4 2.1 0.7 4.2 0.4 2.1 0.6 4.3 0.3 2.1 0.5 4.2v2.5l1.8-1.3c1-0.7 2.3-1.7 2.9-2.1l1-0.9-0.1-1.4-0.2-1.3 1.6-2.3q0.5-0.8 1.1-1.6 0.5-0.9 0.9-1.8 0.5-0.8 0.8-1.8 0.4-0.9 0.7-1.8c0.4-1.3 0.7-2.4 0.7-2.5 0 0-1.7-0.5-7.7-1.6-3.2-0.6-6-1.2-6.3-1.3-0.2 0-0.4 0-0.4 0.1z"/>
		<path class="s1" d="m836.4 781.9q-0.3 1-0.6 2-0.3 1-0.6 2-0.3 0.9-0.7 1.9-0.4 1-0.9 1.9-0.2 0.4-0.4 0.9-0.3 0.5-0.5 0.9-0.3 0.4-0.5 0.9-0.3 0.4-0.6 0.9c-0.7 1.1-0.9 1.5-0.7 1.8 0.9 1.8-1.1 4.6-5.3 7.3q-0.1 0.1-0.2 0.2-0.1 0-0.3 0.1-0.1 0.1-0.2 0.2-0.1 0.1-0.3 0.2l10.8-0.2c18.1-0.3 42-0.3 47.4 0.1q1.9 0.1 3.8 0.2 1.9 0.1 3.8 0.1 1.9 0 3.8-0.1 1.9-0.1 3.7-0.3 1.1-0.1 2.2-0.2 1.1-0.1 2.1-0.1 1.1 0 2.2 0 1.1 0 2.2 0.1l2.4 0.2 1.3-0.9q0.8-0.5 1.7-1 0.8-0.4 1.7-0.8 0.8-0.4 1.7-0.8 0.9-0.3 1.8-0.6l1.9-0.7 0.2-1.1c0.3-1.9 1.1-3.1 3.5-5.1 3.1-2.5 4-3.5 4.4-5q0.1-0.3 0.2-0.6 0.2-0.3 0.3-0.6 0.2-0.3 0.4-0.6 0.2-0.3 0.5-0.5l1-1-4.9-0.1q-1.3 0-2.5-0.1-1.2-0.1-2.5-0.2-1.2-0.1-2.4-0.3-1.3-0.1-2.5-0.3c-6.8-1-11.3-1.6-15.5-2-5-0.5-22-0.4-33.1 0.1-11.8 0.5-16.3 0.5-21.1-0.1-2.1-0.2-4.8-0.5-6-0.5h-2.2z"/>
		<path fill-rule="evenodd" class="s1" d="m931.5 787.4q0.1-0.1 0.1-0.1 0.1-0.1 0.1-0.1 0.1 0 0.2-0.1 0.1 0.4 0.2 0.8 0.1 0.3 0.1 0.7 0.1 0.4 0.2 0.7 0 0.4 0 0.8c0.6 4.3 1.5 9 2.4 12.4 0.6 2.4 0.6 3 0.4 3.1q-0.1 0.1-0.3 0.2-0.1 0-0.2 0.1-0.2 0.1-0.3 0.2-0.1 0.2-0.2 0.3c-1.8 1.8 0.4 4.3 2.7 3q0.2-0.1 0.4-0.2 0.2 0 0.4-0.1 0.3 0 0.5-0.1 0.2 0 0.4 0 0.3 0 0.5 0 0.2 0 0.5-0.1 0.2 0 0.4-0.1 0.2-0.1 0.4-0.2c0.6-0.4 1.4-0.4 8.4-0.4 8.2 0 9.9 0.1 25.3 1.5 5.5 0.5 11.3 1 13 1.1q5.9 0.3 21-1.2c9.9-1 13-1.2 35-1.9 27.1-1 33.7-1.1 58.4-1.1l23.2-0.1 5 1q0.8 0.2 1.7 0.4 0.8 0.1 1.7 0.3 0.9 0.1 1.7 0.2 0.9 0.1 1.8 0.1h1.9l0.2 0.8q0.1 1 0.2 1.9 0 1 0.1 2 0 1 0 1.9 0 1-0.1 2c0 5.1 0.1 8.6 0.5 13.6q0.4 4.6 0.7 9.2 0.2 4.6 0.3 9.2 0.1 4.7 0.1 9.3-0.1 4.6-0.3 9.2c-0.3 10.5-0.1 21.7 0.6 44.4 0.5 15.6 0.9 37.2 0.7 38.9-0.1 0.7-0.3 2.6-0.5 4.3l-0.4 3.1-4.2 1.7c-22.2 8.7-47.8 15.5-82.6 22.1-9.7 1.8-18.9 3.4-38.4 6.7-34.8 5.9-47 8.2-78.7 15.4l-11 2.4-5.7 0.2c-5.7 0.2-6.5 0.3-9.7 1.3l-0.5 0.2v-5.3q-0.1-1.6-0.1-3.3 0-1.6 0.1-3.3 0-1.6 0.1-3.3 0.1-1.6 0.3-3.2c0.7-5.5 0.7-15.3 0.2-28-0.4-7.7-0.6-17-0.7-28.2 0-9.3-0.2-22.7-0.4-29.8-0.3-15.1-0.1-50.2 0.3-56.6q0.1-2.2 0.2-4.3 0.1-2.2 0.1-4.3-0.1-2.2-0.1-4.3-0.1-2.2-0.3-4.3c-1.1-15.4-0.5-22.6 1.8-22.6q0.3 0 0.6-0.2 0.3-0.1 0.5-0.3 0.2-0.3 0.4-0.5 0.1-0.3 0.2-0.6c0-1 0.7-1.4 5.1-3q0.5-0.2 1-0.4 0.5-0.2 1-0.4 0.5-0.2 1-0.4 0.5-0.3 1-0.5 0.3-0.3 0.6-0.6 0.3-0.3 0.5-0.7 0.2-0.4 0.2-0.9 0.1-0.4 0.1-0.8c0-1.5 0.1-1.6 3.8-4.7q0.7-0.4 1.2-1 0.5-0.5 1-1.1 0.5-0.6 0.8-1.3 0.4-0.7 0.7-1.4 0-0.1 0.1-0.3 0-0.2 0.1-0.3 0-0.2 0.1-0.3 0.1-0.2 0.2-0.3 0-0.1 0-0.1zm116.5 37.3l-3.2 0.1c-5.9 0.2-10.9 0.9-12.1 1.7-1.6 1-1.8 3.2-0.8 7.2q0.2 0.6 0.3 1.4 0.1 0.7 0.2 1.4 0 0.7 0 1.4 0 0.8-0.1 1.5c-0.1 3.8 0.1 4.7 1.2 5.5 0.9 0.7 2.9 0.6 5.1-0.1 1.6-0.6 1.7-0.6 10-0.6 8.4 0 8.5 0 10.7-0.7 4.2-1.1 5.8-2.2 6.7-4.9 0.9-2.3 1-2.6 2.3-3 3.4-1.1 4-2.8 2.5-6.1-1-2-2.1-3.1-3.8-3.4q-1.5-0.3-3.1-0.5-1.5-0.2-3-0.4-1.6-0.1-3.1-0.2-1.6-0.1-3.1-0.2c-3.1-0.1-6.1-0.2-6.7-0.1zm-83.3 3.7c-8.8 0.2-12.3 0.5-14.5 1.2-2.2 0.7-2.7 1-3.1 1.7q-0.1 0.1-0.1 0.1 0 0.1-0.1 0.2 0 0.1 0 0.2 0 0 0 0.1-0.1 0.4 0 0.8 0.1 0.4 0.4 0.7 0.2 0.3 0.5 0.5 0.4 0.2 0.8 0.3c0.9 0 1 0.7 1 6.6-0.1 4.9 0 5.6 0.4 6.4 1.4 3.2 3.6 3.7 9.6 2.3 3-0.6 3.3-0.7 11.4-0.8 16.5-0.2 20.4-1.3 20.4-6q0-0.2 0-0.4 0-0.2 0-0.4 0-0.2 0.1-0.4 0-0.2 0-0.4 0.3-0.3 0.5-0.5 0.3-0.1 0.5-0.3 0.3-0.2 0.5-0.3 0.3-0.2 0.6-0.3c2.5-1.3 3.1-2.1 3.1-4.1q0-0.3 0-0.6-0.1-0.3-0.1-0.7-0.1-0.3-0.2-0.6-0.1-0.3-0.2-0.6c-1-2.1-3.5-3.8-6.9-4.5-1.8-0.4-11.5-0.5-24.6-0.2zm104 23.2l-13.3-0.1c-7.3 0-13.3 0-13.4 0q-0.5 0.1-1.1 0.2-0.6 0-1.2 0.1-0.5 0-1.1 0.1-0.6 0-1.1 0c-5.4 0.3-6.6 0.6-7.3 2.1-0.5 0.9-0.5 1.3-0.4 8.1 0.1 13.4 0.1 15.2-0.2 26-0.4 10.8-0.2 22.5 0.4 30.7 0.7 8.1 0.8 10.3 0.8 16 0 3.5 0.1 8.1 0.3 10.3q0.1 1.4 0.2 2.8 0 1.4 0 2.8-0.1 1.4-0.2 2.9-0.1 1.4-0.2 2.8c-0.2 1.3-0.1 1.4 0.5 2.1l0.2 0.2q0.2 0.2 0.6 0.4 0.3 0.1 0.7 0.1 0.4 0 0.7-0.1 0.3-0.2 0.6-0.4c0.5-0.6 0.8-0.6 3.2-0.6q2.4-0.1 4.9-0.4 2.5-0.2 4.9-0.6 2.4-0.3 4.9-0.8 2.4-0.4 4.8-1 0.7-0.1 1.4-0.3 0.7-0.1 1.4-0.3 0.7-0.1 1.4-0.2 0.7-0.1 1.5-0.2 0.5 0 1-0.1 0.5-0.1 1-0.2 0.6-0.1 1.1-0.2 0.5-0.1 1-0.2c1.2-0.3 1.3-0.3 1.9 0.3v0.1q0.4 0.2 0.7 0.4 0.4 0.1 0.8 0.1 0.5-0.1 0.8-0.2 0.4-0.2 0.7-0.5l0.6-0.7v-3.7c-0.1-2.1-0.4-5.7-0.7-8.2-0.4-4-0.5-5.1-0.4-13.3 0.2-19.8 0.1-25.5-0.5-33.3-0.4-5.8-0.6-9.8-0.6-17.6 0-5.5-0.2-11.9-0.4-14.1q0-0.9-0.1-1.8 0-0.9 0-1.8 0-0.8 0-1.7 0-0.9 0-1.8c0.1-2.7 0.1-3-0.3-3.6zm-72.5 5q-0.2-0.1-0.4-0.2-0.2-0.1-0.4-0.2-0.2 0-0.4-0.1-0.2 0-0.4 0c-0.4 0-3.5 0.1-6.8 0.2q-1.1 0-2.2 0-1.1 0.1-2.2 0.2-1.1 0-2.2 0.2-1.1 0.1-2.2 0.2c-4.6 0.9-7.3 1.1-14.9 1.2-4.4 0.1-8.4 0.3-10.2 0.5q-0.6 0.1-1.2 0.1-0.6 0.1-1.2 0.1-0.5 0.1-1.1 0.1-0.6 0-1.2-0.1c-1.7-0.1-2.8 0.2-3.1 1q-0.1 0.3-0.2 0.6 0 0.3 0.1 0.6 0 0.3 0.2 0.6 0.1 0.3 0.3 0.5c0.5 0.5 0.6 0.8 0.6 3.4 0 1.6 0.1 4.7 0.2 7 0.4 5 0.4 19 0.1 41.2-0.1 9.1-0.3 26.7-0.4 39 0 15.2-0.1 22.7-0.3 23q-0.2 0.3-0.2 0.6-0.1 0.3 0 0.7 0.1 0.3 0.2 0.5 0.2 0.3 0.5 0.5 0.1 0.2 0.3 0.3 0.2 0.2 0.5 0.3 0.2 0.1 0.5 0.1 0.2 0 0.5-0.1 0.2-0.1 0.5-0.1 0.2-0.1 0.5-0.2 0.2-0.1 0.5-0.2 0.2-0.1 0.5-0.2c3.7-1.9 17.5-4.4 29.9-5.4q1.2-0.1 2.4-0.2 1.2-0.2 2.4-0.4 1.1-0.2 2.3-0.5 1.2-0.2 2.4-0.6c3-0.7 3.8-0.8 5-0.7 1.2 0.2 1.6 0.1 2.1-0.2 1-0.6 1.1-1.2 0.6-4.5-0.4-2.4-0.6-5-0.7-13.4-0.1-5.7-0.3-10.9-0.4-11.4-0.4-2.7-0.7-11.7-0.8-29.3-0.2-10.7-0.4-20.9-0.5-22.8-0.6-8.7-0.6-9.8 0.1-14.3 0.4-2.6 0.7-6 0.8-9.1q0-0.8 0.1-1.5 0-0.7 0.1-1.4 0-0.8 0.1-1.5 0.1-0.7 0.2-1.4 0.2-0.4 0.2-0.8 0-0.4-0.1-0.7-0.1-0.4-0.4-0.7-0.2-0.3-0.6-0.5z"/>
		<path class="s1" d="m1043.5 828.9c-4.7 0.2-7.9 0.7-8.1 1.1q0 0.4 0.1 0.7 0 0.4 0.1 0.8 0.1 0.3 0.1 0.7 0.1 0.4 0.2 0.7 0.2 0.7 0.4 1.4 0.1 0.6 0.2 1.3 0 0.7 0 1.4 0 0.7 0 1.3-0.1 0.4-0.1 0.7 0 0.4 0 0.7 0 0.4 0 0.8 0 0.3 0 0.7l1.5-0.6c1.3-0.4 1.8-0.5 10-0.5h8.7l2.1-0.7c2.8-0.8 3.1-1 3.5-2.3 0.8-2.7 2-4.2 3.9-5l1.1-0.5-0.3-0.7c-0.5-0.8-1.3-1-5.2-1.5-2.1-0.2-11.9-0.7-13.4-0.6-0.5 0-2.6 0-4.8 0.1z"/>
		<path class="s1" d="m964.6 832.5c-9.2 0.3-11.3 0.5-11.1 1 0.1 0.2 0.1 3 0.1 6.2q0 0.8 0 1.6 0 0.7 0 1.5 0 0.8 0.1 1.5 0 0.8 0.1 1.6c0.3 0.5 1.5 0.4 5-0.4 3.1-0.7 3.4-0.7 9.2-0.7 8.7 0 15-0.5 18-1.4l1.2-0.3v-1.2c0-2.6 1-4.1 3.7-5.4q0.2-0.1 0.4-0.3 0.3-0.1 0.5-0.2 0.2-0.2 0.4-0.3 0.1-0.2 0.3-0.4c0-0.7-1.2-1.8-2.7-2.3-1.5-0.5-1.8-0.6-9.5-0.6-4.4 0-11.4 0-15.7 0.1z"/>
		<path class="s1" d="m1042.3 855.7q-0.6 0-1.1 0.1-0.5 0.1-1 0.1-0.5 0-1.1 0.1-0.5 0-1 0c-3.1 0.1-4.1 0.3-4.2 0.5-0.2 0.3-0.2 2.4-0.1 6.4 0.3 8.8 0.3 14-0.1 25.5q-0.2 3.8-0.2 7.6 0 3.7 0 7.5 0.1 3.7 0.2 7.5 0.2 3.8 0.4 7.5c0.6 7.5 0.7 10.3 0.7 16.1 0 3.5 0.2 8.1 0.4 10.4 0.1 2.2 0.2 5.1 0.2 6.4-0.1 1.9-0.1 2.4 0.2 2.6 0.5 0.3 2.4 0.2 5.2-0.2l7-1c2.5-0.3 6-1 7.8-1.4q0.7-0.2 1.4-0.4 0.7-0.1 1.4-0.2 0.7-0.2 1.4-0.3 0.7-0.1 1.4-0.2c1.5-0.2 3-0.4 4.5-0.7l2.2-0.5v-1.7c0-0.8 0-2.1-0.1-2.7-0.2-1-0.2-1.1-0.6-0.8q-0.1 0.1-0.2 0.2-0.1 0.1-0.3 0.2-0.1 0-0.2 0.1-0.1 0.1-0.3 0.1c-1.4 0.6-14.6 3.2-19.6 3.9q-0.7 0.1-1.4 0.2-0.7 0.1-1.4 0.2-0.7 0.2-1.4 0.3-0.7 0.1-1.3 0.3-0.7 0.2-1.3 0.1-0.7-0.1-1.1-0.6-0.5-0.5-0.6-1.1-0.1-0.7 0.1-1.3c0.2-0.4 0.2-1-0.1-2.5-0.3-1.6-0.4-2.1-0.1-2.8 0.3-0.8 0.2-1.9 0-5.6-0.2-2.5-0.4-6.1-0.5-8-0.1-3-0.1-3.3-0.7-3.8q-0.2-0.3-0.4-0.7-0.1-0.4-0.1-0.8 0-0.4 0.1-0.7 0.2-0.4 0.4-0.7c0.6-0.6 0.6-0.7 0.4-7-0.1-3.5-0.2-13.9-0.3-23.1-0.1-14.3-0.2-17.3-0.6-21.2-0.6-6.2-0.6-6.8 0.2-7.5q0.2-0.2 0.3-0.3 0.2-0.1 0.4-0.2 0.3-0.1 0.5-0.1 0.2 0.1 0.4 0.1 1.4 0.2 2.9 0.3 1.4 0.1 2.8 0.2 1.4 0 2.9 0.1 1.4 0 2.8 0l8.7-0.3 5.8-0.2q0.2 0 0.3 0 0.1 0 0.2 0 0.2 0 0.3 0.1 0.1 0 0.2 0c0.5 0.2 0.5 0.1 0.5-3l-0.1-3.1-11.5-0.1c-6.3-0.1-11.6 0-11.6 0.1z"/>
		<path class="s1" d="m1057 866q-0.2 0-0.4 0.1-0.2 0-0.5 0-0.2 0.1-0.4 0.1-0.2 0.1-0.4 0.2c-0.1 0.1-0.3 4.4-0.4 10.3-0.1 5.6-0.3 13.3-0.4 17.1-0.2 10.2-0.1 25.9 0.2 27.7q0.1 0.3 0.1 0.6 0.1 0.3 0.1 0.6 0.1 0.3 0.1 0.6 0 0.3 0 0.6v5c0 2.2 0 5 0.1 6l0.2 2 1.6 0.1c0.8 0.1 2.8 0.4 4.3 0.7q0.3 0.1 0.7 0.2 0.3 0 0.7 0.1 0.3 0 0.7 0.1 0.3 0 0.7 0 0-0.8 0-1.5 0-0.8-0.1-1.6 0-0.8 0-1.5-0.1-0.8-0.2-1.6c-0.2-3.4-0.3-7.7-0.3-9.6 0-1.9-0.2-5.7-0.5-8.5-0.4-4.4-0.5-6.5-0.4-17.2 0-10.2 0-12.6-0.4-15.2q-0.1-1.2-0.2-2.3-0.1-1.2-0.1-2.4-0.1-1.1-0.1-2.3 0-1.2 0-2.3v-6.2h-1.6c-0.9 0.1-2.3 0.1-3.1 0.1z"/>
		<path class="s1" d="m1040.1 866.6c0 0.2 0.2 1.9 0.4 3.8 0.2 1.8 0.4 4.8 0.4 6.6v3.4l2-0.2c1-0.1 3.3-0.2 5-0.2h3l0.1-6.7c0-3.8 0-6.8 0-6.8 0-0.1-2.4-0.1-5.4-0.2-5.3-0.2-5.5-0.2-5.5 0.3z"/>
		<path class="s1" d="m1065.9 869.6c0 0.5 0 0.7 0.1 0.4q0-0.1 0-0.2 0-0.2 0-0.3 0-0.1 0-0.2 0-0.2 0-0.3c-0.1-0.2-0.2 0.1-0.1 0.6z"/>
		<path class="s1" d="m1047 887c-1.1 0.1-2.9 0.3-4 0.5l-2.1 0.3v10.8l1.3-0.1c3.1-0.4 8.2-1 8.2-1 0-0.1 0.1-2.5 0.2-5.4l0.1-5.4-0.9 0.1c-0.5 0-1.8 0.1-2.8 0.2z"/>
		<path class="s1" d="m1066.6 903.2c0 3.6 0.1 7.1 0.3 8.8 0.3 2.6 0.3 2.4 0.2-4.2-0.2-9.6-0.5-12.4-0.5-4.6z"/>
		<path class="s1" d="m1046.5 905c-1.9 0.2-3.8 0.5-4.3 0.6l-1 0.2v2.3c0 1.2 0 4.3 0 6.8v4.7l1.9-0.3c1-0.2 2.9-0.5 4.3-0.6q0.3 0 0.6-0.1 0.4 0 0.7-0.1 0.3 0 0.7-0.1 0.3-0.1 0.6-0.2c0.3-0.2 0.2-13.7-0.1-13.7z"/>
		<path class="s1" d="m1049.7 922.7q0 0 0.1 0 0 0.1 0.1 0.1 0.1 0 0.1-0.1 0.1 0 0.1 0c0.1-0.1 0-0.1-0.3-0.1-0.2 0-0.3 0-0.1 0.1z"/>
		<path class="s1" d="m1042.5 926.8l-0.8 0.2 0.1 2.5c0 1.4 0.1 3.8 0.3 5.3 0.1 1.5 0.2 3.1 0.2 3.5v0.8l1.6-0.1q0.9-0.2 1.8-0.3 0.9-0.2 1.8-0.3 0.9-0.2 1.8-0.4 0.9-0.2 1.8-0.4c0.5-0.2 0-2.5-0.1-5.4l-0.1-5.3-1.6-0.2q-0.9 0-1.7 0-0.9-0.1-1.7-0.1-0.9 0-1.7 0.1-0.8 0-1.7 0.1z"/>
		<path class="s1" d="m1055.9 941.1q-0.3 0.1-0.6 0.2-0.2 0-0.5 0.1-0.3 0-0.6 0.1-0.3 0-0.6 0-0.6 0.1-1.2 0.1-0.6 0.1-1.2 0.2-0.6 0.1-1.1 0.2-0.6 0.2-1.2 0.3c-1.5 0.3-3.4 0.6-4.2 0.7q-0.3 0.1-0.5 0.1-0.3 0-0.5 0.1-0.3 0-0.5 0.1-0.3 0-0.5 0.1c-0.5 0.3-0.6 1.4-0.1 1.4 1.8 0 17.2-2.8 17.2-3.1 0-0.1-0.5-0.2-1.2-0.3-0.6-0.1-1.4-0.2-1.8-0.3q-0.1 0-0.2 0-0.2-0.1-0.3 0-0.1 0-0.2 0-0.1 0-0.2 0z"/>
		<path class="s1" d="m983.4 860.5c-0.4 0.1-2.1 0.3-3.8 0.6-5 0.7-8.1 1-16.5 1.2-4.4 0.1-8.8 0.3-9.8 0.5l-1.6 0.2-0.4 1c-0.2 0.9-0.2 1.8 0 4.9 0.5 5 0.5 26.7 0 66.6-0.1 16.8-0.2 32.2-0.1 34.2l0.2 3.6 2.4-0.7q1.7-0.4 3.3-0.8 1.7-0.4 3.4-0.7 1.7-0.4 3.4-0.7 1.7-0.2 3.4-0.5c3.7-0.5 6.1-0.8 14.1-1.6q0.7 0 1.3-0.1 0.7-0.1 1.3-0.2 0.7-0.1 1.3-0.2 0.7-0.2 1.3-0.3c1.4-0.3 3.6-0.8 4.9-1.1 1.3-0.3 2.4-0.6 2.5-0.6 0 0-0.2-1.2-0.3-2.8-0.2-1.5-0.4-2.8-0.4-3 0-0.1-0.2 0-0.6 0.3q-0.1 0.2-0.2 0.2-0.1 0.1-0.2 0.2-0.2 0.1-0.3 0.2-0.1 0-0.3 0.1c-6.7 0.2-8.2 0.4-15.4 2.6q-1.4 0.5-2.7 0.8-1.4 0.4-2.8 0.8-1.4 0.3-2.8 0.5-1.4 0.3-2.8 0.5-0.6 0.1-1.3 0.2-0.6 0.1-1.3 0.2-0.6 0.2-1.3 0.3-0.6 0.1-1.3 0.3-0.3 0.1-0.6 0.2-0.3 0-0.6 0.1-0.3 0.1-0.7 0.1-0.3 0.1-0.6 0.1-0.4-0.1-0.7-0.3-0.3-0.2-0.5-0.4-0.3-0.3-0.4-0.6-0.2-0.3-0.2-0.7 0-0.4 0.2-0.7 0.2-0.4 0.4-0.7 0.3-0.2 0.6-0.4 0.4-0.2 0.8-0.3c1.1-0.3 1.3-0.6 1.3-1.5 0-0.7-0.6-2.1-1-2.1-0.1 0-0.4-0.3-0.6-0.7-0.3-0.6-0.3-1-0.1-2.4q0.1-0.5 0.1-0.9 0.1-0.4 0.1-0.8 0-0.5-0.1-0.9 0-0.4-0.1-0.8c-0.3-2-0.7-9.7-0.7-14.5-0.1-11.5 0.3-56.3 0.5-57.4q0-0.4 0.1-0.8 0-0.4 0-0.8 0.1-0.4 0.1-0.8 0-0.4 0-0.8c0-1.5-0.1-1.9-0.5-2.2q-0.2-0.3-0.3-0.6-0.1-0.2-0.1-0.6-0.1-0.3 0-0.6 0-0.3 0.2-0.5c0.6-1.2 5.1-2.7 9.7-3.1 1.5-0.2 5-0.4 7.9-0.5q1.7 0 3.4-0.1 1.7-0.1 3.4-0.3 1.7-0.2 3.4-0.4 1.7-0.3 3.4-0.6 0.4-0.1 0.9-0.2 0.5 0 1-0.1 0.5-0.1 1-0.1 0.5 0 1 0c0.4 0 0.7 0 0.8-0.2 0-0.2 0.1-2 0.1-4.1l0.1-3.8h-4.3c-2.4 0-4.6 0.1-5 0.1z"/>
		<path class="s1" d="m985.3 873.5q-0.4 0-0.8 0.1-0.3 0-0.7 0.1-0.4 0-0.8 0-0.3 0.1-0.7 0.1-0.2 0-0.3 0-0.2 0-0.4 0-0.1 0.1-0.3 0.1-0.1 0-0.3 0.1c-0.5 0.8-0.6 3.8-0.4 7.7 0.1 2.5 0.1 11 0 21-0.2 21.6 0.2 45 0.9 49.4 0.1 0.8 0.2 0.9 1.7 1.3 1.9 0.4 6.2 1.3 6.2 1.2 0 0-0.2-2-0.4-4.3-0.6-5.7-0.9-22.7-1-53.8 0-21.3-0.1-23.4-0.4-23.4z"/>
		<path class="s1" d="m969.2 874.5q-0.9 0.1-1.9 0.2-0.9 0.1-1.8 0.2-0.9 0.2-1.8 0.4-0.9 0.2-1.8 0.4c-0.3 0.2-0.4 1-0.5 3-0.1 1.6-0.3 4.5-0.5 6.4-0.2 2.6-0.2 3.6 0 3.8 0.3 0.2 1.8 0.1 6.1-0.5l7.4-1c2.6-0.3 2.5-0.1 2.3-3.3-0.2-1.6-0.2-4.4-0.2-6.4v-3.5h-2.3c-1.3 0.1-3.5 0.2-5 0.3z"/>
		<path class="s1" d="m973.6 894.6c-0.7 0.1-10 1.5-11.3 1.6l-1.4 0.2v6.1q0 0.8 0 1.5 0 0.8 0 1.6 0 0.7 0.1 1.5 0.1 0.7 0.1 1.5c0.2 0 1-0.2 1.9-0.4 0.9-0.2 3.2-0.4 5-0.6q1 0 2.1-0.1 1-0.1 2-0.3 1-0.1 2-0.3 1-0.2 2-0.4c0.4-0.1 0.4-0.6 0.4-6.1v-6h-1.3q-0.2 0-0.4 0-0.2 0.1-0.4 0.1-0.2 0-0.4 0-0.2 0-0.4 0.1z"/>
		<path class="s1" d="m975.3 914.7c-0.1 0.1-2.7 0.3-5.8 0.4-5.7 0.2-7.8 0.4-8.3 0.7-0.3 0.1-0.7 18-0.4 18 0.7 0 7.7-1.4 11.4-2.3l4.3-1v-8c0-7.9 0-8-0.5-8q-0.1 0-0.2 0.1-0.1 0-0.2 0-0.1 0-0.2 0.1-0.1 0-0.1 0z"/>
		<path class="s1" d="m992.5 939.2c0.1 3.5 0.3 7.8 0.4 9.4l0.3 2.8v-2.2c0-1.3-0.1-4.1-0.2-6.3-0.1-2.2-0.3-5.4-0.5-7.1 0-2.3-0.1-1.5 0 3.4z"/>
		<path class="s1" d="m974.5 938q-1.3 0.4-2.5 0.7-1.3 0.3-2.5 0.6-1.3 0.3-2.6 0.5-1.2 0.3-2.5 0.5-0.5 0-0.9 0.1-0.4 0.1-0.9 0.2-0.4 0.1-0.8 0.2-0.5 0.1-0.9 0.2c-0.3 0.2 0.1 8.8 0.5 12.2l0.3 2 0.8-0.2c0.4-0.1 2.6-0.4 5-0.7 3.9-0.6 9.4-1.5 9.7-1.7q0-0.4 0-0.9 0-0.4 0-0.8 0-0.4-0.1-0.9 0-0.4-0.1-0.8c-0.1-1.8-0.3-5.2-0.3-7.6q0.1-0.5 0.1-1 0-0.6-0.1-1.1 0-0.5 0-1.1-0.1-0.5-0.2-1z"/>
		<path class="s1" d="m976.3 957.1c-1.2 0.2-4.2 0.7-6.7 1.1-6.3 0.8-7 1-6.9 1.5q0.1 0.2 0.2 0.3 0 0.2 0.1 0.4 0 0.2 0.1 0.4 0 0.2 0.1 0.4c0.2 1 0.3 1 1 1q1.3-0.2 2.6-0.5 1.2-0.2 2.5-0.5 1.3-0.3 2.5-0.6 1.3-0.4 2.5-0.8c2.4-0.7 4.7-1.4 5.3-1.5l2-0.5 1-0.3-1.5-0.4c-1.9-0.6-2.2-0.6-4.8 0z"/>
		<path class="s1" d="m479.4 795.9c-1.6 0.5-3.7 1-4.6 1.2q-1.5 0.2-3.1 0.4-1.6 0.2-3.1 0.3-1.6 0.1-3.1 0.1-1.6 0.1-3.2 0.1h-3.8l0.2 4.6c0.1 2.5 0.4 8 0.7 12 1 12 1 14.1 0.2 30.4-1.5 28.4-1.7 36.7-1.7 54.5q-0.1 5.8 0 11.6 0.1 5.9 0.4 11.7 0.2 5.9 0.6 11.7 0.4 5.8 1 11.6c1.8 21.6 2.1 28.1 2 39-0.1 4.5-0.3 9.4-0.4 11-0.7 8.4-0.8 13.5-0.9 41-0.1 27-0.1 29.3-0.6 33.8-0.7 6.9-0.9 9.5-1 14l-0.1 4 4.2 2c2.4 1.2 5.4 2.7 6.8 3.3q0.4 0.2 0.8 0.4 0.4 0.2 0.8 0.4 0.4 0.2 0.7 0.5 0.4 0.3 0.8 0.6 0.2 0.3 0.3 0.6 0.2 0.4 0.2 0.8 0 0.4-0.1 0.8-0.1 0.3-0.3 0.7c-0.4 0.3-0.5 0.9-0.5 2.8v2.4l-1.4 2.2q-0.3 0.2-0.5 0.5-0.2 0.3-0.3 0.6-0.2 0.3-0.4 0.6-0.2 0.3-0.4 0.6c0 0.2 2.9 1.2 9 2.8 2.9 0.8 5.4 1.5 5.5 1.6 0.2 0.1 0.2-17.5-0.3-46.7-0.7-50.3-0.8-84.3-0.2-96.2 1.1-22 0.8-111.7-0.5-163.5-0.2-9.3-0.4-11.7-0.7-11.7z"/>
		<path class="s1" d="m486.8 795.3c0 0.1 0 2.1 0.1 4.6 1.5 35.5 1.9 148.8 0.7 170.9-0.6 12-0.5 40.2 0.4 104.4 0.2 13.4 0.4 27.7 0.4 31.9v7.6l1.9 0.8c2.5 1 4.5 2.3 4.9 3.1q0.1 0.2 0.1 0.4 0.1 0.2 0.2 0.4 0 0.2 0 0.4 0.1 0.2 0.1 0.4c0 0.4 0 0.8 0.1 0.8 0.1 0 1.7-0.3 3.7-0.6 2.9-0.5 4.9-0.6 11.6-0.8 12.5-0.4 17.7-0.9 23.4-2.2 6-1.4 12.2-1.8 14.5-1 1.4 0.5 2.6 1.7 2.6 2.7 0 0.9-1.1 2.2-1.8 2.2-0.4 0-0.4 0.1-0.3 0.6q0.3 1 0.5 1.9 0.1 0.9 0.3 1.9 0.1 0.9 0.2 1.8 0.1 1 0.1 1.9c0.3 4.3 0.4 5 1 5 1 0 8-1.3 11.1-2 4.5-1.1 7-1.8 16-4.7 19.8-6.2 32.9-9.8 62.6-17.5 22.4-5.7 26.8-6.7 50.8-11.1 27.6-5.1 32.3-6.3 58.4-14.2 11.4-3.5 21-6.3 25.4-7.4q1.3-0.4 2.7-0.6 1.4-0.3 2.8-0.5 1.3-0.2 2.7-0.3 1.4-0.2 2.8-0.2 1.6-0.1 3.1-0.2 1.6-0.2 3.1-0.4 1.5-0.2 3.1-0.5 1.5-0.3 3-0.7c6-1.5 9.3-2.2 14.4-3q1.2-0.2 2.5-0.4 1.2-0.3 2.4-0.5 1.2-0.3 2.4-0.5 1.2-0.3 2.4-0.6c0.4-0.2 0.5-0.4 0.4-0.8q-0.1-0.6-0.2-1.1 0-0.5-0.1-1.1 0-0.5-0.1-1.1 0-0.5 0-1.1 0-0.8-0.1-1.5-0.1-0.8-0.2-1.6 0-0.8-0.1-1.6-0.1-0.7-0.3-1.5-0.4-2.7-0.8-5.4-0.3-2.7-0.5-5.4-0.2-2.7-0.3-5.4-0.1-2.7-0.1-5.4c0.1-3.1 0-3.3-0.4-3.3-0.4 0-8.7 1.4-14.6 2.6-2.4 0.4-5.6 1.2-7.1 1.6-12.8 4-26 7-44 10-11.6 2-12.2 2.1-35.8 10.2-10.2 3.5-14.8 4.5-36.6 7.7-7.6 1.2-11 1.8-24.3 4.8-34.2 7.8-47.6 10.2-66.9 11.9-9.4 0.8-13.1 1.5-28.8 4.9-12 2.7-14.1 3.1-24.3 4.8-9.2 1.6-12.8 2-15.2 2-2.3 0-3-0.5-3.2-2.4-0.5-3.6-0.2-33.5 1.6-160.3 1-69.7 1.3-98.1 1.4-118.7v-15.4l-1.7-0.2c-2.9-0.1-34-1.1-34.1-1z"/>
		<path class="s1" d="m449.6 798.2c-1.1 0.1-4.3 0.4-7.2 0.7-10.1 1-20.5 1.6-40.8 2.4-16.7 0.7-41.9 2.2-43.9 2.6-0.5 0-0.6 0.3-0.7 1.8-0.1 1-0.8 8.3-1.5 16.3-0.7 7.9-1.5 16.7-1.7 19.4-0.3 4.5-0.4 13.5-0.5 97.5 0 57.8-0.1 92.8-0.3 93-0.1 0.3 0.1 0.6 1.3 1.4 8.4 5.3 15.4 9 48.7 25.4 19.1 9.3 30.9 15.3 34.7 17.7 1.4 0.8 4.9 3 7.7 4.8 6.6 4.1 9.2 5.7 9.3 5.6q0.1-0.6 0.2-1.2 0-0.5 0.1-1.1 0-0.6 0-1.2 0-0.6 0-1.1c0.1-2.5 0.5-7.2 0.8-10.4l0.6-5.9v-24.7c0-25.2 0.2-33.4 0.9-43.8 0.6-7.2 0.6-23.8 0.1-30.6-0.1-2.5-0.7-10.3-1.3-17.3-2-24-2.1-25.5-2.2-45-0.2-20.8 0.1-30.5 1.7-62.2 0.7-13.5 0.7-15.8-0.3-27.4-0.3-4-0.6-9.4-0.7-12.1l-0.1-4.8h-1.5c-0.8 0-2.3 0.1-3.4 0.2z"/>
		<path class="s1" d="m349.5 804.2c-1.8 0.1-4.8 0.2-6.5 0.2-3.7 0-3.5-0.1-3.8 2.6q0 0.5-0.1 1-0.1 0.5-0.2 1-0.1 0.5-0.3 1-0.1 0.5-0.2 1c-2.9 10.9-2.7 10.2-2.6 12.6q0.1 1 0.2 2 0.2 0.9 0.3 1.9 0.2 1 0.4 1.9 0.1 1 0.3 1.9c2.2 10.5 2.3 13.2 1.1 21.4q-0.2 1.4-0.4 2.8-0.2 1.4-0.2 2.8-0.1 1.4-0.1 2.8 0 1.5 0.1 2.9c0.1 5.4 0.7 15.3 1.6 29 0.4 5.8 0.4 28.1 0 37.4-0.1 3.9-0.3 8.8-0.4 10.9-0.1 2.1-0.1 4.5-0.2 5.2-0.1 0.7-0.3 5.7-0.6 11-0.3 5.3-0.8 15.1-1.2 21.6q-0.3 3.7-0.4 7.4-0.2 3.7-0.3 7.4 0 3.7 0 7.4 0.1 3.7 0.2 7.3c0.1 3 0.3 6.8 0.4 8.4 0.1 3 0.1 3 0.8 3.8q0.2 0.1 0.4 0.3 0.1 0.2 0.2 0.4 0.1 0.2 0.1 0.5 0 0.2 0 0.4l-0.1 0.9 3.6 2.1c2 1.1 4.5 2.6 5.6 3.3l2 1.2 0.1-45v-91.8c0-52.8-0.3-44.9 2.1-71.7 0.8-7.9 1.4-15.1 1.5-15.9q0.1-0.2 0.1-0.4 0-0.2 0-0.4 0-0.2 0-0.3 0-0.2 0-0.4c-0.1 0-1.6 0.1-3.5 0.2z"/>
		<path class="s1" d="m850.5 806.8c-1.2 0-7.9 0.1-14.8 0.2-6.9 0.1-12.6 0.3-12.7 0.4q-0.1 0.4-0.1 0.7-0.1 0.4-0.1 0.8-0.1 0.4-0.1 0.8-0.1 0.4-0.1 0.8c-0.2 2.5-0.2 4 0.2 9.1 0.4 5.5 0.5 8.8 0.5 33.6 0 16.6 0.1 30.6 0.3 35.6 0.7 19.6 1 29 1.6 43.2 1.3 33.9 1.5 40.6 1.7 54.5 0.2 12.5 0.1 15.3-1 30.2-0.3 4.6-0.6 9.8-0.7 11.4 0 1.7-0.1 4.8-0.2 7.1q-0.1 2.8-0.1 5.7 0.1 2.8 0.3 5.6 0.2 2.8 0.6 5.6 0.4 2.9 0.9 5.6 0.1 0.8 0.2 1.5 0.1 0.7 0.2 1.5 0.1 0.7 0.1 1.5 0.1 0.7 0.1 1.4c0 2 0.1 2.9 0.3 3q0.2 0.1 0.4 0.2 0.2 0.1 0.4 0.1 0.2 0.1 0.4 0.1 0.2 0 0.4 0c4.9 0.6 12.1 2.5 19.9 5.2l3.4 1.2 0.8-0.5q0.7-0.2 1.5-0.5 0.8-0.2 1.5-0.5 0.8-0.2 1.6-0.4 0.7-0.2 1.5-0.3c3-0.7 6.6-1.8 8-2.3 5.8-2.3 11.5-4.1 23.4-7.3 8.8-2.4 12-3.4 19-5.7 6.1-2 14.3-4.5 19.3-5.7 4-1 3.9-1 2.3-1.6-1.5-0.5-3.8-1.9-3.8-2.3 0-0.6-3.9-1.5-9-2.1-5.4-0.7-6.2-0.9-7.2-1.8-1.3-1.1-2-3.8-2.5-10.5-0.2-2.7-0.5-11.4-0.5-15.2 0-1.5 0-1.5-0.7-1.8q-0.1-0.1-0.3-0.2-0.2-0.1-0.3-0.2-0.1-0.2-0.3-0.3-0.1-0.2-0.2-0.3c-0.5-1.1-0.8-5-0.8-13.4 0-6.5 0-8.4 0.4-11.3 0.4-2.9 0.4-4.9 0.4-13.1 0-5.3-0.1-11.4-0.3-13.6-0.2-2.1-0.4-13-0.5-24-0.1-11-0.3-23.3-0.4-27.4l-0.1-7.3-0.5 0.9q-0.2 0.3-0.4 0.6-0.3 0.3-0.5 0.5-0.3 0.3-0.6 0.5-0.3 0.2-0.6 0.4c-2 1.2-1.7 0.5-2.3 7.6-0.2 2.9-0.9 10.2-1.4 16.3-2.2 22.5-2.4 27.4-1.7 34.8 0.5 4.7 0.6 12.4 0.2 25.6-0.1 6.9-0.1 10.2 0.1 13.4 0.2 2.5 0.4 9.6 0.4 16.4 0 11.1 0.1 12.1 0.5 14.1q0.1 0.4 0.2 0.8 0.1 0.4 0.2 0.8 0.1 0.4 0.3 0.8 0.1 0.3 0.2 0.7 0.1 0.2 0.2 0.4 0 0.3 0.1 0.5 0 0.2 0.1 0.4 0 0.2 0 0.5 0 0.2 0 0.4 0.1 0.2 0.1 0.4 0.1 0.2 0.1 0.4 0.1 0.2 0.2 0.5 0.1 0.2 0.1 0.4 0.1 0.3 0.1 0.5 0.1 0.2 0.1 0.5 0 0.2 0 0.5 0.1 0.2 0 0.5 0 0.2-0.1 0.5-0.1 0.2-0.3 0.4-0.1 0.2-0.3 0.3c-0.7 0.7-0.9 0.7-2.9 0.7q-0.5 0-1 0-0.6 0-1.1-0.1-0.6 0-1.1-0.1-0.6-0.1-1.1-0.1c-2.3-0.4-11.5-1.1-11.8-1q-0.2 0.1-0.5 0.1-0.3 0.1-0.6 0.1-0.3 0.1-0.6 0.1-0.3 0.1-0.6 0.1c-4.4 0.6-9 1.8-18.2 4.8-14.7 4.8-19.3 5.9-21.3 5.2-0.8-0.2-1.1-0.6-1.8-1.8-1-1.6-1.4-3.2-1.3-6.1v-10.2c0-4.6 0-17.5 0.1-28.8 0.2-36.3 0.1-53.4-0.3-61.8-0.4-8.6-0.4-18.6-0.1-27.1 0.2-3.1 0.3-5.6 0.2-5.7q-0.1 0-0.3 0.1-0.2 0-0.4 0-0.2 0.1-0.3 0.1-0.2 0.1-0.4 0.1c-3 0.9-4.3 0.7-4.9-0.6-0.3-0.8 0-2.6 0.9-5.6q0.2-0.7 0.4-1.4 0.2-0.7 0.3-1.4 0.2-0.6 0.3-1.3 0.1-0.7 0.2-1.4c1.3-8.3 3.7-14.9 7.5-20.2q0.5-0.6 0.9-1.2 0.5-0.6 1-1.1 0.5-0.6 1-1.2 0.6-0.5 1.1-1 2.1-2.2 4.6-4.1 2.4-1.8 5.1-3.2 2.8-1.4 5.7-2.3 2.9-1 5.9-1.4 2.5-0.4 4.9-0.4 2.5 0 5 0.3 2.4 0.4 4.8 1.1 2.4 0.7 4.6 1.8 1.4 0.7 2.7 1.4 1.3 0.8 2.5 1.7 1.3 0.9 2.4 1.8 1.2 1 2.2 2.1c3.6 3.6 4.9 5.5 5.9 8.6q0.2 0.8 0.5 1.6 0.3 0.8 0.7 1.6 0.3 0.7 0.8 1.4 0.4 0.7 1 1.4c0.8 1.2 1.7 2.7 2.1 3.5l0.7 1.3v-17.8c0-16.7 0.2-26.3 0.7-34.8q0.1-1.4 0.1-2.7 0-1.4 0-2.7-0.1-1.4-0.1-2.7-0.1-1.4-0.2-2.7c-0.9-13.8-0.9-19.4 0.1-23.2 0.2-0.8 0.4-1.6 0.4-1.8 0-0.2-0.4-0.4-3-0.4-1.7 0-4.6 0.2-6.5 0.3q-1.7 0.2-3.5 0.3-1.8 0.1-3.5 0.1-1.8 0-3.6-0.1-1.7-0.1-3.5-0.2c-3.3-0.2-6.1-0.3-6.2-0.2q-0.1 0.5-0.2 1.1-0.1 0.5-0.2 1.1-0.1 0.6-0.2 1.1 0 0.6-0.1 1.1l-0.6 4.3 0.5 4.7q0.2 0.9 0.2 1.8 0.1 0.9 0.2 1.8 0 0.9 0 1.8 0 0.9 0 1.8c-0.1 1.4-0.2 2.9-0.2 3.5v1h1.2q0.7 0 1.3 0 0.7 0 1.3-0.1 0.7 0 1.4-0.1 0.6 0 1.3-0.1c6.4-0.6 10.3-0.7 12.7-0.4 4 0.5 6.2 1.8 7.5 4.1q0.2 0.4 0.3 0.7 0.2 0.4 0.2 0.8 0.1 0.4 0.1 0.8 0 0.4 0 0.9c-0.1 2.2-0.8 3.3-2.8 4.8-2.9 2.2-2.9 2.2-3.7 5.1-0.8 2.9-1.4 4.1-2.4 4.6-0.9 0.5-3.7 0.4-7.1 0-2.8-0.3-4.8-0.1-11.9 1-11.8 2-11.4 1.9-25.1 2.2-14 0.2-13.9 0.2-14.5-1.3-0.4-0.9-0.6-2.1-0.9-6.2q0-0.8-0.1-1.6-0.1-0.7-0.3-1.5-0.2-0.8-0.4-1.5-0.3-0.8-0.6-1.5-0.3-0.6-0.5-1.1-0.2-0.6-0.4-1.2-0.2-0.6-0.3-1.2-0.1-0.6-0.2-1.2c-0.1-1.5-0.1-1.6 0.5-2.4q0.3-0.2 0.5-0.4 0.2-0.1 0.5-0.3 0.2-0.1 0.5-0.2 0.3-0.1 0.5-0.2c1.5-0.4 7.5-0.7 15.7-1l5.6-0.1 1.1-0.7 1.2-0.7v-2c0-1.1-0.2-4-0.4-6.4q-0.1-0.8-0.1-1.7-0.1-0.8-0.1-1.7 0-0.8 0-1.7 0.1-0.8 0.1-1.7 0.1-1.2 0.2-2.3 0-1.2 0.1-2.3 0-1.2-0.1-2.3 0-1.2-0.1-2.4l-0.2-1h-2.1c-1.5 0.2-3.5 0.2-4.8 0.3z"/>
		<path class="s1" d="m861.4 806.8q0.1 1.3 0.1 2.6 0.1 1.3 0.1 2.6-0.1 1.3-0.1 2.6-0.1 1.3-0.2 2.6 0 0.8 0 1.6 0 0.8 0 1.6 0 0.8 0.1 1.6 0 0.8 0.1 1.6c0.2 2.5 0.3 5.5 0.3 6.8l-0.1 2.4h2.1q0.9-0.1 1.8-0.1 0.9 0 1.8-0.1 0.8-0.1 1.7-0.2 0.9-0.1 1.7-0.2c0.5-0.1 0.6-0.4 0.8-1.9q0.1-1.3 0.1-2.7 0.1-1.4 0-2.7 0-1.4-0.1-2.8-0.1-1.3-0.3-2.7l-0.4-4.3 0.6-4.1c0.3-2.2 0.5-4.1 0.5-4.2q-0.7-0.1-1.4-0.1-0.6-0.1-1.3-0.1-0.7 0-1.4 0-0.6 0-1.3 0-5.3 0-5.2 0.2z"/>
		<path class="s1" d="m883.6 835.7q-0.9 0.1-1.8 0.1-1 0.1-1.9 0.2-1 0-1.9 0-1 0-1.9 0-0.6 0-1.2 0-0.6 0-1.2 0-0.6 0.1-1.2 0.1-0.6 0.1-1.2 0.2c-1.2 0.2-4.6 0.4-7.5 0.5-2.9 0.2-6 0.4-7 0.5-1 0.1-5.4 0.4-10 0.5-8.6 0.2-11 0.4-11 0.7 0 0.1 0.6 1.6 1.2 3.4q0.4 0.7 0.7 1.6 0.2 0.8 0.4 1.6 0.2 0.9 0.3 1.7 0.1 0.9 0.1 1.7 0 0.5 0.1 1 0 0.4 0 0.9 0.1 0.4 0.2 0.9 0 0.5 0.1 0.9c0.1 0.1 5.3 0.1 11.6 0 12.5-0.2 10.8 0 24.8-2.3q1.8-0.3 3.5-0.5 1.8-0.2 3.5-0.3 1.8-0.1 3.6-0.1 1.7 0 3.5 0.2l2.3 0.2 0.4-1.3c0.2-0.7 0.5-1.8 0.6-2.4q0.2-0.7 0.6-1.4 0.3-0.6 0.7-1.2 0.4-0.6 1-1 0.5-0.5 1.1-0.9c2.3-1.7 2.6-2 2.6-3 0-0.9-1-2-2.5-2.4-1.9-0.7-7-0.7-12.6-0.1z"/>
		<path class="s1" d="m864.8 870.3q-2.8 0.5-5.4 1.3-2.6 0.9-5.1 2.3-2.5 1.3-4.7 3-2.2 1.7-4.1 3.7c-5.8 6-8.4 12-10.1 23.3q-0.1 0.5-0.2 1.1-0.1 0.6-0.2 1.1-0.1 0.6-0.3 1.2-0.1 0.5-0.3 1.1l-0.4 1.2 0.5-0.2q0.5-0.2 1-0.4 0.5-0.2 1-0.5 0.5-0.3 1-0.7 0.4-0.4 0.8-0.8c1-1 2-2.6 4.6-7.3 5.1-9.3 11.8-17.1 18.3-21.5 8.3-5.6 17.8-6.4 25.4-2.1 2.4 1.4 2.1 1-0.6-0.9q-1.2-0.8-2.5-1.5-1.3-0.7-2.6-1.3-1.3-0.6-2.7-1-1.3-0.4-2.8-0.7-1.3-0.3-2.6-0.4-1.3-0.2-2.7-0.2-1.3-0.1-2.6 0-1.4 0-2.7 0.2z"/>
		<path class="s1" d="m873.6 877.5q-0.5 0.1-1 0.2-0.5 0.2-1 0.3-0.5 0.1-1 0.3-0.5 0.1-1 0.3c-0.1 0.1 0.2 0.3 0.6 0.4 2 0.7 5.9 4.2 8.3 7.3q0.7 1.1 1.3 2.2 0.7 1.1 1.3 2.3 0.5 1.2 1.1 2.4 0.5 1.2 0.9 2.4c1.9 5.6 2.7 11.3 3.4 23.2 0.2 2.4 0.4 6.2 0.6 8.5q0.1 1.1 0.2 2.2 0.1 1.1 0.1 2.2 0 1.1 0 2.2 0 1.1 0 2.2c-0.1 4.2-0.4 7.1-1.8 20.9-0.9 8.5-1 15.1-0.8 33q0.2 4.1 0.2 8.2 0.1 4.1 0 8.2-0.1 4.1-0.2 8.2-0.2 4.1-0.5 8.2 0 1.2-0.1 2.3 0 1.2 0 2.4 0 1.1 0 2.3 0.1 1.2 0.1 2.3c0.3 3.9 1 7.8 1.5 8.4 0.2 0.2 0.8 0.3 1.8 0.3q0.6 0.1 1.2 0.1 0.5 0.1 1.1 0.1 0.6 0.1 1.2 0.2 0.6 0 1.2 0.1 0.4 0.1 0.8 0.2 0.4 0 0.8 0.1 0.4 0 0.8 0 0.5 0.1 0.9 0.1-0.1-0.2-0.2-0.4 0-0.2-0.1-0.5-0.1-0.2-0.2-0.4-0.1-0.2-0.2-0.4-0.2-0.2-0.3-0.5-0.1-0.3-0.2-0.6-0.1-0.2-0.1-0.5 0-0.3 0-0.6c0.3-1 0.2-1.2-0.1-3.2-0.2-1.3-0.3-5.2-0.4-14.2 0-6.8-0.2-13.6-0.3-15.2-0.3-3.8-0.3-10.7 0-21.9 0.3-8.4 0.2-9.5-0.2-14.6q-0.2-2.8-0.3-5.6-0.1-2.8-0.1-5.7 0-2.8 0.1-5.6 0.1-2.8 0.3-5.6c0.2-2.6 1-10.3 1.6-17.2 0.6-6.9 1.4-14.9 1.6-17.8q0-0.7 0.1-1.4 0-0.8 0.1-1.5 0.1-0.7 0.2-1.5 0.1-0.7 0.2-1.4 0.1-0.2 0.3-0.5 0.1-0.2 0.2-0.4 0.2-0.2 0.3-0.4 0.1-0.2 0.3-0.4c1-1.1 1-1.5 0.2-4.5q-0.5-2.1-1.3-4.1-0.8-2-1.8-3.9-1-2-2.3-3.7-1.3-1.8-2.8-3.4c-4.2-4.3-8.4-6.4-13.5-6.6q-0.4 0-0.8 0-0.4 0-0.8 0-0.4 0-0.8 0-0.4 0-0.7 0z"/>
		<path class="s1" d="m101.1 882.1c0 0.7-0.3 3.6-0.5 6.7-0.3 4.2-0.3 5.7-0.1 6.3 0.2 0.7 0.8 1.3 2.7 2.8 5 4 6.5 4.9 13.6 8.3 8.3 3.9 14.5 7.2 29.3 15.8 15.9 9.1 22.6 12.7 49.3 26.1 34.1 17.1 42.4 21.6 61 33.2 18.4 11.4 24.2 14.6 34.1 18.6q2.1 0.8 4.1 1.8 2.1 0.9 4.1 2 1.9 1 3.9 2.1 1.9 1.2 3.8 2.4c5 3.3 7.4 4.6 10.3 5.8q0.3 0.1 0.5 0.2 0.3 0.1 0.6 0.2 0.2 0.1 0.5 0.3 0.3 0.1 0.5 0.3 0.3 0.1 0.6 0.2 0.2 0.1 0.5 0.2 0.2 0.1 0.5 0.2 0.3 0.1 0.5 0.2c1 0.3 3 1.1 4.3 1.7 1.3 0.6 3.5 1.5 4.8 2.1l2.3 1 0.2-0.7c0-0.4 0-2.7-0.1-5.1-0.1-2.4-0.3-8.7-0.4-13.9-0.1-9.2-0.1-10.3 0.7-24 1.1-18 1.7-30.4 1.6-30.5q-0.2-0.1-0.5-0.2-0.2-0.1-0.4-0.1-0.2-0.1-0.5-0.2-0.2-0.1-0.4-0.1-0.6-0.2-1.2-0.4-0.6-0.2-1.2-0.4-0.6-0.3-1.2-0.5-0.6-0.2-1.2-0.5c-4.5-1.9-5.6-2.2-9.5-2.8-11.5-1.7-20-3.9-40.9-10.9-67.6-22.5-104.8-33-145.2-40.9q-1.9-0.3-3.7-0.8-1.9-0.4-3.8-0.9-1.8-0.6-3.6-1.2-1.9-0.6-3.6-1.3c-8.2-3-12.5-4.2-15.2-4.2-0.9 0-0.9 0-1.1 1.1z"/>
		<path class="s1" d="m863 882c-2.5 1.6-6.3 5.3-9.6 9.4l-1.9 2.4v2.1c0 3.8 0.5 26 0.6 26.1 0.1 0.1 5.1-0.9 11.2-2.2 9.3-1.9 18.4-3.7 18.8-3.7 0.2 0-0.1-4-0.5-7.8q-0.2-2.1-0.6-4.1-0.3-2-0.8-4-0.6-2-1.3-3.9-0.7-1.9-1.5-3.8-0.4-0.8-0.8-1.6-0.5-0.7-1-1.5-0.5-0.7-1-1.4-0.6-0.7-1.2-1.3c-2.2-2.4-4-3.6-6.2-4.3-2.9-1-3.2-1-4.2-0.4z"/>
		<path class="s1" d="m35.1 895.4c-5.2 0.4-27.6 2.8-29.6 3.2l-0.5 0.2v306.2h1200v-104.3c0-76.4-0.1-104.3-0.3-104.3-0.2 0-1.8 0.3-3.8 0.6q-1.6 0.3-3.2 0.6-1.6 0.2-3.2 0.4-1.6 0.2-3.2 0.3-1.6 0.2-3.2 0.3c-3.6 0.3-4.5 0.2-10.6-0.6-1.4-0.2-6-0.7-10.1-1.1-4-0.4-8-0.7-8.6-0.8-1.2-0.2-1.2-0.1-1.7 0.7-0.2 0.5-0.5 0.9-1 1.2-0.5 0.2-1 0.3-1.5 0.2-0.6 0-1-0.3-1.4-0.7-0.4-0.3-0.6-0.8-0.7-1.4q0-0.1 0-0.2-0.1-0.1-0.1-0.2-0.1-0.1-0.2-0.2 0-0.1-0.1-0.2c-0.7-0.2-7.2 0.5-12.6 1.4-3.1 0.5-7.5 1.2-9.7 1.6-7.3 1-12.3 2.2-26.6 6.3-10.2 2.9-14.4 4-21.3 5.4-17.2 3.5-29.1 6.6-58.5 15.4-27.2 8.1-40.4 11.7-53.5 14.6-5.9 1.3-7.1 1.7-14.3 4.4-3 1.2-5.8 2.3-6.4 2.4-0.9 0.3-1 0.4-0.7 0.8 0.2 0.4-0.1 5.7-0.6 7.6-0.4 1.9-1.2 3.4-1.9 3.8q-0.4 0.1-0.9 0.2-0.4 0.1-0.8 0.2-0.5 0.1-0.9 0.1-0.5 0-0.9 0.1-0.9 0-1.7 0.1-0.8 0.2-1.7 0.3-0.8 0.2-1.6 0.4-0.8 0.2-1.6 0.5c-4.5 1.3-9.5 2.6-16 4-7.8 1.8-12.4 3.2-23.5 7.3-8.6 3.2-11.3 4.1-20.5 6.8-11.5 3.3-16.2 5-20.8 7.3l-1.8 0.9-2.1-0.4c-2.9-0.6-17.6-4.2-22-5.4q-0.6-0.2-1.1-0.3-0.6-0.2-1.1-0.4-0.6-0.1-1.1-0.3-0.5-0.2-1-0.5-0.4-0.2-0.7-0.6-0.2-0.3-0.4-0.7-0.2-0.4-0.3-0.8-0.1-0.4-0.1-0.9c0-3-0.6-3.5-3.2-2.8-0.8 0.2-3.5 0.7-6 1.1-4.6 0.7-9.9 1.8-15 3.1-4.1 1-6.5 1.3-13.6 1.8-6.3 0.4-9.9 1.4-38.3 10-21.4 6.5-28.1 8.1-56.5 13.4-22 4-26 4.9-48.4 10.7-29.7 7.6-42.8 11.3-61.4 17.1-15.9 5-22.3 6.6-30 7.3-3 0.3-3.1 0.2-3.7-0.3l-0.7-0.4v-3.6c-0.1-7.3-0.4-10.1-1.7-12.9l-0.6-1.4-1.7 0.1c-1 0.1-3.8 0.6-6.4 1.1-7.8 1.6-11.8 2-24.6 2.4-6.8 0.3-8.7 0.4-11.6 0.9-3.9 0.6-7.1 0.7-8.3 0.2q-0.5-0.1-0.9-0.5-0.4-0.4-0.5-0.9-0.2-0.5-0.1-1 0.1-0.6 0.4-1 0.1-0.1 0.2-0.2 0-0.1 0.1-0.2 0.1-0.1 0.1-0.3 0-0.1 0.1-0.2-0.5-0.3-1.1-0.6-0.5-0.2-1.1-0.5-0.5-0.2-1.1-0.4-0.6-0.2-1.2-0.3-0.2 0-0.3 0-0.2-0.1-0.4-0.1-0.2-0.1-0.3-0.2-0.2-0.1-0.3-0.2-0.7-0.3-1.4-0.5-0.6-0.3-1.3-0.5-0.7-0.2-1.3-0.4-0.7-0.2-1.4-0.4c-2.6-0.7-6.7-1.9-9-2.7-3.4-1.1-4.4-1.5-5-2.1-1.5-1.4-1-3.3 1.7-7.2l1.1-1.6-0.1-2.3-0.2-2.4-1.1-0.4c-0.6-0.2-2.9-1.3-5.1-2.4q-0.5-0.3-1-0.6-0.6-0.2-1.1-0.5-0.6-0.2-1.1-0.5-0.6-0.2-1.1-0.4c-0.9 0-5.9-2.9-14.5-8.4-3.7-2.4-8.1-5-9.7-6-1.7-1-14.2-7.3-27.9-14.1-43.5-21.6-43.4-21.5-55.5-29.1-7.8-4.9-11.9-7.3-13.8-8.3-1.2-0.6-1.3-0.6-1.8-0.2q-0.4 0.2-0.8 0.3-0.4 0-0.9-0.1-0.4-0.1-0.7-0.3-0.4-0.3-0.6-0.7-0.1-0.1-0.1-0.2 0-0.1-0.1-0.2 0-0.1 0-0.2-0.1-0.1-0.1-0.2c-0.1-0.8-0.3-0.8-4.9-2.9-6.4-2.8-7.8-3.3-9-3.2-0.9 0.2-1.1 0.1-1.8-0.7q-0.5-0.4-0.9-0.7-0.5-0.3-1-0.6-0.5-0.3-1-0.6-0.5-0.3-1-0.5c-1.7-0.9-5.3-3-7.9-4.7q-1.8-1.2-3.7-2.3-1.9-1.1-3.9-2.1-1.9-1-3.9-1.9-2.1-0.9-4.1-1.7c-10-4.1-16.7-7.8-32.5-17.7-19.2-12.1-27.7-16.7-61.6-33.7-28.2-14.1-33.2-16.8-50.9-27-14-8-17.1-9.8-26.8-14.6-8.9-4.3-11.5-5.9-16-9.5-2.1-1.7-2.6-2.1-3.6-2.2-1.6-0.2-16.7-1.5-24-2-9.3-0.7-17.3-1.2-24.5-1.4q-1.6-0.1-3.3-0.2-1.7-0.1-3.3-0.1-1.7 0-3.4 0.1-1.6 0-3.3 0.1z"/>
		<path class="s1" d="m845.9 903q-0.5 0.9-1 1.8-0.5 0.9-1 1.7-0.6 0.9-1.2 1.7-0.6 0.8-1.2 1.6c-1.5 1.7-1.5 1.6-1.9 11.5l-0.1 3.1 1.9-0.5q0.5-0.2 1-0.3 0.5-0.1 1-0.2 0.6-0.1 1.1-0.2 0.5-0.1 1.1-0.2l2.3-0.3-0.2-9.2c0-5.1-0.2-10.2-0.3-11.2l-0.1-1.9z"/>
		<path class="s1" d="m878.1 921c-3.9 0.8-25 5.1-25.6 5.3-0.2 0-0.3 0.5-0.3 1.1 0 0.9 0 1 0.5 0.8 0.3 0 4.4-0.8 9-1.6 10.7-1.8 20.2-3.9 20.8-4.5q0-0.1 0.1-0.3 0-0.1 0-0.2 0-0.1 0-0.3-0.1-0.1-0.1-0.2l-0.2-0.9z"/>
		<path class="s1" d="m879.9 927.1c-3.2 0.9-12.1 2.7-21.1 4.2l-6.6 1.2 0.1 4.5c0.1 2.5 0.2 7.9 0.3 11.9 0.1 6.5 0.2 7.2 0.5 7.1 2-0.6 19.7-4.1 21.7-4.3q0.7-0.1 1.5-0.2 0.8-0.1 1.6-0.2 0.8-0.2 1.5-0.4 0.8-0.2 1.5-0.4 0.1-0.1 0.3-0.2 0.1 0 0.2 0 0.1-0.1 0.3-0.1 0.1-0.1 0.2-0.1c0.3 0 0.4-0.7 0.9-6.2 0.7-6.2 0.6-17.6-0.1-17.5z"/>
		<path class="s1" d="m845.2 927.2q-0.6 0.1-1.2 0.2-0.6 0.1-1.3 0.3-0.6 0.2-1.2 0.4-0.6 0.2-1.2 0.4c-1 0.5-1.1 0.5-1.1 1.6 0 0.6 0.1 1.1 0.2 1.1 0.1 0 1.9-0.5 4-1q0.6-0.2 1.1-0.3 0.5-0.2 1.1-0.3 0.5-0.1 1-0.2 0.6-0.1 1.1-0.2c0.3 0 0.4-0.3 0.4-1.2 0-1.4 0.1-1.3-2.9-0.8z"/>
		<path class="s1" d="m844.2 934.3c-2 0.5-3.9 1-4.3 1.2l-0.7 0.2 0.2 2.2c0.2 3.8 0.5 12.6 0.7 17.4l0.2 4.5 3.8-1.2c2.1-0.7 4-1.3 4.2-1.3 0.2 0 0.4-1 0.2-8.1-0.2-10.2-0.4-15.9-0.6-15.9-0.2 0.1-1.8 0.5-3.7 1z"/>
		<path class="s1" d="m879.3 955.2c-1.1 0.2-2.8 0.5-3.8 0.6-1.7 0.1-14.8 2.7-20.3 4l-2.3 0.5v1.2c0 0.6 0.1 1.1 0.3 1.1 0.3 0 6.4-1.4 9.2-2 1.3-0.4 4-1.2 6-1.8q0.9-0.3 1.7-0.5 0.9-0.3 1.8-0.5 0.9-0.2 1.7-0.4 0.9-0.2 1.8-0.4c3.9-0.7 4.3-0.8 5.5-1.6 1.4-0.9 1.3-0.9-1.6-0.2z"/>
		<path class="s1" d="m880.2 960.2c-0.4 0.1-2.2 0.5-4 0.8q-0.7 0.2-1.4 0.3-0.7 0.2-1.4 0.3-0.6 0.2-1.3 0.4-0.7 0.2-1.3 0.4-1.6 0.5-3.3 1-1.6 0.4-3.2 0.9-1.6 0.4-3.3 0.8-1.6 0.4-3.2 0.7c-2.6 0.6-4.7 1.1-4.8 1.2 0 0 0.6 27.6 0.7 27.7 0.1 0.1 9.4-1.6 11.5-2.1q1.4-0.4 2.7-0.8 1.3-0.4 2.6-0.8 1.3-0.5 2.5-0.9 1.3-0.5 2.6-1 0.5-0.2 1-0.4 0.5-0.2 1-0.4 0.5-0.2 1-0.3 0.5-0.2 1.1-0.3l1-0.2v-11.2c0-6.1 0.1-12.3 0.2-13.8q0.1-0.3 0.1-0.6 0-0.3 0-0.6 0-0.3 0-0.7 0-0.3 0-0.6z"/>
		<path class="s1" d="m844.5 962.8c-4 1.3-4.2 1.4-4.3 2.1 0 0.6 0 0.6 0.3 0.5 0.3-0.1 2.2-0.5 4.3-1q0.5-0.1 1-0.2 0.5-0.1 1-0.2 0.5-0.2 1-0.3 0.5-0.1 1-0.3 0-0.1 0-0.3 0.1-0.1 0.1-0.2 0-0.2-0.1-0.3 0-0.1 0-0.2l-0.1-1z"/>
		<path class="s1" d="m847.8 968q-1 0.2-1.9 0.4-0.9 0.2-1.8 0.4-1 0.2-1.9 0.5-0.9 0.3-1.8 0.5c-0.1 0.1-0.2 6.5-0.3 14.2l-0.2 14.1 2-0.6c1.1-0.4 3.3-1 4.9-1.4l2.8-0.6v-1.3c0-3.8-0.7-26.3-0.8-26.4q-0.1 0-0.2 0-0.2 0.1-0.3 0.1-0.1 0-0.3 0-0.1 0.1-0.2 0.1z"/>
		<path class="s1" d="m879.8 991.9c-0.3 0.1-1.7 0.6-3.1 1.2-6.8 2.7-10 3.6-18.5 5l-4.5 0.8q0 0.2 0 0.4 0.1 0.2 0.1 0.5 0 0.2 0 0.4 0 0.2 0 0.4 0.1 1.8 0.4 1.8c0.2 0 1.7-0.4 3.3-0.8q1.4-0.4 2.8-0.9 1.3-0.4 2.7-0.9 1.4-0.5 2.7-1 1.4-0.5 2.7-1 1.4-0.5 2.8-1 1.4-0.4 2.8-0.8 1.4-0.4 2.9-0.7 1.4-0.4 2.8-0.7l1-0.2v-1.4c0-0.8 0-1.4-0.1-1.4q-0.1 0-0.2 0.1-0.1 0-0.2 0-0.1 0.1-0.2 0.1-0.1 0-0.2 0.1z"/>
		<path class="s1" d="m879.9 998.8q-1.6 0.3-3.1 0.7-1.6 0.5-3.1 0.9-1.5 0.5-3.1 1-1.5 0.6-3 1.2-1.5 0.5-2.9 1.1-1.5 0.5-3 1-1.5 0.5-3 0.9-1.6 0.4-3.1 0.8l-1.7 0.4 0.1 2.3c0.1 1.3 0.2 6.8 0.4 12.3 0.1 5.5 0.3 10 0.3 10 0 0 3.2-0.9 7.1-2.1q2-0.6 4-1.2 2.1-0.6 4.1-1.2 2.1-0.5 4.1-1 2.1-0.5 4.2-0.9c1.8-0.3 1.8-0.3 2-1 0.2-1.6 0.6-11.5 0.8-18.2 0.1-7.7 0.1-7.3-1.1-7z"/>
		<path class="s1" d="m845.9 1000.5c-1.4 0.4-3.3 1-4.2 1.4l-1.6 0.7-0.2 1.2q0 0.1 0 0.3 0 0.1 0 0.3 0 0.1-0.1 0.3 0 0.2 0 0.3 1-0.1 2-0.2 1-0.1 2-0.2 0.9-0.2 1.9-0.3 1-0.2 1.9-0.4l2-0.4 0.1-1.9 0.1-1.8h-0.7q-0.4 0.1-0.8 0.1-0.4 0.1-0.8 0.2-0.4 0.1-0.8 0.2-0.4 0.1-0.8 0.2z"/>
		<path class="s1" d="m847.6 1008.1c-0.8 0.2-2.7 0.5-4.2 0.7q-0.4 0-0.8 0.1-0.4 0-0.8 0.1-0.4 0.1-0.8 0.2-0.4 0.1-0.8 0.2c-0.5 0.2-0.5 0.5-0.5 8 0 10.8 0.2 16.5 0.6 16.4 0.2-0.1 2-0.3 4-0.4 2-0.2 4.3-0.4 5-0.5l1.2-0.3v-1c0-2.4-0.5-21.5-0.6-22.6-0.1-0.8-0.2-1.3-0.4-1.3-0.2 0-1 0.2-1.9 0.4z"/>
		<path class="s1" d="m877.3 1029.3c-1.2 0.3-3.4 0.8-4.9 1.2-2.7 0.7-17.3 5-17.5 5.2-0.2 0.2 0.4 11 0.5 11.1q0.8-0.2 1.6-0.4 0.7-0.2 1.5-0.5 0.7-0.2 1.5-0.5 0.7-0.2 1.5-0.5 1.8-0.6 3.7-1.2 1.8-0.6 3.7-1 1.9-0.5 3.8-0.9 1.9-0.4 3.8-0.7 0.4-0.1 0.9-0.1 0.4-0.1 0.9-0.2 0.4-0.1 0.8-0.2 0.5-0.1 0.9-0.2c1.2-0.3 1.3-0.3 1.2-0.9q-0.2-1-0.4-2-0.1-1-0.3-2-0.1-1-0.2-2-0.1-1-0.1-2c-0.1-1.8-0.3-2.7-0.5-2.7-0.2 0-1.2 0.3-2.4 0.5z"/>
		<path class="s1" d="m850.5 1036.9q-0.6 0.1-1.2 0.2-0.5 0-1.1 0.1-0.6 0.1-1.1 0.1-0.6 0-1.2 0.1c-2.4 0.2-4.7 0.4-5 0.5l-0.7 0.1v2.2c0 1.1-0.1 3.4-0.2 4.9-0.2 2.5-0.2 3 0.2 4.3l0.5 1.4h1.1q0.7-0.1 1.4-0.2 0.6-0.2 1.3-0.3 0.6-0.2 1.3-0.3 0.6-0.2 1.3-0.4l4.1-1.2-0.1-3.8c-0.2-4.7-0.4-7.9-0.6-7.7z"/>
		<path class="s1" d="m943.8 1050.9c-0.3 0-4.2 1-8.8 2.1-10.1 2.5-15.1 3.9-24.5 7-7.7 2.5-10.4 3.3-19.9 5.9-8.9 2.4-15.5 4.5-20.2 6.3q-1.1 0.4-2.2 0.8-1.2 0.4-2.3 0.7-1.2 0.4-2.4 0.7-1.1 0.3-2.3 0.6l-5 1.3-0.1 2.5c-0.1 1.3-0.2 2.5-0.2 2.5 0 0 1-0.4 2.3-0.9q2-0.8 4-1.5 2-0.7 4-1.3 2-0.7 4-1.3 2-0.6 4-1.2 2.4-0.6 4.7-1.3 2.4-0.7 4.7-1.4 2.3-0.8 4.7-1.6 2.3-0.8 4.5-1.7c13-4.9 17.9-6.4 26.4-8.2 6.3-1.4 11.7-2.8 16.1-4.1q0.7-0.3 1.4-0.5 0.8-0.2 1.5-0.3 0.7-0.2 1.5-0.3 0.7-0.1 1.5-0.1 2.5-0.2 2.6-0.5 0.1-0.5 0.2-1.1 0.1-0.5 0.2-1 0.1-0.6 0.1-1.1 0.1-0.5 0.1-1.1-0.1 0-0.1 0-0.1 0-0.2 0-0.1 0-0.2 0-0.1 0-0.1 0.1z"/>
		<path class="s1" d="m827.6 1071.4q-0.1 0.5-0.1 1-0.1 0.5-0.1 1.1-0.1 0.5 0 1 0 0.5 0 1.1l0.1 1 1.6 0.5c2 0.6 21.7 5.5 22.2 5.5 0.3 0 0.4-0.4 0.5-1.7 0.1-0.9 0.2-2 0.2-2.4v-0.9l-5.7-1.9c-7.4-2.6-8.5-2.9-13.5-3.8-4.7-0.9-5.1-0.9-5.2-0.5z"/>
	</g>
</svg>