<svg version="1.2" xmlns="http://www.w3.org/2000/svg" viewBox="0 0 1204 1204" width="1204" height="1204">
	<title>05-e-libri-SAHAT-KULLA-COROL-BLACK-01-01-01-svg</title>
	<style>
		.s0 { fill: #000000 } 
		.s1 { fill: #ffffff } 
	</style>
	<g id="Black">
		<path id="Black_layer" class="s0" d="m1207.5-3.5v1211h-1211v-1211zm0 0v1211h-1210.9v-1211z"/>
	</g>
	<g id="Color">
		<path fill-rule="evenodd" class="s1" d="m2 2h1200c0 0-0.1 1152.8-0.1 1152.8-0.1 0-10.5-1-14.8-2.2-43.2-11.8-77.2-19.5-93.8-21-3.5-0.3-13-0.3-18.9 0-22.2 1.2-55.3 5-96.7 11.1q-2.5 0.5-4.9 0.8-2.5 0.3-5 0.6-2.5 0.2-5 0.4-2.4 0.2-4.9 0.2c-5.3 0.3-25.1 1.3-44.2 2.3-78.9 4.1-135.1 6.8-153.2 7.4-4.6 0.2-8.7-0.1-20.4-1.3-28.1-2.9-46.3-7.5-60.5-15.2l-2.5-1.3v-631.6l1.9 0.3c5.5 0.9 9.2-0.2 10-3.1q0.3-0.9 0.3-1.9 0-0.9-0.2-1.9-0.3-0.9-0.7-1.8-0.5-0.8-1.1-1.5c-1.9-2.1-4.9-3.4-10.3-4.5l-1.4-0.2v-136.8l0.9-0.7q0.4-0.2 0.8-0.5 0.3-0.4 0.5-0.8 0.2-0.4 0.4-0.8 0.1-0.5 0.1-1c0-1.3-0.3-1.9-1.6-3.6l-1.1-1.5v-9.5l-0.1-9.5-3.1-2.2q-0.4-0.3-0.9-0.7-0.5-0.3-1-0.6-0.5-0.3-1-0.6-0.5-0.3-1.1-0.5c-4.1-1.2-4-1.1-4.7-2.6-3-6.2-14.9-27.6-18.1-32.4-2.6-4-6.3-7.9-8.9-9.5q-0.6-0.3-1.2-0.5-0.5-0.3-1.2-0.4-0.6-0.2-1.2-0.3-0.6-0.1-1.3-0.1l-1 0.2v-31.7c0-22.2 0.2-31.7 0.3-31.7 0.1 0 1 0.1 1.9 0.2q0.5 0.2 1 0.2 0.5 0 1.1-0.1 0.5-0.1 0.9-0.3 0.5-0.2 0.9-0.5c1.6-1.3 2.1-4.7 1-7-1.1-2.4-1.4-2.5-11.1-6.4q-0.3-0.1-0.7-0.2-0.3-0.2-0.6-0.3-0.3-0.2-0.6-0.3-0.3-0.2-0.7-0.4c0-0.1 0.3-0.2 0.5-0.3q0.2-0.1 0.3-0.2 0.1-0.1 0.2-0.2 0.1-0.1 0.2-0.3 0.1-0.1 0.2-0.2c0.3-0.7 0.3-1-0.1-2.9-1.7-6.8-7.1-13.5-15.5-19q-2-1.3-4.1-2.3-2.1-1.1-4.3-1.9-2.2-0.8-4.5-1.3-2.2-0.6-4.5-0.9l-2.5-0.3 0.1-1c0.1-0.5 0.3-2 0.5-3.3 0.5-3.1 0.4-4.4-0.6-5.2q-0.2-0.2-0.4-0.3-0.2-0.1-0.4-0.2-0.2-0.1-0.4-0.2-0.2-0.1-0.5-0.1c-0.8-0.1-0.9-0.3-0.8-0.6q0.2-0.7 0.3-1.4 0.2-0.8 0.3-1.5 0.1-0.7 0.1-1.5 0.1-0.7 0.1-1.5c-0.1-1.4-0.6-2.1-1.9-2.4-0.5-0.2-0.9-0.4-0.9-0.6 0-1-1-16.4-1.1-17.3q0-0.3-0.1-0.5-0.1-0.3-0.2-0.6-0.2-0.2-0.3-0.4-0.2-0.3-0.4-0.5c-2.3-2.6-4.6-2.1-6.2 1.3q-0.3 0.5-0.4 1.1-0.2 0.5-0.4 1-0.1 0.6-0.1 1.1-0.1 0.6-0.1 1.2c-0.2 2.2-0.7 12.8-0.7 14.7 0 0.2-0.3 0.4-0.6 0.5q-0.4 0.2-0.7 0.4-0.4 0.2-0.7 0.5-0.3 0.2-0.5 0.6-0.3 0.3-0.5 0.6c-0.4 0.8-0.5 6.2-0.1 6.9 0.2 0.4 0.1 0.6-0.4 0.8q-0.3 0.2-0.6 0.5-0.3 0.2-0.6 0.5-0.3 0.3-0.5 0.6-0.2 0.3-0.4 0.7c-0.3 0.6-0.4 1.5-0.4 4.2q0 0.5 0 1 0 0.5 0.1 1 0 0.5 0 1 0.1 0.5 0.2 1c0.2 0.5 0.1 0.6-2.1 1.5q-2 0.7-4 1.7-1.9 0.9-3.8 2-1.9 1.1-3.7 2.4-1.8 1.2-3.4 2.6-1.4 1.3-2.6 2.7-1.3 1.4-2.4 2.9-1.1 1.5-2.1 3.1-1 1.5-1.8 3.2-0.2 0.3-0.3 0.5-0.2 0.3-0.3 0.5-0.2 0.3-0.4 0.5-0.2 0.3-0.4 0.5l-3.8 0.8c-3.9 0.8-5.2 1.4-6.2 2.6-2.2 2.7-1.3 6.5 2 8.2q0.4 0.2 0.7 0.3 0.4 0.1 0.8 0.2 0.4 0.1 0.7 0.1 0.4 0 0.8-0.1h2l0.2 2.2c0 1.2 0.6 17.7 1.3 36.6 0.6 19 1.2 35.4 1.3 36.5l0.1 2-17.3 22.6c-9.5 12.5-17.3 22.7-17.2 22.8 0 0.1-0.3 0.3-0.8 0.5q-0.3 0.1-0.5 0.2-0.2 0.1-0.5 0.2-0.2 0.2-0.4 0.4-0.2 0.1-0.3 0.3c-0.8 0.8-0.8 1-0.7 2.6 0.1 2.9 1.2 4.5 5.1 7.9l1.1 1 0.4 64.6c0.2 35.5 0.3 66.8 0.3 69.5v4.9l-3.5 0.3q-0.6 0-1.2 0.1-0.6 0-1.2 0.1-0.6 0.1-1.2 0.2-0.6 0.1-1.2 0.2-6.4 1.7-6.4 7.5c0 2.1 0.3 3.2 1.3 4.1 1.6 1.4 4.4 1.7 9.7 1.2 1.3-0.2 2.5-0.3 2.7-0.3 0.2 0 0.3 4.4 0.3 20.9 0 11.6 1 154.1 2.2 316.7 1.1 162.6 2 295.7 2 295.8-0.3 0.2-19.2-0.9-28.9-1.8q-0.7 0-1.3-0.1-0.7-0.1-1.4-0.2-0.6-0.1-1.3-0.2-0.7-0.2-1.3-0.3-1.4-0.4-2.9-0.7-1.4-0.4-2.8-0.7-1.5-0.3-2.9-0.5-1.5-0.2-2.9-0.4c-17.3-1.9-45.8-0.3-61.2 3.6-1.3 0.3-7.5 2.1-13.9 4-12.4 3.7-18 5.3-26.3 7.5q-8.7 2.3-17.4 4.2-8.8 2-17.6 3.5-8.8 1.5-17.7 2.7-8.8 1.1-17.8 1.9-4.9 0.4-9.9 0.5-5 0.2-10 0.2-5-0.1-9.9-0.3-5-0.2-10-0.6c-22.3-2.2-36.2-5-74.6-14.9-24.5-6.4-36.5-8.8-47.5-9.8-4.5-0.5-23.2-0.5-29.2 0-28 1.8-60.8 6.5-93 13.2-2.9 0.6-11.4 1.1-11.4 1.1-0.1 0-0.1-1137-0.1-1137zm230.3 63.3c-0.8 1.9-12.2 32.1-12.5 32.8-0.2 0.5-0.5 0.9-0.6 0.9-0.1 0-5.1-2.8-11.1-6.2-5.9-3.4-11-6.2-11.1-6.3-0.2-0.1 0.1 2.4 0.7 6.4 0.4 3.6 0.9 6.6 0.8 6.8 0 0.1-4.1-0.9-10.7-2.8-5.9-1.7-10.8-3-10.8-2.9 0 0.1 2.1 5 4.4 11 2.4 5.9 4.3 10.9 4.3 10.9 0 0-3.6 0.1-8 0.1l-8 0.1 4.3 5.6c2.3 3.1 4.2 5.6 4.2 5.7 0 0-5 1.2-11 2.6-6 1.5-11 2.7-11.3 2.9-0.3 0.1 2.7 2.7 13.9 11.8 7.9 6.4 14.4 11.7 14.5 11.8 0 0.1-4.2 4.1-9.4 8.8-7.8 7.2-9.4 8.8-9.1 8.9 0.3 0.1 3.3 0.7 6.9 1.3 3.5 0.6 6.4 1.2 6.5 1.2 0 0-2.9 4.5-6.5 9.9-3.6 5.4-6.5 9.8-6.5 9.9 0.1 0.1 5.2-0.2 11.5-0.6 6.2-0.4 11.4-0.7 11.4-0.6 0 0-0.8 2.9-2 6.3-1.2 3.4-2.1 6.3-2 6.3 0.1 0.1 2.9-0.9 6.4-2.1l6.3-2.2v0.6c0 0.3-0.4 5.8-0.9 12.1-0.5 6.4-0.9 11.5-0.8 11.5 0 0 7.1-4.6 15.8-10.2 8.6-5.7 15.6-10.3 15.7-10.2 0 0 2.4 5.3 5.4 11.8 2.9 6.5 5.4 12 5.4 12q0.5-0.6 0.9-1.3 0.4-0.7 0.8-1.5 0.4-0.7 0.8-1.4 0.4-0.7 0.8-1.4l3.1-5.9 2.2 2.8c1.2 1.6 4.6 5.8 7.4 9.4 2.9 3.7 5.3 6.7 5.4 6.7 0.1 0 1.5-5.5 3.2-12 1.7-6.6 3.1-12.1 3.2-12.3 0.1-0.2 2.1 1.2 5.3 3.5 2.8 2.1 5.2 3.8 5.3 3.8 0.1 0 0-2.8 0-6.2-0.1-3.4-0.1-6.2-0.1-6.2 0.1 0 5 2.1 10.9 4.5 6 2.4 10.8 4.5 10.9 4.4 0 0-2.1-8.1-4.7-18-2.7-9.8-4.8-17.9-4.7-18 0 0 6-0.7 13.1-1.5 7.2-0.8 13.1-1.6 13.2-1.6 0 0-1.9-2-4.2-4.4-2.2-2.4-4.1-4.4-4.1-4.4l10.9-4c5.9-2.2 10.8-4 10.9-4 0-0.1-4.5-2.9-9.9-6.4-5.4-3.5-10.7-6.8-11.6-7.4l-1.7-1.1 6.3-4.5q0.7-0.6 1.5-1.1 0.8-0.6 1.5-1.2 0.8-0.5 1.6-1.1 0.7-0.6 1.4-1.3c0 0-2.6-0.8-5.6-1.7-3-0.9-5.5-1.7-5.6-1.8-0.1-0.1 3-3.9 7-8.6 6.9-8.1 7.2-8.5 6.6-8.6-0.4-0.1-8.5-0.5-18.2-1-9.7-0.5-17.5-0.9-17.7-1-0.1-0.1 0.4-2.5 3.5-18 0.9-4.3 1.6-7.9 1.6-7.9-0.1 0-2.6 1.2-5.6 2.7-3 1.4-5.5 2.6-5.5 2.5 0-0.1-0.3-5.1-0.5-11.1-0.2-6-0.4-10.9-0.5-11 0 0-4.5 3.7-10 8.2-5.4 4.5-10 8.3-10.1 8.3q-0.4-1-0.8-2-0.4-1-0.7-2-0.4-1-0.7-2-0.3-1-0.6-2.1c-1.5-4.4-2.7-8.1-2.7-8.1-0.1 0-1.7 2.3-3.7 5.3-2.1 2.9-3.8 5.3-3.9 5.3 0 0-2.7-4-5.7-9-6.8-11.1-6-10-6.3-9.2z"/>
		<path fill-rule="evenodd" class="s1" d="m233.3 72.2c0 0 2.5 3.9 5.4 8.7 2.9 4.8 5.4 8.7 5.5 8.7 0 0 1.5-2.1 3.3-4.6 1.7-2.6 3.2-4.7 3.3-4.7 0.1 0 1.1 3.1 2.4 7 1.2 3.9 2.3 7.1 2.4 7.3 0.1 0.2 2-1.2 5.6-4.2 2.9-2.5 7.2-6 9.3-7.8q0.5-0.4 1-0.8 0.5-0.4 1-0.8 0.5-0.4 1-0.8 0.5-0.4 1-0.7c0.1 0.1 0.3 4.6 0.5 10.1 0.2 5.5 0.4 10 0.5 10.1q0.6-0.2 1.3-0.4 0.6-0.3 1.2-0.5 0.6-0.3 1.2-0.6 0.6-0.3 1.2-0.6c2.5-1.2 4.7-2.3 4.7-2.2 0 0-1 5.2-2.3 11.5-1.3 6.3-2.2 11.5-2.2 11.6 0.1 0 7.3 0.4 15.9 0.9 8.6 0.4 16.1 0.8 16.7 0.9l1.1 0.2-6.6 7.8c-3.6 4.2-6.6 7.9-6.6 8q0.6 0.2 1.2 0.4 0.5 0.2 1.1 0.4 0.6 0.2 1.2 0.4 0.6 0.2 1.2 0.3c2.6 0.8 4.7 1.5 4.9 1.6q-0.6 0.6-1.3 1.1-0.6 0.5-1.2 1-0.7 0.5-1.3 1-0.7 0.5-1.4 0.9c-2.9 2.2-5.4 4-5.4 4.1 0 0.1 4.8 3.2 10.6 6.9 5.8 3.7 10.6 6.8 10.7 6.9 0 0.1-4.4 1.8-9.9 3.8-5.4 2-9.9 3.7-10 3.8q0.4 0.5 0.8 1 0.5 0.5 0.9 1 0.4 0.5 0.9 0.9 0.4 0.5 0.9 0.9 0.4 0.5 0.9 1 0.4 0.4 0.8 0.9 0.4 0.5 0.8 1 0.4 0.5 0.8 1c-0.1 0.1-5.4 0.7-11.7 1.4-9 1-11.6 1.4-11.6 1.6 0 0.2 1.9 7.7 4.4 16.7 2.4 9 4.3 16.3 4.3 16.4 0 0-4.5-1.8-10-4.1-5.5-2.3-10.1-4.2-10.2-4.2q-0.1 0.7-0.1 1.4-0.1 0.6-0.1 1.3 0 0.7 0 1.4 0.1 0.6 0.1 1.3c0.1 3 0.1 5.4 0.1 5.4-0.1 0-2.1-1.5-4.6-3.3q-0.5-0.4-1.1-0.8-0.5-0.4-1.1-0.8-0.6-0.4-1.2-0.7-0.6-0.4-1.2-0.7c-0.1 0.1-1.4 5.1-3 11.2-1.6 6-2.9 11.1-3 11.2q-0.9-1-1.8-2-0.9-1.1-1.8-2.1-0.9-1.1-1.7-2.2-0.9-1.1-1.7-2.2c-3.7-4.8-6.9-8.8-7-8.8 0 0-1.4 2.3-2.8 5q-0.3 0.6-0.6 1.3-0.3 0.6-0.7 1.2-0.3 0.6-0.7 1.2-0.4 0.6-0.7 1.2c-0.1-0.1-2.4-4.9-4.9-10.6-2.6-5.7-4.7-10.4-4.8-10.5-0.1-0.1-6.7 4.1-14.7 9.3-7.9 5.3-14.5 9.5-14.5 9.5 0 0 0.3-5.1 0.8-11.2 0.5-6.1 0.8-11.2 0.7-11.3-0.1-0.1-2.6 0.8-5.6 1.8-3.1 1.1-5.6 1.9-5.6 1.9 0-0.1 0.7-2.6 1.7-5.5 1-3 1.8-5.5 1.7-5.5-0.1-0.1-14.7 0.8-19.4 1.1l-2 0.2 6.2-9.3c3.9-5.8 6.1-9.4 5.9-9.4-0.2-0.1-3-0.6-6.2-1.2l-5.9-1 8.1-7.5c4.5-4.1 8.4-7.7 8.6-7.9 0.4-0.3-0.5-1-13-11.2-7.4-6-13.3-10.9-13.2-11 0.1-0.1 4.7-1.2 10.2-2.6l10.4-2.5c0.2-0.2-1.1-2.1-3.4-5-2-2.7-3.6-4.9-3.6-5 0-0.2 3.1-0.2 7-0.2 3.8 0 7 0 7-0.1 0-0.1-1.8-4.6-4-10.2-2.2-5.5-3.9-10-3.8-10.1 0 0 4.5 1.2 9.9 2.7 5.3 1.5 9.8 2.7 9.9 2.6q0-0.7-0.1-1.4-0.1-0.8-0.1-1.5-0.1-0.7-0.2-1.4-0.1-0.7-0.2-1.5-0.1-0.7-0.2-1.4-0.1-0.7-0.2-1.4-0.1-0.7-0.2-1.5 0-0.7-0.1-1.4c0.1-0.1 4.6 2.4 10 5.5 6 3.4 10 5.6 10.1 5.4 0.1-0.1 2.8-7.3 6.1-15.9 3.2-8.5 6-15.5 6.1-15.5zm16.8 35.9q-1.7-0.2-3.5-0.4-1.7-0.1-3.5-0.2-1.8 0-3.5 0.1-1.8 0-3.5 0.2c-10.6 1.5-20.3 6.8-27.3 14.9-7 8.1-10.8 18.4-10.8 29.1 0 10.7 3.8 21 10.8 29.1 7 8.1 16.7 13.3 27.3 14.9q1.7 0.2 3.4 0.2 1.7 0.1 3.5 0.1 1.7-0.1 3.4-0.2 1.7-0.1 3.4-0.4c4.4-0.8 8.6-2.2 12.5-4.3 3.9-2 7.5-4.6 10.6-7.7 3.2-3.1 5.9-6.6 8-10.5 2.1-3.9 3.6-8.1 4.5-12.4 0.6-2.8 0.6-3.4 0.6-8.7 0-5.1 0-6.1-0.5-8.5-0.7-3.6-1.8-7.1-3.4-10.4-1.6-3.3-3.5-6.5-5.9-9.3-2.3-2.9-4.9-5.4-7.9-7.6-3-2.2-6.2-4-9.6-5.4q-1-0.5-2.1-0.8-1-0.4-2.1-0.7-1.1-0.4-2.2-0.6-1.1-0.3-2.2-0.5z"/>
		<path class="s1" d="m235.8 111.1c-4.2 0.7-8.2 2-11.9 3.8-3.8 1.9-7.3 4.4-10.3 7.3-3 2.9-5.6 6.3-7.6 10-2 3.7-3.4 7.7-4.2 11.8q-0.3 1.9-0.4 3.7-0.1 1.9-0.2 3.8 0 1.9 0.1 3.7 0.2 1.9 0.4 3.8 0.3 1.7 0.8 3.4 0.5 1.7 1.1 3.4 0.6 1.6 1.3 3.2 0.7 1.6 1.6 3.2 1.6 2.8 3.7 5.3 2 2.5 4.4 4.7 2.4 2.2 5.1 4 2.7 1.8 5.6 3.1c10.7 4.7 22.8 4.6 33.4-0.2 10.6-4.8 18.7-13.9 22.2-25 3.6-11.1 2.2-23.1-3.6-33.2-5.9-10-15.7-17.1-27.1-19.5q-1.8-0.3-3.6-0.4-1.8-0.2-3.6-0.2-1.8 0-3.6 0-1.8 0.1-3.6 0.3z"/>
		<path class="s1" d="m580.1 130.8c-0.6 1.2-0.9 4.5-1.1 12.7l-0.2 4.4h3.5l-0.1-1.1c0-0.6-0.2-4.6-0.5-8.7-0.5-8.4-0.7-9.3-1.6-7.3z"/>
		<path class="s1" d="m582.5 151.3q-0.8 0-1.7 0.1-0.8 0.1-1.7 0.2-0.8 0.1-1.7 0.3-0.8 0.1-1.7 0.3-0.1 0.2-0.1 0.5 0 0.3-0.1 0.6 0 0.3 0 0.5 0 0.3 0 0.6c0 2.1 0 2.1 0.6 2 0.3 0 2.1-0.3 4.1-0.6 4.4-0.6 4.6-0.7 4.6-1.8 0-0.5 0.1-1.4 0.2-2 0.1-0.5 0.1-1-0.1-1-0.2 0-1.2 0.2-2.4 0.3z"/>
		<path class="s1" d="m586.3 160.1q-0.3 0.1-0.7 0.1-0.3 0.1-0.7 0.1-0.3 0-0.7 0-0.4 0-0.7 0-0.5 0-0.9 0.1-0.4 0-0.8 0-0.5 0.1-0.9 0.1-0.4 0-0.9 0.1c-0.8 0.1-2.5 0.3-3.7 0.4q-0.3 0-0.7 0.1-0.4 0-0.7 0.1-0.4 0.1-0.7 0.2-0.3 0.1-0.7 0.2c-0.6 0.4-0.6 0.5-0.6 3.5v3.1h0.7c1.2 0 12.4-1.6 12.8-1.9 0.5-0.2 0.6-0.4 1-3.6 0.2-1.2 0.3-2.3 0.3-2.4 0.1-0.4-0.3-0.4-1.4-0.2z"/>
		<path class="s1" d="m581 170.6q-3.2 0.5-6.3 1.3-3.1 0.8-6.1 2-3 1.2-5.9 2.7-2.8 1.5-5.5 3.4-1.4 1.1-2.7 2.4-1.3 1.3-2.5 2.7-1.2 1.4-2.3 2.9-1 1.5-1.9 3.1-0.1 0.1-0.2 0.3-0.1 0.1-0.2 0.3-0.1 0.2-0.2 0.3-0.1 0.2-0.1 0.4c0 0.1 9.4-1.8 20.7-4l20.7-4 8.2 2.7c12 4 20.6 6.4 24.3 6.8l1.3 0.1-0.1-0.8c-0.6-2.9-3-6.8-6-10q-2.2-2.3-4.7-4.3-2.4-1.9-5.2-3.5-2.7-1.5-5.7-2.6-2.9-1.1-6-1.8-1.7-0.2-3.4-0.3-1.7-0.2-3.4-0.2-1.7-0.1-3.4 0-1.7 0-3.4 0.1z"/>
		<path class="s1" d="m575.2 190.3c-27.3 5.3-31.3 6.1-35 6.9-2.2 0.5-4.2 1-4.6 1.2q-0.3 0.2-0.5 0.4-0.2 0.3-0.3 0.6-0.2 0.3-0.2 0.7 0 0.3 0.1 0.6 0.2 0.4 0.4 0.7 0.3 0.3 0.6 0.5 0.3 0.2 0.7 0.3 0.4 0.1 0.8 0.1c0.5 0 11.8-1.5 25-3.4l24-3.4 4.3 1.4c20.7 6.5 40.3 12.1 43.2 12.2 1.2 0 1.2 0 1.5-0.7q0.1-0.5 0.1-0.9 0-0.4-0.1-0.8-0.1-0.4-0.3-0.8-0.2-0.4-0.5-0.7c-0.7-0.7-7.8-3.6-21.3-8.7-7-2.7-24.6-8.7-25.1-8.7-0.1 0-5.9 1.1-12.8 2.5z"/>
		<path class="s1" d="m584.4 199c-9.3 1.3-26.3 4.3-40.6 7.3-0.5 0-0.8 0.3-0.8 0.5 0 0.5 2.4 66.7 2.4 68.7l0.1 1.4 3.3-2.1q0.4-0.3 0.8-0.6 0.5-0.3 0.9-0.5 0.5-0.3 0.9-0.5 0.5-0.3 1-0.5c0.1 0.1 2.6 2.2 5.6 4.6 6 4.9 5.5 4.7 8.6 4q1.4-0.2 2.8-0.3 1.5-0.2 2.9-0.2 1.5 0 3 0.2 1.4 0.1 2.8 0.3 0.4 0 0.9 0.1 0.4 0.1 0.8 0.1 0.4 0.1 0.8 0.2 0.4 0.1 0.8 0.2c0.2 0.2 2.4 2.2 4.8 4.6q0.6 0.6 1.2 1.2 0.6 0.6 1.3 1.2 0.6 0.6 1.3 1.1 0.6 0.6 1.3 1.2c0.8 0.4 2.9 0.1 6.5-1 3.3-1.1 6-2.5 11.3-5.9 5.1-3.3 7.3-4.5 9.5-5.4q0.6-0.2 1.1-0.3 0.6-0.2 1.2-0.3 0.6 0 1.2-0.1 0.6 0 1.1 0.1c2.4 0 3.2-0.2 3.8-0.5l0.8-0.4v-32.2c0-25.7-0.1-32.4-0.3-32.5-6-2.5-15.1-5.8-20.6-7.4-3.7-1.1-9.5-2.9-12.7-3.9-8.6-2.7-8.1-2.6-9.8-2.4z"/>
		<path class="s1" d="m550.9 277.3q-0.4 0.3-0.7 0.7-0.3 0.3-0.6 0.6-0.3 0.4-0.6 0.8-0.2 0.3-0.5 0.7c-0.8 1.2-8.8 11.7-17.7 23.3-8.9 11.6-16.3 21.3-16.4 21.5-0.1 0.1 0 0.2 0.4 0.2 0.4 0 1.9-1.5 7.6-8.1 14.4-16.9 23.2-26.9 27.1-30.7 2-1.9 2.3-2.2 3-2.2 1.6 0 4.5 2.3 30.7 23.7 4.3 3.5 8.1 6.6 8.4 6.8 0.6 0.3 0.7 0.3 2.1 0 0.7-0.2 1.7-0.5 2.1-0.7l0.7-0.3-1.1-0.6c-1.4-0.9-7.5-6.1-19.2-16.1-5-4.3-10.5-9-12.2-10.3-1.7-1.4-5-4.2-7.4-6.2-2.5-2-4.6-3.6-4.7-3.6q-0.1 0-0.3 0.1-0.1 0.1-0.2 0.1-0.2 0.1-0.3 0.2-0.1 0-0.2 0.1z"/>
		<path class="s1" d="m630.2 279.8c-3.8 2.7-14.8 13.1-24.8 23.4l-6.1 6.4 1 1.2q0.1 0.2 0.2 0.3 0.2 0.2 0.3 0.3 0.1 0.2 0.3 0.3 0.1 0.2 0.3 0.3c0.3 0 2.5-2.1 12.3-11.3 14.3-13.7 19.5-18.2 21.3-18.6q0.1-0.1 0.3-0.1 0.1 0 0.3 0 0.1 0 0.3 0 0.1 0 0.3 0.1c2 0.5 5.9 6.5 17.5 27.5 8 14.5 7.5 13.7 8.9 14.3q0.5 0.2 0.9 0.4 0.5 0.2 1.1 0.3 0.5 0.2 1 0.3 0.5 0.1 1.1 0.1l1.2 0.2 0.2 6.5 0.1 6.5 2.1 1c1.1 0.5 2.1 1 2.2 1 0 0 0.1-2.9 0.1-6.3v-6.3l-2.3-1.6q-0.6-0.4-1.1-0.8-0.6-0.4-1.2-0.7-0.6-0.3-1.3-0.5-0.6-0.2-1.3-0.4-0.4-0.1-0.8-0.2-0.4-0.2-0.7-0.3-0.4-0.2-0.8-0.3-0.3-0.2-0.7-0.4-0.4-0.6-0.8-1.3-0.4-0.6-0.8-1.3-0.3-0.6-0.7-1.3-0.4-0.6-0.7-1.3c-6.2-11.8-13.6-24.9-16.3-29.2-2.3-3.5-6.3-7.6-8.3-8.6-2-1.1-2.6-1-4.6 0.4z"/>
		<path class="s1" d="m620.1 282.1c-1.7 0.3-4.2 1.7-9.9 5.3q-1.6 1.1-3.2 2-1.7 1-3.3 1.8-1.7 0.9-3.4 1.7-1.8 0.8-3.5 1.5-0.5 0.2-0.9 0.3-0.5 0.1-1 0.1-0.5 0.1-1 0.1-0.4 0-0.9-0.1c-2.3-0.1-2.4-0.1-3.6-0.9-0.6-0.4-2.8-2.4-5-4.4-2.1-2-4-3.8-4.2-4-0.8-0.6-9.5-1.3-11.4-0.9-1.1 0.2-1.3 0.3-1.1 0.6 0.5 0.4 25 21.4 26.5 22.7l1.2 1 6.6-6.8c5.9-6.1 14.5-14.6 19.2-18.9 1.5-1.4 1.6-1.5 1-1.5-0.4 0.1-1.3 0.2-2.1 0.4z"/>
		<path fill-rule="evenodd" class="s1" d="m635.5 285.9c0.6 0.5 15.8 26.6 19.9 34 2.5 4.5 4 6.2 6.3 7.1l1.4 0.6v4.9c0 3.1 0 5-0.2 5-0.3 0-61.1-19-61.1-19.1q-0.1-0.2-0.1-0.3-0.1-0.2-0.1-0.3 0-0.2 0-0.4-0.1-0.1-0.1-0.3c-0.1-1.2-0.1-1.3 0.4-1.5 0.9-0.3 3-2.2 11.3-10.1 11.4-10.8 17.6-16.5 20.6-18.8 1.1-0.9 1.5-1.1 1.7-0.8zm-8 17.2q-1.5 1.1-2.6 2.7-1.1 1.6-1.6 3.4-0.5 1.8-0.5 3.7 0.1 1.9 0.7 3.7c1.6 4.3 4.8 7.5 8.4 8.3 3.7 0.8 7 0.7 9.3-0.4q0.6-0.2 1.2-0.6 0.6-0.3 1.1-0.7 0.5-0.5 0.9-1 0.4-0.5 0.8-1.1c2.6-4 3.1-8.4 1.2-12.4q-0.8-1.4-1.8-2.7-1-1.2-2.3-2.2-1.3-1-2.7-1.7-1.4-0.8-3-1.2c-3.3-0.7-5.8-0.1-9.1 2.2z"/>
		<path class="s1" d="m632 304.3q-0.4 0.1-0.7 0.3-0.4 0.2-0.7 0.4-0.3 0.2-0.6 0.4-0.4 0.2-0.7 0.4-0.4 0.3-0.7 0.6-0.4 0.3-0.7 0.6-0.3 0.4-0.5 0.8-0.3 0.4-0.5 0.8-0.4 1-0.5 2-0.2 1-0.2 2 0 1.1 0.2 2.1 0.3 1 0.7 1.9 0.3 0.8 0.8 1.4 0.4 0.7 0.9 1.3 0.6 0.6 1.2 1.1 0.6 0.5 1.3 0.9c2.5 1.1 6.6 1.2 8.6 0.3 2.6-1.2 4.7-5.2 4.4-8.6q-0.1-0.8-0.4-1.6-0.2-0.8-0.6-1.5-0.4-0.8-0.9-1.4-0.5-0.7-1.1-1.2c-2.8-2.9-6.3-4-9.3-3z"/>
		<path class="s1" d="m550.2 290.1c-2.8 3-9.7 10.7-17.9 20.2-10.7 12.5-13.3 15.6-13 15.7 0.3 0.1 33.2-2.9 33.1-3q-0.2-0.1-0.4-0.2-0.3 0-0.5 0-0.2-0.1-0.4-0.1-0.2 0-0.5 0c-3.9-0.3-8.3-3.7-10.4-8q-0.3-0.5-0.6-1-0.2-0.5-0.3-1.1-0.2-0.5-0.2-1.1-0.1-0.6 0-1.2c-0.2-4.2 0.7-6.8 3.4-9.3 3.2-3 5.4-4.1 9.2-4.2q1-0.1 2 0 0.9 0 1.9 0.2 0.9 0.2 1.9 0.6 0.9 0.3 1.7 0.8c8 3.8 10.5 10.8 6.8 18.3q-0.4 0.7-0.9 1.4-0.5 0.7-1.1 1.3-0.6 0.6-1.3 1-0.7 0.5-1.4 0.9-0.3 0.1-0.6 0.3-0.3 0.1-0.6 0.3-0.3 0.1-0.6 0.2-0.3 0.1-0.7 0.2c-0.2 0-0.3 0.1-0.2 0.1 0.1 0.1 9-0.7 19.6-1.7 10.6-1 19.5-1.8 19.6-1.8 0.2 0 0.3-0.4 0.3-1 0-0.7-0.1-1.1-0.3-1.1q-0.2 0-0.5 0.1-0.3 0.1-0.6 0.1-0.2 0.1-0.5 0.2-0.3 0.1-0.5 0.2c-2.6 0.8-4.3 1-5 0.5-0.4-0.2-3.9-3-7.8-6.2-4-3.2-11.9-9.5-17.7-14.1-5.9-4.6-11-8.7-11.6-9.1l-1-0.8z"/>
		<path class="s1" d="m550 300.2q-0.8 0.2-1.5 0.5-0.7 0.3-1.4 0.7-0.7 0.5-1.3 1-0.6 0.5-1.1 1c-2 1.9-2.5 3.2-2.5 6.2q-0.1 0.5-0.1 1 0.1 0.5 0.2 0.9 0.1 0.5 0.3 0.9 0.1 0.5 0.4 0.9 0.4 0.9 1 1.6 0.6 0.8 1.3 1.5 0.6 0.7 1.4 1.3 0.8 0.6 1.7 1c1.4 0.7 1.8 0.8 4.1 0.9 6.1 0.3 9.5-1.4 11.2-5.6q0.2-0.5 0.3-0.9 0.1-0.5 0.2-1 0.1-0.5 0.1-1 0-0.5-0.1-1c0-2.3 0-2.6-0.7-3.8-1.4-2.6-5.4-5.4-8.9-6.1q-0.5-0.2-1.1-0.2-0.6-0.1-1.2-0.1-0.6 0-1.1 0.1-0.6 0-1.2 0.2z"/>
		<path class="s1" d="m556 327.4c-34.7 3.7-43 4.6-43.9 4.4q-0.5-0.1-1-0.2-0.5 0-1 0-0.4 0-0.9 0-0.5 0.1-1 0.2c-0.8 0.5 0.9 3.8 2.5 4.9q0.2 0.1 0.4 0.2 0.2 0.2 0.4 0.3 0.2 0.2 0.3 0.3 0.2 0.2 0.4 0.4 0.1 0.1 0.2 0.2 0.2 0.1 0.4 0.2 0.1 0.1 0.3 0.1 0.2 0.1 0.4 0.1c0.4 0 21.1-2 46.1-4.3 24.9-2.4 45.4-4.3 45.6-4.2 0.8 0.2 68.5 20.4 68.8 20.5q0.1 0 0.2 0 0.1 0 0.2-0.1 0.1 0 0.2-0.1 0.1 0 0.2-0.1l0.6-0.5-0.9-1.2q-0.2-0.3-0.5-0.6-0.2-0.3-0.4-0.6-0.3-0.3-0.5-0.6-0.3-0.3-0.5-0.5l-1-1-35.8-11.2c-19.6-6.2-36-11.2-36.4-11.2-0.4 0-19.9 2.1-43.4 4.6z"/>
		<path class="s1" d="m511.7 328.4q0.1 0 0.2 0 0.1 0 0.2 0 0.1 0 0.2 0 0.1 0 0.2 0 0.2-0.1-0.5-0.1-0.6 0-0.3 0.1z"/>
		<path class="s1" d="m557.7 337.6c-23.8 2.3-43.3 4.2-43.3 4.3-0.1 0 0.4 137.7 0.6 137.9 0.2 0.2 3.6-0.1 7.9-0.4l7.6-0.6v-3.2c0-1.8-0.3-11.6-0.7-21.9-1.3-31.9-1.5-38.3-1.7-53.8-0.3-13.6-0.3-15.4 0.1-19 1.2-12.2 5-21.4 11.2-27.6q1-1 2.2-1.9 1.1-0.8 2.3-1.5 1.2-0.7 2.5-1.3 1.3-0.5 2.7-0.9 0.5-0.1 1.1-0.3 0.6-0.2 1.1-0.4 0.6-0.2 1.1-0.4 0.6-0.3 1.1-0.5 1-0.5 2-0.9 1-0.3 2-0.6 1.1-0.3 2.1-0.4 1.1-0.2 2.1-0.2c10.1-0.6 17.9 5.3 21.7 16.3q0.5 1.4 1 2.8 0.4 1.5 0.7 2.9 0.3 1.5 0.6 3 0.2 1.5 0.3 3c0.1 1.8 0.3 3.8 0.3 4.3 0.1 0.5 0.4 4.1 0.8 8 0.5 6.2 0.6 9.3 0.8 26.2 0.2 17.8 1 64 1 64.1 0 0 13.1-1.1 13.2-1.1 0 0 0-31.5 0-70v-70h-0.7c-0.3 0-20 1.9-43.7 4.1z"/>
		<path class="s1" d="m605.4 404.3c0 38.3 0.1 69.6 0.2 69.6 0.1 0 2 0.5 4.3 1q0.5 0.2 1 0.3 0.6 0.1 1.1 0.2 0.5 0.2 1.1 0.2 0.5 0.1 1 0.2c0.2-0.2 0.7-51.6 0.5-58.1-0.1-3.9-0.4-10.3-0.8-15.8-0.4-5-0.8-11.3-0.9-13.9-0.4-11.2 1.1-19.1 4.7-25 3.5-5.7 7.5-8.3 15.1-10 3.2-0.7 9.9-0.8 12.1-0.1 3.5 1.1 8.9 5.7 11.9 10.2q1 1.5 1.9 3.2 0.8 1.6 1.5 3.3 0.7 1.8 1.3 3.5 0.5 1.8 0.9 3.6c1.2 6.5 1.7 18.3 1.3 30.3-0.1 4.6-0.3 13.9-0.5 20.6-0.1 6.7-0.3 16.9-0.4 22.8-0.2 5.8-0.3 16.5-0.4 23.7l-0.2 13.1 5.2 1.2 5.2 1.2 0.1-68c0-37.3 0-68-0.1-68 0-0.1-14.6-4.2-32.4-9.2-17.9-5-32.9-9.2-33.5-9.3l-1.2-0.4z"/>
		<path class="s1" d="m560.7 347.3q-0.7 0.1-1.3 0.2-0.6 0.1-1.2 0.3-0.6 0.2-1.2 0.4-0.6 0.2-1.2 0.5c-1.2 0.5-1.6 0.8-3.3 3.1q-0.7 0.9-1.3 1.9-0.7 0.9-1.3 1.9-0.6 0.9-1.1 1.9-0.6 1.1-1.1 2.1-0.7 1.6-1.3 3.3-0.7 1.6-1.2 3.4-0.5 1.7-0.9 3.4-0.4 1.7-0.7 3.5c-0.6 3.8-0.9 16.6-0.6 30 0.3 12.2 2.7 74.2 2.9 74.5q1.1-0.1 2.2-0.1 1.1-0.1 2.1-0.1 1.1-0.1 2.2-0.3 1.1-0.1 2.2-0.2c0.1-0.1 0.2-12.9 0.3-28.4 0.1-15.5 0.3-29 0.3-30 0.1-1 0.3-5.2 0.4-9.3 0.3-8.7 0.8-17.4 1.2-19.4 2-11 9.5-18.7 19.8-20q0.5-0.1 1-0.1 0.5-0.1 1-0.1 0.5 0 1 0.1 0.5 0 1 0.1 0.2 0 0.5 0.1 0.2 0 0.5 0 0.2 0 0.5 0 0.2 0 0.5 0-0.2-1-0.5-2.1-0.2-1.1-0.5-2.2-0.3-1-0.6-2.1-0.3-1-0.7-2.1c-3-8.6-8-13.3-15.3-14.2q-0.5-0.1-1.1-0.2-0.5 0-1.1 0-0.5 0-1 0.1-0.6 0-1.1 0.1z"/>
		<path class="s1" d="m546.6 352.3c-6 3.2-10.9 10.7-13.3 20.1q-0.5 2.3-0.9 4.7-0.3 2.3-0.6 4.7-0.2 2.4-0.3 4.7-0.1 2.4 0 4.8c0.1 1.3 0.2 7.6 0.4 13.9 0.3 16 2.4 72.9 2.6 73.2q0.5 0 1 0 0.6 0 1.1 0 0.5-0.1 1-0.1 0.5 0 1-0.1c3.6-0.3 3.9-0.3 3.9-0.8 0-0.2-0.8-20.4-1.8-44.8-1.8-44.6-1.8-46.9-1.2-53.1 0.9-10.2 3.8-19.6 7.8-25.9 1.5-2.2 1.5-2.2 1.2-2.2-0.6 0.2-1.3 0.6-1.9 0.9z"/>
		<path class="s1" d="m633.7 356.2c-4.8 0.9-8 2.3-10.4 4.8-3.5 3.4-5.7 8.5-6.6 15q-0.2 2.5-0.3 4.9-0.1 2.5-0.1 5-0.1 2.4 0 4.9 0.1 2.5 0.2 4.9c0.2 2 0.6 6.7 0.9 10.4 0.5 7.8 0.6 19.6 0.3 51.6l-0.2 19 8.2 1.9c4.4 1 11 2.5 14.4 3.4 3.4 0.8 6.3 1.5 6.3 1.4 0 0 0.9-18.4 1.3-30.1 0.4-9.5 0.4-51.2 0-59.5-0.6-14.3-1.2-18.1-3.7-24.5-2-5-6.7-13.7-7.4-13.6-0.2 0-1.5 0.2-2.9 0.5z"/>
		<path class="s1" d="m641.3 356.5q1 1.7 1.9 3.5 1 1.7 1.8 3.5 0.9 1.8 1.7 3.6 0.7 1.8 1.4 3.6c2.1 5.8 2.7 13.3 3.2 36.4 0.4 19.3 0.1 39.1-1.1 64.5-0.3 6.8-0.5 12.6-0.4 12.6 0.1 0.1 1.9 0.6 4.1 1 2.1 0.5 4.1 1 4.3 1 0.2 0.1 0.4-0.6 0.5-6.7 0.1-3.8 0.3-13.1 0.5-20.6 1.6-62.4 1.5-73.5-0.1-81.8-1.5-7.3-5.5-14.2-10.6-18.4q-0.7-0.6-1.4-1.1-0.7-0.5-1.5-0.9-0.8-0.3-1.6-0.6-0.9-0.3-1.7-0.4l-1.6-0.2z"/>
		<path class="s1" d="m574.5 374.3q-1.3 0.3-2.5 0.9-1.2 0.5-2.3 1.3-1.2 0.7-2.2 1.6-1 0.8-1.8 1.8-1 1.4-1.8 2.9-0.8 1.5-1.5 3.1-0.7 1.6-1.3 3.2-0.6 1.6-1 3.3c-1.3 6.1-1.8 21.1-2 66.6l-0.1 17.8 1.1-0.1c0.6-0.1 6.8-0.5 13.8-1 7-0.5 12.7-0.9 12.7-0.9 0 0-0.1-7.2-0.2-15.9-0.2-8.7-0.5-26.9-0.6-40.4-0.3-24-0.3-24.8-1-33.9-0.4-5.1-0.8-9.4-0.9-9.5-0.7-0.7-6.2-1.3-8.4-0.8z"/>
		<path class="s1" d="m588 477.9c-23.6 1.9-58.1 4.4-74.9 5.6-3.9 0.2-7.6 0.6-8.3 0.7q-0.5 0.1-1.1 0.3-0.5 0.1-1 0.3-0.4 0.3-0.9 0.6-0.4 0.3-0.8 0.6c-1 1.3-1.2 4.1-0.3 4.6q0.2 0.1 0.4 0.1 0.1 0.1 0.3 0.1 0.2 0.1 0.3 0.1 0.2 0 0.4 0.1c0.6 0.1 20.5-1.5 51-3.9l50.1-4.1 28.2 7.2c50.5 12.8 46.9 11.9 50.2 12.1 3.5 0.1 4.2-0.1 4.4-1.6q0-0.4 0-0.8 0-0.4-0.1-0.8-0.1-0.4-0.3-0.8-0.1-0.4-0.3-0.7c-1.2-1.6-4.2-2.9-8.6-3.7-2.2-0.5-12.9-2.9-49.8-11.6-16.4-3.9-23.7-5.5-24.6-5.4-0.7 0-7.1 0.4-14.3 1z"/>
		<path fill-rule="evenodd" class="s1" d="m601 486.8h0.9v13.7c0 7.5 0.2 150.9 0.6 318.5 0.3 167.7 0.6 306.3 0.6 308v3.2l-2-0.9c-4.9-2.3-6.6-2.6-9.4-1.7-1.4 0.4-1.8 0.5-5 0.2-1.9-0.1-8.6-0.8-15-1.4-14.9-1.5-16.4-1.7-19.7-1.7-2.3 0-3 0.1-3.8 0.5q-0.7 0.3-1.4 0.5-0.7 0.2-1.4 0.4-0.7 0.2-1.4 0.3-0.7 0.1-1.5 0.2-1 0.2-2.1 0.3-1 0.1-2.1 0.2-1.1 0-2.1 0.1-1.1 0-2.1 0.1c-0.1-0.1-0.3-10.9-0.4-24.2-0.1-13.2-0.5-52.8-0.8-88.1-0.7-76.3-1.4-148.3-2.8-291.6-0.6-58.6-1.3-128-1.6-154.2-0.2-26.2-0.5-54.2-0.6-62.2l-0.2-14.4 0.6-0.2c0.3 0 16.6-1.3 36.2-2.8 19.6-1.5 36-2.7 36.5-2.8zm-36.4 50.4q-1.1-0.3-2.3-0.4-1.2-0.1-2.4 0-1.2 0.1-2.4 0.4-1.1 0.4-2.2 0.9-0.9 0.6-1.7 1.3-0.9 0.6-1.6 1.4-0.8 0.7-1.5 1.5-0.7 0.8-1.3 1.7c-1.4 2.8-2.2 14.7-1.8 27l0.2 5.1 4.2 0.1c2.3 0 6.2-0.1 8.8-0.2 4.7-0.2 13.1-1.2 13.1-1.2 0.1-0.1 0.2-4.3 0.3-9.4 0.2-10.2-0.1-16.8-0.8-19.6q-0.4-1.5-1.2-2.9-0.8-1.4-1.9-2.5-1.2-1.1-2.5-1.9-1.4-0.8-3-1.2zm-0.4 109q-0.9-0.2-1.7-0.3-0.9-0.1-1.8-0.1-0.9 0-1.8 0.1-0.9 0.1-1.8 0.3c-1.9 0.7-3.3 1.7-5.7 4.2-2.5 2.5-2.7 3-3.3 7-0.6 3.6-0.9 14.8-0.7 21.7l0.2 6 8-0.1q1.6 0 3.3 0 1.6 0 3.2-0.1 1.7-0.1 3.3-0.2 1.6-0.1 3.3-0.3l5.1-0.5 0.1-3.6c0.4-9.4 0.1-21.6-0.5-24.9q-0.4-1.7-1.2-3.2-0.9-1.5-2.1-2.7-1.2-1.2-2.7-2.1-1.5-0.8-3.1-1.2zm0 112.8q-0.9-0.2-1.7-0.3-0.9 0-1.8 0-0.9 0-1.8 0.1-0.9 0.1-1.7 0.3c-2 0.7-3.4 1.6-5.8 4.1-2.5 2.6-2.7 3.1-3.3 7-0.6 3.7-0.9 14.9-0.7 21.7l0.2 6 5.7 0.1q2.2 0 4.5 0 2.2-0.1 4.5-0.2 2.2-0.1 4.4-0.3 2.3-0.2 4.5-0.5l2.5-0.3 0.1-3.5c0.5-9.5 0.2-21.6-0.5-25q-0.4-1.6-1.2-3.1-0.8-1.5-2-2.8-1.2-1.2-2.7-2-1.5-0.9-3.2-1.3zm0 116q-0.9-0.2-1.8-0.3-0.9-0.1-1.8-0.1-0.9 0-1.9 0.2-0.9 0.1-1.7 0.3c-2 0.7-3.4 1.8-5.9 4.3-2.2 2.3-2.5 2.9-3 6.8-0.6 3.6-0.9 14.8-0.7 21.7l0.2 6h5.7q2.2 0.1 4.4 0 2.3-0.1 4.5-0.2 2.2-0.1 4.5-0.3 2.2-0.2 4.4-0.5l2.6-0.2 0.1-3.6c0.5-9.4 0.2-21.6-0.5-24.9q-0.4-1.7-1.2-3.2-0.8-1.5-2-2.7-1.2-1.2-2.7-2.1-1.5-0.8-3.2-1.2zm0 115.9q-1.3-0.4-2.6-0.5-1.3 0-2.6 0.2-1.3 0.2-2.5 0.6-1.2 0.5-2.3 1.2c-2.2 1.6-5 4.7-5.4 6.1-1.1 3.3-1.8 14.8-1.4 25.2l0.1 6h8q1.7 0 3.3 0 1.6 0 3.3-0.1 1.6-0.1 3.2-0.2 1.7-0.1 3.3-0.3l5.1-0.5 0.1-3.6c0.5-9.4 0.2-21.6-0.5-24.9q-0.4-1.7-1.2-3.2-0.8-1.5-2-2.7-1.2-1.2-2.7-2.1-1.5-0.8-3.2-1.2z"/>
		<path fill-rule="evenodd" class="s1" d="m560.2 540.1q0.7 0 1.5 0.1 0.7 0 1.4 0.2 0.7 0.1 1.4 0.3 0.9 0.3 1.8 0.9 0.9 0.5 1.6 1.3 0.7 0.7 1.2 1.6 0.6 0.9 0.9 1.9c0.6 2 0.8 7.7 0.8 16.7-0.1 4.7-0.2 8.7-0.2 8.7-0.3 0.3-8.4 0.9-13.7 1l-6 0.2-0.2-2.1c-0.2-2.7 0-16.8 0.4-19.9 0.1-1.3 0.4-3 0.6-4 0.3-1.7 0.4-1.8 2.4-3.7 2-1.9 3.1-2.7 4.7-3.1q0.7-0.1 1.4-0.1zm3.1 5.6q-0.6-0.2-1.2-0.3-0.6-0.2-1.2-0.2-0.7-0.1-1.3-0.1-0.6 0-1.3 0.1c-2.5 0.7-4.3 2.9-4.9 6-0.1 0.9-0.3 5.4-0.3 10.4l-0.2 8.7 1.4-0.1c0.8-0.1 3.6-0.2 6.3-0.4 2.7-0.1 5.3-0.3 5.9-0.4l1-0.1-0.1-9.3c-0.1-9-0.1-9.4-0.6-10.5q-0.3-0.6-0.6-1.1-0.4-0.6-0.9-1-0.4-0.5-0.9-0.9-0.5-0.4-1.1-0.8z"/>
		<path class="s1" d="m558.5 548.6q-0.3 0.2-0.6 0.5-0.3 0.3-0.5 0.6-0.3 0.4-0.4 0.7-0.2 0.4-0.3 0.8c-0.1 0.6-0.2 4.1-0.3 8.3l-0.1 7.3 3-0.2c1.7-0.1 3.4-0.2 4-0.3l0.8-0.1v-7.3c0-7.2 0-7.4-0.5-8.4q-0.2-0.5-0.5-0.9-0.3-0.4-0.8-0.7-0.4-0.2-0.9-0.4-0.5-0.1-1-0.1-0.2 0-0.5 0-0.2 0-0.4 0-0.3 0-0.5 0.1-0.2 0-0.5 0.1z"/>
		<path fill-rule="evenodd" class="s1" d="m560 649.1q0.5-0.1 1-0.1 0.4 0 0.9 0.1 0.5 0.1 1 0.2 0.7 0.1 1.3 0.3 0.7 0.3 1.3 0.6 0.6 0.3 1.1 0.7 0.6 0.4 1.1 0.9 0.5 0.5 1 1.1 0.4 0.7 0.8 1.4 0.3 0.7 0.5 1.4 0.2 0.7 0.3 1.5c0.3 2 0.5 23.3 0.1 23.6-0.3 0.4-6.9 0.9-13 1l-6.5 0.2-0.2-1.5c-0.2-2.3-0.2-11.7 0.1-16.7 0.3-4.8 0.8-8.3 1.3-9.3q0.5-0.7 1.1-1.3 0.5-0.6 1.2-1.2 0.6-0.6 1.2-1.1 0.7-0.5 1.4-1 0.2-0.1 0.5-0.2 0.2-0.1 0.5-0.2 0.2-0.1 0.5-0.1 0.2-0.1 0.5-0.2 0.5-0.1 1-0.1zm1.6 5.2q-0.7-0.1-1.5-0.1-0.7 0-1.5 0.1-0.7 0.1-1.4 0.3-0.6 0.3-1.1 0.7-0.5 0.4-0.9 0.9-0.4 0.5-0.7 1-0.3 0.6-0.5 1.2c-0.7 1.8-1 5.8-1 13.8v7h0.8c0.4 0 3.6-0.1 7.1-0.4l6.5-0.4v-18.8l-0.7-1.4q-0.3-0.5-0.7-1.1-0.4-0.5-0.8-0.9-0.5-0.5-1-0.9-0.5-0.3-1.1-0.6-0.7-0.3-1.5-0.4z"/>
		<path class="s1" d="m558.5 657.7c-1.8 0.7-2.2 3.3-2.2 12.3v5.7h1c0.6 0 2.3-0.1 3.9-0.2l2.9-0.1v-7.5c0-7.3 0-7.4-0.5-8.5q-0.1-0.2-0.3-0.4-0.1-0.2-0.3-0.4-0.1-0.1-0.3-0.3-0.2-0.2-0.4-0.3-0.4-0.3-0.9-0.4-0.5-0.1-1-0.2-0.5 0-0.9 0.1-0.5 0-1 0.2z"/>
		<path fill-rule="evenodd" class="s1" d="m559.8 761.8q0.5 0 0.9 0 0.5 0 0.9 0.1 0.4 0 0.9 0.1 1.1 0.2 2.1 0.6 1 0.4 2 1 0.9 0.7 1.6 1.5 0.7 0.8 1.3 1.8c1 2.1 1.2 4.1 1.2 15.8 0 5.9-0.1 10.8-0.2 10.9-0.4 0.4-6.7 0.9-12.9 1l-6.7 0.2-0.1-1.5q-0.2-2.9-0.2-5.8 0-3 0.1-5.9 0.1-2.9 0.3-5.8 0.1-2.9 0.4-5.8c0.5-2.6 0.9-3.1 2.7-5 1.8-1.8 3.4-2.7 4.8-3q0.5-0.1 0.9-0.2zm3.9 6c-0.9-0.6-1.4-0.7-3.4-0.7-2.6-0.1-3.7 0.3-5.1 1.9-1.8 2.1-2.2 5.1-2.2 16.1v7l2.8-0.2c1.5-0.1 4.7-0.3 7.1-0.4l4.4-0.3 0.1-8.8c0.1-8.2 0-9-0.4-10.4q-0.2-0.7-0.5-1.3-0.3-0.6-0.7-1.1-0.5-0.6-1-1-0.5-0.5-1.1-0.8z"/>
		<path class="s1" d="m558.7 770.4c-2 0.7-2.5 3.5-2.4 12.7l0.1 5.5 3.9-0.2 3.8-0.2v-7.5c0-7.3 0-7.4-0.5-8.5q-0.1-0.2-0.3-0.4-0.1-0.2-0.3-0.4-0.1-0.1-0.3-0.3-0.2-0.2-0.4-0.3-0.4-0.2-0.9-0.4-0.4-0.1-0.9-0.1-0.4-0.1-0.9 0-0.5 0-0.9 0.1z"/>
		<path fill-rule="evenodd" class="s1" d="m559.8 877.8q0.4-0.1 0.9-0.1 0.4 0 0.9 0.1 0.4 0 0.8 0.1 1.1 0.2 2.2 0.6 1 0.4 1.9 1 0.9 0.6 1.7 1.5 0.7 0.8 1.2 1.8c1.1 2.1 1.2 4.1 1.2 15.8 0 5.9-0.1 10.8-0.1 10.9-0.4 0.4-7 0.9-13 1l-6.6 0.2-0.1-1.6q-0.2-2.9-0.2-5.8 0-2.9 0.1-5.8 0.1-2.9 0.3-5.8 0.1-2.9 0.4-5.8c0.5-2.6 0.9-3.2 2.7-5 1.8-1.7 3.4-2.7 4.8-3q0.5-0.1 0.9-0.1zm2.8 5.4q-0.4-0.1-0.8-0.2-0.4-0.1-0.8-0.1-0.4 0-0.9 0c-2.4 0-3.6 0.5-4.8 2-1.9 2.1-2.3 5.1-2.3 16.1v7l2.8-0.2c1.5 0 4.7-0.2 7.2-0.4l4.3-0.3 0.1-8.8c0.1-8.2 0-8.9-0.4-10.4q-0.2-0.7-0.6-1.3-0.3-0.7-0.8-1.2-0.4-0.6-1-1.1-0.6-0.4-1.2-0.8-0.4-0.2-0.8-0.3z"/>
		<path class="s1" d="m558.7 886.3c-2 0.7-2.5 3.5-2.4 12.7l0.1 5.5 3.9-0.2 3.8-0.2v-7.5c0-7.3 0-7.4-0.5-8.5q-0.1-0.2-0.3-0.4-0.1-0.2-0.3-0.4-0.1-0.1-0.3-0.3-0.2-0.2-0.4-0.3-0.4-0.2-0.9-0.4-0.4-0.1-0.9-0.1-0.4-0.1-0.9 0-0.5 0-0.9 0.1z"/>
		<path fill-rule="evenodd" class="s1" d="m559.8 993.7q0.5-0.1 0.9-0.1 0.4 0 0.9 0.1 0.4 0 0.9 0.1 1 0.2 2.1 0.6 1 0.4 1.9 1 0.9 0.6 1.7 1.5 0.7 0.8 1.3 1.8c1 2.1 1.1 4.1 1.1 15.8 0 5.9 0 10.8-0.1 10.9-0.4 0.4-6.9 0.9-13 1l-6.6 0.1-0.1-1.5q-0.2-2.9-0.2-5.8 0-2.9 0.1-5.8 0.1-2.9 0.3-5.8 0.1-2.9 0.4-5.8c0.5-2.7 0.9-3.2 2.7-5 1.8-1.7 3.4-2.7 4.8-3q0.5-0.1 0.9-0.1zm2.8 5.4q-0.4-0.1-0.8-0.2-0.4-0.1-0.8-0.1-0.5-0.1-0.9 0c-2.4 0-3.6 0.5-4.9 2-1.8 2.1-2.2 5-2.2 16v7h0.9c0.5 0 3.7-0.1 7.2-0.4l6.2-0.4 0.1-8.8c0.1-8.2 0-8.9-0.4-10.4q-0.2-0.7-0.6-1.3-0.3-0.7-0.8-1.3-0.4-0.5-1-1-0.6-0.4-1.2-0.8-0.4-0.2-0.8-0.3z"/>
		<path class="s1" d="m558.7 1002.2c-1.9 0.7-2.4 3.1-2.4 12.4v5.7h1c0.6 0 2.3-0.1 3.9-0.2l2.9-0.1v-7.5c0-7.3 0-7.4-0.5-8.5q-0.1-0.2-0.3-0.4-0.1-0.2-0.3-0.4-0.1-0.1-0.3-0.3-0.2-0.2-0.4-0.3-0.4-0.2-0.9-0.4-0.4-0.1-0.9-0.1-0.4-0.1-0.9 0-0.5 0-0.9 0.1z"/>
		<path class="s1" d="m605.3 495.8c0.5 27.6 0.6 73.3 0.9 302.3 0.1 139.6 0.2 271.5 0.2 293.1v39.3l1.3-0.1c0.6-0.1 2.5-0.5 4.2-0.8 1.7-0.3 3.1-0.6 3.2-0.6 0 0 0.1-143.8 0.1-319.5v-319.5l-4.7-1c-2.6-0.6-4.8-1.1-5-1.2-0.2 0-0.3 1.1-0.2 8z"/>
		<path fill-rule="evenodd" class="s1" d="m618.5 490.4l1.3 0.4c15.6 4 43.7 11.3 43.9 11.5 0.1 0.1-0.4 625.9-0.4 625.9 0 0-0.8-0.1-1.8-0.2-2-0.3-4.6 0.1-10 1.3-6.8 1.7-11.5 1.8-20.8 0.4-2.8-0.4-6.8-0.8-8.7-0.8l-3.5-0.2zm24.9 53.3q-0.9-0.1-1.8-0.1-0.9 0-1.8 0-0.8 0.1-1.7 0.3-1.3 0.4-2.4 0.9-1.2 0.6-2.2 1.4-1.1 0.8-1.9 1.8-0.9 1-1.5 2.1c-1.1 2.2-1.4 4.2-1.7 10.7-0.2 5.5 0 20.5 0.3 20.7 0 0.1 2.4 0.4 5.2 0.7q1.6 0.2 3.2 0.3 1.7 0.1 3.3 0.2 1.6 0.1 3.2 0.1 1.7 0 3.3 0l7.9 0.1 0.1-4.2c0.2-5.2 0-17.8-0.3-21.4-0.4-3.4-1-6.2-1.8-7.2q-0.5-0.7-1.1-1.3-0.6-0.6-1.2-1.2-0.6-0.6-1.3-1.2-0.6-0.5-1.3-1-0.3-0.2-0.7-0.4-0.3-0.2-0.6-0.4-0.4-0.2-0.8-0.3-0.3-0.1-0.7-0.3-0.8-0.2-1.7-0.3zm0.2 107.5q-0.8-0.1-1.6-0.1-0.9 0-1.7 0.1-0.8 0.1-1.6 0.3-1.3 0.3-2.4 0.8-1.2 0.6-2.2 1.3-1 0.8-1.8 1.8-0.9 0.9-1.5 2.1c-1 1.9-1.3 3.1-1.6 6.7-0.3 3.1-0.3 18.6-0.1 22.5l0.1 2.5 2.8 0.3q2.1 0.2 4.3 0.4 2.1 0.2 4.3 0.3 2.1 0.1 4.3 0.2 2.1 0.1 4.2 0.1h6.1l0.2-1.1c0.2-1.8 0.1-18.8-0.1-22.4-0.3-4-0.9-7.1-1.5-8.5-0.6-1.4-4.4-5.1-6.1-6.1q-0.3-0.1-0.6-0.3-0.3-0.1-0.6-0.2-0.3-0.1-0.6-0.3-0.3-0.1-0.7-0.2-0.8-0.1-1.6-0.2zm-0.2 107.6q-0.9-0.1-1.8-0.1-0.9 0-1.8 0-0.8 0.1-1.7 0.3-1.3 0.4-2.4 0.9-1.2 0.6-2.2 1.4-1.1 0.8-1.9 1.8-0.9 1-1.5 2.1c-1.1 2.2-1.4 4.2-1.7 10.7-0.2 5.6 0 20.5 0.3 20.7 0 0.1 2.4 0.4 5.2 0.7 3.7 0.4 7.3 0.6 13 0.6l7.9 0.1 0.1-4.2c0.2-5.1 0-17.8-0.3-21.4-0.4-3.4-1-6.2-1.8-7.2q-0.5-0.7-1.1-1.3-0.6-0.6-1.2-1.2-0.6-0.6-1.3-1.2-0.6-0.5-1.3-1-0.3-0.2-0.7-0.4-0.3-0.2-0.7-0.4-0.3-0.1-0.7-0.3-0.3-0.1-0.7-0.3-0.8-0.2-1.7-0.3zm-1 115.8q-0.8 0-1.6 0-0.9 0-1.7 0.1-0.8 0-1.6 0.2-1.2 0.3-2.4 0.9-1.1 0.5-2.1 1.3-1 0.8-1.9 1.7-0.8 1-1.5 2.1c-1 2-1.3 3.2-1.6 6.7-0.2 3.1-0.3 19.1-0.1 22.7l0.2 2.3 2.8 0.3q2.1 0.3 4.2 0.4 2.2 0.2 4.3 0.3 2.2 0.2 4.3 0.2 2.2 0.1 4.3 0.1h6l0.2-1.3c0.2-2 0.1-18.3-0.1-22-0.3-4.1-0.9-7.3-1.5-8.6-0.6-1.4-4.4-5.1-6.1-6.1q-0.3-0.2-0.6-0.3-0.3-0.1-0.6-0.3-0.3-0.1-0.7-0.2-0.3-0.1-0.6-0.2-0.8-0.2-1.6-0.3zm1.8 112q-1.6-0.2-3.2-0.1-1.6 0.1-3.2 0.5-1.5 0.5-2.9 1.3-1.4 0.9-2.6 2c-2.6 2.8-3.3 5-3.6 12.9-0.3 5.3-0.2 20.5 0.2 21.1 0.4 0.6 8.7 1.3 17.5 1.4l8.6 0.1 0.1-4.5q0.1-2.7 0.1-5.4 0-2.8 0-5.5-0.1-2.7-0.2-5.4-0.1-2.8-0.3-5.5c-0.7-5.4-1-6.1-4.2-9.1-2.3-2.2-4.2-3.4-6.4-3.8z"/>
		<path fill-rule="evenodd" class="s1" d="m639.2 547.1q0.5-0.1 0.9-0.2 0.5 0 0.9 0 0.5 0 1 0c3 0.1 3.8 0.5 6.5 3.3 1.9 1.9 2.1 2.2 2.3 3.4 0.7 3.2 0.8 5.5 0.9 15.4l0.2 10.6-7-0.1c-6.5-0.2-12.7-0.6-13-1-0.1-0.1-0.2-4.7-0.2-10.3 0-10.5 0.2-13.7 1-15.9q0.4-0.9 1-1.7 0.5-0.8 1.3-1.4 0.7-0.7 1.5-1.1 0.9-0.5 1.8-0.8 0.5-0.1 0.9-0.2zm5.6 5q-0.6-0.1-1.2-0.1-0.6-0.1-1.2-0.1-0.5 0-1.1 0.1-0.6 0-1.2 0.1-0.7 0.3-1.3 0.7-0.7 0.3-1.2 0.8-0.6 0.5-1 1.1-0.5 0.6-0.8 1.3c-0.5 1-0.5 1.2-0.6 10.6-0.1 9.1-0.1 9.6 0.3 9.6 0.3 0 3.4 0.2 7.1 0.4q0.8 0.1 1.6 0.1 0.9 0.1 1.7 0.1 0.9 0 1.7 0.1 0.9 0 1.7-0.1c0.3-0.2 0.1-14.7-0.2-17.2q0-0.5-0.1-0.9 0-0.4-0.1-0.9-0.1-0.4-0.2-0.8-0.1-0.5-0.2-0.9-0.3-0.6-0.6-1.2-0.4-0.6-0.9-1.1-0.5-0.5-1.1-0.9-0.5-0.4-1.2-0.7z"/>
		<path class="s1" d="m640.1 555.8q-0.2 0.1-0.4 0.3-0.1 0.2-0.3 0.3-0.2 0.2-0.3 0.4-0.2 0.2-0.3 0.4c-0.5 0.7-0.5 1.2-0.6 8.3v7.6l3.1 0.1c1.8 0.1 3.6 0.2 4 0.3l0.9 0.2v-4.2c0-4.8-0.3-10.5-0.7-11.9q-0.1-0.3-0.2-0.5-0.1-0.2-0.2-0.4-0.1-0.2-0.2-0.4-0.2-0.2-0.3-0.4c-0.6-0.6-0.9-0.6-2.3-0.6q-0.2-0.1-0.5-0.1-0.3 0.1-0.6 0.1-0.3 0.1-0.6 0.2-0.3 0.1-0.5 0.3z"/>
		<path fill-rule="evenodd" class="s1" d="m639.5 654.7q0.5-0.1 0.9-0.1 0.4-0.1 0.8-0.1 0.5-0.1 0.9 0 0.5-0.1 0.9-0.1 0.5 0 1 0.1 0.4 0.1 0.9 0.3 0.4 0.2 0.8 0.4c1.6 0.8 4.9 3.9 5.3 5 0.9 2.1 1.5 14.1 1.3 22.1l-0.2 4.9-6.8-0.1q-1.5 0-3.1-0.1-1.5 0-3.1-0.1-1.5-0.1-3-0.3-1.6-0.1-3.1-0.3l-0.8-0.1 0.1-11.7c0.1-7.6 0.2-12 0.4-12.9q0.2-1.1 0.8-2.2 0.5-1.1 1.3-1.9 0.8-0.9 1.8-1.6 1-0.6 2.1-1 0.4-0.1 0.8-0.2zm6 5.1q-0.6-0.1-1.3-0.2-0.6-0.1-1.3-0.1-0.6 0-1.3 0.1-0.7 0.1-1.3 0.2-0.5 0.2-0.9 0.5-0.5 0.3-0.9 0.6-0.4 0.3-0.8 0.7-0.4 0.4-0.7 0.8c-1.3 1.9-1.4 2.5-1.4 12.4v9h0.9c0.5 0 3.3 0.1 6.3 0.3 2.9 0.2 5.8 0.4 6.3 0.4h1l-0.1-8.4c-0.1-4.6-0.3-9.2-0.4-10.2-0.5-3.1-1.9-5.1-4.1-6.1z"/>
		<path class="s1" d="m640.6 663.3q-0.1 0.1-0.3 0.3-0.2 0.1-0.4 0.3-0.1 0.2-0.3 0.4-0.1 0.2-0.2 0.4c-0.5 0.9-0.5 1.4-0.5 8.4v7.6l3 0.1c1.7 0.1 3.4 0.2 3.9 0.3l0.9 0.1v-5.2c0-5.8-0.3-10.2-0.8-11.4-0.5-1.2-1.4-1.8-3.1-1.8q-0.3 0-0.6 0-0.2 0-0.5 0.1-0.3 0.1-0.5 0.2-0.3 0.1-0.6 0.2z"/>
		<path fill-rule="evenodd" class="s1" d="m639.2 762.2q0.4-0.1 0.9-0.1 0.4-0.1 0.9 0 0.5 0 0.9 0c3 0.1 3.8 0.5 6.6 3.2 1.8 1.9 2 2.2 2.3 3.4 0.6 3.3 0.8 5.6 0.9 15.4l0.1 10.6h-5.1c-4.9 0-14.1-0.6-14.7-1-0.3-0.1-0.3-2.4-0.3-10.3 0-10.6 0.2-13.8 1-15.9q0.4-0.9 1-1.7 0.5-0.8 1.3-1.5 0.7-0.6 1.5-1.1 0.9-0.5 1.8-0.8 0.5-0.1 0.9-0.2zm5.5 5q-0.5-0.1-1.1-0.1-0.6-0.1-1.2-0.1-0.6 0-1.1 0.1-0.6 0-1.2 0.1-0.5 0.2-0.9 0.4-0.4 0.2-0.8 0.5-0.4 0.3-0.8 0.6-0.4 0.3-0.7 0.7c-1.8 2-1.8 2.2-1.8 12.7v9.2h0.6c0.2 0 3.4 0.2 7 0.4q0.8 0.1 1.6 0.1 0.9 0.1 1.7 0.1 0.8 0 1.6 0.1 0.9 0 1.7-0.1c0.3-0.3 0.1-14.7-0.2-17.3q0-0.4-0.1-0.8 0-0.4-0.1-0.9-0.1-0.4-0.2-0.8-0.1-0.5-0.2-0.9-0.3-0.6-0.6-1.2-0.4-0.6-0.9-1.1-0.5-0.5-1.1-0.9-0.5-0.4-1.2-0.7z"/>
		<path class="s1" d="m639.7 771.2q-0.2 0.2-0.4 0.4-0.2 0.3-0.3 0.5-0.2 0.2-0.3 0.5-0.1 0.2-0.2 0.5-0.1 1-0.2 2-0.1 1-0.1 2 0 1 0 2 0 1 0 2v7.1l3.2 0.1c1.7 0.1 3.5 0.2 4 0.3l0.8 0.1v-4.1c0-4.8-0.3-10.6-0.7-11.9q-0.1-0.3-0.2-0.5 0-0.2-0.2-0.4-0.1-0.2-0.2-0.4-0.2-0.2-0.3-0.4c-0.6-0.6-0.9-0.7-2.4-0.7-1.5 0-1.7 0.1-2.5 0.9z"/>
		<path fill-rule="evenodd" class="s1" d="m638.4 878.2q0.4-0.1 0.8-0.2 0.4 0 0.9-0.1 0.4 0 0.8 0 0.5 0 1 0 0.4 0 0.9 0.1 0.4 0.1 0.9 0.2 0.4 0.2 0.8 0.4 0.8 0.5 1.5 1 0.7 0.6 1.3 1.2 0.7 0.6 1.3 1.3 0.6 0.6 1.1 1.3c1 1.9 1.7 13.8 1.4 22.4l-0.2 4.9-6.8-0.2q-1.5 0-3.1 0-1.5-0.1-3-0.2-1.6-0.1-3.1-0.2-1.6-0.2-3.1-0.4l-0.8-0.1 0.1-11.6c0.1-7.6 0.3-12.1 0.4-12.9q0.2-0.5 0.3-1 0.2-0.6 0.4-1 0.2-0.5 0.5-1 0.3-0.5 0.6-0.9 0.4-0.5 0.9-0.9 0.5-0.4 1-0.8 0.6-0.3 1.2-0.6 0.5-0.3 1.1-0.5 0.5-0.1 0.9-0.2zm6.5 5.4q-0.4-0.2-0.8-0.4-0.3-0.1-0.7-0.2-0.4-0.1-0.8-0.1-0.4 0-0.8 0-0.4 0-0.7 0-0.3 0-0.7 0.1-0.3 0-0.7 0.1-0.3 0.1-0.6 0.1-0.8 0.3-1.4 0.8-0.7 0.4-1.2 1-0.6 0.6-1 1.2-0.4 0.7-0.6 1.5c-0.5 1.1-0.5 1.9-0.5 10.3v9.1l4.6 0.3c2.5 0.2 5.8 0.3 7.2 0.4l2.7 0.2v-6c0-6.9-0.4-12.4-0.8-14.2q-0.2-0.7-0.5-1.3-0.3-0.6-0.7-1.1-0.4-0.6-0.9-1-0.5-0.5-1.1-0.8z"/>
		<path class="s1" d="m639.5 886.7q-0.2 0.2-0.4 0.3-0.2 0.2-0.4 0.4-0.1 0.1-0.2 0.3-0.2 0.2-0.3 0.4c-0.4 0.9-0.5 1.4-0.5 8.5v7.5l3.3 0.2c1.8 0 3.5 0.2 3.9 0.2l0.7 0.2v-5.1c0-6-0.4-10.5-0.9-11.6-0.6-1.3-1.4-1.7-3-1.7q-0.3-0.1-0.6 0-0.3 0-0.6 0-0.2 0.1-0.5 0.2-0.3 0.1-0.5 0.2z"/>
		<path fill-rule="evenodd" class="s1" d="m640 990q0.4-0.1 0.7-0.1 0.4 0 0.8 0 0.4-0.1 0.7 0c2.5 0.1 4.1 0.9 6.5 3.2 1.5 1.6 1.8 2.1 2.2 3.1 0.7 2.7 1 6.2 1 16.3v10h-5.5c-4.9 0-14-0.6-14.4-1 0 0-0.1-4.7-0.1-10.4 0-11.2 0.2-13.8 1.2-16.1q0.5-0.9 1.1-1.7 0.6-0.8 1.4-1.5 0.8-0.6 1.8-1 0.9-0.5 1.9-0.7 0.3-0.1 0.7-0.1zm4.8 5.1q-1-0.3-2-0.3-1 0-2 0.2-1 0.2-1.9 0.7-0.9 0.5-1.6 1.3-0.2 0.2-0.4 0.5-0.2 0.2-0.4 0.5-0.2 0.3-0.3 0.6-0.2 0.3-0.3 0.6l-0.7 1.4v9c-0.1 5.6-0.1 9 0.1 9.3 0.2 0.2 14.1 1.2 14.3 1 0.2-0.3 0-14.8-0.2-17.4-0.5-4.3-1.9-6.6-4.7-7.4z"/>
		<path class="s1" d="m640.6 998.5q-0.3 0.2-0.6 0.5-0.3 0.2-0.6 0.5-0.2 0.3-0.4 0.7-0.2 0.4-0.3 0.7-0.3 0.9-0.3 8v7l1.4 0.2c0.8 0.1 2.6 0.2 4 0.3l2.7 0.1v-4q0-1.5 0-3-0.1-1.4-0.2-2.9-0.1-1.5-0.2-3-0.2-1.5-0.4-2.9 0-0.3-0.1-0.5-0.1-0.2-0.3-0.5-0.1-0.2-0.2-0.4-0.2-0.2-0.4-0.4-0.1-0.2-0.4-0.4-0.2-0.2-0.5-0.3-0.2-0.1-0.5-0.1-0.3 0-0.6 0-0.2 0-0.5 0-0.3 0.1-0.5 0.1-0.3 0.1-0.6 0.1-0.2 0.1-0.5 0.2z"/>
		<path class="s1" d="m518.4 493.2l-4.1 0.4v25.5c0 25.8 4 593.1 4.2 602.9l0.1 5.4h12v-5c0-2.8-0.1-16-0.2-29.5-0.1-13.5-0.5-47.7-0.7-75.9-1-102.5-4-408.4-4.9-490.3-0.2-18.3-0.4-33.5-0.4-33.7 0.1-0.3-0.5-0.3-6 0.2z"/>
		<path class="s1" d="m666.8 771.6c0 147.9-0.2 288.9-0.3 313.3l-0.1 44.5 1.4 0.9c0.7 0.5 2.4 1.6 3.5 2.4q0.3 0.2 0.6 0.4 0.3 0.2 0.6 0.4 0.2 0.2 0.5 0.4 0.3 0.2 0.6 0.4c0.2 0 0.2-141.8 0.2-315v-315l-2.6-0.7c-1.5-0.3-3-0.6-3.5-0.7l-0.7-0.2z"/>
		<path class="s1" d="m447 1124.7q-3.8 0.1-7.5 0.3-3.8 0.2-7.5 0.5-3.8 0.4-7.5 0.8-3.8 0.5-7.5 1.1c-5.1 0.8-8.8 1.8-19.1 4.8-13.3 4-20.3 6-27.9 8q-8.5 2.3-17.1 4.2-8.6 1.9-17.2 3.5-8.7 1.5-17.4 2.7-8.7 1.2-17.5 2-7.4 0.7-14.8 0.9-7.4 0.2-14.8 0-7.5-0.3-14.8-1-7.4-0.7-14.8-1.8c-14.1-2.1-27.9-5-49.1-10.5-30.8-8-36.5-9.3-46.7-11q-2.1-0.3-4.3-0.6-2.1-0.3-4.3-0.5-2.1-0.2-4.3-0.3-2.2-0.1-4.3-0.2c-23.4-0.7-55.2 2.6-94.4 9.7-6.5 1.1-18.5 3.4-21 4l-11.7 0.3v60.4h1200.5l-0.1-44.7-15.9-1.6c-37.3-10.2-70-17.8-87-20.1-11-1.5-21.4-1.3-45 0.8-19.4 1.8-51.6 5.9-77.5 9.8-9 1.4-3.5 1-60.1 3.9-97.4 5-149.6 7.5-158.3 7.5-4 0-12.6-0.6-22.8-1.8-31.5-3.5-50.8-9.6-66.8-21.1q-0.5-0.3-1-0.7-0.5-0.3-1-0.6-0.5-0.3-1-0.6-0.6-0.3-1.1-0.6c-1.8-0.9-2-0.9-4.6-0.9q-0.8 0-1.6 0-0.8 0.1-1.6 0.2-0.8 0.1-1.6 0.3-0.8 0.2-1.6 0.4-1.7 0.5-3.4 0.8-1.7 0.4-3.4 0.6-1.8 0.1-3.5 0.2-1.8 0-3.5-0.1-1.2 0-2.3 0-1.2-0.1-2.3-0.2-1.2-0.1-2.4-0.2-1.1-0.2-2.3-0.3-1.1-0.2-2.2-0.4-1.1-0.1-2.2-0.2-1.2-0.1-2.3-0.1-1.1-0.1-2.3-0.1c-4.9-0.1-5.2-0.1-9 0.6-7.1 1.3-8.5 1.3-12.7-0.6q-0.5-0.3-1-0.5-0.5-0.2-1-0.4-0.5-0.2-0.9-0.4-0.5-0.1-1-0.3-0.4-0.2-0.7-0.2-0.4-0.1-0.8-0.1-0.3 0-0.7 0.1-0.4 0.1-0.7 0.3c-2.4 0.8-4.5 0.7-24.8-1.4-5.1-0.6-11.1-1.1-13.4-1.3-4-0.2-4.2-0.2-5.3 0.2-3 1.3-7 1.9-15.3 2.3-10.5 0.5-29.3-0.3-49.9-2.1q-0.5-0.1-1-0.1-0.6-0.1-1.1-0.2-0.5-0.1-1-0.3-0.5-0.1-1-0.3-1.5-0.4-3-0.7-1.5-0.3-3-0.6-1.5-0.3-3-0.5-1.5-0.2-3.1-0.4c-3.5-0.3-14.1-0.8-16.7-0.8z"/>
	</g>
</svg>